<?xml version="1.0" encoding="utf-8" standalone="no"?>
<!DOCTYPE svg PUBLIC "-//W3C//DTD SVG 1.1//EN"
  "http://www.w3.org/Graphics/SVG/1.1/DTD/svg11.dtd">
<svg xmlns:xlink="http://www.w3.org/1999/xlink" width="432pt" height="172.8pt" viewBox="0 0 432 172.8" xmlns="http://www.w3.org/2000/svg" version="1.1">
 <metadata>
  <rdf:RDF xmlns:dc="http://purl.org/dc/elements/1.1/" xmlns:cc="http://creativecommons.org/ns#" xmlns:rdf="http://www.w3.org/1999/02/22-rdf-syntax-ns#">
   <cc:Work>
    <dc:type rdf:resource="http://purl.org/dc/dcmitype/StillImage"/>
    <dc:date>2022-11-06T09:51:08.201715</dc:date>
    <dc:format>image/svg+xml</dc:format>
    <dc:creator>
     <cc:Agent>
      <dc:title>Matplotlib v3.5.1, https://matplotlib.org/</dc:title>
     </cc:Agent>
    </dc:creator>
   </cc:Work>
  </rdf:RDF>
 </metadata>
 <defs>
  <style type="text/css">*{stroke-linejoin: round; stroke-linecap: butt}</style>
 </defs>
 <g id="figure_1">
  <g id="patch_1">
   <path d="M 0 172.8 
L 432 172.8 
L 432 0 
L 0 0 
z
" style="fill: #f0f8ff"/>
  </g>
  <g id="axes_1">
   <g id="patch_2">
    <path d="M 21.65524 141.286322 
L 135.001652 141.286322 
L 135.001652 16.995615 
L 21.65524 16.995615 
z
" style="fill: #b0c4de"/>
   </g>
   <g id="matplotlib.axis_1">
    <g id="xtick_1">
     <g id="line2d_1">
      <defs>
       <path id="m5e4c6ffaac" d="M 0 0 
L 0 3.5 
" style="stroke: #000000; stroke-width: 0.8"/>
      </defs>
      <g>
       <use xlink:href="#m5e4c6ffaac" x="23.834979" y="141.286322" style="stroke: #000000; stroke-width: 0.8"/>
      </g>
     </g>
     <g id="text_1">
      <!-- 0 -->
      <g transform="translate(21.409197 154.949135)scale(0.09 -0.09)">
       <defs>
        <path id="NirmalaUI-30" d="M 3188 2259 
Q 3188 1697 3086 1262 
Q 2984 828 2792 529 
Q 2600 231 2320 76 
Q 2041 -78 1684 -78 
Q 1347 -78 1083 70 
Q 819 219 637 503 
Q 456 788 362 1202 
Q 269 1616 269 2150 
Q 269 2738 367 3188 
Q 466 3638 656 3942 
Q 847 4247 1130 4401 
Q 1413 4556 1778 4556 
Q 3188 4556 3188 2259 
z
M 2663 2209 
Q 2663 4122 1753 4122 
Q 794 4122 794 2175 
Q 794 359 1734 359 
Q 2663 359 2663 2209 
z
" transform="scale(0.015625)"/>
       </defs>
       <use xlink:href="#NirmalaUI-30"/>
      </g>
     </g>
    </g>
    <g id="xtick_2">
     <g id="line2d_2">
      <g>
       <use xlink:href="#m5e4c6ffaac" x="65.081443" y="141.286322" style="stroke: #000000; stroke-width: 0.8"/>
      </g>
     </g>
     <g id="text_2">
      <!-- 5 -->
      <g transform="translate(62.655662 154.949135)scale(0.09 -0.09)">
       <defs>
        <path id="NirmalaUI-35" d="M 3028 1369 
Q 3028 1041 2915 775 
Q 2803 509 2595 318 
Q 2388 128 2094 25 
Q 1800 -78 1441 -78 
Q 816 -78 513 109 
L 513 653 
Q 969 359 1447 359 
Q 1691 359 1886 431 
Q 2081 503 2218 631 
Q 2356 759 2429 940 
Q 2503 1122 2503 1338 
Q 2503 1775 2209 2023 
Q 1916 2272 1356 2272 
Q 1266 2272 1166 2269 
Q 1066 2266 966 2261 
Q 866 2256 770 2250 
Q 675 2244 597 2234 
L 750 4481 
L 2822 4481 
L 2822 4019 
L 1194 4019 
L 1103 2703 
Q 1203 2709 1315 2714 
Q 1428 2719 1516 2719 
Q 1872 2719 2153 2625 
Q 2434 2531 2629 2357 
Q 2825 2184 2926 1932 
Q 3028 1681 3028 1369 
z
" transform="scale(0.015625)"/>
       </defs>
       <use xlink:href="#NirmalaUI-35"/>
      </g>
     </g>
    </g>
    <g id="xtick_3">
     <g id="line2d_3">
      <g>
       <use xlink:href="#m5e4c6ffaac" x="106.327908" y="141.286322" style="stroke: #000000; stroke-width: 0.8"/>
      </g>
     </g>
     <g id="text_3">
      <!-- 10 -->
      <g transform="translate(101.476345 154.949135)scale(0.09 -0.09)">
       <defs>
        <path id="NirmalaUI-31" d="M 2263 0 
L 1750 0 
L 1750 3872 
Q 1691 3813 1577 3736 
Q 1463 3659 1320 3584 
Q 1178 3509 1020 3443 
Q 863 3378 713 3341 
L 713 3859 
Q 881 3906 1070 3986 
Q 1259 4066 1442 4164 
Q 1625 4263 1787 4370 
Q 1950 4478 2069 4581 
L 2263 4581 
L 2263 0 
z
" transform="scale(0.015625)"/>
       </defs>
       <use xlink:href="#NirmalaUI-31"/>
       <use xlink:href="#NirmalaUI-30" x="53.90625"/>
      </g>
     </g>
    </g>
    <g id="text_4">
     <!-- loss -->
     <g transform="translate(70.782509 167.681947)scale(0.09 -0.09)">
      <defs>
       <path id="NirmalaUI-6c" d="M 1031 0 
L 519 0 
L 519 4738 
L 1031 4738 
L 1031 0 
z
" transform="scale(0.015625)"/>
       <path id="NirmalaUI-6f" d="M 1856 -75 
Q 1147 -75 723 373 
Q 300 822 300 1563 
Q 300 2369 740 2822 
Q 1181 3275 1931 3275 
Q 2647 3275 3048 2834 
Q 3450 2394 3450 1613 
Q 3450 847 3017 386 
Q 2584 -75 1856 -75 
z
M 1894 2844 
Q 1400 2844 1112 2508 
Q 825 2172 825 1581 
Q 825 1013 1115 684 
Q 1406 356 1894 356 
Q 2391 356 2658 678 
Q 2925 1000 2925 1594 
Q 2925 2194 2658 2519 
Q 2391 2844 1894 2844 
z
" transform="scale(0.015625)"/>
       <path id="NirmalaUI-73" d="M 325 116 
L 325 666 
Q 744 356 1247 356 
Q 1922 356 1922 806 
Q 1922 934 1864 1023 
Q 1806 1113 1707 1181 
Q 1609 1250 1476 1304 
Q 1344 1359 1191 1419 
Q 978 1503 817 1589 
Q 656 1675 548 1783 
Q 441 1891 386 2028 
Q 331 2166 331 2350 
Q 331 2575 434 2748 
Q 538 2922 709 3039 
Q 881 3156 1101 3215 
Q 1322 3275 1556 3275 
Q 1972 3275 2300 3131 
L 2300 2613 
Q 1947 2844 1488 2844 
Q 1344 2844 1228 2811 
Q 1113 2778 1030 2718 
Q 947 2659 901 2576 
Q 856 2494 856 2394 
Q 856 2269 901 2184 
Q 947 2100 1034 2034 
Q 1122 1969 1247 1916 
Q 1372 1863 1531 1800 
Q 1744 1719 1912 1633 
Q 2081 1547 2200 1439 
Q 2319 1331 2383 1190 
Q 2447 1050 2447 856 
Q 2447 619 2342 444 
Q 2238 269 2063 153 
Q 1888 38 1659 -18 
Q 1431 -75 1181 -75 
Q 688 -75 325 116 
z
" transform="scale(0.015625)"/>
      </defs>
      <use xlink:href="#NirmalaUI-6c"/>
      <use xlink:href="#NirmalaUI-6f" x="24.21875"/>
      <use xlink:href="#NirmalaUI-73" x="82.8125"/>
      <use xlink:href="#NirmalaUI-73" x="125.244141"/>
     </g>
    </g>
   </g>
   <g id="matplotlib.axis_2">
    <g id="ytick_1">
     <g id="line2d_4">
      <defs>
       <path id="m8ac3409bf5" d="M 0 0 
L -3.5 0 
" style="stroke: #000000; stroke-width: 0.8"/>
      </defs>
      <g>
       <use xlink:href="#m8ac3409bf5" x="21.65524" y="141.286322" style="stroke: #000000; stroke-width: 0.8"/>
      </g>
     </g>
     <g id="text_5">
      <!-- 0.0 -->
      <g transform="translate(3.00024 144.617729)scale(0.09 -0.09)">
       <defs>
        <path id="NirmalaUI-2e" d="M 697 -69 
Q 553 -69 451 34 
Q 350 138 350 281 
Q 350 425 451 529 
Q 553 634 697 634 
Q 844 634 947 529 
Q 1050 425 1050 281 
Q 1050 138 947 34 
Q 844 -69 697 -69 
z
" transform="scale(0.015625)"/>
       </defs>
       <use xlink:href="#NirmalaUI-30"/>
       <use xlink:href="#NirmalaUI-2e" x="53.90625"/>
       <use xlink:href="#NirmalaUI-30" x="75.585938"/>
      </g>
     </g>
    </g>
    <g id="ytick_2">
     <g id="line2d_5">
      <g>
       <use xlink:href="#m8ac3409bf5" x="21.65524" y="116.428181" style="stroke: #000000; stroke-width: 0.8"/>
      </g>
     </g>
     <g id="text_6">
      <!-- 0.2 -->
      <g transform="translate(3.00024 119.759587)scale(0.09 -0.09)">
       <defs>
        <path id="NirmalaUI-32" d="M 2413 3306 
Q 2413 3513 2348 3666 
Q 2284 3819 2173 3920 
Q 2063 4022 1913 4072 
Q 1763 4122 1588 4122 
Q 1438 4122 1294 4081 
Q 1150 4041 1014 3969 
Q 878 3897 751 3797 
Q 625 3697 516 3575 
L 516 4125 
Q 731 4334 998 4445 
Q 1266 4556 1650 4556 
Q 1925 4556 2159 4476 
Q 2394 4397 2566 4244 
Q 2738 4091 2836 3866 
Q 2934 3641 2934 3350 
Q 2934 3084 2873 2868 
Q 2813 2653 2689 2462 
Q 2566 2272 2378 2097 
Q 2191 1922 1938 1741 
Q 1622 1516 1417 1356 
Q 1213 1197 1092 1058 
Q 972 919 923 780 
Q 875 641 875 459 
L 3106 459 
L 3106 0 
L 341 0 
L 341 222 
Q 341 509 403 728 
Q 466 947 609 1144 
Q 753 1341 986 1537 
Q 1219 1734 1556 1981 
Q 1800 2156 1964 2315 
Q 2128 2475 2228 2634 
Q 2328 2794 2370 2958 
Q 2413 3122 2413 3306 
z
" transform="scale(0.015625)"/>
       </defs>
       <use xlink:href="#NirmalaUI-30"/>
       <use xlink:href="#NirmalaUI-2e" x="53.90625"/>
       <use xlink:href="#NirmalaUI-32" x="75.585938"/>
      </g>
     </g>
    </g>
    <g id="ytick_3">
     <g id="line2d_6">
      <g>
       <use xlink:href="#m8ac3409bf5" x="21.65524" y="91.570039" style="stroke: #000000; stroke-width: 0.8"/>
      </g>
     </g>
     <g id="text_7">
      <!-- 0.4 -->
      <g transform="translate(3.00024 94.901446)scale(0.09 -0.09)">
       <defs>
        <path id="NirmalaUI-34" d="M 2656 4481 
L 2656 1522 
L 3231 1522 
L 3231 1053 
L 2656 1053 
L 2656 0 
L 2150 0 
L 2150 1053 
L 44 1053 
L 44 1497 
Q 338 1828 638 2204 
Q 938 2581 1211 2968 
Q 1484 3356 1717 3742 
Q 1950 4128 2109 4481 
L 2656 4481 
z
M 622 1522 
L 2150 1522 
L 2150 3716 
Q 1916 3306 1706 2984 
Q 1497 2663 1308 2400 
Q 1119 2138 947 1925 
Q 775 1713 622 1522 
z
" transform="scale(0.015625)"/>
       </defs>
       <use xlink:href="#NirmalaUI-30"/>
       <use xlink:href="#NirmalaUI-2e" x="53.90625"/>
       <use xlink:href="#NirmalaUI-34" x="75.585938"/>
      </g>
     </g>
    </g>
    <g id="ytick_4">
     <g id="line2d_7">
      <g>
       <use xlink:href="#m8ac3409bf5" x="21.65524" y="66.711898" style="stroke: #000000; stroke-width: 0.8"/>
      </g>
     </g>
     <g id="text_8">
      <!-- 0.6 -->
      <g transform="translate(3.00024 70.043304)scale(0.09 -0.09)">
       <defs>
        <path id="NirmalaUI-36" d="M 3194 1422 
Q 3194 1094 3087 819 
Q 2981 544 2793 344 
Q 2606 144 2347 33 
Q 2088 -78 1784 -78 
Q 1447 -78 1180 62 
Q 913 203 727 467 
Q 541 731 444 1112 
Q 347 1494 347 1972 
Q 347 2556 476 3032 
Q 606 3509 845 3848 
Q 1084 4188 1421 4372 
Q 1759 4556 2175 4556 
Q 2638 4556 2919 4428 
L 2919 3944 
Q 2572 4122 2188 4122 
Q 1888 4122 1647 3987 
Q 1406 3853 1234 3608 
Q 1063 3363 970 3016 
Q 878 2669 878 2244 
L 891 2244 
Q 1200 2803 1913 2803 
Q 2206 2803 2442 2703 
Q 2678 2603 2845 2420 
Q 3013 2238 3103 1984 
Q 3194 1731 3194 1422 
z
M 2669 1356 
Q 2669 1591 2609 1778 
Q 2550 1966 2439 2097 
Q 2328 2228 2165 2298 
Q 2003 2369 1797 2369 
Q 1606 2369 1443 2297 
Q 1281 2225 1162 2101 
Q 1044 1978 976 1814 
Q 909 1650 909 1466 
Q 909 1234 975 1032 
Q 1041 831 1159 681 
Q 1278 531 1442 445 
Q 1606 359 1806 359 
Q 2000 359 2159 432 
Q 2319 506 2431 637 
Q 2544 769 2606 951 
Q 2669 1134 2669 1356 
z
" transform="scale(0.015625)"/>
       </defs>
       <use xlink:href="#NirmalaUI-30"/>
       <use xlink:href="#NirmalaUI-2e" x="53.90625"/>
       <use xlink:href="#NirmalaUI-36" x="75.585938"/>
      </g>
     </g>
    </g>
    <g id="ytick_5">
     <g id="line2d_8">
      <g>
       <use xlink:href="#m8ac3409bf5" x="21.65524" y="41.853756" style="stroke: #000000; stroke-width: 0.8"/>
      </g>
     </g>
     <g id="text_9">
      <!-- 0.8 -->
      <g transform="translate(3.00024 45.185163)scale(0.09 -0.09)">
       <defs>
        <path id="NirmalaUI-38" d="M 281 1250 
Q 281 1428 337 1608 
Q 394 1788 498 1944 
Q 603 2100 758 2228 
Q 913 2356 1109 2431 
Q 819 2594 647 2848 
Q 475 3103 475 3413 
Q 475 3659 570 3868 
Q 666 4078 834 4231 
Q 1003 4384 1234 4470 
Q 1466 4556 1734 4556 
Q 2006 4556 2237 4468 
Q 2469 4381 2637 4228 
Q 2806 4075 2900 3865 
Q 2994 3656 2994 3413 
Q 2994 3103 2822 2848 
Q 2650 2594 2366 2431 
Q 2559 2356 2712 2228 
Q 2866 2100 2970 1944 
Q 3075 1788 3131 1608 
Q 3188 1428 3188 1250 
Q 3188 956 3081 712 
Q 2975 469 2783 295 
Q 2591 122 2323 25 
Q 2056 -72 1734 -72 
Q 1416 -72 1150 25 
Q 884 122 690 295 
Q 497 469 389 712 
Q 281 956 281 1250 
z
M 838 1294 
Q 838 1084 902 915 
Q 966 747 1083 628 
Q 1200 509 1367 445 
Q 1534 381 1738 381 
Q 1934 381 2100 447 
Q 2266 513 2386 631 
Q 2506 750 2573 919 
Q 2641 1088 2641 1294 
Q 2641 1481 2577 1645 
Q 2513 1809 2394 1934 
Q 2275 2059 2109 2131 
Q 1944 2203 1738 2203 
Q 1544 2203 1380 2136 
Q 1216 2069 1095 1948 
Q 975 1828 906 1661 
Q 838 1494 838 1294 
z
M 997 3372 
Q 997 3213 1055 3077 
Q 1113 2941 1214 2839 
Q 1316 2738 1450 2680 
Q 1584 2622 1738 2622 
Q 1891 2622 2027 2681 
Q 2163 2741 2263 2842 
Q 2363 2944 2422 3080 
Q 2481 3216 2481 3372 
Q 2481 3534 2423 3671 
Q 2366 3809 2266 3909 
Q 2166 4009 2030 4067 
Q 1894 4125 1738 4125 
Q 1572 4125 1436 4065 
Q 1300 4006 1201 3904 
Q 1103 3803 1050 3665 
Q 997 3528 997 3372 
z
" transform="scale(0.015625)"/>
       </defs>
       <use xlink:href="#NirmalaUI-30"/>
       <use xlink:href="#NirmalaUI-2e" x="53.90625"/>
       <use xlink:href="#NirmalaUI-38" x="75.585938"/>
      </g>
     </g>
    </g>
    <g id="ytick_6">
     <g id="line2d_9">
      <g>
       <use xlink:href="#m8ac3409bf5" x="21.65524" y="16.995615" style="stroke: #000000; stroke-width: 0.8"/>
      </g>
     </g>
     <g id="text_10">
      <!-- 1.0 -->
      <g transform="translate(3.00024 20.327021)scale(0.09 -0.09)">
       <use xlink:href="#NirmalaUI-31"/>
       <use xlink:href="#NirmalaUI-2e" x="53.90625"/>
       <use xlink:href="#NirmalaUI-30" x="75.585938"/>
      </g>
     </g>
    </g>
   </g>
   <g id="line2d_10">
    <path d="M 23.83691 -1 
L 23.947762 141.286322 
L 30.295851 141.175685 
L 30.507319 140.883994 
L 30.70469 140.164805 
L 30.926229 138.367837 
L 31.198117 134.030728 
L 32.06816 117.456132 
L 32.108439 117.513458 
L 32.209139 118.134121 
L 32.40651 121.04335 
L 33.475937 139.522353 
L 33.786091 140.749591 
L 34.084161 141.14365 
L 34.464805 141.265703 
L 35.653057 141.286312 
L 37.648919 141.175853 
L 37.930877 140.904399 
L 38.170542 140.319063 
L 38.418262 139.037059 
L 38.692165 136.281155 
L 39.016417 130.445517 
L 39.479634 117.358888 
L 40.10397 101.046167 
L 40.335578 99.333124 
L 40.389956 99.401533 
L 40.398012 99.426938 
L 40.514823 100.227306 
L 40.726292 103.546517 
L 41.127076 114.133515 
L 41.866209 132.770724 
L 42.277062 137.948943 
L 42.637566 140.039449 
L 42.973902 140.850112 
L 43.322322 141.15718 
L 43.813735 141.267464 
L 44.95768 141.244417 
L 45.398743 141.055254 
L 45.684729 140.674119 
L 45.950576 139.904454 
L 46.228506 138.334227 
L 46.532618 135.188153 
L 46.883052 128.963505 
L 47.330157 116.520414 
L 48.377431 85.952569 
L 48.609039 84.387888 
L 48.667445 84.45789 
L 48.673487 84.475833 
L 48.790298 85.210508 
L 48.997739 88.223293 
L 49.346159 97.122463 
L 50.608929 132.148946 
L 51.039922 137.372101 
L 51.426608 139.675548 
L 51.789125 140.654996 
L 52.151643 141.056322 
L 52.568539 141.190988 
L 53.015644 141.110642 
L 53.353994 140.827262 
L 53.648036 140.263226 
L 53.942078 139.163617 
L 54.25626 137.024754 
L 54.602666 132.955413 
L 55.00345 125.328515 
L 55.53917 110.284475 
L 56.501856 83.201505 
L 56.80194 80.064318 
L 56.896598 79.8884 
L 56.944934 79.952873 
L 57.059731 80.519205 
L 57.26113 82.853223 
L 57.585382 89.644426 
L 58.276179 110.156594 
L 58.971005 127.736277 
L 59.460404 135.031228 
L 59.889383 138.472363 
L 60.282111 140.036389 
L 60.642615 140.673342 
L 60.954783 140.833768 
L 61.226671 140.732265 
L 61.504601 140.368262 
L 61.806699 139.564436 
L 62.132965 137.995302 
L 62.491455 135.060514 
L 62.898281 129.692315 
L 63.39775 119.809224 
L 64.902198 87.637339 
L 65.145891 86.547784 
L 65.218394 86.586805 
L 65.23652 86.622645 
L 65.369443 87.199958 
L 65.590982 89.335628 
L 65.939402 95.203435 
L 66.634227 111.640871 
L 67.419683 128.144764 
L 67.945333 134.911703 
L 68.400495 138.203647 
L 68.803292 139.687743 
L 69.137614 140.201607 
L 69.387348 140.246004 
L 69.618957 140.041371 
L 69.896887 139.45828 
L 70.229195 138.184005 
L 70.609839 135.749938 
L 71.050902 131.338335 
L 71.606763 123.271983 
L 73.032666 101.412164 
L 73.338792 99.872122 
L 73.463659 99.775688 
L 73.495883 99.801718 
L 73.626792 100.120198 
L 73.840275 101.346328 
L 74.168555 104.742212 
L 74.716359 113.135423 
L 75.87843 130.996819 
L 76.428249 136.054029 
L 76.89348 138.505373 
L 77.286207 139.543092 
L 77.588306 139.822384 
L 77.8179 139.765033 
L 78.071663 139.436657 
L 78.389873 138.614438 
L 78.780586 136.919676 
L 79.251859 133.77888 
L 79.874181 127.939653 
L 81.15105 115.67076 
L 81.517595 114.134869 
L 81.73712 113.919058 
L 81.880113 114.072253 
L 82.089568 114.703265 
L 82.40375 116.472866 
L 82.893149 120.703273 
L 84.504339 135.52904 
L 85.036031 138.134151 
L 85.479109 139.328899 
L 85.833571 139.73951 
L 86.109487 139.761435 
L 86.383389 139.540831 
L 86.719725 138.946642 
L 87.142662 137.696118 
L 87.682411 135.329577 
L 88.633013 129.91233 
L 89.341937 126.507446 
L 89.74272 125.508035 
L 90.000511 125.334124 
L 90.197881 125.460255 
L 90.44963 125.936163 
L 90.810134 127.162052 
L 91.382106 130.022628 
L 92.787869 137.244773 
L 93.359842 138.981246 
L 93.829101 139.775156 
L 94.217801 140.04538 
L 94.55615 140.023627 
L 94.912626 139.762833 
L 95.345634 139.143446 
L 95.90955 137.90759 
L 97.905412 133.126351 
L 98.245776 132.956358 
L 98.533776 133.054057 
L 98.866084 133.429179 
L 99.321245 134.322625 
L 100.153022 136.557224 
L 101.127792 138.954594 
L 101.742058 139.915139 
L 102.259653 140.34689 
L 102.728912 140.463607 
L 103.200185 140.348769 
L 103.741948 139.972505 
L 104.479067 139.157936 
L 105.872746 137.591855 
L 106.388327 137.359265 
L 106.833418 137.396592 
L 107.310733 137.672804 
L 107.955209 138.333712 
L 109.802036 140.362078 
L 110.484778 140.71613 
L 111.145366 140.81157 
L 111.864359 140.684573 
L 112.831073 140.26413 
L 114.291214 139.643237 
L 115.018264 139.593494 
L 115.761425 139.77368 
L 116.917454 140.325333 
L 118.240644 140.876943 
L 119.227498 141.039971 
L 120.325121 140.986376 
L 123.746886 140.643805 
L 125.388285 140.922761 
L 127.23914 141.162222 
L 129.005407 141.142014 
L 132.378836 141.063788 
L 135.003062 141.219235 
L 135.003062 141.219235 
" clip-path="url(#ped3f5264f0)" style="fill: none; stroke: #1f77b4; stroke-width: 2; stroke-linecap: square"/>
   </g>
   <g id="line2d_11">
    <path d="M 23.834979 141.286322 
L 29.856801 141.175291 
L 30.015906 140.863552 
L 30.164941 139.973348 
L 30.324046 137.386055 
L 30.495235 130.26679 
L 30.68455 111.436777 
L 30.900047 64.05584 
L 31.06755 -1 
M 33.156197 -1 
L 33.508161 95.14477 
L 33.814287 127.296901 
L 34.096245 137.33548 
L 34.362091 140.240622 
L 34.619882 141.030933 
L 34.895798 141.236484 
L 35.435547 141.284887 
L 46.742073 141.286322 
L 135.003062 141.286322 
L 135.003062 141.286322 
" clip-path="url(#ped3f5264f0)" style="fill: none; stroke: #ff7f0e; stroke-linecap: square"/>
   </g>
   <g id="patch_3">
    <path d="M 21.65524 141.286322 
L 21.65524 16.995615 
" style="fill: none; stroke: #000000; stroke-width: 0.8; stroke-linejoin: miter; stroke-linecap: square"/>
   </g>
   <g id="patch_4">
    <path d="M 135.001652 141.286322 
L 135.001652 16.995615 
" style="fill: none; stroke: #000000; stroke-width: 0.8; stroke-linejoin: miter; stroke-linecap: square"/>
   </g>
   <g id="patch_5">
    <path d="M 21.65524 141.286322 
L 135.001652 141.286322 
" style="fill: none; stroke: #000000; stroke-width: 0.8; stroke-linejoin: miter; stroke-linecap: square"/>
   </g>
   <g id="patch_6">
    <path d="M 21.65524 16.995615 
L 135.001652 16.995615 
" style="fill: none; stroke: #000000; stroke-width: 0.8; stroke-linejoin: miter; stroke-linecap: square"/>
   </g>
   <g id="text_11">
    <!-- Probability density -->
    <g transform="translate(34.217196 10.995615)scale(0.108 -0.108)">
     <defs>
      <path id="NirmalaUI-50" d="M 1113 1694 
L 1113 0 
L 588 0 
L 588 4481 
L 1819 4481 
Q 2538 4481 2933 4131 
Q 3328 3781 3328 3144 
Q 3328 2506 2889 2100 
Q 2450 1694 1703 1694 
L 1113 1694 
z
M 1113 4006 
L 1113 2169 
L 1663 2169 
Q 2206 2169 2492 2417 
Q 2778 2666 2778 3119 
Q 2778 4006 1728 4006 
L 1113 4006 
z
" transform="scale(0.015625)"/>
      <path id="NirmalaUI-72" d="M 2188 2681 
Q 2053 2784 1800 2784 
Q 1472 2784 1251 2475 
Q 1031 2166 1031 1631 
L 1031 0 
L 519 0 
L 519 3200 
L 1031 3200 
L 1031 2541 
L 1044 2541 
Q 1153 2878 1378 3067 
Q 1603 3256 1881 3256 
Q 2081 3256 2188 3213 
L 2188 2681 
z
" transform="scale(0.015625)"/>
      <path id="NirmalaUI-62" d="M 1044 463 
L 1031 463 
L 1031 0 
L 519 0 
L 519 4738 
L 1031 4738 
L 1031 2638 
L 1044 2638 
Q 1422 3275 2150 3275 
Q 2766 3275 3114 2845 
Q 3463 2416 3463 1694 
Q 3463 891 3072 408 
Q 2681 -75 2003 -75 
Q 1369 -75 1044 463 
z
M 1031 1753 
L 1031 1306 
Q 1031 909 1289 632 
Q 1547 356 1944 356 
Q 2409 356 2673 712 
Q 2938 1069 2938 1703 
Q 2938 2238 2691 2541 
Q 2444 2844 2022 2844 
Q 1575 2844 1303 2533 
Q 1031 2222 1031 1753 
z
" transform="scale(0.015625)"/>
      <path id="NirmalaUI-61" d="M 2809 0 
L 2297 0 
L 2297 500 
L 2284 500 
Q 1950 -75 1300 -75 
Q 822 -75 551 178 
Q 281 431 281 850 
Q 281 1747 1338 1894 
L 2297 2028 
Q 2297 2844 1638 2844 
Q 1059 2844 594 2450 
L 594 2975 
Q 1066 3275 1681 3275 
Q 2809 3275 2809 2081 
L 2809 0 
z
M 2297 1619 
L 1525 1513 
Q 1169 1463 987 1336 
Q 806 1209 806 888 
Q 806 653 973 504 
Q 1141 356 1419 356 
Q 1800 356 2048 623 
Q 2297 891 2297 1300 
L 2297 1619 
z
" transform="scale(0.015625)"/>
      <path id="NirmalaUI-69" d="M 781 4013 
Q 644 4013 547 4106 
Q 450 4200 450 4344 
Q 450 4488 547 4583 
Q 644 4678 781 4678 
Q 922 4678 1020 4583 
Q 1119 4488 1119 4344 
Q 1119 4206 1020 4109 
Q 922 4013 781 4013 
z
M 1031 0 
L 519 0 
L 519 3200 
L 1031 3200 
L 1031 0 
z
" transform="scale(0.015625)"/>
      <path id="NirmalaUI-74" d="M 2003 31 
Q 1822 -69 1525 -69 
Q 684 -69 684 869 
L 684 2763 
L 134 2763 
L 134 3200 
L 684 3200 
L 684 3981 
L 1197 4147 
L 1197 3200 
L 2003 3200 
L 2003 2763 
L 1197 2763 
L 1197 959 
Q 1197 638 1306 500 
Q 1416 363 1669 363 
Q 1863 363 2003 469 
L 2003 31 
z
" transform="scale(0.015625)"/>
      <path id="NirmalaUI-79" d="M 3066 3200 
L 1594 -513 
Q 1200 -1506 488 -1506 
Q 288 -1506 153 -1466 
L 153 -1006 
Q 319 -1063 456 -1063 
Q 844 -1063 1038 -600 
L 1294 6 
L 44 3200 
L 613 3200 
L 1478 738 
Q 1494 691 1544 494 
L 1563 494 
Q 1578 569 1625 731 
L 2534 3200 
L 3066 3200 
z
" transform="scale(0.015625)"/>
      <path id="NirmalaUI-20" transform="scale(0.015625)"/>
      <path id="NirmalaUI-64" d="M 3250 0 
L 2738 0 
L 2738 544 
L 2725 544 
Q 2369 -75 1625 -75 
Q 1022 -75 661 354 
Q 300 784 300 1525 
Q 300 2319 700 2797 
Q 1100 3275 1766 3275 
Q 2425 3275 2725 2756 
L 2738 2756 
L 2738 4738 
L 3250 4738 
L 3250 0 
z
M 2738 1447 
L 2738 1919 
Q 2738 2306 2481 2575 
Q 2225 2844 1831 2844 
Q 1363 2844 1094 2500 
Q 825 2156 825 1550 
Q 825 997 1083 676 
Q 1341 356 1775 356 
Q 2203 356 2470 665 
Q 2738 975 2738 1447 
z
" transform="scale(0.015625)"/>
      <path id="NirmalaUI-65" d="M 3091 1472 
L 831 1472 
Q 844 938 1119 647 
Q 1394 356 1875 356 
Q 2416 356 2869 713 
L 2869 231 
Q 2447 -75 1753 -75 
Q 1075 -75 687 361 
Q 300 797 300 1588 
Q 300 2334 723 2804 
Q 1147 3275 1775 3275 
Q 2403 3275 2747 2869 
Q 3091 2463 3091 1741 
L 3091 1472 
z
M 2566 1906 
Q 2563 2350 2352 2597 
Q 2141 2844 1766 2844 
Q 1403 2844 1150 2584 
Q 897 2325 838 1906 
L 2566 1906 
z
" transform="scale(0.015625)"/>
      <path id="NirmalaUI-6e" d="M 3175 0 
L 2663 0 
L 2663 1825 
Q 2663 2844 1919 2844 
Q 1534 2844 1282 2555 
Q 1031 2266 1031 1825 
L 1031 0 
L 519 0 
L 519 3200 
L 1031 3200 
L 1031 2669 
L 1044 2669 
Q 1406 3275 2094 3275 
Q 2619 3275 2897 2936 
Q 3175 2597 3175 1956 
L 3175 0 
z
" transform="scale(0.015625)"/>
     </defs>
     <use xlink:href="#NirmalaUI-50"/>
     <use xlink:href="#NirmalaUI-72" x="56.005859"/>
     <use xlink:href="#NirmalaUI-6f" x="90.771484"/>
     <use xlink:href="#NirmalaUI-62" x="149.365234"/>
     <use xlink:href="#NirmalaUI-61" x="208.154297"/>
     <use xlink:href="#NirmalaUI-62" x="259.033203"/>
     <use xlink:href="#NirmalaUI-69" x="317.822266"/>
     <use xlink:href="#NirmalaUI-6c" x="342.041016"/>
     <use xlink:href="#NirmalaUI-69" x="366.259766"/>
     <use xlink:href="#NirmalaUI-74" x="390.478516"/>
     <use xlink:href="#NirmalaUI-79" x="424.365234"/>
     <use xlink:href="#NirmalaUI-20" x="472.753906"/>
     <use xlink:href="#NirmalaUI-64" x="500.146484"/>
     <use xlink:href="#NirmalaUI-65" x="559.033203"/>
     <use xlink:href="#NirmalaUI-6e" x="611.328125"/>
     <use xlink:href="#NirmalaUI-73" x="667.919922"/>
     <use xlink:href="#NirmalaUI-69" x="710.351562"/>
     <use xlink:href="#NirmalaUI-74" x="734.570312"/>
     <use xlink:href="#NirmalaUI-79" x="768.457031"/>
    </g>
   </g>
   <g id="legend_1">
    <g id="patch_7">
     <path d="M 81.579809 40.425922 
L 130.629452 40.425922 
Q 131.878652 40.425922 131.878652 39.176722 
L 131.878652 21.367815 
Q 131.878652 20.118615 130.629452 20.118615 
L 81.579809 20.118615 
Q 80.330609 20.118615 80.330609 21.367815 
L 80.330609 39.176722 
Q 80.330609 40.425922 81.579809 40.425922 
z
" style="fill: #b0c4de; opacity: 0.8; stroke: #b0c4de; stroke-linejoin: miter"/>
    </g>
    <g id="line2d_12">
     <path d="M 82.829009 25.054907 
L 89.075009 25.054907 
L 95.321009 25.054907 
" style="fill: none; stroke: #1f77b4; stroke-width: 2; stroke-linecap: square"/>
    </g>
    <g id="text_12">
     <!-- Aggregate -->
     <g transform="translate(100.317809 27.241007)scale(0.06246 -0.06246)">
      <defs>
       <path id="NirmalaUI-41" d="M 4056 0 
L 3475 0 
L 3000 1256 
L 1100 1256 
L 653 0 
L 69 0 
L 1788 4481 
L 2331 4481 
L 4056 0 
z
M 2828 1728 
L 2125 3638 
Q 2091 3731 2056 3938 
L 2044 3938 
Q 2013 3747 1972 3638 
L 1275 1728 
L 2828 1728 
z
" transform="scale(0.015625)"/>
       <path id="NirmalaUI-67" d="M 3250 256 
Q 3250 -1506 1563 -1506 
Q 969 -1506 525 -1281 
L 525 -769 
Q 1066 -1069 1556 -1069 
Q 2738 -1069 2738 188 
L 2738 538 
L 2725 538 
Q 2359 -75 1625 -75 
Q 1028 -75 664 351 
Q 300 778 300 1497 
Q 300 2313 692 2794 
Q 1084 3275 1766 3275 
Q 2413 3275 2725 2756 
L 2738 2756 
L 2738 3200 
L 3250 3200 
L 3250 256 
z
M 2738 1447 
L 2738 1919 
Q 2738 2300 2480 2572 
Q 2222 2844 1838 2844 
Q 1363 2844 1094 2498 
Q 825 2153 825 1531 
Q 825 997 1083 676 
Q 1341 356 1766 356 
Q 2197 356 2467 662 
Q 2738 969 2738 1447 
z
" transform="scale(0.015625)"/>
      </defs>
      <use xlink:href="#NirmalaUI-41"/>
      <use xlink:href="#NirmalaUI-67" x="64.501953"/>
      <use xlink:href="#NirmalaUI-67" x="123.388672"/>
      <use xlink:href="#NirmalaUI-72" x="182.275391"/>
      <use xlink:href="#NirmalaUI-65" x="217.041016"/>
      <use xlink:href="#NirmalaUI-67" x="269.335938"/>
      <use xlink:href="#NirmalaUI-61" x="328.222656"/>
      <use xlink:href="#NirmalaUI-74" x="379.101562"/>
      <use xlink:href="#NirmalaUI-65" x="412.988281"/>
     </g>
    </g>
    <g id="line2d_13">
     <path d="M 82.829009 34.271661 
L 89.075009 34.271661 
L 95.321009 34.271661 
" style="fill: none; stroke: #ff7f0e; stroke-linecap: square"/>
    </g>
    <g id="text_13">
     <!-- Severity -->
     <g transform="translate(100.317809 36.457761)scale(0.06246 -0.06246)">
      <defs>
       <path id="NirmalaUI-53" d="M 378 181 
L 378 800 
Q 484 706 632 631 
Q 781 556 945 504 
Q 1109 453 1275 425 
Q 1441 397 1581 397 
Q 2066 397 2305 576 
Q 2544 756 2544 1094 
Q 2544 1275 2464 1409 
Q 2384 1544 2243 1655 
Q 2103 1766 1911 1867 
Q 1719 1969 1497 2081 
Q 1263 2200 1059 2322 
Q 856 2444 706 2591 
Q 556 2738 470 2923 
Q 384 3109 384 3359 
Q 384 3666 518 3892 
Q 653 4119 872 4266 
Q 1091 4413 1370 4484 
Q 1650 4556 1941 4556 
Q 2603 4556 2906 4397 
L 2906 3806 
Q 2509 4081 1888 4081 
Q 1716 4081 1544 4045 
Q 1372 4009 1237 3928 
Q 1103 3847 1018 3719 
Q 934 3591 934 3406 
Q 934 3234 998 3109 
Q 1063 2984 1188 2881 
Q 1313 2778 1492 2681 
Q 1672 2584 1906 2469 
Q 2147 2350 2362 2219 
Q 2578 2088 2740 1928 
Q 2903 1769 2998 1575 
Q 3094 1381 3094 1131 
Q 3094 800 2964 570 
Q 2834 341 2614 197 
Q 2394 53 2106 -11 
Q 1819 -75 1500 -75 
Q 1394 -75 1237 -58 
Q 1081 -41 918 -8 
Q 756 25 611 73 
Q 466 122 378 181 
z
" transform="scale(0.015625)"/>
       <path id="NirmalaUI-76" d="M 3034 3200 
L 1759 0 
L 1256 0 
L 44 3200 
L 606 3200 
L 1419 875 
Q 1509 619 1531 428 
L 1544 428 
Q 1575 669 1644 863 
L 2494 3200 
L 3034 3200 
z
" transform="scale(0.015625)"/>
      </defs>
      <use xlink:href="#NirmalaUI-53"/>
      <use xlink:href="#NirmalaUI-65" x="53.125"/>
      <use xlink:href="#NirmalaUI-76" x="105.419922"/>
      <use xlink:href="#NirmalaUI-65" x="153.320312"/>
      <use xlink:href="#NirmalaUI-72" x="205.615234"/>
      <use xlink:href="#NirmalaUI-69" x="240.380859"/>
      <use xlink:href="#NirmalaUI-74" x="264.599609"/>
      <use xlink:href="#NirmalaUI-79" x="298.486328"/>
     </g>
    </g>
   </g>
  </g>
  <g id="axes_2">
   <g id="patch_8">
    <path d="M 169.152132 141.286322 
L 282.498544 141.286322 
L 282.498544 16.995615 
L 169.152132 16.995615 
z
" style="fill: #b0c4de"/>
   </g>
   <g id="matplotlib.axis_3">
    <g id="xtick_4">
     <g id="line2d_14">
      <g>
       <use xlink:href="#m5e4c6ffaac" x="171.331871" y="141.286322" style="stroke: #000000; stroke-width: 0.8"/>
      </g>
     </g>
     <g id="text_14">
      <!-- 0 -->
      <g transform="translate(168.90609 154.949135)scale(0.09 -0.09)">
       <use xlink:href="#NirmalaUI-30"/>
      </g>
     </g>
    </g>
    <g id="xtick_5">
     <g id="line2d_15">
      <g>
       <use xlink:href="#m5e4c6ffaac" x="205.390808" y="141.286322" style="stroke: #000000; stroke-width: 0.8"/>
      </g>
     </g>
     <g id="text_15">
      <!-- 5 -->
      <g transform="translate(202.965026 154.949135)scale(0.09 -0.09)">
       <use xlink:href="#NirmalaUI-35"/>
      </g>
     </g>
    </g>
    <g id="xtick_6">
     <g id="line2d_16">
      <g>
       <use xlink:href="#m5e4c6ffaac" x="239.449744" y="141.286322" style="stroke: #000000; stroke-width: 0.8"/>
      </g>
     </g>
     <g id="text_16">
      <!-- 10 -->
      <g transform="translate(234.598182 154.949135)scale(0.09 -0.09)">
       <use xlink:href="#NirmalaUI-31"/>
       <use xlink:href="#NirmalaUI-30" x="53.90625"/>
      </g>
     </g>
    </g>
    <g id="xtick_7">
     <g id="line2d_17">
      <g>
       <use xlink:href="#m5e4c6ffaac" x="273.508681" y="141.286322" style="stroke: #000000; stroke-width: 0.8"/>
      </g>
     </g>
     <g id="text_17">
      <!-- 15 -->
      <g transform="translate(268.657119 154.949135)scale(0.09 -0.09)">
       <use xlink:href="#NirmalaUI-31"/>
       <use xlink:href="#NirmalaUI-35" x="53.90625"/>
      </g>
     </g>
    </g>
    <g id="text_18">
     <!-- loss -->
     <g transform="translate(218.279401 167.681947)scale(0.09 -0.09)">
      <use xlink:href="#NirmalaUI-6c"/>
      <use xlink:href="#NirmalaUI-6f" x="24.21875"/>
      <use xlink:href="#NirmalaUI-73" x="82.8125"/>
      <use xlink:href="#NirmalaUI-73" x="125.244141"/>
     </g>
    </g>
   </g>
   <g id="matplotlib.axis_4">
    <g id="ytick_7">
     <g id="line2d_18">
      <g>
       <use xlink:href="#m8ac3409bf5" x="169.152132" y="141.286322" style="stroke: #000000; stroke-width: 0.8"/>
      </g>
     </g>
     <g id="text_19">
      <!-- $\mathdefault{10^{-15}}$ -->
      <g transform="translate(141.002132 144.617729)scale(0.09 -0.09)">
       <defs>
        <path id="NirmalaUI-2212" d="M 3663 1656 
L 725 1656 
L 725 2075 
L 3663 2075 
L 3663 1656 
z
" transform="scale(0.015625)"/>
       </defs>
       <use xlink:href="#NirmalaUI-31" transform="translate(0 0.895313)"/>
       <use xlink:href="#NirmalaUI-30" transform="translate(53.90625 0.895313)"/>
       <use xlink:href="#NirmalaUI-2212" transform="translate(108.6875 35.895313)scale(0.7)"/>
       <use xlink:href="#NirmalaUI-31" transform="translate(156.573242 35.895313)scale(0.7)"/>
       <use xlink:href="#NirmalaUI-35" transform="translate(194.307617 35.895313)scale(0.7)"/>
      </g>
     </g>
    </g>
    <g id="ytick_8">
     <g id="line2d_19">
      <g>
       <use xlink:href="#m8ac3409bf5" x="169.152132" y="119.051433" style="stroke: #000000; stroke-width: 0.8"/>
      </g>
     </g>
     <g id="text_20">
      <!-- $\mathdefault{10^{-12}}$ -->
      <g transform="translate(141.002132 122.382839)scale(0.09 -0.09)">
       <use xlink:href="#NirmalaUI-31" transform="translate(0 0.895313)"/>
       <use xlink:href="#NirmalaUI-30" transform="translate(53.90625 0.895313)"/>
       <use xlink:href="#NirmalaUI-2212" transform="translate(108.6875 35.895313)scale(0.7)"/>
       <use xlink:href="#NirmalaUI-31" transform="translate(156.573242 35.895313)scale(0.7)"/>
       <use xlink:href="#NirmalaUI-32" transform="translate(194.307617 35.895313)scale(0.7)"/>
      </g>
     </g>
    </g>
    <g id="ytick_9">
     <g id="line2d_20">
      <g>
       <use xlink:href="#m8ac3409bf5" x="169.152132" y="96.816544" style="stroke: #000000; stroke-width: 0.8"/>
      </g>
     </g>
     <g id="text_21">
      <!-- $\mathdefault{10^{-9}}$ -->
      <g transform="translate(144.422132 100.14795)scale(0.09 -0.09)">
       <defs>
        <path id="NirmalaUI-39" d="M 3138 2509 
Q 3138 1894 3016 1414 
Q 2894 934 2659 601 
Q 2425 269 2087 95 
Q 1750 -78 1319 -78 
Q 875 -78 538 78 
L 538 569 
Q 909 359 1331 359 
Q 1634 359 1873 484 
Q 2113 609 2278 848 
Q 2444 1088 2531 1438 
Q 2619 1788 2619 2241 
L 2606 2241 
Q 2319 1663 1606 1663 
Q 1319 1663 1078 1764 
Q 838 1866 663 2052 
Q 488 2238 391 2494 
Q 294 2750 294 3059 
Q 294 3391 401 3666 
Q 509 3941 701 4139 
Q 894 4338 1158 4447 
Q 1422 4556 1734 4556 
Q 2072 4556 2333 4420 
Q 2594 4284 2772 4023 
Q 2950 3763 3044 3381 
Q 3138 3000 3138 2509 
z
M 2584 2969 
Q 2584 3228 2517 3440 
Q 2450 3653 2331 3804 
Q 2213 3956 2048 4039 
Q 1884 4122 1691 4122 
Q 1506 4122 1347 4048 
Q 1188 3975 1070 3842 
Q 953 3709 886 3526 
Q 819 3344 819 3128 
Q 819 2891 883 2703 
Q 947 2516 1065 2386 
Q 1184 2256 1351 2187 
Q 1519 2119 1722 2119 
Q 1900 2119 2058 2186 
Q 2216 2253 2333 2367 
Q 2450 2481 2517 2636 
Q 2584 2791 2584 2969 
z
" transform="scale(0.015625)"/>
       </defs>
       <use xlink:href="#NirmalaUI-31" transform="translate(0 0.16875)"/>
       <use xlink:href="#NirmalaUI-30" transform="translate(53.90625 0.16875)"/>
       <use xlink:href="#NirmalaUI-2212" transform="translate(108.6875 35.16875)scale(0.7)"/>
       <use xlink:href="#NirmalaUI-39" transform="translate(156.573242 35.16875)scale(0.7)"/>
      </g>
     </g>
    </g>
    <g id="ytick_10">
     <g id="line2d_21">
      <g>
       <use xlink:href="#m8ac3409bf5" x="169.152132" y="74.581655" style="stroke: #000000; stroke-width: 0.8"/>
      </g>
     </g>
     <g id="text_22">
      <!-- $\mathdefault{10^{-6}}$ -->
      <g transform="translate(144.422132 77.913061)scale(0.09 -0.09)">
       <use xlink:href="#NirmalaUI-31" transform="translate(0 0.16875)"/>
       <use xlink:href="#NirmalaUI-30" transform="translate(53.90625 0.16875)"/>
       <use xlink:href="#NirmalaUI-2212" transform="translate(108.6875 35.16875)scale(0.7)"/>
       <use xlink:href="#NirmalaUI-36" transform="translate(156.573242 35.16875)scale(0.7)"/>
      </g>
     </g>
    </g>
    <g id="ytick_11">
     <g id="line2d_22">
      <g>
       <use xlink:href="#m8ac3409bf5" x="169.152132" y="52.346765" style="stroke: #000000; stroke-width: 0.8"/>
      </g>
     </g>
     <g id="text_23">
      <!-- $\mathdefault{10^{-3}}$ -->
      <g transform="translate(144.422132 55.678172)scale(0.09 -0.09)">
       <defs>
        <path id="NirmalaUI-33" d="M 2978 1269 
Q 2978 966 2864 717 
Q 2750 469 2542 292 
Q 2334 116 2043 19 
Q 1753 -78 1403 -78 
Q 763 -78 384 166 
L 384 716 
Q 838 359 1422 359 
Q 1656 359 1845 418 
Q 2034 478 2170 590 
Q 2306 703 2379 862 
Q 2453 1022 2453 1222 
Q 2453 2100 1203 2100 
L 831 2100 
L 831 2534 
L 1184 2534 
Q 2291 2534 2291 3359 
Q 2291 4122 1447 4122 
Q 972 4122 556 3803 
L 556 4300 
Q 984 4556 1575 4556 
Q 1856 4556 2084 4478 
Q 2313 4400 2475 4259 
Q 2638 4119 2727 3922 
Q 2816 3725 2816 3488 
Q 2816 2603 1922 2350 
L 1922 2338 
Q 2150 2313 2344 2227 
Q 2538 2141 2678 2003 
Q 2819 1866 2898 1680 
Q 2978 1494 2978 1269 
z
" transform="scale(0.015625)"/>
       </defs>
       <use xlink:href="#NirmalaUI-31" transform="translate(0 0.16875)"/>
       <use xlink:href="#NirmalaUI-30" transform="translate(53.90625 0.16875)"/>
       <use xlink:href="#NirmalaUI-2212" transform="translate(108.6875 35.16875)scale(0.7)"/>
       <use xlink:href="#NirmalaUI-33" transform="translate(156.573242 35.16875)scale(0.7)"/>
      </g>
     </g>
    </g>
    <g id="ytick_12">
     <g id="line2d_23">
      <g>
       <use xlink:href="#m8ac3409bf5" x="169.152132" y="30.111876" style="stroke: #000000; stroke-width: 0.8"/>
      </g>
     </g>
     <g id="text_24">
      <!-- $\mathdefault{10^{0}}$ -->
      <g transform="translate(148.742132 33.443282)scale(0.09 -0.09)">
       <use xlink:href="#NirmalaUI-31" transform="translate(0 0.16875)"/>
       <use xlink:href="#NirmalaUI-30" transform="translate(53.90625 0.16875)"/>
       <use xlink:href="#NirmalaUI-30" transform="translate(108.6875 35.16875)scale(0.7)"/>
      </g>
     </g>
    </g>
   </g>
   <g id="line2d_24">
    <path d="M 171.331871 19.383785 
L 171.331905 173.8 
M 175.211717 173.8 
L 175.321489 111.792324 
L 176.066529 72.523327 
L 176.65358 53.065375 
L 177.177435 42.339019 
L 177.614813 37.356704 
L 177.94742 35.662446 
L 178.155299 35.432713 
L 178.286679 35.594974 
L 178.487906 36.281629 
L 178.785589 38.213929 
L 179.194696 42.513416 
L 179.730193 50.725354 
L 180.412037 64.898138 
L 181.315064 87.131378 
L 181.41152 85.857729 
L 181.943691 70.510997 
L 182.683741 53.744143 
L 183.345629 43.379071 
L 183.917712 37.565239 
L 184.388351 34.774229 
L 184.745903 33.770736 
L 184.98538 33.609441 
L 185.166651 33.749534 
L 185.406128 34.270063 
L 185.737071 35.595816 
L 186.172786 38.365221 
L 186.723251 43.431535 
L 187.398442 51.867448 
L 188.231622 63.254077 
L 188.294818 63.038009 
L 188.441165 61.322461 
L 189.788222 42.503215 
L 190.431817 37.082661 
L 190.97064 34.226676 
L 191.399702 32.989477 
L 191.714016 32.641905 
L 191.941851 32.676 
L 192.186317 32.973193 
L 192.507283 33.762717 
L 192.924705 35.446949 
L 193.44856 38.571974 
L 194.088828 43.847987 
L 195.11492 53.27904 
L 195.184768 53.147773 
L 195.329452 52.197221 
L 195.874927 46.333645 
L 196.634933 39.551261 
L 197.283517 35.589593 
L 197.825666 33.508135 
L 198.256392 32.620581 
L 198.577357 32.386231 
L 198.833464 32.454397 
L 199.117843 32.789938 
L 199.480385 33.605682 
L 199.937719 35.238909 
L 200.501488 38.150111 
L 201.184994 42.943417 
L 201.954979 48.166051 
L 202.021501 48.176513 
L 202.05975 48.121323 
L 202.197782 47.590975 
L 202.528726 45.171076 
L 203.466677 38.43043 
L 204.121913 35.276548 
L 204.667388 33.627594 
L 205.103103 32.927312 
L 205.437372 32.751847 
L 205.723414 32.845969 
L 206.042717 33.212307 
L 206.440182 34.046039 
L 206.93244 35.646001 
L 207.531132 38.412693 
L 208.326063 43.27326 
L 208.781734 45.467029 
L 208.903135 45.549409 
L 208.936396 45.520691 
L 209.074428 45.183542 
L 209.357144 43.753326 
L 210.579474 37.095709 
L 211.196459 35.041144 
L 211.702022 34.044284 
L 212.102813 33.682724 
L 212.427104 33.662126 
L 212.74807 33.877216 
L 213.127242 34.428191 
L 213.592891 35.536523 
L 214.158323 37.506316 
L 214.861786 40.838853 
L 215.628445 44.29408 
L 215.803064 44.413635 
L 215.814705 44.40654 
L 215.959389 44.170634 
L 216.223811 43.207512 
L 217.758792 36.848232 
L 218.320897 35.623766 
L 218.776568 35.102123 
L 219.145762 34.982918 
L 219.483358 35.107838 
L 219.859204 35.505842 
L 220.311549 36.340679 
L 220.858687 37.858315 
L 221.532216 40.440923 
L 222.516732 44.217052 
L 222.71297 44.307841 
L 222.875947 44.094659 
L 223.158663 43.269544 
L 224.743534 38.002641 
L 225.285684 37.110463 
L 225.728051 36.76541 
L 226.10057 36.737675 
L 226.468101 36.942459 
L 226.887185 37.453284 
L 227.389422 38.447722 
L 227.996429 40.185516 
L 229.559681 44.989259 
L 229.730973 44.882242 
L 229.978766 44.397995 
L 230.54586 42.647498 
L 231.372388 40.361697 
L 231.961102 39.339361 
L 232.443382 38.903314 
L 232.847499 38.813995 
L 233.23166 38.959507 
L 233.654071 39.375237 
L 234.152981 40.205201 
L 234.753336 41.672242 
L 235.614788 44.458484 
L 236.206828 46.052752 
L 236.472913 46.263333 
L 236.669151 46.150467 
L 236.948541 45.673722 
L 237.650342 43.867441 
L 238.402033 42.248534 
L 238.965801 41.518397 
L 239.431451 41.246734 
L 239.840557 41.254394 
L 240.254653 41.494167 
L 240.723628 42.043413 
L 241.279082 43.065327 
L 241.970904 44.848347 
L 243.126713 47.871234 
L 243.401113 48.036203 
L 243.62396 47.911528 
L 243.943262 47.424627 
L 245.721046 44.256847 
L 246.213304 43.958391 
L 246.645693 43.945181 
L 247.076418 44.161788 
L 247.557035 44.670227 
L 248.122467 45.617652 
L 248.832582 47.283035 
L 249.995043 50.034554 
L 250.299378 50.232845 
L 250.545507 50.136336 
L 250.88144 49.720261 
L 252.675854 47.098933 
L 253.164786 46.89727 
L 253.610479 46.949077 
L 254.069476 47.235997 
L 254.590006 47.842794 
L 255.208655 48.932851 
L 256.101704 51.027774 
L 256.825124 52.511456 
L 257.172698 52.788748 
L 257.445435 52.740681 
L 257.786357 52.419029 
L 258.674418 51.133437 
L 259.356262 50.396141 
L 259.885106 50.128423 
L 260.355745 50.131593 
L 260.826384 50.363699 
L 261.348576 50.88513 
L 261.963899 51.838477 
L 262.800405 53.597437 
L 263.700106 55.366371 
L 264.077615 55.670859 
L 264.378624 55.646704 
L 264.746155 55.363883 
L 266.613742 53.591445 
L 267.110989 53.554895 
L 267.598258 53.746676 
L 268.127103 54.207721 
L 268.744089 55.06297 
L 269.558975 56.61659 
L 270.603361 58.542024 
L 271.004152 58.848825 
L 271.335096 58.8369 
L 271.742539 58.571756 
L 273.432182 57.239613 
L 273.952711 57.208358 
L 274.459937 57.404765 
L 275.008738 57.868902 
L 275.649006 58.723459 
L 276.525425 60.312325 
L 277.493311 61.959288 
L 277.922373 62.28683 
L 278.284915 62.297435 
L 278.730608 62.063137 
L 280.297186 61.07314 
L 280.318805 61.068614 
L 280.318805 61.068614 
" clip-path="url(#p7f4cb7311c)" style="fill: none; stroke: #1f77b4; stroke-width: 2; stroke-linecap: square"/>
   </g>
   <g id="line2d_25">
    <path d="M 175.042087 173.8 
L 175.0421 119.356791 
L 175.042112 173.8 
M 175.047076 173.8 
L 175.047089 119.356791 
L 175.047101 173.8 
M 175.052066 173.8 
L 175.053741 119.356791 
L 175.053753 173.8 
M 175.057055 173.8 
L 175.166827 111.495291 
L 175.170153 111.495291 
L 175.363065 98.210748 
L 176.003333 64.288054 
L 176.597036 43.697642 
L 177.127544 32.249929 
L 177.5749 26.801811 
L 177.919149 24.866798 
L 178.140332 24.554407 
L 178.268386 24.683909 
L 178.459635 25.279419 
L 178.744013 27.006425 
L 179.138152 30.937556 
L 179.657019 38.567974 
L 180.318907 51.863003 
L 181.145435 73.276448 
L 182.163211 105.802682 
L 182.539057 119.298137 
L 182.539069 173.8 
L 182.539069 173.8 
" clip-path="url(#p7f4cb7311c)" style="fill: none; stroke: #ff7f0e; stroke-linecap: square"/>
   </g>
   <g id="patch_9">
    <path d="M 169.152132 141.286322 
L 169.152132 16.995615 
" style="fill: none; stroke: #000000; stroke-width: 0.8; stroke-linejoin: miter; stroke-linecap: square"/>
   </g>
   <g id="patch_10">
    <path d="M 282.498544 141.286322 
L 282.498544 16.995615 
" style="fill: none; stroke: #000000; stroke-width: 0.8; stroke-linejoin: miter; stroke-linecap: square"/>
   </g>
   <g id="patch_11">
    <path d="M 169.152132 141.286322 
L 282.498544 141.286322 
" style="fill: none; stroke: #000000; stroke-width: 0.8; stroke-linejoin: miter; stroke-linecap: square"/>
   </g>
   <g id="patch_12">
    <path d="M 169.152132 16.995615 
L 282.498544 16.995615 
" style="fill: none; stroke: #000000; stroke-width: 0.8; stroke-linejoin: miter; stroke-linecap: square"/>
   </g>
   <g id="text_25">
    <!-- Log density -->
    <g transform="translate(198.357057 10.995615)scale(0.108 -0.108)">
     <defs>
      <path id="NirmalaUI-4c" d="M 2913 0 
L 588 0 
L 588 4481 
L 1113 4481 
L 1113 475 
L 2913 475 
L 2913 0 
z
" transform="scale(0.015625)"/>
     </defs>
     <use xlink:href="#NirmalaUI-4c"/>
     <use xlink:href="#NirmalaUI-6f" x="47.070312"/>
     <use xlink:href="#NirmalaUI-67" x="105.664062"/>
     <use xlink:href="#NirmalaUI-20" x="164.550781"/>
     <use xlink:href="#NirmalaUI-64" x="191.943359"/>
     <use xlink:href="#NirmalaUI-65" x="250.830078"/>
     <use xlink:href="#NirmalaUI-6e" x="303.125"/>
     <use xlink:href="#NirmalaUI-73" x="359.716797"/>
     <use xlink:href="#NirmalaUI-69" x="402.148438"/>
     <use xlink:href="#NirmalaUI-74" x="426.367188"/>
     <use xlink:href="#NirmalaUI-79" x="460.253906"/>
    </g>
   </g>
  </g>
  <g id="axes_3">
   <g id="patch_13">
    <path d="M 312.005587 141.286322 
L 425.351999 141.286322 
L 425.351999 16.995615 
L 312.005587 16.995615 
z
" style="fill: #b0c4de"/>
   </g>
   <g id="matplotlib.axis_5">
    <g id="xtick_8">
     <g id="line2d_26">
      <g>
       <use xlink:href="#m5e4c6ffaac" x="314.185325" y="141.286322" style="stroke: #000000; stroke-width: 0.8"/>
      </g>
     </g>
     <g id="text_26">
      <!-- 0.0 -->
      <g transform="translate(308.357825 154.949135)scale(0.09 -0.09)">
       <use xlink:href="#NirmalaUI-30"/>
       <use xlink:href="#NirmalaUI-2e" x="53.90625"/>
       <use xlink:href="#NirmalaUI-30" x="75.585938"/>
      </g>
     </g>
    </g>
    <g id="xtick_9">
     <g id="line2d_27">
      <g>
       <use xlink:href="#m5e4c6ffaac" x="368.678793" y="141.286322" style="stroke: #000000; stroke-width: 0.8"/>
      </g>
     </g>
     <g id="text_27">
      <!-- 0.5 -->
      <g transform="translate(362.851293 154.949135)scale(0.09 -0.09)">
       <use xlink:href="#NirmalaUI-30"/>
       <use xlink:href="#NirmalaUI-2e" x="53.90625"/>
       <use xlink:href="#NirmalaUI-35" x="75.585938"/>
      </g>
     </g>
    </g>
    <g id="xtick_10">
     <g id="line2d_28">
      <g>
       <use xlink:href="#m5e4c6ffaac" x="423.17226" y="141.286322" style="stroke: #000000; stroke-width: 0.8"/>
      </g>
     </g>
     <g id="text_28">
      <!-- 1.0 -->
      <g transform="translate(417.34476 154.949135)scale(0.09 -0.09)">
       <use xlink:href="#NirmalaUI-31"/>
       <use xlink:href="#NirmalaUI-2e" x="53.90625"/>
       <use xlink:href="#NirmalaUI-30" x="75.585938"/>
      </g>
     </g>
    </g>
    <g id="text_29">
     <!-- Non-exceeding probability p -->
     <g transform="translate(311.677152 167.681947)scale(0.09 -0.09)">
      <defs>
       <path id="NirmalaUI-4e" d="M 4200 0 
L 3556 0 
L 1250 3572 
Q 1163 3706 1106 3853 
L 1088 3853 
Q 1113 3709 1113 3238 
L 1113 0 
L 588 0 
L 588 4481 
L 1269 4481 
L 3513 966 
Q 3653 747 3694 666 
L 3706 666 
Q 3675 859 3675 1325 
L 3675 4481 
L 4200 4481 
L 4200 0 
z
" transform="scale(0.015625)"/>
       <path id="NirmalaUI-2d" d="M 2156 1581 
L 450 1581 
L 450 1984 
L 2156 1984 
L 2156 1581 
z
" transform="scale(0.015625)"/>
       <path id="NirmalaUI-78" d="M 2856 3200 
L 1781 1581 
L 2838 0 
L 2241 0 
L 1613 1038 
Q 1553 1134 1472 1281 
L 1459 1281 
Q 1444 1253 1313 1038 
L 672 0 
L 81 0 
L 1172 1569 
L 128 3200 
L 725 3200 
L 1344 2106 
Q 1413 1984 1478 1856 
L 1491 1856 
L 2291 3200 
L 2856 3200 
z
" transform="scale(0.015625)"/>
       <path id="NirmalaUI-63" d="M 2700 147 
Q 2331 -75 1825 -75 
Q 1141 -75 720 370 
Q 300 816 300 1525 
Q 300 2316 753 2795 
Q 1206 3275 1963 3275 
Q 2384 3275 2706 3119 
L 2706 2594 
Q 2350 2844 1944 2844 
Q 1453 2844 1139 2492 
Q 825 2141 825 1569 
Q 825 1006 1120 681 
Q 1416 356 1913 356 
Q 2331 356 2700 634 
L 2700 147 
z
" transform="scale(0.015625)"/>
       <path id="NirmalaUI-70" d="M 1044 463 
L 1031 463 
L 1031 -1472 
L 519 -1472 
L 519 3200 
L 1031 3200 
L 1031 2638 
L 1044 2638 
Q 1422 3275 2150 3275 
Q 2769 3275 3116 2845 
Q 3463 2416 3463 1694 
Q 3463 891 3072 408 
Q 2681 -75 2003 -75 
Q 1381 -75 1044 463 
z
M 1031 1753 
L 1031 1306 
Q 1031 909 1289 632 
Q 1547 356 1944 356 
Q 2409 356 2673 712 
Q 2938 1069 2938 1703 
Q 2938 2238 2691 2541 
Q 2444 2844 2022 2844 
Q 1575 2844 1303 2533 
Q 1031 2222 1031 1753 
z
" transform="scale(0.015625)"/>
      </defs>
      <use xlink:href="#NirmalaUI-4e"/>
      <use xlink:href="#NirmalaUI-6f" x="74.804688"/>
      <use xlink:href="#NirmalaUI-6e" x="133.398438"/>
      <use xlink:href="#NirmalaUI-2d" x="189.990234"/>
      <use xlink:href="#NirmalaUI-65" x="229.980469"/>
      <use xlink:href="#NirmalaUI-78" x="282.275391"/>
      <use xlink:href="#NirmalaUI-63" x="328.173828"/>
      <use xlink:href="#NirmalaUI-65" x="374.365234"/>
      <use xlink:href="#NirmalaUI-65" x="426.660156"/>
      <use xlink:href="#NirmalaUI-64" x="478.955078"/>
      <use xlink:href="#NirmalaUI-69" x="537.841797"/>
      <use xlink:href="#NirmalaUI-6e" x="562.060547"/>
      <use xlink:href="#NirmalaUI-67" x="618.652344"/>
      <use xlink:href="#NirmalaUI-20" x="677.539062"/>
      <use xlink:href="#NirmalaUI-70" x="704.931641"/>
      <use xlink:href="#NirmalaUI-72" x="763.720703"/>
      <use xlink:href="#NirmalaUI-6f" x="798.486328"/>
      <use xlink:href="#NirmalaUI-62" x="857.080078"/>
      <use xlink:href="#NirmalaUI-61" x="915.869141"/>
      <use xlink:href="#NirmalaUI-62" x="966.748047"/>
      <use xlink:href="#NirmalaUI-69" x="1025.537109"/>
      <use xlink:href="#NirmalaUI-6c" x="1049.755859"/>
      <use xlink:href="#NirmalaUI-69" x="1073.974609"/>
      <use xlink:href="#NirmalaUI-74" x="1098.193359"/>
      <use xlink:href="#NirmalaUI-79" x="1132.080078"/>
      <use xlink:href="#NirmalaUI-20" x="1180.46875"/>
      <use xlink:href="#NirmalaUI-70" x="1207.861328"/>
     </g>
    </g>
   </g>
   <g id="matplotlib.axis_6">
    <g id="ytick_13">
     <g id="line2d_29">
      <g>
       <use xlink:href="#m8ac3409bf5" x="312.005587" y="138.896117" style="stroke: #000000; stroke-width: 0.8"/>
      </g>
     </g>
     <g id="text_30">
      <!-- 0.0 -->
      <g transform="translate(293.350587 142.227523)scale(0.09 -0.09)">
       <use xlink:href="#NirmalaUI-30"/>
       <use xlink:href="#NirmalaUI-2e" x="53.90625"/>
       <use xlink:href="#NirmalaUI-30" x="75.585938"/>
      </g>
     </g>
    </g>
    <g id="ytick_14">
     <g id="line2d_30">
      <g>
       <use xlink:href="#m8ac3409bf5" x="312.005587" y="116.281584" style="stroke: #000000; stroke-width: 0.8"/>
      </g>
     </g>
     <g id="text_31">
      <!-- 2.5 -->
      <g transform="translate(293.350587 119.61299)scale(0.09 -0.09)">
       <use xlink:href="#NirmalaUI-32"/>
       <use xlink:href="#NirmalaUI-2e" x="53.90625"/>
       <use xlink:href="#NirmalaUI-35" x="75.585938"/>
      </g>
     </g>
    </g>
    <g id="ytick_15">
     <g id="line2d_31">
      <g>
       <use xlink:href="#m8ac3409bf5" x="312.005587" y="93.667052" style="stroke: #000000; stroke-width: 0.8"/>
      </g>
     </g>
     <g id="text_32">
      <!-- 5.0 -->
      <g transform="translate(293.350587 96.998458)scale(0.09 -0.09)">
       <use xlink:href="#NirmalaUI-35"/>
       <use xlink:href="#NirmalaUI-2e" x="53.90625"/>
       <use xlink:href="#NirmalaUI-30" x="75.585938"/>
      </g>
     </g>
    </g>
    <g id="ytick_16">
     <g id="line2d_32">
      <g>
       <use xlink:href="#m8ac3409bf5" x="312.005587" y="71.052519" style="stroke: #000000; stroke-width: 0.8"/>
      </g>
     </g>
     <g id="text_33">
      <!-- 7.5 -->
      <g transform="translate(293.350587 74.383925)scale(0.09 -0.09)">
       <defs>
        <path id="NirmalaUI-37" d="M 3156 4184 
Q 3053 4006 2908 3740 
Q 2763 3475 2600 3144 
Q 2438 2813 2269 2431 
Q 2100 2050 1953 1644 
Q 1806 1238 1695 820 
Q 1584 403 1534 0 
L 984 0 
Q 1041 400 1158 817 
Q 1275 1234 1423 1636 
Q 1572 2038 1737 2409 
Q 1903 2781 2059 3093 
Q 2216 3406 2345 3645 
Q 2475 3884 2553 4019 
L 306 4019 
L 306 4481 
L 3156 4481 
L 3156 4184 
z
" transform="scale(0.015625)"/>
       </defs>
       <use xlink:href="#NirmalaUI-37"/>
       <use xlink:href="#NirmalaUI-2e" x="53.90625"/>
       <use xlink:href="#NirmalaUI-35" x="75.585938"/>
      </g>
     </g>
    </g>
    <g id="ytick_17">
     <g id="line2d_33">
      <g>
       <use xlink:href="#m8ac3409bf5" x="312.005587" y="48.437986" style="stroke: #000000; stroke-width: 0.8"/>
      </g>
     </g>
     <g id="text_34">
      <!-- 10.0 -->
      <g transform="translate(288.499024 51.769393)scale(0.09 -0.09)">
       <use xlink:href="#NirmalaUI-31"/>
       <use xlink:href="#NirmalaUI-30" x="53.90625"/>
       <use xlink:href="#NirmalaUI-2e" x="107.8125"/>
       <use xlink:href="#NirmalaUI-30" x="129.492188"/>
      </g>
     </g>
    </g>
    <g id="ytick_18">
     <g id="line2d_34">
      <g>
       <use xlink:href="#m8ac3409bf5" x="312.005587" y="25.823454" style="stroke: #000000; stroke-width: 0.8"/>
      </g>
     </g>
     <g id="text_35">
      <!-- 12.5 -->
      <g transform="translate(288.499024 29.15486)scale(0.09 -0.09)">
       <use xlink:href="#NirmalaUI-31"/>
       <use xlink:href="#NirmalaUI-32" x="53.90625"/>
       <use xlink:href="#NirmalaUI-2e" x="107.8125"/>
       <use xlink:href="#NirmalaUI-35" x="129.492188"/>
      </g>
     </g>
    </g>
   </g>
   <g id="line2d_35">
    <path d="M 314.930884 138.896117 
L 315.041518 130.996489 
L 315.323418 130.618844 
L 315.924175 130.232366 
L 318.392668 128.849876 
L 318.589731 128.381684 
L 318.645573 127.551307 
L 318.798449 122.639713 
L 319.103556 122.226733 
L 319.680124 121.851296 
L 320.784221 121.427274 
L 323.175509 120.79124 
L 326.225081 119.927736 
L 327.202024 119.435251 
L 327.646215 118.98031 
L 327.842283 118.456908 
L 327.906986 117.52715 
L 328.058598 114.216683 
L 328.353491 113.752908 
L 328.886426 113.357596 
L 329.847831 112.949032 
L 331.602384 112.472007 
L 335.168332 111.771928 
L 340.254928 110.736165 
L 341.880684 110.188469 
L 342.673814 109.707027 
L 343.060233 109.225585 
L 343.240552 108.631512 
L 343.300226 107.502994 
L 343.429971 105.709732 
L 343.704106 105.173078 
L 344.185681 104.74243 
L 345.017681 104.320616 
L 346.469929 103.856842 
L 349.057444 103.28927 
L 360.355095 101.025608 
L 361.460739 100.504414 
L 362.030279 100.007513 
L 362.320071 99.464234 
L 362.45461 98.695693 
L 362.720601 96.697046 
L 363.075115 96.17806 
L 363.670816 95.72091 
L 364.675745 95.252719 
L 366.377642 94.727108 
L 369.397205 94.05353 
L 378.389123 92.149846 
L 379.962005 91.553564 
L 380.804746 91.014703 
L 381.257315 90.473632 
L 381.496209 89.833182 
L 381.653717 88.6097 
L 381.881856 87.730737 
L 382.262955 87.160957 
L 382.885703 86.650804 
L 383.903872 86.125193 
L 385.604929 85.520078 
L 388.740381 84.674241 
L 394.017264 83.240957 
L 395.661323 82.562963 
L 396.564518 81.966681 
L 397.067944 81.379233 
L 397.34806 80.705656 
L 397.556779 79.4888 
L 397.827523 78.554625 
L 398.246813 77.9208 
L 398.916103 77.331144 
L 399.997067 76.697318 
L 401.855456 75.893442 
L 406.649227 73.899212 
L 407.673688 73.196924 
L 408.257789 72.538806 
L 408.593503 71.825477 
L 408.804432 70.796339 
L 409.127922 69.352012 
L 409.545667 68.58568 
L 410.208884 67.854683 
L 411.308275 67.002221 
L 414.70962 64.524339 
L 415.297663 63.735923 
L 415.637636 62.905545 
L 415.843538 61.754943 
L 416.181163 59.893219 
L 416.612211 58.912667 
L 417.346409 57.834943 
L 419.106599 55.383563 
L 419.493762 54.363259 
L 419.705266 53.139777 
L 420.162158 49.842561 
L 420.73943 48.170764 
L 421.402451 46.12353 
L 421.631347 44.619576 
L 422.343034 37.868343 
L 422.548581 35.575971 
L 422.973805 23.661381 
L 423.159346 1.782262 
L 423.164019 -1 
L 423.164019 -1 
" clip-path="url(#p0d92c0a941)" style="fill: none; stroke: #1f77b4; stroke-width: 2; stroke-linecap: square"/>
   </g>
   <g id="line2d_36">
    <path d="M 314.185325 138.896117 
L 314.295165 131.681109 
L 314.577554 131.458055 
L 315.253891 131.257087 
L 316.887741 131.042867 
L 320.716022 130.802146 
L 329.292681 130.519464 
L 348.448139 130.146236 
L 411.74835 129.008884 
L 419.109346 128.64449 
L 421.818266 128.319847 
L 422.752395 128.01729 
L 423.062099 127.708107 
L 423.159561 127.264208 
L 423.17226 125.367149 
L 423.17226 -1 
L 423.17226 -1 
" clip-path="url(#p0d92c0a941)" style="fill: none; stroke: #ff7f0e; stroke-linecap: square"/>
   </g>
   <g id="patch_14">
    <path d="M 312.005587 141.286322 
L 312.005587 16.995615 
" style="fill: none; stroke: #000000; stroke-width: 0.8; stroke-linejoin: miter; stroke-linecap: square"/>
   </g>
   <g id="patch_15">
    <path d="M 425.351999 141.286322 
L 425.351999 16.995615 
" style="fill: none; stroke: #000000; stroke-width: 0.8; stroke-linejoin: miter; stroke-linecap: square"/>
   </g>
   <g id="patch_16">
    <path d="M 312.005587 141.286322 
L 425.351999 141.286322 
" style="fill: none; stroke: #000000; stroke-width: 0.8; stroke-linejoin: miter; stroke-linecap: square"/>
   </g>
   <g id="patch_17">
    <path d="M 312.005587 16.995615 
L 425.351999 16.995615 
" style="fill: none; stroke: #000000; stroke-width: 0.8; stroke-linejoin: miter; stroke-linecap: square"/>
   </g>
   <g id="text_36">
    <!-- Quantile (Lee) plot -->
    <g transform="translate(324.594543 10.995615)scale(0.108 -0.108)">
     <defs>
      <path id="NirmalaUI-51" d="M 2394 -75 
Q 1444 -75 866 553 
Q 294 1181 294 2188 
Q 294 3272 878 3913 
Q 1466 4556 2469 4556 
Q 3394 4556 3963 3931 
Q 4531 3306 4531 2297 
Q 4531 1200 3950 563 
Q 3813 409 3656 300 
L 4916 -603 
L 3963 -603 
L 3119 28 
Q 2788 -75 2394 -75 
z
M 2431 4081 
Q 1725 4081 1284 3572 
Q 844 3063 844 2234 
Q 844 1409 1272 900 
Q 1703 397 2394 397 
Q 3131 397 3556 878 
Q 3981 1359 3981 2225 
Q 3981 3116 3569 3597 
Q 3156 4081 2431 4081 
z
" transform="scale(0.015625)"/>
      <path id="NirmalaUI-75" d="M 3106 0 
L 2594 0 
L 2594 506 
L 2581 506 
Q 2263 -75 1594 -75 
Q 450 -75 450 1288 
L 450 3200 
L 959 3200 
L 959 1369 
Q 959 356 1734 356 
Q 2109 356 2351 632 
Q 2594 909 2594 1356 
L 2594 3200 
L 3106 3200 
L 3106 0 
z
" transform="scale(0.015625)"/>
      <path id="NirmalaUI-28" d="M 1863 -1019 
L 1406 -1019 
Q 438 88 438 1709 
Q 438 3338 1406 4481 
L 1869 4481 
Q 888 3294 888 1716 
Q 888 150 1863 -1019 
z
" transform="scale(0.015625)"/>
      <path id="NirmalaUI-29" d="M 531 -1019 
L 75 -1019 
Q 1050 150 1050 1716 
Q 1050 3294 69 4481 
L 531 4481 
Q 1506 3338 1506 1709 
Q 1506 88 531 -1019 
z
" transform="scale(0.015625)"/>
     </defs>
     <use xlink:href="#NirmalaUI-51"/>
     <use xlink:href="#NirmalaUI-75" x="75.390625"/>
     <use xlink:href="#NirmalaUI-61" x="131.982422"/>
     <use xlink:href="#NirmalaUI-6e" x="182.861328"/>
     <use xlink:href="#NirmalaUI-74" x="239.453125"/>
     <use xlink:href="#NirmalaUI-69" x="273.339844"/>
     <use xlink:href="#NirmalaUI-6c" x="297.558594"/>
     <use xlink:href="#NirmalaUI-65" x="321.777344"/>
     <use xlink:href="#NirmalaUI-20" x="374.072266"/>
     <use xlink:href="#NirmalaUI-28" x="401.464844"/>
     <use xlink:href="#NirmalaUI-4c" x="431.640625"/>
     <use xlink:href="#NirmalaUI-65" x="478.710938"/>
     <use xlink:href="#NirmalaUI-65" x="531.005859"/>
     <use xlink:href="#NirmalaUI-29" x="583.300781"/>
     <use xlink:href="#NirmalaUI-20" x="613.476562"/>
     <use xlink:href="#NirmalaUI-70" x="640.869141"/>
     <use xlink:href="#NirmalaUI-6c" x="699.658203"/>
     <use xlink:href="#NirmalaUI-6f" x="723.876953"/>
     <use xlink:href="#NirmalaUI-74" x="782.470703"/>
    </g>
   </g>
  </g>
 </g>
 <defs>
  <clipPath id="ped3f5264f0">
   <rect x="21.65524" y="16.995615" width="113.346412" height="124.290707"/>
  </clipPath>
  <clipPath id="p7f4cb7311c">
   <rect x="169.152132" y="16.995615" width="113.346412" height="124.290707"/>
  </clipPath>
  <clipPath id="p0d92c0a941">
   <rect x="312.005587" y="16.995615" width="113.346412" height="124.290707"/>
  </clipPath>
 </defs>
</svg>
