<?xml version="1.0" encoding="utf-8" standalone="no"?>
<!DOCTYPE svg PUBLIC "-//W3C//DTD SVG 1.1//EN"
  "http://www.w3.org/Graphics/SVG/1.1/DTD/svg11.dtd">
<!-- Created with matplotlib (https://matplotlib.org/) -->
<svg height="150.11675pt" version="1.1" viewBox="0 0 424.864288 150.11675" width="424.864288pt" xmlns="http://www.w3.org/2000/svg" xmlns:xlink="http://www.w3.org/1999/xlink">
 <defs>
  <style type="text/css">
*{stroke-linecap:butt;stroke-linejoin:round;}
  </style>
 </defs>
 <g id="figure_1">
  <g id="patch_1">
   <path d="M 0 150.11675 
L 424.864288 150.11675 
L 424.864288 0 
L 0 0 
z
" style="fill:none;"/>
  </g>
  <g id="axes_1">
   <g id="patch_2">
    <path d="M 46.29175 126.1 
L 141.458707 126.1 
L 141.458707 34 
L 46.29175 34 
z
" style="fill:#eaeaf2;"/>
   </g>
   <g id="matplotlib.axis_1">
    <g id="xtick_1">
     <g id="line2d_1">
      <path clip-path="url(#p1c1077a84c)" d="M 50.617521 126.1 
L 50.617521 34 
" style="fill:none;stroke:#ffffff;stroke-linecap:round;stroke-width:0.8;"/>
     </g>
     <g id="text_1">
      <!-- 0 -->
      <defs>
       <path d="M 31.78125 3.421875 
Q 39.265625 3.421875 42.96875 11.625 
Q 46.6875 19.828125 46.6875 36.375 
Q 46.6875 52.984375 42.96875 61.1875 
Q 39.265625 69.390625 31.78125 69.390625 
Q 24.3125 69.390625 20.59375 61.1875 
Q 16.890625 52.984375 16.890625 36.375 
Q 16.890625 19.828125 20.59375 11.625 
Q 24.3125 3.421875 31.78125 3.421875 
z
M 31.78125 -1.421875 
Q 19.921875 -1.421875 13.25 8.53125 
Q 6.59375 18.5 6.59375 36.375 
Q 6.59375 54.296875 13.25 64.25 
Q 19.921875 74.21875 31.78125 74.21875 
Q 43.703125 74.21875 50.34375 64.25 
Q 56.984375 54.296875 56.984375 36.375 
Q 56.984375 18.5 50.34375 8.53125 
Q 43.703125 -1.421875 31.78125 -1.421875 
z
" id="DejaVuSerif-48"/>
      </defs>
      <g style="fill:#262626;" transform="translate(47.818021 141.086625)scale(0.088 -0.088)">
       <use xlink:href="#DejaVuSerif-48"/>
      </g>
     </g>
    </g>
    <g id="xtick_2">
     <g id="line2d_2">
      <path clip-path="url(#p1c1077a84c)" d="M 99.052979 126.1 
L 99.052979 34 
" style="fill:none;stroke:#ffffff;stroke-linecap:round;stroke-width:0.8;"/>
     </g>
     <g id="text_2">
      <!-- 1000 -->
      <defs>
       <path d="M 14.203125 0 
L 14.203125 5.171875 
L 26.90625 5.171875 
L 26.90625 65.828125 
L 12.203125 56.296875 
L 12.203125 62.703125 
L 29.984375 74.21875 
L 36.71875 74.21875 
L 36.71875 5.171875 
L 49.421875 5.171875 
L 49.421875 0 
z
" id="DejaVuSerif-49"/>
      </defs>
      <g style="fill:#262626;" transform="translate(87.854979 141.086625)scale(0.088 -0.088)">
       <use xlink:href="#DejaVuSerif-49"/>
       <use x="63.623047" xlink:href="#DejaVuSerif-48"/>
       <use x="127.246094" xlink:href="#DejaVuSerif-48"/>
       <use x="190.869141" xlink:href="#DejaVuSerif-48"/>
      </g>
     </g>
    </g>
   </g>
   <g id="matplotlib.axis_2">
    <g id="ytick_1">
     <g id="line2d_3">
      <path clip-path="url(#p1c1077a84c)" d="M 46.29175 126.1 
L 141.458707 126.1 
" style="fill:none;stroke:#ffffff;stroke-linecap:round;stroke-width:0.8;"/>
     </g>
     <g id="text_3">
      <!-- 0.0000 -->
      <defs>
       <path d="M 9.421875 5.078125 
Q 9.421875 7.8125 11.28125 9.71875 
Q 13.140625 11.625 15.921875 11.625 
Q 18.609375 11.625 20.5 9.71875 
Q 22.40625 7.8125 22.40625 5.078125 
Q 22.40625 2.390625 20.5 0.484375 
Q 18.609375 -1.421875 15.921875 -1.421875 
Q 13.140625 -1.421875 11.28125 0.453125 
Q 9.421875 2.34375 9.421875 5.078125 
z
" id="DejaVuSerif-46"/>
      </defs>
      <g style="fill:#262626;" transform="translate(7.2 129.443312)scale(0.088 -0.088)">
       <use xlink:href="#DejaVuSerif-48"/>
       <use x="63.623047" xlink:href="#DejaVuSerif-46"/>
       <use x="95.410156" xlink:href="#DejaVuSerif-48"/>
       <use x="159.033203" xlink:href="#DejaVuSerif-48"/>
       <use x="222.65625" xlink:href="#DejaVuSerif-48"/>
       <use x="286.279297" xlink:href="#DejaVuSerif-48"/>
      </g>
     </g>
    </g>
    <g id="ytick_2">
     <g id="line2d_4">
      <path clip-path="url(#p1c1077a84c)" d="M 46.29175 96.024115 
L 141.458707 96.024115 
" style="fill:none;stroke:#ffffff;stroke-linecap:round;stroke-width:0.8;"/>
     </g>
     <g id="text_4">
      <!-- 0.0005 -->
      <defs>
       <path d="M 50.296875 72.90625 
L 50.296875 64.890625 
L 16.890625 64.890625 
L 16.890625 44 
Q 19.4375 45.75 22.828125 46.625 
Q 26.21875 47.515625 30.421875 47.515625 
Q 42.234375 47.515625 49.0625 40.96875 
Q 55.90625 34.421875 55.90625 23.09375 
Q 55.90625 11.53125 49 5.046875 
Q 42.09375 -1.421875 29.59375 -1.421875 
Q 24.5625 -1.421875 19.28125 -0.1875 
Q 14.015625 1.03125 8.5 3.515625 
L 8.5 17.671875 
L 14.015625 17.671875 
Q 14.453125 10.75 18.421875 7.078125 
Q 22.40625 3.421875 29.59375 3.421875 
Q 37.3125 3.421875 41.453125 8.5 
Q 45.609375 13.578125 45.609375 23.09375 
Q 45.609375 32.5625 41.484375 37.609375 
Q 37.359375 42.671875 29.59375 42.671875 
Q 25.203125 42.671875 21.84375 41.109375 
Q 18.5 39.546875 15.921875 36.28125 
L 11.71875 36.28125 
L 11.71875 72.90625 
z
" id="DejaVuSerif-53"/>
      </defs>
      <g style="fill:#262626;" transform="translate(7.2 99.367428)scale(0.088 -0.088)">
       <use xlink:href="#DejaVuSerif-48"/>
       <use x="63.623047" xlink:href="#DejaVuSerif-46"/>
       <use x="95.410156" xlink:href="#DejaVuSerif-48"/>
       <use x="159.033203" xlink:href="#DejaVuSerif-48"/>
       <use x="222.65625" xlink:href="#DejaVuSerif-48"/>
       <use x="286.279297" xlink:href="#DejaVuSerif-53"/>
      </g>
     </g>
    </g>
    <g id="ytick_3">
     <g id="line2d_5">
      <path clip-path="url(#p1c1077a84c)" d="M 46.29175 65.94823 
L 141.458707 65.94823 
" style="fill:none;stroke:#ffffff;stroke-linecap:round;stroke-width:0.8;"/>
     </g>
     <g id="text_5">
      <!-- 0.0010 -->
      <g style="fill:#262626;" transform="translate(7.2 69.291543)scale(0.088 -0.088)">
       <use xlink:href="#DejaVuSerif-48"/>
       <use x="63.623047" xlink:href="#DejaVuSerif-46"/>
       <use x="95.410156" xlink:href="#DejaVuSerif-48"/>
       <use x="159.033203" xlink:href="#DejaVuSerif-48"/>
       <use x="222.65625" xlink:href="#DejaVuSerif-49"/>
       <use x="286.279297" xlink:href="#DejaVuSerif-48"/>
      </g>
     </g>
    </g>
    <g id="ytick_4">
     <g id="line2d_6">
      <path clip-path="url(#p1c1077a84c)" d="M 46.29175 35.872345 
L 141.458707 35.872345 
" style="fill:none;stroke:#ffffff;stroke-linecap:round;stroke-width:0.8;"/>
     </g>
     <g id="text_6">
      <!-- 0.0015 -->
      <g style="fill:#262626;" transform="translate(7.2 39.215658)scale(0.088 -0.088)">
       <use xlink:href="#DejaVuSerif-48"/>
       <use x="63.623047" xlink:href="#DejaVuSerif-46"/>
       <use x="95.410156" xlink:href="#DejaVuSerif-48"/>
       <use x="159.033203" xlink:href="#DejaVuSerif-48"/>
       <use x="222.65625" xlink:href="#DejaVuSerif-49"/>
       <use x="286.279297" xlink:href="#DejaVuSerif-53"/>
      </g>
     </g>
    </g>
   </g>
   <g id="line2d_7">
    <path clip-path="url(#p1c1077a84c)" d="M 50.617521 123.368375 
L 50.622364 123.368375 
L 50.622364 126.075111 
L 50.728922 125.51106 
L 50.757984 125.405714 
L 50.864542 124.802959 
L 50.883916 124.709555 
L 50.990474 123.878003 
L 51.005004 123.796032 
L 51.111562 122.743608 
L 51.126093 122.642687 
L 51.232651 121.377982 
L 51.242338 121.318766 
L 51.348896 119.865348 
L 51.358583 119.798331 
L 51.465141 118.176181 
L 51.474828 118.102322 
L 51.581386 116.33513 
L 51.591073 116.255518 
L 51.697631 114.369378 
L 51.707319 114.285185 
L 51.813877 112.307454 
L 51.823564 112.21988 
L 51.930122 110.178202 
L 51.939809 110.088444 
L 52.046367 108.009946 
L 52.056054 107.919161 
L 52.162612 105.829807 
L 52.172299 105.739092 
L 52.278857 103.663192 
L 52.288544 103.573562 
L 52.395102 101.533415 
L 52.404789 101.445792 
L 52.511347 99.461443 
L 52.521034 99.376647 
L 52.627592 97.465754 
L 52.637279 97.3845 
L 52.743837 95.562273 
L 52.753524 95.485168 
L 52.860082 93.764387 
L 52.86977 93.691937 
L 52.976328 92.083019 
L 52.986015 92.015625 
L 53.092573 90.526735 
L 53.10226 90.464706 
L 53.208818 89.101895 
L 53.218505 89.04545 
L 53.325063 87.812818 
L 53.339594 87.711613 
L 53.446152 86.617034 
L 53.460682 86.527888 
L 53.56724 85.572085 
L 53.581771 85.49499 
L 53.688329 84.677104 
L 53.707703 84.579686 
L 53.814261 83.90285 
L 53.838479 83.797658 
L 53.945037 83.26334 
L 53.974098 83.162852 
L 54.080656 82.770795 
L 54.124248 82.660899 
L 54.230806 82.418491 
L 54.313146 82.312143 
L 54.419704 82.24467 
L 54.61829 82.351733 
L 54.724848 82.532327 
L 54.778127 82.635993 
L 54.884685 82.928792 
L 54.923433 83.032264 
L 55.029991 83.416474 
L 55.063896 83.527356 
L 55.170454 83.990513 
L 55.199515 84.098829 
L 55.306073 84.629682 
L 55.330291 84.727213 
L 55.436849 85.3157 
L 55.461067 85.422621 
L 55.567625 86.061566 
L 55.586999 86.147781 
L 55.693557 86.828864 
L 55.712931 86.920177 
L 55.819489 87.637415 
L 55.838863 87.733071 
L 55.945421 88.480833 
L 55.964795 88.580119 
L 56.071353 89.353137 
L 56.090728 89.455389 
L 56.197286 90.248756 
L 56.21666 90.353359 
L 56.323218 91.162527 
L 56.342592 91.26891 
L 56.44915 92.089688 
L 56.468524 92.197328 
L 56.575082 93.02587 
L 56.594456 93.134287 
L 56.701014 93.967081 
L 56.720389 94.075837 
L 56.826947 94.909693 
L 56.846321 95.018394 
L 56.952879 95.850428 
L 56.972253 95.958717 
L 57.078811 96.786339 
L 57.098185 96.893896 
L 57.204743 97.714791 
L 57.224117 97.821331 
L 57.330675 98.633444 
L 57.350049 98.738715 
L 57.456607 99.540234 
L 57.475982 99.644015 
L 57.58254 100.433354 
L 57.601914 100.535454 
L 57.708472 101.31124 
L 57.727846 101.411491 
L 57.834404 102.172545 
L 57.853778 102.270806 
L 57.960336 103.01613 
L 57.97971 103.112281 
L 58.086268 103.841042 
L 58.105643 103.934986 
L 58.212201 104.646502 
L 58.231575 104.738158 
L 58.338133 105.431887 
L 58.357507 105.521193 
L 58.464065 106.196716 
L 58.483439 106.283626 
L 58.589997 106.940639 
L 58.609371 107.02512 
L 58.715929 107.663422 
L 58.740147 107.772734 
L 58.846705 108.391491 
L 58.870923 108.497398 
L 58.977481 109.096584 
L 59.001699 109.199091 
L 59.108257 109.778761 
L 59.132474 109.877883 
L 59.239032 110.438163 
L 59.26325 110.533928 
L 59.369808 111.075009 
L 59.394026 111.167454 
L 59.500584 111.68958 
L 59.524802 111.778753 
L 59.63136 112.282215 
L 59.660421 112.389585 
L 59.766979 112.874042 
L 59.79604 112.977322 
L 59.902598 113.443169 
L 59.931659 113.542448 
L 60.038217 113.990109 
L 60.067279 114.085483 
L 60.173837 114.515408 
L 60.207741 114.625212 
L 60.3143 115.037265 
L 60.348204 115.142473 
L 60.454762 115.537175 
L 60.488667 115.637926 
L 60.595225 116.015812 
L 60.62913 116.112247 
L 60.735688 116.473857 
L 60.774436 116.581412 
L 60.880994 116.92676 
L 60.919743 117.029455 
L 61.026301 117.359127 
L 61.065049 117.45714 
L 61.171607 117.771719 
L 61.215199 117.878501 
L 61.321757 118.178091 
L 61.365349 118.279765 
L 61.471907 118.564976 
L 61.520342 118.673764 
L 61.6269 118.94476 
L 61.675336 119.048108 
L 61.781894 119.305513 
L 61.835173 119.414481 
L 61.941731 119.658509 
L 61.99501 119.761799 
L 62.101568 119.99308 
L 62.15969 120.100662 
L 62.266248 120.319448 
L 62.329215 120.430365 
L 62.435773 120.636942 
L 62.498739 120.741658 
L 62.605297 120.936665 
L 62.673106 121.043655 
L 62.779664 121.2274 
L 62.852318 121.335866 
L 62.958876 121.508684 
L 63.036372 121.617887 
L 63.14293 121.780133 
L 63.225271 121.889392 
L 63.331829 122.041439 
L 63.419012 122.150134 
L 63.52557 122.292372 
L 63.617598 122.399942 
L 63.724156 122.532771 
L 63.821027 122.638716 
L 63.927585 122.762546 
L 64.034143 122.871527 
L 64.140701 122.986581 
L 64.256946 123.097298 
L 64.363504 123.203842 
L 64.484592 123.310743 
L 64.59115 123.409248 
L 64.72677 123.520166 
L 64.833328 123.610793 
L 64.978634 123.720225 
L 65.085192 123.80334 
L 65.245029 123.91382 
L 65.351587 123.989681 
L 65.525955 124.099717 
L 65.632513 124.168634 
L 65.826255 124.279677 
L 65.932813 124.341896 
L 66.145929 124.452094 
L 66.252487 124.507925 
L 66.48982 124.617892 
L 66.596378 124.667611 
L 66.862773 124.777295 
L 66.969331 124.821176 
L 67.274475 124.93167 
L 67.381033 124.969941 
L 67.734612 125.081042 
L 67.84117 125.113933 
L 68.252871 125.224391 
L 68.359429 125.252176 
L 68.853471 125.363051 
L 68.960029 125.385964 
L 69.565472 125.496484 
L 69.67203 125.514787 
L 70.446997 125.625413 
L 70.553555 125.639358 
L 71.609448 125.750249 
L 71.716006 125.760097 
L 73.314376 125.871171 
L 73.420934 125.877218 
L 76.472368 125.988309 
L 76.578926 125.990934 
L 137.132936 126.099847 
L 137.132936 126.099847 
" style="fill:none;stroke:#4c72b0;stroke-linecap:round;stroke-width:1.2;"/>
   </g>
   <g id="line2d_8">
    <path clip-path="url(#p1c1077a84c)" d="M 50.617521 124.471893 
L 50.622364 124.471893 
L 50.627208 -1 
M 51.242338 -1 
L 51.348896 27.548052 
L 51.35374 27.548052 
L 51.460298 48.81424 
L 51.465141 48.81424 
L 51.571699 64.363107 
L 51.576543 64.363107 
L 51.683101 76.008696 
L 51.687944 76.008696 
L 51.794502 84.91087 
L 51.799346 84.91087 
L 51.905904 91.836324 
L 51.910748 91.836324 
L 52.017306 97.306629 
L 52.022149 97.306629 
L 52.128707 101.685562 
L 52.133551 101.685562 
L 52.240109 105.232432 
L 52.244952 105.232432 
L 52.35151 108.135668 
L 52.356354 108.135668 
L 52.462912 110.534548 
L 52.472599 110.629125 
L 52.579157 112.612747 
L 52.588844 112.6913 
L 52.695402 114.34531 
L 52.705089 114.411073 
L 52.811647 115.800747 
L 52.826178 115.911274 
L 52.932736 117.078974 
L 52.947266 117.172181 
L 53.053824 118.16012 
L 53.068355 118.23924 
L 53.174913 119.08037 
L 53.194287 119.181409 
L 53.300845 119.897338 
L 53.320219 119.983597 
L 53.426777 120.59649 
L 53.450995 120.694942 
L 53.557553 121.219457 
L 53.586614 121.324777 
L 53.693172 121.773592 
L 53.727077 121.881745 
L 53.833635 122.265794 
L 53.872384 122.373781 
L 53.978942 122.702463 
L 54.022533 122.808108 
L 54.129091 123.089488 
L 54.177527 123.191262 
L 54.284085 123.432245 
L 54.342208 123.538565 
L 54.448766 123.744108 
L 54.516575 123.851097 
L 54.623133 124.025793 
L 54.70063 124.130562 
L 54.807188 124.278594 
L 54.899215 124.384777 
L 55.005773 124.509378 
L 55.117175 124.61809 
L 55.223733 124.72195 
L 55.359352 124.832489 
L 55.46591 124.918004 
L 55.630591 125.028463 
L 55.737149 125.097876 
L 55.940578 125.208227 
L 56.047136 125.263503 
L 56.303844 125.37353 
L 56.410402 125.416413 
L 56.74945 125.52745 
L 56.856008 125.559399 
L 57.320988 125.670062 
L 57.427546 125.6925 
L 58.120173 125.803069 
L 58.226731 125.817298 
L 59.437618 125.928248 
L 59.544176 125.935519 
L 62.866848 126.046629 
L 62.973406 126.048377 
L 137.132936 126.09999 
L 137.132936 126.09999 
" style="fill:none;stroke:#dd8452;stroke-linecap:round;stroke-width:1.2;"/>
   </g>
   <g id="patch_3">
    <path d="M 46.29175 126.1 
L 46.29175 34 
" style="fill:none;stroke:#ffffff;stroke-linecap:square;stroke-linejoin:miter;"/>
   </g>
   <g id="patch_4">
    <path d="M 141.458707 126.1 
L 141.458707 34 
" style="fill:none;stroke:#ffffff;stroke-linecap:square;stroke-linejoin:miter;"/>
   </g>
   <g id="patch_5">
    <path d="M 46.29175 126.1 
L 141.458707 126.1 
" style="fill:none;stroke:#ffffff;stroke-linecap:square;stroke-linejoin:miter;"/>
   </g>
   <g id="patch_6">
    <path d="M 46.29175 34 
L 141.458707 34 
" style="fill:none;stroke:#ffffff;stroke-linecap:square;stroke-linejoin:miter;"/>
   </g>
   <g id="text_7">
    <!-- Density -->
    <defs>
     <path d="M 24.703125 5.171875 
L 33.796875 5.171875 
Q 48 5.171875 55.59375 13.28125 
Q 63.1875 21.390625 63.1875 36.53125 
Q 63.1875 51.65625 55.609375 59.65625 
Q 48.046875 67.671875 33.796875 67.671875 
L 24.703125 67.671875 
z
M 5.515625 0 
L 5.515625 5.171875 
L 14.796875 5.171875 
L 14.796875 67.671875 
L 5.515625 67.671875 
L 5.515625 72.90625 
L 34.515625 72.90625 
Q 53.375 72.90625 63.890625 63.28125 
Q 74.421875 53.65625 74.421875 36.53125 
Q 74.421875 19.34375 63.875 9.671875 
Q 53.328125 0 34.515625 0 
z
" id="DejaVuSerif-68"/>
     <path d="M 54.203125 25 
L 15.484375 25 
L 15.484375 24.609375 
Q 15.484375 14.109375 19.4375 8.765625 
Q 23.390625 3.421875 31.109375 3.421875 
Q 37.015625 3.421875 40.796875 6.515625 
Q 44.578125 9.625 46.09375 15.71875 
L 53.328125 15.71875 
Q 51.171875 7.171875 45.375 2.875 
Q 39.59375 -1.421875 30.171875 -1.421875 
Q 18.796875 -1.421875 11.890625 6.078125 
Q 4.984375 13.578125 4.984375 25.984375 
Q 4.984375 38.28125 11.765625 45.796875 
Q 18.5625 53.328125 29.59375 53.328125 
Q 41.359375 53.328125 47.65625 46.0625 
Q 53.953125 38.8125 54.203125 25 
z
M 43.609375 30.171875 
Q 43.3125 39.265625 39.765625 43.875 
Q 36.234375 48.484375 29.59375 48.484375 
Q 23.390625 48.484375 19.828125 43.84375 
Q 16.265625 39.203125 15.484375 30.171875 
z
" id="DejaVuSerif-101"/>
     <path d="M 4.109375 0 
L 4.109375 5.171875 
L 12.203125 5.171875 
L 12.203125 46.6875 
L 3.609375 46.6875 
L 3.609375 51.90625 
L 21.1875 51.90625 
L 21.1875 42.671875 
Q 23.6875 47.953125 27.65625 50.640625 
Q 31.640625 53.328125 36.921875 53.328125 
Q 45.515625 53.328125 49.5625 48.390625 
Q 53.609375 43.453125 53.609375 33.015625 
L 53.609375 5.171875 
L 61.625 5.171875 
L 61.625 0 
L 36.8125 0 
L 36.8125 5.171875 
L 44.578125 5.171875 
L 44.578125 30.171875 
Q 44.578125 39.703125 42.234375 43.234375 
Q 39.890625 46.78125 33.984375 46.78125 
Q 27.734375 46.78125 24.453125 42.203125 
Q 21.1875 37.640625 21.1875 28.90625 
L 21.1875 5.171875 
L 29 5.171875 
L 29 0 
z
" id="DejaVuSerif-110"/>
     <path d="M 5.609375 2.875 
L 5.609375 14.984375 
L 10.796875 14.984375 
Q 10.984375 9.1875 14.421875 6.296875 
Q 17.875 3.421875 24.609375 3.421875 
Q 30.671875 3.421875 33.84375 5.6875 
Q 37.015625 7.953125 37.015625 12.3125 
Q 37.015625 15.71875 34.6875 17.8125 
Q 32.375 19.921875 24.90625 22.3125 
L 18.40625 24.515625 
Q 11.71875 26.65625 8.71875 29.875 
Q 5.71875 33.109375 5.71875 38.09375 
Q 5.71875 45.21875 10.9375 49.265625 
Q 16.15625 53.328125 25.390625 53.328125 
Q 29.5 53.328125 34.03125 52.25 
Q 38.578125 51.171875 43.40625 49.125 
L 43.40625 37.796875 
L 38.234375 37.796875 
Q 38.03125 42.828125 34.703125 45.65625 
Q 31.390625 48.484375 25.6875 48.484375 
Q 20.015625 48.484375 17.109375 46.484375 
Q 14.203125 44.484375 14.203125 40.484375 
Q 14.203125 37.203125 16.40625 35.21875 
Q 18.609375 33.25 25.203125 31.203125 
L 32.328125 29 
Q 39.703125 26.703125 42.9375 23.265625 
Q 46.1875 19.828125 46.1875 14.40625 
Q 46.1875 7.03125 40.546875 2.796875 
Q 34.90625 -1.421875 25 -1.421875 
Q 19.96875 -1.421875 15.1875 -0.34375 
Q 10.40625 0.734375 5.609375 2.875 
z
" id="DejaVuSerif-115"/>
     <path d="M 9.71875 68.015625 
Q 9.71875 70.265625 11.34375 71.921875 
Q 12.984375 73.578125 15.28125 73.578125 
Q 17.53125 73.578125 19.15625 71.921875 
Q 20.796875 70.265625 20.796875 68.015625 
Q 20.796875 65.71875 19.1875 64.109375 
Q 17.578125 62.5 15.28125 62.5 
Q 12.984375 62.5 11.34375 64.109375 
Q 9.71875 65.71875 9.71875 68.015625 
z
M 21.1875 5.171875 
L 29.6875 5.171875 
L 29.6875 0 
L 3.609375 0 
L 3.609375 5.171875 
L 12.203125 5.171875 
L 12.203125 46.6875 
L 3.609375 46.6875 
L 3.609375 51.90625 
L 21.1875 51.90625 
z
" id="DejaVuSerif-105"/>
     <path d="M 10.796875 46.6875 
L 2.875 46.6875 
L 2.875 51.90625 
L 10.796875 51.90625 
L 10.796875 68.015625 
L 19.828125 68.015625 
L 19.828125 51.90625 
L 36.71875 51.90625 
L 36.71875 46.6875 
L 19.828125 46.6875 
L 19.828125 13.71875 
Q 19.828125 7.125 21.09375 5.265625 
Q 22.359375 3.421875 25.78125 3.421875 
Q 29.296875 3.421875 30.90625 5.484375 
Q 32.515625 7.5625 32.625 12.203125 
L 39.40625 12.203125 
Q 39.015625 5.125 35.546875 1.84375 
Q 32.078125 -1.421875 25 -1.421875 
Q 17.234375 -1.421875 14.015625 2.015625 
Q 10.796875 5.46875 10.796875 13.71875 
z
" id="DejaVuSerif-116"/>
     <path d="M 21.578125 -9.515625 
L 25 -0.875 
L 5.609375 46.6875 
L -0.296875 46.6875 
L -0.296875 51.90625 
L 23.578125 51.90625 
L 23.578125 46.6875 
L 15.28125 46.6875 
L 29.890625 10.984375 
L 44.484375 46.6875 
L 36.71875 46.6875 
L 36.71875 51.90625 
L 56.203125 51.90625 
L 56.203125 46.6875 
L 50.390625 46.6875 
L 26.609375 -11.71875 
Q 24.171875 -17.78125 21.1875 -20 
Q 18.21875 -22.21875 12.796875 -22.21875 
Q 10.5 -22.21875 8.078125 -21.828125 
Q 5.671875 -21.4375 3.21875 -20.703125 
L 3.21875 -10.796875 
L 7.8125 -10.796875 
Q 8.109375 -14.109375 9.5 -15.546875 
Q 10.890625 -17 13.8125 -17 
Q 16.5 -17 18.140625 -15.5 
Q 19.78125 -14.015625 21.578125 -9.515625 
z
" id="DejaVuSerif-121"/>
    </defs>
    <g style="fill:#262626;" transform="translate(75.455228 28)scale(0.096 -0.096)">
     <use xlink:href="#DejaVuSerif-68"/>
     <use x="80.175781" xlink:href="#DejaVuSerif-101"/>
     <use x="139.355469" xlink:href="#DejaVuSerif-110"/>
     <use x="203.759766" xlink:href="#DejaVuSerif-115"/>
     <use x="255.078125" xlink:href="#DejaVuSerif-105"/>
     <use x="287.060547" xlink:href="#DejaVuSerif-116"/>
     <use x="327.246094" xlink:href="#DejaVuSerif-121"/>
    </g>
   </g>
   <g id="legend_1">
    <g id="patch_7">
     <path d="M 90.624957 66.998625 
L 135.298707 66.998625 
Q 137.058707 66.998625 137.058707 65.238625 
L 137.058707 40.16 
Q 137.058707 38.4 135.298707 38.4 
L 90.624957 38.4 
Q 88.864957 38.4 88.864957 40.16 
L 88.864957 65.238625 
Q 88.864957 66.998625 90.624957 66.998625 
z
" style="fill:#eaeaf2;opacity:0.8;stroke:#cccccc;stroke-linejoin:miter;stroke-width:0.8;"/>
    </g>
    <g id="line2d_9">
     <path d="M 92.384957 45.526625 
L 109.984957 45.526625 
" style="fill:none;stroke:#4c72b0;stroke-linecap:round;stroke-width:1.2;"/>
    </g>
    <g id="line2d_10"/>
    <g id="text_8">
     <!-- agg -->
     <defs>
      <path d="M 39.796875 16.3125 
L 39.796875 27.296875 
L 28.21875 27.296875 
Q 21.53125 27.296875 18.25 24.40625 
Q 14.984375 21.53125 14.984375 15.578125 
Q 14.984375 10.15625 18.296875 6.984375 
Q 21.625 3.8125 27.296875 3.8125 
Q 32.90625 3.8125 36.34375 7.28125 
Q 39.796875 10.75 39.796875 16.3125 
z
M 48.78125 32.421875 
L 48.78125 5.171875 
L 56.78125 5.171875 
L 56.78125 0 
L 39.796875 0 
L 39.796875 5.609375 
Q 36.8125 2 32.90625 0.28125 
Q 29 -1.421875 23.78125 -1.421875 
Q 15.140625 -1.421875 10.0625 3.171875 
Q 4.984375 7.765625 4.984375 15.578125 
Q 4.984375 23.640625 10.796875 28.078125 
Q 16.609375 32.515625 27.203125 32.515625 
L 39.796875 32.515625 
L 39.796875 36.078125 
Q 39.796875 42 36.203125 45.234375 
Q 32.625 48.484375 26.125 48.484375 
Q 20.75 48.484375 17.578125 46.046875 
Q 14.40625 43.609375 13.625 38.8125 
L 8.984375 38.8125 
L 8.984375 49.3125 
Q 13.671875 51.3125 18.09375 52.3125 
Q 22.515625 53.328125 26.703125 53.328125 
Q 37.5 53.328125 43.140625 47.96875 
Q 48.78125 42.625 48.78125 32.421875 
z
" id="DejaVuSerif-97"/>
      <path d="M 52.484375 46.6875 
L 52.484375 1.125 
Q 52.484375 -10.0625 46.328125 -16.140625 
Q 40.1875 -22.21875 28.8125 -22.21875 
Q 23.6875 -22.21875 19 -21.28125 
Q 14.3125 -20.359375 10.015625 -18.5 
L 10.015625 -7.625 
L 14.703125 -7.625 
Q 15.578125 -12.703125 18.84375 -15.046875 
Q 22.125 -17.390625 28.21875 -17.390625 
Q 36.140625 -17.390625 39.8125 -12.921875 
Q 43.5 -8.453125 43.5 1.125 
L 43.5 8.109375 
Q 40.875 3.21875 36.796875 0.890625 
Q 32.71875 -1.421875 26.703125 -1.421875 
Q 17.140625 -1.421875 11.0625 6.171875 
Q 4.984375 13.765625 4.984375 25.984375 
Q 4.984375 38.1875 11.03125 45.75 
Q 17.09375 53.328125 26.703125 53.328125 
Q 32.71875 53.328125 36.796875 51 
Q 40.875 48.6875 43.5 43.796875 
L 43.5 51.90625 
L 61.078125 51.90625 
L 61.078125 46.6875 
z
M 43.5 28.515625 
Q 43.5 37.84375 39.90625 42.765625 
Q 36.328125 47.703125 29.5 47.703125 
Q 22.5625 47.703125 19.015625 42.234375 
Q 15.484375 36.765625 15.484375 25.984375 
Q 15.484375 15.234375 19.015625 9.71875 
Q 22.5625 4.203125 29.5 4.203125 
Q 36.328125 4.203125 39.90625 9.109375 
Q 43.5 14.015625 43.5 23.390625 
z
" id="DejaVuSerif-103"/>
     </defs>
     <g style="fill:#262626;" transform="translate(117.024957 48.606625)scale(0.088 -0.088)">
      <use xlink:href="#DejaVuSerif-97"/>
      <use x="59.619141" xlink:href="#DejaVuSerif-103"/>
      <use x="123.632812" xlink:href="#DejaVuSerif-103"/>
     </g>
    </g>
    <g id="line2d_11">
     <path d="M 92.384957 58.5685 
L 109.984957 58.5685 
" style="fill:none;stroke:#dd8452;stroke-linecap:round;stroke-width:1.2;"/>
    </g>
    <g id="line2d_12"/>
    <g id="text_9">
     <!-- sev -->
     <defs>
      <path d="M 24.703125 0 
L 5.609375 46.6875 
L -0.296875 46.6875 
L -0.296875 51.90625 
L 23.578125 51.90625 
L 23.578125 46.6875 
L 15.28125 46.6875 
L 29.890625 10.984375 
L 44.484375 46.6875 
L 36.71875 46.6875 
L 36.71875 51.90625 
L 56.203125 51.90625 
L 56.203125 46.6875 
L 50.390625 46.6875 
L 31.296875 0 
z
" id="DejaVuSerif-118"/>
     </defs>
     <g style="fill:#262626;" transform="translate(117.024957 61.6485)scale(0.088 -0.088)">
      <use xlink:href="#DejaVuSerif-115"/>
      <use x="51.318359" xlink:href="#DejaVuSerif-101"/>
      <use x="110.498047" xlink:href="#DejaVuSerif-118"/>
     </g>
    </g>
   </g>
  </g>
  <g id="axes_2">
   <g id="patch_8">
    <path d="M 183.058707 126.1 
L 278.225664 126.1 
L 278.225664 34 
L 183.058707 34 
z
" style="fill:#eaeaf2;"/>
   </g>
   <g id="matplotlib.axis_3">
    <g id="xtick_3">
     <g id="line2d_13">
      <path clip-path="url(#peca3837d0b)" d="M 187.384478 126.1 
L 187.384478 34 
" style="fill:none;stroke:#ffffff;stroke-linecap:round;stroke-width:0.8;"/>
     </g>
     <g id="text_10">
      <!-- 0 -->
      <g style="fill:#262626;" transform="translate(184.584978 141.086625)scale(0.088 -0.088)">
       <use xlink:href="#DejaVuSerif-48"/>
      </g>
     </g>
    </g>
    <g id="xtick_4">
     <g id="line2d_14">
      <path clip-path="url(#peca3837d0b)" d="M 235.819936 126.1 
L 235.819936 34 
" style="fill:none;stroke:#ffffff;stroke-linecap:round;stroke-width:0.8;"/>
     </g>
     <g id="text_11">
      <!-- 1000 -->
      <g style="fill:#262626;" transform="translate(224.621936 141.086625)scale(0.088 -0.088)">
       <use xlink:href="#DejaVuSerif-49"/>
       <use x="63.623047" xlink:href="#DejaVuSerif-48"/>
       <use x="127.246094" xlink:href="#DejaVuSerif-48"/>
       <use x="190.869141" xlink:href="#DejaVuSerif-48"/>
      </g>
     </g>
    </g>
   </g>
   <g id="matplotlib.axis_4">
    <g id="ytick_5">
     <g id="line2d_15">
      <path clip-path="url(#peca3837d0b)" d="M 183.058707 113.734287 
L 278.225664 113.734287 
" style="fill:none;stroke:#ffffff;stroke-linecap:round;stroke-width:0.8;"/>
     </g>
     <g id="text_12">
      <!-- $\mathdefault{10^{-9}}$ -->
      <defs>
       <path d="M 10.59375 35.296875 
L 73.1875 35.296875 
L 73.1875 27.390625 
L 10.59375 27.390625 
z
" id="DejaVuSerif-8722"/>
       <path d="M 46.78125 32.671875 
Q 43.5 29 39.25 27.1875 
Q 35.015625 25.390625 29.6875 25.390625 
Q 18.84375 25.390625 12.5625 31.9375 
Q 6.296875 38.484375 6.296875 49.8125 
Q 6.296875 60.890625 13.109375 67.546875 
Q 19.921875 74.21875 31.296875 74.21875 
Q 43.65625 74.21875 50.265625 65.015625 
Q 56.890625 55.8125 56.890625 38.71875 
Q 56.890625 19.578125 49.015625 9.078125 
Q 41.15625 -1.421875 26.90625 -1.421875 
Q 23.046875 -1.421875 18.796875 -0.6875 
Q 14.546875 0.046875 10.109375 1.515625 
L 10.109375 13.625 
L 15.578125 13.625 
Q 16.21875 8.6875 19.390625 6.046875 
Q 22.5625 3.421875 27.875 3.421875 
Q 37.359375 3.421875 41.984375 10.5625 
Q 46.625 17.71875 46.78125 32.671875 
z
M 30.90625 69.390625 
Q 23.96875 69.390625 20.28125 64.328125 
Q 16.609375 59.28125 16.609375 49.8125 
Q 16.609375 40.328125 20.28125 35.25 
Q 23.96875 30.171875 30.90625 30.171875 
Q 37.84375 30.171875 41.53125 35.078125 
Q 45.21875 39.984375 45.21875 49.21875 
Q 45.21875 58.9375 41.5 64.15625 
Q 37.796875 69.390625 30.90625 69.390625 
z
" id="DejaVuSerif-57"/>
      </defs>
      <g style="fill:#262626;" transform="translate(154.166707 117.077599)scale(0.088 -0.088)">
       <use transform="translate(0 0.7125)" xlink:href="#DejaVuSerif-49"/>
       <use transform="translate(63.623047 0.7125)" xlink:href="#DejaVuSerif-48"/>
       <use transform="translate(128.154453 37.046875)scale(0.7)" xlink:href="#DejaVuSerif-8722"/>
       <use transform="translate(186.806797 37.046875)scale(0.7)" xlink:href="#DejaVuSerif-57"/>
      </g>
     </g>
    </g>
    <g id="ytick_6">
     <g id="line2d_16">
      <path clip-path="url(#peca3837d0b)" d="M 183.058707 92.323631 
L 278.225664 92.323631 
" style="fill:none;stroke:#ffffff;stroke-linecap:round;stroke-width:0.8;"/>
     </g>
     <g id="text_13">
      <!-- $\mathdefault{10^{-7}}$ -->
      <defs>
       <path d="M 56.390625 67.921875 
L 27.875 0 
L 20.609375 0 
L 47.796875 64.890625 
L 14.109375 64.890625 
L 14.109375 55.90625 
L 8.40625 55.90625 
L 8.40625 72.90625 
L 56.390625 72.90625 
z
" id="DejaVuSerif-55"/>
      </defs>
      <g style="fill:#262626;" transform="translate(154.166707 95.666943)scale(0.088 -0.088)">
       <use transform="translate(0 0.63125)" xlink:href="#DejaVuSerif-49"/>
       <use transform="translate(63.623047 0.63125)" xlink:href="#DejaVuSerif-48"/>
       <use transform="translate(128.154453 36.965625)scale(0.7)" xlink:href="#DejaVuSerif-8722"/>
       <use transform="translate(186.806797 36.965625)scale(0.7)" xlink:href="#DejaVuSerif-55"/>
      </g>
     </g>
    </g>
    <g id="ytick_7">
     <g id="line2d_17">
      <path clip-path="url(#peca3837d0b)" d="M 183.058707 70.912975 
L 278.225664 70.912975 
" style="fill:none;stroke:#ffffff;stroke-linecap:round;stroke-width:0.8;"/>
     </g>
     <g id="text_14">
      <!-- $\mathdefault{10^{-5}}$ -->
      <g style="fill:#262626;" transform="translate(154.166707 74.256287)scale(0.088 -0.088)">
       <use transform="translate(0 0.63125)" xlink:href="#DejaVuSerif-49"/>
       <use transform="translate(63.623047 0.63125)" xlink:href="#DejaVuSerif-48"/>
       <use transform="translate(128.154453 36.965625)scale(0.7)" xlink:href="#DejaVuSerif-8722"/>
       <use transform="translate(186.806797 36.965625)scale(0.7)" xlink:href="#DejaVuSerif-53"/>
      </g>
     </g>
    </g>
    <g id="ytick_8">
     <g id="line2d_18">
      <path clip-path="url(#peca3837d0b)" d="M 183.058707 49.502319 
L 278.225664 49.502319 
" style="fill:none;stroke:#ffffff;stroke-linecap:round;stroke-width:0.8;"/>
     </g>
     <g id="text_15">
      <!-- $\mathdefault{10^{-3}}$ -->
      <defs>
       <path d="M 9.71875 69.828125 
Q 15.4375 71.96875 20.671875 73.09375 
Q 25.921875 74.21875 30.515625 74.21875 
Q 41.21875 74.21875 47.21875 69.59375 
Q 53.21875 64.984375 53.21875 56.78125 
Q 53.21875 50.203125 49.0625 45.78125 
Q 44.921875 41.359375 37.3125 39.796875 
Q 46.296875 38.53125 51.25 33.28125 
Q 56.203125 28.03125 56.203125 19.671875 
Q 56.203125 9.46875 49.34375 4.015625 
Q 42.484375 -1.421875 29.59375 -1.421875 
Q 23.875 -1.421875 18.421875 -0.1875 
Q 12.984375 1.03125 7.625 3.515625 
L 7.625 17.671875 
L 13.09375 17.671875 
Q 13.578125 10.640625 17.828125 7.03125 
Q 22.078125 3.421875 29.78125 3.421875 
Q 37.25 3.421875 41.578125 7.734375 
Q 45.90625 12.0625 45.90625 19.578125 
Q 45.90625 28.171875 41.453125 32.59375 
Q 37.015625 37.015625 28.421875 37.015625 
L 23.78125 37.015625 
L 23.78125 42 
L 26.21875 42 
Q 34.765625 42 39.03125 45.53125 
Q 43.3125 49.078125 43.3125 56.203125 
Q 43.3125 62.59375 39.796875 65.984375 
Q 36.28125 69.390625 29.6875 69.390625 
Q 23.09375 69.390625 19.453125 66.265625 
Q 15.828125 63.140625 15.1875 56.984375 
L 9.71875 56.984375 
z
" id="DejaVuSerif-51"/>
      </defs>
      <g style="fill:#262626;" transform="translate(154.166707 52.845631)scale(0.088 -0.088)">
       <use transform="translate(0 0.7125)" xlink:href="#DejaVuSerif-49"/>
       <use transform="translate(63.623047 0.7125)" xlink:href="#DejaVuSerif-48"/>
       <use transform="translate(128.154453 37.046875)scale(0.7)" xlink:href="#DejaVuSerif-8722"/>
       <use transform="translate(186.806797 37.046875)scale(0.7)" xlink:href="#DejaVuSerif-51"/>
      </g>
     </g>
    </g>
   </g>
   <g id="line2d_19">
    <path clip-path="url(#peca3837d0b)" d="M 187.384478 63.877725 
L 187.389321 85.720994 
L 187.495879 71.011224 
L 187.834928 63.566553 
L 188.270847 58.588043 
L 188.764888 55.327442 
L 189.287991 53.259715 
L 189.811094 52.027916 
L 190.32451 51.347183 
L 190.818552 51.037289 
L 191.327124 50.976729 
L 191.898662 51.141751 
L 192.596133 51.589109 
L 193.501876 52.454226 
L 194.732137 53.961556 
L 196.582371 56.617438 
L 205.271692 69.511963 
L 208.11001 73.120014 
L 210.928954 76.345947 
L 213.820551 79.317815 
L 216.852611 82.11456 
L 220.078412 84.785932 
L 223.546391 87.367235 
L 227.309826 89.888763 
L 231.412309 92.367287 
L 235.90712 94.820377 
L 240.847537 97.260246 
L 246.281995 99.692881 
L 252.263774 102.123721 
L 258.850996 104.557396 
L 266.106628 106.997633 
L 273.899893 109.389034 
L 273.899893 109.389034 
" style="fill:none;stroke:#4c72b0;stroke-linecap:round;stroke-width:1.2;"/>
   </g>
   <g id="line2d_20">
    <path clip-path="url(#peca3837d0b)" d="M 187.384478 66.283621 
L 187.457131 38.186364 
L 187.500723 38.588425 
L 188.401622 49.938884 
L 189.089406 54.942204 
L 189.922496 59.399379 
L 190.905736 63.461413 
L 192.034282 67.189385 
L 193.317821 70.669075 
L 194.761198 73.943952 
L 196.374099 77.054274 
L 198.166211 80.027983 
L 200.152065 82.891866 
L 202.346191 85.664521 
L 204.76312 88.359235 
L 207.42707 90.994793 
L 210.362259 93.5837 
L 213.592904 96.134232 
L 217.148067 98.655042 
L 221.061652 101.154482 
L 225.367564 103.637556 
L 230.104552 106.109352 
L 235.311364 108.572493 
L 241.041278 111.033856 
L 247.337888 113.493436 
L 254.259315 115.955131 
L 261.863682 118.420472 
L 270.213955 120.890712 
L 273.899893 121.913636 
L 273.899893 121.913636 
" style="fill:none;stroke:#dd8452;stroke-linecap:round;stroke-width:1.2;"/>
   </g>
   <g id="patch_9">
    <path d="M 183.058707 126.1 
L 183.058707 34 
" style="fill:none;stroke:#ffffff;stroke-linecap:square;stroke-linejoin:miter;"/>
   </g>
   <g id="patch_10">
    <path d="M 278.225664 126.1 
L 278.225664 34 
" style="fill:none;stroke:#ffffff;stroke-linecap:square;stroke-linejoin:miter;"/>
   </g>
   <g id="patch_11">
    <path d="M 183.058707 126.1 
L 278.225664 126.1 
" style="fill:none;stroke:#ffffff;stroke-linecap:square;stroke-linejoin:miter;"/>
   </g>
   <g id="patch_12">
    <path d="M 183.058707 34 
L 278.225664 34 
" style="fill:none;stroke:#ffffff;stroke-linecap:square;stroke-linejoin:miter;"/>
   </g>
   <g id="text_16">
    <!-- Log Density -->
    <defs>
     <path d="M 5.515625 0 
L 5.515625 5.171875 
L 14.796875 5.171875 
L 14.796875 67.671875 
L 5.515625 67.671875 
L 5.515625 72.90625 
L 33.984375 72.90625 
L 33.984375 67.671875 
L 24.703125 67.671875 
L 24.703125 6 
L 58.015625 6 
L 58.015625 18.21875 
L 64.015625 18.21875 
L 64.015625 0 
z
" id="DejaVuSerif-76"/>
     <path d="M 30.078125 3.421875 
Q 37.3125 3.421875 40.984375 9.125 
Q 44.671875 14.84375 44.671875 25.984375 
Q 44.671875 37.109375 40.984375 42.796875 
Q 37.3125 48.484375 30.078125 48.484375 
Q 22.859375 48.484375 19.171875 42.796875 
Q 15.484375 37.109375 15.484375 25.984375 
Q 15.484375 14.84375 19.1875 9.125 
Q 22.90625 3.421875 30.078125 3.421875 
z
M 30.078125 -1.421875 
Q 18.75 -1.421875 11.859375 6.078125 
Q 4.984375 13.578125 4.984375 25.984375 
Q 4.984375 38.375 11.84375 45.84375 
Q 18.703125 53.328125 30.078125 53.328125 
Q 41.453125 53.328125 48.3125 45.84375 
Q 55.171875 38.375 55.171875 25.984375 
Q 55.171875 13.578125 48.3125 6.078125 
Q 41.453125 -1.421875 30.078125 -1.421875 
z
" id="DejaVuSerif-111"/>
     <path id="DejaVuSerif-32"/>
    </defs>
    <g style="fill:#262626;" transform="translate(201.546685 28)scale(0.096 -0.096)">
     <use xlink:href="#DejaVuSerif-76"/>
     <use x="66.40625" xlink:href="#DejaVuSerif-111"/>
     <use x="126.611328" xlink:href="#DejaVuSerif-103"/>
     <use x="190.625" xlink:href="#DejaVuSerif-32"/>
     <use x="222.412109" xlink:href="#DejaVuSerif-68"/>
     <use x="302.587891" xlink:href="#DejaVuSerif-101"/>
     <use x="361.767578" xlink:href="#DejaVuSerif-110"/>
     <use x="426.171875" xlink:href="#DejaVuSerif-115"/>
     <use x="477.490234" xlink:href="#DejaVuSerif-105"/>
     <use x="509.472656" xlink:href="#DejaVuSerif-116"/>
     <use x="549.658203" xlink:href="#DejaVuSerif-121"/>
    </g>
   </g>
   <g id="legend_2">
    <g id="patch_13">
     <path d="M 227.391914 66.998625 
L 272.065664 66.998625 
Q 273.825664 66.998625 273.825664 65.238625 
L 273.825664 40.16 
Q 273.825664 38.4 272.065664 38.4 
L 227.391914 38.4 
Q 225.631914 38.4 225.631914 40.16 
L 225.631914 65.238625 
Q 225.631914 66.998625 227.391914 66.998625 
z
" style="fill:#eaeaf2;opacity:0.8;stroke:#cccccc;stroke-linejoin:miter;stroke-width:0.8;"/>
    </g>
    <g id="line2d_21">
     <path d="M 229.151914 45.526625 
L 246.751914 45.526625 
" style="fill:none;stroke:#4c72b0;stroke-linecap:round;stroke-width:1.2;"/>
    </g>
    <g id="line2d_22"/>
    <g id="text_17">
     <!-- agg -->
     <g style="fill:#262626;" transform="translate(253.791914 48.606625)scale(0.088 -0.088)">
      <use xlink:href="#DejaVuSerif-97"/>
      <use x="59.619141" xlink:href="#DejaVuSerif-103"/>
      <use x="123.632812" xlink:href="#DejaVuSerif-103"/>
     </g>
    </g>
    <g id="line2d_23">
     <path d="M 229.151914 58.5685 
L 246.751914 58.5685 
" style="fill:none;stroke:#dd8452;stroke-linecap:round;stroke-width:1.2;"/>
    </g>
    <g id="line2d_24"/>
    <g id="text_18">
     <!-- sev -->
     <g style="fill:#262626;" transform="translate(253.791914 61.6485)scale(0.088 -0.088)">
      <use xlink:href="#DejaVuSerif-115"/>
      <use x="51.318359" xlink:href="#DejaVuSerif-101"/>
      <use x="110.498047" xlink:href="#DejaVuSerif-118"/>
     </g>
    </g>
   </g>
  </g>
  <g id="axes_3">
   <g id="patch_14">
    <path d="M 319.825664 126.1 
L 414.992621 126.1 
L 414.992621 34 
L 319.825664 34 
z
" style="fill:#eaeaf2;"/>
   </g>
   <g id="matplotlib.axis_5">
    <g id="xtick_5">
     <g id="line2d_25">
      <path clip-path="url(#p508963678b)" d="M 324.149093 126.1 
L 324.149093 34 
" style="fill:none;stroke:#ffffff;stroke-linecap:round;stroke-width:0.8;"/>
     </g>
     <g id="text_19">
      <!-- 0.0 -->
      <g style="fill:#262626;" transform="translate(317.151718 141.086625)scale(0.088 -0.088)">
       <use xlink:href="#DejaVuSerif-48"/>
       <use x="63.623047" xlink:href="#DejaVuSerif-46"/>
       <use x="95.410156" xlink:href="#DejaVuSerif-48"/>
      </g>
     </g>
    </g>
    <g id="xtick_6">
     <g id="line2d_26">
      <path clip-path="url(#p508963678b)" d="M 367.408003 126.1 
L 367.408003 34 
" style="fill:none;stroke:#ffffff;stroke-linecap:round;stroke-width:0.8;"/>
     </g>
     <g id="text_20">
      <!-- 0.5 -->
      <g style="fill:#262626;" transform="translate(360.410628 141.086625)scale(0.088 -0.088)">
       <use xlink:href="#DejaVuSerif-48"/>
       <use x="63.623047" xlink:href="#DejaVuSerif-46"/>
       <use x="95.410156" xlink:href="#DejaVuSerif-53"/>
      </g>
     </g>
    </g>
    <g id="xtick_7">
     <g id="line2d_27">
      <path clip-path="url(#p508963678b)" d="M 410.666913 126.1 
L 410.666913 34 
" style="fill:none;stroke:#ffffff;stroke-linecap:round;stroke-width:0.8;"/>
     </g>
     <g id="text_21">
      <!-- 1.0 -->
      <g style="fill:#262626;" transform="translate(403.669538 141.086625)scale(0.088 -0.088)">
       <use xlink:href="#DejaVuSerif-49"/>
       <use x="63.623047" xlink:href="#DejaVuSerif-46"/>
       <use x="95.410156" xlink:href="#DejaVuSerif-48"/>
      </g>
     </g>
    </g>
   </g>
   <g id="matplotlib.axis_6">
    <g id="ytick_9">
     <g id="line2d_28">
      <path clip-path="url(#p508963678b)" d="M 319.825664 121.913636 
L 414.992621 121.913636 
" style="fill:none;stroke:#ffffff;stroke-linecap:round;stroke-width:0.8;"/>
     </g>
     <g id="text_22">
      <!-- 0 -->
      <g style="fill:#262626;" transform="translate(305.926664 125.256949)scale(0.088 -0.088)">
       <use xlink:href="#DejaVuSerif-48"/>
      </g>
     </g>
    </g>
    <g id="ytick_10">
     <g id="line2d_29">
      <path clip-path="url(#p508963678b)" d="M 319.825664 98.476375 
L 414.992621 98.476375 
" style="fill:none;stroke:#ffffff;stroke-linecap:round;stroke-width:0.8;"/>
     </g>
     <g id="text_23">
      <!-- 500 -->
      <g style="fill:#262626;" transform="translate(294.728664 101.819687)scale(0.088 -0.088)">
       <use xlink:href="#DejaVuSerif-53"/>
       <use x="63.623047" xlink:href="#DejaVuSerif-48"/>
       <use x="127.246094" xlink:href="#DejaVuSerif-48"/>
      </g>
     </g>
    </g>
    <g id="ytick_11">
     <g id="line2d_30">
      <path clip-path="url(#p508963678b)" d="M 319.825664 75.039114 
L 414.992621 75.039114 
" style="fill:none;stroke:#ffffff;stroke-linecap:round;stroke-width:0.8;"/>
     </g>
     <g id="text_24">
      <!-- 1000 -->
      <g style="fill:#262626;" transform="translate(289.129664 78.382426)scale(0.088 -0.088)">
       <use xlink:href="#DejaVuSerif-49"/>
       <use x="63.623047" xlink:href="#DejaVuSerif-48"/>
       <use x="127.246094" xlink:href="#DejaVuSerif-48"/>
       <use x="190.869141" xlink:href="#DejaVuSerif-48"/>
      </g>
     </g>
    </g>
    <g id="ytick_12">
     <g id="line2d_31">
      <path clip-path="url(#p508963678b)" d="M 319.825664 51.601852 
L 414.992621 51.601852 
" style="fill:none;stroke:#ffffff;stroke-linecap:round;stroke-width:0.8;"/>
     </g>
     <g id="text_25">
      <!-- 1500 -->
      <g style="fill:#262626;" transform="translate(289.129664 54.945165)scale(0.088 -0.088)">
       <use xlink:href="#DejaVuSerif-49"/>
       <use x="63.623047" xlink:href="#DejaVuSerif-53"/>
       <use x="127.246094" xlink:href="#DejaVuSerif-48"/>
       <use x="190.869141" xlink:href="#DejaVuSerif-48"/>
      </g>
     </g>
    </g>
   </g>
   <g id="line2d_32">
    <path clip-path="url(#p508963678b)" d="M 324.153022 121.913636 
L 324.264848 121.55739 
L 324.594437 121.266768 
L 325.326954 120.957396 
L 326.819255 120.596462 
L 329.710686 120.151154 
L 335.079337 119.574598 
L 345.341896 118.726169 
L 376.262434 116.255881 
L 385.430136 115.262142 
L 391.907778 114.348088 
L 396.640976 113.466847 
L 400.138245 112.599669 
L 402.733879 111.737177 
L 404.681847 110.865311 
L 406.157461 109.970008 
L 407.291762 109.02783 
L 408.172303 108.010653 
L 408.866416 106.866915 
L 409.414545 105.526303 
L 409.84575 103.862258 
L 410.176093 101.64978 
L 410.414545 98.424813 
L 410.56875 92.949869 
L 410.646936 80.504683 
L 410.666048 38.186364 
L 410.666048 38.186364 
" style="fill:none;stroke:#4c72b0;stroke-linecap:round;stroke-width:1.2;"/>
   </g>
   <g id="line2d_33">
    <path clip-path="url(#p508963678b)" d="M 324.151435 121.913636 
L 326.063212 121.890199 
L 383.70386 121.416766 
L 395.364984 121.07927 
L 401.421717 120.699586 
L 404.80202 120.282403 
L 406.810148 119.82772 
L 408.07658 119.326163 
L 408.905659 118.768356 
L 409.480284 118.1168 
L 409.896574 117.301183 
L 410.206035 116.176195 
L 410.428696 114.451212 
L 410.57401 111.352806 
L 410.648273 103.890382 
L 410.666616 64.562658 
L 410.66685 38.186364 
L 410.66685 38.186364 
" style="fill:none;stroke:#dd8452;stroke-linecap:round;stroke-width:1.2;"/>
   </g>
   <g id="patch_15">
    <path d="M 319.825664 126.1 
L 319.825664 34 
" style="fill:none;stroke:#ffffff;stroke-linecap:square;stroke-linejoin:miter;"/>
   </g>
   <g id="patch_16">
    <path d="M 414.992621 126.1 
L 414.992621 34 
" style="fill:none;stroke:#ffffff;stroke-linecap:square;stroke-linejoin:miter;"/>
   </g>
   <g id="patch_17">
    <path d="M 319.825664 126.1 
L 414.992621 126.1 
" style="fill:none;stroke:#ffffff;stroke-linecap:square;stroke-linejoin:miter;"/>
   </g>
   <g id="patch_18">
    <path d="M 319.825664 34 
L 414.992621 34 
" style="fill:none;stroke:#ffffff;stroke-linecap:square;stroke-linejoin:miter;"/>
   </g>
   <g id="text_26">
    <!-- Lee Diagram -->
    <defs>
     <path d="M 47.796875 52 
L 47.796875 39.015625 
L 42.625 39.015625 
Q 42.390625 42.875 40.484375 44.78125 
Q 38.578125 46.6875 34.90625 46.6875 
Q 28.265625 46.6875 24.71875 42.09375 
Q 21.1875 37.5 21.1875 28.90625 
L 21.1875 5.171875 
L 31.59375 5.171875 
L 31.59375 0 
L 4.109375 0 
L 4.109375 5.171875 
L 12.203125 5.171875 
L 12.203125 46.78125 
L 3.609375 46.78125 
L 3.609375 51.90625 
L 21.1875 51.90625 
L 21.1875 42.671875 
Q 23.828125 48.09375 27.96875 50.703125 
Q 32.125 53.328125 38.09375 53.328125 
Q 40.28125 53.328125 42.703125 52.984375 
Q 45.125 52.640625 47.796875 52 
z
" id="DejaVuSerif-114"/>
     <path d="M 51.8125 41.796875 
Q 54.390625 47.515625 58.421875 50.421875 
Q 62.453125 53.328125 67.828125 53.328125 
Q 75.984375 53.328125 79.984375 48.265625 
Q 83.984375 43.21875 83.984375 33.015625 
L 83.984375 5.171875 
L 92.09375 5.171875 
L 92.09375 0 
L 67.1875 0 
L 67.1875 5.171875 
L 75 5.171875 
L 75 31.984375 
Q 75 39.9375 72.65625 43.3125 
Q 70.3125 46.6875 64.890625 46.6875 
Q 58.890625 46.6875 55.734375 42.140625 
Q 52.59375 37.59375 52.59375 28.90625 
L 52.59375 5.171875 
L 60.40625 5.171875 
L 60.40625 0 
L 35.796875 0 
L 35.796875 5.171875 
L 43.609375 5.171875 
L 43.609375 32.328125 
Q 43.609375 40.09375 41.265625 43.390625 
Q 38.921875 46.6875 33.5 46.6875 
Q 27.484375 46.6875 24.328125 42.140625 
Q 21.1875 37.59375 21.1875 28.90625 
L 21.1875 5.171875 
L 29 5.171875 
L 29 0 
L 4.109375 0 
L 4.109375 5.171875 
L 12.203125 5.171875 
L 12.203125 46.78125 
L 3.609375 46.78125 
L 3.609375 51.90625 
L 21.1875 51.90625 
L 21.1875 42.671875 
Q 23.6875 47.859375 27.53125 50.59375 
Q 31.390625 53.328125 36.28125 53.328125 
Q 42.328125 53.328125 46.375 50.3125 
Q 50.4375 47.3125 51.8125 41.796875 
z
" id="DejaVuSerif-109"/>
    </defs>
    <g style="fill:#262626;" transform="translate(335.987892 28)scale(0.096 -0.096)">
     <use xlink:href="#DejaVuSerif-76"/>
     <use x="66.40625" xlink:href="#DejaVuSerif-101"/>
     <use x="125.585938" xlink:href="#DejaVuSerif-101"/>
     <use x="184.765625" xlink:href="#DejaVuSerif-32"/>
     <use x="216.552734" xlink:href="#DejaVuSerif-68"/>
     <use x="296.728516" xlink:href="#DejaVuSerif-105"/>
     <use x="328.710938" xlink:href="#DejaVuSerif-97"/>
     <use x="388.330078" xlink:href="#DejaVuSerif-103"/>
     <use x="452.34375" xlink:href="#DejaVuSerif-114"/>
     <use x="500.146484" xlink:href="#DejaVuSerif-97"/>
     <use x="559.765625" xlink:href="#DejaVuSerif-109"/>
    </g>
   </g>
   <g id="legend_3">
    <g id="patch_19">
     <path d="M 363.050621 66.998625 
L 408.832621 66.998625 
Q 410.592621 66.998625 410.592621 65.238625 
L 410.592621 40.16 
Q 410.592621 38.4 408.832621 38.4 
L 363.050621 38.4 
Q 361.290621 38.4 361.290621 40.16 
L 361.290621 65.238625 
Q 361.290621 66.998625 363.050621 66.998625 
z
" style="fill:#eaeaf2;opacity:0.8;stroke:#cccccc;stroke-linejoin:miter;stroke-width:0.8;"/>
    </g>
    <g id="line2d_34">
     <path d="M 364.810621 45.526625 
L 382.410621 45.526625 
" style="fill:none;stroke:#4c72b0;stroke-linecap:round;stroke-width:1.2;"/>
    </g>
    <g id="line2d_35"/>
    <g id="text_27">
     <!-- Agg -->
     <defs>
      <path d="M 20.015625 26.421875 
L 46.78125 26.421875 
L 33.40625 61.078125 
z
M -0.59375 0 
L -0.59375 5.171875 
L 5.8125 5.171875 
L 31.78125 72.90625 
L 39.984375 72.90625 
L 66.015625 5.171875 
L 73.1875 5.171875 
L 73.1875 0 
L 46.6875 0 
L 46.6875 5.171875 
L 54.78125 5.171875 
L 48.6875 21.1875 
L 18.015625 21.1875 
L 11.921875 5.171875 
L 19.921875 5.171875 
L 19.921875 0 
z
" id="DejaVuSerif-65"/>
     </defs>
     <g style="fill:#262626;" transform="translate(389.450621 48.606625)scale(0.088 -0.088)">
      <use xlink:href="#DejaVuSerif-65"/>
      <use x="72.216797" xlink:href="#DejaVuSerif-103"/>
      <use x="136.230469" xlink:href="#DejaVuSerif-103"/>
     </g>
    </g>
    <g id="line2d_36">
     <path d="M 364.810621 58.5685 
L 382.410621 58.5685 
" style="fill:none;stroke:#dd8452;stroke-linecap:round;stroke-width:1.2;"/>
    </g>
    <g id="line2d_37"/>
    <g id="text_28">
     <!-- Sev -->
     <defs>
      <path d="M 9.28125 3.515625 
L 9.28125 20.125 
L 14.890625 20.0625 
Q 15.140625 11.765625 19.703125 7.78125 
Q 24.265625 3.8125 33.59375 3.8125 
Q 42.28125 3.8125 46.84375 7.25 
Q 51.421875 10.6875 51.421875 17.28125 
Q 51.421875 22.5625 48.65625 25.390625 
Q 45.90625 28.21875 37.015625 30.90625 
L 27.390625 33.796875 
Q 16.9375 36.96875 12.671875 41.703125 
Q 8.40625 46.4375 8.40625 54.6875 
Q 8.40625 63.96875 14.984375 69.09375 
Q 21.578125 74.21875 33.5 74.21875 
Q 38.578125 74.21875 44.625 73.109375 
Q 50.6875 72.015625 57.515625 69.921875 
L 57.515625 54.390625 
L 52 54.390625 
Q 51.171875 62.109375 46.84375 65.546875 
Q 42.53125 69 33.6875 69 
Q 25.984375 69 21.953125 65.84375 
Q 17.921875 62.703125 17.921875 56.6875 
Q 17.921875 51.46875 20.9375 48.484375 
Q 23.96875 45.515625 33.796875 42.578125 
L 42.828125 39.890625 
Q 52.734375 36.921875 56.953125 32.296875 
Q 61.1875 27.6875 61.1875 19.921875 
Q 61.1875 9.328125 54.390625 3.953125 
Q 47.609375 -1.421875 34.1875 -1.421875 
Q 28.171875 -1.421875 21.9375 -0.1875 
Q 15.71875 1.03125 9.28125 3.515625 
z
" id="DejaVuSerif-83"/>
     </defs>
     <g style="fill:#262626;" transform="translate(389.450621 61.6485)scale(0.088 -0.088)">
      <use xlink:href="#DejaVuSerif-83"/>
      <use x="68.505859" xlink:href="#DejaVuSerif-101"/>
      <use x="127.685547" xlink:href="#DejaVuSerif-118"/>
     </g>
    </g>
   </g>
  </g>
  <g id="text_29">
   <!-- Aggregate newAgg -->
   <defs>
    <path d="M 48 51.90625 
L 61.28125 11.375 
L 73 46.6875 
L 65.484375 46.6875 
L 65.484375 51.90625 
L 84.28125 51.90625 
L 84.28125 46.6875 
L 78.515625 46.6875 
L 63.09375 0 
L 55.609375 0 
L 42.828125 38.8125 
L 29.984375 0 
L 22.796875 0 
L 7.421875 46.6875 
L 1.609375 46.6875 
L 1.609375 51.90625 
L 25.09375 51.90625 
L 25.09375 46.6875 
L 16.703125 46.6875 
L 28.328125 11.375 
L 41.703125 51.90625 
z
" id="DejaVuSerif-119"/>
   </defs>
   <g style="fill:#262626;" transform="translate(154.028625 16.1475)scale(0.12 -0.12)">
    <use xlink:href="#DejaVuSerif-65"/>
    <use x="72.216797" xlink:href="#DejaVuSerif-103"/>
    <use x="136.230469" xlink:href="#DejaVuSerif-103"/>
    <use x="200.244141" xlink:href="#DejaVuSerif-114"/>
    <use x="248.046875" xlink:href="#DejaVuSerif-101"/>
    <use x="307.226562" xlink:href="#DejaVuSerif-103"/>
    <use x="371.240234" xlink:href="#DejaVuSerif-97"/>
    <use x="430.859375" xlink:href="#DejaVuSerif-116"/>
    <use x="471.044922" xlink:href="#DejaVuSerif-101"/>
    <use x="530.224609" xlink:href="#DejaVuSerif-32"/>
    <use x="562.011719" xlink:href="#DejaVuSerif-110"/>
    <use x="626.416016" xlink:href="#DejaVuSerif-101"/>
    <use x="685.595703" xlink:href="#DejaVuSerif-119"/>
    <use x="771.191406" xlink:href="#DejaVuSerif-65"/>
    <use x="843.408203" xlink:href="#DejaVuSerif-103"/>
    <use x="907.421875" xlink:href="#DejaVuSerif-103"/>
   </g>
  </g>
 </g>
 <defs>
  <clipPath id="p1c1077a84c">
   <rect height="92.1" width="95.166957" x="46.29175" y="34"/>
  </clipPath>
  <clipPath id="peca3837d0b">
   <rect height="92.1" width="95.166957" x="183.058707" y="34"/>
  </clipPath>
  <clipPath id="p508963678b">
   <rect height="92.1" width="95.166957" x="319.825664" y="34"/>
  </clipPath>
 </defs>
</svg>
