<?xml version="1.0" encoding="utf-8" standalone="no"?>
<!DOCTYPE svg PUBLIC "-//W3C//DTD SVG 1.1//EN"
  "http://www.w3.org/Graphics/SVG/1.1/DTD/svg11.dtd">
<!-- Created with matplotlib (http://matplotlib.org/) -->
<svg height="150.7745pt" version="1.1" viewBox="0 0 420.742348 150.7745" width="420.742348pt" xmlns="http://www.w3.org/2000/svg" xmlns:xlink="http://www.w3.org/1999/xlink">
 <defs>
  <style type="text/css">
*{stroke-linecap:butt;stroke-linejoin:round;}
  </style>
 </defs>
 <g id="figure_1">
  <g id="patch_1">
   <path d="M 0 150.7745 
L 420.742348 150.7745 
L 420.742348 -0 
L 0 -0 
z
" style="fill:#ffffff;"/>
  </g>
  <g id="axes_1">
   <g id="patch_2">
    <path d="M 30.6125 130.232 
L 130.796936 130.232 
L 130.796936 33.568 
L 30.6125 33.568 
z
" style="fill:#eaeaf2;"/>
   </g>
   <g id="matplotlib.axis_1">
    <g id="xtick_1">
     <g id="line2d_1">
      <path clip-path="url(#p8e8f0f6034)" d="M 35.166338 130.232 
L 35.166338 33.568 
" style="fill:none;stroke:#ffffff;stroke-linecap:round;stroke-width:0.8;"/>
     </g>
     <g id="line2d_2"/>
     <g id="text_1">
      <!-- 0 -->
      <defs>
       <path d="M 31.78125 3.421875 
Q 39.265625 3.421875 42.96875 11.625 
Q 46.6875 19.828125 46.6875 36.375 
Q 46.6875 52.984375 42.96875 61.1875 
Q 39.265625 69.390625 31.78125 69.390625 
Q 24.3125 69.390625 20.59375 61.1875 
Q 16.890625 52.984375 16.890625 36.375 
Q 16.890625 19.828125 20.59375 11.625 
Q 24.3125 3.421875 31.78125 3.421875 
z
M 31.78125 -1.421875 
Q 19.921875 -1.421875 13.25 8.53125 
Q 6.59375 18.5 6.59375 36.375 
Q 6.59375 54.296875 13.25 64.25 
Q 19.921875 74.21875 31.78125 74.21875 
Q 43.703125 74.21875 50.34375 64.25 
Q 56.984375 54.296875 56.984375 36.375 
Q 56.984375 18.5 50.34375 8.53125 
Q 43.703125 -1.421875 31.78125 -1.421875 
z
" id="DejaVuSerif-30"/>
      </defs>
      <g style="fill:#262626;" transform="translate(32.621338 141.91075)scale(0.08 -0.08)">
       <use xlink:href="#DejaVuSerif-30"/>
      </g>
     </g>
    </g>
    <g id="xtick_2">
     <g id="line2d_3">
      <path clip-path="url(#p8e8f0f6034)" d="M 80.704718 130.232 
L 80.704718 33.568 
" style="fill:none;stroke:#ffffff;stroke-linecap:round;stroke-width:0.8;"/>
     </g>
     <g id="line2d_4"/>
     <g id="text_2">
      <!-- 100 -->
      <defs>
       <path d="M 14.203125 0 
L 14.203125 5.171875 
L 26.90625 5.171875 
L 26.90625 65.828125 
L 12.203125 56.296875 
L 12.203125 62.703125 
L 29.984375 74.21875 
L 36.71875 74.21875 
L 36.71875 5.171875 
L 49.421875 5.171875 
L 49.421875 0 
z
" id="DejaVuSerif-31"/>
      </defs>
      <g style="fill:#262626;" transform="translate(73.069718 141.91075)scale(0.08 -0.08)">
       <use xlink:href="#DejaVuSerif-31"/>
       <use x="63.623047" xlink:href="#DejaVuSerif-30"/>
       <use x="127.246094" xlink:href="#DejaVuSerif-30"/>
      </g>
     </g>
    </g>
    <g id="xtick_3">
     <g id="line2d_5">
      <path clip-path="url(#p8e8f0f6034)" d="M 126.243098 130.232 
L 126.243098 33.568 
" style="fill:none;stroke:#ffffff;stroke-linecap:round;stroke-width:0.8;"/>
     </g>
     <g id="line2d_6"/>
     <g id="text_3">
      <!-- 200 -->
      <defs>
       <path d="M 12.796875 55.515625 
L 7.328125 55.515625 
L 7.328125 68.5 
Q 12.546875 71.296875 17.84375 72.75 
Q 23.140625 74.21875 28.21875 74.21875 
Q 39.59375 74.21875 46.1875 68.703125 
Q 52.78125 63.1875 52.78125 53.71875 
Q 52.78125 43.015625 37.84375 28.125 
Q 36.671875 27 36.078125 26.421875 
L 17.671875 8.015625 
L 48.09375 8.015625 
L 48.09375 17 
L 53.8125 17 
L 53.8125 0 
L 6.78125 0 
L 6.78125 5.328125 
L 28.90625 27.390625 
Q 36.234375 34.71875 39.359375 40.84375 
Q 42.484375 46.96875 42.484375 53.71875 
Q 42.484375 61.078125 38.640625 65.234375 
Q 34.8125 69.390625 28.078125 69.390625 
Q 21.09375 69.390625 17.28125 65.921875 
Q 13.484375 62.453125 12.796875 55.515625 
z
" id="DejaVuSerif-32"/>
      </defs>
      <g style="fill:#262626;" transform="translate(118.608098 141.91075)scale(0.08 -0.08)">
       <use xlink:href="#DejaVuSerif-32"/>
       <use x="63.623047" xlink:href="#DejaVuSerif-30"/>
       <use x="127.246094" xlink:href="#DejaVuSerif-30"/>
      </g>
     </g>
    </g>
   </g>
   <g id="matplotlib.axis_2">
    <g id="ytick_1">
     <g id="line2d_7">
      <path clip-path="url(#p8e8f0f6034)" d="M 30.6125 130.232 
L 130.796936 130.232 
" style="fill:none;stroke:#ffffff;stroke-linecap:round;stroke-width:0.8;"/>
     </g>
     <g id="line2d_8"/>
     <g id="text_4">
      <!-- 0.00 -->
      <defs>
       <path d="M 9.421875 5.078125 
Q 9.421875 7.8125 11.28125 9.71875 
Q 13.140625 11.625 15.921875 11.625 
Q 18.609375 11.625 20.5 9.71875 
Q 22.40625 7.8125 22.40625 5.078125 
Q 22.40625 2.390625 20.5 0.484375 
Q 18.609375 -1.421875 15.921875 -1.421875 
Q 13.140625 -1.421875 11.28125 0.453125 
Q 9.421875 2.34375 9.421875 5.078125 
z
" id="DejaVuSerif-2e"/>
      </defs>
      <g style="fill:#262626;" transform="translate(7.2 133.271375)scale(0.08 -0.08)">
       <use xlink:href="#DejaVuSerif-30"/>
       <use x="63.623047" xlink:href="#DejaVuSerif-2e"/>
       <use x="95.410156" xlink:href="#DejaVuSerif-30"/>
       <use x="159.033203" xlink:href="#DejaVuSerif-30"/>
      </g>
     </g>
    </g>
    <g id="ytick_2">
     <g id="line2d_9">
      <path clip-path="url(#p8e8f0f6034)" d="M 30.6125 98.866589 
L 130.796936 98.866589 
" style="fill:none;stroke:#ffffff;stroke-linecap:round;stroke-width:0.8;"/>
     </g>
     <g id="line2d_10"/>
     <g id="text_5">
      <!-- 0.05 -->
      <defs>
       <path d="M 50.296875 72.90625 
L 50.296875 64.890625 
L 16.890625 64.890625 
L 16.890625 44 
Q 19.4375 45.75 22.828125 46.625 
Q 26.21875 47.515625 30.421875 47.515625 
Q 42.234375 47.515625 49.0625 40.96875 
Q 55.90625 34.421875 55.90625 23.09375 
Q 55.90625 11.53125 49 5.046875 
Q 42.09375 -1.421875 29.59375 -1.421875 
Q 24.5625 -1.421875 19.28125 -0.1875 
Q 14.015625 1.03125 8.5 3.515625 
L 8.5 17.671875 
L 14.015625 17.671875 
Q 14.453125 10.75 18.421875 7.078125 
Q 22.40625 3.421875 29.59375 3.421875 
Q 37.3125 3.421875 41.453125 8.5 
Q 45.609375 13.578125 45.609375 23.09375 
Q 45.609375 32.5625 41.484375 37.609375 
Q 37.359375 42.671875 29.59375 42.671875 
Q 25.203125 42.671875 21.84375 41.109375 
Q 18.5 39.546875 15.921875 36.28125 
L 11.71875 36.28125 
L 11.71875 72.90625 
z
" id="DejaVuSerif-35"/>
      </defs>
      <g style="fill:#262626;" transform="translate(7.2 101.905964)scale(0.08 -0.08)">
       <use xlink:href="#DejaVuSerif-30"/>
       <use x="63.623047" xlink:href="#DejaVuSerif-2e"/>
       <use x="95.410156" xlink:href="#DejaVuSerif-30"/>
       <use x="159.033203" xlink:href="#DejaVuSerif-35"/>
      </g>
     </g>
    </g>
    <g id="ytick_3">
     <g id="line2d_11">
      <path clip-path="url(#p8e8f0f6034)" d="M 30.6125 67.501178 
L 130.796936 67.501178 
" style="fill:none;stroke:#ffffff;stroke-linecap:round;stroke-width:0.8;"/>
     </g>
     <g id="line2d_12"/>
     <g id="text_6">
      <!-- 0.10 -->
      <g style="fill:#262626;" transform="translate(7.2 70.540553)scale(0.08 -0.08)">
       <use xlink:href="#DejaVuSerif-30"/>
       <use x="63.623047" xlink:href="#DejaVuSerif-2e"/>
       <use x="95.410156" xlink:href="#DejaVuSerif-31"/>
       <use x="159.033203" xlink:href="#DejaVuSerif-30"/>
      </g>
     </g>
    </g>
    <g id="ytick_4">
     <g id="line2d_13">
      <path clip-path="url(#p8e8f0f6034)" d="M 30.6125 36.135767 
L 130.796936 36.135767 
" style="fill:none;stroke:#ffffff;stroke-linecap:round;stroke-width:0.8;"/>
     </g>
     <g id="line2d_14"/>
     <g id="text_7">
      <!-- 0.15 -->
      <g style="fill:#262626;" transform="translate(7.2 39.175142)scale(0.08 -0.08)">
       <use xlink:href="#DejaVuSerif-30"/>
       <use x="63.623047" xlink:href="#DejaVuSerif-2e"/>
       <use x="95.410156" xlink:href="#DejaVuSerif-31"/>
       <use x="159.033203" xlink:href="#DejaVuSerif-35"/>
      </g>
     </g>
    </g>
   </g>
   <g id="line2d_15">
    <path clip-path="url(#p8e8f0f6034)" d="M 35.166338 68.866524 
L 39.720176 68.866524 
L 39.720176 39.744689 
L 44.274014 39.744689 
L 44.274014 38.171048 
L 48.827852 38.171048 
L 48.827852 49.315545 
L 53.38169 49.315545 
L 53.38169 63.967713 
L 57.935528 63.967713 
L 57.935528 77.91703 
L 62.489366 77.91703 
L 62.489366 89.697236 
L 67.043204 89.697236 
L 67.043204 99.092992 
L 71.597042 99.092992 
L 71.597042 106.369344 
L 76.15088 106.369344 
L 76.15088 111.920406 
L 80.704718 111.920406 
L 80.704718 116.126936 
L 85.258556 116.126936 
L 85.258556 119.309323 
L 89.812394 119.309323 
L 89.812394 121.720612 
L 94.366232 121.720612 
L 94.366232 123.554209 
L 98.92007 123.554209 
L 98.92007 124.955387 
L 103.473908 124.955387 
L 103.473908 126.03231 
L 108.027746 126.03231 
L 108.027746 126.865231 
L 112.581584 126.865231 
L 112.581584 127.513684 
L 117.135422 127.513684 
L 117.135422 128.021925 
L 121.68926 128.021925 
L 121.68926 128.422964 
L 126.243098 128.422964 
L 126.243098 119.978676 
" style="fill:none;stroke:#4c72b0;stroke-linecap:round;stroke-width:1.4;"/>
   </g>
   <g id="line2d_16">
    <path clip-path="url(#p8e8f0f6034)" d="M 35.166338 68.866524 
L 39.720176 68.866524 
L 39.720176 39.744689 
L 44.274014 39.744689 
L 44.274014 38.171048 
L 48.827852 38.171048 
L 48.827852 49.315545 
L 53.38169 49.315545 
L 53.38169 63.967713 
L 57.935528 63.967713 
L 57.935528 77.91703 
L 62.489366 77.91703 
L 62.489366 89.697236 
L 67.043204 89.697236 
L 67.043204 99.092992 
L 71.597042 99.092992 
L 71.597042 106.369344 
L 76.15088 106.369344 
L 76.15088 111.920406 
L 80.704718 111.920406 
L 80.704718 116.126936 
L 85.258556 116.126936 
L 85.258556 119.309323 
L 89.812394 119.309323 
L 89.812394 121.720612 
L 94.366232 121.720612 
L 94.366232 123.554209 
L 98.92007 123.554209 
L 98.92007 124.955387 
L 103.473908 124.955387 
L 103.473908 126.03231 
L 108.027746 126.03231 
L 108.027746 126.865231 
L 112.581584 126.865231 
L 112.581584 127.513684 
L 117.135422 127.513684 
L 117.135422 128.021925 
L 121.68926 128.021925 
L 121.68926 128.422964 
L 126.243098 128.422964 
L 126.243098 119.978676 
" style="fill:none;stroke:#55a868;stroke-linecap:round;stroke-width:1.4;"/>
   </g>
   <g id="patch_3">
    <path d="M 30.6125 130.232 
L 30.6125 33.568 
" style="fill:none;"/>
   </g>
   <g id="patch_4">
    <path d="M 130.796936 130.232 
L 130.796936 33.568 
" style="fill:none;"/>
   </g>
   <g id="patch_5">
    <path d="M 30.6125 130.232 
L 130.796936 130.232 
" style="fill:none;"/>
   </g>
   <g id="patch_6">
    <path d="M 30.6125 33.568 
L 130.796936 33.568 
" style="fill:none;"/>
   </g>
   <g id="text_8">
    <!-- Density -->
    <defs>
     <path d="M 24.703125 5.171875 
L 33.796875 5.171875 
Q 48 5.171875 55.59375 13.28125 
Q 63.1875 21.390625 63.1875 36.53125 
Q 63.1875 51.65625 55.609375 59.65625 
Q 48.046875 67.671875 33.796875 67.671875 
L 24.703125 67.671875 
z
M 5.515625 0 
L 5.515625 5.171875 
L 14.796875 5.171875 
L 14.796875 67.671875 
L 5.515625 67.671875 
L 5.515625 72.90625 
L 34.515625 72.90625 
Q 53.375 72.90625 63.890625 63.28125 
Q 74.421875 53.65625 74.421875 36.53125 
Q 74.421875 19.34375 63.875 9.671875 
Q 53.328125 0 34.515625 0 
z
" id="DejaVuSerif-44"/>
     <path d="M 54.203125 25 
L 15.484375 25 
L 15.484375 24.609375 
Q 15.484375 14.109375 19.4375 8.765625 
Q 23.390625 3.421875 31.109375 3.421875 
Q 37.015625 3.421875 40.796875 6.515625 
Q 44.578125 9.625 46.09375 15.71875 
L 53.328125 15.71875 
Q 51.171875 7.171875 45.375 2.875 
Q 39.59375 -1.421875 30.171875 -1.421875 
Q 18.796875 -1.421875 11.890625 6.078125 
Q 4.984375 13.578125 4.984375 25.984375 
Q 4.984375 38.28125 11.765625 45.796875 
Q 18.5625 53.328125 29.59375 53.328125 
Q 41.359375 53.328125 47.65625 46.0625 
Q 53.953125 38.8125 54.203125 25 
z
M 43.609375 30.171875 
Q 43.3125 39.265625 39.765625 43.875 
Q 36.234375 48.484375 29.59375 48.484375 
Q 23.390625 48.484375 19.828125 43.84375 
Q 16.265625 39.203125 15.484375 30.171875 
z
" id="DejaVuSerif-65"/>
     <path d="M 4.109375 0 
L 4.109375 5.171875 
L 12.203125 5.171875 
L 12.203125 46.6875 
L 3.609375 46.6875 
L 3.609375 51.90625 
L 21.1875 51.90625 
L 21.1875 42.671875 
Q 23.6875 47.953125 27.65625 50.640625 
Q 31.640625 53.328125 36.921875 53.328125 
Q 45.515625 53.328125 49.5625 48.390625 
Q 53.609375 43.453125 53.609375 33.015625 
L 53.609375 5.171875 
L 61.625 5.171875 
L 61.625 0 
L 36.8125 0 
L 36.8125 5.171875 
L 44.578125 5.171875 
L 44.578125 30.171875 
Q 44.578125 39.703125 42.234375 43.234375 
Q 39.890625 46.78125 33.984375 46.78125 
Q 27.734375 46.78125 24.453125 42.203125 
Q 21.1875 37.640625 21.1875 28.90625 
L 21.1875 5.171875 
L 29 5.171875 
L 29 0 
z
" id="DejaVuSerif-6e"/>
     <path d="M 5.609375 2.875 
L 5.609375 14.984375 
L 10.796875 14.984375 
Q 10.984375 9.1875 14.421875 6.296875 
Q 17.875 3.421875 24.609375 3.421875 
Q 30.671875 3.421875 33.84375 5.6875 
Q 37.015625 7.953125 37.015625 12.3125 
Q 37.015625 15.71875 34.6875 17.8125 
Q 32.375 19.921875 24.90625 22.3125 
L 18.40625 24.515625 
Q 11.71875 26.65625 8.71875 29.875 
Q 5.71875 33.109375 5.71875 38.09375 
Q 5.71875 45.21875 10.9375 49.265625 
Q 16.15625 53.328125 25.390625 53.328125 
Q 29.5 53.328125 34.03125 52.25 
Q 38.578125 51.171875 43.40625 49.125 
L 43.40625 37.796875 
L 38.234375 37.796875 
Q 38.03125 42.828125 34.703125 45.65625 
Q 31.390625 48.484375 25.6875 48.484375 
Q 20.015625 48.484375 17.109375 46.484375 
Q 14.203125 44.484375 14.203125 40.484375 
Q 14.203125 37.203125 16.40625 35.21875 
Q 18.609375 33.25 25.203125 31.203125 
L 32.328125 29 
Q 39.703125 26.703125 42.9375 23.265625 
Q 46.1875 19.828125 46.1875 14.40625 
Q 46.1875 7.03125 40.546875 2.796875 
Q 34.90625 -1.421875 25 -1.421875 
Q 19.96875 -1.421875 15.1875 -0.34375 
Q 10.40625 0.734375 5.609375 2.875 
z
" id="DejaVuSerif-73"/>
     <path d="M 9.71875 68.015625 
Q 9.71875 70.265625 11.34375 71.921875 
Q 12.984375 73.578125 15.28125 73.578125 
Q 17.53125 73.578125 19.15625 71.921875 
Q 20.796875 70.265625 20.796875 68.015625 
Q 20.796875 65.71875 19.1875 64.109375 
Q 17.578125 62.5 15.28125 62.5 
Q 12.984375 62.5 11.34375 64.109375 
Q 9.71875 65.71875 9.71875 68.015625 
z
M 21.1875 5.171875 
L 29.6875 5.171875 
L 29.6875 0 
L 3.609375 0 
L 3.609375 5.171875 
L 12.203125 5.171875 
L 12.203125 46.6875 
L 3.609375 46.6875 
L 3.609375 51.90625 
L 21.1875 51.90625 
z
" id="DejaVuSerif-69"/>
     <path d="M 10.796875 46.6875 
L 2.875 46.6875 
L 2.875 51.90625 
L 10.796875 51.90625 
L 10.796875 68.015625 
L 19.828125 68.015625 
L 19.828125 51.90625 
L 36.71875 51.90625 
L 36.71875 46.6875 
L 19.828125 46.6875 
L 19.828125 13.71875 
Q 19.828125 7.125 21.09375 5.265625 
Q 22.359375 3.421875 25.78125 3.421875 
Q 29.296875 3.421875 30.90625 5.484375 
Q 32.515625 7.5625 32.625 12.203125 
L 39.40625 12.203125 
Q 39.015625 5.125 35.546875 1.84375 
Q 32.078125 -1.421875 25 -1.421875 
Q 17.234375 -1.421875 14.015625 2.015625 
Q 10.796875 5.46875 10.796875 13.71875 
z
" id="DejaVuSerif-74"/>
     <path d="M 21.578125 -9.515625 
L 25 -0.875 
L 5.609375 46.6875 
L -0.296875 46.6875 
L -0.296875 51.90625 
L 23.578125 51.90625 
L 23.578125 46.6875 
L 15.28125 46.6875 
L 29.890625 10.984375 
L 44.484375 46.6875 
L 36.71875 46.6875 
L 36.71875 51.90625 
L 56.203125 51.90625 
L 56.203125 46.6875 
L 50.390625 46.6875 
L 26.609375 -11.71875 
Q 24.171875 -17.78125 21.1875 -20 
Q 18.21875 -22.21875 12.796875 -22.21875 
Q 10.5 -22.21875 8.078125 -21.828125 
Q 5.671875 -21.4375 3.21875 -20.703125 
L 3.21875 -10.796875 
L 7.8125 -10.796875 
Q 8.109375 -14.109375 9.5 -15.546875 
Q 10.890625 -17 13.8125 -17 
Q 16.5 -17 18.140625 -15.5 
Q 19.78125 -14.015625 21.578125 -9.515625 
z
" id="DejaVuSerif-79"/>
    </defs>
    <g style="fill:#262626;" transform="translate(62.284718 27.568)scale(0.096 -0.096)">
     <use xlink:href="#DejaVuSerif-44"/>
     <use x="80.175781" xlink:href="#DejaVuSerif-65"/>
     <use x="139.355469" xlink:href="#DejaVuSerif-6e"/>
     <use x="203.759766" xlink:href="#DejaVuSerif-73"/>
     <use x="255.078125" xlink:href="#DejaVuSerif-69"/>
     <use x="287.060547" xlink:href="#DejaVuSerif-74"/>
     <use x="327.246094" xlink:href="#DejaVuSerif-79"/>
    </g>
   </g>
   <g id="legend_1">
    <g id="line2d_17">
     <path d="M 86.184436 44.04675 
L 102.184436 44.04675 
" style="fill:none;stroke:#4c72b0;stroke-linecap:round;stroke-width:1.4;"/>
    </g>
    <g id="line2d_18"/>
    <g id="text_9">
     <!-- agg -->
     <defs>
      <path d="M 39.796875 16.3125 
L 39.796875 27.296875 
L 28.21875 27.296875 
Q 21.53125 27.296875 18.25 24.40625 
Q 14.984375 21.53125 14.984375 15.578125 
Q 14.984375 10.15625 18.296875 6.984375 
Q 21.625 3.8125 27.296875 3.8125 
Q 32.90625 3.8125 36.34375 7.28125 
Q 39.796875 10.75 39.796875 16.3125 
z
M 48.78125 32.421875 
L 48.78125 5.171875 
L 56.78125 5.171875 
L 56.78125 0 
L 39.796875 0 
L 39.796875 5.609375 
Q 36.8125 2 32.90625 0.28125 
Q 29 -1.421875 23.78125 -1.421875 
Q 15.140625 -1.421875 10.0625 3.171875 
Q 4.984375 7.765625 4.984375 15.578125 
Q 4.984375 23.640625 10.796875 28.078125 
Q 16.609375 32.515625 27.203125 32.515625 
L 39.796875 32.515625 
L 39.796875 36.078125 
Q 39.796875 42 36.203125 45.234375 
Q 32.625 48.484375 26.125 48.484375 
Q 20.75 48.484375 17.578125 46.046875 
Q 14.40625 43.609375 13.625 38.8125 
L 8.984375 38.8125 
L 8.984375 49.3125 
Q 13.671875 51.3125 18.09375 52.3125 
Q 22.515625 53.328125 26.703125 53.328125 
Q 37.5 53.328125 43.140625 47.96875 
Q 48.78125 42.625 48.78125 32.421875 
z
" id="DejaVuSerif-61"/>
      <path d="M 52.484375 46.6875 
L 52.484375 1.125 
Q 52.484375 -10.0625 46.328125 -16.140625 
Q 40.1875 -22.21875 28.8125 -22.21875 
Q 23.6875 -22.21875 19 -21.28125 
Q 14.3125 -20.359375 10.015625 -18.5 
L 10.015625 -7.625 
L 14.703125 -7.625 
Q 15.578125 -12.703125 18.84375 -15.046875 
Q 22.125 -17.390625 28.21875 -17.390625 
Q 36.140625 -17.390625 39.8125 -12.921875 
Q 43.5 -8.453125 43.5 1.125 
L 43.5 8.109375 
Q 40.875 3.21875 36.796875 0.890625 
Q 32.71875 -1.421875 26.703125 -1.421875 
Q 17.140625 -1.421875 11.0625 6.171875 
Q 4.984375 13.765625 4.984375 25.984375 
Q 4.984375 38.1875 11.03125 45.75 
Q 17.09375 53.328125 26.703125 53.328125 
Q 32.71875 53.328125 36.796875 51 
Q 40.875 48.6875 43.5 43.796875 
L 43.5 51.90625 
L 61.078125 51.90625 
L 61.078125 46.6875 
z
M 43.5 28.515625 
Q 43.5 37.84375 39.90625 42.765625 
Q 36.328125 47.703125 29.5 47.703125 
Q 22.5625 47.703125 19.015625 42.234375 
Q 15.484375 36.765625 15.484375 25.984375 
Q 15.484375 15.234375 19.015625 9.71875 
Q 22.5625 4.203125 29.5 4.203125 
Q 36.328125 4.203125 39.90625 9.109375 
Q 43.5 14.015625 43.5 23.390625 
z
" id="DejaVuSerif-67"/>
     </defs>
     <g style="fill:#262626;" transform="translate(108.584436 46.84675)scale(0.08 -0.08)">
      <use xlink:href="#DejaVuSerif-61"/>
      <use x="59.619141" xlink:href="#DejaVuSerif-67"/>
      <use x="123.632812" xlink:href="#DejaVuSerif-67"/>
     </g>
    </g>
    <g id="line2d_19">
     <path d="M 86.184436 55.903 
L 102.184436 55.903 
" style="fill:none;stroke:#55a868;stroke-linecap:round;stroke-width:1.4;"/>
    </g>
    <g id="line2d_20"/>
    <g id="text_10">
     <!-- sev -->
     <defs>
      <path d="M 24.703125 0 
L 5.609375 46.6875 
L -0.296875 46.6875 
L -0.296875 51.90625 
L 23.578125 51.90625 
L 23.578125 46.6875 
L 15.28125 46.6875 
L 29.890625 10.984375 
L 44.484375 46.6875 
L 36.71875 46.6875 
L 36.71875 51.90625 
L 56.203125 51.90625 
L 56.203125 46.6875 
L 50.390625 46.6875 
L 31.296875 0 
z
" id="DejaVuSerif-76"/>
     </defs>
     <g style="fill:#262626;" transform="translate(108.584436 58.703)scale(0.08 -0.08)">
      <use xlink:href="#DejaVuSerif-73"/>
      <use x="51.318359" xlink:href="#DejaVuSerif-65"/>
      <use x="110.498047" xlink:href="#DejaVuSerif-76"/>
     </g>
    </g>
   </g>
  </g>
  <g id="axes_2">
   <g id="patch_7">
    <path d="M 169.809 130.232 
L 269.993436 130.232 
L 269.993436 33.568 
L 169.809 33.568 
z
" style="fill:#eaeaf2;"/>
   </g>
   <g id="matplotlib.axis_3">
    <g id="xtick_4">
     <g id="line2d_21">
      <path clip-path="url(#pc4e54a8134)" d="M 174.362838 130.232 
L 174.362838 33.568 
" style="fill:none;stroke:#ffffff;stroke-linecap:round;stroke-width:0.8;"/>
     </g>
     <g id="line2d_22"/>
     <g id="text_11">
      <!-- 0 -->
      <g style="fill:#262626;" transform="translate(171.817838 141.91075)scale(0.08 -0.08)">
       <use xlink:href="#DejaVuSerif-30"/>
      </g>
     </g>
    </g>
    <g id="xtick_5">
     <g id="line2d_23">
      <path clip-path="url(#pc4e54a8134)" d="M 219.901218 130.232 
L 219.901218 33.568 
" style="fill:none;stroke:#ffffff;stroke-linecap:round;stroke-width:0.8;"/>
     </g>
     <g id="line2d_24"/>
     <g id="text_12">
      <!-- 100 -->
      <g style="fill:#262626;" transform="translate(212.266218 141.91075)scale(0.08 -0.08)">
       <use xlink:href="#DejaVuSerif-31"/>
       <use x="63.623047" xlink:href="#DejaVuSerif-30"/>
       <use x="127.246094" xlink:href="#DejaVuSerif-30"/>
      </g>
     </g>
    </g>
    <g id="xtick_6">
     <g id="line2d_25">
      <path clip-path="url(#pc4e54a8134)" d="M 265.439598 130.232 
L 265.439598 33.568 
" style="fill:none;stroke:#ffffff;stroke-linecap:round;stroke-width:0.8;"/>
     </g>
     <g id="line2d_26"/>
     <g id="text_13">
      <!-- 200 -->
      <g style="fill:#262626;" transform="translate(257.804598 141.91075)scale(0.08 -0.08)">
       <use xlink:href="#DejaVuSerif-32"/>
       <use x="63.623047" xlink:href="#DejaVuSerif-30"/>
       <use x="127.246094" xlink:href="#DejaVuSerif-30"/>
      </g>
     </g>
    </g>
   </g>
   <g id="matplotlib.axis_4">
    <g id="ytick_5">
     <g id="line2d_27">
      <path clip-path="url(#pc4e54a8134)" d="M 169.809 98.031185 
L 269.993436 98.031185 
" style="fill:none;stroke:#ffffff;stroke-linecap:round;stroke-width:0.8;"/>
     </g>
     <g id="line2d_28"/>
     <g id="text_14">
      <!-- $\mathdefault{10^{-2}}$ -->
      <defs>
       <path d="M 10.59375 35.296875 
L 73.1875 35.296875 
L 73.1875 27.390625 
L 10.59375 27.390625 
z
" id="DejaVuSerif-2212"/>
      </defs>
      <g style="fill:#262626;" transform="translate(145.489 101.07056)scale(0.08 -0.08)">
       <use transform="translate(0 0.7125)" xlink:href="#DejaVuSerif-31"/>
       <use transform="translate(63.623047 0.7125)" xlink:href="#DejaVuSerif-30"/>
       <use transform="translate(128.154453 37.046875)scale(0.7)" xlink:href="#DejaVuSerif-2212"/>
       <use transform="translate(186.806797 37.046875)scale(0.7)" xlink:href="#DejaVuSerif-32"/>
      </g>
     </g>
    </g>
    <g id="ytick_6">
     <g id="line2d_29">
      <path clip-path="url(#pc4e54a8134)" d="M 169.809 46.539971 
L 269.993436 46.539971 
" style="fill:none;stroke:#ffffff;stroke-linecap:round;stroke-width:0.8;"/>
     </g>
     <g id="line2d_30"/>
     <g id="text_15">
      <!-- $\mathdefault{10^{-1}}$ -->
      <g style="fill:#262626;" transform="translate(145.489 49.579346)scale(0.08 -0.08)">
       <use transform="translate(0 0.7125)" xlink:href="#DejaVuSerif-31"/>
       <use transform="translate(63.623047 0.7125)" xlink:href="#DejaVuSerif-30"/>
       <use transform="translate(128.154453 37.046875)scale(0.7)" xlink:href="#DejaVuSerif-2212"/>
       <use transform="translate(186.806797 37.046875)scale(0.7)" xlink:href="#DejaVuSerif-31"/>
      </g>
     </g>
    </g>
    <g id="ytick_7">
     <g id="line2d_31"/>
    </g>
    <g id="ytick_8">
     <g id="line2d_32"/>
    </g>
    <g id="ytick_9">
     <g id="line2d_33"/>
    </g>
    <g id="ytick_10">
     <g id="line2d_34"/>
    </g>
    <g id="ytick_11">
     <g id="line2d_35"/>
    </g>
    <g id="ytick_12">
     <g id="line2d_36"/>
    </g>
    <g id="ytick_13">
     <g id="line2d_37"/>
    </g>
    <g id="ytick_14">
     <g id="line2d_38"/>
    </g>
    <g id="ytick_15">
     <g id="line2d_39"/>
    </g>
    <g id="ytick_16">
     <g id="line2d_40"/>
    </g>
    <g id="ytick_17">
     <g id="line2d_41"/>
    </g>
    <g id="ytick_18">
     <g id="line2d_42"/>
    </g>
    <g id="ytick_19">
     <g id="line2d_43"/>
    </g>
    <g id="ytick_20">
     <g id="line2d_44"/>
    </g>
    <g id="ytick_21">
     <g id="line2d_45"/>
    </g>
   </g>
   <g id="line2d_46">
    <path clip-path="url(#pc4e54a8134)" d="M 174.362838 47.032065 
L 178.916676 38.347373 
L 183.470514 37.961818 
L 188.024352 40.847315 
L 192.57819 45.314554 
L 197.132028 50.60031 
L 201.685866 56.305451 
L 206.239704 62.202373 
L 210.793542 68.154036 
L 215.34738 74.075146 
L 219.901218 79.911731 
L 224.455056 85.629624 
L 229.008894 91.2076 
L 233.562732 96.633105 
L 238.11657 101.899502 
L 242.670408 107.004238 
L 247.224246 111.947595 
L 251.778084 116.73182 
L 256.331922 121.360514 
L 260.88576 125.838182 
L 265.439598 87.043798 
" style="fill:none;stroke:#4c72b0;stroke-linecap:round;stroke-width:1.4;"/>
   </g>
   <g id="line2d_47">
    <path clip-path="url(#pc4e54a8134)" d="M 174.362838 47.032065 
L 178.916676 38.347373 
L 183.470514 37.961818 
L 188.024352 40.847315 
L 192.57819 45.314554 
L 197.132028 50.60031 
L 201.685866 56.305451 
L 206.239704 62.202373 
L 210.793542 68.154036 
L 215.34738 74.075146 
L 219.901218 79.911731 
L 224.455056 85.629624 
L 229.008894 91.2076 
L 233.562732 96.633105 
L 238.11657 101.899502 
L 242.670408 107.004238 
L 247.224246 111.947595 
L 251.778084 116.73182 
L 256.331922 121.360514 
L 260.88576 125.838182 
L 265.439598 87.043798 
" style="fill:none;stroke:#55a868;stroke-linecap:round;stroke-width:1.4;"/>
   </g>
   <g id="patch_8">
    <path d="M 169.809 130.232 
L 169.809 33.568 
" style="fill:none;"/>
   </g>
   <g id="patch_9">
    <path d="M 269.993436 130.232 
L 269.993436 33.568 
" style="fill:none;"/>
   </g>
   <g id="patch_10">
    <path d="M 169.809 130.232 
L 269.993436 130.232 
" style="fill:none;"/>
   </g>
   <g id="patch_11">
    <path d="M 169.809 33.568 
L 269.993436 33.568 
" style="fill:none;"/>
   </g>
   <g id="text_16">
    <!-- Log Density -->
    <defs>
     <path d="M 5.515625 0 
L 5.515625 5.171875 
L 14.796875 5.171875 
L 14.796875 67.671875 
L 5.515625 67.671875 
L 5.515625 72.90625 
L 33.984375 72.90625 
L 33.984375 67.671875 
L 24.703125 67.671875 
L 24.703125 6 
L 58.015625 6 
L 58.015625 18.21875 
L 64.015625 18.21875 
L 64.015625 0 
z
" id="DejaVuSerif-4c"/>
     <path d="M 30.078125 3.421875 
Q 37.3125 3.421875 40.984375 9.125 
Q 44.671875 14.84375 44.671875 25.984375 
Q 44.671875 37.109375 40.984375 42.796875 
Q 37.3125 48.484375 30.078125 48.484375 
Q 22.859375 48.484375 19.171875 42.796875 
Q 15.484375 37.109375 15.484375 25.984375 
Q 15.484375 14.84375 19.1875 9.125 
Q 22.90625 3.421875 30.078125 3.421875 
z
M 30.078125 -1.421875 
Q 18.75 -1.421875 11.859375 6.078125 
Q 4.984375 13.578125 4.984375 25.984375 
Q 4.984375 38.375 11.84375 45.84375 
Q 18.703125 53.328125 30.078125 53.328125 
Q 41.453125 53.328125 48.3125 45.84375 
Q 55.171875 38.375 55.171875 25.984375 
Q 55.171875 13.578125 48.3125 6.078125 
Q 41.453125 -1.421875 30.078125 -1.421875 
z
" id="DejaVuSerif-6f"/>
     <path id="DejaVuSerif-20"/>
    </defs>
    <g style="fill:#262626;" transform="translate(190.805718 27.568)scale(0.096 -0.096)">
     <use xlink:href="#DejaVuSerif-4c"/>
     <use x="66.40625" xlink:href="#DejaVuSerif-6f"/>
     <use x="126.611328" xlink:href="#DejaVuSerif-67"/>
     <use x="190.625" xlink:href="#DejaVuSerif-20"/>
     <use x="222.412109" xlink:href="#DejaVuSerif-44"/>
     <use x="302.587891" xlink:href="#DejaVuSerif-65"/>
     <use x="361.767578" xlink:href="#DejaVuSerif-6e"/>
     <use x="426.171875" xlink:href="#DejaVuSerif-73"/>
     <use x="477.490234" xlink:href="#DejaVuSerif-69"/>
     <use x="509.472656" xlink:href="#DejaVuSerif-74"/>
     <use x="549.658203" xlink:href="#DejaVuSerif-79"/>
    </g>
   </g>
   <g id="legend_2">
    <g id="line2d_48">
     <path d="M 225.380936 44.04675 
L 241.380936 44.04675 
" style="fill:none;stroke:#4c72b0;stroke-linecap:round;stroke-width:1.4;"/>
    </g>
    <g id="line2d_49"/>
    <g id="text_17">
     <!-- agg -->
     <g style="fill:#262626;" transform="translate(247.780936 46.84675)scale(0.08 -0.08)">
      <use xlink:href="#DejaVuSerif-61"/>
      <use x="59.619141" xlink:href="#DejaVuSerif-67"/>
      <use x="123.632812" xlink:href="#DejaVuSerif-67"/>
     </g>
    </g>
    <g id="line2d_50">
     <path d="M 225.380936 55.903 
L 241.380936 55.903 
" style="fill:none;stroke:#55a868;stroke-linecap:round;stroke-width:1.4;"/>
    </g>
    <g id="line2d_51"/>
    <g id="text_18">
     <!-- sev -->
     <g style="fill:#262626;" transform="translate(247.780936 58.703)scale(0.08 -0.08)">
      <use xlink:href="#DejaVuSerif-73"/>
      <use x="51.318359" xlink:href="#DejaVuSerif-65"/>
      <use x="110.498047" xlink:href="#DejaVuSerif-76"/>
     </g>
    </g>
   </g>
  </g>
  <g id="axes_3">
   <g id="patch_12">
    <path d="M 309.0055 130.232 
L 409.189936 130.232 
L 409.189936 33.568 
L 309.0055 33.568 
z
" style="fill:#eaeaf2;"/>
   </g>
   <g id="matplotlib.axis_5">
    <g id="xtick_7">
     <g id="line2d_52">
      <path clip-path="url(#pc183ccc741)" d="M 328.921901 130.232 
L 328.921901 33.568 
" style="fill:none;stroke:#ffffff;stroke-linecap:round;stroke-width:0.8;"/>
     </g>
     <g id="line2d_53"/>
     <g id="text_19">
      <!-- 0.25 -->
      <g style="fill:#262626;" transform="translate(320.015651 141.91075)scale(0.08 -0.08)">
       <use xlink:href="#DejaVuSerif-30"/>
       <use x="63.623047" xlink:href="#DejaVuSerif-2e"/>
       <use x="95.410156" xlink:href="#DejaVuSerif-32"/>
       <use x="159.033203" xlink:href="#DejaVuSerif-35"/>
      </g>
     </g>
    </g>
    <g id="xtick_8">
     <g id="line2d_54">
      <path clip-path="url(#pc183ccc741)" d="M 354.159967 130.232 
L 354.159967 33.568 
" style="fill:none;stroke:#ffffff;stroke-linecap:round;stroke-width:0.8;"/>
     </g>
     <g id="line2d_55"/>
     <g id="text_20">
      <!-- 0.50 -->
      <g style="fill:#262626;" transform="translate(345.253717 141.91075)scale(0.08 -0.08)">
       <use xlink:href="#DejaVuSerif-30"/>
       <use x="63.623047" xlink:href="#DejaVuSerif-2e"/>
       <use x="95.410156" xlink:href="#DejaVuSerif-35"/>
       <use x="159.033203" xlink:href="#DejaVuSerif-30"/>
      </g>
     </g>
    </g>
    <g id="xtick_9">
     <g id="line2d_56">
      <path clip-path="url(#pc183ccc741)" d="M 379.398032 130.232 
L 379.398032 33.568 
" style="fill:none;stroke:#ffffff;stroke-linecap:round;stroke-width:0.8;"/>
     </g>
     <g id="line2d_57"/>
     <g id="text_21">
      <!-- 0.75 -->
      <defs>
       <path d="M 56.390625 67.921875 
L 27.875 0 
L 20.609375 0 
L 47.796875 64.890625 
L 14.109375 64.890625 
L 14.109375 55.90625 
L 8.40625 55.90625 
L 8.40625 72.90625 
L 56.390625 72.90625 
z
" id="DejaVuSerif-37"/>
      </defs>
      <g style="fill:#262626;" transform="translate(370.491782 141.91075)scale(0.08 -0.08)">
       <use xlink:href="#DejaVuSerif-30"/>
       <use x="63.623047" xlink:href="#DejaVuSerif-2e"/>
       <use x="95.410156" xlink:href="#DejaVuSerif-37"/>
       <use x="159.033203" xlink:href="#DejaVuSerif-35"/>
      </g>
     </g>
    </g>
    <g id="xtick_10">
     <g id="line2d_58">
      <path clip-path="url(#pc183ccc741)" d="M 404.636098 130.232 
L 404.636098 33.568 
" style="fill:none;stroke:#ffffff;stroke-linecap:round;stroke-width:0.8;"/>
     </g>
     <g id="line2d_59"/>
     <g id="text_22">
      <!-- 1.00 -->
      <g style="fill:#262626;" transform="translate(395.729848 141.91075)scale(0.08 -0.08)">
       <use xlink:href="#DejaVuSerif-31"/>
       <use x="63.623047" xlink:href="#DejaVuSerif-2e"/>
       <use x="95.410156" xlink:href="#DejaVuSerif-30"/>
       <use x="159.033203" xlink:href="#DejaVuSerif-30"/>
      </g>
     </g>
    </g>
   </g>
   <g id="matplotlib.axis_6">
    <g id="ytick_22">
     <g id="line2d_60">
      <path clip-path="url(#pc183ccc741)" d="M 309.0055 125.838182 
L 409.189936 125.838182 
" style="fill:none;stroke:#ffffff;stroke-linecap:round;stroke-width:0.8;"/>
     </g>
     <g id="line2d_61"/>
     <g id="text_23">
      <!-- 0 -->
      <g style="fill:#262626;" transform="translate(298.3155 128.877557)scale(0.08 -0.08)">
       <use xlink:href="#DejaVuSerif-30"/>
      </g>
     </g>
    </g>
    <g id="ytick_23">
     <g id="line2d_62">
      <path clip-path="url(#pc183ccc741)" d="M 309.0055 103.869091 
L 409.189936 103.869091 
" style="fill:none;stroke:#ffffff;stroke-linecap:round;stroke-width:0.8;"/>
     </g>
     <g id="line2d_63"/>
     <g id="text_24">
      <!-- 50 -->
      <g style="fill:#262626;" transform="translate(293.2255 106.908466)scale(0.08 -0.08)">
       <use xlink:href="#DejaVuSerif-35"/>
       <use x="63.623047" xlink:href="#DejaVuSerif-30"/>
      </g>
     </g>
    </g>
    <g id="ytick_24">
     <g id="line2d_64">
      <path clip-path="url(#pc183ccc741)" d="M 309.0055 81.9 
L 409.189936 81.9 
" style="fill:none;stroke:#ffffff;stroke-linecap:round;stroke-width:0.8;"/>
     </g>
     <g id="line2d_65"/>
     <g id="text_25">
      <!-- 100 -->
      <g style="fill:#262626;" transform="translate(288.1355 84.939375)scale(0.08 -0.08)">
       <use xlink:href="#DejaVuSerif-31"/>
       <use x="63.623047" xlink:href="#DejaVuSerif-30"/>
       <use x="127.246094" xlink:href="#DejaVuSerif-30"/>
      </g>
     </g>
    </g>
    <g id="ytick_25">
     <g id="line2d_66">
      <path clip-path="url(#pc183ccc741)" d="M 309.0055 59.930909 
L 409.189936 59.930909 
" style="fill:none;stroke:#ffffff;stroke-linecap:round;stroke-width:0.8;"/>
     </g>
     <g id="line2d_67"/>
     <g id="text_26">
      <!-- 150 -->
      <g style="fill:#262626;" transform="translate(288.1355 62.970284)scale(0.08 -0.08)">
       <use xlink:href="#DejaVuSerif-31"/>
       <use x="63.623047" xlink:href="#DejaVuSerif-35"/>
       <use x="127.246094" xlink:href="#DejaVuSerif-30"/>
      </g>
     </g>
    </g>
    <g id="ytick_26">
     <g id="line2d_68">
      <path clip-path="url(#pc183ccc741)" d="M 309.0055 37.961818 
L 409.189936 37.961818 
" style="fill:none;stroke:#ffffff;stroke-linecap:round;stroke-width:0.8;"/>
     </g>
     <g id="line2d_69"/>
     <g id="text_27">
      <!-- 200 -->
      <g style="fill:#262626;" transform="translate(288.1355 41.001193)scale(0.08 -0.08)">
       <use xlink:href="#DejaVuSerif-32"/>
       <use x="63.623047" xlink:href="#DejaVuSerif-30"/>
       <use x="127.246094" xlink:href="#DejaVuSerif-30"/>
      </g>
     </g>
    </g>
   </g>
   <g id="line2d_70">
    <path clip-path="url(#pc183ccc741)" d="M 313.559338 125.838182 
L 328.121396 121.444364 
L 342.936699 117.050545 
L 355.958526 112.656727 
L 366.622391 108.262909 
L 375.041401 103.869091 
L 381.564632 99.475273 
L 386.57581 95.081455 
L 390.41601 90.687636 
L 393.362882 86.293818 
L 395.6328 81.9 
L 397.390578 77.506182 
L 398.76031 73.112364 
L 399.834962 68.718545 
L 400.684124 64.324727 
L 401.359977 59.930909 
L 401.901788 55.537091 
L 402.339245 51.143273 
L 402.694911 46.749455 
L 402.986038 42.355636 
L 404.636098 37.961818 
" style="fill:none;stroke:#4c72b0;stroke-linecap:round;stroke-width:1.4;"/>
   </g>
   <g id="line2d_71">
    <path clip-path="url(#pc183ccc741)" d="M 313.559338 125.838182 
L 328.121396 121.444364 
L 342.936699 117.050545 
L 355.958526 112.656727 
L 366.622391 108.262909 
L 375.041401 103.869091 
L 381.564632 99.475273 
L 386.57581 95.081455 
L 390.41601 90.687636 
L 393.362882 86.293818 
L 395.6328 81.9 
L 397.390578 77.506182 
L 398.76031 73.112364 
L 399.834962 68.718545 
L 400.684124 64.324727 
L 401.359977 59.930909 
L 401.901788 55.537091 
L 402.339245 51.143273 
L 402.694911 46.749455 
L 402.986038 42.355636 
L 404.636098 37.961818 
" style="fill:none;stroke:#55a868;stroke-linecap:round;stroke-width:1.4;"/>
   </g>
   <g id="patch_13">
    <path d="M 309.0055 130.232 
L 309.0055 33.568 
" style="fill:none;"/>
   </g>
   <g id="patch_14">
    <path d="M 409.189936 130.232 
L 409.189936 33.568 
" style="fill:none;"/>
   </g>
   <g id="patch_15">
    <path d="M 309.0055 130.232 
L 409.189936 130.232 
" style="fill:none;"/>
   </g>
   <g id="patch_16">
    <path d="M 309.0055 33.568 
L 409.189936 33.568 
" style="fill:none;"/>
   </g>
   <g id="text_28">
    <!-- Lee Diagram -->
    <defs>
     <path d="M 47.796875 52 
L 47.796875 39.015625 
L 42.625 39.015625 
Q 42.390625 42.875 40.484375 44.78125 
Q 38.578125 46.6875 34.90625 46.6875 
Q 28.265625 46.6875 24.71875 42.09375 
Q 21.1875 37.5 21.1875 28.90625 
L 21.1875 5.171875 
L 31.59375 5.171875 
L 31.59375 0 
L 4.109375 0 
L 4.109375 5.171875 
L 12.203125 5.171875 
L 12.203125 46.78125 
L 3.609375 46.78125 
L 3.609375 51.90625 
L 21.1875 51.90625 
L 21.1875 42.671875 
Q 23.828125 48.09375 27.96875 50.703125 
Q 32.125 53.328125 38.09375 53.328125 
Q 40.28125 53.328125 42.703125 52.984375 
Q 45.125 52.640625 47.796875 52 
z
" id="DejaVuSerif-72"/>
     <path d="M 51.8125 41.796875 
Q 54.390625 47.515625 58.421875 50.421875 
Q 62.453125 53.328125 67.828125 53.328125 
Q 75.984375 53.328125 79.984375 48.265625 
Q 83.984375 43.21875 83.984375 33.015625 
L 83.984375 5.171875 
L 92.09375 5.171875 
L 92.09375 0 
L 67.1875 0 
L 67.1875 5.171875 
L 75 5.171875 
L 75 31.984375 
Q 75 39.9375 72.65625 43.3125 
Q 70.3125 46.6875 64.890625 46.6875 
Q 58.890625 46.6875 55.734375 42.140625 
Q 52.59375 37.59375 52.59375 28.90625 
L 52.59375 5.171875 
L 60.40625 5.171875 
L 60.40625 0 
L 35.796875 0 
L 35.796875 5.171875 
L 43.609375 5.171875 
L 43.609375 32.328125 
Q 43.609375 40.09375 41.265625 43.390625 
Q 38.921875 46.6875 33.5 46.6875 
Q 27.484375 46.6875 24.328125 42.140625 
Q 21.1875 37.59375 21.1875 28.90625 
L 21.1875 5.171875 
L 29 5.171875 
L 29 0 
L 4.109375 0 
L 4.109375 5.171875 
L 12.203125 5.171875 
L 12.203125 46.78125 
L 3.609375 46.78125 
L 3.609375 51.90625 
L 21.1875 51.90625 
L 21.1875 42.671875 
Q 23.6875 47.859375 27.53125 50.59375 
Q 31.390625 53.328125 36.28125 53.328125 
Q 42.328125 53.328125 46.375 50.3125 
Q 50.4375 47.3125 51.8125 41.796875 
z
" id="DejaVuSerif-6d"/>
    </defs>
    <g style="fill:#262626;" transform="translate(327.676468 27.568)scale(0.096 -0.096)">
     <use xlink:href="#DejaVuSerif-4c"/>
     <use x="66.40625" xlink:href="#DejaVuSerif-65"/>
     <use x="125.585938" xlink:href="#DejaVuSerif-65"/>
     <use x="184.765625" xlink:href="#DejaVuSerif-20"/>
     <use x="216.552734" xlink:href="#DejaVuSerif-44"/>
     <use x="296.728516" xlink:href="#DejaVuSerif-69"/>
     <use x="328.710938" xlink:href="#DejaVuSerif-61"/>
     <use x="388.330078" xlink:href="#DejaVuSerif-67"/>
     <use x="452.34375" xlink:href="#DejaVuSerif-72"/>
     <use x="500.146484" xlink:href="#DejaVuSerif-61"/>
     <use x="559.765625" xlink:href="#DejaVuSerif-6d"/>
    </g>
   </g>
   <g id="legend_3">
    <g id="line2d_72">
     <path d="M 316.2055 44.04675 
L 332.2055 44.04675 
" style="fill:none;stroke:#4c72b0;stroke-linecap:round;stroke-width:1.4;"/>
    </g>
    <g id="line2d_73"/>
    <g id="text_29">
     <!-- Agg -->
     <defs>
      <path d="M 20.015625 26.421875 
L 46.78125 26.421875 
L 33.40625 61.078125 
z
M -0.59375 0 
L -0.59375 5.171875 
L 5.8125 5.171875 
L 31.78125 72.90625 
L 39.984375 72.90625 
L 66.015625 5.171875 
L 73.1875 5.171875 
L 73.1875 0 
L 46.6875 0 
L 46.6875 5.171875 
L 54.78125 5.171875 
L 48.6875 21.1875 
L 18.015625 21.1875 
L 11.921875 5.171875 
L 19.921875 5.171875 
L 19.921875 0 
z
" id="DejaVuSerif-41"/>
     </defs>
     <g style="fill:#262626;" transform="translate(338.6055 46.84675)scale(0.08 -0.08)">
      <use xlink:href="#DejaVuSerif-41"/>
      <use x="72.216797" xlink:href="#DejaVuSerif-67"/>
      <use x="136.230469" xlink:href="#DejaVuSerif-67"/>
     </g>
    </g>
    <g id="line2d_74">
     <path d="M 316.2055 55.903 
L 332.2055 55.903 
" style="fill:none;stroke:#55a868;stroke-linecap:round;stroke-width:1.4;"/>
    </g>
    <g id="line2d_75"/>
    <g id="text_30">
     <!-- Sev -->
     <defs>
      <path d="M 9.28125 3.515625 
L 9.28125 20.125 
L 14.890625 20.0625 
Q 15.140625 11.765625 19.703125 7.78125 
Q 24.265625 3.8125 33.59375 3.8125 
Q 42.28125 3.8125 46.84375 7.25 
Q 51.421875 10.6875 51.421875 17.28125 
Q 51.421875 22.5625 48.65625 25.390625 
Q 45.90625 28.21875 37.015625 30.90625 
L 27.390625 33.796875 
Q 16.9375 36.96875 12.671875 41.703125 
Q 8.40625 46.4375 8.40625 54.6875 
Q 8.40625 63.96875 14.984375 69.09375 
Q 21.578125 74.21875 33.5 74.21875 
Q 38.578125 74.21875 44.625 73.109375 
Q 50.6875 72.015625 57.515625 69.921875 
L 57.515625 54.390625 
L 52 54.390625 
Q 51.171875 62.109375 46.84375 65.546875 
Q 42.53125 69 33.6875 69 
Q 25.984375 69 21.953125 65.84375 
Q 17.921875 62.703125 17.921875 56.6875 
Q 17.921875 51.46875 20.9375 48.484375 
Q 23.96875 45.515625 33.796875 42.578125 
L 42.828125 39.890625 
Q 52.734375 36.921875 56.953125 32.296875 
Q 61.1875 27.6875 61.1875 19.921875 
Q 61.1875 9.328125 54.390625 3.953125 
Q 47.609375 -1.421875 34.1875 -1.421875 
Q 28.171875 -1.421875 21.9375 -0.1875 
Q 15.71875 1.03125 9.28125 3.515625 
z
" id="DejaVuSerif-53"/>
     </defs>
     <g style="fill:#262626;" transform="translate(338.6055 58.703)scale(0.08 -0.08)">
      <use xlink:href="#DejaVuSerif-53"/>
      <use x="68.505859" xlink:href="#DejaVuSerif-65"/>
      <use x="127.685547" xlink:href="#DejaVuSerif-76"/>
     </g>
    </g>
   </g>
  </g>
  <g id="text_31">
   <!-- Aggregate MyMetaAgg -->
   <defs>
    <path d="M 5.515625 0 
L 5.515625 5.171875 
L 14.796875 5.171875 
L 14.796875 67.671875 
L 4.984375 67.671875 
L 4.984375 72.90625 
L 26.21875 72.90625 
L 51.8125 21 
L 77.390625 72.90625 
L 97.3125 72.90625 
L 97.3125 67.671875 
L 87.59375 67.671875 
L 87.59375 5.171875 
L 96.921875 5.171875 
L 96.921875 0 
L 68.40625 0 
L 68.40625 5.171875 
L 77.6875 5.171875 
L 77.6875 61.53125 
L 52.6875 10.6875 
L 45.796875 10.6875 
L 20.796875 61.53125 
L 20.796875 5.171875 
L 30.078125 5.171875 
L 30.078125 0 
z
" id="DejaVuSerif-4d"/>
   </defs>
   <g style="fill:#262626;" transform="translate(139.7789 15.7896)scale(0.1152 -0.1152)">
    <use xlink:href="#DejaVuSerif-41"/>
    <use x="72.216797" xlink:href="#DejaVuSerif-67"/>
    <use x="136.230469" xlink:href="#DejaVuSerif-67"/>
    <use x="200.244141" xlink:href="#DejaVuSerif-72"/>
    <use x="248.046875" xlink:href="#DejaVuSerif-65"/>
    <use x="307.226562" xlink:href="#DejaVuSerif-67"/>
    <use x="371.240234" xlink:href="#DejaVuSerif-61"/>
    <use x="430.859375" xlink:href="#DejaVuSerif-74"/>
    <use x="471.044922" xlink:href="#DejaVuSerif-65"/>
    <use x="530.224609" xlink:href="#DejaVuSerif-20"/>
    <use x="562.011719" xlink:href="#DejaVuSerif-4d"/>
    <use x="664.404297" xlink:href="#DejaVuSerif-79"/>
    <use x="720.898438" xlink:href="#DejaVuSerif-4d"/>
    <use x="823.291016" xlink:href="#DejaVuSerif-65"/>
    <use x="882.470703" xlink:href="#DejaVuSerif-74"/>
    <use x="922.65625" xlink:href="#DejaVuSerif-61"/>
    <use x="982.275391" xlink:href="#DejaVuSerif-41"/>
    <use x="1054.492188" xlink:href="#DejaVuSerif-67"/>
    <use x="1118.505859" xlink:href="#DejaVuSerif-67"/>
   </g>
  </g>
 </g>
 <defs>
  <clipPath id="p8e8f0f6034">
   <rect height="96.664" width="100.184436" x="30.6125" y="33.568"/>
  </clipPath>
  <clipPath id="pc4e54a8134">
   <rect height="96.664" width="100.184436" x="169.809" y="33.568"/>
  </clipPath>
  <clipPath id="pc183ccc741">
   <rect height="96.664" width="100.184436" x="309.0055" y="33.568"/>
  </clipPath>
 </defs>
</svg>
