<?xml version="1.0" encoding="utf-8" standalone="no"?>
<!DOCTYPE svg PUBLIC "-//W3C//DTD SVG 1.1//EN"
  "http://www.w3.org/Graphics/SVG/1.1/DTD/svg11.dtd">
<!-- Created with matplotlib (http://matplotlib.org/) -->
<svg height="150.7745pt" version="1.1" viewBox="0 0 425.949876 150.7745" width="425.949876pt" xmlns="http://www.w3.org/2000/svg" xmlns:xlink="http://www.w3.org/1999/xlink">
 <defs>
  <style type="text/css">
*{stroke-linecap:butt;stroke-linejoin:round;}
  </style>
 </defs>
 <g id="figure_1">
  <g id="patch_1">
   <path d="M 0 150.7745 
L 425.949876 150.7745 
L 425.949876 -0 
L 0 -0 
z
" style="fill:#ffffff;"/>
  </g>
  <g id="axes_1">
   <g id="patch_2">
    <path d="M 40.7925 130.232 
L 142.131312 130.232 
L 142.131312 33.568 
L 40.7925 33.568 
z
" style="fill:#eaeaf2;"/>
   </g>
   <g id="matplotlib.axis_1">
    <g id="xtick_1">
     <g id="line2d_1">
      <path clip-path="url(#p86eaecf968)" d="M 45.39881 130.232 
L 45.39881 33.568 
" style="fill:none;stroke:#ffffff;stroke-linecap:round;stroke-width:0.8;"/>
     </g>
     <g id="line2d_2"/>
     <g id="text_1">
      <!-- 0 -->
      <defs>
       <path d="M 31.78125 3.421875 
Q 39.265625 3.421875 42.96875 11.625 
Q 46.6875 19.828125 46.6875 36.375 
Q 46.6875 52.984375 42.96875 61.1875 
Q 39.265625 69.390625 31.78125 69.390625 
Q 24.3125 69.390625 20.59375 61.1875 
Q 16.890625 52.984375 16.890625 36.375 
Q 16.890625 19.828125 20.59375 11.625 
Q 24.3125 3.421875 31.78125 3.421875 
z
M 31.78125 -1.421875 
Q 19.921875 -1.421875 13.25 8.53125 
Q 6.59375 18.5 6.59375 36.375 
Q 6.59375 54.296875 13.25 64.25 
Q 19.921875 74.21875 31.78125 74.21875 
Q 43.703125 74.21875 50.34375 64.25 
Q 56.984375 54.296875 56.984375 36.375 
Q 56.984375 18.5 50.34375 8.53125 
Q 43.703125 -1.421875 31.78125 -1.421875 
z
" id="DejaVuSerif-30"/>
      </defs>
      <g style="fill:#262626;" transform="translate(42.85381 141.91075)scale(0.08 -0.08)">
       <use xlink:href="#DejaVuSerif-30"/>
      </g>
     </g>
    </g>
    <g id="xtick_2">
     <g id="line2d_3">
      <path clip-path="url(#p86eaecf968)" d="M 72.23375 130.232 
L 72.23375 33.568 
" style="fill:none;stroke:#ffffff;stroke-linecap:round;stroke-width:0.8;"/>
     </g>
     <g id="line2d_4"/>
     <g id="text_2">
      <!-- 1000 -->
      <defs>
       <path d="M 14.203125 0 
L 14.203125 5.171875 
L 26.90625 5.171875 
L 26.90625 65.828125 
L 12.203125 56.296875 
L 12.203125 62.703125 
L 29.984375 74.21875 
L 36.71875 74.21875 
L 36.71875 5.171875 
L 49.421875 5.171875 
L 49.421875 0 
z
" id="DejaVuSerif-31"/>
      </defs>
      <g style="fill:#262626;" transform="translate(62.05375 141.91075)scale(0.08 -0.08)">
       <use xlink:href="#DejaVuSerif-31"/>
       <use x="63.623047" xlink:href="#DejaVuSerif-30"/>
       <use x="127.246094" xlink:href="#DejaVuSerif-30"/>
       <use x="190.869141" xlink:href="#DejaVuSerif-30"/>
      </g>
     </g>
    </g>
    <g id="xtick_3">
     <g id="line2d_5">
      <path clip-path="url(#p86eaecf968)" d="M 99.06869 130.232 
L 99.06869 33.568 
" style="fill:none;stroke:#ffffff;stroke-linecap:round;stroke-width:0.8;"/>
     </g>
     <g id="line2d_6"/>
     <g id="text_3">
      <!-- 2000 -->
      <defs>
       <path d="M 12.796875 55.515625 
L 7.328125 55.515625 
L 7.328125 68.5 
Q 12.546875 71.296875 17.84375 72.75 
Q 23.140625 74.21875 28.21875 74.21875 
Q 39.59375 74.21875 46.1875 68.703125 
Q 52.78125 63.1875 52.78125 53.71875 
Q 52.78125 43.015625 37.84375 28.125 
Q 36.671875 27 36.078125 26.421875 
L 17.671875 8.015625 
L 48.09375 8.015625 
L 48.09375 17 
L 53.8125 17 
L 53.8125 0 
L 6.78125 0 
L 6.78125 5.328125 
L 28.90625 27.390625 
Q 36.234375 34.71875 39.359375 40.84375 
Q 42.484375 46.96875 42.484375 53.71875 
Q 42.484375 61.078125 38.640625 65.234375 
Q 34.8125 69.390625 28.078125 69.390625 
Q 21.09375 69.390625 17.28125 65.921875 
Q 13.484375 62.453125 12.796875 55.515625 
z
" id="DejaVuSerif-32"/>
      </defs>
      <g style="fill:#262626;" transform="translate(88.88869 141.91075)scale(0.08 -0.08)">
       <use xlink:href="#DejaVuSerif-32"/>
       <use x="63.623047" xlink:href="#DejaVuSerif-30"/>
       <use x="127.246094" xlink:href="#DejaVuSerif-30"/>
       <use x="190.869141" xlink:href="#DejaVuSerif-30"/>
      </g>
     </g>
    </g>
    <g id="xtick_4">
     <g id="line2d_7">
      <path clip-path="url(#p86eaecf968)" d="M 125.90363 130.232 
L 125.90363 33.568 
" style="fill:none;stroke:#ffffff;stroke-linecap:round;stroke-width:0.8;"/>
     </g>
     <g id="line2d_8"/>
     <g id="text_4">
      <!-- 3000 -->
      <defs>
       <path d="M 9.71875 69.828125 
Q 15.4375 71.96875 20.671875 73.09375 
Q 25.921875 74.21875 30.515625 74.21875 
Q 41.21875 74.21875 47.21875 69.59375 
Q 53.21875 64.984375 53.21875 56.78125 
Q 53.21875 50.203125 49.0625 45.78125 
Q 44.921875 41.359375 37.3125 39.796875 
Q 46.296875 38.53125 51.25 33.28125 
Q 56.203125 28.03125 56.203125 19.671875 
Q 56.203125 9.46875 49.34375 4.015625 
Q 42.484375 -1.421875 29.59375 -1.421875 
Q 23.875 -1.421875 18.421875 -0.1875 
Q 12.984375 1.03125 7.625 3.515625 
L 7.625 17.671875 
L 13.09375 17.671875 
Q 13.578125 10.640625 17.828125 7.03125 
Q 22.078125 3.421875 29.78125 3.421875 
Q 37.25 3.421875 41.578125 7.734375 
Q 45.90625 12.0625 45.90625 19.578125 
Q 45.90625 28.171875 41.453125 32.59375 
Q 37.015625 37.015625 28.421875 37.015625 
L 23.78125 37.015625 
L 23.78125 42 
L 26.21875 42 
Q 34.765625 42 39.03125 45.53125 
Q 43.3125 49.078125 43.3125 56.203125 
Q 43.3125 62.59375 39.796875 65.984375 
Q 36.28125 69.390625 29.6875 69.390625 
Q 23.09375 69.390625 19.453125 66.265625 
Q 15.828125 63.140625 15.1875 56.984375 
L 9.71875 56.984375 
z
" id="DejaVuSerif-33"/>
      </defs>
      <g style="fill:#262626;" transform="translate(115.72363 141.91075)scale(0.08 -0.08)">
       <use xlink:href="#DejaVuSerif-33"/>
       <use x="63.623047" xlink:href="#DejaVuSerif-30"/>
       <use x="127.246094" xlink:href="#DejaVuSerif-30"/>
       <use x="190.869141" xlink:href="#DejaVuSerif-30"/>
      </g>
     </g>
    </g>
   </g>
   <g id="matplotlib.axis_2">
    <g id="ytick_1">
     <g id="line2d_9">
      <path clip-path="url(#p86eaecf968)" d="M 40.7925 130.232 
L 142.131312 130.232 
" style="fill:none;stroke:#ffffff;stroke-linecap:round;stroke-width:0.8;"/>
     </g>
     <g id="line2d_10"/>
     <g id="text_5">
      <!-- 0.0000 -->
      <defs>
       <path d="M 9.421875 5.078125 
Q 9.421875 7.8125 11.28125 9.71875 
Q 13.140625 11.625 15.921875 11.625 
Q 18.609375 11.625 20.5 9.71875 
Q 22.40625 7.8125 22.40625 5.078125 
Q 22.40625 2.390625 20.5 0.484375 
Q 18.609375 -1.421875 15.921875 -1.421875 
Q 13.140625 -1.421875 11.28125 0.453125 
Q 9.421875 2.34375 9.421875 5.078125 
z
" id="DejaVuSerif-2e"/>
      </defs>
      <g style="fill:#262626;" transform="translate(7.2 133.271375)scale(0.08 -0.08)">
       <use xlink:href="#DejaVuSerif-30"/>
       <use x="63.623047" xlink:href="#DejaVuSerif-2e"/>
       <use x="95.410156" xlink:href="#DejaVuSerif-30"/>
       <use x="159.033203" xlink:href="#DejaVuSerif-30"/>
       <use x="222.65625" xlink:href="#DejaVuSerif-30"/>
       <use x="286.279297" xlink:href="#DejaVuSerif-30"/>
      </g>
     </g>
    </g>
    <g id="ytick_2">
     <g id="line2d_11">
      <path clip-path="url(#p86eaecf968)" d="M 40.7925 111.176425 
L 142.131312 111.176425 
" style="fill:none;stroke:#ffffff;stroke-linecap:round;stroke-width:0.8;"/>
     </g>
     <g id="line2d_12"/>
     <g id="text_6">
      <!-- 0.0005 -->
      <defs>
       <path d="M 50.296875 72.90625 
L 50.296875 64.890625 
L 16.890625 64.890625 
L 16.890625 44 
Q 19.4375 45.75 22.828125 46.625 
Q 26.21875 47.515625 30.421875 47.515625 
Q 42.234375 47.515625 49.0625 40.96875 
Q 55.90625 34.421875 55.90625 23.09375 
Q 55.90625 11.53125 49 5.046875 
Q 42.09375 -1.421875 29.59375 -1.421875 
Q 24.5625 -1.421875 19.28125 -0.1875 
Q 14.015625 1.03125 8.5 3.515625 
L 8.5 17.671875 
L 14.015625 17.671875 
Q 14.453125 10.75 18.421875 7.078125 
Q 22.40625 3.421875 29.59375 3.421875 
Q 37.3125 3.421875 41.453125 8.5 
Q 45.609375 13.578125 45.609375 23.09375 
Q 45.609375 32.5625 41.484375 37.609375 
Q 37.359375 42.671875 29.59375 42.671875 
Q 25.203125 42.671875 21.84375 41.109375 
Q 18.5 39.546875 15.921875 36.28125 
L 11.71875 36.28125 
L 11.71875 72.90625 
z
" id="DejaVuSerif-35"/>
      </defs>
      <g style="fill:#262626;" transform="translate(7.2 114.2158)scale(0.08 -0.08)">
       <use xlink:href="#DejaVuSerif-30"/>
       <use x="63.623047" xlink:href="#DejaVuSerif-2e"/>
       <use x="95.410156" xlink:href="#DejaVuSerif-30"/>
       <use x="159.033203" xlink:href="#DejaVuSerif-30"/>
       <use x="222.65625" xlink:href="#DejaVuSerif-30"/>
       <use x="286.279297" xlink:href="#DejaVuSerif-35"/>
      </g>
     </g>
    </g>
    <g id="ytick_3">
     <g id="line2d_13">
      <path clip-path="url(#p86eaecf968)" d="M 40.7925 92.120851 
L 142.131312 92.120851 
" style="fill:none;stroke:#ffffff;stroke-linecap:round;stroke-width:0.8;"/>
     </g>
     <g id="line2d_14"/>
     <g id="text_7">
      <!-- 0.0010 -->
      <g style="fill:#262626;" transform="translate(7.2 95.160226)scale(0.08 -0.08)">
       <use xlink:href="#DejaVuSerif-30"/>
       <use x="63.623047" xlink:href="#DejaVuSerif-2e"/>
       <use x="95.410156" xlink:href="#DejaVuSerif-30"/>
       <use x="159.033203" xlink:href="#DejaVuSerif-30"/>
       <use x="222.65625" xlink:href="#DejaVuSerif-31"/>
       <use x="286.279297" xlink:href="#DejaVuSerif-30"/>
      </g>
     </g>
    </g>
    <g id="ytick_4">
     <g id="line2d_15">
      <path clip-path="url(#p86eaecf968)" d="M 40.7925 73.065276 
L 142.131312 73.065276 
" style="fill:none;stroke:#ffffff;stroke-linecap:round;stroke-width:0.8;"/>
     </g>
     <g id="line2d_16"/>
     <g id="text_8">
      <!-- 0.0015 -->
      <g style="fill:#262626;" transform="translate(7.2 76.104651)scale(0.08 -0.08)">
       <use xlink:href="#DejaVuSerif-30"/>
       <use x="63.623047" xlink:href="#DejaVuSerif-2e"/>
       <use x="95.410156" xlink:href="#DejaVuSerif-30"/>
       <use x="159.033203" xlink:href="#DejaVuSerif-30"/>
       <use x="222.65625" xlink:href="#DejaVuSerif-31"/>
       <use x="286.279297" xlink:href="#DejaVuSerif-35"/>
      </g>
     </g>
    </g>
    <g id="ytick_5">
     <g id="line2d_17">
      <path clip-path="url(#p86eaecf968)" d="M 40.7925 54.009701 
L 142.131312 54.009701 
" style="fill:none;stroke:#ffffff;stroke-linecap:round;stroke-width:0.8;"/>
     </g>
     <g id="line2d_18"/>
     <g id="text_9">
      <!-- 0.0020 -->
      <g style="fill:#262626;" transform="translate(7.2 57.049076)scale(0.08 -0.08)">
       <use xlink:href="#DejaVuSerif-30"/>
       <use x="63.623047" xlink:href="#DejaVuSerif-2e"/>
       <use x="95.410156" xlink:href="#DejaVuSerif-30"/>
       <use x="159.033203" xlink:href="#DejaVuSerif-30"/>
       <use x="222.65625" xlink:href="#DejaVuSerif-32"/>
       <use x="286.279297" xlink:href="#DejaVuSerif-30"/>
      </g>
     </g>
    </g>
    <g id="ytick_6">
     <g id="line2d_19">
      <path clip-path="url(#p86eaecf968)" d="M 40.7925 34.954127 
L 142.131312 34.954127 
" style="fill:none;stroke:#ffffff;stroke-linecap:round;stroke-width:0.8;"/>
     </g>
     <g id="line2d_20"/>
     <g id="text_10">
      <!-- 0.0025 -->
      <g style="fill:#262626;" transform="translate(7.2 37.993502)scale(0.08 -0.08)">
       <use xlink:href="#DejaVuSerif-30"/>
       <use x="63.623047" xlink:href="#DejaVuSerif-2e"/>
       <use x="95.410156" xlink:href="#DejaVuSerif-30"/>
       <use x="159.033203" xlink:href="#DejaVuSerif-30"/>
       <use x="222.65625" xlink:href="#DejaVuSerif-32"/>
       <use x="286.279297" xlink:href="#DejaVuSerif-35"/>
      </g>
     </g>
    </g>
   </g>
   <g id="line2d_21">
    <path clip-path="url(#p86eaecf968)" d="M 45.39881 130.170768 
L 45.601285 130.060844 
L 45.691274 129.943666 
L 45.781263 129.859563 
L 45.871252 129.695908 
L 45.938743 129.622126 
L 46.028732 129.416661 
L 46.096224 129.326031 
L 46.186213 129.078288 
L 46.253705 128.970727 
L 46.343694 128.680738 
L 46.388688 128.619141 
L 46.478677 128.293296 
L 46.523672 128.224579 
L 46.613661 127.863462 
L 46.658655 127.787764 
L 46.748644 127.39217 
L 46.793638 127.309669 
L 46.883627 126.880578 
L 46.928622 126.791487 
L 47.018611 126.33004 
L 47.063605 126.234601 
L 47.153594 125.742076 
L 47.198589 125.640558 
L 47.288578 125.11835 
L 47.333572 125.011043 
L 47.423561 124.460647 
L 47.446058 124.460647 
L 47.536047 123.887962 
L 47.558545 123.887962 
L 47.648534 123.294119 
L 47.671031 123.294119 
L 47.76102 122.680284 
L 47.783517 122.680284 
L 47.873506 122.047643 
L 47.896003 122.047643 
L 47.985992 121.397406 
L 48.008489 121.397406 
L 48.098478 120.73079 
L 48.120976 120.73079 
L 48.210964 120.049025 
L 48.233462 120.049025 
L 48.323451 119.353341 
L 48.345948 119.353341 
L 48.435937 118.644968 
L 48.458434 118.644968 
L 48.548423 117.925129 
L 48.57092 117.925129 
L 48.660909 117.195039 
L 48.683406 117.195039 
L 48.773395 116.455902 
L 48.795893 116.455902 
L 48.885882 115.708906 
L 48.908379 115.708906 
L 48.998368 114.955219 
L 49.020865 114.955219 
L 49.110854 114.19599 
L 49.133351 114.19599 
L 49.22334 113.432347 
L 49.245837 113.432347 
L 49.335826 112.665391 
L 49.358324 112.665391 
L 49.448313 111.896199 
L 49.47081 111.896199 
L 49.560799 111.125817 
L 49.583296 111.125817 
L 49.673285 110.355266 
L 49.695782 110.355266 
L 49.785771 109.585533 
L 49.808268 109.585533 
L 49.898257 108.817577 
L 49.920755 108.817577 
L 50.010744 108.052324 
L 50.033241 108.052324 
L 50.12323 107.290668 
L 50.145727 107.290668 
L 50.235716 106.533467 
L 50.258213 106.533467 
L 50.348202 105.781551 
L 50.370699 105.781551 
L 50.460688 105.035711 
L 50.483186 105.035711 
L 50.573175 104.296709 
L 50.595672 104.296709 
L 50.685661 103.565269 
L 50.708158 103.565269 
L 50.798147 102.842085 
L 50.820644 102.842085 
L 50.910633 102.127814 
L 50.93313 102.127814 
L 51.023119 101.423082 
L 51.045617 101.423082 
L 51.135606 100.728482 
L 51.158103 100.728482 
L 51.248092 100.044573 
L 51.270589 100.044573 
L 51.360578 99.371882 
L 51.383075 99.371882 
L 51.473064 98.710905 
L 51.495561 98.710905 
L 51.58555 98.062106 
L 51.608048 98.062106 
L 51.698036 97.425917 
L 51.720534 97.425917 
L 51.810523 96.802743 
L 51.83302 96.802743 
L 51.923009 96.192956 
L 51.945506 96.192956 
L 52.035495 95.596902 
L 52.057992 95.596902 
L 52.147981 95.014897 
L 52.170478 95.014897 
L 52.260467 94.44723 
L 52.282965 94.44723 
L 52.372954 93.894162 
L 52.417948 93.785322 
L 52.507937 93.250084 
L 52.552932 93.144841 
L 52.642921 92.627729 
L 52.687915 92.526137 
L 52.777904 92.027405 
L 52.822898 91.929512 
L 52.912887 91.449375 
L 52.957882 91.355219 
L 53.047871 90.89385 
L 53.092865 90.803464 
L 53.182854 90.361002 
L 53.227849 90.274408 
L 53.317838 89.850955 
L 53.362832 89.768171 
L 53.452821 89.363795 
L 53.497816 89.28483 
L 53.587805 88.899567 
L 53.632799 88.824427 
L 53.722788 88.458281 
L 53.767782 88.386962 
L 53.857771 88.039909 
L 53.902766 87.972404 
L 53.992755 87.644391 
L 54.037749 87.580687 
L 54.127738 87.271634 
L 54.172733 87.211713 
L 54.262722 86.921517 
L 54.307716 86.865354 
L 54.397705 86.593888 
L 54.465197 86.489645 
L 54.555186 86.239839 
L 54.622678 86.144215 
L 54.712666 85.915832 
L 54.780158 85.828726 
L 54.870147 85.621501 
L 54.937639 85.5428 
L 55.027628 85.356437 
L 55.117617 85.251689 
L 55.207606 85.088776 
L 55.297595 84.997965 
L 55.387584 84.858047 
L 55.50007 84.756296 
L 55.590059 84.641669 
L 55.725042 84.540814 
L 55.815031 84.453523 
L 55.995009 84.353697 
L 56.084998 84.298082 
L 57.232357 84.408372 
L 57.322346 84.480755 
L 57.479827 84.58102 
L 57.569816 84.675452 
L 57.704799 84.77951 
L 57.794788 84.892944 
L 57.907274 84.990275 
L 57.997263 85.119963 
L 58.10975 85.229979 
L 58.199738 85.375123 
L 58.289727 85.466182 
L 58.379716 85.624401 
L 58.469705 85.723119 
L 58.559694 85.893794 
L 58.649683 85.999802 
L 58.739672 86.182321 
L 58.807164 86.257328 
L 58.897153 86.449716 
L 58.964645 86.52858 
L 59.054634 86.73038 
L 59.122125 86.812918 
L 59.212114 87.023682 
L 59.279606 87.109716 
L 59.369595 87.329001 
L 59.437087 87.418356 
L 59.527076 87.645727 
L 59.594567 87.738231 
L 59.684556 87.97326 
L 59.752048 88.068743 
L 59.842037 88.311011 
L 59.909529 88.409307 
L 59.999518 88.658404 
L 60.067009 88.759351 
L 60.156998 89.014874 
L 60.22449 89.118312 
L 60.314479 89.379868 
L 60.381971 89.485641 
L 60.47196 89.752845 
L 60.539451 89.860802 
L 60.62944 90.133279 
L 60.696932 90.243271 
L 60.786921 90.520654 
L 60.831915 90.576531 
L 60.921904 90.857835 
L 60.966899 90.91447 
L 61.056888 91.199438 
L 61.101882 91.256781 
L 61.191871 91.545164 
L 61.236866 91.603165 
L 61.326855 91.894719 
L 61.371849 91.95333 
L 61.461838 92.247815 
L 61.506833 92.306989 
L 61.596822 92.604174 
L 61.641816 92.663865 
L 61.731805 92.963523 
L 61.776799 93.023687 
L 61.866788 93.325597 
L 61.911783 93.38619 
L 62.001772 93.690138 
L 62.046766 93.751117 
L 62.136755 94.056896 
L 62.18175 94.11822 
L 62.271739 94.425625 
L 62.316733 94.487255 
L 62.406722 94.796091 
L 62.451717 94.857988 
L 62.541706 95.168062 
L 62.5867 95.230188 
L 62.676689 95.541316 
L 62.721683 95.603635 
L 62.811672 95.915637 
L 62.856667 95.978113 
L 62.946656 96.290815 
L 62.99165 96.353414 
L 63.081639 96.666648 
L 63.126634 96.729337 
L 63.216623 97.04294 
L 63.261617 97.105686 
L 63.351606 97.419501 
L 63.396601 97.482274 
L 63.48659 97.796147 
L 63.531584 97.858917 
L 63.621573 98.172702 
L 63.666567 98.235441 
L 63.756556 98.548996 
L 63.801551 98.611675 
L 63.89154 98.924864 
L 63.936534 98.987456 
L 64.026523 99.300147 
L 64.071518 99.362626 
L 64.161507 99.674693 
L 64.206501 99.737035 
L 64.29649 100.048355 
L 64.341485 100.110536 
L 64.431474 100.420991 
L 64.476468 100.482988 
L 64.566457 100.792468 
L 64.611452 100.854259 
L 64.70144 101.162654 
L 64.746435 101.224217 
L 64.836424 101.531425 
L 64.881418 101.592741 
L 64.971407 101.898662 
L 65.016402 101.95971 
L 65.106391 102.26425 
L 65.151385 102.325013 
L 65.241374 102.62808 
L 65.286369 102.68854 
L 65.376358 102.990049 
L 65.421352 103.050189 
L 65.511341 103.350056 
L 65.556336 103.40986 
L 65.646325 103.708007 
L 65.691319 103.76746 
L 65.781308 104.063813 
L 65.826302 104.122899 
L 65.916291 104.417386 
L 65.961286 104.476092 
L 66.051275 104.768646 
L 66.096269 104.826959 
L 66.186258 105.117516 
L 66.231253 105.175423 
L 66.321242 105.463923 
L 66.366236 105.521413 
L 66.456225 105.807797 
L 66.50122 105.864859 
L 66.591209 106.149075 
L 66.636203 106.205698 
L 66.726192 106.487695 
L 66.771186 106.543869 
L 66.861175 106.823599 
L 66.90617 106.879315 
L 66.996159 107.156733 
L 67.063651 107.267154 
L 67.15364 107.541823 
L 67.221131 107.651133 
L 67.31112 107.923 
L 67.378612 108.03118 
L 67.468601 108.300198 
L 67.536093 108.407228 
L 67.626082 108.673353 
L 67.693573 108.779218 
L 67.783562 109.042409 
L 67.851054 109.147093 
L 67.941043 109.407315 
L 68.008535 109.510805 
L 68.098524 109.768024 
L 68.166015 109.870308 
L 68.256004 110.124497 
L 68.323496 110.225563 
L 68.413485 110.476697 
L 68.480977 110.576537 
L 68.570966 110.824593 
L 68.638457 110.923197 
L 68.728446 111.168158 
L 68.795938 111.26552 
L 68.885927 111.507368 
L 68.953419 111.603483 
L 69.043408 111.842207 
L 69.110899 111.937069 
L 69.200888 112.172658 
L 69.26838 112.266265 
L 69.358369 112.498711 
L 69.425861 112.59106 
L 69.51585 112.820359 
L 69.583341 112.911449 
L 69.67333 113.137599 
L 69.740822 113.227429 
L 69.830811 113.450429 
L 69.898303 113.538999 
L 69.988292 113.758851 
L 70.055783 113.846164 
L 70.145772 114.062873 
L 70.213264 114.148929 
L 70.303253 114.362502 
L 70.370745 114.447305 
L 70.460734 114.657749 
L 70.528225 114.741302 
L 70.618214 114.948627 
L 70.685706 115.030935 
L 70.775695 115.235154 
L 70.843187 115.316222 
L 70.933176 115.517347 
L 71.000667 115.59718 
L 71.090656 115.795226 
L 71.158148 115.873832 
L 71.248137 116.068816 
L 71.315629 116.146199 
L 71.405618 116.338139 
L 71.473109 116.414309 
L 71.563098 116.603223 
L 71.63059 116.678186 
L 71.720579 116.864095 
L 71.810568 116.974615 
L 71.900557 117.157116 
L 71.990546 117.2656 
L 72.080535 117.444722 
L 72.170524 117.551189 
L 72.260513 117.726963 
L 72.350502 117.83143 
L 72.440491 118.003889 
L 72.53048 118.106378 
L 72.620469 118.275555 
L 72.710457 118.376085 
L 72.800446 118.542016 
L 72.890435 118.640608 
L 72.980424 118.803328 
L 73.070413 118.900005 
L 73.160402 119.059551 
L 73.250391 119.154335 
L 73.34038 119.310745 
L 73.430369 119.403659 
L 73.520358 119.556971 
L 73.610347 119.648038 
L 73.700336 119.798292 
L 73.790325 119.887535 
L 73.880314 120.034771 
L 73.970303 120.122215 
L 74.060292 120.266472 
L 74.150281 120.352142 
L 74.24027 120.493462 
L 74.330259 120.577382 
L 74.420248 120.715807 
L 74.532734 120.825257 
L 74.622723 120.960473 
L 74.735209 121.067379 
L 74.825198 121.19944 
L 74.937684 121.303843 
L 75.027673 121.432803 
L 75.140159 121.534747 
L 75.230148 121.660659 
L 75.342634 121.760186 
L 75.432623 121.883104 
L 75.54511 121.980257 
L 75.635099 122.100236 
L 75.747585 122.195059 
L 75.837574 122.312151 
L 75.95006 122.404687 
L 76.040049 122.518948 
L 76.152535 122.609239 
L 76.242524 122.720721 
L 76.377507 122.830683 
L 76.467496 122.939141 
L 76.60248 123.046112 
L 76.692469 123.151611 
L 76.827452 123.255656 
L 76.917441 123.358262 
L 77.052425 123.459446 
L 77.142414 123.559224 
L 77.277397 123.657612 
L 77.367386 123.754626 
L 77.502369 123.850282 
L 77.592358 123.944596 
L 77.727342 124.037583 
L 77.817331 124.12926 
L 77.974811 124.237564 
L 78.0648 124.326412 
L 78.222281 124.431366 
L 78.31227 124.517459 
L 78.469751 124.619152 
L 78.55974 124.702564 
L 78.71722 124.801083 
L 78.807209 124.881887 
L 78.96469 124.977318 
L 79.054679 125.055584 
L 79.234657 125.16326 
L 79.324646 125.238838 
L 79.504624 125.342807 
L 79.594613 125.415777 
L 79.77459 125.516153 
L 79.864579 125.586596 
L 80.067055 125.697169 
L 80.157044 125.764962 
L 80.359519 125.871368 
L 80.449508 125.936602 
L 80.651983 126.038982 
L 80.741972 126.101744 
L 80.966944 126.212385 
L 81.056933 126.27258 
L 81.281905 126.378688 
L 81.371894 126.436412 
L 81.596867 126.538157 
L 81.686856 126.593503 
L 81.934325 126.701728 
L 82.024314 126.754628 
L 82.271784 126.858061 
L 82.361773 126.908615 
L 82.63174 127.017174 
L 82.721729 127.065334 
L 82.991696 127.168742 
L 83.081685 127.214614 
L 83.374149 127.321893 
L 83.464138 127.365446 
L 83.779099 127.475615 
L 83.869088 127.516834 
L 84.184049 127.621092 
L 84.274038 127.660097 
L 84.611497 127.766175 
L 84.701486 127.802966 
L 85.061442 127.909999 
L 85.151431 127.944591 
L 85.533884 128.051765 
L 85.623873 128.084184 
L 86.028823 128.190735 
L 86.118812 128.221021 
L 86.568757 128.331924 
L 86.658745 128.360039 
L 87.131188 128.468239 
L 87.221176 128.494255 
L 87.738613 128.604047 
L 87.828602 128.62797 
L 88.391033 128.737766 
L 88.481022 128.759626 
L 89.088447 128.867982 
L 89.178436 128.887834 
L 89.853353 128.997085 
L 89.943342 129.014946 
L 90.685751 129.122917 
L 90.77574 129.13884 
L 91.630635 129.249297 
L 91.720624 129.263276 
L 92.688005 129.372546 
L 92.777994 129.384635 
L 93.902856 129.493763 
L 93.992845 129.504003 
L 95.34268 129.613706 
L 95.432669 129.622127 
L 97.119962 129.732925 
L 97.20995 129.739557 
L 99.41468 129.850415 
L 99.504669 129.85531 
L 102.654282 129.966376 
L 102.744271 129.969601 
L 108.098614 130.080665 
L 108.188603 130.082321 
L 124.521598 130.193411 
L 124.611587 130.193714 
L 137.525002 130.214896 
L 137.525002 130.214917 
" style="fill:none;stroke:#4c72b0;stroke-linecap:round;stroke-width:1.4;"/>
   </g>
   <g id="line2d_22">
    <path clip-path="url(#p86eaecf968)" d="M 46.163716 -1 
L 46.253705 28.263982 
L 46.276202 28.263982 
L 46.366191 50.631409 
L 46.388688 50.631409 
L 46.478677 66.759661 
L 46.501174 66.759661 
L 46.591163 78.720493 
L 46.613661 78.720493 
L 46.703649 87.800432 
L 46.726147 87.800432 
L 46.816136 94.830957 
L 46.838633 94.830957 
L 46.928622 100.367724 
L 46.951119 100.367724 
L 47.041108 104.792765 
L 47.063605 104.792765 
L 47.153594 108.375254 
L 47.176091 108.375254 
L 47.26608 111.30893 
L 47.288578 111.30893 
L 47.378567 113.735885 
L 47.401064 113.735885 
L 47.491053 115.762074 
L 47.51355 115.762074 
L 47.603539 117.467692 
L 47.626036 117.467692 
L 47.716025 118.914253 
L 47.738522 118.914253 
L 47.828511 120.149513 
L 47.851009 120.149513 
L 47.940998 121.210962 
L 47.963495 121.210962 
L 48.053484 122.128321 
L 48.075981 122.128321 
L 48.16597 122.925374 
L 48.188467 122.925374 
L 48.278456 123.621315 
L 48.300953 123.621315 
L 48.390942 124.231754 
L 48.41344 124.231754 
L 48.503429 124.769482 
L 48.548423 124.869264 
L 48.638412 125.333497 
L 48.683406 125.419878 
L 48.773395 125.822788 
L 48.81839 125.897951 
L 48.908379 126.249359 
L 48.953373 126.315069 
L 49.043362 126.62296 
L 49.088357 126.68066 
L 49.178346 126.951573 
L 49.245837 127.052285 
L 49.335826 127.286804 
L 49.403318 127.374212 
L 49.493307 127.578248 
L 49.560799 127.654477 
L 49.650788 127.832822 
L 49.740777 127.932075 
L 49.830766 128.085809 
L 49.920755 128.171597 
L 50.010744 128.304815 
L 50.12323 128.40334 
L 50.213219 128.517395 
L 50.348202 128.622282 
L 50.438191 128.718901 
L 50.595672 128.825045 
L 50.685661 128.906151 
L 50.865639 129.009706 
L 50.955628 129.077262 
L 51.1806 129.187029 
L 51.270589 129.242146 
L 51.540556 129.350667 
L 51.630545 129.394859 
L 51.968003 129.504132 
L 52.057992 129.53862 
L 52.48544 129.646457 
L 52.575429 129.672477 
L 53.160357 129.782236 
L 53.250346 129.800735 
L 54.105241 129.911036 
L 54.19523 129.923002 
L 55.635053 130.034053 
L 55.725042 130.040471 
L 59.122125 130.151394 
L 59.212114 130.153418 
L 137.525002 130.231881 
L 137.525002 130.231881 
" style="fill:none;stroke:#55a868;stroke-linecap:round;stroke-width:1.4;"/>
   </g>
   <g id="patch_3">
    <path d="M 40.7925 130.232 
L 40.7925 33.568 
" style="fill:none;"/>
   </g>
   <g id="patch_4">
    <path d="M 142.131312 130.232 
L 142.131312 33.568 
" style="fill:none;"/>
   </g>
   <g id="patch_5">
    <path d="M 40.7925 130.232 
L 142.131312 130.232 
" style="fill:none;"/>
   </g>
   <g id="patch_6">
    <path d="M 40.7925 33.568 
L 142.131312 33.568 
" style="fill:none;"/>
   </g>
   <g id="text_11">
    <!-- Density -->
    <defs>
     <path d="M 24.703125 5.171875 
L 33.796875 5.171875 
Q 48 5.171875 55.59375 13.28125 
Q 63.1875 21.390625 63.1875 36.53125 
Q 63.1875 51.65625 55.609375 59.65625 
Q 48.046875 67.671875 33.796875 67.671875 
L 24.703125 67.671875 
z
M 5.515625 0 
L 5.515625 5.171875 
L 14.796875 5.171875 
L 14.796875 67.671875 
L 5.515625 67.671875 
L 5.515625 72.90625 
L 34.515625 72.90625 
Q 53.375 72.90625 63.890625 63.28125 
Q 74.421875 53.65625 74.421875 36.53125 
Q 74.421875 19.34375 63.875 9.671875 
Q 53.328125 0 34.515625 0 
z
" id="DejaVuSerif-44"/>
     <path d="M 54.203125 25 
L 15.484375 25 
L 15.484375 24.609375 
Q 15.484375 14.109375 19.4375 8.765625 
Q 23.390625 3.421875 31.109375 3.421875 
Q 37.015625 3.421875 40.796875 6.515625 
Q 44.578125 9.625 46.09375 15.71875 
L 53.328125 15.71875 
Q 51.171875 7.171875 45.375 2.875 
Q 39.59375 -1.421875 30.171875 -1.421875 
Q 18.796875 -1.421875 11.890625 6.078125 
Q 4.984375 13.578125 4.984375 25.984375 
Q 4.984375 38.28125 11.765625 45.796875 
Q 18.5625 53.328125 29.59375 53.328125 
Q 41.359375 53.328125 47.65625 46.0625 
Q 53.953125 38.8125 54.203125 25 
z
M 43.609375 30.171875 
Q 43.3125 39.265625 39.765625 43.875 
Q 36.234375 48.484375 29.59375 48.484375 
Q 23.390625 48.484375 19.828125 43.84375 
Q 16.265625 39.203125 15.484375 30.171875 
z
" id="DejaVuSerif-65"/>
     <path d="M 4.109375 0 
L 4.109375 5.171875 
L 12.203125 5.171875 
L 12.203125 46.6875 
L 3.609375 46.6875 
L 3.609375 51.90625 
L 21.1875 51.90625 
L 21.1875 42.671875 
Q 23.6875 47.953125 27.65625 50.640625 
Q 31.640625 53.328125 36.921875 53.328125 
Q 45.515625 53.328125 49.5625 48.390625 
Q 53.609375 43.453125 53.609375 33.015625 
L 53.609375 5.171875 
L 61.625 5.171875 
L 61.625 0 
L 36.8125 0 
L 36.8125 5.171875 
L 44.578125 5.171875 
L 44.578125 30.171875 
Q 44.578125 39.703125 42.234375 43.234375 
Q 39.890625 46.78125 33.984375 46.78125 
Q 27.734375 46.78125 24.453125 42.203125 
Q 21.1875 37.640625 21.1875 28.90625 
L 21.1875 5.171875 
L 29 5.171875 
L 29 0 
z
" id="DejaVuSerif-6e"/>
     <path d="M 5.609375 2.875 
L 5.609375 14.984375 
L 10.796875 14.984375 
Q 10.984375 9.1875 14.421875 6.296875 
Q 17.875 3.421875 24.609375 3.421875 
Q 30.671875 3.421875 33.84375 5.6875 
Q 37.015625 7.953125 37.015625 12.3125 
Q 37.015625 15.71875 34.6875 17.8125 
Q 32.375 19.921875 24.90625 22.3125 
L 18.40625 24.515625 
Q 11.71875 26.65625 8.71875 29.875 
Q 5.71875 33.109375 5.71875 38.09375 
Q 5.71875 45.21875 10.9375 49.265625 
Q 16.15625 53.328125 25.390625 53.328125 
Q 29.5 53.328125 34.03125 52.25 
Q 38.578125 51.171875 43.40625 49.125 
L 43.40625 37.796875 
L 38.234375 37.796875 
Q 38.03125 42.828125 34.703125 45.65625 
Q 31.390625 48.484375 25.6875 48.484375 
Q 20.015625 48.484375 17.109375 46.484375 
Q 14.203125 44.484375 14.203125 40.484375 
Q 14.203125 37.203125 16.40625 35.21875 
Q 18.609375 33.25 25.203125 31.203125 
L 32.328125 29 
Q 39.703125 26.703125 42.9375 23.265625 
Q 46.1875 19.828125 46.1875 14.40625 
Q 46.1875 7.03125 40.546875 2.796875 
Q 34.90625 -1.421875 25 -1.421875 
Q 19.96875 -1.421875 15.1875 -0.34375 
Q 10.40625 0.734375 5.609375 2.875 
z
" id="DejaVuSerif-73"/>
     <path d="M 9.71875 68.015625 
Q 9.71875 70.265625 11.34375 71.921875 
Q 12.984375 73.578125 15.28125 73.578125 
Q 17.53125 73.578125 19.15625 71.921875 
Q 20.796875 70.265625 20.796875 68.015625 
Q 20.796875 65.71875 19.1875 64.109375 
Q 17.578125 62.5 15.28125 62.5 
Q 12.984375 62.5 11.34375 64.109375 
Q 9.71875 65.71875 9.71875 68.015625 
z
M 21.1875 5.171875 
L 29.6875 5.171875 
L 29.6875 0 
L 3.609375 0 
L 3.609375 5.171875 
L 12.203125 5.171875 
L 12.203125 46.6875 
L 3.609375 46.6875 
L 3.609375 51.90625 
L 21.1875 51.90625 
z
" id="DejaVuSerif-69"/>
     <path d="M 10.796875 46.6875 
L 2.875 46.6875 
L 2.875 51.90625 
L 10.796875 51.90625 
L 10.796875 68.015625 
L 19.828125 68.015625 
L 19.828125 51.90625 
L 36.71875 51.90625 
L 36.71875 46.6875 
L 19.828125 46.6875 
L 19.828125 13.71875 
Q 19.828125 7.125 21.09375 5.265625 
Q 22.359375 3.421875 25.78125 3.421875 
Q 29.296875 3.421875 30.90625 5.484375 
Q 32.515625 7.5625 32.625 12.203125 
L 39.40625 12.203125 
Q 39.015625 5.125 35.546875 1.84375 
Q 32.078125 -1.421875 25 -1.421875 
Q 17.234375 -1.421875 14.015625 2.015625 
Q 10.796875 5.46875 10.796875 13.71875 
z
" id="DejaVuSerif-74"/>
     <path d="M 21.578125 -9.515625 
L 25 -0.875 
L 5.609375 46.6875 
L -0.296875 46.6875 
L -0.296875 51.90625 
L 23.578125 51.90625 
L 23.578125 46.6875 
L 15.28125 46.6875 
L 29.890625 10.984375 
L 44.484375 46.6875 
L 36.71875 46.6875 
L 36.71875 51.90625 
L 56.203125 51.90625 
L 56.203125 46.6875 
L 50.390625 46.6875 
L 26.609375 -11.71875 
Q 24.171875 -17.78125 21.1875 -20 
Q 18.21875 -22.21875 12.796875 -22.21875 
Q 10.5 -22.21875 8.078125 -21.828125 
Q 5.671875 -21.4375 3.21875 -20.703125 
L 3.21875 -10.796875 
L 7.8125 -10.796875 
Q 8.109375 -14.109375 9.5 -15.546875 
Q 10.890625 -17 13.8125 -17 
Q 16.5 -17 18.140625 -15.5 
Q 19.78125 -14.015625 21.578125 -9.515625 
z
" id="DejaVuSerif-79"/>
    </defs>
    <g style="fill:#262626;" transform="translate(73.041906 27.568)scale(0.096 -0.096)">
     <use xlink:href="#DejaVuSerif-44"/>
     <use x="80.175781" xlink:href="#DejaVuSerif-65"/>
     <use x="139.355469" xlink:href="#DejaVuSerif-6e"/>
     <use x="203.759766" xlink:href="#DejaVuSerif-73"/>
     <use x="255.078125" xlink:href="#DejaVuSerif-69"/>
     <use x="287.060547" xlink:href="#DejaVuSerif-74"/>
     <use x="327.246094" xlink:href="#DejaVuSerif-79"/>
    </g>
   </g>
   <g id="legend_1">
    <g id="line2d_23">
     <path d="M 97.518812 44.04675 
L 113.518812 44.04675 
" style="fill:none;stroke:#4c72b0;stroke-linecap:round;stroke-width:1.4;"/>
    </g>
    <g id="line2d_24"/>
    <g id="text_12">
     <!-- agg -->
     <defs>
      <path d="M 39.796875 16.3125 
L 39.796875 27.296875 
L 28.21875 27.296875 
Q 21.53125 27.296875 18.25 24.40625 
Q 14.984375 21.53125 14.984375 15.578125 
Q 14.984375 10.15625 18.296875 6.984375 
Q 21.625 3.8125 27.296875 3.8125 
Q 32.90625 3.8125 36.34375 7.28125 
Q 39.796875 10.75 39.796875 16.3125 
z
M 48.78125 32.421875 
L 48.78125 5.171875 
L 56.78125 5.171875 
L 56.78125 0 
L 39.796875 0 
L 39.796875 5.609375 
Q 36.8125 2 32.90625 0.28125 
Q 29 -1.421875 23.78125 -1.421875 
Q 15.140625 -1.421875 10.0625 3.171875 
Q 4.984375 7.765625 4.984375 15.578125 
Q 4.984375 23.640625 10.796875 28.078125 
Q 16.609375 32.515625 27.203125 32.515625 
L 39.796875 32.515625 
L 39.796875 36.078125 
Q 39.796875 42 36.203125 45.234375 
Q 32.625 48.484375 26.125 48.484375 
Q 20.75 48.484375 17.578125 46.046875 
Q 14.40625 43.609375 13.625 38.8125 
L 8.984375 38.8125 
L 8.984375 49.3125 
Q 13.671875 51.3125 18.09375 52.3125 
Q 22.515625 53.328125 26.703125 53.328125 
Q 37.5 53.328125 43.140625 47.96875 
Q 48.78125 42.625 48.78125 32.421875 
z
" id="DejaVuSerif-61"/>
      <path d="M 52.484375 46.6875 
L 52.484375 1.125 
Q 52.484375 -10.0625 46.328125 -16.140625 
Q 40.1875 -22.21875 28.8125 -22.21875 
Q 23.6875 -22.21875 19 -21.28125 
Q 14.3125 -20.359375 10.015625 -18.5 
L 10.015625 -7.625 
L 14.703125 -7.625 
Q 15.578125 -12.703125 18.84375 -15.046875 
Q 22.125 -17.390625 28.21875 -17.390625 
Q 36.140625 -17.390625 39.8125 -12.921875 
Q 43.5 -8.453125 43.5 1.125 
L 43.5 8.109375 
Q 40.875 3.21875 36.796875 0.890625 
Q 32.71875 -1.421875 26.703125 -1.421875 
Q 17.140625 -1.421875 11.0625 6.171875 
Q 4.984375 13.765625 4.984375 25.984375 
Q 4.984375 38.1875 11.03125 45.75 
Q 17.09375 53.328125 26.703125 53.328125 
Q 32.71875 53.328125 36.796875 51 
Q 40.875 48.6875 43.5 43.796875 
L 43.5 51.90625 
L 61.078125 51.90625 
L 61.078125 46.6875 
z
M 43.5 28.515625 
Q 43.5 37.84375 39.90625 42.765625 
Q 36.328125 47.703125 29.5 47.703125 
Q 22.5625 47.703125 19.015625 42.234375 
Q 15.484375 36.765625 15.484375 25.984375 
Q 15.484375 15.234375 19.015625 9.71875 
Q 22.5625 4.203125 29.5 4.203125 
Q 36.328125 4.203125 39.90625 9.109375 
Q 43.5 14.015625 43.5 23.390625 
z
" id="DejaVuSerif-67"/>
     </defs>
     <g style="fill:#262626;" transform="translate(119.918812 46.84675)scale(0.08 -0.08)">
      <use xlink:href="#DejaVuSerif-61"/>
      <use x="59.619141" xlink:href="#DejaVuSerif-67"/>
      <use x="123.632812" xlink:href="#DejaVuSerif-67"/>
     </g>
    </g>
    <g id="line2d_25">
     <path d="M 97.518812 55.903 
L 113.518812 55.903 
" style="fill:none;stroke:#55a868;stroke-linecap:round;stroke-width:1.4;"/>
    </g>
    <g id="line2d_26"/>
    <g id="text_13">
     <!-- sev -->
     <defs>
      <path d="M 24.703125 0 
L 5.609375 46.6875 
L -0.296875 46.6875 
L -0.296875 51.90625 
L 23.578125 51.90625 
L 23.578125 46.6875 
L 15.28125 46.6875 
L 29.890625 10.984375 
L 44.484375 46.6875 
L 36.71875 46.6875 
L 36.71875 51.90625 
L 56.203125 51.90625 
L 56.203125 46.6875 
L 50.390625 46.6875 
L 31.296875 0 
z
" id="DejaVuSerif-76"/>
     </defs>
     <g style="fill:#262626;" transform="translate(119.918812 58.703)scale(0.08 -0.08)">
      <use xlink:href="#DejaVuSerif-73"/>
      <use x="51.318359" xlink:href="#DejaVuSerif-65"/>
      <use x="110.498047" xlink:href="#DejaVuSerif-76"/>
     </g>
    </g>
   </g>
  </g>
  <g id="axes_2">
   <g id="patch_7">
    <path d="M 178.224312 130.232 
L 279.563124 130.232 
L 279.563124 33.568 
L 178.224312 33.568 
z
" style="fill:#eaeaf2;"/>
   </g>
   <g id="matplotlib.axis_3">
    <g id="xtick_5">
     <g id="line2d_27">
      <path clip-path="url(#p284f85f315)" d="M 182.830622 130.232 
L 182.830622 33.568 
" style="fill:none;stroke:#ffffff;stroke-linecap:round;stroke-width:0.8;"/>
     </g>
     <g id="line2d_28"/>
     <g id="text_14">
      <!-- 0 -->
      <g style="fill:#262626;" transform="translate(180.285622 141.91075)scale(0.08 -0.08)">
       <use xlink:href="#DejaVuSerif-30"/>
      </g>
     </g>
    </g>
    <g id="xtick_6">
     <g id="line2d_29">
      <path clip-path="url(#p284f85f315)" d="M 209.665562 130.232 
L 209.665562 33.568 
" style="fill:none;stroke:#ffffff;stroke-linecap:round;stroke-width:0.8;"/>
     </g>
     <g id="line2d_30"/>
     <g id="text_15">
      <!-- 1000 -->
      <g style="fill:#262626;" transform="translate(199.485562 141.91075)scale(0.08 -0.08)">
       <use xlink:href="#DejaVuSerif-31"/>
       <use x="63.623047" xlink:href="#DejaVuSerif-30"/>
       <use x="127.246094" xlink:href="#DejaVuSerif-30"/>
       <use x="190.869141" xlink:href="#DejaVuSerif-30"/>
      </g>
     </g>
    </g>
    <g id="xtick_7">
     <g id="line2d_31">
      <path clip-path="url(#p284f85f315)" d="M 236.500502 130.232 
L 236.500502 33.568 
" style="fill:none;stroke:#ffffff;stroke-linecap:round;stroke-width:0.8;"/>
     </g>
     <g id="line2d_32"/>
     <g id="text_16">
      <!-- 2000 -->
      <g style="fill:#262626;" transform="translate(226.320502 141.91075)scale(0.08 -0.08)">
       <use xlink:href="#DejaVuSerif-32"/>
       <use x="63.623047" xlink:href="#DejaVuSerif-30"/>
       <use x="127.246094" xlink:href="#DejaVuSerif-30"/>
       <use x="190.869141" xlink:href="#DejaVuSerif-30"/>
      </g>
     </g>
    </g>
    <g id="xtick_8">
     <g id="line2d_33">
      <path clip-path="url(#p284f85f315)" d="M 263.335442 130.232 
L 263.335442 33.568 
" style="fill:none;stroke:#ffffff;stroke-linecap:round;stroke-width:0.8;"/>
     </g>
     <g id="line2d_34"/>
     <g id="text_17">
      <!-- 3000 -->
      <g style="fill:#262626;" transform="translate(253.155442 141.91075)scale(0.08 -0.08)">
       <use xlink:href="#DejaVuSerif-33"/>
       <use x="63.623047" xlink:href="#DejaVuSerif-30"/>
       <use x="127.246094" xlink:href="#DejaVuSerif-30"/>
       <use x="190.869141" xlink:href="#DejaVuSerif-30"/>
      </g>
     </g>
    </g>
   </g>
   <g id="matplotlib.axis_4">
    <g id="ytick_7">
     <g id="line2d_35">
      <path clip-path="url(#p284f85f315)" d="M 178.224312 108.596847 
L 279.563124 108.596847 
" style="fill:none;stroke:#ffffff;stroke-linecap:round;stroke-width:0.8;"/>
     </g>
     <g id="line2d_36"/>
     <g id="text_18">
      <!-- $\mathdefault{10^{-7}}$ -->
      <defs>
       <path d="M 10.59375 35.296875 
L 73.1875 35.296875 
L 73.1875 27.390625 
L 10.59375 27.390625 
z
" id="DejaVuSerif-2212"/>
       <path d="M 56.390625 67.921875 
L 27.875 0 
L 20.609375 0 
L 47.796875 64.890625 
L 14.109375 64.890625 
L 14.109375 55.90625 
L 8.40625 55.90625 
L 8.40625 72.90625 
L 56.390625 72.90625 
z
" id="DejaVuSerif-37"/>
      </defs>
      <g style="fill:#262626;" transform="translate(153.904312 111.636222)scale(0.08 -0.08)">
       <use transform="translate(0 0.63125)" xlink:href="#DejaVuSerif-31"/>
       <use transform="translate(63.623047 0.63125)" xlink:href="#DejaVuSerif-30"/>
       <use transform="translate(128.154453 36.965625)scale(0.7)" xlink:href="#DejaVuSerif-2212"/>
       <use transform="translate(186.806797 36.965625)scale(0.7)" xlink:href="#DejaVuSerif-37"/>
      </g>
     </g>
    </g>
    <g id="ytick_8">
     <g id="line2d_37">
      <path clip-path="url(#p284f85f315)" d="M 178.224312 85.702912 
L 279.563124 85.702912 
" style="fill:none;stroke:#ffffff;stroke-linecap:round;stroke-width:0.8;"/>
     </g>
     <g id="line2d_38"/>
     <g id="text_19">
      <!-- $\mathdefault{10^{-5}}$ -->
      <g style="fill:#262626;" transform="translate(153.904312 88.742287)scale(0.08 -0.08)">
       <use transform="translate(0 0.63125)" xlink:href="#DejaVuSerif-31"/>
       <use transform="translate(63.623047 0.63125)" xlink:href="#DejaVuSerif-30"/>
       <use transform="translate(128.154453 36.965625)scale(0.7)" xlink:href="#DejaVuSerif-2212"/>
       <use transform="translate(186.806797 36.965625)scale(0.7)" xlink:href="#DejaVuSerif-35"/>
      </g>
     </g>
    </g>
    <g id="ytick_9">
     <g id="line2d_39">
      <path clip-path="url(#p284f85f315)" d="M 178.224312 62.808978 
L 279.563124 62.808978 
" style="fill:none;stroke:#ffffff;stroke-linecap:round;stroke-width:0.8;"/>
     </g>
     <g id="line2d_40"/>
     <g id="text_20">
      <!-- $\mathdefault{10^{-3}}$ -->
      <g style="fill:#262626;" transform="translate(153.904312 65.848353)scale(0.08 -0.08)">
       <use transform="translate(0 0.7125)" xlink:href="#DejaVuSerif-31"/>
       <use transform="translate(63.623047 0.7125)" xlink:href="#DejaVuSerif-30"/>
       <use transform="translate(128.154453 37.046875)scale(0.7)" xlink:href="#DejaVuSerif-2212"/>
       <use transform="translate(186.806797 37.046875)scale(0.7)" xlink:href="#DejaVuSerif-33"/>
      </g>
     </g>
    </g>
    <g id="ytick_10">
     <g id="line2d_41">
      <path clip-path="url(#p284f85f315)" d="M 178.224312 39.915043 
L 279.563124 39.915043 
" style="fill:none;stroke:#ffffff;stroke-linecap:round;stroke-width:0.8;"/>
     </g>
     <g id="line2d_42"/>
     <g id="text_21">
      <!-- $\mathdefault{10^{-1}}$ -->
      <g style="fill:#262626;" transform="translate(153.904312 42.954418)scale(0.08 -0.08)">
       <use transform="translate(0 0.7125)" xlink:href="#DejaVuSerif-31"/>
       <use transform="translate(63.623047 0.7125)" xlink:href="#DejaVuSerif-30"/>
       <use transform="translate(128.154453 37.046875)scale(0.7)" xlink:href="#DejaVuSerif-2212"/>
       <use transform="translate(186.806797 37.046875)scale(0.7)" xlink:href="#DejaVuSerif-31"/>
      </g>
     </g>
    </g>
   </g>
   <g id="line2d_43">
    <path clip-path="url(#p284f85f315)" d="M 182.830622 94.79266 
L 182.853119 95.450285 
L 182.875616 94.315443 
L 183.16808 86.223247 
L 183.595528 80.425534 
L 184.135461 76.009736 
L 184.765384 72.589152 
L 185.485296 69.857155 
L 186.272699 67.708827 
L 187.127594 66.006737 
L 188.027484 64.694382 
L 188.994865 63.671441 
L 190.029738 62.902718 
L 191.132103 62.361374 
L 192.346954 62.017414 
L 193.674291 61.874744 
L 195.181606 61.940548 
L 196.913893 62.246349 
L 198.916147 62.833318 
L 201.278357 63.766802 
L 204.090512 65.125992 
L 207.555087 67.05818 
L 212.077032 69.850688 
L 219.366137 74.651498 
L 229.624878 81.36344 
L 235.519155 84.943722 
L 240.783509 87.884134 
L 245.845387 90.458213 
L 250.929763 92.794493 
L 256.216614 94.977397 
L 261.840924 97.05651 
L 267.960173 99.078101 
L 274.709345 101.070165 
L 274.956814 101.139121 
L 274.956814 101.139121 
" style="fill:none;stroke:#4c72b0;stroke-linecap:round;stroke-width:1.4;"/>
   </g>
   <g id="line2d_44">
    <path clip-path="url(#p284f85f315)" d="M 182.830622 41.812682 
L 182.853119 37.961818 
L 182.920611 41.921375 
L 183.213075 50.796472 
L 183.663019 57.655533 
L 184.247948 63.175693 
L 184.967859 67.876026 
L 185.822754 71.999553 
L 186.812633 75.687069 
L 187.937495 79.03011 
L 189.219837 82.142351 
L 190.637163 85.0051 
L 192.234467 87.730377 
L 194.011749 90.319765 
L 195.969009 92.77952 
L 198.151241 95.163912 
L 200.580943 97.485317 
L 203.258114 99.734177 
L 206.250247 101.953532 
L 209.557341 104.127021 
L 213.246888 106.28212 
L 217.341386 108.412778 
L 221.908325 110.534317 
L 226.970204 112.637393 
L 232.617011 114.739009 
L 238.893741 116.834233 
L 245.890382 118.931327 
L 253.674426 121.02819 
L 262.335863 123.127044 
L 271.964681 125.227684 
L 274.956814 125.838182 
L 274.956814 125.838182 
" style="fill:none;stroke:#55a868;stroke-linecap:round;stroke-width:1.4;"/>
   </g>
   <g id="patch_8">
    <path d="M 178.224312 130.232 
L 178.224312 33.568 
" style="fill:none;"/>
   </g>
   <g id="patch_9">
    <path d="M 279.563124 130.232 
L 279.563124 33.568 
" style="fill:none;"/>
   </g>
   <g id="patch_10">
    <path d="M 178.224312 130.232 
L 279.563124 130.232 
" style="fill:none;"/>
   </g>
   <g id="patch_11">
    <path d="M 178.224312 33.568 
L 279.563124 33.568 
" style="fill:none;"/>
   </g>
   <g id="text_22">
    <!-- Log Density -->
    <defs>
     <path d="M 5.515625 0 
L 5.515625 5.171875 
L 14.796875 5.171875 
L 14.796875 67.671875 
L 5.515625 67.671875 
L 5.515625 72.90625 
L 33.984375 72.90625 
L 33.984375 67.671875 
L 24.703125 67.671875 
L 24.703125 6 
L 58.015625 6 
L 58.015625 18.21875 
L 64.015625 18.21875 
L 64.015625 0 
z
" id="DejaVuSerif-4c"/>
     <path d="M 30.078125 3.421875 
Q 37.3125 3.421875 40.984375 9.125 
Q 44.671875 14.84375 44.671875 25.984375 
Q 44.671875 37.109375 40.984375 42.796875 
Q 37.3125 48.484375 30.078125 48.484375 
Q 22.859375 48.484375 19.171875 42.796875 
Q 15.484375 37.109375 15.484375 25.984375 
Q 15.484375 14.84375 19.1875 9.125 
Q 22.90625 3.421875 30.078125 3.421875 
z
M 30.078125 -1.421875 
Q 18.75 -1.421875 11.859375 6.078125 
Q 4.984375 13.578125 4.984375 25.984375 
Q 4.984375 38.375 11.84375 45.84375 
Q 18.703125 53.328125 30.078125 53.328125 
Q 41.453125 53.328125 48.3125 45.84375 
Q 55.171875 38.375 55.171875 25.984375 
Q 55.171875 13.578125 48.3125 6.078125 
Q 41.453125 -1.421875 30.078125 -1.421875 
z
" id="DejaVuSerif-6f"/>
     <path id="DejaVuSerif-20"/>
    </defs>
    <g style="fill:#262626;" transform="translate(199.798218 27.568)scale(0.096 -0.096)">
     <use xlink:href="#DejaVuSerif-4c"/>
     <use x="66.40625" xlink:href="#DejaVuSerif-6f"/>
     <use x="126.611328" xlink:href="#DejaVuSerif-67"/>
     <use x="190.625" xlink:href="#DejaVuSerif-20"/>
     <use x="222.412109" xlink:href="#DejaVuSerif-44"/>
     <use x="302.587891" xlink:href="#DejaVuSerif-65"/>
     <use x="361.767578" xlink:href="#DejaVuSerif-6e"/>
     <use x="426.171875" xlink:href="#DejaVuSerif-73"/>
     <use x="477.490234" xlink:href="#DejaVuSerif-69"/>
     <use x="509.472656" xlink:href="#DejaVuSerif-74"/>
     <use x="549.658203" xlink:href="#DejaVuSerif-79"/>
    </g>
   </g>
   <g id="legend_2">
    <g id="line2d_45">
     <path d="M 234.950624 44.04675 
L 250.950624 44.04675 
" style="fill:none;stroke:#4c72b0;stroke-linecap:round;stroke-width:1.4;"/>
    </g>
    <g id="line2d_46"/>
    <g id="text_23">
     <!-- agg -->
     <g style="fill:#262626;" transform="translate(257.350624 46.84675)scale(0.08 -0.08)">
      <use xlink:href="#DejaVuSerif-61"/>
      <use x="59.619141" xlink:href="#DejaVuSerif-67"/>
      <use x="123.632812" xlink:href="#DejaVuSerif-67"/>
     </g>
    </g>
    <g id="line2d_47">
     <path d="M 234.950624 55.903 
L 250.950624 55.903 
" style="fill:none;stroke:#55a868;stroke-linecap:round;stroke-width:1.4;"/>
    </g>
    <g id="line2d_48"/>
    <g id="text_24">
     <!-- sev -->
     <g style="fill:#262626;" transform="translate(257.350624 58.703)scale(0.08 -0.08)">
      <use xlink:href="#DejaVuSerif-73"/>
      <use x="51.318359" xlink:href="#DejaVuSerif-65"/>
      <use x="110.498047" xlink:href="#DejaVuSerif-76"/>
     </g>
    </g>
   </g>
  </g>
  <g id="axes_3">
   <g id="patch_12">
    <path d="M 315.656124 130.232 
L 416.994936 130.232 
L 416.994936 33.568 
L 315.656124 33.568 
z
" style="fill:#eaeaf2;"/>
   </g>
   <g id="matplotlib.axis_5">
    <g id="xtick_9">
     <g id="line2d_49">
      <path clip-path="url(#pa3400d68e9)" d="M 320.262286 130.232 
L 320.262286 33.568 
" style="fill:none;stroke:#ffffff;stroke-linecap:round;stroke-width:0.8;"/>
     </g>
     <g id="line2d_50"/>
     <g id="text_25">
      <!-- 0.0 -->
      <g style="fill:#262626;" transform="translate(313.901036 141.91075)scale(0.08 -0.08)">
       <use xlink:href="#DejaVuSerif-30"/>
       <use x="63.623047" xlink:href="#DejaVuSerif-2e"/>
       <use x="95.410156" xlink:href="#DejaVuSerif-30"/>
      </g>
     </g>
    </g>
    <g id="xtick_10">
     <g id="line2d_51">
      <path clip-path="url(#pa3400d68e9)" d="M 366.325456 130.232 
L 366.325456 33.568 
" style="fill:none;stroke:#ffffff;stroke-linecap:round;stroke-width:0.8;"/>
     </g>
     <g id="line2d_52"/>
     <g id="text_26">
      <!-- 0.5 -->
      <g style="fill:#262626;" transform="translate(359.964206 141.91075)scale(0.08 -0.08)">
       <use xlink:href="#DejaVuSerif-30"/>
       <use x="63.623047" xlink:href="#DejaVuSerif-2e"/>
       <use x="95.410156" xlink:href="#DejaVuSerif-35"/>
      </g>
     </g>
    </g>
    <g id="xtick_11">
     <g id="line2d_53">
      <path clip-path="url(#pa3400d68e9)" d="M 412.388626 130.232 
L 412.388626 33.568 
" style="fill:none;stroke:#ffffff;stroke-linecap:round;stroke-width:0.8;"/>
     </g>
     <g id="line2d_54"/>
     <g id="text_27">
      <!-- 1.0 -->
      <g style="fill:#262626;" transform="translate(406.027376 141.91075)scale(0.08 -0.08)">
       <use xlink:href="#DejaVuSerif-31"/>
       <use x="63.623047" xlink:href="#DejaVuSerif-2e"/>
       <use x="95.410156" xlink:href="#DejaVuSerif-30"/>
      </g>
     </g>
    </g>
   </g>
   <g id="matplotlib.axis_6">
    <g id="ytick_11">
     <g id="line2d_55">
      <path clip-path="url(#pa3400d68e9)" d="M 315.656124 125.838182 
L 416.994936 125.838182 
" style="fill:none;stroke:#ffffff;stroke-linecap:round;stroke-width:0.8;"/>
     </g>
     <g id="line2d_56"/>
     <g id="text_28">
      <!-- 0 -->
      <g style="fill:#262626;" transform="translate(304.966124 128.877557)scale(0.08 -0.08)">
       <use xlink:href="#DejaVuSerif-30"/>
      </g>
     </g>
    </g>
    <g id="ytick_12">
     <g id="line2d_57">
      <path clip-path="url(#pa3400d68e9)" d="M 315.656124 100.241152 
L 416.994936 100.241152 
" style="fill:none;stroke:#ffffff;stroke-linecap:round;stroke-width:0.8;"/>
     </g>
     <g id="line2d_58"/>
     <g id="text_29">
      <!-- 1000 -->
      <g style="fill:#262626;" transform="translate(289.696124 103.280527)scale(0.08 -0.08)">
       <use xlink:href="#DejaVuSerif-31"/>
       <use x="63.623047" xlink:href="#DejaVuSerif-30"/>
       <use x="127.246094" xlink:href="#DejaVuSerif-30"/>
       <use x="190.869141" xlink:href="#DejaVuSerif-30"/>
      </g>
     </g>
    </g>
    <g id="ytick_13">
     <g id="line2d_59">
      <path clip-path="url(#pa3400d68e9)" d="M 315.656124 74.644121 
L 416.994936 74.644121 
" style="fill:none;stroke:#ffffff;stroke-linecap:round;stroke-width:0.8;"/>
     </g>
     <g id="line2d_60"/>
     <g id="text_30">
      <!-- 2000 -->
      <g style="fill:#262626;" transform="translate(289.696124 77.683496)scale(0.08 -0.08)">
       <use xlink:href="#DejaVuSerif-32"/>
       <use x="63.623047" xlink:href="#DejaVuSerif-30"/>
       <use x="127.246094" xlink:href="#DejaVuSerif-30"/>
       <use x="190.869141" xlink:href="#DejaVuSerif-30"/>
      </g>
     </g>
    </g>
    <g id="ytick_14">
     <g id="line2d_61">
      <path clip-path="url(#pa3400d68e9)" d="M 315.656124 49.047091 
L 416.994936 49.047091 
" style="fill:none;stroke:#ffffff;stroke-linecap:round;stroke-width:0.8;"/>
     </g>
     <g id="line2d_62"/>
     <g id="text_31">
      <!-- 3000 -->
      <g style="fill:#262626;" transform="translate(289.696124 52.086466)scale(0.08 -0.08)">
       <use xlink:href="#DejaVuSerif-33"/>
       <use x="63.623047" xlink:href="#DejaVuSerif-30"/>
       <use x="127.246094" xlink:href="#DejaVuSerif-30"/>
       <use x="190.869141" xlink:href="#DejaVuSerif-30"/>
      </g>
     </g>
    </g>
   </g>
   <g id="line2d_63">
    <path clip-path="url(#pa3400d68e9)" d="M 320.262434 125.838182 
L 320.379246 124.700832 
L 320.679341 123.992671 
L 321.197809 123.348888 
L 322.035605 122.683646 
L 323.303344 121.975485 
L 325.204427 121.181486 
L 328.033684 120.25873 
L 332.162929 119.164299 
L 338.280713 117.790896 
L 348.603038 115.730791 
L 368.111695 111.846634 
L 376.488766 109.936745 
L 382.95759 108.24145 
L 388.164626 106.653452 
L 392.418069 105.129832 
L 395.911644 103.649132 
L 398.802906 102.189891 
L 401.21459 100.730649 
L 403.23978 99.249949 
L 404.926179 97.747789 
L 406.355261 96.18125 
L 407.563409 94.528874 
L 408.589082 92.747742 
L 409.454896 90.794934 
L 410.186816 88.584612 
L 410.79757 86.009481 
L 411.294027 82.919323 
L 411.688851 78.992247 
L 411.987423 73.648849 
L 412.196899 65.537185 
L 412.327747 50.558503 
L 412.364847 37.961818 
L 412.364847 37.961818 
" style="fill:none;stroke:#4c72b0;stroke-linecap:round;stroke-width:1.4;"/>
   </g>
   <g id="line2d_64">
    <path clip-path="url(#pa3400d68e9)" d="M 326.551657 125.838182 
L 382.483391 125.645047 
L 398.115881 125.387534 
L 404.38045 125.087102 
L 407.616493 124.722291 
L 409.345107 124.314562 
L 410.353228 123.863914 
L 411.018338 123.327429 
L 411.476801 122.662186 
L 411.809917 121.76089 
L 412.056693 120.387487 
L 412.229444 118.00549 
L 412.335395 112.876686 
L 412.381696 95.902278 
L 412.388626 37.961818 
L 412.388626 37.961818 
" style="fill:none;stroke:#55a868;stroke-linecap:round;stroke-width:1.4;"/>
   </g>
   <g id="patch_13">
    <path d="M 315.656124 130.232 
L 315.656124 33.568 
" style="fill:none;"/>
   </g>
   <g id="patch_14">
    <path d="M 416.994936 130.232 
L 416.994936 33.568 
" style="fill:none;"/>
   </g>
   <g id="patch_15">
    <path d="M 315.656124 130.232 
L 416.994936 130.232 
" style="fill:none;"/>
   </g>
   <g id="patch_16">
    <path d="M 315.656124 33.568 
L 416.994936 33.568 
" style="fill:none;"/>
   </g>
   <g id="text_32">
    <!-- Lee Diagram -->
    <defs>
     <path d="M 47.796875 52 
L 47.796875 39.015625 
L 42.625 39.015625 
Q 42.390625 42.875 40.484375 44.78125 
Q 38.578125 46.6875 34.90625 46.6875 
Q 28.265625 46.6875 24.71875 42.09375 
Q 21.1875 37.5 21.1875 28.90625 
L 21.1875 5.171875 
L 31.59375 5.171875 
L 31.59375 0 
L 4.109375 0 
L 4.109375 5.171875 
L 12.203125 5.171875 
L 12.203125 46.78125 
L 3.609375 46.78125 
L 3.609375 51.90625 
L 21.1875 51.90625 
L 21.1875 42.671875 
Q 23.828125 48.09375 27.96875 50.703125 
Q 32.125 53.328125 38.09375 53.328125 
Q 40.28125 53.328125 42.703125 52.984375 
Q 45.125 52.640625 47.796875 52 
z
" id="DejaVuSerif-72"/>
     <path d="M 51.8125 41.796875 
Q 54.390625 47.515625 58.421875 50.421875 
Q 62.453125 53.328125 67.828125 53.328125 
Q 75.984375 53.328125 79.984375 48.265625 
Q 83.984375 43.21875 83.984375 33.015625 
L 83.984375 5.171875 
L 92.09375 5.171875 
L 92.09375 0 
L 67.1875 0 
L 67.1875 5.171875 
L 75 5.171875 
L 75 31.984375 
Q 75 39.9375 72.65625 43.3125 
Q 70.3125 46.6875 64.890625 46.6875 
Q 58.890625 46.6875 55.734375 42.140625 
Q 52.59375 37.59375 52.59375 28.90625 
L 52.59375 5.171875 
L 60.40625 5.171875 
L 60.40625 0 
L 35.796875 0 
L 35.796875 5.171875 
L 43.609375 5.171875 
L 43.609375 32.328125 
Q 43.609375 40.09375 41.265625 43.390625 
Q 38.921875 46.6875 33.5 46.6875 
Q 27.484375 46.6875 24.328125 42.140625 
Q 21.1875 37.59375 21.1875 28.90625 
L 21.1875 5.171875 
L 29 5.171875 
L 29 0 
L 4.109375 0 
L 4.109375 5.171875 
L 12.203125 5.171875 
L 12.203125 46.78125 
L 3.609375 46.78125 
L 3.609375 51.90625 
L 21.1875 51.90625 
L 21.1875 42.671875 
Q 23.6875 47.859375 27.53125 50.59375 
Q 31.390625 53.328125 36.28125 53.328125 
Q 42.328125 53.328125 46.375 50.3125 
Q 50.4375 47.3125 51.8125 41.796875 
z
" id="DejaVuSerif-6d"/>
    </defs>
    <g style="fill:#262626;" transform="translate(334.90428 27.568)scale(0.096 -0.096)">
     <use xlink:href="#DejaVuSerif-4c"/>
     <use x="66.40625" xlink:href="#DejaVuSerif-65"/>
     <use x="125.585938" xlink:href="#DejaVuSerif-65"/>
     <use x="184.765625" xlink:href="#DejaVuSerif-20"/>
     <use x="216.552734" xlink:href="#DejaVuSerif-44"/>
     <use x="296.728516" xlink:href="#DejaVuSerif-69"/>
     <use x="328.710938" xlink:href="#DejaVuSerif-61"/>
     <use x="388.330078" xlink:href="#DejaVuSerif-67"/>
     <use x="452.34375" xlink:href="#DejaVuSerif-72"/>
     <use x="500.146484" xlink:href="#DejaVuSerif-61"/>
     <use x="559.765625" xlink:href="#DejaVuSerif-6d"/>
    </g>
   </g>
   <g id="legend_3">
    <g id="line2d_65">
     <path d="M 322.856124 44.04675 
L 338.856124 44.04675 
" style="fill:none;stroke:#4c72b0;stroke-linecap:round;stroke-width:1.4;"/>
    </g>
    <g id="line2d_66"/>
    <g id="text_33">
     <!-- Agg -->
     <defs>
      <path d="M 20.015625 26.421875 
L 46.78125 26.421875 
L 33.40625 61.078125 
z
M -0.59375 0 
L -0.59375 5.171875 
L 5.8125 5.171875 
L 31.78125 72.90625 
L 39.984375 72.90625 
L 66.015625 5.171875 
L 73.1875 5.171875 
L 73.1875 0 
L 46.6875 0 
L 46.6875 5.171875 
L 54.78125 5.171875 
L 48.6875 21.1875 
L 18.015625 21.1875 
L 11.921875 5.171875 
L 19.921875 5.171875 
L 19.921875 0 
z
" id="DejaVuSerif-41"/>
     </defs>
     <g style="fill:#262626;" transform="translate(345.256124 46.84675)scale(0.08 -0.08)">
      <use xlink:href="#DejaVuSerif-41"/>
      <use x="72.216797" xlink:href="#DejaVuSerif-67"/>
      <use x="136.230469" xlink:href="#DejaVuSerif-67"/>
     </g>
    </g>
    <g id="line2d_67">
     <path d="M 322.856124 55.903 
L 338.856124 55.903 
" style="fill:none;stroke:#55a868;stroke-linecap:round;stroke-width:1.4;"/>
    </g>
    <g id="line2d_68"/>
    <g id="text_34">
     <!-- Sev -->
     <defs>
      <path d="M 9.28125 3.515625 
L 9.28125 20.125 
L 14.890625 20.0625 
Q 15.140625 11.765625 19.703125 7.78125 
Q 24.265625 3.8125 33.59375 3.8125 
Q 42.28125 3.8125 46.84375 7.25 
Q 51.421875 10.6875 51.421875 17.28125 
Q 51.421875 22.5625 48.65625 25.390625 
Q 45.90625 28.21875 37.015625 30.90625 
L 27.390625 33.796875 
Q 16.9375 36.96875 12.671875 41.703125 
Q 8.40625 46.4375 8.40625 54.6875 
Q 8.40625 63.96875 14.984375 69.09375 
Q 21.578125 74.21875 33.5 74.21875 
Q 38.578125 74.21875 44.625 73.109375 
Q 50.6875 72.015625 57.515625 69.921875 
L 57.515625 54.390625 
L 52 54.390625 
Q 51.171875 62.109375 46.84375 65.546875 
Q 42.53125 69 33.6875 69 
Q 25.984375 69 21.953125 65.84375 
Q 17.921875 62.703125 17.921875 56.6875 
Q 17.921875 51.46875 20.9375 48.484375 
Q 23.96875 45.515625 33.796875 42.578125 
L 42.828125 39.890625 
Q 52.734375 36.921875 56.953125 32.296875 
Q 61.1875 27.6875 61.1875 19.921875 
Q 61.1875 9.328125 54.390625 3.953125 
Q 47.609375 -1.421875 34.1875 -1.421875 
Q 28.171875 -1.421875 21.9375 -0.1875 
Q 15.71875 1.03125 9.28125 3.515625 
z
" id="DejaVuSerif-53"/>
     </defs>
     <g style="fill:#262626;" transform="translate(345.256124 58.703)scale(0.08 -0.08)">
      <use xlink:href="#DejaVuSerif-53"/>
      <use x="68.505859" xlink:href="#DejaVuSerif-65"/>
      <use x="127.685547" xlink:href="#DejaVuSerif-76"/>
     </g>
    </g>
   </g>
  </g>
  <g id="text_35">
   <!-- Aggregate LineA -->
   <g style="fill:#262626;" transform="translate(163.8804 15.7896)scale(0.1152 -0.1152)">
    <use xlink:href="#DejaVuSerif-41"/>
    <use x="72.216797" xlink:href="#DejaVuSerif-67"/>
    <use x="136.230469" xlink:href="#DejaVuSerif-67"/>
    <use x="200.244141" xlink:href="#DejaVuSerif-72"/>
    <use x="248.046875" xlink:href="#DejaVuSerif-65"/>
    <use x="307.226562" xlink:href="#DejaVuSerif-67"/>
    <use x="371.240234" xlink:href="#DejaVuSerif-61"/>
    <use x="430.859375" xlink:href="#DejaVuSerif-74"/>
    <use x="471.044922" xlink:href="#DejaVuSerif-65"/>
    <use x="530.224609" xlink:href="#DejaVuSerif-20"/>
    <use x="562.011719" xlink:href="#DejaVuSerif-4c"/>
    <use x="628.417969" xlink:href="#DejaVuSerif-69"/>
    <use x="660.400391" xlink:href="#DejaVuSerif-6e"/>
    <use x="724.804688" xlink:href="#DejaVuSerif-65"/>
    <use x="783.984375" xlink:href="#DejaVuSerif-41"/>
   </g>
  </g>
 </g>
 <defs>
  <clipPath id="p86eaecf968">
   <rect height="96.664" width="101.338812" x="40.7925" y="33.568"/>
  </clipPath>
  <clipPath id="p284f85f315">
   <rect height="96.664" width="101.338812" x="178.224312" y="33.568"/>
  </clipPath>
  <clipPath id="pa3400d68e9">
   <rect height="96.664" width="101.338812" x="315.656124" y="33.568"/>
  </clipPath>
 </defs>
</svg>
