<?xml version="1.0" encoding="utf-8" standalone="no"?>
<!DOCTYPE svg PUBLIC "-//W3C//DTD SVG 1.1//EN"
  "http://www.w3.org/Graphics/SVG/1.1/DTD/svg11.dtd">
<!-- Created with matplotlib (http://matplotlib.org/) -->
<svg height="150.7745pt" version="1.1" viewBox="0 0 569.94525 150.7745" width="569.94525pt" xmlns="http://www.w3.org/2000/svg" xmlns:xlink="http://www.w3.org/1999/xlink">
 <defs>
  <style type="text/css">
*{stroke-linecap:butt;stroke-linejoin:round;}
  </style>
 </defs>
 <g id="figure_1">
  <g id="patch_1">
   <path d="M 0 150.7745 
L 569.94525 150.7745 
L 569.94525 -0 
L 0 -0 
z
" style="fill:#ffffff;"/>
  </g>
  <g id="axes_1">
   <g id="patch_2">
    <path d="M 30.6125 130.232 
L 131.39625 130.232 
L 131.39625 33.568 
L 30.6125 33.568 
z
" style="fill:#eaeaf2;"/>
   </g>
   <g id="matplotlib.axis_1">
    <g id="xtick_1">
     <g id="line2d_1">
      <path clip-path="url(#pcc911c496f)" d="M 35.19358 130.232 
L 35.19358 33.568 
" style="fill:none;opacity:0.5;stroke:#0000ff;stroke-linecap:round;stroke-width:0.1;"/>
     </g>
     <g id="line2d_2"/>
     <g id="text_1">
      <!-- 0 -->
      <defs>
       <path d="M 31.78125 3.421875 
Q 39.265625 3.421875 42.96875 11.625 
Q 46.6875 19.828125 46.6875 36.375 
Q 46.6875 52.984375 42.96875 61.1875 
Q 39.265625 69.390625 31.78125 69.390625 
Q 24.3125 69.390625 20.59375 61.1875 
Q 16.890625 52.984375 16.890625 36.375 
Q 16.890625 19.828125 20.59375 11.625 
Q 24.3125 3.421875 31.78125 3.421875 
z
M 31.78125 -1.421875 
Q 19.921875 -1.421875 13.25 8.53125 
Q 6.59375 18.5 6.59375 36.375 
Q 6.59375 54.296875 13.25 64.25 
Q 19.921875 74.21875 31.78125 74.21875 
Q 43.703125 74.21875 50.34375 64.25 
Q 56.984375 54.296875 56.984375 36.375 
Q 56.984375 18.5 50.34375 8.53125 
Q 43.703125 -1.421875 31.78125 -1.421875 
z
" id="DejaVuSerif-30"/>
      </defs>
      <g style="fill:#262626;" transform="translate(32.64858 141.91075)scale(0.08 -0.08)">
       <use xlink:href="#DejaVuSerif-30"/>
      </g>
     </g>
    </g>
    <g id="xtick_2">
     <g id="line2d_3">
      <path clip-path="url(#pcc911c496f)" d="M 72.235905 130.232 
L 72.235905 33.568 
" style="fill:none;opacity:0.5;stroke:#0000ff;stroke-linecap:round;stroke-width:0.1;"/>
     </g>
     <g id="line2d_4"/>
     <g id="text_2">
      <!-- 200 -->
      <defs>
       <path d="M 12.796875 55.515625 
L 7.328125 55.515625 
L 7.328125 68.5 
Q 12.546875 71.296875 17.84375 72.75 
Q 23.140625 74.21875 28.21875 74.21875 
Q 39.59375 74.21875 46.1875 68.703125 
Q 52.78125 63.1875 52.78125 53.71875 
Q 52.78125 43.015625 37.84375 28.125 
Q 36.671875 27 36.078125 26.421875 
L 17.671875 8.015625 
L 48.09375 8.015625 
L 48.09375 17 
L 53.8125 17 
L 53.8125 0 
L 6.78125 0 
L 6.78125 5.328125 
L 28.90625 27.390625 
Q 36.234375 34.71875 39.359375 40.84375 
Q 42.484375 46.96875 42.484375 53.71875 
Q 42.484375 61.078125 38.640625 65.234375 
Q 34.8125 69.390625 28.078125 69.390625 
Q 21.09375 69.390625 17.28125 65.921875 
Q 13.484375 62.453125 12.796875 55.515625 
z
" id="DejaVuSerif-32"/>
      </defs>
      <g style="fill:#262626;" transform="translate(64.600905 141.91075)scale(0.08 -0.08)">
       <use xlink:href="#DejaVuSerif-32"/>
       <use x="63.623047" xlink:href="#DejaVuSerif-30"/>
       <use x="127.246094" xlink:href="#DejaVuSerif-30"/>
      </g>
     </g>
    </g>
    <g id="xtick_3">
     <g id="line2d_5">
      <path clip-path="url(#pcc911c496f)" d="M 109.27823 130.232 
L 109.27823 33.568 
" style="fill:none;opacity:0.5;stroke:#0000ff;stroke-linecap:round;stroke-width:0.1;"/>
     </g>
     <g id="line2d_6"/>
     <g id="text_3">
      <!-- 400 -->
      <defs>
       <path d="M 34.90625 24.703125 
L 34.90625 63.484375 
L 10.015625 24.703125 
z
M 56.390625 0 
L 23.1875 0 
L 23.1875 5.171875 
L 34.90625 5.171875 
L 34.90625 19.484375 
L 3.078125 19.484375 
L 3.078125 24.8125 
L 35.015625 74.21875 
L 44.671875 74.21875 
L 44.671875 24.703125 
L 58.59375 24.703125 
L 58.59375 19.484375 
L 44.671875 19.484375 
L 44.671875 5.171875 
L 56.390625 5.171875 
z
" id="DejaVuSerif-34"/>
      </defs>
      <g style="fill:#262626;" transform="translate(101.64323 141.91075)scale(0.08 -0.08)">
       <use xlink:href="#DejaVuSerif-34"/>
       <use x="63.623047" xlink:href="#DejaVuSerif-30"/>
       <use x="127.246094" xlink:href="#DejaVuSerif-30"/>
      </g>
     </g>
    </g>
   </g>
   <g id="matplotlib.axis_2">
    <g id="ytick_1">
     <g id="line2d_7">
      <path clip-path="url(#pcc911c496f)" d="M 30.6125 125.838182 
L 131.39625 125.838182 
" style="fill:none;opacity:0.5;stroke:#0000ff;stroke-linecap:round;stroke-width:0.1;"/>
     </g>
     <g id="line2d_8"/>
     <g id="text_4">
      <!-- 0.00 -->
      <defs>
       <path d="M 9.421875 5.078125 
Q 9.421875 7.8125 11.28125 9.71875 
Q 13.140625 11.625 15.921875 11.625 
Q 18.609375 11.625 20.5 9.71875 
Q 22.40625 7.8125 22.40625 5.078125 
Q 22.40625 2.390625 20.5 0.484375 
Q 18.609375 -1.421875 15.921875 -1.421875 
Q 13.140625 -1.421875 11.28125 0.453125 
Q 9.421875 2.34375 9.421875 5.078125 
z
" id="DejaVuSerif-2e"/>
      </defs>
      <g style="fill:#262626;" transform="translate(7.2 128.877557)scale(0.08 -0.08)">
       <use xlink:href="#DejaVuSerif-30"/>
       <use x="63.623047" xlink:href="#DejaVuSerif-2e"/>
       <use x="95.410156" xlink:href="#DejaVuSerif-30"/>
       <use x="159.033203" xlink:href="#DejaVuSerif-30"/>
      </g>
     </g>
    </g>
    <g id="ytick_2">
     <g id="line2d_9">
      <path clip-path="url(#pcc911c496f)" d="M 30.6125 109.682351 
L 131.39625 109.682351 
" style="fill:none;opacity:0.5;stroke:#0000ff;stroke-linecap:round;stroke-width:0.1;"/>
     </g>
     <g id="line2d_10"/>
     <g id="text_5">
      <!-- 0.01 -->
      <defs>
       <path d="M 14.203125 0 
L 14.203125 5.171875 
L 26.90625 5.171875 
L 26.90625 65.828125 
L 12.203125 56.296875 
L 12.203125 62.703125 
L 29.984375 74.21875 
L 36.71875 74.21875 
L 36.71875 5.171875 
L 49.421875 5.171875 
L 49.421875 0 
z
" id="DejaVuSerif-31"/>
      </defs>
      <g style="fill:#262626;" transform="translate(7.2 112.721726)scale(0.08 -0.08)">
       <use xlink:href="#DejaVuSerif-30"/>
       <use x="63.623047" xlink:href="#DejaVuSerif-2e"/>
       <use x="95.410156" xlink:href="#DejaVuSerif-30"/>
       <use x="159.033203" xlink:href="#DejaVuSerif-31"/>
      </g>
     </g>
    </g>
    <g id="ytick_3">
     <g id="line2d_11">
      <path clip-path="url(#pcc911c496f)" d="M 30.6125 93.526519 
L 131.39625 93.526519 
" style="fill:none;opacity:0.5;stroke:#0000ff;stroke-linecap:round;stroke-width:0.1;"/>
     </g>
     <g id="line2d_12"/>
     <g id="text_6">
      <!-- 0.02 -->
      <g style="fill:#262626;" transform="translate(7.2 96.565894)scale(0.08 -0.08)">
       <use xlink:href="#DejaVuSerif-30"/>
       <use x="63.623047" xlink:href="#DejaVuSerif-2e"/>
       <use x="95.410156" xlink:href="#DejaVuSerif-30"/>
       <use x="159.033203" xlink:href="#DejaVuSerif-32"/>
      </g>
     </g>
    </g>
    <g id="ytick_4">
     <g id="line2d_13">
      <path clip-path="url(#pcc911c496f)" d="M 30.6125 77.370688 
L 131.39625 77.370688 
" style="fill:none;opacity:0.5;stroke:#0000ff;stroke-linecap:round;stroke-width:0.1;"/>
     </g>
     <g id="line2d_14"/>
     <g id="text_7">
      <!-- 0.03 -->
      <defs>
       <path d="M 9.71875 69.828125 
Q 15.4375 71.96875 20.671875 73.09375 
Q 25.921875 74.21875 30.515625 74.21875 
Q 41.21875 74.21875 47.21875 69.59375 
Q 53.21875 64.984375 53.21875 56.78125 
Q 53.21875 50.203125 49.0625 45.78125 
Q 44.921875 41.359375 37.3125 39.796875 
Q 46.296875 38.53125 51.25 33.28125 
Q 56.203125 28.03125 56.203125 19.671875 
Q 56.203125 9.46875 49.34375 4.015625 
Q 42.484375 -1.421875 29.59375 -1.421875 
Q 23.875 -1.421875 18.421875 -0.1875 
Q 12.984375 1.03125 7.625 3.515625 
L 7.625 17.671875 
L 13.09375 17.671875 
Q 13.578125 10.640625 17.828125 7.03125 
Q 22.078125 3.421875 29.78125 3.421875 
Q 37.25 3.421875 41.578125 7.734375 
Q 45.90625 12.0625 45.90625 19.578125 
Q 45.90625 28.171875 41.453125 32.59375 
Q 37.015625 37.015625 28.421875 37.015625 
L 23.78125 37.015625 
L 23.78125 42 
L 26.21875 42 
Q 34.765625 42 39.03125 45.53125 
Q 43.3125 49.078125 43.3125 56.203125 
Q 43.3125 62.59375 39.796875 65.984375 
Q 36.28125 69.390625 29.6875 69.390625 
Q 23.09375 69.390625 19.453125 66.265625 
Q 15.828125 63.140625 15.1875 56.984375 
L 9.71875 56.984375 
z
" id="DejaVuSerif-33"/>
      </defs>
      <g style="fill:#262626;" transform="translate(7.2 80.410063)scale(0.08 -0.08)">
       <use xlink:href="#DejaVuSerif-30"/>
       <use x="63.623047" xlink:href="#DejaVuSerif-2e"/>
       <use x="95.410156" xlink:href="#DejaVuSerif-30"/>
       <use x="159.033203" xlink:href="#DejaVuSerif-33"/>
      </g>
     </g>
    </g>
    <g id="ytick_5">
     <g id="line2d_15">
      <path clip-path="url(#pcc911c496f)" d="M 30.6125 61.214857 
L 131.39625 61.214857 
" style="fill:none;opacity:0.5;stroke:#0000ff;stroke-linecap:round;stroke-width:0.1;"/>
     </g>
     <g id="line2d_16"/>
     <g id="text_8">
      <!-- 0.04 -->
      <g style="fill:#262626;" transform="translate(7.2 64.254232)scale(0.08 -0.08)">
       <use xlink:href="#DejaVuSerif-30"/>
       <use x="63.623047" xlink:href="#DejaVuSerif-2e"/>
       <use x="95.410156" xlink:href="#DejaVuSerif-30"/>
       <use x="159.033203" xlink:href="#DejaVuSerif-34"/>
      </g>
     </g>
    </g>
    <g id="ytick_6">
     <g id="line2d_17">
      <path clip-path="url(#pcc911c496f)" d="M 30.6125 45.059026 
L 131.39625 45.059026 
" style="fill:none;opacity:0.5;stroke:#0000ff;stroke-linecap:round;stroke-width:0.1;"/>
     </g>
     <g id="line2d_18"/>
     <g id="text_9">
      <!-- 0.05 -->
      <defs>
       <path d="M 50.296875 72.90625 
L 50.296875 64.890625 
L 16.890625 64.890625 
L 16.890625 44 
Q 19.4375 45.75 22.828125 46.625 
Q 26.21875 47.515625 30.421875 47.515625 
Q 42.234375 47.515625 49.0625 40.96875 
Q 55.90625 34.421875 55.90625 23.09375 
Q 55.90625 11.53125 49 5.046875 
Q 42.09375 -1.421875 29.59375 -1.421875 
Q 24.5625 -1.421875 19.28125 -0.1875 
Q 14.015625 1.03125 8.5 3.515625 
L 8.5 17.671875 
L 14.015625 17.671875 
Q 14.453125 10.75 18.421875 7.078125 
Q 22.40625 3.421875 29.59375 3.421875 
Q 37.3125 3.421875 41.453125 8.5 
Q 45.609375 13.578125 45.609375 23.09375 
Q 45.609375 32.5625 41.484375 37.609375 
Q 37.359375 42.671875 29.59375 42.671875 
Q 25.203125 42.671875 21.84375 41.109375 
Q 18.5 39.546875 15.921875 36.28125 
L 11.71875 36.28125 
L 11.71875 72.90625 
z
" id="DejaVuSerif-35"/>
      </defs>
      <g style="fill:#262626;" transform="translate(7.2 48.098401)scale(0.08 -0.08)">
       <use xlink:href="#DejaVuSerif-30"/>
       <use x="63.623047" xlink:href="#DejaVuSerif-2e"/>
       <use x="95.410156" xlink:href="#DejaVuSerif-30"/>
       <use x="159.033203" xlink:href="#DejaVuSerif-35"/>
      </g>
     </g>
    </g>
   </g>
   <g id="line2d_19">
    <path clip-path="url(#pcc911c496f)" d="M 35.19358 125.838182 
L 36.11905 37.961818 
L 37.044521 62.415233 
L 37.969991 83.893904 
L 38.895462 97.526695 
L 39.820933 106.123143 
L 40.746403 111.70201 
L 41.671874 115.44078 
L 42.597344 118.021529 
L 43.522815 119.849902 
L 44.448286 121.174994 
L 45.373756 122.154588 
L 46.299227 122.891503 
L 47.224698 123.454468 
L 48.150168 123.890483 
L 49.075639 124.232346 
L 50.001109 124.503367 
L 50.92658 124.720389 
L 51.852051 124.895759 
L 52.777521 125.038655 
L 53.702992 125.155984 
L 54.628462 125.253001 
L 55.553933 125.333744 
L 56.479404 125.401351 
L 57.404874 125.458276 
L 58.330345 125.50646 
L 59.255816 125.547444 
L 60.181286 125.582464 
L 61.106757 125.612519 
L 62.032227 125.638415 
L 62.957698 125.660815 
L 63.883169 125.680261 
L 64.808639 125.6972 
L 65.73411 125.712003 
L 66.65958 125.72498 
L 67.585051 125.736389 
L 68.510522 125.746448 
L 69.435992 125.755339 
L 70.361463 125.76322 
L 71.286934 125.77022 
L 72.212404 125.776454 
L 73.137875 125.782018 
L 74.063345 125.786993 
L 74.988816 125.791452 
L 75.914287 125.795456 
L 76.839757 125.799059 
L 77.765228 125.802305 
L 78.690698 125.805237 
L 79.616169 125.807888 
L 80.54164 125.810289 
L 81.46711 125.812468 
L 82.392581 125.814448 
L 83.318052 125.816249 
L 84.243522 125.817891 
L 85.168993 125.819389 
L 86.094463 125.820758 
L 87.019934 125.822011 
L 87.945405 125.823158 
L 88.870875 125.82421 
L 89.796346 125.825177 
L 90.721816 125.826065 
L 91.647287 125.826883 
L 92.572758 125.827636 
L 93.498228 125.828331 
L 94.423699 125.828972 
L 95.34917 125.829565 
L 96.27464 125.830113 
L 97.200111 125.830621 
L 98.125581 125.831091 
L 99.051052 125.831528 
L 99.976523 125.831933 
L 100.901993 125.832309 
L 101.827464 125.832659 
L 102.752934 125.832985 
L 103.678405 125.833288 
L 104.603876 125.833571 
L 105.529346 125.833835 
L 106.454817 125.834081 
L 107.380288 125.834311 
L 108.305758 125.834526 
L 109.231229 125.834727 
L 110.156699 125.834916 
L 111.08217 125.835092 
L 112.007641 125.835257 
L 112.933111 125.835412 
L 113.858582 125.835558 
L 114.784052 125.835695 
L 115.709523 125.835823 
L 116.634994 125.835944 
L 117.560464 125.836057 
L 118.485935 125.836164 
L 119.411406 125.836265 
L 120.336876 125.836359 
L 121.262347 125.836449 
L 122.187817 125.836533 
L 123.113288 125.836613 
L 124.038759 125.836688 
L 124.964229 125.836759 
L 125.8897 125.836826 
L 126.81517 125.836889 
" style="fill:none;stroke:#4c72b0;stroke-linecap:round;stroke-width:1.4;"/>
   </g>
   <g id="patch_3">
    <path d="M 30.6125 130.232 
L 30.6125 33.568 
" style="fill:none;"/>
   </g>
   <g id="patch_4">
    <path d="M 131.39625 130.232 
L 131.39625 33.568 
" style="fill:none;"/>
   </g>
   <g id="patch_5">
    <path d="M 30.6125 130.232 
L 131.39625 130.232 
" style="fill:none;"/>
   </g>
   <g id="patch_6">
    <path d="M 30.6125 33.568 
L 131.39625 33.568 
" style="fill:none;"/>
   </g>
   <g id="text_10">
    <!-- PDF -->
    <defs>
     <path d="M 24.703125 37.109375 
L 37.59375 37.109375 
Q 44.875 37.109375 48.671875 41.03125 
Q 52.484375 44.96875 52.484375 52.390625 
Q 52.484375 59.859375 48.671875 63.765625 
Q 44.875 67.671875 37.59375 67.671875 
L 24.703125 67.671875 
z
M 5.515625 0 
L 5.515625 5.171875 
L 14.796875 5.171875 
L 14.796875 67.671875 
L 5.515625 67.671875 
L 5.515625 72.90625 
L 39.984375 72.90625 
Q 50.921875 72.90625 57.3125 67.359375 
Q 63.71875 61.8125 63.71875 52.390625 
Q 63.71875 43.015625 57.3125 37.453125 
Q 50.921875 31.890625 39.984375 31.890625 
L 24.703125 31.890625 
L 24.703125 5.171875 
L 35.984375 5.171875 
L 35.984375 0 
z
" id="DejaVuSerif-50"/>
     <path d="M 24.703125 5.171875 
L 33.796875 5.171875 
Q 48 5.171875 55.59375 13.28125 
Q 63.1875 21.390625 63.1875 36.53125 
Q 63.1875 51.65625 55.609375 59.65625 
Q 48.046875 67.671875 33.796875 67.671875 
L 24.703125 67.671875 
z
M 5.515625 0 
L 5.515625 5.171875 
L 14.796875 5.171875 
L 14.796875 67.671875 
L 5.515625 67.671875 
L 5.515625 72.90625 
L 34.515625 72.90625 
Q 53.375 72.90625 63.890625 63.28125 
Q 74.421875 53.65625 74.421875 36.53125 
Q 74.421875 19.34375 63.875 9.671875 
Q 53.328125 0 34.515625 0 
z
" id="DejaVuSerif-44"/>
     <path d="M 5.515625 0 
L 5.515625 5.171875 
L 14.796875 5.171875 
L 14.796875 67.671875 
L 5.515625 67.671875 
L 5.515625 72.90625 
L 65.1875 72.90625 
L 65.1875 56.6875 
L 59.1875 56.6875 
L 59.1875 66.890625 
L 24.703125 66.890625 
L 24.703125 42.484375 
L 49.609375 42.484375 
L 49.609375 51.609375 
L 55.609375 51.609375 
L 55.609375 27.390625 
L 49.609375 27.390625 
L 49.609375 36.53125 
L 24.703125 36.53125 
L 24.703125 5.171875 
L 36.375 5.171875 
L 36.375 0 
z
" id="DejaVuSerif-46"/>
    </defs>
    <g style="fill:#262626;" transform="translate(70.595875 27.568)scale(0.096 -0.096)">
     <use xlink:href="#DejaVuSerif-50"/>
     <use x="67.285156" xlink:href="#DejaVuSerif-44"/>
     <use x="147.460938" xlink:href="#DejaVuSerif-46"/>
    </g>
   </g>
  </g>
  <g id="axes_2">
   <g id="patch_7">
    <path d="M 171.42675 130.232 
L 272.2105 130.232 
L 272.2105 33.568 
L 171.42675 33.568 
z
" style="fill:#eaeaf2;"/>
   </g>
   <g id="matplotlib.axis_3">
    <g id="xtick_4">
     <g id="line2d_20">
      <path clip-path="url(#p30d38e419e)" d="M 176.00783 130.232 
L 176.00783 33.568 
" style="fill:none;opacity:0.5;stroke:#0000ff;stroke-linecap:round;stroke-width:0.1;"/>
     </g>
     <g id="line2d_21"/>
     <g id="text_11">
      <!-- 0 -->
      <g style="fill:#262626;" transform="translate(173.46283 141.91075)scale(0.08 -0.08)">
       <use xlink:href="#DejaVuSerif-30"/>
      </g>
     </g>
    </g>
    <g id="xtick_5">
     <g id="line2d_22">
      <path clip-path="url(#p30d38e419e)" d="M 213.050155 130.232 
L 213.050155 33.568 
" style="fill:none;opacity:0.5;stroke:#0000ff;stroke-linecap:round;stroke-width:0.1;"/>
     </g>
     <g id="line2d_23"/>
     <g id="text_12">
      <!-- 200 -->
      <g style="fill:#262626;" transform="translate(205.415155 141.91075)scale(0.08 -0.08)">
       <use xlink:href="#DejaVuSerif-32"/>
       <use x="63.623047" xlink:href="#DejaVuSerif-30"/>
       <use x="127.246094" xlink:href="#DejaVuSerif-30"/>
      </g>
     </g>
    </g>
    <g id="xtick_6">
     <g id="line2d_24">
      <path clip-path="url(#p30d38e419e)" d="M 250.09248 130.232 
L 250.09248 33.568 
" style="fill:none;opacity:0.5;stroke:#0000ff;stroke-linecap:round;stroke-width:0.1;"/>
     </g>
     <g id="line2d_25"/>
     <g id="text_13">
      <!-- 400 -->
      <g style="fill:#262626;" transform="translate(242.45748 141.91075)scale(0.08 -0.08)">
       <use xlink:href="#DejaVuSerif-34"/>
       <use x="63.623047" xlink:href="#DejaVuSerif-30"/>
       <use x="127.246094" xlink:href="#DejaVuSerif-30"/>
      </g>
     </g>
    </g>
   </g>
   <g id="matplotlib.axis_4">
    <g id="ytick_7">
     <g id="line2d_26">
      <path clip-path="url(#p30d38e419e)" d="M 171.42675 130.232 
L 272.2105 130.232 
" style="fill:none;opacity:0.5;stroke:#0000ff;stroke-linecap:round;stroke-width:0.1;"/>
     </g>
     <g id="line2d_27"/>
     <g id="text_14">
      <!-- 0.0 -->
      <g style="fill:#262626;" transform="translate(153.10425 133.271375)scale(0.08 -0.08)">
       <use xlink:href="#DejaVuSerif-30"/>
       <use x="63.623047" xlink:href="#DejaVuSerif-2e"/>
       <use x="95.410156" xlink:href="#DejaVuSerif-30"/>
      </g>
     </g>
    </g>
    <g id="ytick_8">
     <g id="line2d_28">
      <path clip-path="url(#p30d38e419e)" d="M 171.42675 110.8992 
L 272.2105 110.8992 
" style="fill:none;opacity:0.5;stroke:#0000ff;stroke-linecap:round;stroke-width:0.1;"/>
     </g>
     <g id="line2d_29"/>
     <g id="text_15">
      <!-- 0.2 -->
      <g style="fill:#262626;" transform="translate(153.10425 113.938575)scale(0.08 -0.08)">
       <use xlink:href="#DejaVuSerif-30"/>
       <use x="63.623047" xlink:href="#DejaVuSerif-2e"/>
       <use x="95.410156" xlink:href="#DejaVuSerif-32"/>
      </g>
     </g>
    </g>
    <g id="ytick_9">
     <g id="line2d_30">
      <path clip-path="url(#p30d38e419e)" d="M 171.42675 91.5664 
L 272.2105 91.5664 
" style="fill:none;opacity:0.5;stroke:#0000ff;stroke-linecap:round;stroke-width:0.1;"/>
     </g>
     <g id="line2d_31"/>
     <g id="text_16">
      <!-- 0.4 -->
      <g style="fill:#262626;" transform="translate(153.10425 94.605775)scale(0.08 -0.08)">
       <use xlink:href="#DejaVuSerif-30"/>
       <use x="63.623047" xlink:href="#DejaVuSerif-2e"/>
       <use x="95.410156" xlink:href="#DejaVuSerif-34"/>
      </g>
     </g>
    </g>
    <g id="ytick_10">
     <g id="line2d_32">
      <path clip-path="url(#p30d38e419e)" d="M 171.42675 72.2336 
L 272.2105 72.2336 
" style="fill:none;opacity:0.5;stroke:#0000ff;stroke-linecap:round;stroke-width:0.1;"/>
     </g>
     <g id="line2d_33"/>
     <g id="text_17">
      <!-- 0.6 -->
      <defs>
       <path d="M 32.71875 3.421875 
Q 39.59375 3.421875 43.296875 8.46875 
Q 47.015625 13.53125 47.015625 23 
Q 47.015625 32.46875 43.296875 37.515625 
Q 39.59375 42.578125 32.71875 42.578125 
Q 25.734375 42.578125 22.0625 37.6875 
Q 18.40625 32.8125 18.40625 23.578125 
Q 18.40625 13.875 22.109375 8.640625 
Q 25.828125 3.421875 32.71875 3.421875 
z
M 16.796875 40.140625 
Q 20.125 43.796875 24.3125 45.59375 
Q 28.515625 47.40625 33.796875 47.40625 
Q 44.671875 47.40625 51 40.859375 
Q 57.328125 34.328125 57.328125 23 
Q 57.328125 11.921875 50.515625 5.25 
Q 43.703125 -1.421875 32.328125 -1.421875 
Q 19.96875 -1.421875 13.328125 7.78125 
Q 6.6875 17 6.6875 34.078125 
Q 6.6875 53.21875 14.546875 63.71875 
Q 22.40625 74.21875 36.71875 74.21875 
Q 40.578125 74.21875 44.828125 73.484375 
Q 49.078125 72.75 53.515625 71.296875 
L 53.515625 59.28125 
L 48 59.28125 
Q 47.40625 64.203125 44.234375 66.796875 
Q 41.0625 69.390625 35.6875 69.390625 
Q 26.21875 69.390625 21.578125 62.203125 
Q 16.9375 55.03125 16.796875 40.140625 
z
" id="DejaVuSerif-36"/>
      </defs>
      <g style="fill:#262626;" transform="translate(153.10425 75.272975)scale(0.08 -0.08)">
       <use xlink:href="#DejaVuSerif-30"/>
       <use x="63.623047" xlink:href="#DejaVuSerif-2e"/>
       <use x="95.410156" xlink:href="#DejaVuSerif-36"/>
      </g>
     </g>
    </g>
    <g id="ytick_11">
     <g id="line2d_34">
      <path clip-path="url(#p30d38e419e)" d="M 171.42675 52.9008 
L 272.2105 52.9008 
" style="fill:none;opacity:0.5;stroke:#0000ff;stroke-linecap:round;stroke-width:0.1;"/>
     </g>
     <g id="line2d_35"/>
     <g id="text_18">
      <!-- 0.8 -->
      <defs>
       <path d="M 46.578125 19.921875 
Q 46.578125 27.734375 42.6875 32.046875 
Q 38.8125 36.375 31.78125 36.375 
Q 24.75 36.375 20.875 32.046875 
Q 17 27.734375 17 19.921875 
Q 17 12.0625 20.875 7.734375 
Q 24.75 3.421875 31.78125 3.421875 
Q 38.8125 3.421875 42.6875 7.734375 
Q 46.578125 12.0625 46.578125 19.921875 
z
M 44.578125 55.328125 
Q 44.578125 61.96875 41.203125 65.671875 
Q 37.84375 69.390625 31.78125 69.390625 
Q 25.78125 69.390625 22.390625 65.671875 
Q 19 61.96875 19 55.328125 
Q 19 48.640625 22.390625 44.921875 
Q 25.78125 41.21875 31.78125 41.21875 
Q 37.84375 41.21875 41.203125 44.921875 
Q 44.578125 48.640625 44.578125 55.328125 
z
M 39.3125 38.8125 
Q 47.609375 37.703125 52.25 32.6875 
Q 56.890625 27.6875 56.890625 19.921875 
Q 56.890625 9.671875 50.390625 4.125 
Q 43.890625 -1.421875 31.78125 -1.421875 
Q 19.734375 -1.421875 13.203125 4.125 
Q 6.6875 9.671875 6.6875 19.921875 
Q 6.6875 27.6875 11.328125 32.6875 
Q 15.96875 37.703125 24.3125 38.8125 
Q 16.9375 40.140625 13 44.40625 
Q 9.078125 48.6875 9.078125 55.328125 
Q 9.078125 64.109375 15.125 69.15625 
Q 21.1875 74.21875 31.78125 74.21875 
Q 42.390625 74.21875 48.4375 69.15625 
Q 54.5 64.109375 54.5 55.328125 
Q 54.5 48.6875 50.5625 44.40625 
Q 46.625 40.140625 39.3125 38.8125 
z
" id="DejaVuSerif-38"/>
      </defs>
      <g style="fill:#262626;" transform="translate(153.10425 55.940175)scale(0.08 -0.08)">
       <use xlink:href="#DejaVuSerif-30"/>
       <use x="63.623047" xlink:href="#DejaVuSerif-2e"/>
       <use x="95.410156" xlink:href="#DejaVuSerif-38"/>
      </g>
     </g>
    </g>
    <g id="ytick_12">
     <g id="line2d_36">
      <path clip-path="url(#p30d38e419e)" d="M 171.42675 33.568 
L 272.2105 33.568 
" style="fill:none;opacity:0.5;stroke:#0000ff;stroke-linecap:round;stroke-width:0.1;"/>
     </g>
     <g id="line2d_37"/>
     <g id="text_19">
      <!-- 1.0 -->
      <g style="fill:#262626;" transform="translate(153.10425 36.607375)scale(0.08 -0.08)">
       <use xlink:href="#DejaVuSerif-31"/>
       <use x="63.623047" xlink:href="#DejaVuSerif-2e"/>
       <use x="95.410156" xlink:href="#DejaVuSerif-30"/>
      </g>
     </g>
    </g>
   </g>
   <g id="line2d_38">
    <path clip-path="url(#p30d38e419e)" d="M 176.00783 130.232 
L 176.9333 130.232 
L 176.9333 111.818772 
L 177.858771 111.818772 
L 177.858771 88.916241 
L 178.784241 88.916241 
L 178.784241 73.389592 
L 179.709712 73.389592 
L 179.709712 63.04654 
L 180.635183 63.04654 
L 180.635183 55.962845 
L 181.560653 55.962845 
L 181.560653 50.960139 
L 182.486124 50.960139 
L 182.486124 47.328424 
L 183.411594 47.328424 
L 183.411594 44.62856 
L 184.337065 44.62856 
L 184.337065 42.580031 
L 185.262536 42.580031 
L 185.262536 40.998046 
L 186.188006 40.998046 
L 186.188006 39.757455 
L 187.113477 39.757455 
L 187.113477 38.771392 
L 188.038948 38.771392 
L 188.038948 37.978244 
L 188.964418 37.978244 
L 188.964418 37.333462 
L 189.889889 37.333462 
L 189.889889 36.804279 
L 190.815359 36.804279 
L 190.815359 36.366224 
L 191.74083 36.366224 
L 191.74083 36.000769 
L 192.666301 36.000769 
L 192.666301 35.693707 
L 193.591771 35.693707 
L 193.591771 35.434025 
L 194.517242 35.434025 
L 194.517242 35.213093 
L 195.442712 35.213093 
L 195.442712 35.024089 
L 196.368183 35.024089 
L 196.368183 34.86157 
L 197.293654 34.86157 
L 197.293654 34.721157 
L 198.219124 34.721157 
L 198.219124 34.599307 
L 200.070066 34.493125 
L 200.070066 34.400239 
L 201.921007 34.318687 
L 201.921007 34.24684 
L 203.771948 34.183339 
L 203.771948 34.127043 
L 206.54836 34.032366 
L 206.54836 33.992479 
L 210.250242 33.895736 
L 210.250242 33.869666 
L 215.803066 33.771745 
L 215.803066 33.75712 
L 228.759655 33.647115 
L 228.759655 33.642454 
L 267.62942 33.578062 
L 267.62942 33.577666 
" style="fill:none;stroke:#4c72b0;stroke-linecap:round;"/>
   </g>
   <g id="patch_8">
    <path d="M 171.42675 130.232 
L 171.42675 33.568 
" style="fill:none;"/>
   </g>
   <g id="patch_9">
    <path d="M 272.2105 130.232 
L 272.2105 33.568 
" style="fill:none;"/>
   </g>
   <g id="patch_10">
    <path d="M 171.42675 130.232 
L 272.2105 130.232 
" style="fill:none;"/>
   </g>
   <g id="patch_11">
    <path d="M 171.42675 33.568 
L 272.2105 33.568 
" style="fill:none;"/>
   </g>
   <g id="text_20">
    <!-- CDF -->
    <defs>
     <path d="M 70.515625 19.28125 
Q 67.28125 9.078125 59.6875 3.828125 
Q 52.09375 -1.421875 40.484375 -1.421875 
Q 33.34375 -1.421875 27.234375 1.015625 
Q 21.140625 3.46875 16.40625 8.203125 
Q 10.9375 13.671875 8.265625 20.625 
Q 5.609375 27.59375 5.609375 36.375 
Q 5.609375 53.375 15.421875 63.796875 
Q 25.25 74.21875 41.3125 74.21875 
Q 47.265625 74.21875 54 72.65625 
Q 60.75 71.09375 68.5 67.921875 
L 68.5 51.125 
L 62.984375 51.125 
Q 61.1875 60.296875 55.734375 64.640625 
Q 50.296875 69 40.484375 69 
Q 28.8125 69 22.796875 60.71875 
Q 16.796875 52.4375 16.796875 36.375 
Q 16.796875 20.359375 22.796875 12.078125 
Q 28.8125 3.8125 40.484375 3.8125 
Q 48.640625 3.8125 53.90625 7.6875 
Q 59.1875 11.578125 61.53125 19.28125 
z
" id="DejaVuSerif-43"/>
    </defs>
    <g style="fill:#262626;" transform="translate(210.966875 27.568)scale(0.096 -0.096)">
     <use xlink:href="#DejaVuSerif-43"/>
     <use x="76.513672" xlink:href="#DejaVuSerif-44"/>
     <use x="156.689453" xlink:href="#DejaVuSerif-46"/>
    </g>
   </g>
  </g>
  <g id="axes_3">
   <g id="patch_12">
    <path d="M 312.241 130.232 
L 413.02475 130.232 
L 413.02475 33.568 
L 312.241 33.568 
z
" style="fill:#eaeaf2;"/>
   </g>
   <g id="matplotlib.axis_5">
    <g id="xtick_7">
     <g id="line2d_39">
      <path clip-path="url(#pf148dcd45d)" d="M 312.241 130.232 
L 312.241 33.568 
" style="fill:none;opacity:0.5;stroke:#0000ff;stroke-linecap:round;stroke-width:0.1;"/>
     </g>
     <g id="line2d_40"/>
     <g id="text_21">
      <!-- 0.00 -->
      <g style="fill:#262626;" transform="translate(303.33475 141.91075)scale(0.08 -0.08)">
       <use xlink:href="#DejaVuSerif-30"/>
       <use x="63.623047" xlink:href="#DejaVuSerif-2e"/>
       <use x="95.410156" xlink:href="#DejaVuSerif-30"/>
       <use x="159.033203" xlink:href="#DejaVuSerif-30"/>
      </g>
     </g>
    </g>
    <g id="xtick_8">
     <g id="line2d_41">
      <path clip-path="url(#pf148dcd45d)" d="M 337.436937 130.232 
L 337.436937 33.568 
" style="fill:none;opacity:0.5;stroke:#0000ff;stroke-linecap:round;stroke-width:0.1;"/>
     </g>
     <g id="line2d_42"/>
     <g id="text_22">
      <!-- 0.25 -->
      <g style="fill:#262626;" transform="translate(328.530687 141.91075)scale(0.08 -0.08)">
       <use xlink:href="#DejaVuSerif-30"/>
       <use x="63.623047" xlink:href="#DejaVuSerif-2e"/>
       <use x="95.410156" xlink:href="#DejaVuSerif-32"/>
       <use x="159.033203" xlink:href="#DejaVuSerif-35"/>
      </g>
     </g>
    </g>
    <g id="xtick_9">
     <g id="line2d_43">
      <path clip-path="url(#pf148dcd45d)" d="M 362.632875 130.232 
L 362.632875 33.568 
" style="fill:none;opacity:0.5;stroke:#0000ff;stroke-linecap:round;stroke-width:0.1;"/>
     </g>
     <g id="line2d_44"/>
     <g id="text_23">
      <!-- 0.50 -->
      <g style="fill:#262626;" transform="translate(353.726625 141.91075)scale(0.08 -0.08)">
       <use xlink:href="#DejaVuSerif-30"/>
       <use x="63.623047" xlink:href="#DejaVuSerif-2e"/>
       <use x="95.410156" xlink:href="#DejaVuSerif-35"/>
       <use x="159.033203" xlink:href="#DejaVuSerif-30"/>
      </g>
     </g>
    </g>
    <g id="xtick_10">
     <g id="line2d_45">
      <path clip-path="url(#pf148dcd45d)" d="M 387.828813 130.232 
L 387.828813 33.568 
" style="fill:none;opacity:0.5;stroke:#0000ff;stroke-linecap:round;stroke-width:0.1;"/>
     </g>
     <g id="line2d_46"/>
     <g id="text_24">
      <!-- 0.75 -->
      <defs>
       <path d="M 56.390625 67.921875 
L 27.875 0 
L 20.609375 0 
L 47.796875 64.890625 
L 14.109375 64.890625 
L 14.109375 55.90625 
L 8.40625 55.90625 
L 8.40625 72.90625 
L 56.390625 72.90625 
z
" id="DejaVuSerif-37"/>
      </defs>
      <g style="fill:#262626;" transform="translate(378.922563 141.91075)scale(0.08 -0.08)">
       <use xlink:href="#DejaVuSerif-30"/>
       <use x="63.623047" xlink:href="#DejaVuSerif-2e"/>
       <use x="95.410156" xlink:href="#DejaVuSerif-37"/>
       <use x="159.033203" xlink:href="#DejaVuSerif-35"/>
      </g>
     </g>
    </g>
    <g id="xtick_11">
     <g id="line2d_47">
      <path clip-path="url(#pf148dcd45d)" d="M 413.02475 130.232 
L 413.02475 33.568 
" style="fill:none;opacity:0.5;stroke:#0000ff;stroke-linecap:round;stroke-width:0.1;"/>
     </g>
     <g id="line2d_48"/>
     <g id="text_25">
      <!-- 1.00 -->
      <g style="fill:#262626;" transform="translate(404.1185 141.91075)scale(0.08 -0.08)">
       <use xlink:href="#DejaVuSerif-31"/>
       <use x="63.623047" xlink:href="#DejaVuSerif-2e"/>
       <use x="95.410156" xlink:href="#DejaVuSerif-30"/>
       <use x="159.033203" xlink:href="#DejaVuSerif-30"/>
      </g>
     </g>
    </g>
   </g>
   <g id="matplotlib.axis_6">
    <g id="ytick_13">
     <g id="line2d_49">
      <path clip-path="url(#pf148dcd45d)" d="M 312.241 126.684226 
L 413.02475 126.684226 
" style="fill:none;opacity:0.5;stroke:#0000ff;stroke-linecap:round;stroke-width:0.1;"/>
     </g>
     <g id="line2d_50"/>
     <g id="text_26">
      <!-- 0 -->
      <g style="fill:#262626;" transform="translate(301.551 129.723601)scale(0.08 -0.08)">
       <use xlink:href="#DejaVuSerif-30"/>
      </g>
     </g>
    </g>
    <g id="ytick_14">
     <g id="line2d_51">
      <path clip-path="url(#pf148dcd45d)" d="M 312.241 108.634441 
L 413.02475 108.634441 
" style="fill:none;opacity:0.5;stroke:#0000ff;stroke-linecap:round;stroke-width:0.1;"/>
     </g>
     <g id="line2d_52"/>
     <g id="text_27">
      <!-- 25 -->
      <g style="fill:#262626;" transform="translate(296.461 111.673816)scale(0.08 -0.08)">
       <use xlink:href="#DejaVuSerif-32"/>
       <use x="63.623047" xlink:href="#DejaVuSerif-35"/>
      </g>
     </g>
    </g>
    <g id="ytick_15">
     <g id="line2d_53">
      <path clip-path="url(#pf148dcd45d)" d="M 312.241 90.584656 
L 413.02475 90.584656 
" style="fill:none;opacity:0.5;stroke:#0000ff;stroke-linecap:round;stroke-width:0.1;"/>
     </g>
     <g id="line2d_54"/>
     <g id="text_28">
      <!-- 50 -->
      <g style="fill:#262626;" transform="translate(296.461 93.624031)scale(0.08 -0.08)">
       <use xlink:href="#DejaVuSerif-35"/>
       <use x="63.623047" xlink:href="#DejaVuSerif-30"/>
      </g>
     </g>
    </g>
    <g id="ytick_16">
     <g id="line2d_55">
      <path clip-path="url(#pf148dcd45d)" d="M 312.241 72.534871 
L 413.02475 72.534871 
" style="fill:none;opacity:0.5;stroke:#0000ff;stroke-linecap:round;stroke-width:0.1;"/>
     </g>
     <g id="line2d_56"/>
     <g id="text_29">
      <!-- 75 -->
      <g style="fill:#262626;" transform="translate(296.461 75.574246)scale(0.08 -0.08)">
       <use xlink:href="#DejaVuSerif-37"/>
       <use x="63.623047" xlink:href="#DejaVuSerif-35"/>
      </g>
     </g>
    </g>
    <g id="ytick_17">
     <g id="line2d_57">
      <path clip-path="url(#pf148dcd45d)" d="M 312.241 54.485085 
L 413.02475 54.485085 
" style="fill:none;opacity:0.5;stroke:#0000ff;stroke-linecap:round;stroke-width:0.1;"/>
     </g>
     <g id="line2d_58"/>
     <g id="text_30">
      <!-- 100 -->
      <g style="fill:#262626;" transform="translate(291.371 57.52446)scale(0.08 -0.08)">
       <use xlink:href="#DejaVuSerif-31"/>
       <use x="63.623047" xlink:href="#DejaVuSerif-30"/>
       <use x="127.246094" xlink:href="#DejaVuSerif-30"/>
      </g>
     </g>
    </g>
    <g id="ytick_18">
     <g id="line2d_59">
      <path clip-path="url(#pf148dcd45d)" d="M 312.241 36.4353 
L 413.02475 36.4353 
" style="fill:none;opacity:0.5;stroke:#0000ff;stroke-linecap:round;stroke-width:0.1;"/>
     </g>
     <g id="line2d_60"/>
     <g id="text_31">
      <!-- 125 -->
      <g style="fill:#262626;" transform="translate(291.371 39.474675)scale(0.08 -0.08)">
       <use xlink:href="#DejaVuSerif-31"/>
       <use x="63.623047" xlink:href="#DejaVuSerif-32"/>
       <use x="127.246094" xlink:href="#DejaVuSerif-35"/>
      </g>
     </g>
    </g>
   </g>
   <g id="line2d_61">
    <path clip-path="url(#pf148dcd45d)" d="M 313.248837 37.961818 
L 314.256675 37.961818 
L 314.256675 59.131156 
L 315.264512 59.131156 
L 315.264512 69.860258 
L 316.27235 69.860258 
L 316.27235 76.792725 
L 317.280188 76.792725 
L 317.280188 81.80306 
L 318.288025 81.80306 
L 318.288025 85.669212 
L 319.295862 85.669212 
L 319.295862 88.784055 
L 320.3037 88.784055 
L 320.3037 91.371756 
L 321.311537 91.371756 
L 321.311537 93.571435 
L 322.319375 93.571435 
L 322.319375 95.474925 
L 323.327212 95.474925 
L 323.327212 97.145778 
L 324.33505 97.145778 
L 324.33505 98.62966 
L 325.342888 98.62966 
L 325.342888 99.960395 
L 326.350725 99.960395 
L 326.350725 101.163678 
L 327.358563 101.163678 
L 327.358563 102.259451 
L 328.3664 102.259451 
L 328.3664 103.263474 
L 329.374237 103.263474 
L 329.374237 104.188398 
L 330.382075 104.188398 
L 330.382075 105.044524 
L 331.389912 105.044524 
L 331.389912 105.840335 
L 332.39775 105.840335 
L 332.39775 106.582899 
L 333.405588 106.582899 
L 333.405588 107.278157 
L 334.413425 107.278157 
L 334.413425 107.93115 
L 335.421263 107.93115 
L 335.421263 108.546185 
L 336.4291 108.546185 
L 336.4291 109.126973 
L 337.436937 109.126973 
L 337.436937 109.676727 
L 338.444775 109.676727 
L 338.444775 110.198251 
L 339.452612 110.198251 
L 339.452612 110.694001 
L 340.46045 110.694001 
L 340.46045 111.166141 
L 341.468287 111.166141 
L 341.468287 111.616587 
L 342.476125 111.616587 
L 342.476125 112.047043 
L 343.483963 112.047043 
L 343.483963 112.459028 
L 344.4918 112.459028 
L 344.4918 112.853905 
L 345.499638 112.853905 
L 345.499638 113.232899 
L 346.507475 113.232899 
L 346.507475 113.597117 
L 347.515312 113.597117 
L 347.515312 113.947558 
L 348.52315 113.947558 
L 348.52315 114.285132 
L 349.530987 114.285132 
L 349.530987 114.610666 
L 350.538825 114.610666 
L 350.538825 114.924915 
L 351.546663 114.924915 
L 351.546663 115.22857 
L 352.5545 115.22857 
L 352.5545 115.522265 
L 353.562338 115.522265 
L 353.562338 115.806583 
L 354.570175 115.806583 
L 354.570175 116.082063 
L 355.578012 116.082063 
L 355.578012 116.3492 
L 356.58585 116.3492 
L 356.58585 116.608453 
L 357.593687 116.608453 
L 357.593687 116.86025 
L 358.601525 116.86025 
L 358.601525 117.104986 
L 359.609363 117.104986 
L 359.609363 117.343029 
L 360.6172 117.343029 
L 360.6172 117.574723 
L 361.625038 117.574723 
L 361.625038 117.80039 
L 362.632875 117.80039 
L 362.632875 118.020329 
L 363.640713 118.020329 
L 363.640713 118.234824 
L 364.64855 118.234824 
L 364.64855 118.444138 
L 365.656387 118.444138 
L 365.656387 118.648521 
L 366.664225 118.648521 
L 366.664225 118.848208 
L 367.672063 118.848208 
L 367.672063 119.043419 
L 368.6799 119.043419 
L 368.6799 119.234365 
L 369.687738 119.234365 
L 369.687738 119.421245 
L 370.695575 119.421245 
L 370.695575 119.604246 
L 371.703413 119.604246 
L 371.703413 119.783549 
L 372.71125 119.783549 
L 372.71125 119.959323 
L 373.719088 119.959323 
L 373.719088 120.131733 
L 374.726925 120.131733 
L 374.726925 120.300935 
L 375.734763 120.300935 
L 375.734763 120.467078 
L 376.7426 120.467078 
L 376.7426 120.630307 
L 377.750438 120.630307 
L 377.750438 120.790761 
L 378.758275 120.790761 
L 378.758275 120.948574 
L 379.766113 120.948574 
L 379.766113 121.103877 
L 380.77395 121.103877 
L 380.77395 121.256796 
L 381.781788 121.256796 
L 381.781788 121.407456 
L 382.789625 121.407456 
L 382.789625 121.555978 
L 383.797463 121.555978 
L 383.797463 121.702483 
L 384.8053 121.702483 
L 384.8053 121.847089 
L 385.813138 121.847089 
L 385.813138 121.989914 
L 386.820975 121.989914 
L 386.820975 122.131077 
L 387.828813 122.131077 
L 387.828813 122.270696 
L 388.83665 122.270696 
L 388.83665 122.408893 
L 389.844488 122.408893 
L 389.844488 122.545791 
L 390.852325 122.545791 
L 390.852325 122.681517 
L 391.860163 122.681517 
L 391.860163 122.816204 
L 392.868 122.816204 
L 392.868 122.94999 
L 393.875838 122.94999 
L 393.875838 123.083022 
L 394.883675 123.083022 
L 394.883675 123.215458 
L 395.891513 123.215458 
L 395.891513 123.347469 
L 396.89935 123.347469 
L 396.89935 123.479244 
L 397.907188 123.479244 
L 397.907188 123.61099 
L 398.915025 123.61099 
L 398.915025 123.742945 
L 399.922863 123.742945 
L 399.922863 123.875381 
L 400.9307 123.875381 
L 400.9307 124.008615 
L 401.938538 124.008615 
L 401.938538 124.143026 
L 402.946375 124.143026 
L 402.946375 124.279075 
L 403.954213 124.279075 
L 403.954213 124.417335 
L 404.96205 124.417335 
L 404.96205 124.558544 
L 405.969888 124.558544 
L 405.969888 124.703678 
L 406.977725 124.703678 
L 406.977725 124.854089 
L 407.985563 124.854089 
L 407.985563 125.011741 
L 408.9934 125.011741 
L 408.9934 125.179699 
L 410.001238 125.179699 
L 410.001238 125.36325 
L 411.009075 125.36325 
L 411.009075 125.573054 
L 412.016913 125.573054 
L 412.016913 125.838182 
L 412.016913 125.838182 
" style="fill:none;stroke:#4c72b0;stroke-linecap:round;"/>
   </g>
   <g id="patch_13">
    <path d="M 312.241 130.232 
L 312.241 33.568 
" style="fill:none;"/>
   </g>
   <g id="patch_14">
    <path d="M 413.02475 130.232 
L 413.02475 33.568 
" style="fill:none;"/>
   </g>
   <g id="patch_15">
    <path d="M 312.241 130.232 
L 413.02475 130.232 
" style="fill:none;"/>
   </g>
   <g id="patch_16">
    <path d="M 312.241 33.568 
L 413.02475 33.568 
" style="fill:none;"/>
   </g>
   <g id="text_32">
    <!-- ISF -->
    <defs>
     <path d="M 24.703125 5.171875 
L 33.984375 5.171875 
L 33.984375 0 
L 5.515625 0 
L 5.515625 5.171875 
L 14.796875 5.171875 
L 14.796875 67.671875 
L 5.515625 67.671875 
L 5.515625 72.90625 
L 33.984375 72.90625 
L 33.984375 67.671875 
L 24.703125 67.671875 
z
" id="DejaVuSerif-49"/>
     <path d="M 9.28125 3.515625 
L 9.28125 20.125 
L 14.890625 20.0625 
Q 15.140625 11.765625 19.703125 7.78125 
Q 24.265625 3.8125 33.59375 3.8125 
Q 42.28125 3.8125 46.84375 7.25 
Q 51.421875 10.6875 51.421875 17.28125 
Q 51.421875 22.5625 48.65625 25.390625 
Q 45.90625 28.21875 37.015625 30.90625 
L 27.390625 33.796875 
Q 16.9375 36.96875 12.671875 41.703125 
Q 8.40625 46.4375 8.40625 54.6875 
Q 8.40625 63.96875 14.984375 69.09375 
Q 21.578125 74.21875 33.5 74.21875 
Q 38.578125 74.21875 44.625 73.109375 
Q 50.6875 72.015625 57.515625 69.921875 
L 57.515625 54.390625 
L 52 54.390625 
Q 51.171875 62.109375 46.84375 65.546875 
Q 42.53125 69 33.6875 69 
Q 25.984375 69 21.953125 65.84375 
Q 17.921875 62.703125 17.921875 56.6875 
Q 17.921875 51.46875 20.9375 48.484375 
Q 23.96875 45.515625 33.796875 42.578125 
L 42.828125 39.890625 
Q 52.734375 36.921875 56.953125 32.296875 
Q 61.1875 27.6875 61.1875 19.921875 
Q 61.1875 9.328125 54.390625 3.953125 
Q 47.609375 -1.421875 34.1875 -1.421875 
Q 28.171875 -1.421875 21.9375 -0.1875 
Q 15.71875 1.03125 9.28125 3.515625 
z
" id="DejaVuSerif-53"/>
    </defs>
    <g style="fill:#262626;" transform="translate(354.118125 27.568)scale(0.096 -0.096)">
     <use xlink:href="#DejaVuSerif-49"/>
     <use x="39.501953" xlink:href="#DejaVuSerif-53"/>
     <use x="108.007812" xlink:href="#DejaVuSerif-46"/>
    </g>
   </g>
  </g>
  <g id="axes_4">
   <g id="patch_17">
    <path d="M 453.05525 130.232 
L 553.839 130.232 
L 553.839 33.568 
L 453.05525 33.568 
z
" style="fill:#eaeaf2;"/>
   </g>
   <g id="matplotlib.axis_7">
    <g id="xtick_12">
     <g id="line2d_62">
      <path clip-path="url(#p48c4eb9036)" d="M 453.05525 130.232 
L 453.05525 33.568 
" style="fill:none;opacity:0.5;stroke:#0000ff;stroke-linecap:round;stroke-width:0.1;"/>
     </g>
     <g id="line2d_63"/>
     <g id="text_33">
      <!-- 0.00 -->
      <g style="fill:#262626;" transform="translate(444.149 141.91075)scale(0.08 -0.08)">
       <use xlink:href="#DejaVuSerif-30"/>
       <use x="63.623047" xlink:href="#DejaVuSerif-2e"/>
       <use x="95.410156" xlink:href="#DejaVuSerif-30"/>
       <use x="159.033203" xlink:href="#DejaVuSerif-30"/>
      </g>
     </g>
    </g>
    <g id="xtick_13">
     <g id="line2d_64">
      <path clip-path="url(#p48c4eb9036)" d="M 478.251188 130.232 
L 478.251188 33.568 
" style="fill:none;opacity:0.5;stroke:#0000ff;stroke-linecap:round;stroke-width:0.1;"/>
     </g>
     <g id="line2d_65"/>
     <g id="text_34">
      <!-- 0.25 -->
      <g style="fill:#262626;" transform="translate(469.344938 141.91075)scale(0.08 -0.08)">
       <use xlink:href="#DejaVuSerif-30"/>
       <use x="63.623047" xlink:href="#DejaVuSerif-2e"/>
       <use x="95.410156" xlink:href="#DejaVuSerif-32"/>
       <use x="159.033203" xlink:href="#DejaVuSerif-35"/>
      </g>
     </g>
    </g>
    <g id="xtick_14">
     <g id="line2d_66">
      <path clip-path="url(#p48c4eb9036)" d="M 503.447125 130.232 
L 503.447125 33.568 
" style="fill:none;opacity:0.5;stroke:#0000ff;stroke-linecap:round;stroke-width:0.1;"/>
     </g>
     <g id="line2d_67"/>
     <g id="text_35">
      <!-- 0.50 -->
      <g style="fill:#262626;" transform="translate(494.540875 141.91075)scale(0.08 -0.08)">
       <use xlink:href="#DejaVuSerif-30"/>
       <use x="63.623047" xlink:href="#DejaVuSerif-2e"/>
       <use x="95.410156" xlink:href="#DejaVuSerif-35"/>
       <use x="159.033203" xlink:href="#DejaVuSerif-30"/>
      </g>
     </g>
    </g>
    <g id="xtick_15">
     <g id="line2d_68">
      <path clip-path="url(#p48c4eb9036)" d="M 528.643063 130.232 
L 528.643063 33.568 
" style="fill:none;opacity:0.5;stroke:#0000ff;stroke-linecap:round;stroke-width:0.1;"/>
     </g>
     <g id="line2d_69"/>
     <g id="text_36">
      <!-- 0.75 -->
      <g style="fill:#262626;" transform="translate(519.736813 141.91075)scale(0.08 -0.08)">
       <use xlink:href="#DejaVuSerif-30"/>
       <use x="63.623047" xlink:href="#DejaVuSerif-2e"/>
       <use x="95.410156" xlink:href="#DejaVuSerif-37"/>
       <use x="159.033203" xlink:href="#DejaVuSerif-35"/>
      </g>
     </g>
    </g>
    <g id="xtick_16">
     <g id="line2d_70">
      <path clip-path="url(#p48c4eb9036)" d="M 553.839 130.232 
L 553.839 33.568 
" style="fill:none;opacity:0.5;stroke:#0000ff;stroke-linecap:round;stroke-width:0.1;"/>
     </g>
     <g id="line2d_71"/>
     <g id="text_37">
      <!-- 1.00 -->
      <g style="fill:#262626;" transform="translate(544.93275 141.91075)scale(0.08 -0.08)">
       <use xlink:href="#DejaVuSerif-31"/>
       <use x="63.623047" xlink:href="#DejaVuSerif-2e"/>
       <use x="95.410156" xlink:href="#DejaVuSerif-30"/>
       <use x="159.033203" xlink:href="#DejaVuSerif-30"/>
      </g>
     </g>
    </g>
   </g>
   <g id="matplotlib.axis_8">
    <g id="ytick_19">
     <g id="line2d_72">
      <path clip-path="url(#p48c4eb9036)" d="M 453.05525 126.684226 
L 553.839 126.684226 
" style="fill:none;opacity:0.5;stroke:#0000ff;stroke-linecap:round;stroke-width:0.1;"/>
     </g>
     <g id="line2d_73"/>
     <g id="text_38">
      <!-- 0 -->
      <g style="fill:#262626;" transform="translate(442.36525 129.723601)scale(0.08 -0.08)">
       <use xlink:href="#DejaVuSerif-30"/>
      </g>
     </g>
    </g>
    <g id="ytick_20">
     <g id="line2d_74">
      <path clip-path="url(#p48c4eb9036)" d="M 453.05525 108.634441 
L 553.839 108.634441 
" style="fill:none;opacity:0.5;stroke:#0000ff;stroke-linecap:round;stroke-width:0.1;"/>
     </g>
     <g id="line2d_75"/>
     <g id="text_39">
      <!-- 25 -->
      <g style="fill:#262626;" transform="translate(437.27525 111.673816)scale(0.08 -0.08)">
       <use xlink:href="#DejaVuSerif-32"/>
       <use x="63.623047" xlink:href="#DejaVuSerif-35"/>
      </g>
     </g>
    </g>
    <g id="ytick_21">
     <g id="line2d_76">
      <path clip-path="url(#p48c4eb9036)" d="M 453.05525 90.584656 
L 553.839 90.584656 
" style="fill:none;opacity:0.5;stroke:#0000ff;stroke-linecap:round;stroke-width:0.1;"/>
     </g>
     <g id="line2d_77"/>
     <g id="text_40">
      <!-- 50 -->
      <g style="fill:#262626;" transform="translate(437.27525 93.624031)scale(0.08 -0.08)">
       <use xlink:href="#DejaVuSerif-35"/>
       <use x="63.623047" xlink:href="#DejaVuSerif-30"/>
      </g>
     </g>
    </g>
    <g id="ytick_22">
     <g id="line2d_78">
      <path clip-path="url(#p48c4eb9036)" d="M 453.05525 72.534871 
L 553.839 72.534871 
" style="fill:none;opacity:0.5;stroke:#0000ff;stroke-linecap:round;stroke-width:0.1;"/>
     </g>
     <g id="line2d_79"/>
     <g id="text_41">
      <!-- 75 -->
      <g style="fill:#262626;" transform="translate(437.27525 75.574246)scale(0.08 -0.08)">
       <use xlink:href="#DejaVuSerif-37"/>
       <use x="63.623047" xlink:href="#DejaVuSerif-35"/>
      </g>
     </g>
    </g>
    <g id="ytick_23">
     <g id="line2d_80">
      <path clip-path="url(#p48c4eb9036)" d="M 453.05525 54.485085 
L 553.839 54.485085 
" style="fill:none;opacity:0.5;stroke:#0000ff;stroke-linecap:round;stroke-width:0.1;"/>
     </g>
     <g id="line2d_81"/>
     <g id="text_42">
      <!-- 100 -->
      <g style="fill:#262626;" transform="translate(432.18525 57.52446)scale(0.08 -0.08)">
       <use xlink:href="#DejaVuSerif-31"/>
       <use x="63.623047" xlink:href="#DejaVuSerif-30"/>
       <use x="127.246094" xlink:href="#DejaVuSerif-30"/>
      </g>
     </g>
    </g>
    <g id="ytick_24">
     <g id="line2d_82">
      <path clip-path="url(#p48c4eb9036)" d="M 453.05525 36.4353 
L 553.839 36.4353 
" style="fill:none;opacity:0.5;stroke:#0000ff;stroke-linecap:round;stroke-width:0.1;"/>
     </g>
     <g id="line2d_83"/>
     <g id="text_43">
      <!-- 125 -->
      <g style="fill:#262626;" transform="translate(432.18525 39.474675)scale(0.08 -0.08)">
       <use xlink:href="#DejaVuSerif-31"/>
       <use x="63.623047" xlink:href="#DejaVuSerif-32"/>
       <use x="127.246094" xlink:href="#DejaVuSerif-35"/>
      </g>
     </g>
    </g>
   </g>
   <g id="line2d_84">
    <path clip-path="url(#p48c4eb9036)" d="M 552.831163 37.961818 
L 551.823325 37.961818 
L 551.823325 59.131156 
L 550.815488 59.131156 
L 550.815488 69.860258 
L 549.80765 69.860258 
L 549.80765 76.792725 
L 548.799813 76.792725 
L 548.799813 81.80306 
L 547.791975 81.80306 
L 547.791975 85.669212 
L 546.784138 85.669212 
L 546.784138 88.784055 
L 545.7763 88.784055 
L 545.7763 91.371756 
L 544.768463 91.371756 
L 544.768463 93.571435 
L 543.760625 93.571435 
L 543.760625 95.474925 
L 542.752788 95.474925 
L 542.752788 97.145778 
L 541.74495 97.145778 
L 541.74495 98.62966 
L 540.737113 98.62966 
L 540.737113 99.960395 
L 539.729275 99.960395 
L 539.729275 101.163678 
L 538.721438 101.163678 
L 538.721438 102.259451 
L 537.7136 102.259451 
L 537.7136 103.263474 
L 536.705762 103.263474 
L 536.705762 104.188398 
L 535.697925 104.188398 
L 535.697925 105.044524 
L 534.690088 105.044524 
L 534.690088 105.840335 
L 533.68225 105.840335 
L 533.68225 106.582899 
L 532.674413 106.582899 
L 532.674413 107.278157 
L 531.666575 107.278157 
L 531.666575 107.93115 
L 530.658738 107.93115 
L 530.658738 108.546185 
L 529.6509 108.546185 
L 529.6509 109.126973 
L 528.643063 109.126973 
L 528.643063 109.676727 
L 527.635225 109.676727 
L 527.635225 110.198251 
L 526.627388 110.198251 
L 526.627388 110.694001 
L 525.61955 110.694001 
L 525.61955 111.166141 
L 524.611713 111.166141 
L 524.611713 111.616587 
L 523.603875 111.616587 
L 523.603875 112.047043 
L 522.596038 112.047043 
L 522.596038 112.459028 
L 521.5882 112.459028 
L 521.5882 112.853905 
L 520.580363 112.853905 
L 520.580363 113.232899 
L 519.572525 113.232899 
L 519.572525 113.597117 
L 518.564687 113.597117 
L 518.564687 113.947558 
L 517.55685 113.947558 
L 517.55685 114.285132 
L 516.549013 114.285132 
L 516.549013 114.610666 
L 515.541175 114.610666 
L 515.541175 114.924915 
L 514.533338 114.924915 
L 514.533338 115.22857 
L 513.5255 115.22857 
L 513.5255 115.522265 
L 512.517663 115.522265 
L 512.517663 115.806583 
L 511.509825 115.806583 
L 511.509825 116.082063 
L 510.501988 116.082063 
L 510.501988 116.3492 
L 509.49415 116.3492 
L 509.49415 116.608453 
L 508.486313 116.608453 
L 508.486313 116.86025 
L 507.478475 116.86025 
L 507.478475 117.104986 
L 506.470638 117.104986 
L 506.470638 117.343029 
L 505.4628 117.343029 
L 505.4628 117.574723 
L 504.454963 117.574723 
L 504.454963 117.80039 
L 503.447125 117.80039 
L 503.447125 118.020329 
L 502.439288 118.020329 
L 502.439288 118.234824 
L 501.43145 118.234824 
L 501.43145 118.444138 
L 500.423613 118.444138 
L 500.423613 118.648521 
L 499.415775 118.648521 
L 499.415775 118.848208 
L 498.407938 118.848208 
L 498.407938 119.043419 
L 497.4001 119.043419 
L 497.4001 119.234365 
L 496.392263 119.234365 
L 496.392263 119.421245 
L 495.384425 119.421245 
L 495.384425 119.604246 
L 494.376588 119.604246 
L 494.376588 119.783549 
L 493.36875 119.783549 
L 493.36875 119.959323 
L 492.360913 119.959323 
L 492.360913 120.131733 
L 491.353075 120.131733 
L 491.353075 120.300935 
L 490.345238 120.300935 
L 490.345238 120.467078 
L 489.3374 120.467078 
L 489.3374 120.630307 
L 488.329563 120.630307 
L 488.329563 120.790761 
L 487.321725 120.790761 
L 487.321725 120.948574 
L 486.313888 120.948574 
L 486.313888 121.103877 
L 485.30605 121.103877 
L 485.30605 121.256796 
L 484.298213 121.256796 
L 484.298213 121.407456 
L 483.290375 121.407456 
L 483.290375 121.555978 
L 482.282538 121.555978 
L 482.282538 121.702483 
L 481.2747 121.702483 
L 481.2747 121.847089 
L 480.266863 121.847089 
L 480.266863 121.989914 
L 479.259025 121.989914 
L 479.259025 122.131077 
L 478.251188 122.131077 
L 478.251188 122.270696 
L 477.24335 122.270696 
L 477.24335 122.408893 
L 476.235513 122.408893 
L 476.235513 122.545791 
L 475.227675 122.545791 
L 475.227675 122.681517 
L 474.219838 122.681517 
L 474.219838 122.816204 
L 473.212 122.816204 
L 473.212 122.94999 
L 472.204163 122.94999 
L 472.204163 123.083022 
L 471.196325 123.083022 
L 471.196325 123.215458 
L 470.188488 123.215458 
L 470.188488 123.347469 
L 469.18065 123.347469 
L 469.18065 123.479244 
L 468.172813 123.479244 
L 468.172813 123.61099 
L 467.164975 123.61099 
L 467.164975 123.742945 
L 466.157138 123.742945 
L 466.157138 123.875381 
L 465.1493 123.875381 
L 465.1493 124.008615 
L 464.141463 124.008615 
L 464.141463 124.143026 
L 463.133625 124.143026 
L 463.133625 124.279075 
L 462.125788 124.279075 
L 462.125788 124.417335 
L 461.11795 124.417335 
L 461.11795 124.558544 
L 460.110113 124.558544 
L 460.110113 124.703678 
L 459.102275 124.703678 
L 459.102275 124.854089 
L 458.094438 124.854089 
L 458.094438 125.011741 
L 457.0866 125.011741 
L 457.0866 125.179699 
L 456.078763 125.179699 
L 456.078763 125.36325 
L 455.070925 125.36325 
L 455.070925 125.573054 
L 454.063088 125.573054 
L 454.063088 125.838182 
L 454.063088 125.838182 
" style="fill:none;stroke:#4c72b0;stroke-linecap:round;"/>
   </g>
   <g id="patch_18">
    <path d="M 453.05525 130.232 
L 453.05525 33.568 
" style="fill:none;"/>
   </g>
   <g id="patch_19">
    <path d="M 553.839 130.232 
L 553.839 33.568 
" style="fill:none;"/>
   </g>
   <g id="patch_20">
    <path d="M 453.05525 130.232 
L 553.839 130.232 
" style="fill:none;"/>
   </g>
   <g id="patch_21">
    <path d="M 453.05525 33.568 
L 553.839 33.568 
" style="fill:none;"/>
   </g>
   <g id="text_44">
    <!-- Lee diagram -->
    <defs>
     <path d="M 5.515625 0 
L 5.515625 5.171875 
L 14.796875 5.171875 
L 14.796875 67.671875 
L 5.515625 67.671875 
L 5.515625 72.90625 
L 33.984375 72.90625 
L 33.984375 67.671875 
L 24.703125 67.671875 
L 24.703125 6 
L 58.015625 6 
L 58.015625 18.21875 
L 64.015625 18.21875 
L 64.015625 0 
z
" id="DejaVuSerif-4c"/>
     <path d="M 54.203125 25 
L 15.484375 25 
L 15.484375 24.609375 
Q 15.484375 14.109375 19.4375 8.765625 
Q 23.390625 3.421875 31.109375 3.421875 
Q 37.015625 3.421875 40.796875 6.515625 
Q 44.578125 9.625 46.09375 15.71875 
L 53.328125 15.71875 
Q 51.171875 7.171875 45.375 2.875 
Q 39.59375 -1.421875 30.171875 -1.421875 
Q 18.796875 -1.421875 11.890625 6.078125 
Q 4.984375 13.578125 4.984375 25.984375 
Q 4.984375 38.28125 11.765625 45.796875 
Q 18.5625 53.328125 29.59375 53.328125 
Q 41.359375 53.328125 47.65625 46.0625 
Q 53.953125 38.8125 54.203125 25 
z
M 43.609375 30.171875 
Q 43.3125 39.265625 39.765625 43.875 
Q 36.234375 48.484375 29.59375 48.484375 
Q 23.390625 48.484375 19.828125 43.84375 
Q 16.265625 39.203125 15.484375 30.171875 
z
" id="DejaVuSerif-65"/>
     <path id="DejaVuSerif-20"/>
     <path d="M 52.484375 5.171875 
L 61.078125 5.171875 
L 61.078125 0 
L 43.5 0 
L 43.5 8.109375 
Q 40.875 3.21875 36.796875 0.890625 
Q 32.71875 -1.421875 26.703125 -1.421875 
Q 17.140625 -1.421875 11.0625 6.171875 
Q 4.984375 13.765625 4.984375 25.984375 
Q 4.984375 38.1875 11.03125 45.75 
Q 17.09375 53.328125 26.703125 53.328125 
Q 32.71875 53.328125 36.796875 51 
Q 40.875 48.6875 43.5 43.796875 
L 43.5 70.796875 
L 35.015625 70.796875 
L 35.015625 75.984375 
L 52.484375 75.984375 
z
M 43.5 23.390625 
L 43.5 28.515625 
Q 43.5 37.84375 39.90625 42.765625 
Q 36.328125 47.703125 29.5 47.703125 
Q 22.5625 47.703125 19.015625 42.234375 
Q 15.484375 36.765625 15.484375 25.984375 
Q 15.484375 15.234375 19.015625 9.71875 
Q 22.5625 4.203125 29.5 4.203125 
Q 36.328125 4.203125 39.90625 9.109375 
Q 43.5 14.015625 43.5 23.390625 
z
" id="DejaVuSerif-64"/>
     <path d="M 9.71875 68.015625 
Q 9.71875 70.265625 11.34375 71.921875 
Q 12.984375 73.578125 15.28125 73.578125 
Q 17.53125 73.578125 19.15625 71.921875 
Q 20.796875 70.265625 20.796875 68.015625 
Q 20.796875 65.71875 19.1875 64.109375 
Q 17.578125 62.5 15.28125 62.5 
Q 12.984375 62.5 11.34375 64.109375 
Q 9.71875 65.71875 9.71875 68.015625 
z
M 21.1875 5.171875 
L 29.6875 5.171875 
L 29.6875 0 
L 3.609375 0 
L 3.609375 5.171875 
L 12.203125 5.171875 
L 12.203125 46.6875 
L 3.609375 46.6875 
L 3.609375 51.90625 
L 21.1875 51.90625 
z
" id="DejaVuSerif-69"/>
     <path d="M 39.796875 16.3125 
L 39.796875 27.296875 
L 28.21875 27.296875 
Q 21.53125 27.296875 18.25 24.40625 
Q 14.984375 21.53125 14.984375 15.578125 
Q 14.984375 10.15625 18.296875 6.984375 
Q 21.625 3.8125 27.296875 3.8125 
Q 32.90625 3.8125 36.34375 7.28125 
Q 39.796875 10.75 39.796875 16.3125 
z
M 48.78125 32.421875 
L 48.78125 5.171875 
L 56.78125 5.171875 
L 56.78125 0 
L 39.796875 0 
L 39.796875 5.609375 
Q 36.8125 2 32.90625 0.28125 
Q 29 -1.421875 23.78125 -1.421875 
Q 15.140625 -1.421875 10.0625 3.171875 
Q 4.984375 7.765625 4.984375 15.578125 
Q 4.984375 23.640625 10.796875 28.078125 
Q 16.609375 32.515625 27.203125 32.515625 
L 39.796875 32.515625 
L 39.796875 36.078125 
Q 39.796875 42 36.203125 45.234375 
Q 32.625 48.484375 26.125 48.484375 
Q 20.75 48.484375 17.578125 46.046875 
Q 14.40625 43.609375 13.625 38.8125 
L 8.984375 38.8125 
L 8.984375 49.3125 
Q 13.671875 51.3125 18.09375 52.3125 
Q 22.515625 53.328125 26.703125 53.328125 
Q 37.5 53.328125 43.140625 47.96875 
Q 48.78125 42.625 48.78125 32.421875 
z
" id="DejaVuSerif-61"/>
     <path d="M 52.484375 46.6875 
L 52.484375 1.125 
Q 52.484375 -10.0625 46.328125 -16.140625 
Q 40.1875 -22.21875 28.8125 -22.21875 
Q 23.6875 -22.21875 19 -21.28125 
Q 14.3125 -20.359375 10.015625 -18.5 
L 10.015625 -7.625 
L 14.703125 -7.625 
Q 15.578125 -12.703125 18.84375 -15.046875 
Q 22.125 -17.390625 28.21875 -17.390625 
Q 36.140625 -17.390625 39.8125 -12.921875 
Q 43.5 -8.453125 43.5 1.125 
L 43.5 8.109375 
Q 40.875 3.21875 36.796875 0.890625 
Q 32.71875 -1.421875 26.703125 -1.421875 
Q 17.140625 -1.421875 11.0625 6.171875 
Q 4.984375 13.765625 4.984375 25.984375 
Q 4.984375 38.1875 11.03125 45.75 
Q 17.09375 53.328125 26.703125 53.328125 
Q 32.71875 53.328125 36.796875 51 
Q 40.875 48.6875 43.5 43.796875 
L 43.5 51.90625 
L 61.078125 51.90625 
L 61.078125 46.6875 
z
M 43.5 28.515625 
Q 43.5 37.84375 39.90625 42.765625 
Q 36.328125 47.703125 29.5 47.703125 
Q 22.5625 47.703125 19.015625 42.234375 
Q 15.484375 36.765625 15.484375 25.984375 
Q 15.484375 15.234375 19.015625 9.71875 
Q 22.5625 4.203125 29.5 4.203125 
Q 36.328125 4.203125 39.90625 9.109375 
Q 43.5 14.015625 43.5 23.390625 
z
" id="DejaVuSerif-67"/>
     <path d="M 47.796875 52 
L 47.796875 39.015625 
L 42.625 39.015625 
Q 42.390625 42.875 40.484375 44.78125 
Q 38.578125 46.6875 34.90625 46.6875 
Q 28.265625 46.6875 24.71875 42.09375 
Q 21.1875 37.5 21.1875 28.90625 
L 21.1875 5.171875 
L 31.59375 5.171875 
L 31.59375 0 
L 4.109375 0 
L 4.109375 5.171875 
L 12.203125 5.171875 
L 12.203125 46.78125 
L 3.609375 46.78125 
L 3.609375 51.90625 
L 21.1875 51.90625 
L 21.1875 42.671875 
Q 23.828125 48.09375 27.96875 50.703125 
Q 32.125 53.328125 38.09375 53.328125 
Q 40.28125 53.328125 42.703125 52.984375 
Q 45.125 52.640625 47.796875 52 
z
" id="DejaVuSerif-72"/>
     <path d="M 51.8125 41.796875 
Q 54.390625 47.515625 58.421875 50.421875 
Q 62.453125 53.328125 67.828125 53.328125 
Q 75.984375 53.328125 79.984375 48.265625 
Q 83.984375 43.21875 83.984375 33.015625 
L 83.984375 5.171875 
L 92.09375 5.171875 
L 92.09375 0 
L 67.1875 0 
L 67.1875 5.171875 
L 75 5.171875 
L 75 31.984375 
Q 75 39.9375 72.65625 43.3125 
Q 70.3125 46.6875 64.890625 46.6875 
Q 58.890625 46.6875 55.734375 42.140625 
Q 52.59375 37.59375 52.59375 28.90625 
L 52.59375 5.171875 
L 60.40625 5.171875 
L 60.40625 0 
L 35.796875 0 
L 35.796875 5.171875 
L 43.609375 5.171875 
L 43.609375 32.328125 
Q 43.609375 40.09375 41.265625 43.390625 
Q 38.921875 46.6875 33.5 46.6875 
Q 27.484375 46.6875 24.328125 42.140625 
Q 21.1875 37.59375 21.1875 28.90625 
L 21.1875 5.171875 
L 29 5.171875 
L 29 0 
L 4.109375 0 
L 4.109375 5.171875 
L 12.203125 5.171875 
L 12.203125 46.78125 
L 3.609375 46.78125 
L 3.609375 51.90625 
L 21.1875 51.90625 
L 21.1875 42.671875 
Q 23.6875 47.859375 27.53125 50.59375 
Q 31.390625 53.328125 36.28125 53.328125 
Q 42.328125 53.328125 46.375 50.3125 
Q 50.4375 47.3125 51.8125 41.796875 
z
" id="DejaVuSerif-6d"/>
    </defs>
    <g style="fill:#262626;" transform="translate(472.801375 27.568)scale(0.096 -0.096)">
     <use xlink:href="#DejaVuSerif-4c"/>
     <use x="66.40625" xlink:href="#DejaVuSerif-65"/>
     <use x="125.585938" xlink:href="#DejaVuSerif-65"/>
     <use x="184.765625" xlink:href="#DejaVuSerif-20"/>
     <use x="216.552734" xlink:href="#DejaVuSerif-64"/>
     <use x="280.566406" xlink:href="#DejaVuSerif-69"/>
     <use x="312.548828" xlink:href="#DejaVuSerif-61"/>
     <use x="372.167969" xlink:href="#DejaVuSerif-67"/>
     <use x="436.181641" xlink:href="#DejaVuSerif-72"/>
     <use x="483.984375" xlink:href="#DejaVuSerif-61"/>
     <use x="543.603516" xlink:href="#DejaVuSerif-6d"/>
    </g>
   </g>
  </g>
  <g id="text_45">
   <!-- : lognorm -->
   <defs>
    <path d="M 10.40625 5.078125 
Q 10.40625 7.8125 12.28125 9.71875 
Q 14.15625 11.625 16.890625 11.625 
Q 19.625 11.625 21.5 9.71875 
Q 23.390625 7.8125 23.390625 5.078125 
Q 23.390625 2.34375 21.53125 0.453125 
Q 19.671875 -1.421875 16.890625 -1.421875 
Q 14.109375 -1.421875 12.25 0.453125 
Q 10.40625 2.34375 10.40625 5.078125 
z
M 10.40625 36.921875 
Q 10.40625 39.65625 12.28125 41.53125 
Q 14.15625 43.40625 16.890625 43.40625 
Q 19.671875 43.40625 21.53125 41.546875 
Q 23.390625 39.703125 23.390625 36.921875 
Q 23.390625 34.125 21.53125 32.265625 
Q 19.671875 30.421875 16.890625 30.421875 
Q 14.15625 30.421875 12.28125 32.296875 
Q 10.40625 34.1875 10.40625 36.921875 
z
" id="DejaVuSerif-3a"/>
    <path d="M 20.515625 5.171875 
L 29 5.171875 
L 29 0 
L 2.875 0 
L 2.875 5.171875 
L 11.53125 5.171875 
L 11.53125 70.796875 
L 2.875 70.796875 
L 2.875 75.984375 
L 20.515625 75.984375 
z
" id="DejaVuSerif-6c"/>
    <path d="M 30.078125 3.421875 
Q 37.3125 3.421875 40.984375 9.125 
Q 44.671875 14.84375 44.671875 25.984375 
Q 44.671875 37.109375 40.984375 42.796875 
Q 37.3125 48.484375 30.078125 48.484375 
Q 22.859375 48.484375 19.171875 42.796875 
Q 15.484375 37.109375 15.484375 25.984375 
Q 15.484375 14.84375 19.1875 9.125 
Q 22.90625 3.421875 30.078125 3.421875 
z
M 30.078125 -1.421875 
Q 18.75 -1.421875 11.859375 6.078125 
Q 4.984375 13.578125 4.984375 25.984375 
Q 4.984375 38.375 11.84375 45.84375 
Q 18.703125 53.328125 30.078125 53.328125 
Q 41.453125 53.328125 48.3125 45.84375 
Q 55.171875 38.375 55.171875 25.984375 
Q 55.171875 13.578125 48.3125 6.078125 
Q 41.453125 -1.421875 30.078125 -1.421875 
z
" id="DejaVuSerif-6f"/>
    <path d="M 4.109375 0 
L 4.109375 5.171875 
L 12.203125 5.171875 
L 12.203125 46.6875 
L 3.609375 46.6875 
L 3.609375 51.90625 
L 21.1875 51.90625 
L 21.1875 42.671875 
Q 23.6875 47.953125 27.65625 50.640625 
Q 31.640625 53.328125 36.921875 53.328125 
Q 45.515625 53.328125 49.5625 48.390625 
Q 53.609375 43.453125 53.609375 33.015625 
L 53.609375 5.171875 
L 61.625 5.171875 
L 61.625 0 
L 36.8125 0 
L 36.8125 5.171875 
L 44.578125 5.171875 
L 44.578125 30.171875 
Q 44.578125 39.703125 42.234375 43.234375 
Q 39.890625 46.78125 33.984375 46.78125 
Q 27.734375 46.78125 24.453125 42.203125 
Q 21.1875 37.640625 21.1875 28.90625 
L 21.1875 5.171875 
L 29 5.171875 
L 29 0 
z
" id="DejaVuSerif-6e"/>
   </defs>
   <g style="fill:#262626;" transform="translate(256.8585 15.9534)scale(0.1152 -0.1152)">
    <use xlink:href="#DejaVuSerif-3a"/>
    <use x="33.691406" xlink:href="#DejaVuSerif-20"/>
    <use x="65.478516" xlink:href="#DejaVuSerif-6c"/>
    <use x="97.460938" xlink:href="#DejaVuSerif-6f"/>
    <use x="157.666016" xlink:href="#DejaVuSerif-67"/>
    <use x="221.679688" xlink:href="#DejaVuSerif-6e"/>
    <use x="286.083984" xlink:href="#DejaVuSerif-6f"/>
    <use x="346.289062" xlink:href="#DejaVuSerif-72"/>
    <use x="394.091797" xlink:href="#DejaVuSerif-6d"/>
   </g>
  </g>
 </g>
 <defs>
  <clipPath id="pcc911c496f">
   <rect height="96.664" width="100.78375" x="30.6125" y="33.568"/>
  </clipPath>
  <clipPath id="p30d38e419e">
   <rect height="96.664" width="100.78375" x="171.42675" y="33.568"/>
  </clipPath>
  <clipPath id="pf148dcd45d">
   <rect height="96.664" width="100.78375" x="312.241" y="33.568"/>
  </clipPath>
  <clipPath id="p48c4eb9036">
   <rect height="96.664" width="100.78375" x="453.05525" y="33.568"/>
  </clipPath>
 </defs>
</svg>
