<?xml version="1.0" encoding="utf-8" standalone="no"?>
<!DOCTYPE svg PUBLIC "-//W3C//DTD SVG 1.1//EN"
  "http://www.w3.org/Graphics/SVG/1.1/DTD/svg11.dtd">
<!-- Created with matplotlib (http://matplotlib.org/) -->
<svg height="150.7745pt" version="1.1" viewBox="0 0 425.925179 150.7745" width="425.925179pt" xmlns="http://www.w3.org/2000/svg" xmlns:xlink="http://www.w3.org/1999/xlink">
 <defs>
  <style type="text/css">
*{stroke-linecap:butt;stroke-linejoin:round;}
  </style>
 </defs>
 <g id="figure_1">
  <g id="patch_1">
   <path d="M 0 150.7745 
L 425.925179 150.7745 
L 425.925179 -0 
L 0 -0 
z
" style="fill:#ffffff;"/>
  </g>
  <g id="axes_1">
   <g id="patch_2">
    <path d="M 30.6125 130.232 
L 128.53464 130.232 
L 128.53464 33.568 
L 30.6125 33.568 
z
" style="fill:#eaeaf2;"/>
   </g>
   <g id="matplotlib.axis_1">
    <g id="xtick_1">
     <g id="line2d_1">
      <path clip-path="url(#pbdcf7fac8c)" d="M 35.063506 130.232 
L 35.063506 33.568 
" style="fill:none;stroke:#ffffff;stroke-linecap:round;stroke-width:0.8;"/>
     </g>
     <g id="line2d_2"/>
     <g id="text_1">
      <!-- 0 -->
      <defs>
       <path d="M 31.78125 3.421875 
Q 39.265625 3.421875 42.96875 11.625 
Q 46.6875 19.828125 46.6875 36.375 
Q 46.6875 52.984375 42.96875 61.1875 
Q 39.265625 69.390625 31.78125 69.390625 
Q 24.3125 69.390625 20.59375 61.1875 
Q 16.890625 52.984375 16.890625 36.375 
Q 16.890625 19.828125 20.59375 11.625 
Q 24.3125 3.421875 31.78125 3.421875 
z
M 31.78125 -1.421875 
Q 19.921875 -1.421875 13.25 8.53125 
Q 6.59375 18.5 6.59375 36.375 
Q 6.59375 54.296875 13.25 64.25 
Q 19.921875 74.21875 31.78125 74.21875 
Q 43.703125 74.21875 50.34375 64.25 
Q 56.984375 54.296875 56.984375 36.375 
Q 56.984375 18.5 50.34375 8.53125 
Q 43.703125 -1.421875 31.78125 -1.421875 
z
" id="DejaVuSerif-30"/>
      </defs>
      <g style="fill:#262626;" transform="translate(32.518506 141.91075)scale(0.08 -0.08)">
       <use xlink:href="#DejaVuSerif-30"/>
      </g>
     </g>
    </g>
    <g id="xtick_2">
     <g id="line2d_3">
      <path clip-path="url(#pbdcf7fac8c)" d="M 69.227196 130.232 
L 69.227196 33.568 
" style="fill:none;stroke:#ffffff;stroke-linecap:round;stroke-width:0.8;"/>
     </g>
     <g id="line2d_4"/>
     <g id="text_2">
      <!-- 50000 -->
      <defs>
       <path d="M 50.296875 72.90625 
L 50.296875 64.890625 
L 16.890625 64.890625 
L 16.890625 44 
Q 19.4375 45.75 22.828125 46.625 
Q 26.21875 47.515625 30.421875 47.515625 
Q 42.234375 47.515625 49.0625 40.96875 
Q 55.90625 34.421875 55.90625 23.09375 
Q 55.90625 11.53125 49 5.046875 
Q 42.09375 -1.421875 29.59375 -1.421875 
Q 24.5625 -1.421875 19.28125 -0.1875 
Q 14.015625 1.03125 8.5 3.515625 
L 8.5 17.671875 
L 14.015625 17.671875 
Q 14.453125 10.75 18.421875 7.078125 
Q 22.40625 3.421875 29.59375 3.421875 
Q 37.3125 3.421875 41.453125 8.5 
Q 45.609375 13.578125 45.609375 23.09375 
Q 45.609375 32.5625 41.484375 37.609375 
Q 37.359375 42.671875 29.59375 42.671875 
Q 25.203125 42.671875 21.84375 41.109375 
Q 18.5 39.546875 15.921875 36.28125 
L 11.71875 36.28125 
L 11.71875 72.90625 
z
" id="DejaVuSerif-35"/>
      </defs>
      <g style="fill:#262626;" transform="translate(56.502196 141.91075)scale(0.08 -0.08)">
       <use xlink:href="#DejaVuSerif-35"/>
       <use x="63.623047" xlink:href="#DejaVuSerif-30"/>
       <use x="127.246094" xlink:href="#DejaVuSerif-30"/>
       <use x="190.869141" xlink:href="#DejaVuSerif-30"/>
       <use x="254.492188" xlink:href="#DejaVuSerif-30"/>
      </g>
     </g>
    </g>
    <g id="xtick_3">
     <g id="line2d_5">
      <path clip-path="url(#pbdcf7fac8c)" d="M 103.390886 130.232 
L 103.390886 33.568 
" style="fill:none;stroke:#ffffff;stroke-linecap:round;stroke-width:0.8;"/>
     </g>
     <g id="line2d_6"/>
     <g id="text_3">
      <!-- 100000 -->
      <defs>
       <path d="M 14.203125 0 
L 14.203125 5.171875 
L 26.90625 5.171875 
L 26.90625 65.828125 
L 12.203125 56.296875 
L 12.203125 62.703125 
L 29.984375 74.21875 
L 36.71875 74.21875 
L 36.71875 5.171875 
L 49.421875 5.171875 
L 49.421875 0 
z
" id="DejaVuSerif-31"/>
      </defs>
      <g style="fill:#262626;" transform="translate(88.120886 141.91075)scale(0.08 -0.08)">
       <use xlink:href="#DejaVuSerif-31"/>
       <use x="63.623047" xlink:href="#DejaVuSerif-30"/>
       <use x="127.246094" xlink:href="#DejaVuSerif-30"/>
       <use x="190.869141" xlink:href="#DejaVuSerif-30"/>
       <use x="254.492188" xlink:href="#DejaVuSerif-30"/>
       <use x="318.115234" xlink:href="#DejaVuSerif-30"/>
      </g>
     </g>
    </g>
   </g>
   <g id="matplotlib.axis_2">
    <g id="ytick_1">
     <g id="line2d_7">
      <path clip-path="url(#pbdcf7fac8c)" d="M 30.6125 130.232 
L 128.53464 130.232 
" style="fill:none;stroke:#ffffff;stroke-linecap:round;stroke-width:0.8;"/>
     </g>
     <g id="line2d_8"/>
     <g id="text_4">
      <!-- 0.00 -->
      <defs>
       <path d="M 9.421875 5.078125 
Q 9.421875 7.8125 11.28125 9.71875 
Q 13.140625 11.625 15.921875 11.625 
Q 18.609375 11.625 20.5 9.71875 
Q 22.40625 7.8125 22.40625 5.078125 
Q 22.40625 2.390625 20.5 0.484375 
Q 18.609375 -1.421875 15.921875 -1.421875 
Q 13.140625 -1.421875 11.28125 0.453125 
Q 9.421875 2.34375 9.421875 5.078125 
z
" id="DejaVuSerif-2e"/>
      </defs>
      <g style="fill:#262626;" transform="translate(7.2 133.271375)scale(0.08 -0.08)">
       <use xlink:href="#DejaVuSerif-30"/>
       <use x="63.623047" xlink:href="#DejaVuSerif-2e"/>
       <use x="95.410156" xlink:href="#DejaVuSerif-30"/>
       <use x="159.033203" xlink:href="#DejaVuSerif-30"/>
      </g>
     </g>
    </g>
    <g id="ytick_2">
     <g id="line2d_9">
      <path clip-path="url(#pbdcf7fac8c)" d="M 30.6125 110.762499 
L 128.53464 110.762499 
" style="fill:none;stroke:#ffffff;stroke-linecap:round;stroke-width:0.8;"/>
     </g>
     <g id="line2d_10"/>
     <g id="text_5">
      <!-- 0.01 -->
      <g style="fill:#262626;" transform="translate(7.2 113.801874)scale(0.08 -0.08)">
       <use xlink:href="#DejaVuSerif-30"/>
       <use x="63.623047" xlink:href="#DejaVuSerif-2e"/>
       <use x="95.410156" xlink:href="#DejaVuSerif-30"/>
       <use x="159.033203" xlink:href="#DejaVuSerif-31"/>
      </g>
     </g>
    </g>
    <g id="ytick_3">
     <g id="line2d_11">
      <path clip-path="url(#pbdcf7fac8c)" d="M 30.6125 91.292997 
L 128.53464 91.292997 
" style="fill:none;stroke:#ffffff;stroke-linecap:round;stroke-width:0.8;"/>
     </g>
     <g id="line2d_12"/>
     <g id="text_6">
      <!-- 0.02 -->
      <defs>
       <path d="M 12.796875 55.515625 
L 7.328125 55.515625 
L 7.328125 68.5 
Q 12.546875 71.296875 17.84375 72.75 
Q 23.140625 74.21875 28.21875 74.21875 
Q 39.59375 74.21875 46.1875 68.703125 
Q 52.78125 63.1875 52.78125 53.71875 
Q 52.78125 43.015625 37.84375 28.125 
Q 36.671875 27 36.078125 26.421875 
L 17.671875 8.015625 
L 48.09375 8.015625 
L 48.09375 17 
L 53.8125 17 
L 53.8125 0 
L 6.78125 0 
L 6.78125 5.328125 
L 28.90625 27.390625 
Q 36.234375 34.71875 39.359375 40.84375 
Q 42.484375 46.96875 42.484375 53.71875 
Q 42.484375 61.078125 38.640625 65.234375 
Q 34.8125 69.390625 28.078125 69.390625 
Q 21.09375 69.390625 17.28125 65.921875 
Q 13.484375 62.453125 12.796875 55.515625 
z
" id="DejaVuSerif-32"/>
      </defs>
      <g style="fill:#262626;" transform="translate(7.2 94.332372)scale(0.08 -0.08)">
       <use xlink:href="#DejaVuSerif-30"/>
       <use x="63.623047" xlink:href="#DejaVuSerif-2e"/>
       <use x="95.410156" xlink:href="#DejaVuSerif-30"/>
       <use x="159.033203" xlink:href="#DejaVuSerif-32"/>
      </g>
     </g>
    </g>
    <g id="ytick_4">
     <g id="line2d_13">
      <path clip-path="url(#pbdcf7fac8c)" d="M 30.6125 71.823496 
L 128.53464 71.823496 
" style="fill:none;stroke:#ffffff;stroke-linecap:round;stroke-width:0.8;"/>
     </g>
     <g id="line2d_14"/>
     <g id="text_7">
      <!-- 0.03 -->
      <defs>
       <path d="M 9.71875 69.828125 
Q 15.4375 71.96875 20.671875 73.09375 
Q 25.921875 74.21875 30.515625 74.21875 
Q 41.21875 74.21875 47.21875 69.59375 
Q 53.21875 64.984375 53.21875 56.78125 
Q 53.21875 50.203125 49.0625 45.78125 
Q 44.921875 41.359375 37.3125 39.796875 
Q 46.296875 38.53125 51.25 33.28125 
Q 56.203125 28.03125 56.203125 19.671875 
Q 56.203125 9.46875 49.34375 4.015625 
Q 42.484375 -1.421875 29.59375 -1.421875 
Q 23.875 -1.421875 18.421875 -0.1875 
Q 12.984375 1.03125 7.625 3.515625 
L 7.625 17.671875 
L 13.09375 17.671875 
Q 13.578125 10.640625 17.828125 7.03125 
Q 22.078125 3.421875 29.78125 3.421875 
Q 37.25 3.421875 41.578125 7.734375 
Q 45.90625 12.0625 45.90625 19.578125 
Q 45.90625 28.171875 41.453125 32.59375 
Q 37.015625 37.015625 28.421875 37.015625 
L 23.78125 37.015625 
L 23.78125 42 
L 26.21875 42 
Q 34.765625 42 39.03125 45.53125 
Q 43.3125 49.078125 43.3125 56.203125 
Q 43.3125 62.59375 39.796875 65.984375 
Q 36.28125 69.390625 29.6875 69.390625 
Q 23.09375 69.390625 19.453125 66.265625 
Q 15.828125 63.140625 15.1875 56.984375 
L 9.71875 56.984375 
z
" id="DejaVuSerif-33"/>
      </defs>
      <g style="fill:#262626;" transform="translate(7.2 74.862871)scale(0.08 -0.08)">
       <use xlink:href="#DejaVuSerif-30"/>
       <use x="63.623047" xlink:href="#DejaVuSerif-2e"/>
       <use x="95.410156" xlink:href="#DejaVuSerif-30"/>
       <use x="159.033203" xlink:href="#DejaVuSerif-33"/>
      </g>
     </g>
    </g>
    <g id="ytick_5">
     <g id="line2d_15">
      <path clip-path="url(#pbdcf7fac8c)" d="M 30.6125 52.353994 
L 128.53464 52.353994 
" style="fill:none;stroke:#ffffff;stroke-linecap:round;stroke-width:0.8;"/>
     </g>
     <g id="line2d_16"/>
     <g id="text_8">
      <!-- 0.04 -->
      <defs>
       <path d="M 34.90625 24.703125 
L 34.90625 63.484375 
L 10.015625 24.703125 
z
M 56.390625 0 
L 23.1875 0 
L 23.1875 5.171875 
L 34.90625 5.171875 
L 34.90625 19.484375 
L 3.078125 19.484375 
L 3.078125 24.8125 
L 35.015625 74.21875 
L 44.671875 74.21875 
L 44.671875 24.703125 
L 58.59375 24.703125 
L 58.59375 19.484375 
L 44.671875 19.484375 
L 44.671875 5.171875 
L 56.390625 5.171875 
z
" id="DejaVuSerif-34"/>
      </defs>
      <g style="fill:#262626;" transform="translate(7.2 55.393369)scale(0.08 -0.08)">
       <use xlink:href="#DejaVuSerif-30"/>
       <use x="63.623047" xlink:href="#DejaVuSerif-2e"/>
       <use x="95.410156" xlink:href="#DejaVuSerif-30"/>
       <use x="159.033203" xlink:href="#DejaVuSerif-34"/>
      </g>
     </g>
    </g>
   </g>
   <g id="line2d_17">
    <path clip-path="url(#pbdcf7fac8c)" d="M 35.063506 84.201524 
L 35.107101 84.201524 
L 35.107101 109.827009 
L 35.19429 107.657629 
L 35.237885 107.657629 
L 35.325074 105.302463 
L 35.368668 105.302463 
L 35.455858 103.859883 
L 35.499452 103.859883 
L 35.586641 103.139631 
L 35.67383 103.030859 
L 35.717425 102.977764 
L 35.76102 103.023844 
L 35.848209 103.112492 
L 35.935398 103.59521 
L 35.978992 103.59521 
L 36.066182 104.333119 
L 36.109776 104.333119 
L 36.196965 105.25181 
L 36.24056 105.25181 
L 36.327749 106.292577 
L 36.371344 106.292577 
L 36.458533 107.409485 
L 36.502127 107.409485 
L 36.589317 108.566924 
L 36.632911 108.566924 
L 36.7201 109.737599 
L 36.763695 109.737599 
L 36.850884 110.900874 
L 36.894479 110.900874 
L 36.981668 112.041429 
L 37.025262 112.041429 
L 37.112451 113.148158 
L 37.156046 113.148158 
L 37.243235 114.21328 
L 37.28683 114.21328 
L 37.374019 115.231619 
L 37.417614 115.231619 
L 37.504803 116.200027 
L 37.548397 116.200027 
L 37.635586 117.116918 
L 37.679181 117.116918 
L 37.76637 117.981893 
L 37.809965 117.981893 
L 37.897154 118.795449 
L 37.940748 118.795449 
L 38.027938 119.558741 
L 38.071532 119.558741 
L 38.158721 120.273395 
L 38.202316 120.273395 
L 38.289505 120.941363 
L 38.3331 120.941363 
L 38.420289 121.564811 
L 38.463883 121.564811 
L 38.551073 122.14603 
L 38.594667 122.14603 
L 38.681856 122.687366 
L 38.725451 122.687366 
L 38.81264 123.191172 
L 38.856235 123.191172 
L 38.943424 123.659767 
L 38.987018 123.659767 
L 39.074207 124.095412 
L 39.117802 124.095412 
L 39.204991 124.500286 
L 39.248586 124.500286 
L 39.335775 124.876474 
L 39.37937 124.876474 
L 39.466559 125.225961 
L 39.553748 125.33685 
L 39.640937 125.653635 
L 39.728126 125.754149 
L 39.815315 126.041311 
L 39.902504 126.132434 
L 39.989694 126.392799 
L 40.076883 126.475431 
L 40.164072 126.711576 
L 40.251261 126.786538 
L 40.33845 127.000811 
L 40.425639 127.068846 
L 40.512829 127.263376 
L 40.600018 127.32516 
L 40.687207 127.501871 
L 40.817991 127.612836 
L 40.90518 127.769698 
L 41.035963 127.868255 
L 41.123153 128.007659 
L 41.253936 128.095299 
L 41.341125 128.21934 
L 41.471909 128.297372 
L 41.559098 128.407886 
L 41.733477 128.511071 
L 41.820666 128.607459 
L 41.995044 128.697544 
L 42.082233 128.781782 
L 42.300206 128.885725 
L 42.387395 128.9579 
L 42.648963 129.068203 
L 42.736152 129.128905 
L 43.041314 129.239293 
L 43.128503 129.289482 
L 43.47726 129.395154 
L 43.564449 129.436014 
L 44.000395 129.544825 
L 44.087584 129.577001 
L 44.610719 129.680236 
L 44.697908 129.704843 
L 45.439016 129.815385 
L 45.526205 129.83279 
L 46.616069 129.943841 
L 46.703259 129.954838 
L 48.577825 130.064955 
L 48.665014 130.07048 
L 54.114337 130.181585 
L 54.201526 130.182767 
L 124.083633 130.231688 
L 124.083633 130.231689 
" style="fill:none;stroke:#4c72b0;stroke-linecap:round;stroke-width:1.4;"/>
   </g>
   <g id="line2d_18">
    <path clip-path="url(#pbdcf7fac8c)" d="M 35.063506 5.975547 
L 35.107101 5.975547 
L 35.107101 -1 
M 35.237885 -1 
L 35.325074 34.612094 
L 35.368668 34.612094 
L 35.455858 66.273227 
L 35.499452 66.273227 
L 35.586641 85.425759 
L 35.630236 85.425759 
L 35.717425 97.669756 
L 35.76102 97.669756 
L 35.848209 105.85137 
L 35.891803 105.85137 
L 35.978992 111.52027 
L 36.022587 111.52027 
L 36.109776 115.568779 
L 36.153371 115.568779 
L 36.24056 118.535115 
L 36.284155 118.535115 
L 36.371344 120.756869 
L 36.414938 120.756869 
L 36.502127 122.452994 
L 36.545722 122.452994 
L 36.632911 123.769664 
L 36.676506 123.769664 
L 36.763695 124.806969 
L 36.807289 124.806969 
L 36.894479 125.634984 
L 36.938073 125.634984 
L 37.025262 126.303754 
L 37.068857 126.303754 
L 37.156046 126.849655 
L 37.199641 126.849655 
L 37.28683 127.299556 
L 37.330424 127.299556 
L 37.417614 127.673587 
L 37.504803 127.784158 
L 37.591992 128.080159 
L 37.679181 128.168247 
L 37.76637 128.405478 
L 37.853559 128.476497 
L 37.940748 128.668797 
L 38.027938 128.726674 
L 38.115127 128.884156 
L 38.245911 128.977212 
L 38.3331 129.101499 
L 38.507478 129.21001 
L 38.594667 129.305162 
L 38.81264 129.414632 
L 38.899829 129.485752 
L 39.161397 129.587136 
L 39.248586 129.639341 
L 39.597342 129.741147 
L 39.684532 129.777703 
L 40.207666 129.884613 
L 40.294856 129.907877 
L 41.166747 130.0161 
L 41.253936 130.028582 
L 43.259287 130.138596 
L 43.346476 130.142755 
L 124.083633 130.231929 
L 124.083633 130.231929 
" style="fill:none;stroke:#55a868;stroke-linecap:round;stroke-width:1.4;"/>
   </g>
   <g id="patch_3">
    <path d="M 30.6125 130.232 
L 30.6125 33.568 
" style="fill:none;"/>
   </g>
   <g id="patch_4">
    <path d="M 128.53464 130.232 
L 128.53464 33.568 
" style="fill:none;"/>
   </g>
   <g id="patch_5">
    <path d="M 30.6125 130.232 
L 128.53464 130.232 
" style="fill:none;"/>
   </g>
   <g id="patch_6">
    <path d="M 30.6125 33.568 
L 128.53464 33.568 
" style="fill:none;"/>
   </g>
   <g id="text_9">
    <!-- Density -->
    <defs>
     <path d="M 24.703125 5.171875 
L 33.796875 5.171875 
Q 48 5.171875 55.59375 13.28125 
Q 63.1875 21.390625 63.1875 36.53125 
Q 63.1875 51.65625 55.609375 59.65625 
Q 48.046875 67.671875 33.796875 67.671875 
L 24.703125 67.671875 
z
M 5.515625 0 
L 5.515625 5.171875 
L 14.796875 5.171875 
L 14.796875 67.671875 
L 5.515625 67.671875 
L 5.515625 72.90625 
L 34.515625 72.90625 
Q 53.375 72.90625 63.890625 63.28125 
Q 74.421875 53.65625 74.421875 36.53125 
Q 74.421875 19.34375 63.875 9.671875 
Q 53.328125 0 34.515625 0 
z
" id="DejaVuSerif-44"/>
     <path d="M 54.203125 25 
L 15.484375 25 
L 15.484375 24.609375 
Q 15.484375 14.109375 19.4375 8.765625 
Q 23.390625 3.421875 31.109375 3.421875 
Q 37.015625 3.421875 40.796875 6.515625 
Q 44.578125 9.625 46.09375 15.71875 
L 53.328125 15.71875 
Q 51.171875 7.171875 45.375 2.875 
Q 39.59375 -1.421875 30.171875 -1.421875 
Q 18.796875 -1.421875 11.890625 6.078125 
Q 4.984375 13.578125 4.984375 25.984375 
Q 4.984375 38.28125 11.765625 45.796875 
Q 18.5625 53.328125 29.59375 53.328125 
Q 41.359375 53.328125 47.65625 46.0625 
Q 53.953125 38.8125 54.203125 25 
z
M 43.609375 30.171875 
Q 43.3125 39.265625 39.765625 43.875 
Q 36.234375 48.484375 29.59375 48.484375 
Q 23.390625 48.484375 19.828125 43.84375 
Q 16.265625 39.203125 15.484375 30.171875 
z
" id="DejaVuSerif-65"/>
     <path d="M 4.109375 0 
L 4.109375 5.171875 
L 12.203125 5.171875 
L 12.203125 46.6875 
L 3.609375 46.6875 
L 3.609375 51.90625 
L 21.1875 51.90625 
L 21.1875 42.671875 
Q 23.6875 47.953125 27.65625 50.640625 
Q 31.640625 53.328125 36.921875 53.328125 
Q 45.515625 53.328125 49.5625 48.390625 
Q 53.609375 43.453125 53.609375 33.015625 
L 53.609375 5.171875 
L 61.625 5.171875 
L 61.625 0 
L 36.8125 0 
L 36.8125 5.171875 
L 44.578125 5.171875 
L 44.578125 30.171875 
Q 44.578125 39.703125 42.234375 43.234375 
Q 39.890625 46.78125 33.984375 46.78125 
Q 27.734375 46.78125 24.453125 42.203125 
Q 21.1875 37.640625 21.1875 28.90625 
L 21.1875 5.171875 
L 29 5.171875 
L 29 0 
z
" id="DejaVuSerif-6e"/>
     <path d="M 5.609375 2.875 
L 5.609375 14.984375 
L 10.796875 14.984375 
Q 10.984375 9.1875 14.421875 6.296875 
Q 17.875 3.421875 24.609375 3.421875 
Q 30.671875 3.421875 33.84375 5.6875 
Q 37.015625 7.953125 37.015625 12.3125 
Q 37.015625 15.71875 34.6875 17.8125 
Q 32.375 19.921875 24.90625 22.3125 
L 18.40625 24.515625 
Q 11.71875 26.65625 8.71875 29.875 
Q 5.71875 33.109375 5.71875 38.09375 
Q 5.71875 45.21875 10.9375 49.265625 
Q 16.15625 53.328125 25.390625 53.328125 
Q 29.5 53.328125 34.03125 52.25 
Q 38.578125 51.171875 43.40625 49.125 
L 43.40625 37.796875 
L 38.234375 37.796875 
Q 38.03125 42.828125 34.703125 45.65625 
Q 31.390625 48.484375 25.6875 48.484375 
Q 20.015625 48.484375 17.109375 46.484375 
Q 14.203125 44.484375 14.203125 40.484375 
Q 14.203125 37.203125 16.40625 35.21875 
Q 18.609375 33.25 25.203125 31.203125 
L 32.328125 29 
Q 39.703125 26.703125 42.9375 23.265625 
Q 46.1875 19.828125 46.1875 14.40625 
Q 46.1875 7.03125 40.546875 2.796875 
Q 34.90625 -1.421875 25 -1.421875 
Q 19.96875 -1.421875 15.1875 -0.34375 
Q 10.40625 0.734375 5.609375 2.875 
z
" id="DejaVuSerif-73"/>
     <path d="M 9.71875 68.015625 
Q 9.71875 70.265625 11.34375 71.921875 
Q 12.984375 73.578125 15.28125 73.578125 
Q 17.53125 73.578125 19.15625 71.921875 
Q 20.796875 70.265625 20.796875 68.015625 
Q 20.796875 65.71875 19.1875 64.109375 
Q 17.578125 62.5 15.28125 62.5 
Q 12.984375 62.5 11.34375 64.109375 
Q 9.71875 65.71875 9.71875 68.015625 
z
M 21.1875 5.171875 
L 29.6875 5.171875 
L 29.6875 0 
L 3.609375 0 
L 3.609375 5.171875 
L 12.203125 5.171875 
L 12.203125 46.6875 
L 3.609375 46.6875 
L 3.609375 51.90625 
L 21.1875 51.90625 
z
" id="DejaVuSerif-69"/>
     <path d="M 10.796875 46.6875 
L 2.875 46.6875 
L 2.875 51.90625 
L 10.796875 51.90625 
L 10.796875 68.015625 
L 19.828125 68.015625 
L 19.828125 51.90625 
L 36.71875 51.90625 
L 36.71875 46.6875 
L 19.828125 46.6875 
L 19.828125 13.71875 
Q 19.828125 7.125 21.09375 5.265625 
Q 22.359375 3.421875 25.78125 3.421875 
Q 29.296875 3.421875 30.90625 5.484375 
Q 32.515625 7.5625 32.625 12.203125 
L 39.40625 12.203125 
Q 39.015625 5.125 35.546875 1.84375 
Q 32.078125 -1.421875 25 -1.421875 
Q 17.234375 -1.421875 14.015625 2.015625 
Q 10.796875 5.46875 10.796875 13.71875 
z
" id="DejaVuSerif-74"/>
     <path d="M 21.578125 -9.515625 
L 25 -0.875 
L 5.609375 46.6875 
L -0.296875 46.6875 
L -0.296875 51.90625 
L 23.578125 51.90625 
L 23.578125 46.6875 
L 15.28125 46.6875 
L 29.890625 10.984375 
L 44.484375 46.6875 
L 36.71875 46.6875 
L 36.71875 51.90625 
L 56.203125 51.90625 
L 56.203125 46.6875 
L 50.390625 46.6875 
L 26.609375 -11.71875 
Q 24.171875 -17.78125 21.1875 -20 
Q 18.21875 -22.21875 12.796875 -22.21875 
Q 10.5 -22.21875 8.078125 -21.828125 
Q 5.671875 -21.4375 3.21875 -20.703125 
L 3.21875 -10.796875 
L 7.8125 -10.796875 
Q 8.109375 -14.109375 9.5 -15.546875 
Q 10.890625 -17 13.8125 -17 
Q 16.5 -17 18.140625 -15.5 
Q 19.78125 -14.015625 21.578125 -9.515625 
z
" id="DejaVuSerif-79"/>
    </defs>
    <g style="fill:#262626;" transform="translate(61.15357 27.568)scale(0.096 -0.096)">
     <use xlink:href="#DejaVuSerif-44"/>
     <use x="80.175781" xlink:href="#DejaVuSerif-65"/>
     <use x="139.355469" xlink:href="#DejaVuSerif-6e"/>
     <use x="203.759766" xlink:href="#DejaVuSerif-73"/>
     <use x="255.078125" xlink:href="#DejaVuSerif-69"/>
     <use x="287.060547" xlink:href="#DejaVuSerif-74"/>
     <use x="327.246094" xlink:href="#DejaVuSerif-79"/>
    </g>
   </g>
   <g id="legend_1">
    <g id="line2d_19">
     <path d="M 83.92214 44.04675 
L 99.92214 44.04675 
" style="fill:none;stroke:#4c72b0;stroke-linecap:round;stroke-width:1.4;"/>
    </g>
    <g id="line2d_20"/>
    <g id="text_10">
     <!-- agg -->
     <defs>
      <path d="M 39.796875 16.3125 
L 39.796875 27.296875 
L 28.21875 27.296875 
Q 21.53125 27.296875 18.25 24.40625 
Q 14.984375 21.53125 14.984375 15.578125 
Q 14.984375 10.15625 18.296875 6.984375 
Q 21.625 3.8125 27.296875 3.8125 
Q 32.90625 3.8125 36.34375 7.28125 
Q 39.796875 10.75 39.796875 16.3125 
z
M 48.78125 32.421875 
L 48.78125 5.171875 
L 56.78125 5.171875 
L 56.78125 0 
L 39.796875 0 
L 39.796875 5.609375 
Q 36.8125 2 32.90625 0.28125 
Q 29 -1.421875 23.78125 -1.421875 
Q 15.140625 -1.421875 10.0625 3.171875 
Q 4.984375 7.765625 4.984375 15.578125 
Q 4.984375 23.640625 10.796875 28.078125 
Q 16.609375 32.515625 27.203125 32.515625 
L 39.796875 32.515625 
L 39.796875 36.078125 
Q 39.796875 42 36.203125 45.234375 
Q 32.625 48.484375 26.125 48.484375 
Q 20.75 48.484375 17.578125 46.046875 
Q 14.40625 43.609375 13.625 38.8125 
L 8.984375 38.8125 
L 8.984375 49.3125 
Q 13.671875 51.3125 18.09375 52.3125 
Q 22.515625 53.328125 26.703125 53.328125 
Q 37.5 53.328125 43.140625 47.96875 
Q 48.78125 42.625 48.78125 32.421875 
z
" id="DejaVuSerif-61"/>
      <path d="M 52.484375 46.6875 
L 52.484375 1.125 
Q 52.484375 -10.0625 46.328125 -16.140625 
Q 40.1875 -22.21875 28.8125 -22.21875 
Q 23.6875 -22.21875 19 -21.28125 
Q 14.3125 -20.359375 10.015625 -18.5 
L 10.015625 -7.625 
L 14.703125 -7.625 
Q 15.578125 -12.703125 18.84375 -15.046875 
Q 22.125 -17.390625 28.21875 -17.390625 
Q 36.140625 -17.390625 39.8125 -12.921875 
Q 43.5 -8.453125 43.5 1.125 
L 43.5 8.109375 
Q 40.875 3.21875 36.796875 0.890625 
Q 32.71875 -1.421875 26.703125 -1.421875 
Q 17.140625 -1.421875 11.0625 6.171875 
Q 4.984375 13.765625 4.984375 25.984375 
Q 4.984375 38.1875 11.03125 45.75 
Q 17.09375 53.328125 26.703125 53.328125 
Q 32.71875 53.328125 36.796875 51 
Q 40.875 48.6875 43.5 43.796875 
L 43.5 51.90625 
L 61.078125 51.90625 
L 61.078125 46.6875 
z
M 43.5 28.515625 
Q 43.5 37.84375 39.90625 42.765625 
Q 36.328125 47.703125 29.5 47.703125 
Q 22.5625 47.703125 19.015625 42.234375 
Q 15.484375 36.765625 15.484375 25.984375 
Q 15.484375 15.234375 19.015625 9.71875 
Q 22.5625 4.203125 29.5 4.203125 
Q 36.328125 4.203125 39.90625 9.109375 
Q 43.5 14.015625 43.5 23.390625 
z
" id="DejaVuSerif-67"/>
     </defs>
     <g style="fill:#262626;" transform="translate(106.32214 46.84675)scale(0.08 -0.08)">
      <use xlink:href="#DejaVuSerif-61"/>
      <use x="59.619141" xlink:href="#DejaVuSerif-67"/>
      <use x="123.632812" xlink:href="#DejaVuSerif-67"/>
     </g>
    </g>
    <g id="line2d_21">
     <path d="M 83.92214 55.903 
L 99.92214 55.903 
" style="fill:none;stroke:#55a868;stroke-linecap:round;stroke-width:1.4;"/>
    </g>
    <g id="line2d_22"/>
    <g id="text_11">
     <!-- sev -->
     <defs>
      <path d="M 24.703125 0 
L 5.609375 46.6875 
L -0.296875 46.6875 
L -0.296875 51.90625 
L 23.578125 51.90625 
L 23.578125 46.6875 
L 15.28125 46.6875 
L 29.890625 10.984375 
L 44.484375 46.6875 
L 36.71875 46.6875 
L 36.71875 51.90625 
L 56.203125 51.90625 
L 56.203125 46.6875 
L 50.390625 46.6875 
L 31.296875 0 
z
" id="DejaVuSerif-76"/>
     </defs>
     <g style="fill:#262626;" transform="translate(106.32214 58.703)scale(0.08 -0.08)">
      <use xlink:href="#DejaVuSerif-73"/>
      <use x="51.318359" xlink:href="#DejaVuSerif-65"/>
      <use x="110.498047" xlink:href="#DejaVuSerif-76"/>
     </g>
    </g>
   </g>
  </g>
  <g id="axes_2">
   <g id="patch_7">
    <path d="M 174.75264 130.232 
L 272.674779 130.232 
L 272.674779 33.568 
L 174.75264 33.568 
z
" style="fill:#eaeaf2;"/>
   </g>
   <g id="matplotlib.axis_3">
    <g id="xtick_4">
     <g id="line2d_23">
      <path clip-path="url(#p834968fba5)" d="M 179.203646 130.232 
L 179.203646 33.568 
" style="fill:none;stroke:#ffffff;stroke-linecap:round;stroke-width:0.8;"/>
     </g>
     <g id="line2d_24"/>
     <g id="text_12">
      <!-- 0 -->
      <g style="fill:#262626;" transform="translate(176.658646 141.91075)scale(0.08 -0.08)">
       <use xlink:href="#DejaVuSerif-30"/>
      </g>
     </g>
    </g>
    <g id="xtick_5">
     <g id="line2d_25">
      <path clip-path="url(#p834968fba5)" d="M 213.367336 130.232 
L 213.367336 33.568 
" style="fill:none;stroke:#ffffff;stroke-linecap:round;stroke-width:0.8;"/>
     </g>
     <g id="line2d_26"/>
     <g id="text_13">
      <!-- 50000 -->
      <g style="fill:#262626;" transform="translate(200.642336 141.91075)scale(0.08 -0.08)">
       <use xlink:href="#DejaVuSerif-35"/>
       <use x="63.623047" xlink:href="#DejaVuSerif-30"/>
       <use x="127.246094" xlink:href="#DejaVuSerif-30"/>
       <use x="190.869141" xlink:href="#DejaVuSerif-30"/>
       <use x="254.492188" xlink:href="#DejaVuSerif-30"/>
      </g>
     </g>
    </g>
    <g id="xtick_6">
     <g id="line2d_27">
      <path clip-path="url(#p834968fba5)" d="M 247.531026 130.232 
L 247.531026 33.568 
" style="fill:none;stroke:#ffffff;stroke-linecap:round;stroke-width:0.8;"/>
     </g>
     <g id="line2d_28"/>
     <g id="text_14">
      <!-- 100000 -->
      <g style="fill:#262626;" transform="translate(232.261026 141.91075)scale(0.08 -0.08)">
       <use xlink:href="#DejaVuSerif-31"/>
       <use x="63.623047" xlink:href="#DejaVuSerif-30"/>
       <use x="127.246094" xlink:href="#DejaVuSerif-30"/>
       <use x="190.869141" xlink:href="#DejaVuSerif-30"/>
       <use x="254.492188" xlink:href="#DejaVuSerif-30"/>
       <use x="318.115234" xlink:href="#DejaVuSerif-30"/>
      </g>
     </g>
    </g>
   </g>
   <g id="matplotlib.axis_4">
    <g id="ytick_6">
     <g id="line2d_29">
      <path clip-path="url(#p834968fba5)" d="M 174.75264 106.330463 
L 272.674779 106.330463 
" style="fill:none;stroke:#ffffff;stroke-linecap:round;stroke-width:0.8;"/>
     </g>
     <g id="line2d_30"/>
     <g id="text_15">
      <!-- $\mathdefault{10^{-6}}$ -->
      <defs>
       <path d="M 10.59375 35.296875 
L 73.1875 35.296875 
L 73.1875 27.390625 
L 10.59375 27.390625 
z
" id="DejaVuSerif-2212"/>
       <path d="M 32.71875 3.421875 
Q 39.59375 3.421875 43.296875 8.46875 
Q 47.015625 13.53125 47.015625 23 
Q 47.015625 32.46875 43.296875 37.515625 
Q 39.59375 42.578125 32.71875 42.578125 
Q 25.734375 42.578125 22.0625 37.6875 
Q 18.40625 32.8125 18.40625 23.578125 
Q 18.40625 13.875 22.109375 8.640625 
Q 25.828125 3.421875 32.71875 3.421875 
z
M 16.796875 40.140625 
Q 20.125 43.796875 24.3125 45.59375 
Q 28.515625 47.40625 33.796875 47.40625 
Q 44.671875 47.40625 51 40.859375 
Q 57.328125 34.328125 57.328125 23 
Q 57.328125 11.921875 50.515625 5.25 
Q 43.703125 -1.421875 32.328125 -1.421875 
Q 19.96875 -1.421875 13.328125 7.78125 
Q 6.6875 17 6.6875 34.078125 
Q 6.6875 53.21875 14.546875 63.71875 
Q 22.40625 74.21875 36.71875 74.21875 
Q 40.578125 74.21875 44.828125 73.484375 
Q 49.078125 72.75 53.515625 71.296875 
L 53.515625 59.28125 
L 48 59.28125 
Q 47.40625 64.203125 44.234375 66.796875 
Q 41.0625 69.390625 35.6875 69.390625 
Q 26.21875 69.390625 21.578125 62.203125 
Q 16.9375 55.03125 16.796875 40.140625 
z
" id="DejaVuSerif-36"/>
      </defs>
      <g style="fill:#262626;" transform="translate(150.43264 109.369838)scale(0.08 -0.08)">
       <use transform="translate(0 0.7125)" xlink:href="#DejaVuSerif-31"/>
       <use transform="translate(63.623047 0.7125)" xlink:href="#DejaVuSerif-30"/>
       <use transform="translate(128.154453 37.046875)scale(0.7)" xlink:href="#DejaVuSerif-2212"/>
       <use transform="translate(186.806797 37.046875)scale(0.7)" xlink:href="#DejaVuSerif-36"/>
      </g>
     </g>
    </g>
    <g id="ytick_7">
     <g id="line2d_31">
      <path clip-path="url(#p834968fba5)" d="M 174.75264 79.224954 
L 272.674779 79.224954 
" style="fill:none;stroke:#ffffff;stroke-linecap:round;stroke-width:0.8;"/>
     </g>
     <g id="line2d_32"/>
     <g id="text_16">
      <!-- $\mathdefault{10^{-4}}$ -->
      <g style="fill:#262626;" transform="translate(150.43264 82.264329)scale(0.08 -0.08)">
       <use transform="translate(0 0.7125)" xlink:href="#DejaVuSerif-31"/>
       <use transform="translate(63.623047 0.7125)" xlink:href="#DejaVuSerif-30"/>
       <use transform="translate(128.154453 37.046875)scale(0.7)" xlink:href="#DejaVuSerif-2212"/>
       <use transform="translate(186.806797 37.046875)scale(0.7)" xlink:href="#DejaVuSerif-34"/>
      </g>
     </g>
    </g>
    <g id="ytick_8">
     <g id="line2d_33">
      <path clip-path="url(#p834968fba5)" d="M 174.75264 52.119445 
L 272.674779 52.119445 
" style="fill:none;stroke:#ffffff;stroke-linecap:round;stroke-width:0.8;"/>
     </g>
     <g id="line2d_34"/>
     <g id="text_17">
      <!-- $\mathdefault{10^{-2}}$ -->
      <g style="fill:#262626;" transform="translate(150.43264 55.15882)scale(0.08 -0.08)">
       <use transform="translate(0 0.7125)" xlink:href="#DejaVuSerif-31"/>
       <use transform="translate(63.623047 0.7125)" xlink:href="#DejaVuSerif-30"/>
       <use transform="translate(128.154453 37.046875)scale(0.7)" xlink:href="#DejaVuSerif-2212"/>
       <use transform="translate(186.806797 37.046875)scale(0.7)" xlink:href="#DejaVuSerif-32"/>
      </g>
     </g>
    </g>
   </g>
   <g id="line2d_35">
    <path clip-path="url(#p834968fba5)" d="M 179.203646 47.054908 
L 179.247241 51.843219 
L 179.33443 51.248534 
L 179.595997 50.333325 
L 179.81397 50.139841 
L 180.031943 50.231956 
L 180.337105 50.652483 
L 180.86024 51.817484 
L 181.862915 54.712235 
L 185.437671 65.359878 
L 187.225048 69.840776 
L 188.968831 73.627937 
L 190.756209 76.993823 
L 192.630776 80.060088 
L 194.636126 82.915433 
L 196.772261 85.571541 
L 199.082773 88.089816 
L 201.611259 90.512188 
L 204.357717 92.831991 
L 207.365743 95.079168 
L 210.678931 97.273574 
L 214.340875 99.427897 
L 218.395171 101.549782 
L 222.885413 103.643378 
L 227.855194 105.710492 
L 233.348111 107.751417 
L 239.451352 109.779247 
L 246.252106 111.800873 
L 253.793968 113.807883 
L 262.207721 115.813222 
L 268.223773 117.122684 
L 268.223773 117.122684 
" style="fill:none;stroke:#4c72b0;stroke-linecap:round;stroke-width:1.4;"/>
   </g>
   <g id="line2d_36">
    <path clip-path="url(#p834968fba5)" d="M 179.203646 41.209964 
L 179.247241 37.961818 
L 179.290835 39.025826 
L 179.770376 47.861558 
L 180.3807 55.118461 
L 181.121808 61.237462 
L 181.950104 66.281441 
L 182.909185 70.780735 
L 183.99905 74.827953 
L 185.219698 78.498126 
L 186.57113 81.851085 
L 188.053345 84.934553 
L 189.666345 87.786853 
L 191.453722 90.500648 
L 193.415478 93.077455 
L 195.595207 95.569407 
L 197.992909 97.966957 
L 200.608584 100.266699 
L 203.485826 102.500935 
L 206.66823 104.69009 
L 210.199391 106.846494 
L 214.122903 108.976966 
L 218.438766 111.064712 
L 223.234169 113.134657 
L 228.552708 115.185306 
L 234.48157 117.228686 
L 241.064351 119.257878 
L 248.38824 121.278392 
L 256.540426 123.292049 
L 265.608098 125.298226 
L 268.223773 125.838182 
L 268.223773 125.838182 
" style="fill:none;stroke:#55a868;stroke-linecap:round;stroke-width:1.4;"/>
   </g>
   <g id="patch_8">
    <path d="M 174.75264 130.232 
L 174.75264 33.568 
" style="fill:none;"/>
   </g>
   <g id="patch_9">
    <path d="M 272.674779 130.232 
L 272.674779 33.568 
" style="fill:none;"/>
   </g>
   <g id="patch_10">
    <path d="M 174.75264 130.232 
L 272.674779 130.232 
" style="fill:none;"/>
   </g>
   <g id="patch_11">
    <path d="M 174.75264 33.568 
L 272.674779 33.568 
" style="fill:none;"/>
   </g>
   <g id="text_18">
    <!-- Log Density -->
    <defs>
     <path d="M 5.515625 0 
L 5.515625 5.171875 
L 14.796875 5.171875 
L 14.796875 67.671875 
L 5.515625 67.671875 
L 5.515625 72.90625 
L 33.984375 72.90625 
L 33.984375 67.671875 
L 24.703125 67.671875 
L 24.703125 6 
L 58.015625 6 
L 58.015625 18.21875 
L 64.015625 18.21875 
L 64.015625 0 
z
" id="DejaVuSerif-4c"/>
     <path d="M 30.078125 3.421875 
Q 37.3125 3.421875 40.984375 9.125 
Q 44.671875 14.84375 44.671875 25.984375 
Q 44.671875 37.109375 40.984375 42.796875 
Q 37.3125 48.484375 30.078125 48.484375 
Q 22.859375 48.484375 19.171875 42.796875 
Q 15.484375 37.109375 15.484375 25.984375 
Q 15.484375 14.84375 19.1875 9.125 
Q 22.90625 3.421875 30.078125 3.421875 
z
M 30.078125 -1.421875 
Q 18.75 -1.421875 11.859375 6.078125 
Q 4.984375 13.578125 4.984375 25.984375 
Q 4.984375 38.375 11.84375 45.84375 
Q 18.703125 53.328125 30.078125 53.328125 
Q 41.453125 53.328125 48.3125 45.84375 
Q 55.171875 38.375 55.171875 25.984375 
Q 55.171875 13.578125 48.3125 6.078125 
Q 41.453125 -1.421875 30.078125 -1.421875 
z
" id="DejaVuSerif-6f"/>
     <path id="DejaVuSerif-20"/>
    </defs>
    <g style="fill:#262626;" transform="translate(194.61821 27.568)scale(0.096 -0.096)">
     <use xlink:href="#DejaVuSerif-4c"/>
     <use x="66.40625" xlink:href="#DejaVuSerif-6f"/>
     <use x="126.611328" xlink:href="#DejaVuSerif-67"/>
     <use x="190.625" xlink:href="#DejaVuSerif-20"/>
     <use x="222.412109" xlink:href="#DejaVuSerif-44"/>
     <use x="302.587891" xlink:href="#DejaVuSerif-65"/>
     <use x="361.767578" xlink:href="#DejaVuSerif-6e"/>
     <use x="426.171875" xlink:href="#DejaVuSerif-73"/>
     <use x="477.490234" xlink:href="#DejaVuSerif-69"/>
     <use x="509.472656" xlink:href="#DejaVuSerif-74"/>
     <use x="549.658203" xlink:href="#DejaVuSerif-79"/>
    </g>
   </g>
   <g id="legend_2">
    <g id="line2d_37">
     <path d="M 228.062279 44.04675 
L 244.062279 44.04675 
" style="fill:none;stroke:#4c72b0;stroke-linecap:round;stroke-width:1.4;"/>
    </g>
    <g id="line2d_38"/>
    <g id="text_19">
     <!-- agg -->
     <g style="fill:#262626;" transform="translate(250.462279 46.84675)scale(0.08 -0.08)">
      <use xlink:href="#DejaVuSerif-61"/>
      <use x="59.619141" xlink:href="#DejaVuSerif-67"/>
      <use x="123.632812" xlink:href="#DejaVuSerif-67"/>
     </g>
    </g>
    <g id="line2d_39">
     <path d="M 228.062279 55.903 
L 244.062279 55.903 
" style="fill:none;stroke:#55a868;stroke-linecap:round;stroke-width:1.4;"/>
    </g>
    <g id="line2d_40"/>
    <g id="text_20">
     <!-- sev -->
     <g style="fill:#262626;" transform="translate(250.462279 58.703)scale(0.08 -0.08)">
      <use xlink:href="#DejaVuSerif-73"/>
      <use x="51.318359" xlink:href="#DejaVuSerif-65"/>
      <use x="110.498047" xlink:href="#DejaVuSerif-76"/>
     </g>
    </g>
   </g>
  </g>
  <g id="axes_3">
   <g id="patch_12">
    <path d="M 318.892779 130.232 
L 416.814919 130.232 
L 416.814919 33.568 
L 318.892779 33.568 
z
" style="fill:#eaeaf2;"/>
   </g>
   <g id="matplotlib.axis_5">
    <g id="xtick_7">
     <g id="line2d_41">
      <path clip-path="url(#p9d553e9c68)" d="M 321.188177 130.232 
L 321.188177 33.568 
" style="fill:none;stroke:#ffffff;stroke-linecap:round;stroke-width:0.8;"/>
     </g>
     <g id="line2d_42"/>
     <g id="text_21">
      <!-- 0.0 -->
      <g style="fill:#262626;" transform="translate(314.826927 141.91075)scale(0.08 -0.08)">
       <use xlink:href="#DejaVuSerif-30"/>
       <use x="63.623047" xlink:href="#DejaVuSerif-2e"/>
       <use x="95.410156" xlink:href="#DejaVuSerif-30"/>
      </g>
     </g>
    </g>
    <g id="xtick_8">
     <g id="line2d_43">
      <path clip-path="url(#p9d553e9c68)" d="M 366.776053 130.232 
L 366.776053 33.568 
" style="fill:none;stroke:#ffffff;stroke-linecap:round;stroke-width:0.8;"/>
     </g>
     <g id="line2d_44"/>
     <g id="text_22">
      <!-- 0.5 -->
      <g style="fill:#262626;" transform="translate(360.414803 141.91075)scale(0.08 -0.08)">
       <use xlink:href="#DejaVuSerif-30"/>
       <use x="63.623047" xlink:href="#DejaVuSerif-2e"/>
       <use x="95.410156" xlink:href="#DejaVuSerif-35"/>
      </g>
     </g>
    </g>
    <g id="xtick_9">
     <g id="line2d_45">
      <path clip-path="url(#p9d553e9c68)" d="M 412.363929 130.232 
L 412.363929 33.568 
" style="fill:none;stroke:#ffffff;stroke-linecap:round;stroke-width:0.8;"/>
     </g>
     <g id="line2d_46"/>
     <g id="text_23">
      <!-- 1.0 -->
      <g style="fill:#262626;" transform="translate(406.002679 141.91075)scale(0.08 -0.08)">
       <use xlink:href="#DejaVuSerif-31"/>
       <use x="63.623047" xlink:href="#DejaVuSerif-2e"/>
       <use x="95.410156" xlink:href="#DejaVuSerif-30"/>
      </g>
     </g>
    </g>
   </g>
   <g id="matplotlib.axis_6">
    <g id="ytick_9">
     <g id="line2d_47">
      <path clip-path="url(#p9d553e9c68)" d="M 318.892779 125.838182 
L 416.814919 125.838182 
" style="fill:none;stroke:#ffffff;stroke-linecap:round;stroke-width:0.8;"/>
     </g>
     <g id="line2d_48"/>
     <g id="text_24">
      <!-- 0 -->
      <g style="fill:#262626;" transform="translate(308.202779 128.877557)scale(0.08 -0.08)">
       <use xlink:href="#DejaVuSerif-30"/>
      </g>
     </g>
    </g>
    <g id="ytick_10">
     <g id="line2d_49">
      <path clip-path="url(#p9d553e9c68)" d="M 318.892779 108.975811 
L 416.814919 108.975811 
" style="fill:none;stroke:#ffffff;stroke-linecap:round;stroke-width:0.8;"/>
     </g>
     <g id="line2d_50"/>
     <g id="text_25">
      <!-- 25000 -->
      <g style="fill:#262626;" transform="translate(287.842779 112.015186)scale(0.08 -0.08)">
       <use xlink:href="#DejaVuSerif-32"/>
       <use x="63.623047" xlink:href="#DejaVuSerif-35"/>
       <use x="127.246094" xlink:href="#DejaVuSerif-30"/>
       <use x="190.869141" xlink:href="#DejaVuSerif-30"/>
       <use x="254.492188" xlink:href="#DejaVuSerif-30"/>
      </g>
     </g>
    </g>
    <g id="ytick_11">
     <g id="line2d_51">
      <path clip-path="url(#p9d553e9c68)" d="M 318.892779 92.113439 
L 416.814919 92.113439 
" style="fill:none;stroke:#ffffff;stroke-linecap:round;stroke-width:0.8;"/>
     </g>
     <g id="line2d_52"/>
     <g id="text_26">
      <!-- 50000 -->
      <g style="fill:#262626;" transform="translate(287.842779 95.152814)scale(0.08 -0.08)">
       <use xlink:href="#DejaVuSerif-35"/>
       <use x="63.623047" xlink:href="#DejaVuSerif-30"/>
       <use x="127.246094" xlink:href="#DejaVuSerif-30"/>
       <use x="190.869141" xlink:href="#DejaVuSerif-30"/>
       <use x="254.492188" xlink:href="#DejaVuSerif-30"/>
      </g>
     </g>
    </g>
    <g id="ytick_12">
     <g id="line2d_53">
      <path clip-path="url(#p9d553e9c68)" d="M 318.892779 75.251068 
L 416.814919 75.251068 
" style="fill:none;stroke:#ffffff;stroke-linecap:round;stroke-width:0.8;"/>
     </g>
     <g id="line2d_54"/>
     <g id="text_27">
      <!-- 75000 -->
      <defs>
       <path d="M 56.390625 67.921875 
L 27.875 0 
L 20.609375 0 
L 47.796875 64.890625 
L 14.109375 64.890625 
L 14.109375 55.90625 
L 8.40625 55.90625 
L 8.40625 72.90625 
L 56.390625 72.90625 
z
" id="DejaVuSerif-37"/>
      </defs>
      <g style="fill:#262626;" transform="translate(287.842779 78.290443)scale(0.08 -0.08)">
       <use xlink:href="#DejaVuSerif-37"/>
       <use x="63.623047" xlink:href="#DejaVuSerif-35"/>
       <use x="127.246094" xlink:href="#DejaVuSerif-30"/>
       <use x="190.869141" xlink:href="#DejaVuSerif-30"/>
       <use x="254.492188" xlink:href="#DejaVuSerif-30"/>
      </g>
     </g>
    </g>
    <g id="ytick_13">
     <g id="line2d_55">
      <path clip-path="url(#p9d553e9c68)" d="M 318.892779 58.388697 
L 416.814919 58.388697 
" style="fill:none;stroke:#ffffff;stroke-linecap:round;stroke-width:0.8;"/>
     </g>
     <g id="line2d_56"/>
     <g id="text_28">
      <!-- 100000 -->
      <g style="fill:#262626;" transform="translate(282.752779 61.428072)scale(0.08 -0.08)">
       <use xlink:href="#DejaVuSerif-31"/>
       <use x="63.623047" xlink:href="#DejaVuSerif-30"/>
       <use x="127.246094" xlink:href="#DejaVuSerif-30"/>
       <use x="190.869141" xlink:href="#DejaVuSerif-30"/>
       <use x="254.492188" xlink:href="#DejaVuSerif-30"/>
       <use x="318.115234" xlink:href="#DejaVuSerif-30"/>
      </g>
     </g>
    </g>
    <g id="ytick_14">
     <g id="line2d_57">
      <path clip-path="url(#p9d553e9c68)" d="M 318.892779 41.526326 
L 416.814919 41.526326 
" style="fill:none;stroke:#ffffff;stroke-linecap:round;stroke-width:0.8;"/>
     </g>
     <g id="line2d_58"/>
     <g id="text_29">
      <!-- 125000 -->
      <g style="fill:#262626;" transform="translate(282.752779 44.565701)scale(0.08 -0.08)">
       <use xlink:href="#DejaVuSerif-31"/>
       <use x="63.623047" xlink:href="#DejaVuSerif-32"/>
       <use x="127.246094" xlink:href="#DejaVuSerif-35"/>
       <use x="190.869141" xlink:href="#DejaVuSerif-30"/>
       <use x="254.492188" xlink:href="#DejaVuSerif-30"/>
       <use x="318.115234" xlink:href="#DejaVuSerif-30"/>
      </g>
     </g>
    </g>
   </g>
   <g id="line2d_59">
    <path clip-path="url(#p9d553e9c68)" d="M 323.343786 125.838182 
L 337.19346 125.321768 
L 367.26587 124.202872 
L 380.90979 123.471287 
L 389.823896 122.782735 
L 395.98864 122.094184 
L 400.259972 121.405633 
L 403.24929 120.717081 
L 405.481877 119.985496 
L 407.138933 119.210875 
L 408.366661 118.393221 
L 409.315911 117.489497 
L 410.037663 116.499704 
L 410.634206 115.29474 
L 411.118006 113.788534 
L 411.50676 111.808948 
L 411.814788 109.011709 
L 412.051687 104.622194 
L 412.218589 96.832957 
L 412.321085 79.576139 
L 412.363018 37.961818 
L 412.363018 37.961818 
" style="fill:none;stroke:#4c72b0;stroke-linecap:round;stroke-width:1.4;"/>
   </g>
   <g id="line2d_60">
    <path clip-path="url(#p9d553e9c68)" d="M 327.007111 125.838182 
L 372.256631 125.536941 
L 390.84976 125.192665 
L 399.735358 124.805355 
L 404.104827 124.418045 
L 406.766097 123.9877 
L 408.451781 123.514321 
L 409.627046 122.954873 
L 410.390707 122.352391 
L 410.958359 121.620805 
L 411.394094 120.674047 
L 411.726604 119.383013 
L 411.983731 117.403428 
L 412.169909 114.003706 
L 412.289612 106.989089 
L 412.350105 86.332549 
L 412.363913 37.961818 
L 412.363913 37.961818 
" style="fill:none;stroke:#55a868;stroke-linecap:round;stroke-width:1.4;"/>
   </g>
   <g id="patch_13">
    <path d="M 318.892779 130.232 
L 318.892779 33.568 
" style="fill:none;"/>
   </g>
   <g id="patch_14">
    <path d="M 416.814919 130.232 
L 416.814919 33.568 
" style="fill:none;"/>
   </g>
   <g id="patch_15">
    <path d="M 318.892779 130.232 
L 416.814919 130.232 
" style="fill:none;"/>
   </g>
   <g id="patch_16">
    <path d="M 318.892779 33.568 
L 416.814919 33.568 
" style="fill:none;"/>
   </g>
   <g id="text_30">
    <!-- Lee Diagram -->
    <defs>
     <path d="M 47.796875 52 
L 47.796875 39.015625 
L 42.625 39.015625 
Q 42.390625 42.875 40.484375 44.78125 
Q 38.578125 46.6875 34.90625 46.6875 
Q 28.265625 46.6875 24.71875 42.09375 
Q 21.1875 37.5 21.1875 28.90625 
L 21.1875 5.171875 
L 31.59375 5.171875 
L 31.59375 0 
L 4.109375 0 
L 4.109375 5.171875 
L 12.203125 5.171875 
L 12.203125 46.78125 
L 3.609375 46.78125 
L 3.609375 51.90625 
L 21.1875 51.90625 
L 21.1875 42.671875 
Q 23.828125 48.09375 27.96875 50.703125 
Q 32.125 53.328125 38.09375 53.328125 
Q 40.28125 53.328125 42.703125 52.984375 
Q 45.125 52.640625 47.796875 52 
z
" id="DejaVuSerif-72"/>
     <path d="M 51.8125 41.796875 
Q 54.390625 47.515625 58.421875 50.421875 
Q 62.453125 53.328125 67.828125 53.328125 
Q 75.984375 53.328125 79.984375 48.265625 
Q 83.984375 43.21875 83.984375 33.015625 
L 83.984375 5.171875 
L 92.09375 5.171875 
L 92.09375 0 
L 67.1875 0 
L 67.1875 5.171875 
L 75 5.171875 
L 75 31.984375 
Q 75 39.9375 72.65625 43.3125 
Q 70.3125 46.6875 64.890625 46.6875 
Q 58.890625 46.6875 55.734375 42.140625 
Q 52.59375 37.59375 52.59375 28.90625 
L 52.59375 5.171875 
L 60.40625 5.171875 
L 60.40625 0 
L 35.796875 0 
L 35.796875 5.171875 
L 43.609375 5.171875 
L 43.609375 32.328125 
Q 43.609375 40.09375 41.265625 43.390625 
Q 38.921875 46.6875 33.5 46.6875 
Q 27.484375 46.6875 24.328125 42.140625 
Q 21.1875 37.59375 21.1875 28.90625 
L 21.1875 5.171875 
L 29 5.171875 
L 29 0 
L 4.109375 0 
L 4.109375 5.171875 
L 12.203125 5.171875 
L 12.203125 46.78125 
L 3.609375 46.78125 
L 3.609375 51.90625 
L 21.1875 51.90625 
L 21.1875 42.671875 
Q 23.6875 47.859375 27.53125 50.59375 
Q 31.390625 53.328125 36.28125 53.328125 
Q 42.328125 53.328125 46.375 50.3125 
Q 50.4375 47.3125 51.8125 41.796875 
z
" id="DejaVuSerif-6d"/>
    </defs>
    <g style="fill:#262626;" transform="translate(336.432599 27.568)scale(0.096 -0.096)">
     <use xlink:href="#DejaVuSerif-4c"/>
     <use x="66.40625" xlink:href="#DejaVuSerif-65"/>
     <use x="125.585938" xlink:href="#DejaVuSerif-65"/>
     <use x="184.765625" xlink:href="#DejaVuSerif-20"/>
     <use x="216.552734" xlink:href="#DejaVuSerif-44"/>
     <use x="296.728516" xlink:href="#DejaVuSerif-69"/>
     <use x="328.710938" xlink:href="#DejaVuSerif-61"/>
     <use x="388.330078" xlink:href="#DejaVuSerif-67"/>
     <use x="452.34375" xlink:href="#DejaVuSerif-72"/>
     <use x="500.146484" xlink:href="#DejaVuSerif-61"/>
     <use x="559.765625" xlink:href="#DejaVuSerif-6d"/>
    </g>
   </g>
   <g id="legend_3">
    <g id="line2d_61">
     <path d="M 326.092779 44.04675 
L 342.092779 44.04675 
" style="fill:none;stroke:#4c72b0;stroke-linecap:round;stroke-width:1.4;"/>
    </g>
    <g id="line2d_62"/>
    <g id="text_31">
     <!-- Agg -->
     <defs>
      <path d="M 20.015625 26.421875 
L 46.78125 26.421875 
L 33.40625 61.078125 
z
M -0.59375 0 
L -0.59375 5.171875 
L 5.8125 5.171875 
L 31.78125 72.90625 
L 39.984375 72.90625 
L 66.015625 5.171875 
L 73.1875 5.171875 
L 73.1875 0 
L 46.6875 0 
L 46.6875 5.171875 
L 54.78125 5.171875 
L 48.6875 21.1875 
L 18.015625 21.1875 
L 11.921875 5.171875 
L 19.921875 5.171875 
L 19.921875 0 
z
" id="DejaVuSerif-41"/>
     </defs>
     <g style="fill:#262626;" transform="translate(348.492779 46.84675)scale(0.08 -0.08)">
      <use xlink:href="#DejaVuSerif-41"/>
      <use x="72.216797" xlink:href="#DejaVuSerif-67"/>
      <use x="136.230469" xlink:href="#DejaVuSerif-67"/>
     </g>
    </g>
    <g id="line2d_63">
     <path d="M 326.092779 55.903 
L 342.092779 55.903 
" style="fill:none;stroke:#55a868;stroke-linecap:round;stroke-width:1.4;"/>
    </g>
    <g id="line2d_64"/>
    <g id="text_32">
     <!-- Sev -->
     <defs>
      <path d="M 9.28125 3.515625 
L 9.28125 20.125 
L 14.890625 20.0625 
Q 15.140625 11.765625 19.703125 7.78125 
Q 24.265625 3.8125 33.59375 3.8125 
Q 42.28125 3.8125 46.84375 7.25 
Q 51.421875 10.6875 51.421875 17.28125 
Q 51.421875 22.5625 48.65625 25.390625 
Q 45.90625 28.21875 37.015625 30.90625 
L 27.390625 33.796875 
Q 16.9375 36.96875 12.671875 41.703125 
Q 8.40625 46.4375 8.40625 54.6875 
Q 8.40625 63.96875 14.984375 69.09375 
Q 21.578125 74.21875 33.5 74.21875 
Q 38.578125 74.21875 44.625 73.109375 
Q 50.6875 72.015625 57.515625 69.921875 
L 57.515625 54.390625 
L 52 54.390625 
Q 51.171875 62.109375 46.84375 65.546875 
Q 42.53125 69 33.6875 69 
Q 25.984375 69 21.953125 65.84375 
Q 17.921875 62.703125 17.921875 56.6875 
Q 17.921875 51.46875 20.9375 48.484375 
Q 23.96875 45.515625 33.796875 42.578125 
L 42.828125 39.890625 
Q 52.734375 36.921875 56.953125 32.296875 
Q 61.1875 27.6875 61.1875 19.921875 
Q 61.1875 9.328125 54.390625 3.953125 
Q 47.609375 -1.421875 34.1875 -1.421875 
Q 28.171875 -1.421875 21.9375 -0.1875 
Q 15.71875 1.03125 9.28125 3.515625 
z
" id="DejaVuSerif-53"/>
     </defs>
     <g style="fill:#262626;" transform="translate(348.492779 58.703)scale(0.08 -0.08)">
      <use xlink:href="#DejaVuSerif-53"/>
      <use x="68.505859" xlink:href="#DejaVuSerif-65"/>
      <use x="127.685547" xlink:href="#DejaVuSerif-76"/>
     </g>
    </g>
   </g>
  </g>
  <g id="text_33">
   <!-- Aggregate mycat -->
   <defs>
    <path d="M 51.421875 15.578125 
Q 49.515625 7.28125 44.09375 2.921875 
Q 38.671875 -1.421875 30.078125 -1.421875 
Q 18.75 -1.421875 11.859375 6.078125 
Q 4.984375 13.578125 4.984375 25.984375 
Q 4.984375 38.421875 11.859375 45.875 
Q 18.75 53.328125 30.078125 53.328125 
Q 35.015625 53.328125 39.890625 52.171875 
Q 44.78125 51.03125 49.703125 48.6875 
L 49.703125 35.40625 
L 44.484375 35.40625 
Q 43.453125 42.234375 40.015625 45.359375 
Q 36.578125 48.484375 30.171875 48.484375 
Q 22.90625 48.484375 19.1875 42.84375 
Q 15.484375 37.203125 15.484375 25.984375 
Q 15.484375 14.75 19.171875 9.078125 
Q 22.859375 3.421875 30.171875 3.421875 
Q 35.984375 3.421875 39.453125 6.4375 
Q 42.921875 9.46875 44.1875 15.578125 
z
" id="DejaVuSerif-63"/>
   </defs>
   <g style="fill:#262626;" transform="translate(162.9552 15.7896)scale(0.1152 -0.1152)">
    <use xlink:href="#DejaVuSerif-41"/>
    <use x="72.216797" xlink:href="#DejaVuSerif-67"/>
    <use x="136.230469" xlink:href="#DejaVuSerif-67"/>
    <use x="200.244141" xlink:href="#DejaVuSerif-72"/>
    <use x="248.046875" xlink:href="#DejaVuSerif-65"/>
    <use x="307.226562" xlink:href="#DejaVuSerif-67"/>
    <use x="371.240234" xlink:href="#DejaVuSerif-61"/>
    <use x="430.859375" xlink:href="#DejaVuSerif-74"/>
    <use x="471.044922" xlink:href="#DejaVuSerif-65"/>
    <use x="530.224609" xlink:href="#DejaVuSerif-20"/>
    <use x="562.011719" xlink:href="#DejaVuSerif-6d"/>
    <use x="656.835938" xlink:href="#DejaVuSerif-79"/>
    <use x="713.330078" xlink:href="#DejaVuSerif-63"/>
    <use x="769.335938" xlink:href="#DejaVuSerif-61"/>
    <use x="828.955078" xlink:href="#DejaVuSerif-74"/>
   </g>
  </g>
 </g>
 <defs>
  <clipPath id="pbdcf7fac8c">
   <rect height="96.664" width="97.92214" x="30.6125" y="33.568"/>
  </clipPath>
  <clipPath id="p834968fba5">
   <rect height="96.664" width="97.92214" x="174.75264" y="33.568"/>
  </clipPath>
  <clipPath id="p9d553e9c68">
   <rect height="96.664" width="97.92214" x="318.892779" y="33.568"/>
  </clipPath>
 </defs>
</svg>
