<?xml version="1.0" encoding="utf-8" standalone="no"?>
<!DOCTYPE svg PUBLIC "-//W3C//DTD SVG 1.1//EN"
  "http://www.w3.org/Graphics/SVG/1.1/DTD/svg11.dtd">
<!-- Created with matplotlib (http://matplotlib.org/) -->
<svg height="150.7745pt" version="1.1" viewBox="0 0 420.903609 150.7745" width="420.903609pt" xmlns="http://www.w3.org/2000/svg" xmlns:xlink="http://www.w3.org/1999/xlink">
 <defs>
  <style type="text/css">
*{stroke-linecap:butt;stroke-linejoin:round;}
  </style>
 </defs>
 <g id="figure_1">
  <g id="patch_1">
   <path d="M 0 150.7745 
L 420.903609 150.7745 
L 420.903609 -0 
L 0 -0 
z
" style="fill:#ffffff;"/>
  </g>
  <g id="axes_1">
   <g id="patch_2">
    <path d="M 40.7925 130.232 
L 140.399207 130.232 
L 140.399207 33.568 
L 40.7925 33.568 
z
" style="fill:#eaeaf2;"/>
   </g>
   <g id="matplotlib.axis_1">
    <g id="xtick_1">
     <g id="line2d_1">
      <path clip-path="url(#pf1e7be3270)" d="M 45.320078 130.232 
L 45.320078 33.568 
" style="fill:none;stroke:#ffffff;stroke-linecap:round;stroke-width:0.8;"/>
     </g>
     <g id="line2d_2"/>
     <g id="text_1">
      <!-- 0 -->
      <defs>
       <path d="M 31.78125 3.421875 
Q 39.265625 3.421875 42.96875 11.625 
Q 46.6875 19.828125 46.6875 36.375 
Q 46.6875 52.984375 42.96875 61.1875 
Q 39.265625 69.390625 31.78125 69.390625 
Q 24.3125 69.390625 20.59375 61.1875 
Q 16.890625 52.984375 16.890625 36.375 
Q 16.890625 19.828125 20.59375 11.625 
Q 24.3125 3.421875 31.78125 3.421875 
z
M 31.78125 -1.421875 
Q 19.921875 -1.421875 13.25 8.53125 
Q 6.59375 18.5 6.59375 36.375 
Q 6.59375 54.296875 13.25 64.25 
Q 19.921875 74.21875 31.78125 74.21875 
Q 43.703125 74.21875 50.34375 64.25 
Q 56.984375 54.296875 56.984375 36.375 
Q 56.984375 18.5 50.34375 8.53125 
Q 43.703125 -1.421875 31.78125 -1.421875 
z
" id="DejaVuSerif-30"/>
      </defs>
      <g style="fill:#262626;" transform="translate(42.775078 141.91075)scale(0.08 -0.08)">
       <use xlink:href="#DejaVuSerif-30"/>
      </g>
     </g>
    </g>
    <g id="xtick_2">
     <g id="line2d_3">
      <path clip-path="url(#pf1e7be3270)" d="M 70.667618 130.232 
L 70.667618 33.568 
" style="fill:none;stroke:#ffffff;stroke-linecap:round;stroke-width:0.8;"/>
     </g>
     <g id="line2d_4"/>
     <g id="text_2">
      <!-- 500 -->
      <defs>
       <path d="M 50.296875 72.90625 
L 50.296875 64.890625 
L 16.890625 64.890625 
L 16.890625 44 
Q 19.4375 45.75 22.828125 46.625 
Q 26.21875 47.515625 30.421875 47.515625 
Q 42.234375 47.515625 49.0625 40.96875 
Q 55.90625 34.421875 55.90625 23.09375 
Q 55.90625 11.53125 49 5.046875 
Q 42.09375 -1.421875 29.59375 -1.421875 
Q 24.5625 -1.421875 19.28125 -0.1875 
Q 14.015625 1.03125 8.5 3.515625 
L 8.5 17.671875 
L 14.015625 17.671875 
Q 14.453125 10.75 18.421875 7.078125 
Q 22.40625 3.421875 29.59375 3.421875 
Q 37.3125 3.421875 41.453125 8.5 
Q 45.609375 13.578125 45.609375 23.09375 
Q 45.609375 32.5625 41.484375 37.609375 
Q 37.359375 42.671875 29.59375 42.671875 
Q 25.203125 42.671875 21.84375 41.109375 
Q 18.5 39.546875 15.921875 36.28125 
L 11.71875 36.28125 
L 11.71875 72.90625 
z
" id="DejaVuSerif-35"/>
      </defs>
      <g style="fill:#262626;" transform="translate(63.032618 141.91075)scale(0.08 -0.08)">
       <use xlink:href="#DejaVuSerif-35"/>
       <use x="63.623047" xlink:href="#DejaVuSerif-30"/>
       <use x="127.246094" xlink:href="#DejaVuSerif-30"/>
      </g>
     </g>
    </g>
    <g id="xtick_3">
     <g id="line2d_5">
      <path clip-path="url(#pf1e7be3270)" d="M 96.015158 130.232 
L 96.015158 33.568 
" style="fill:none;stroke:#ffffff;stroke-linecap:round;stroke-width:0.8;"/>
     </g>
     <g id="line2d_6"/>
     <g id="text_3">
      <!-- 1000 -->
      <defs>
       <path d="M 14.203125 0 
L 14.203125 5.171875 
L 26.90625 5.171875 
L 26.90625 65.828125 
L 12.203125 56.296875 
L 12.203125 62.703125 
L 29.984375 74.21875 
L 36.71875 74.21875 
L 36.71875 5.171875 
L 49.421875 5.171875 
L 49.421875 0 
z
" id="DejaVuSerif-31"/>
      </defs>
      <g style="fill:#262626;" transform="translate(85.835158 141.91075)scale(0.08 -0.08)">
       <use xlink:href="#DejaVuSerif-31"/>
       <use x="63.623047" xlink:href="#DejaVuSerif-30"/>
       <use x="127.246094" xlink:href="#DejaVuSerif-30"/>
       <use x="190.869141" xlink:href="#DejaVuSerif-30"/>
      </g>
     </g>
    </g>
    <g id="xtick_4">
     <g id="line2d_7">
      <path clip-path="url(#pf1e7be3270)" d="M 121.362698 130.232 
L 121.362698 33.568 
" style="fill:none;stroke:#ffffff;stroke-linecap:round;stroke-width:0.8;"/>
     </g>
     <g id="line2d_8"/>
     <g id="text_4">
      <!-- 1500 -->
      <g style="fill:#262626;" transform="translate(111.182698 141.91075)scale(0.08 -0.08)">
       <use xlink:href="#DejaVuSerif-31"/>
       <use x="63.623047" xlink:href="#DejaVuSerif-35"/>
       <use x="127.246094" xlink:href="#DejaVuSerif-30"/>
       <use x="190.869141" xlink:href="#DejaVuSerif-30"/>
      </g>
     </g>
    </g>
   </g>
   <g id="matplotlib.axis_2">
    <g id="ytick_1">
     <g id="line2d_9">
      <path clip-path="url(#pf1e7be3270)" d="M 40.7925 130.232 
L 140.399207 130.232 
" style="fill:none;stroke:#ffffff;stroke-linecap:round;stroke-width:0.8;"/>
     </g>
     <g id="line2d_10"/>
     <g id="text_5">
      <!-- 0.0000 -->
      <defs>
       <path d="M 9.421875 5.078125 
Q 9.421875 7.8125 11.28125 9.71875 
Q 13.140625 11.625 15.921875 11.625 
Q 18.609375 11.625 20.5 9.71875 
Q 22.40625 7.8125 22.40625 5.078125 
Q 22.40625 2.390625 20.5 0.484375 
Q 18.609375 -1.421875 15.921875 -1.421875 
Q 13.140625 -1.421875 11.28125 0.453125 
Q 9.421875 2.34375 9.421875 5.078125 
z
" id="DejaVuSerif-2e"/>
      </defs>
      <g style="fill:#262626;" transform="translate(7.2 133.271375)scale(0.08 -0.08)">
       <use xlink:href="#DejaVuSerif-30"/>
       <use x="63.623047" xlink:href="#DejaVuSerif-2e"/>
       <use x="95.410156" xlink:href="#DejaVuSerif-30"/>
       <use x="159.033203" xlink:href="#DejaVuSerif-30"/>
       <use x="222.65625" xlink:href="#DejaVuSerif-30"/>
       <use x="286.279297" xlink:href="#DejaVuSerif-30"/>
      </g>
     </g>
    </g>
    <g id="ytick_2">
     <g id="line2d_11">
      <path clip-path="url(#pf1e7be3270)" d="M 40.7925 98.66571 
L 140.399207 98.66571 
" style="fill:none;stroke:#ffffff;stroke-linecap:round;stroke-width:0.8;"/>
     </g>
     <g id="line2d_12"/>
     <g id="text_6">
      <!-- 0.0005 -->
      <g style="fill:#262626;" transform="translate(7.2 101.705085)scale(0.08 -0.08)">
       <use xlink:href="#DejaVuSerif-30"/>
       <use x="63.623047" xlink:href="#DejaVuSerif-2e"/>
       <use x="95.410156" xlink:href="#DejaVuSerif-30"/>
       <use x="159.033203" xlink:href="#DejaVuSerif-30"/>
       <use x="222.65625" xlink:href="#DejaVuSerif-30"/>
       <use x="286.279297" xlink:href="#DejaVuSerif-35"/>
      </g>
     </g>
    </g>
    <g id="ytick_3">
     <g id="line2d_13">
      <path clip-path="url(#pf1e7be3270)" d="M 40.7925 67.099419 
L 140.399207 67.099419 
" style="fill:none;stroke:#ffffff;stroke-linecap:round;stroke-width:0.8;"/>
     </g>
     <g id="line2d_14"/>
     <g id="text_7">
      <!-- 0.0010 -->
      <g style="fill:#262626;" transform="translate(7.2 70.138794)scale(0.08 -0.08)">
       <use xlink:href="#DejaVuSerif-30"/>
       <use x="63.623047" xlink:href="#DejaVuSerif-2e"/>
       <use x="95.410156" xlink:href="#DejaVuSerif-30"/>
       <use x="159.033203" xlink:href="#DejaVuSerif-30"/>
       <use x="222.65625" xlink:href="#DejaVuSerif-31"/>
       <use x="286.279297" xlink:href="#DejaVuSerif-30"/>
      </g>
     </g>
    </g>
    <g id="ytick_4">
     <g id="line2d_15">
      <path clip-path="url(#pf1e7be3270)" d="M 40.7925 35.533129 
L 140.399207 35.533129 
" style="fill:none;stroke:#ffffff;stroke-linecap:round;stroke-width:0.8;"/>
     </g>
     <g id="line2d_16"/>
     <g id="text_8">
      <!-- 0.0015 -->
      <g style="fill:#262626;" transform="translate(7.2 38.572504)scale(0.08 -0.08)">
       <use xlink:href="#DejaVuSerif-30"/>
       <use x="63.623047" xlink:href="#DejaVuSerif-2e"/>
       <use x="95.410156" xlink:href="#DejaVuSerif-30"/>
       <use x="159.033203" xlink:href="#DejaVuSerif-30"/>
       <use x="222.65625" xlink:href="#DejaVuSerif-31"/>
       <use x="286.279297" xlink:href="#DejaVuSerif-35"/>
      </g>
     </g>
    </g>
   </g>
   <g id="line2d_17">
    <path clip-path="url(#pf1e7be3270)" d="M 45.320078 127.365009 
L 45.325147 127.365009 
L 45.325147 130.205877 
L 45.431607 129.634927 
L 45.462024 129.526153 
L 45.568483 128.934026 
L 45.588762 128.83841 
L 45.695221 128.025907 
L 45.71043 127.942303 
L 45.816889 126.916447 
L 45.832098 126.813647 
L 45.938558 125.5813 
L 45.948697 125.520965 
L 46.055156 124.103591 
L 46.065295 124.035212 
L 46.171755 122.450286 
L 46.181894 122.374747 
L 46.288354 120.64332 
L 46.298493 120.561642 
L 46.404952 118.70721 
L 46.415091 118.620501 
L 46.521551 116.667997 
L 46.53169 116.577408 
L 46.63815 114.552321 
L 46.648289 114.459012 
L 46.754748 112.386649 
L 46.764887 112.291756 
L 46.871347 110.196641 
L 46.881486 110.101253 
L 46.987946 108.006646 
L 46.998085 107.911787 
L 47.104544 105.839327 
L 47.114683 105.745938 
L 47.221143 103.715386 
L 47.231282 103.624319 
L 47.337742 101.653389 
L 47.347881 101.565402 
L 47.45434 99.66967 
L 47.464479 99.585423 
L 47.570939 97.778302 
L 47.581078 97.698354 
L 47.687538 95.991122 
L 47.697677 95.915939 
L 47.804137 94.3178 
L 47.814276 94.247754 
L 47.920735 92.765942 
L 47.930874 92.70132 
L 48.037334 91.341218 
L 48.047473 91.282223 
L 48.153933 90.047504 
L 48.169141 89.941283 
L 48.275601 88.839624 
L 48.290809 88.745553 
L 48.397269 87.777654 
L 48.412477 87.695731 
L 48.518937 86.860877 
L 48.539215 86.756399 
L 48.645675 86.058048 
L 48.665953 85.971982 
L 48.772413 85.406826 
L 48.79776 85.316392 
L 48.90422 84.885177 
L 48.939706 84.786671 
L 49.046166 84.493443 
L 49.107 84.385861 
L 49.21346 84.245756 
L 49.537908 84.356847 
L 49.644368 84.5578 
L 49.695063 84.661964 
L 49.801523 84.967158 
L 49.837009 85.062321 
L 49.943469 85.452383 
L 49.973886 85.549676 
L 50.080346 86.01338 
L 50.105693 86.103664 
L 50.212153 86.630885 
L 50.2375 86.732072 
L 50.34396 87.315799 
L 50.369308 87.426641 
L 50.475767 88.060152 
L 50.496045 88.149515 
L 50.602505 88.82485 
L 50.622783 88.919526 
L 50.729243 89.631063 
L 50.749521 89.730307 
L 50.85598 90.472737 
L 50.876258 90.575846 
L 50.982718 91.344181 
L 51.002996 91.450498 
L 51.109456 92.240073 
L 51.129734 92.348984 
L 51.236193 93.155458 
L 51.256471 93.266392 
L 51.362931 94.085742 
L 51.37814 94.160679 
L 51.484599 94.988895 
L 51.499808 95.064491 
L 51.606268 95.898422 
L 51.621476 95.974402 
L 51.727936 96.811157 
L 51.743144 96.88727 
L 51.849604 97.724206 
L 51.864812 97.800224 
L 51.971272 98.63494 
L 51.986481 98.710654 
L 52.09294 99.540975 
L 52.108149 99.616197 
L 52.214608 100.440167 
L 52.229817 100.514729 
L 52.336277 101.330592 
L 52.356555 101.441191 
L 52.463014 102.246953 
L 52.483292 102.356069 
L 52.589752 103.150238 
L 52.61003 103.257681 
L 52.71649 104.038958 
L 52.736768 104.144562 
L 52.843227 104.911822 
L 52.863505 105.015446 
L 52.969965 105.767728 
L 52.990243 105.869252 
L 53.096703 106.605746 
L 53.116981 106.705068 
L 53.223441 107.425103 
L 53.243719 107.52214 
L 53.350178 108.225171 
L 53.370456 108.319858 
L 53.476916 109.005455 
L 53.497194 109.097741 
L 53.603654 109.765582 
L 53.623932 109.855428 
L 53.730391 110.505285 
L 53.750669 110.592668 
L 53.857129 111.224399 
L 53.877407 111.309304 
L 53.983867 111.922846 
L 54.009214 112.032679 
L 54.115674 112.62731 
L 54.141022 112.73371 
L 54.247481 113.309508 
L 54.272829 113.412494 
L 54.379288 113.969596 
L 54.404636 114.069199 
L 54.511096 114.607796 
L 54.536443 114.704055 
L 54.642903 115.224386 
L 54.66825 115.317348 
L 54.77471 115.819692 
L 54.800058 115.909411 
L 54.906517 116.394082 
L 54.936934 116.502178 
L 55.043394 116.968861 
L 55.073811 117.072912 
L 55.180271 117.522005 
L 55.210688 117.622106 
L 55.317147 118.05403 
L 55.347564 118.150278 
L 55.454024 118.565472 
L 55.489511 118.676386 
L 55.59597 119.074709 
L 55.631457 119.18109 
L 55.737917 119.563041 
L 55.773403 119.665025 
L 55.879863 120.031109 
L 55.915349 120.128835 
L 56.021809 120.479563 
L 56.062365 120.588689 
L 56.168825 120.924053 
L 56.209381 121.028377 
L 56.31584 121.348924 
L 56.356396 121.44862 
L 56.462856 121.754895 
L 56.508482 121.863656 
L 56.614941 122.155733 
L 56.660567 122.259434 
L 56.767027 122.53788 
L 56.812652 122.636727 
L 56.919112 122.902098 
L 56.969807 123.007979 
L 57.076267 123.260413 
L 57.126962 123.361118 
L 57.233421 123.601181 
L 57.289186 123.707493 
L 57.395646 123.935366 
L 57.45648 124.046267 
L 57.562939 124.262164 
L 57.623773 124.367225 
L 57.730233 124.571732 
L 57.796137 124.680198 
L 57.902596 124.873561 
L 57.97357 124.984561 
L 58.080029 125.167052 
L 58.151002 125.271802 
L 58.257462 125.444006 
L 58.333505 125.550359 
L 58.439964 125.712564 
L 58.521076 125.819802 
L 58.627536 125.972318 
L 58.713718 126.079778 
L 58.820177 126.22293 
L 58.911429 126.330004 
L 59.017888 126.464135 
L 59.114209 126.570272 
L 59.220669 126.695735 
L 59.327128 126.805859 
L 59.433588 126.922819 
L 59.545117 127.030524 
L 59.651577 127.139378 
L 59.773245 127.248984 
L 59.879705 127.34996 
L 60.011512 127.460295 
L 60.117971 127.553658 
L 60.259918 127.66366 
L 60.366377 127.749708 
L 60.518463 127.858429 
L 60.624922 127.937484 
L 60.792216 128.047444 
L 60.898676 128.11973 
L 61.081178 128.229447 
L 61.187638 128.295237 
L 61.390418 128.406162 
L 61.496878 128.465668 
L 61.719936 128.575956 
L 61.826396 128.629453 
L 62.074802 128.739718 
L 62.181261 128.787449 
L 62.460084 128.897641 
L 62.566544 128.93985 
L 62.880853 129.049364 
L 62.987313 129.086307 
L 63.352318 129.197068 
L 63.458777 129.228932 
L 63.884616 129.339667 
L 63.991076 129.366681 
L 64.498026 129.477424 
L 64.604486 129.499815 
L 65.222966 129.610349 
L 65.329426 129.628353 
L 66.115199 129.739042 
L 66.221659 129.752888 
L 67.276117 129.863544 
L 67.382576 129.87348 
L 68.943985 129.984416 
L 69.050445 129.990708 
L 71.869091 130.101714 
L 71.975551 130.104698 
L 84.03591 130.215798 
L 84.14237 130.216052 
L 135.871629 130.231839 
L 135.871629 130.231839 
" style="fill:none;stroke:#4c72b0;stroke-linecap:round;stroke-width:1.4;"/>
   </g>
   <g id="line2d_18">
    <path clip-path="url(#pf1e7be3270)" d="M 45.320078 128.523212 
L 45.325147 128.523212 
L 45.330217 -1 
M 45.984183 -1 
L 46.090643 27.927744 
L 46.095712 27.927744 
L 46.202172 49.116358 
L 46.207241 49.116358 
L 46.313701 64.822218 
L 46.318771 64.822218 
L 46.42523 76.723987 
L 46.4303 76.723987 
L 46.53676 85.914841 
L 46.541829 85.914841 
L 46.648289 93.128858 
L 46.653358 93.128858 
L 46.759818 98.872283 
L 46.764887 98.872283 
L 46.871347 103.502455 
L 46.876417 103.502455 
L 46.982876 107.276807 
L 46.987946 107.276807 
L 47.094405 110.384183 
L 47.099475 110.384183 
L 47.205935 112.965357 
L 47.216074 113.072013 
L 47.322533 115.216473 
L 47.332672 115.305459 
L 47.439132 117.101369 
L 47.449271 117.176178 
L 47.555731 118.691151 
L 47.56587 118.754479 
L 47.672329 120.040977 
L 47.687538 120.148509 
L 47.793997 121.240315 
L 47.809206 121.331866 
L 47.915666 122.264109 
L 47.930874 122.34251 
L 48.037334 123.142995 
L 48.057612 123.243941 
L 48.164072 123.930722 
L 48.18435 124.017566 
L 48.290809 124.609876 
L 48.316157 124.709707 
L 48.422616 125.220142 
L 48.453034 125.327657 
L 48.559493 125.767279 
L 48.59498 125.878384 
L 48.701439 126.256869 
L 48.736926 126.352764 
L 48.843386 126.680203 
L 48.889011 126.790529 
L 48.995471 127.072303 
L 49.046166 127.17912 
L 49.152626 127.421613 
L 49.20839 127.523769 
L 49.31485 127.732497 
L 49.380753 127.837801 
L 49.487213 128.01672 
L 49.563256 128.121843 
L 49.669715 128.274655 
L 49.760967 128.383287 
L 49.867426 128.512853 
L 49.973886 128.620874 
L 50.080346 128.73003 
L 50.207083 128.83873 
L 50.313543 128.929831 
L 50.465628 129.03881 
L 50.572088 129.113944 
L 50.75966 129.224564 
L 50.866119 129.285462 
L 51.099317 129.396348 
L 51.205776 129.44465 
L 51.499808 129.554531 
L 51.606268 129.591786 
L 51.99662 129.702353 
L 52.103079 129.729839 
L 52.650586 129.84086 
L 52.757046 129.859776 
L 53.598584 129.97082 
L 53.705044 129.982333 
L 55.276591 130.093315 
L 55.383051 130.098617 
L 61.699658 130.209716 
L 61.806118 130.210291 
L 135.871629 130.231989 
L 135.871629 130.231989 
" style="fill:none;stroke:#55a868;stroke-linecap:round;stroke-width:1.4;"/>
   </g>
   <g id="patch_3">
    <path d="M 40.7925 130.232 
L 40.7925 33.568 
" style="fill:none;"/>
   </g>
   <g id="patch_4">
    <path d="M 140.399207 130.232 
L 140.399207 33.568 
" style="fill:none;"/>
   </g>
   <g id="patch_5">
    <path d="M 40.7925 130.232 
L 140.399207 130.232 
" style="fill:none;"/>
   </g>
   <g id="patch_6">
    <path d="M 40.7925 33.568 
L 140.399207 33.568 
" style="fill:none;"/>
   </g>
   <g id="text_9">
    <!-- Density -->
    <defs>
     <path d="M 24.703125 5.171875 
L 33.796875 5.171875 
Q 48 5.171875 55.59375 13.28125 
Q 63.1875 21.390625 63.1875 36.53125 
Q 63.1875 51.65625 55.609375 59.65625 
Q 48.046875 67.671875 33.796875 67.671875 
L 24.703125 67.671875 
z
M 5.515625 0 
L 5.515625 5.171875 
L 14.796875 5.171875 
L 14.796875 67.671875 
L 5.515625 67.671875 
L 5.515625 72.90625 
L 34.515625 72.90625 
Q 53.375 72.90625 63.890625 63.28125 
Q 74.421875 53.65625 74.421875 36.53125 
Q 74.421875 19.34375 63.875 9.671875 
Q 53.328125 0 34.515625 0 
z
" id="DejaVuSerif-44"/>
     <path d="M 54.203125 25 
L 15.484375 25 
L 15.484375 24.609375 
Q 15.484375 14.109375 19.4375 8.765625 
Q 23.390625 3.421875 31.109375 3.421875 
Q 37.015625 3.421875 40.796875 6.515625 
Q 44.578125 9.625 46.09375 15.71875 
L 53.328125 15.71875 
Q 51.171875 7.171875 45.375 2.875 
Q 39.59375 -1.421875 30.171875 -1.421875 
Q 18.796875 -1.421875 11.890625 6.078125 
Q 4.984375 13.578125 4.984375 25.984375 
Q 4.984375 38.28125 11.765625 45.796875 
Q 18.5625 53.328125 29.59375 53.328125 
Q 41.359375 53.328125 47.65625 46.0625 
Q 53.953125 38.8125 54.203125 25 
z
M 43.609375 30.171875 
Q 43.3125 39.265625 39.765625 43.875 
Q 36.234375 48.484375 29.59375 48.484375 
Q 23.390625 48.484375 19.828125 43.84375 
Q 16.265625 39.203125 15.484375 30.171875 
z
" id="DejaVuSerif-65"/>
     <path d="M 4.109375 0 
L 4.109375 5.171875 
L 12.203125 5.171875 
L 12.203125 46.6875 
L 3.609375 46.6875 
L 3.609375 51.90625 
L 21.1875 51.90625 
L 21.1875 42.671875 
Q 23.6875 47.953125 27.65625 50.640625 
Q 31.640625 53.328125 36.921875 53.328125 
Q 45.515625 53.328125 49.5625 48.390625 
Q 53.609375 43.453125 53.609375 33.015625 
L 53.609375 5.171875 
L 61.625 5.171875 
L 61.625 0 
L 36.8125 0 
L 36.8125 5.171875 
L 44.578125 5.171875 
L 44.578125 30.171875 
Q 44.578125 39.703125 42.234375 43.234375 
Q 39.890625 46.78125 33.984375 46.78125 
Q 27.734375 46.78125 24.453125 42.203125 
Q 21.1875 37.640625 21.1875 28.90625 
L 21.1875 5.171875 
L 29 5.171875 
L 29 0 
z
" id="DejaVuSerif-6e"/>
     <path d="M 5.609375 2.875 
L 5.609375 14.984375 
L 10.796875 14.984375 
Q 10.984375 9.1875 14.421875 6.296875 
Q 17.875 3.421875 24.609375 3.421875 
Q 30.671875 3.421875 33.84375 5.6875 
Q 37.015625 7.953125 37.015625 12.3125 
Q 37.015625 15.71875 34.6875 17.8125 
Q 32.375 19.921875 24.90625 22.3125 
L 18.40625 24.515625 
Q 11.71875 26.65625 8.71875 29.875 
Q 5.71875 33.109375 5.71875 38.09375 
Q 5.71875 45.21875 10.9375 49.265625 
Q 16.15625 53.328125 25.390625 53.328125 
Q 29.5 53.328125 34.03125 52.25 
Q 38.578125 51.171875 43.40625 49.125 
L 43.40625 37.796875 
L 38.234375 37.796875 
Q 38.03125 42.828125 34.703125 45.65625 
Q 31.390625 48.484375 25.6875 48.484375 
Q 20.015625 48.484375 17.109375 46.484375 
Q 14.203125 44.484375 14.203125 40.484375 
Q 14.203125 37.203125 16.40625 35.21875 
Q 18.609375 33.25 25.203125 31.203125 
L 32.328125 29 
Q 39.703125 26.703125 42.9375 23.265625 
Q 46.1875 19.828125 46.1875 14.40625 
Q 46.1875 7.03125 40.546875 2.796875 
Q 34.90625 -1.421875 25 -1.421875 
Q 19.96875 -1.421875 15.1875 -0.34375 
Q 10.40625 0.734375 5.609375 2.875 
z
" id="DejaVuSerif-73"/>
     <path d="M 9.71875 68.015625 
Q 9.71875 70.265625 11.34375 71.921875 
Q 12.984375 73.578125 15.28125 73.578125 
Q 17.53125 73.578125 19.15625 71.921875 
Q 20.796875 70.265625 20.796875 68.015625 
Q 20.796875 65.71875 19.1875 64.109375 
Q 17.578125 62.5 15.28125 62.5 
Q 12.984375 62.5 11.34375 64.109375 
Q 9.71875 65.71875 9.71875 68.015625 
z
M 21.1875 5.171875 
L 29.6875 5.171875 
L 29.6875 0 
L 3.609375 0 
L 3.609375 5.171875 
L 12.203125 5.171875 
L 12.203125 46.6875 
L 3.609375 46.6875 
L 3.609375 51.90625 
L 21.1875 51.90625 
z
" id="DejaVuSerif-69"/>
     <path d="M 10.796875 46.6875 
L 2.875 46.6875 
L 2.875 51.90625 
L 10.796875 51.90625 
L 10.796875 68.015625 
L 19.828125 68.015625 
L 19.828125 51.90625 
L 36.71875 51.90625 
L 36.71875 46.6875 
L 19.828125 46.6875 
L 19.828125 13.71875 
Q 19.828125 7.125 21.09375 5.265625 
Q 22.359375 3.421875 25.78125 3.421875 
Q 29.296875 3.421875 30.90625 5.484375 
Q 32.515625 7.5625 32.625 12.203125 
L 39.40625 12.203125 
Q 39.015625 5.125 35.546875 1.84375 
Q 32.078125 -1.421875 25 -1.421875 
Q 17.234375 -1.421875 14.015625 2.015625 
Q 10.796875 5.46875 10.796875 13.71875 
z
" id="DejaVuSerif-74"/>
     <path d="M 21.578125 -9.515625 
L 25 -0.875 
L 5.609375 46.6875 
L -0.296875 46.6875 
L -0.296875 51.90625 
L 23.578125 51.90625 
L 23.578125 46.6875 
L 15.28125 46.6875 
L 29.890625 10.984375 
L 44.484375 46.6875 
L 36.71875 46.6875 
L 36.71875 51.90625 
L 56.203125 51.90625 
L 56.203125 46.6875 
L 50.390625 46.6875 
L 26.609375 -11.71875 
Q 24.171875 -17.78125 21.1875 -20 
Q 18.21875 -22.21875 12.796875 -22.21875 
Q 10.5 -22.21875 8.078125 -21.828125 
Q 5.671875 -21.4375 3.21875 -20.703125 
L 3.21875 -10.796875 
L 7.8125 -10.796875 
Q 8.109375 -14.109375 9.5 -15.546875 
Q 10.890625 -17 13.8125 -17 
Q 16.5 -17 18.140625 -15.5 
Q 19.78125 -14.015625 21.578125 -9.515625 
z
" id="DejaVuSerif-79"/>
    </defs>
    <g style="fill:#262626;" transform="translate(72.175853 27.568)scale(0.096 -0.096)">
     <use xlink:href="#DejaVuSerif-44"/>
     <use x="80.175781" xlink:href="#DejaVuSerif-65"/>
     <use x="139.355469" xlink:href="#DejaVuSerif-6e"/>
     <use x="203.759766" xlink:href="#DejaVuSerif-73"/>
     <use x="255.078125" xlink:href="#DejaVuSerif-69"/>
     <use x="287.060547" xlink:href="#DejaVuSerif-74"/>
     <use x="327.246094" xlink:href="#DejaVuSerif-79"/>
    </g>
   </g>
   <g id="legend_1">
    <g id="line2d_19">
     <path d="M 95.786707 44.04675 
L 111.786707 44.04675 
" style="fill:none;stroke:#4c72b0;stroke-linecap:round;stroke-width:1.4;"/>
    </g>
    <g id="line2d_20"/>
    <g id="text_10">
     <!-- agg -->
     <defs>
      <path d="M 39.796875 16.3125 
L 39.796875 27.296875 
L 28.21875 27.296875 
Q 21.53125 27.296875 18.25 24.40625 
Q 14.984375 21.53125 14.984375 15.578125 
Q 14.984375 10.15625 18.296875 6.984375 
Q 21.625 3.8125 27.296875 3.8125 
Q 32.90625 3.8125 36.34375 7.28125 
Q 39.796875 10.75 39.796875 16.3125 
z
M 48.78125 32.421875 
L 48.78125 5.171875 
L 56.78125 5.171875 
L 56.78125 0 
L 39.796875 0 
L 39.796875 5.609375 
Q 36.8125 2 32.90625 0.28125 
Q 29 -1.421875 23.78125 -1.421875 
Q 15.140625 -1.421875 10.0625 3.171875 
Q 4.984375 7.765625 4.984375 15.578125 
Q 4.984375 23.640625 10.796875 28.078125 
Q 16.609375 32.515625 27.203125 32.515625 
L 39.796875 32.515625 
L 39.796875 36.078125 
Q 39.796875 42 36.203125 45.234375 
Q 32.625 48.484375 26.125 48.484375 
Q 20.75 48.484375 17.578125 46.046875 
Q 14.40625 43.609375 13.625 38.8125 
L 8.984375 38.8125 
L 8.984375 49.3125 
Q 13.671875 51.3125 18.09375 52.3125 
Q 22.515625 53.328125 26.703125 53.328125 
Q 37.5 53.328125 43.140625 47.96875 
Q 48.78125 42.625 48.78125 32.421875 
z
" id="DejaVuSerif-61"/>
      <path d="M 52.484375 46.6875 
L 52.484375 1.125 
Q 52.484375 -10.0625 46.328125 -16.140625 
Q 40.1875 -22.21875 28.8125 -22.21875 
Q 23.6875 -22.21875 19 -21.28125 
Q 14.3125 -20.359375 10.015625 -18.5 
L 10.015625 -7.625 
L 14.703125 -7.625 
Q 15.578125 -12.703125 18.84375 -15.046875 
Q 22.125 -17.390625 28.21875 -17.390625 
Q 36.140625 -17.390625 39.8125 -12.921875 
Q 43.5 -8.453125 43.5 1.125 
L 43.5 8.109375 
Q 40.875 3.21875 36.796875 0.890625 
Q 32.71875 -1.421875 26.703125 -1.421875 
Q 17.140625 -1.421875 11.0625 6.171875 
Q 4.984375 13.765625 4.984375 25.984375 
Q 4.984375 38.1875 11.03125 45.75 
Q 17.09375 53.328125 26.703125 53.328125 
Q 32.71875 53.328125 36.796875 51 
Q 40.875 48.6875 43.5 43.796875 
L 43.5 51.90625 
L 61.078125 51.90625 
L 61.078125 46.6875 
z
M 43.5 28.515625 
Q 43.5 37.84375 39.90625 42.765625 
Q 36.328125 47.703125 29.5 47.703125 
Q 22.5625 47.703125 19.015625 42.234375 
Q 15.484375 36.765625 15.484375 25.984375 
Q 15.484375 15.234375 19.015625 9.71875 
Q 22.5625 4.203125 29.5 4.203125 
Q 36.328125 4.203125 39.90625 9.109375 
Q 43.5 14.015625 43.5 23.390625 
z
" id="DejaVuSerif-67"/>
     </defs>
     <g style="fill:#262626;" transform="translate(118.186707 46.84675)scale(0.08 -0.08)">
      <use xlink:href="#DejaVuSerif-61"/>
      <use x="59.619141" xlink:href="#DejaVuSerif-67"/>
      <use x="123.632812" xlink:href="#DejaVuSerif-67"/>
     </g>
    </g>
    <g id="line2d_21">
     <path d="M 95.786707 55.903 
L 111.786707 55.903 
" style="fill:none;stroke:#55a868;stroke-linecap:round;stroke-width:1.4;"/>
    </g>
    <g id="line2d_22"/>
    <g id="text_11">
     <!-- sev -->
     <defs>
      <path d="M 24.703125 0 
L 5.609375 46.6875 
L -0.296875 46.6875 
L -0.296875 51.90625 
L 23.578125 51.90625 
L 23.578125 46.6875 
L 15.28125 46.6875 
L 29.890625 10.984375 
L 44.484375 46.6875 
L 36.71875 46.6875 
L 36.71875 51.90625 
L 56.203125 51.90625 
L 56.203125 46.6875 
L 50.390625 46.6875 
L 31.296875 0 
z
" id="DejaVuSerif-76"/>
     </defs>
     <g style="fill:#262626;" transform="translate(118.186707 58.703)scale(0.08 -0.08)">
      <use xlink:href="#DejaVuSerif-73"/>
      <use x="51.318359" xlink:href="#DejaVuSerif-65"/>
      <use x="110.498047" xlink:href="#DejaVuSerif-76"/>
     </g>
    </g>
   </g>
  </g>
  <g id="axes_2">
   <g id="patch_7">
    <path d="M 176.527832 130.232 
L 276.134539 130.232 
L 276.134539 33.568 
L 176.527832 33.568 
z
" style="fill:#eaeaf2;"/>
   </g>
   <g id="matplotlib.axis_3">
    <g id="xtick_5">
     <g id="line2d_23">
      <path clip-path="url(#p6c72e00fcd)" d="M 181.05541 130.232 
L 181.05541 33.568 
" style="fill:none;stroke:#ffffff;stroke-linecap:round;stroke-width:0.8;"/>
     </g>
     <g id="line2d_24"/>
     <g id="text_12">
      <!-- 0 -->
      <g style="fill:#262626;" transform="translate(178.51041 141.91075)scale(0.08 -0.08)">
       <use xlink:href="#DejaVuSerif-30"/>
      </g>
     </g>
    </g>
    <g id="xtick_6">
     <g id="line2d_25">
      <path clip-path="url(#p6c72e00fcd)" d="M 206.40295 130.232 
L 206.40295 33.568 
" style="fill:none;stroke:#ffffff;stroke-linecap:round;stroke-width:0.8;"/>
     </g>
     <g id="line2d_26"/>
     <g id="text_13">
      <!-- 500 -->
      <g style="fill:#262626;" transform="translate(198.76795 141.91075)scale(0.08 -0.08)">
       <use xlink:href="#DejaVuSerif-35"/>
       <use x="63.623047" xlink:href="#DejaVuSerif-30"/>
       <use x="127.246094" xlink:href="#DejaVuSerif-30"/>
      </g>
     </g>
    </g>
    <g id="xtick_7">
     <g id="line2d_27">
      <path clip-path="url(#p6c72e00fcd)" d="M 231.75049 130.232 
L 231.75049 33.568 
" style="fill:none;stroke:#ffffff;stroke-linecap:round;stroke-width:0.8;"/>
     </g>
     <g id="line2d_28"/>
     <g id="text_14">
      <!-- 1000 -->
      <g style="fill:#262626;" transform="translate(221.57049 141.91075)scale(0.08 -0.08)">
       <use xlink:href="#DejaVuSerif-31"/>
       <use x="63.623047" xlink:href="#DejaVuSerif-30"/>
       <use x="127.246094" xlink:href="#DejaVuSerif-30"/>
       <use x="190.869141" xlink:href="#DejaVuSerif-30"/>
      </g>
     </g>
    </g>
    <g id="xtick_8">
     <g id="line2d_29">
      <path clip-path="url(#p6c72e00fcd)" d="M 257.098029 130.232 
L 257.098029 33.568 
" style="fill:none;stroke:#ffffff;stroke-linecap:round;stroke-width:0.8;"/>
     </g>
     <g id="line2d_30"/>
     <g id="text_15">
      <!-- 1500 -->
      <g style="fill:#262626;" transform="translate(246.918029 141.91075)scale(0.08 -0.08)">
       <use xlink:href="#DejaVuSerif-31"/>
       <use x="63.623047" xlink:href="#DejaVuSerif-35"/>
       <use x="127.246094" xlink:href="#DejaVuSerif-30"/>
       <use x="190.869141" xlink:href="#DejaVuSerif-30"/>
      </g>
     </g>
    </g>
   </g>
   <g id="matplotlib.axis_4">
    <g id="ytick_5">
     <g id="line2d_31">
      <path clip-path="url(#p6c72e00fcd)" d="M 176.527832 117.253506 
L 276.134539 117.253506 
" style="fill:none;stroke:#ffffff;stroke-linecap:round;stroke-width:0.8;"/>
     </g>
     <g id="line2d_32"/>
     <g id="text_16">
      <!-- $\mathdefault{10^{-9}}$ -->
      <defs>
       <path d="M 10.59375 35.296875 
L 73.1875 35.296875 
L 73.1875 27.390625 
L 10.59375 27.390625 
z
" id="DejaVuSerif-2212"/>
       <path d="M 46.78125 32.671875 
Q 43.5 29 39.25 27.1875 
Q 35.015625 25.390625 29.6875 25.390625 
Q 18.84375 25.390625 12.5625 31.9375 
Q 6.296875 38.484375 6.296875 49.8125 
Q 6.296875 60.890625 13.109375 67.546875 
Q 19.921875 74.21875 31.296875 74.21875 
Q 43.65625 74.21875 50.265625 65.015625 
Q 56.890625 55.8125 56.890625 38.71875 
Q 56.890625 19.578125 49.015625 9.078125 
Q 41.15625 -1.421875 26.90625 -1.421875 
Q 23.046875 -1.421875 18.796875 -0.6875 
Q 14.546875 0.046875 10.109375 1.515625 
L 10.109375 13.625 
L 15.578125 13.625 
Q 16.21875 8.6875 19.390625 6.046875 
Q 22.5625 3.421875 27.875 3.421875 
Q 37.359375 3.421875 41.984375 10.5625 
Q 46.625 17.71875 46.78125 32.671875 
z
M 30.90625 69.390625 
Q 23.96875 69.390625 20.28125 64.328125 
Q 16.609375 59.28125 16.609375 49.8125 
Q 16.609375 40.328125 20.28125 35.25 
Q 23.96875 30.171875 30.90625 30.171875 
Q 37.84375 30.171875 41.53125 35.078125 
Q 45.21875 39.984375 45.21875 49.21875 
Q 45.21875 58.9375 41.5 64.15625 
Q 37.796875 69.390625 30.90625 69.390625 
z
" id="DejaVuSerif-39"/>
      </defs>
      <g style="fill:#262626;" transform="translate(152.207832 120.292881)scale(0.08 -0.08)">
       <use transform="translate(0 0.7125)" xlink:href="#DejaVuSerif-31"/>
       <use transform="translate(63.623047 0.7125)" xlink:href="#DejaVuSerif-30"/>
       <use transform="translate(128.154453 37.046875)scale(0.7)" xlink:href="#DejaVuSerif-2212"/>
       <use transform="translate(186.806797 37.046875)scale(0.7)" xlink:href="#DejaVuSerif-39"/>
      </g>
     </g>
    </g>
    <g id="ytick_6">
     <g id="line2d_33">
      <path clip-path="url(#p6c72e00fcd)" d="M 176.527832 94.781848 
L 276.134539 94.781848 
" style="fill:none;stroke:#ffffff;stroke-linecap:round;stroke-width:0.8;"/>
     </g>
     <g id="line2d_34"/>
     <g id="text_17">
      <!-- $\mathdefault{10^{-7}}$ -->
      <defs>
       <path d="M 56.390625 67.921875 
L 27.875 0 
L 20.609375 0 
L 47.796875 64.890625 
L 14.109375 64.890625 
L 14.109375 55.90625 
L 8.40625 55.90625 
L 8.40625 72.90625 
L 56.390625 72.90625 
z
" id="DejaVuSerif-37"/>
      </defs>
      <g style="fill:#262626;" transform="translate(152.207832 97.821223)scale(0.08 -0.08)">
       <use transform="translate(0 0.63125)" xlink:href="#DejaVuSerif-31"/>
       <use transform="translate(63.623047 0.63125)" xlink:href="#DejaVuSerif-30"/>
       <use transform="translate(128.154453 36.965625)scale(0.7)" xlink:href="#DejaVuSerif-2212"/>
       <use transform="translate(186.806797 36.965625)scale(0.7)" xlink:href="#DejaVuSerif-37"/>
      </g>
     </g>
    </g>
    <g id="ytick_7">
     <g id="line2d_35">
      <path clip-path="url(#p6c72e00fcd)" d="M 176.527832 72.310191 
L 276.134539 72.310191 
" style="fill:none;stroke:#ffffff;stroke-linecap:round;stroke-width:0.8;"/>
     </g>
     <g id="line2d_36"/>
     <g id="text_18">
      <!-- $\mathdefault{10^{-5}}$ -->
      <g style="fill:#262626;" transform="translate(152.207832 75.349566)scale(0.08 -0.08)">
       <use transform="translate(0 0.63125)" xlink:href="#DejaVuSerif-31"/>
       <use transform="translate(63.623047 0.63125)" xlink:href="#DejaVuSerif-30"/>
       <use transform="translate(128.154453 36.965625)scale(0.7)" xlink:href="#DejaVuSerif-2212"/>
       <use transform="translate(186.806797 36.965625)scale(0.7)" xlink:href="#DejaVuSerif-35"/>
      </g>
     </g>
    </g>
    <g id="ytick_8">
     <g id="line2d_37">
      <path clip-path="url(#p6c72e00fcd)" d="M 176.527832 49.838534 
L 276.134539 49.838534 
" style="fill:none;stroke:#ffffff;stroke-linecap:round;stroke-width:0.8;"/>
     </g>
     <g id="line2d_38"/>
     <g id="text_19">
      <!-- $\mathdefault{10^{-3}}$ -->
      <defs>
       <path d="M 9.71875 69.828125 
Q 15.4375 71.96875 20.671875 73.09375 
Q 25.921875 74.21875 30.515625 74.21875 
Q 41.21875 74.21875 47.21875 69.59375 
Q 53.21875 64.984375 53.21875 56.78125 
Q 53.21875 50.203125 49.0625 45.78125 
Q 44.921875 41.359375 37.3125 39.796875 
Q 46.296875 38.53125 51.25 33.28125 
Q 56.203125 28.03125 56.203125 19.671875 
Q 56.203125 9.46875 49.34375 4.015625 
Q 42.484375 -1.421875 29.59375 -1.421875 
Q 23.875 -1.421875 18.421875 -0.1875 
Q 12.984375 1.03125 7.625 3.515625 
L 7.625 17.671875 
L 13.09375 17.671875 
Q 13.578125 10.640625 17.828125 7.03125 
Q 22.078125 3.421875 29.78125 3.421875 
Q 37.25 3.421875 41.578125 7.734375 
Q 45.90625 12.0625 45.90625 19.578125 
Q 45.90625 28.171875 41.453125 32.59375 
Q 37.015625 37.015625 28.421875 37.015625 
L 23.78125 37.015625 
L 23.78125 42 
L 26.21875 42 
Q 34.765625 42 39.03125 45.53125 
Q 43.3125 49.078125 43.3125 56.203125 
Q 43.3125 62.59375 39.796875 65.984375 
Q 36.28125 69.390625 29.6875 69.390625 
Q 23.09375 69.390625 19.453125 66.265625 
Q 15.828125 63.140625 15.1875 56.984375 
L 9.71875 56.984375 
z
" id="DejaVuSerif-33"/>
      </defs>
      <g style="fill:#262626;" transform="translate(152.207832 52.877909)scale(0.08 -0.08)">
       <use transform="translate(0 0.7125)" xlink:href="#DejaVuSerif-31"/>
       <use transform="translate(63.623047 0.7125)" xlink:href="#DejaVuSerif-30"/>
       <use transform="translate(128.154453 37.046875)scale(0.7)" xlink:href="#DejaVuSerif-2212"/>
       <use transform="translate(186.806797 37.046875)scale(0.7)" xlink:href="#DejaVuSerif-33"/>
      </g>
     </g>
    </g>
   </g>
   <g id="line2d_39">
    <path clip-path="url(#p6c72e00fcd)" d="M 181.05541 64.926311 
L 181.060479 87.852019 
L 181.166939 72.58239 
L 181.506596 64.916957 
L 181.947643 59.684316 
L 182.449524 56.215558 
L 182.981823 53.988606 
L 183.51919 52.629701 
L 184.04135 51.865634 
L 184.548301 51.490411 
L 185.060321 51.38018 
L 185.623036 51.492554 
L 186.297281 51.867376 
L 187.154028 52.615808 
L 188.294667 53.929884 
L 189.927049 56.181304 
L 192.933267 60.779672 
L 197.465407 67.6263 
L 200.507112 71.806416 
L 203.391662 75.396449 
L 206.281281 78.639772 
L 209.257083 81.646427 
L 212.384969 84.489977 
L 215.710566 87.211573 
L 219.289639 89.851221 
L 223.162743 92.429266 
L 227.385643 94.970309 
L 231.998895 97.484013 
L 237.058264 99.984602 
L 242.609376 102.47722 
L 248.707994 104.968895 
L 255.409883 107.463675 
L 262.770809 109.963388 
L 270.856674 112.471254 
L 271.606961 112.692924 
L 271.606961 112.692924 
" style="fill:none;stroke:#4c72b0;stroke-linecap:round;stroke-width:1.4;"/>
   </g>
   <g id="line2d_40">
    <path clip-path="url(#p6c72e00fcd)" d="M 181.05541 67.451431 
L 181.131452 37.961818 
L 181.172008 38.313907 
L 182.201118 50.986609 
L 182.920989 56.043313 
L 183.787874 60.578829 
L 184.801776 64.712327 
L 185.962693 68.523013 
L 187.280765 72.0919 
L 188.755992 75.44887 
L 190.403582 78.646578 
L 192.228605 81.70339 
L 194.246269 84.648345 
L 196.466714 87.495362 
L 198.915286 90.271525 
L 201.607195 92.985025 
L 204.562718 95.646276 
L 207.807203 98.266372 
L 211.371067 100.856165 
L 215.284728 103.422574 
L 219.578601 105.969775 
L 224.293243 108.505246 
L 229.469211 111.033282 
L 235.14706 113.555936 
L 241.377485 116.077628 
L 248.211182 118.60037 
L 255.703915 121.126115 
L 263.916518 123.6566 
L 271.606961 125.838182 
L 271.606961 125.838182 
" style="fill:none;stroke:#55a868;stroke-linecap:round;stroke-width:1.4;"/>
   </g>
   <g id="patch_8">
    <path d="M 176.527832 130.232 
L 176.527832 33.568 
" style="fill:none;"/>
   </g>
   <g id="patch_9">
    <path d="M 276.134539 130.232 
L 276.134539 33.568 
" style="fill:none;"/>
   </g>
   <g id="patch_10">
    <path d="M 176.527832 130.232 
L 276.134539 130.232 
" style="fill:none;"/>
   </g>
   <g id="patch_11">
    <path d="M 176.527832 33.568 
L 276.134539 33.568 
" style="fill:none;"/>
   </g>
   <g id="text_20">
    <!-- Log Density -->
    <defs>
     <path d="M 5.515625 0 
L 5.515625 5.171875 
L 14.796875 5.171875 
L 14.796875 67.671875 
L 5.515625 67.671875 
L 5.515625 72.90625 
L 33.984375 72.90625 
L 33.984375 67.671875 
L 24.703125 67.671875 
L 24.703125 6 
L 58.015625 6 
L 58.015625 18.21875 
L 64.015625 18.21875 
L 64.015625 0 
z
" id="DejaVuSerif-4c"/>
     <path d="M 30.078125 3.421875 
Q 37.3125 3.421875 40.984375 9.125 
Q 44.671875 14.84375 44.671875 25.984375 
Q 44.671875 37.109375 40.984375 42.796875 
Q 37.3125 48.484375 30.078125 48.484375 
Q 22.859375 48.484375 19.171875 42.796875 
Q 15.484375 37.109375 15.484375 25.984375 
Q 15.484375 14.84375 19.1875 9.125 
Q 22.90625 3.421875 30.078125 3.421875 
z
M 30.078125 -1.421875 
Q 18.75 -1.421875 11.859375 6.078125 
Q 4.984375 13.578125 4.984375 25.984375 
Q 4.984375 38.375 11.84375 45.84375 
Q 18.703125 53.328125 30.078125 53.328125 
Q 41.453125 53.328125 48.3125 45.84375 
Q 55.171875 38.375 55.171875 25.984375 
Q 55.171875 13.578125 48.3125 6.078125 
Q 41.453125 -1.421875 30.078125 -1.421875 
z
" id="DejaVuSerif-6f"/>
     <path id="DejaVuSerif-20"/>
    </defs>
    <g style="fill:#262626;" transform="translate(197.235685 27.568)scale(0.096 -0.096)">
     <use xlink:href="#DejaVuSerif-4c"/>
     <use x="66.40625" xlink:href="#DejaVuSerif-6f"/>
     <use x="126.611328" xlink:href="#DejaVuSerif-67"/>
     <use x="190.625" xlink:href="#DejaVuSerif-20"/>
     <use x="222.412109" xlink:href="#DejaVuSerif-44"/>
     <use x="302.587891" xlink:href="#DejaVuSerif-65"/>
     <use x="361.767578" xlink:href="#DejaVuSerif-6e"/>
     <use x="426.171875" xlink:href="#DejaVuSerif-73"/>
     <use x="477.490234" xlink:href="#DejaVuSerif-69"/>
     <use x="509.472656" xlink:href="#DejaVuSerif-74"/>
     <use x="549.658203" xlink:href="#DejaVuSerif-79"/>
    </g>
   </g>
   <g id="legend_2">
    <g id="line2d_41">
     <path d="M 231.522039 44.04675 
L 247.522039 44.04675 
" style="fill:none;stroke:#4c72b0;stroke-linecap:round;stroke-width:1.4;"/>
    </g>
    <g id="line2d_42"/>
    <g id="text_21">
     <!-- agg -->
     <g style="fill:#262626;" transform="translate(253.922039 46.84675)scale(0.08 -0.08)">
      <use xlink:href="#DejaVuSerif-61"/>
      <use x="59.619141" xlink:href="#DejaVuSerif-67"/>
      <use x="123.632812" xlink:href="#DejaVuSerif-67"/>
     </g>
    </g>
    <g id="line2d_43">
     <path d="M 231.522039 55.903 
L 247.522039 55.903 
" style="fill:none;stroke:#55a868;stroke-linecap:round;stroke-width:1.4;"/>
    </g>
    <g id="line2d_44"/>
    <g id="text_22">
     <!-- sev -->
     <g style="fill:#262626;" transform="translate(253.922039 58.703)scale(0.08 -0.08)">
      <use xlink:href="#DejaVuSerif-73"/>
      <use x="51.318359" xlink:href="#DejaVuSerif-65"/>
      <use x="110.498047" xlink:href="#DejaVuSerif-76"/>
     </g>
    </g>
   </g>
  </g>
  <g id="axes_3">
   <g id="patch_12">
    <path d="M 312.263164 130.232 
L 411.869871 130.232 
L 411.869871 33.568 
L 312.263164 33.568 
z
" style="fill:#eaeaf2;"/>
   </g>
   <g id="matplotlib.axis_5">
    <g id="xtick_9">
     <g id="line2d_45">
      <path clip-path="url(#pe420f3b06e)" d="M 316.788291 130.232 
L 316.788291 33.568 
" style="fill:none;stroke:#ffffff;stroke-linecap:round;stroke-width:0.8;"/>
     </g>
     <g id="line2d_46"/>
     <g id="text_23">
      <!-- 0.0 -->
      <g style="fill:#262626;" transform="translate(310.427041 141.91075)scale(0.08 -0.08)">
       <use xlink:href="#DejaVuSerif-30"/>
       <use x="63.623047" xlink:href="#DejaVuSerif-2e"/>
       <use x="95.410156" xlink:href="#DejaVuSerif-30"/>
      </g>
     </g>
    </g>
    <g id="xtick_10">
     <g id="line2d_47">
      <path clip-path="url(#pe420f3b06e)" d="M 362.065325 130.232 
L 362.065325 33.568 
" style="fill:none;stroke:#ffffff;stroke-linecap:round;stroke-width:0.8;"/>
     </g>
     <g id="line2d_48"/>
     <g id="text_24">
      <!-- 0.5 -->
      <g style="fill:#262626;" transform="translate(355.704075 141.91075)scale(0.08 -0.08)">
       <use xlink:href="#DejaVuSerif-30"/>
       <use x="63.623047" xlink:href="#DejaVuSerif-2e"/>
       <use x="95.410156" xlink:href="#DejaVuSerif-35"/>
      </g>
     </g>
    </g>
    <g id="xtick_11">
     <g id="line2d_49">
      <path clip-path="url(#pe420f3b06e)" d="M 407.342359 130.232 
L 407.342359 33.568 
" style="fill:none;stroke:#ffffff;stroke-linecap:round;stroke-width:0.8;"/>
     </g>
     <g id="line2d_50"/>
     <g id="text_25">
      <!-- 1.0 -->
      <g style="fill:#262626;" transform="translate(400.981109 141.91075)scale(0.08 -0.08)">
       <use xlink:href="#DejaVuSerif-31"/>
       <use x="63.623047" xlink:href="#DejaVuSerif-2e"/>
       <use x="95.410156" xlink:href="#DejaVuSerif-30"/>
      </g>
     </g>
    </g>
   </g>
   <g id="matplotlib.axis_6">
    <g id="ytick_9">
     <g id="line2d_51">
      <path clip-path="url(#pe420f3b06e)" d="M 312.263164 125.838182 
L 411.869871 125.838182 
" style="fill:none;stroke:#ffffff;stroke-linecap:round;stroke-width:0.8;"/>
     </g>
     <g id="line2d_52"/>
     <g id="text_26">
      <!-- 0 -->
      <g style="fill:#262626;" transform="translate(301.573164 128.877557)scale(0.08 -0.08)">
       <use xlink:href="#DejaVuSerif-30"/>
      </g>
     </g>
    </g>
    <g id="ytick_10">
     <g id="line2d_53">
      <path clip-path="url(#pe420f3b06e)" d="M 312.263164 101.239491 
L 411.869871 101.239491 
" style="fill:none;stroke:#ffffff;stroke-linecap:round;stroke-width:0.8;"/>
     </g>
     <g id="line2d_54"/>
     <g id="text_27">
      <!-- 500 -->
      <g style="fill:#262626;" transform="translate(291.393164 104.278866)scale(0.08 -0.08)">
       <use xlink:href="#DejaVuSerif-35"/>
       <use x="63.623047" xlink:href="#DejaVuSerif-30"/>
       <use x="127.246094" xlink:href="#DejaVuSerif-30"/>
      </g>
     </g>
    </g>
    <g id="ytick_11">
     <g id="line2d_55">
      <path clip-path="url(#pe420f3b06e)" d="M 312.263164 76.6408 
L 411.869871 76.6408 
" style="fill:none;stroke:#ffffff;stroke-linecap:round;stroke-width:0.8;"/>
     </g>
     <g id="line2d_56"/>
     <g id="text_28">
      <!-- 1000 -->
      <g style="fill:#262626;" transform="translate(286.303164 79.680175)scale(0.08 -0.08)">
       <use xlink:href="#DejaVuSerif-31"/>
       <use x="63.623047" xlink:href="#DejaVuSerif-30"/>
       <use x="127.246094" xlink:href="#DejaVuSerif-30"/>
       <use x="190.869141" xlink:href="#DejaVuSerif-30"/>
      </g>
     </g>
    </g>
    <g id="ytick_12">
     <g id="line2d_57">
      <path clip-path="url(#pe420f3b06e)" d="M 312.263164 52.042109 
L 411.869871 52.042109 
" style="fill:none;stroke:#ffffff;stroke-linecap:round;stroke-width:0.8;"/>
     </g>
     <g id="line2d_58"/>
     <g id="text_29">
      <!-- 1500 -->
      <g style="fill:#262626;" transform="translate(286.303164 55.081484)scale(0.08 -0.08)">
       <use xlink:href="#DejaVuSerif-31"/>
       <use x="63.623047" xlink:href="#DejaVuSerif-35"/>
       <use x="127.246094" xlink:href="#DejaVuSerif-30"/>
       <use x="190.869141" xlink:href="#DejaVuSerif-30"/>
      </g>
     </g>
    </g>
   </g>
   <g id="line2d_59">
    <path clip-path="url(#pe420f3b06e)" d="M 316.792403 125.838182 
L 316.906162 125.469201 
L 317.238271 125.169097 
L 317.960616 124.854234 
L 319.433112 124.485254 
L 322.233595 124.037558 
L 327.401886 123.461948 
L 336.994836 122.645272 
L 373.378677 119.698349 
L 382.130863 118.704561 
L 388.449556 117.774731 
L 393.110653 116.874419 
L 396.575122 115.988866 
L 399.177592 115.103313 
L 401.14348 114.207921 
L 402.643201 113.28793 
L 403.79971 112.323661 
L 404.706253 111.280676 
L 405.423055 110.114699 
L 405.992095 108.756851 
L 406.443458 107.08414 
L 406.791984 104.894856 
L 407.048217 101.765903 
L 407.219035 96.649375 
L 407.311903 85.914506 
L 407.341077 44.446033 
L 407.341454 37.961818 
L 407.341454 37.961818 
" style="fill:none;stroke:#4c72b0;stroke-linecap:round;stroke-width:1.4;"/>
   </g>
   <g id="line2d_60">
    <path clip-path="url(#pe420f3b06e)" d="M 316.790742 125.838182 
L 318.791708 125.813583 
L 378.606706 125.326529 
L 390.756388 124.987067 
L 397.217526 124.603328 
L 400.876003 124.18023 
L 403.070623 123.717775 
L 404.444248 123.215961 
L 405.357751 122.655111 
L 405.98822 122.010626 
L 406.445781 121.218548 
L 406.786572 120.160804 
L 407.036844 118.601247 
L 407.208133 115.964267 
L 407.30579 110.375445 
L 407.340092 90.199598 
L 407.342293 37.961818 
L 407.342293 37.961818 
" style="fill:none;stroke:#55a868;stroke-linecap:round;stroke-width:1.4;"/>
   </g>
   <g id="patch_13">
    <path d="M 312.263164 130.232 
L 312.263164 33.568 
" style="fill:none;"/>
   </g>
   <g id="patch_14">
    <path d="M 411.869871 130.232 
L 411.869871 33.568 
" style="fill:none;"/>
   </g>
   <g id="patch_15">
    <path d="M 312.263164 130.232 
L 411.869871 130.232 
" style="fill:none;"/>
   </g>
   <g id="patch_16">
    <path d="M 312.263164 33.568 
L 411.869871 33.568 
" style="fill:none;"/>
   </g>
   <g id="text_30">
    <!-- Lee Diagram -->
    <defs>
     <path d="M 47.796875 52 
L 47.796875 39.015625 
L 42.625 39.015625 
Q 42.390625 42.875 40.484375 44.78125 
Q 38.578125 46.6875 34.90625 46.6875 
Q 28.265625 46.6875 24.71875 42.09375 
Q 21.1875 37.5 21.1875 28.90625 
L 21.1875 5.171875 
L 31.59375 5.171875 
L 31.59375 0 
L 4.109375 0 
L 4.109375 5.171875 
L 12.203125 5.171875 
L 12.203125 46.78125 
L 3.609375 46.78125 
L 3.609375 51.90625 
L 21.1875 51.90625 
L 21.1875 42.671875 
Q 23.828125 48.09375 27.96875 50.703125 
Q 32.125 53.328125 38.09375 53.328125 
Q 40.28125 53.328125 42.703125 52.984375 
Q 45.125 52.640625 47.796875 52 
z
" id="DejaVuSerif-72"/>
     <path d="M 51.8125 41.796875 
Q 54.390625 47.515625 58.421875 50.421875 
Q 62.453125 53.328125 67.828125 53.328125 
Q 75.984375 53.328125 79.984375 48.265625 
Q 83.984375 43.21875 83.984375 33.015625 
L 83.984375 5.171875 
L 92.09375 5.171875 
L 92.09375 0 
L 67.1875 0 
L 67.1875 5.171875 
L 75 5.171875 
L 75 31.984375 
Q 75 39.9375 72.65625 43.3125 
Q 70.3125 46.6875 64.890625 46.6875 
Q 58.890625 46.6875 55.734375 42.140625 
Q 52.59375 37.59375 52.59375 28.90625 
L 52.59375 5.171875 
L 60.40625 5.171875 
L 60.40625 0 
L 35.796875 0 
L 35.796875 5.171875 
L 43.609375 5.171875 
L 43.609375 32.328125 
Q 43.609375 40.09375 41.265625 43.390625 
Q 38.921875 46.6875 33.5 46.6875 
Q 27.484375 46.6875 24.328125 42.140625 
Q 21.1875 37.59375 21.1875 28.90625 
L 21.1875 5.171875 
L 29 5.171875 
L 29 0 
L 4.109375 0 
L 4.109375 5.171875 
L 12.203125 5.171875 
L 12.203125 46.78125 
L 3.609375 46.78125 
L 3.609375 51.90625 
L 21.1875 51.90625 
L 21.1875 42.671875 
Q 23.6875 47.859375 27.53125 50.59375 
Q 31.390625 53.328125 36.28125 53.328125 
Q 42.328125 53.328125 46.375 50.3125 
Q 50.4375 47.3125 51.8125 41.796875 
z
" id="DejaVuSerif-6d"/>
    </defs>
    <g style="fill:#262626;" transform="translate(330.645267 27.568)scale(0.096 -0.096)">
     <use xlink:href="#DejaVuSerif-4c"/>
     <use x="66.40625" xlink:href="#DejaVuSerif-65"/>
     <use x="125.585938" xlink:href="#DejaVuSerif-65"/>
     <use x="184.765625" xlink:href="#DejaVuSerif-20"/>
     <use x="216.552734" xlink:href="#DejaVuSerif-44"/>
     <use x="296.728516" xlink:href="#DejaVuSerif-69"/>
     <use x="328.710938" xlink:href="#DejaVuSerif-61"/>
     <use x="388.330078" xlink:href="#DejaVuSerif-67"/>
     <use x="452.34375" xlink:href="#DejaVuSerif-72"/>
     <use x="500.146484" xlink:href="#DejaVuSerif-61"/>
     <use x="559.765625" xlink:href="#DejaVuSerif-6d"/>
    </g>
   </g>
   <g id="legend_3">
    <g id="line2d_61">
     <path d="M 319.463164 44.04675 
L 335.463164 44.04675 
" style="fill:none;stroke:#4c72b0;stroke-linecap:round;stroke-width:1.4;"/>
    </g>
    <g id="line2d_62"/>
    <g id="text_31">
     <!-- Agg -->
     <defs>
      <path d="M 20.015625 26.421875 
L 46.78125 26.421875 
L 33.40625 61.078125 
z
M -0.59375 0 
L -0.59375 5.171875 
L 5.8125 5.171875 
L 31.78125 72.90625 
L 39.984375 72.90625 
L 66.015625 5.171875 
L 73.1875 5.171875 
L 73.1875 0 
L 46.6875 0 
L 46.6875 5.171875 
L 54.78125 5.171875 
L 48.6875 21.1875 
L 18.015625 21.1875 
L 11.921875 5.171875 
L 19.921875 5.171875 
L 19.921875 0 
z
" id="DejaVuSerif-41"/>
     </defs>
     <g style="fill:#262626;" transform="translate(341.863164 46.84675)scale(0.08 -0.08)">
      <use xlink:href="#DejaVuSerif-41"/>
      <use x="72.216797" xlink:href="#DejaVuSerif-67"/>
      <use x="136.230469" xlink:href="#DejaVuSerif-67"/>
     </g>
    </g>
    <g id="line2d_63">
     <path d="M 319.463164 55.903 
L 335.463164 55.903 
" style="fill:none;stroke:#55a868;stroke-linecap:round;stroke-width:1.4;"/>
    </g>
    <g id="line2d_64"/>
    <g id="text_32">
     <!-- Sev -->
     <defs>
      <path d="M 9.28125 3.515625 
L 9.28125 20.125 
L 14.890625 20.0625 
Q 15.140625 11.765625 19.703125 7.78125 
Q 24.265625 3.8125 33.59375 3.8125 
Q 42.28125 3.8125 46.84375 7.25 
Q 51.421875 10.6875 51.421875 17.28125 
Q 51.421875 22.5625 48.65625 25.390625 
Q 45.90625 28.21875 37.015625 30.90625 
L 27.390625 33.796875 
Q 16.9375 36.96875 12.671875 41.703125 
Q 8.40625 46.4375 8.40625 54.6875 
Q 8.40625 63.96875 14.984375 69.09375 
Q 21.578125 74.21875 33.5 74.21875 
Q 38.578125 74.21875 44.625 73.109375 
Q 50.6875 72.015625 57.515625 69.921875 
L 57.515625 54.390625 
L 52 54.390625 
Q 51.171875 62.109375 46.84375 65.546875 
Q 42.53125 69 33.6875 69 
Q 25.984375 69 21.953125 65.84375 
Q 17.921875 62.703125 17.921875 56.6875 
Q 17.921875 51.46875 20.9375 48.484375 
Q 23.96875 45.515625 33.796875 42.578125 
L 42.828125 39.890625 
Q 52.734375 36.921875 56.953125 32.296875 
Q 61.1875 27.6875 61.1875 19.921875 
Q 61.1875 9.328125 54.390625 3.953125 
Q 47.609375 -1.421875 34.1875 -1.421875 
Q 28.171875 -1.421875 21.9375 -0.1875 
Q 15.71875 1.03125 9.28125 3.515625 
z
" id="DejaVuSerif-53"/>
     </defs>
     <g style="fill:#262626;" transform="translate(341.863164 58.703)scale(0.08 -0.08)">
      <use xlink:href="#DejaVuSerif-53"/>
      <use x="68.505859" xlink:href="#DejaVuSerif-65"/>
      <use x="127.685547" xlink:href="#DejaVuSerif-76"/>
     </g>
    </g>
   </g>
  </g>
  <g id="text_33">
   <!-- Aggregate newAgg -->
   <defs>
    <path d="M 48 51.90625 
L 61.28125 11.375 
L 73 46.6875 
L 65.484375 46.6875 
L 65.484375 51.90625 
L 84.28125 51.90625 
L 84.28125 46.6875 
L 78.515625 46.6875 
L 63.09375 0 
L 55.609375 0 
L 42.828125 38.8125 
L 29.984375 0 
L 22.796875 0 
L 7.421875 46.6875 
L 1.609375 46.6875 
L 1.609375 51.90625 
L 25.09375 51.90625 
L 25.09375 46.6875 
L 16.703125 46.6875 
L 28.328125 11.375 
L 41.703125 51.90625 
z
" id="DejaVuSerif-77"/>
   </defs>
   <g style="fill:#262626;" transform="translate(152.1179 15.7896)scale(0.1152 -0.1152)">
    <use xlink:href="#DejaVuSerif-41"/>
    <use x="72.216797" xlink:href="#DejaVuSerif-67"/>
    <use x="136.230469" xlink:href="#DejaVuSerif-67"/>
    <use x="200.244141" xlink:href="#DejaVuSerif-72"/>
    <use x="248.046875" xlink:href="#DejaVuSerif-65"/>
    <use x="307.226562" xlink:href="#DejaVuSerif-67"/>
    <use x="371.240234" xlink:href="#DejaVuSerif-61"/>
    <use x="430.859375" xlink:href="#DejaVuSerif-74"/>
    <use x="471.044922" xlink:href="#DejaVuSerif-65"/>
    <use x="530.224609" xlink:href="#DejaVuSerif-20"/>
    <use x="562.011719" xlink:href="#DejaVuSerif-6e"/>
    <use x="626.416016" xlink:href="#DejaVuSerif-65"/>
    <use x="685.595703" xlink:href="#DejaVuSerif-77"/>
    <use x="771.191406" xlink:href="#DejaVuSerif-41"/>
    <use x="843.408203" xlink:href="#DejaVuSerif-67"/>
    <use x="907.421875" xlink:href="#DejaVuSerif-67"/>
   </g>
  </g>
 </g>
 <defs>
  <clipPath id="pf1e7be3270">
   <rect height="96.664" width="99.606707" x="40.7925" y="33.568"/>
  </clipPath>
  <clipPath id="p6c72e00fcd">
   <rect height="96.664" width="99.606707" x="176.527832" y="33.568"/>
  </clipPath>
  <clipPath id="pe420f3b06e">
   <rect height="96.664" width="99.606707" x="312.263164" y="33.568"/>
  </clipPath>
 </defs>
</svg>
