<?xml version="1.0" encoding="utf-8" standalone="no"?>
<!DOCTYPE svg PUBLIC "-//W3C//DTD SVG 1.1//EN"
  "http://www.w3.org/Graphics/SVG/1.1/DTD/svg11.dtd">
<!-- Created with matplotlib (http://matplotlib.org/) -->
<svg height="150.7745pt" version="1.1" viewBox="0 0 564.91025 150.7745" width="564.91025pt" xmlns="http://www.w3.org/2000/svg" xmlns:xlink="http://www.w3.org/1999/xlink">
 <defs>
  <style type="text/css">
*{stroke-linecap:butt;stroke-linejoin:round;}
  </style>
 </defs>
 <g id="figure_1">
  <g id="patch_1">
   <path d="M 0 150.7745 
L 564.91025 150.7745 
L 564.91025 -0 
L 0 -0 
z
" style="fill:#ffffff;"/>
  </g>
  <g id="axes_1">
   <g id="patch_2">
    <path d="M 35.7025 130.232 
L 134.04875 130.232 
L 134.04875 33.568 
L 35.7025 33.568 
z
" style="fill:#eaeaf2;"/>
   </g>
   <g id="matplotlib.axis_1">
    <g id="xtick_1">
     <g id="line2d_1">
      <path clip-path="url(#p0a26dc2e67)" d="M 40.172784 130.232 
L 40.172784 33.568 
" style="fill:none;opacity:0.5;stroke:#0000ff;stroke-linecap:round;stroke-width:0.1;"/>
     </g>
     <g id="line2d_2"/>
     <g id="text_1">
      <!-- 0 -->
      <defs>
       <path d="M 31.78125 3.421875 
Q 39.265625 3.421875 42.96875 11.625 
Q 46.6875 19.828125 46.6875 36.375 
Q 46.6875 52.984375 42.96875 61.1875 
Q 39.265625 69.390625 31.78125 69.390625 
Q 24.3125 69.390625 20.59375 61.1875 
Q 16.890625 52.984375 16.890625 36.375 
Q 16.890625 19.828125 20.59375 11.625 
Q 24.3125 3.421875 31.78125 3.421875 
z
M 31.78125 -1.421875 
Q 19.921875 -1.421875 13.25 8.53125 
Q 6.59375 18.5 6.59375 36.375 
Q 6.59375 54.296875 13.25 64.25 
Q 19.921875 74.21875 31.78125 74.21875 
Q 43.703125 74.21875 50.34375 64.25 
Q 56.984375 54.296875 56.984375 36.375 
Q 56.984375 18.5 50.34375 8.53125 
Q 43.703125 -1.421875 31.78125 -1.421875 
z
" id="DejaVuSerif-30"/>
      </defs>
      <g style="fill:#262626;" transform="translate(37.627784 141.91075)scale(0.08 -0.08)">
       <use xlink:href="#DejaVuSerif-30"/>
      </g>
     </g>
    </g>
    <g id="xtick_2">
     <g id="line2d_3">
      <path clip-path="url(#p0a26dc2e67)" d="M 70.594703 130.232 
L 70.594703 33.568 
" style="fill:none;opacity:0.5;stroke:#0000ff;stroke-linecap:round;stroke-width:0.1;"/>
     </g>
     <g id="line2d_4"/>
     <g id="text_2">
      <!-- 200 -->
      <defs>
       <path d="M 12.796875 55.515625 
L 7.328125 55.515625 
L 7.328125 68.5 
Q 12.546875 71.296875 17.84375 72.75 
Q 23.140625 74.21875 28.21875 74.21875 
Q 39.59375 74.21875 46.1875 68.703125 
Q 52.78125 63.1875 52.78125 53.71875 
Q 52.78125 43.015625 37.84375 28.125 
Q 36.671875 27 36.078125 26.421875 
L 17.671875 8.015625 
L 48.09375 8.015625 
L 48.09375 17 
L 53.8125 17 
L 53.8125 0 
L 6.78125 0 
L 6.78125 5.328125 
L 28.90625 27.390625 
Q 36.234375 34.71875 39.359375 40.84375 
Q 42.484375 46.96875 42.484375 53.71875 
Q 42.484375 61.078125 38.640625 65.234375 
Q 34.8125 69.390625 28.078125 69.390625 
Q 21.09375 69.390625 17.28125 65.921875 
Q 13.484375 62.453125 12.796875 55.515625 
z
" id="DejaVuSerif-32"/>
      </defs>
      <g style="fill:#262626;" transform="translate(62.959703 141.91075)scale(0.08 -0.08)">
       <use xlink:href="#DejaVuSerif-32"/>
       <use x="63.623047" xlink:href="#DejaVuSerif-30"/>
       <use x="127.246094" xlink:href="#DejaVuSerif-30"/>
      </g>
     </g>
    </g>
    <g id="xtick_3">
     <g id="line2d_5">
      <path clip-path="url(#p0a26dc2e67)" d="M 101.016621 130.232 
L 101.016621 33.568 
" style="fill:none;opacity:0.5;stroke:#0000ff;stroke-linecap:round;stroke-width:0.1;"/>
     </g>
     <g id="line2d_6"/>
     <g id="text_3">
      <!-- 400 -->
      <defs>
       <path d="M 34.90625 24.703125 
L 34.90625 63.484375 
L 10.015625 24.703125 
z
M 56.390625 0 
L 23.1875 0 
L 23.1875 5.171875 
L 34.90625 5.171875 
L 34.90625 19.484375 
L 3.078125 19.484375 
L 3.078125 24.8125 
L 35.015625 74.21875 
L 44.671875 74.21875 
L 44.671875 24.703125 
L 58.59375 24.703125 
L 58.59375 19.484375 
L 44.671875 19.484375 
L 44.671875 5.171875 
L 56.390625 5.171875 
z
" id="DejaVuSerif-34"/>
      </defs>
      <g style="fill:#262626;" transform="translate(93.381621 141.91075)scale(0.08 -0.08)">
       <use xlink:href="#DejaVuSerif-34"/>
       <use x="63.623047" xlink:href="#DejaVuSerif-30"/>
       <use x="127.246094" xlink:href="#DejaVuSerif-30"/>
      </g>
     </g>
    </g>
    <g id="xtick_4">
     <g id="line2d_7">
      <path clip-path="url(#p0a26dc2e67)" d="M 131.43854 130.232 
L 131.43854 33.568 
" style="fill:none;opacity:0.5;stroke:#0000ff;stroke-linecap:round;stroke-width:0.1;"/>
     </g>
     <g id="line2d_8"/>
     <g id="text_4">
      <!-- 600 -->
      <defs>
       <path d="M 32.71875 3.421875 
Q 39.59375 3.421875 43.296875 8.46875 
Q 47.015625 13.53125 47.015625 23 
Q 47.015625 32.46875 43.296875 37.515625 
Q 39.59375 42.578125 32.71875 42.578125 
Q 25.734375 42.578125 22.0625 37.6875 
Q 18.40625 32.8125 18.40625 23.578125 
Q 18.40625 13.875 22.109375 8.640625 
Q 25.828125 3.421875 32.71875 3.421875 
z
M 16.796875 40.140625 
Q 20.125 43.796875 24.3125 45.59375 
Q 28.515625 47.40625 33.796875 47.40625 
Q 44.671875 47.40625 51 40.859375 
Q 57.328125 34.328125 57.328125 23 
Q 57.328125 11.921875 50.515625 5.25 
Q 43.703125 -1.421875 32.328125 -1.421875 
Q 19.96875 -1.421875 13.328125 7.78125 
Q 6.6875 17 6.6875 34.078125 
Q 6.6875 53.21875 14.546875 63.71875 
Q 22.40625 74.21875 36.71875 74.21875 
Q 40.578125 74.21875 44.828125 73.484375 
Q 49.078125 72.75 53.515625 71.296875 
L 53.515625 59.28125 
L 48 59.28125 
Q 47.40625 64.203125 44.234375 66.796875 
Q 41.0625 69.390625 35.6875 69.390625 
Q 26.21875 69.390625 21.578125 62.203125 
Q 16.9375 55.03125 16.796875 40.140625 
z
" id="DejaVuSerif-36"/>
      </defs>
      <g style="fill:#262626;" transform="translate(123.80354 141.91075)scale(0.08 -0.08)">
       <use xlink:href="#DejaVuSerif-36"/>
       <use x="63.623047" xlink:href="#DejaVuSerif-30"/>
       <use x="127.246094" xlink:href="#DejaVuSerif-30"/>
      </g>
     </g>
    </g>
   </g>
   <g id="matplotlib.axis_2">
    <g id="ytick_1">
     <g id="line2d_9">
      <path clip-path="url(#p0a26dc2e67)" d="M 35.7025 125.838182 
L 134.04875 125.838182 
" style="fill:none;opacity:0.5;stroke:#0000ff;stroke-linecap:round;stroke-width:0.1;"/>
     </g>
     <g id="line2d_10"/>
     <g id="text_5">
      <!-- 0.000 -->
      <defs>
       <path d="M 9.421875 5.078125 
Q 9.421875 7.8125 11.28125 9.71875 
Q 13.140625 11.625 15.921875 11.625 
Q 18.609375 11.625 20.5 9.71875 
Q 22.40625 7.8125 22.40625 5.078125 
Q 22.40625 2.390625 20.5 0.484375 
Q 18.609375 -1.421875 15.921875 -1.421875 
Q 13.140625 -1.421875 11.28125 0.453125 
Q 9.421875 2.34375 9.421875 5.078125 
z
" id="DejaVuSerif-2e"/>
      </defs>
      <g style="fill:#262626;" transform="translate(7.2 128.877557)scale(0.08 -0.08)">
       <use xlink:href="#DejaVuSerif-30"/>
       <use x="63.623047" xlink:href="#DejaVuSerif-2e"/>
       <use x="95.410156" xlink:href="#DejaVuSerif-30"/>
       <use x="159.033203" xlink:href="#DejaVuSerif-30"/>
       <use x="222.65625" xlink:href="#DejaVuSerif-30"/>
      </g>
     </g>
    </g>
    <g id="ytick_2">
     <g id="line2d_11">
      <path clip-path="url(#p0a26dc2e67)" d="M 35.7025 95.898471 
L 134.04875 95.898471 
" style="fill:none;opacity:0.5;stroke:#0000ff;stroke-linecap:round;stroke-width:0.1;"/>
     </g>
     <g id="line2d_12"/>
     <g id="text_6">
      <!-- 0.005 -->
      <defs>
       <path d="M 50.296875 72.90625 
L 50.296875 64.890625 
L 16.890625 64.890625 
L 16.890625 44 
Q 19.4375 45.75 22.828125 46.625 
Q 26.21875 47.515625 30.421875 47.515625 
Q 42.234375 47.515625 49.0625 40.96875 
Q 55.90625 34.421875 55.90625 23.09375 
Q 55.90625 11.53125 49 5.046875 
Q 42.09375 -1.421875 29.59375 -1.421875 
Q 24.5625 -1.421875 19.28125 -0.1875 
Q 14.015625 1.03125 8.5 3.515625 
L 8.5 17.671875 
L 14.015625 17.671875 
Q 14.453125 10.75 18.421875 7.078125 
Q 22.40625 3.421875 29.59375 3.421875 
Q 37.3125 3.421875 41.453125 8.5 
Q 45.609375 13.578125 45.609375 23.09375 
Q 45.609375 32.5625 41.484375 37.609375 
Q 37.359375 42.671875 29.59375 42.671875 
Q 25.203125 42.671875 21.84375 41.109375 
Q 18.5 39.546875 15.921875 36.28125 
L 11.71875 36.28125 
L 11.71875 72.90625 
z
" id="DejaVuSerif-35"/>
      </defs>
      <g style="fill:#262626;" transform="translate(7.2 98.937846)scale(0.08 -0.08)">
       <use xlink:href="#DejaVuSerif-30"/>
       <use x="63.623047" xlink:href="#DejaVuSerif-2e"/>
       <use x="95.410156" xlink:href="#DejaVuSerif-30"/>
       <use x="159.033203" xlink:href="#DejaVuSerif-30"/>
       <use x="222.65625" xlink:href="#DejaVuSerif-35"/>
      </g>
     </g>
    </g>
    <g id="ytick_3">
     <g id="line2d_13">
      <path clip-path="url(#p0a26dc2e67)" d="M 35.7025 65.958761 
L 134.04875 65.958761 
" style="fill:none;opacity:0.5;stroke:#0000ff;stroke-linecap:round;stroke-width:0.1;"/>
     </g>
     <g id="line2d_14"/>
     <g id="text_7">
      <!-- 0.010 -->
      <defs>
       <path d="M 14.203125 0 
L 14.203125 5.171875 
L 26.90625 5.171875 
L 26.90625 65.828125 
L 12.203125 56.296875 
L 12.203125 62.703125 
L 29.984375 74.21875 
L 36.71875 74.21875 
L 36.71875 5.171875 
L 49.421875 5.171875 
L 49.421875 0 
z
" id="DejaVuSerif-31"/>
      </defs>
      <g style="fill:#262626;" transform="translate(7.2 68.998136)scale(0.08 -0.08)">
       <use xlink:href="#DejaVuSerif-30"/>
       <use x="63.623047" xlink:href="#DejaVuSerif-2e"/>
       <use x="95.410156" xlink:href="#DejaVuSerif-30"/>
       <use x="159.033203" xlink:href="#DejaVuSerif-31"/>
       <use x="222.65625" xlink:href="#DejaVuSerif-30"/>
      </g>
     </g>
    </g>
    <g id="ytick_4">
     <g id="line2d_15">
      <path clip-path="url(#p0a26dc2e67)" d="M 35.7025 36.019051 
L 134.04875 36.019051 
" style="fill:none;opacity:0.5;stroke:#0000ff;stroke-linecap:round;stroke-width:0.1;"/>
     </g>
     <g id="line2d_16"/>
     <g id="text_8">
      <!-- 0.015 -->
      <g style="fill:#262626;" transform="translate(7.2 39.058426)scale(0.08 -0.08)">
       <use xlink:href="#DejaVuSerif-30"/>
       <use x="63.623047" xlink:href="#DejaVuSerif-2e"/>
       <use x="95.410156" xlink:href="#DejaVuSerif-30"/>
       <use x="159.033203" xlink:href="#DejaVuSerif-31"/>
       <use x="222.65625" xlink:href="#DejaVuSerif-35"/>
      </g>
     </g>
    </g>
   </g>
   <g id="line2d_17">
    <path clip-path="url(#p0a26dc2e67)" d="M 40.172784 125.838182 
L 41.075872 39.46393 
L 41.978959 39.46393 
L 42.882047 37.961818 
L 43.785135 37.961818 
L 44.688223 48.599747 
L 45.59131 62.585908 
L 46.494398 62.585908 
L 47.397486 75.901165 
L 48.300573 75.901165 
L 49.203661 87.145907 
L 50.106749 96.114583 
L 51.009836 96.114583 
L 51.912924 103.060192 
L 52.816012 103.060192 
L 53.7191 108.358933 
L 54.622187 108.358933 
L 55.525275 112.374257 
L 56.428363 115.41199 
L 57.33145 115.41199 
L 58.234538 117.713675 
L 59.137626 117.713675 
L 60.040713 119.463927 
L 60.943801 120.801415 
L 61.846889 120.801415 
L 62.749976 121.829387 
L 63.653064 121.829387 
L 64.556152 122.624448 
L 65.45924 123.243426 
L 66.362327 123.243426 
L 67.265415 123.728565 
L 68.168503 123.728565 
L 69.07159 124.111375 
L 69.974678 124.415466 
L 70.877766 124.415466 
L 71.780853 124.658621 
L 72.683941 124.658621 
L 73.587029 124.854302 
L 74.490117 125.012768 
L 75.393204 125.012768 
L 76.296292 125.141877 
L 77.19938 125.141877 
L 78.102467 125.247684 
L 79.005555 125.334887 
L 79.908643 125.334887 
L 80.81173 125.407149 
L 81.714818 125.407149 
L 82.617906 125.467343 
L 83.520993 125.467343 
L 84.424081 125.517738 
L 85.327169 125.560133 
L 86.230257 125.560133 
L 87.133344 125.595962 
L 88.036432 125.595962 
L 88.93952 125.626378 
L 89.842607 125.652307 
L 90.745695 125.652307 
L 91.648783 125.674502 
L 92.55187 125.674502 
L 93.454958 125.693575 
L 94.358046 125.710027 
L 95.261133 125.710027 
L 96.164221 125.724268 
L 97.067309 125.724268 
L 97.970397 125.736638 
L 98.873484 125.747419 
L 99.776572 125.747419 
L 100.67966 125.756844 
L 101.582747 125.756844 
L 102.485835 125.765108 
L 103.388923 125.772377 
L 104.29201 125.772377 
L 105.195098 125.778787 
L 106.098186 125.778787 
L 107.001274 125.784455 
L 107.904361 125.789481 
L 108.807449 125.789481 
L 109.710537 125.793947 
L 110.613624 125.793947 
L 111.516712 125.797926 
L 112.4198 125.797926 
L 113.322887 125.801479 
L 114.225975 125.804659 
L 115.129063 125.804659 
L 116.03215 125.807511 
L 116.935238 125.807511 
L 117.838326 125.810073 
L 118.741414 125.812381 
L 119.644501 125.812381 
L 120.547589 125.814463 
L 121.450677 125.814463 
L 122.353764 125.816344 
L 123.256852 125.818048 
L 124.15994 125.818048 
L 125.063027 125.819593 
L 125.966115 125.819593 
L 126.869203 125.820996 
L 127.772291 125.822274 
L 128.675378 125.822274 
L 129.578466 125.823438 
" style="fill:none;stroke:#4c72b0;stroke-linecap:round;stroke-width:1.4;"/>
   </g>
   <g id="patch_3">
    <path d="M 35.7025 130.232 
L 35.7025 33.568 
" style="fill:none;"/>
   </g>
   <g id="patch_4">
    <path d="M 134.04875 130.232 
L 134.04875 33.568 
" style="fill:none;"/>
   </g>
   <g id="patch_5">
    <path d="M 35.7025 130.232 
L 134.04875 130.232 
" style="fill:none;"/>
   </g>
   <g id="patch_6">
    <path d="M 35.7025 33.568 
L 134.04875 33.568 
" style="fill:none;"/>
   </g>
   <g id="text_9">
    <!-- PDF -->
    <defs>
     <path d="M 24.703125 37.109375 
L 37.59375 37.109375 
Q 44.875 37.109375 48.671875 41.03125 
Q 52.484375 44.96875 52.484375 52.390625 
Q 52.484375 59.859375 48.671875 63.765625 
Q 44.875 67.671875 37.59375 67.671875 
L 24.703125 67.671875 
z
M 5.515625 0 
L 5.515625 5.171875 
L 14.796875 5.171875 
L 14.796875 67.671875 
L 5.515625 67.671875 
L 5.515625 72.90625 
L 39.984375 72.90625 
Q 50.921875 72.90625 57.3125 67.359375 
Q 63.71875 61.8125 63.71875 52.390625 
Q 63.71875 43.015625 57.3125 37.453125 
Q 50.921875 31.890625 39.984375 31.890625 
L 24.703125 31.890625 
L 24.703125 5.171875 
L 35.984375 5.171875 
L 35.984375 0 
z
" id="DejaVuSerif-50"/>
     <path d="M 24.703125 5.171875 
L 33.796875 5.171875 
Q 48 5.171875 55.59375 13.28125 
Q 63.1875 21.390625 63.1875 36.53125 
Q 63.1875 51.65625 55.609375 59.65625 
Q 48.046875 67.671875 33.796875 67.671875 
L 24.703125 67.671875 
z
M 5.515625 0 
L 5.515625 5.171875 
L 14.796875 5.171875 
L 14.796875 67.671875 
L 5.515625 67.671875 
L 5.515625 72.90625 
L 34.515625 72.90625 
Q 53.375 72.90625 63.890625 63.28125 
Q 74.421875 53.65625 74.421875 36.53125 
Q 74.421875 19.34375 63.875 9.671875 
Q 53.328125 0 34.515625 0 
z
" id="DejaVuSerif-44"/>
     <path d="M 5.515625 0 
L 5.515625 5.171875 
L 14.796875 5.171875 
L 14.796875 67.671875 
L 5.515625 67.671875 
L 5.515625 72.90625 
L 65.1875 72.90625 
L 65.1875 56.6875 
L 59.1875 56.6875 
L 59.1875 66.890625 
L 24.703125 66.890625 
L 24.703125 42.484375 
L 49.609375 42.484375 
L 49.609375 51.609375 
L 55.609375 51.609375 
L 55.609375 27.390625 
L 49.609375 27.390625 
L 49.609375 36.53125 
L 24.703125 36.53125 
L 24.703125 5.171875 
L 36.375 5.171875 
L 36.375 0 
z
" id="DejaVuSerif-46"/>
    </defs>
    <g style="fill:#262626;" transform="translate(74.467125 27.568)scale(0.096 -0.096)">
     <use xlink:href="#DejaVuSerif-50"/>
     <use x="67.285156" xlink:href="#DejaVuSerif-44"/>
     <use x="147.460938" xlink:href="#DejaVuSerif-46"/>
    </g>
   </g>
  </g>
  <g id="axes_2">
   <g id="patch_7">
    <path d="M 173.95425 130.232 
L 272.3005 130.232 
L 272.3005 33.568 
L 173.95425 33.568 
z
" style="fill:#eaeaf2;"/>
   </g>
   <g id="matplotlib.axis_3">
    <g id="xtick_5">
     <g id="line2d_18">
      <path clip-path="url(#p0f5093f22a)" d="M 178.424534 130.232 
L 178.424534 33.568 
" style="fill:none;opacity:0.5;stroke:#0000ff;stroke-linecap:round;stroke-width:0.1;"/>
     </g>
     <g id="line2d_19"/>
     <g id="text_10">
      <!-- 0 -->
      <g style="fill:#262626;" transform="translate(175.879534 141.91075)scale(0.08 -0.08)">
       <use xlink:href="#DejaVuSerif-30"/>
      </g>
     </g>
    </g>
    <g id="xtick_6">
     <g id="line2d_20">
      <path clip-path="url(#p0f5093f22a)" d="M 208.846453 130.232 
L 208.846453 33.568 
" style="fill:none;opacity:0.5;stroke:#0000ff;stroke-linecap:round;stroke-width:0.1;"/>
     </g>
     <g id="line2d_21"/>
     <g id="text_11">
      <!-- 200 -->
      <g style="fill:#262626;" transform="translate(201.211453 141.91075)scale(0.08 -0.08)">
       <use xlink:href="#DejaVuSerif-32"/>
       <use x="63.623047" xlink:href="#DejaVuSerif-30"/>
       <use x="127.246094" xlink:href="#DejaVuSerif-30"/>
      </g>
     </g>
    </g>
    <g id="xtick_7">
     <g id="line2d_22">
      <path clip-path="url(#p0f5093f22a)" d="M 239.268371 130.232 
L 239.268371 33.568 
" style="fill:none;opacity:0.5;stroke:#0000ff;stroke-linecap:round;stroke-width:0.1;"/>
     </g>
     <g id="line2d_23"/>
     <g id="text_12">
      <!-- 400 -->
      <g style="fill:#262626;" transform="translate(231.633371 141.91075)scale(0.08 -0.08)">
       <use xlink:href="#DejaVuSerif-34"/>
       <use x="63.623047" xlink:href="#DejaVuSerif-30"/>
       <use x="127.246094" xlink:href="#DejaVuSerif-30"/>
      </g>
     </g>
    </g>
    <g id="xtick_8">
     <g id="line2d_24">
      <path clip-path="url(#p0f5093f22a)" d="M 269.69029 130.232 
L 269.69029 33.568 
" style="fill:none;opacity:0.5;stroke:#0000ff;stroke-linecap:round;stroke-width:0.1;"/>
     </g>
     <g id="line2d_25"/>
     <g id="text_13">
      <!-- 600 -->
      <g style="fill:#262626;" transform="translate(262.05529 141.91075)scale(0.08 -0.08)">
       <use xlink:href="#DejaVuSerif-36"/>
       <use x="63.623047" xlink:href="#DejaVuSerif-30"/>
       <use x="127.246094" xlink:href="#DejaVuSerif-30"/>
      </g>
     </g>
    </g>
   </g>
   <g id="matplotlib.axis_4">
    <g id="ytick_5">
     <g id="line2d_26">
      <path clip-path="url(#p0f5093f22a)" d="M 173.95425 130.232 
L 272.3005 130.232 
" style="fill:none;opacity:0.5;stroke:#0000ff;stroke-linecap:round;stroke-width:0.1;"/>
     </g>
     <g id="line2d_27"/>
     <g id="text_14">
      <!-- 0.0 -->
      <g style="fill:#262626;" transform="translate(155.63175 133.271375)scale(0.08 -0.08)">
       <use xlink:href="#DejaVuSerif-30"/>
       <use x="63.623047" xlink:href="#DejaVuSerif-2e"/>
       <use x="95.410156" xlink:href="#DejaVuSerif-30"/>
      </g>
     </g>
    </g>
    <g id="ytick_6">
     <g id="line2d_28">
      <path clip-path="url(#p0f5093f22a)" d="M 173.95425 110.8992 
L 272.3005 110.8992 
" style="fill:none;opacity:0.5;stroke:#0000ff;stroke-linecap:round;stroke-width:0.1;"/>
     </g>
     <g id="line2d_29"/>
     <g id="text_15">
      <!-- 0.2 -->
      <g style="fill:#262626;" transform="translate(155.63175 113.938575)scale(0.08 -0.08)">
       <use xlink:href="#DejaVuSerif-30"/>
       <use x="63.623047" xlink:href="#DejaVuSerif-2e"/>
       <use x="95.410156" xlink:href="#DejaVuSerif-32"/>
      </g>
     </g>
    </g>
    <g id="ytick_7">
     <g id="line2d_30">
      <path clip-path="url(#p0f5093f22a)" d="M 173.95425 91.5664 
L 272.3005 91.5664 
" style="fill:none;opacity:0.5;stroke:#0000ff;stroke-linecap:round;stroke-width:0.1;"/>
     </g>
     <g id="line2d_31"/>
     <g id="text_16">
      <!-- 0.4 -->
      <g style="fill:#262626;" transform="translate(155.63175 94.605775)scale(0.08 -0.08)">
       <use xlink:href="#DejaVuSerif-30"/>
       <use x="63.623047" xlink:href="#DejaVuSerif-2e"/>
       <use x="95.410156" xlink:href="#DejaVuSerif-34"/>
      </g>
     </g>
    </g>
    <g id="ytick_8">
     <g id="line2d_32">
      <path clip-path="url(#p0f5093f22a)" d="M 173.95425 72.2336 
L 272.3005 72.2336 
" style="fill:none;opacity:0.5;stroke:#0000ff;stroke-linecap:round;stroke-width:0.1;"/>
     </g>
     <g id="line2d_33"/>
     <g id="text_17">
      <!-- 0.6 -->
      <g style="fill:#262626;" transform="translate(155.63175 75.272975)scale(0.08 -0.08)">
       <use xlink:href="#DejaVuSerif-30"/>
       <use x="63.623047" xlink:href="#DejaVuSerif-2e"/>
       <use x="95.410156" xlink:href="#DejaVuSerif-36"/>
      </g>
     </g>
    </g>
    <g id="ytick_9">
     <g id="line2d_34">
      <path clip-path="url(#p0f5093f22a)" d="M 173.95425 52.9008 
L 272.3005 52.9008 
" style="fill:none;opacity:0.5;stroke:#0000ff;stroke-linecap:round;stroke-width:0.1;"/>
     </g>
     <g id="line2d_35"/>
     <g id="text_18">
      <!-- 0.8 -->
      <defs>
       <path d="M 46.578125 19.921875 
Q 46.578125 27.734375 42.6875 32.046875 
Q 38.8125 36.375 31.78125 36.375 
Q 24.75 36.375 20.875 32.046875 
Q 17 27.734375 17 19.921875 
Q 17 12.0625 20.875 7.734375 
Q 24.75 3.421875 31.78125 3.421875 
Q 38.8125 3.421875 42.6875 7.734375 
Q 46.578125 12.0625 46.578125 19.921875 
z
M 44.578125 55.328125 
Q 44.578125 61.96875 41.203125 65.671875 
Q 37.84375 69.390625 31.78125 69.390625 
Q 25.78125 69.390625 22.390625 65.671875 
Q 19 61.96875 19 55.328125 
Q 19 48.640625 22.390625 44.921875 
Q 25.78125 41.21875 31.78125 41.21875 
Q 37.84375 41.21875 41.203125 44.921875 
Q 44.578125 48.640625 44.578125 55.328125 
z
M 39.3125 38.8125 
Q 47.609375 37.703125 52.25 32.6875 
Q 56.890625 27.6875 56.890625 19.921875 
Q 56.890625 9.671875 50.390625 4.125 
Q 43.890625 -1.421875 31.78125 -1.421875 
Q 19.734375 -1.421875 13.203125 4.125 
Q 6.6875 9.671875 6.6875 19.921875 
Q 6.6875 27.6875 11.328125 32.6875 
Q 15.96875 37.703125 24.3125 38.8125 
Q 16.9375 40.140625 13 44.40625 
Q 9.078125 48.6875 9.078125 55.328125 
Q 9.078125 64.109375 15.125 69.15625 
Q 21.1875 74.21875 31.78125 74.21875 
Q 42.390625 74.21875 48.4375 69.15625 
Q 54.5 64.109375 54.5 55.328125 
Q 54.5 48.6875 50.5625 44.40625 
Q 46.625 40.140625 39.3125 38.8125 
z
" id="DejaVuSerif-38"/>
      </defs>
      <g style="fill:#262626;" transform="translate(155.63175 55.940175)scale(0.08 -0.08)">
       <use xlink:href="#DejaVuSerif-30"/>
       <use x="63.623047" xlink:href="#DejaVuSerif-2e"/>
       <use x="95.410156" xlink:href="#DejaVuSerif-38"/>
      </g>
     </g>
    </g>
    <g id="ytick_10">
     <g id="line2d_36">
      <path clip-path="url(#p0f5093f22a)" d="M 173.95425 33.568 
L 272.3005 33.568 
" style="fill:none;opacity:0.5;stroke:#0000ff;stroke-linecap:round;stroke-width:0.1;"/>
     </g>
     <g id="line2d_37"/>
     <g id="text_19">
      <!-- 1.0 -->
      <g style="fill:#262626;" transform="translate(155.63175 36.607375)scale(0.08 -0.08)">
       <use xlink:href="#DejaVuSerif-31"/>
       <use x="63.623047" xlink:href="#DejaVuSerif-2e"/>
       <use x="95.410156" xlink:href="#DejaVuSerif-30"/>
      </g>
     </g>
    </g>
   </g>
   <g id="line2d_38">
    <path clip-path="url(#p0f5093f22a)" d="M 178.424534 120.775991 
L 179.327622 120.775991 
L 179.327622 119.469366 
L 180.230709 119.469366 
L 180.230709 111.190997 
L 181.133797 111.190997 
L 181.133797 102.844458 
L 182.036885 102.844458 
L 182.036885 94.422122 
L 182.939973 94.422122 
L 182.939973 86.804411 
L 183.84306 86.804411 
L 183.84306 79.542198 
L 184.746148 79.542198 
L 184.746148 73.479909 
L 185.649236 73.479909 
L 185.649236 67.954281 
L 186.552323 67.954281 
L 186.552323 63.168167 
L 187.455411 63.168167 
L 187.455411 59.175473 
L 188.358499 59.175473 
L 188.358499 55.511673 
L 189.261586 55.511673 
L 189.261586 52.662873 
L 190.164674 52.662873 
L 190.164674 50.058741 
L 191.067762 50.058741 
L 191.067762 47.875629 
L 191.97085 47.875629 
L 191.97085 46.039485 
L 192.873937 46.039485 
L 192.873937 44.364221 
L 193.777025 44.364221 
L 193.777025 43.073368 
L 194.680113 43.073368 
L 194.680113 41.874526 
L 195.5832 41.874526 
L 195.5832 40.875249 
L 196.486288 40.875249 
L 196.486288 40.014999 
L 197.389376 40.014999 
L 197.389376 39.236322 
L 198.292463 39.236322 
L 198.292463 38.616319 
L 199.195551 38.616319 
L 199.195551 38.038922 
L 200.098639 38.038922 
L 200.098639 37.556183 
L 201.001726 37.556183 
L 201.001726 37.130316 
L 201.904814 37.130316 
L 201.904814 36.746101 
L 202.807902 36.746101 
L 202.807902 36.429927 
L 203.71099 36.429927 
L 203.71099 36.134288 
L 204.614077 36.134288 
L 204.614077 35.885598 
L 205.517165 35.885598 
L 205.517165 35.661286 
L 206.420253 35.661286 
L 206.420253 35.459094 
L 207.32334 35.459094 
L 207.32334 35.287718 
L 208.226428 35.287718 
L 208.226428 35.126751 
L 209.129516 35.126751 
L 209.129516 34.990394 
L 210.032603 34.990394 
L 210.032603 34.865019 
L 210.935691 34.865019 
L 210.935691 34.751967 
L 212.741867 34.653673 
L 212.741867 34.560933 
L 214.548042 34.481823 
L 214.548042 34.407889 
L 216.354217 34.341153 
L 216.354217 34.28186 
L 219.06348 34.177443 
L 219.06348 34.131735 
L 221.772743 34.053041 
L 221.772743 34.017499 
L 225.385094 33.930678 
L 225.385094 33.906186 
L 230.80362 33.808445 
L 230.80362 33.792757 
L 240.737585 33.686124 
L 240.737585 33.67895 
L 267.830216 33.579139 
L 267.830216 33.577666 
" style="fill:none;stroke:#4c72b0;stroke-linecap:round;"/>
   </g>
   <g id="patch_8">
    <path d="M 173.95425 130.232 
L 173.95425 33.568 
" style="fill:none;"/>
   </g>
   <g id="patch_9">
    <path d="M 272.3005 130.232 
L 272.3005 33.568 
" style="fill:none;"/>
   </g>
   <g id="patch_10">
    <path d="M 173.95425 130.232 
L 272.3005 130.232 
" style="fill:none;"/>
   </g>
   <g id="patch_11">
    <path d="M 173.95425 33.568 
L 272.3005 33.568 
" style="fill:none;"/>
   </g>
   <g id="text_20">
    <!-- CDF -->
    <defs>
     <path d="M 70.515625 19.28125 
Q 67.28125 9.078125 59.6875 3.828125 
Q 52.09375 -1.421875 40.484375 -1.421875 
Q 33.34375 -1.421875 27.234375 1.015625 
Q 21.140625 3.46875 16.40625 8.203125 
Q 10.9375 13.671875 8.265625 20.625 
Q 5.609375 27.59375 5.609375 36.375 
Q 5.609375 53.375 15.421875 63.796875 
Q 25.25 74.21875 41.3125 74.21875 
Q 47.265625 74.21875 54 72.65625 
Q 60.75 71.09375 68.5 67.921875 
L 68.5 51.125 
L 62.984375 51.125 
Q 61.1875 60.296875 55.734375 64.640625 
Q 50.296875 69 40.484375 69 
Q 28.8125 69 22.796875 60.71875 
Q 16.796875 52.4375 16.796875 36.375 
Q 16.796875 20.359375 22.796875 12.078125 
Q 28.8125 3.8125 40.484375 3.8125 
Q 48.640625 3.8125 53.90625 7.6875 
Q 59.1875 11.578125 61.53125 19.28125 
z
" id="DejaVuSerif-43"/>
    </defs>
    <g style="fill:#262626;" transform="translate(212.275625 27.568)scale(0.096 -0.096)">
     <use xlink:href="#DejaVuSerif-43"/>
     <use x="76.513672" xlink:href="#DejaVuSerif-44"/>
     <use x="156.689453" xlink:href="#DejaVuSerif-46"/>
    </g>
   </g>
  </g>
  <g id="axes_3">
   <g id="patch_12">
    <path d="M 312.206 130.232 
L 410.55225 130.232 
L 410.55225 33.568 
L 312.206 33.568 
z
" style="fill:#eaeaf2;"/>
   </g>
   <g id="matplotlib.axis_5">
    <g id="xtick_9">
     <g id="line2d_39">
      <path clip-path="url(#pfead10f438)" d="M 312.206 130.232 
L 312.206 33.568 
" style="fill:none;opacity:0.5;stroke:#0000ff;stroke-linecap:round;stroke-width:0.1;"/>
     </g>
     <g id="line2d_40"/>
     <g id="text_21">
      <!-- 0.00 -->
      <g style="fill:#262626;" transform="translate(303.29975 141.91075)scale(0.08 -0.08)">
       <use xlink:href="#DejaVuSerif-30"/>
       <use x="63.623047" xlink:href="#DejaVuSerif-2e"/>
       <use x="95.410156" xlink:href="#DejaVuSerif-30"/>
       <use x="159.033203" xlink:href="#DejaVuSerif-30"/>
      </g>
     </g>
    </g>
    <g id="xtick_10">
     <g id="line2d_41">
      <path clip-path="url(#pfead10f438)" d="M 336.792563 130.232 
L 336.792563 33.568 
" style="fill:none;opacity:0.5;stroke:#0000ff;stroke-linecap:round;stroke-width:0.1;"/>
     </g>
     <g id="line2d_42"/>
     <g id="text_22">
      <!-- 0.25 -->
      <g style="fill:#262626;" transform="translate(327.886313 141.91075)scale(0.08 -0.08)">
       <use xlink:href="#DejaVuSerif-30"/>
       <use x="63.623047" xlink:href="#DejaVuSerif-2e"/>
       <use x="95.410156" xlink:href="#DejaVuSerif-32"/>
       <use x="159.033203" xlink:href="#DejaVuSerif-35"/>
      </g>
     </g>
    </g>
    <g id="xtick_11">
     <g id="line2d_43">
      <path clip-path="url(#pfead10f438)" d="M 361.379125 130.232 
L 361.379125 33.568 
" style="fill:none;opacity:0.5;stroke:#0000ff;stroke-linecap:round;stroke-width:0.1;"/>
     </g>
     <g id="line2d_44"/>
     <g id="text_23">
      <!-- 0.50 -->
      <g style="fill:#262626;" transform="translate(352.472875 141.91075)scale(0.08 -0.08)">
       <use xlink:href="#DejaVuSerif-30"/>
       <use x="63.623047" xlink:href="#DejaVuSerif-2e"/>
       <use x="95.410156" xlink:href="#DejaVuSerif-35"/>
       <use x="159.033203" xlink:href="#DejaVuSerif-30"/>
      </g>
     </g>
    </g>
    <g id="xtick_12">
     <g id="line2d_45">
      <path clip-path="url(#pfead10f438)" d="M 385.965688 130.232 
L 385.965688 33.568 
" style="fill:none;opacity:0.5;stroke:#0000ff;stroke-linecap:round;stroke-width:0.1;"/>
     </g>
     <g id="line2d_46"/>
     <g id="text_24">
      <!-- 0.75 -->
      <defs>
       <path d="M 56.390625 67.921875 
L 27.875 0 
L 20.609375 0 
L 47.796875 64.890625 
L 14.109375 64.890625 
L 14.109375 55.90625 
L 8.40625 55.90625 
L 8.40625 72.90625 
L 56.390625 72.90625 
z
" id="DejaVuSerif-37"/>
      </defs>
      <g style="fill:#262626;" transform="translate(377.059438 141.91075)scale(0.08 -0.08)">
       <use xlink:href="#DejaVuSerif-30"/>
       <use x="63.623047" xlink:href="#DejaVuSerif-2e"/>
       <use x="95.410156" xlink:href="#DejaVuSerif-37"/>
       <use x="159.033203" xlink:href="#DejaVuSerif-35"/>
      </g>
     </g>
    </g>
    <g id="xtick_13">
     <g id="line2d_47">
      <path clip-path="url(#pfead10f438)" d="M 410.55225 130.232 
L 410.55225 33.568 
" style="fill:none;opacity:0.5;stroke:#0000ff;stroke-linecap:round;stroke-width:0.1;"/>
     </g>
     <g id="line2d_48"/>
     <g id="text_25">
      <!-- 1.00 -->
      <g style="fill:#262626;" transform="translate(401.646 141.91075)scale(0.08 -0.08)">
       <use xlink:href="#DejaVuSerif-31"/>
       <use x="63.623047" xlink:href="#DejaVuSerif-2e"/>
       <use x="95.410156" xlink:href="#DejaVuSerif-30"/>
       <use x="159.033203" xlink:href="#DejaVuSerif-30"/>
      </g>
     </g>
    </g>
   </g>
   <g id="matplotlib.axis_6">
    <g id="ytick_11">
     <g id="line2d_49">
      <path clip-path="url(#pfead10f438)" d="M 312.206 125.838182 
L 410.55225 125.838182 
" style="fill:none;opacity:0.5;stroke:#0000ff;stroke-linecap:round;stroke-width:0.1;"/>
     </g>
     <g id="line2d_50"/>
     <g id="text_26">
      <!-- 0 -->
      <g style="fill:#262626;" transform="translate(301.516 128.877557)scale(0.08 -0.08)">
       <use xlink:href="#DejaVuSerif-30"/>
      </g>
     </g>
    </g>
    <g id="ytick_12">
     <g id="line2d_51">
      <path clip-path="url(#pfead10f438)" d="M 312.206 98.160587 
L 410.55225 98.160587 
" style="fill:none;opacity:0.5;stroke:#0000ff;stroke-linecap:round;stroke-width:0.1;"/>
     </g>
     <g id="line2d_52"/>
     <g id="text_27">
      <!-- 200 -->
      <g style="fill:#262626;" transform="translate(291.336 101.199962)scale(0.08 -0.08)">
       <use xlink:href="#DejaVuSerif-32"/>
       <use x="63.623047" xlink:href="#DejaVuSerif-30"/>
       <use x="127.246094" xlink:href="#DejaVuSerif-30"/>
      </g>
     </g>
    </g>
    <g id="ytick_13">
     <g id="line2d_53">
      <path clip-path="url(#pfead10f438)" d="M 312.206 70.482992 
L 410.55225 70.482992 
" style="fill:none;opacity:0.5;stroke:#0000ff;stroke-linecap:round;stroke-width:0.1;"/>
     </g>
     <g id="line2d_54"/>
     <g id="text_28">
      <!-- 400 -->
      <g style="fill:#262626;" transform="translate(291.336 73.522367)scale(0.08 -0.08)">
       <use xlink:href="#DejaVuSerif-34"/>
       <use x="63.623047" xlink:href="#DejaVuSerif-30"/>
       <use x="127.246094" xlink:href="#DejaVuSerif-30"/>
      </g>
     </g>
    </g>
    <g id="ytick_14">
     <g id="line2d_55">
      <path clip-path="url(#pfead10f438)" d="M 312.206 42.805397 
L 410.55225 42.805397 
" style="fill:none;opacity:0.5;stroke:#0000ff;stroke-linecap:round;stroke-width:0.1;"/>
     </g>
     <g id="line2d_56"/>
     <g id="text_29">
      <!-- 600 -->
      <g style="fill:#262626;" transform="translate(291.336 45.844772)scale(0.08 -0.08)">
       <use xlink:href="#DejaVuSerif-36"/>
       <use x="63.623047" xlink:href="#DejaVuSerif-30"/>
       <use x="127.246094" xlink:href="#DejaVuSerif-30"/>
      </g>
     </g>
    </g>
   </g>
   <g id="line2d_57">
    <path clip-path="url(#pfead10f438)" d="M 312.206 37.961818 
L 313.189463 37.961818 
L 313.189463 94.343495 
L 314.172925 94.343495 
L 314.172925 100.539349 
L 315.156388 100.539349 
L 315.156388 103.755752 
L 316.13985 103.755752 
L 316.13985 105.912269 
L 317.123313 105.912269 
L 317.123313 107.473206 
L 318.106775 107.473206 
L 318.106775 108.722906 
L 319.090238 108.722906 
L 319.090238 109.742856 
L 320.0737 109.742856 
L 320.0737 110.577535 
L 321.057163 110.577535 
L 321.057163 111.357684 
L 322.040625 111.357684 
L 322.040625 111.97315 
L 323.024088 111.97315 
L 323.024088 112.588616 
L 324.00755 112.588616 
L 324.00755 113.086292 
L 324.991013 113.086292 
L 324.991013 113.560374 
L 325.974475 113.560374 
L 325.974475 114.034455 
L 326.957938 114.034455 
L 326.957938 114.407733 
L 327.9414 114.407733 
L 327.9414 114.771531 
L 328.924863 114.771531 
L 328.924863 115.135329 
L 329.908325 115.135329 
L 329.908325 115.48977 
L 330.891788 115.48977 
L 330.891788 115.768559 
L 331.87525 115.768559 
L 331.87525 116.047347 
L 332.858713 116.047347 
L 332.858713 116.326135 
L 333.842175 116.326135 
L 333.842175 116.604923 
L 334.825638 116.604923 
L 334.825638 116.874266 
L 335.8091 116.874266 
L 335.8091 117.088433 
L 336.792563 117.088433 
L 336.792563 117.3026 
L 337.776025 117.3026 
L 337.776025 117.516766 
L 338.759488 117.516766 
L 338.759488 117.730933 
L 339.74295 117.730933 
L 339.74295 117.945099 
L 340.726413 117.945099 
L 340.726413 118.159266 
L 341.709875 118.159266 
L 341.709875 118.340424 
L 342.693338 118.340424 
L 342.693338 118.506365 
L 343.6768 118.506365 
L 343.6768 118.672305 
L 344.660263 118.672305 
L 344.660263 118.838246 
L 345.643725 118.838246 
L 345.643725 119.004187 
L 346.627188 119.004187 
L 346.627188 119.170128 
L 347.61065 119.170128 
L 347.61065 119.336069 
L 348.594113 119.336069 
L 348.594113 119.50201 
L 349.577575 119.50201 
L 349.577575 119.655904 
L 350.561038 119.655904 
L 350.561038 119.786912 
L 351.5445 119.786912 
L 351.5445 119.917921 
L 352.527963 119.917921 
L 352.527963 120.048929 
L 353.511425 120.048929 
L 353.511425 120.179938 
L 354.494888 120.179938 
L 354.494888 120.310947 
L 355.47835 120.310947 
L 355.47835 120.441955 
L 356.461813 120.441955 
L 356.461813 120.572964 
L 357.445275 120.572964 
L 357.445275 120.703972 
L 358.428738 120.703972 
L 358.428738 120.834981 
L 359.4122 120.834981 
L 359.4122 120.96599 
L 360.395663 120.96599 
L 360.395663 121.078457 
L 362.362588 121.185742 
L 362.362588 121.293028 
L 364.329513 121.400314 
L 364.329513 121.5076 
L 366.296438 121.614886 
L 366.296438 121.722172 
L 368.263363 121.829458 
L 368.263363 121.936743 
L 370.230288 122.044029 
L 370.230288 122.151315 
L 372.197213 122.258601 
L 372.197213 122.365887 
L 374.164138 122.46171 
L 374.164138 122.556008 
L 376.131063 122.650307 
L 376.131063 122.744605 
L 378.097988 122.838903 
L 378.097988 122.933201 
L 380.064913 123.0275 
L 380.064913 123.121798 
L 382.031838 123.216096 
L 382.031838 123.310395 
L 383.998763 123.404693 
L 383.998763 123.498991 
L 385.965688 123.59329 
L 385.965688 123.687588 
L 387.932613 123.782226 
L 387.932613 123.878164 
L 389.899538 123.974102 
L 389.899538 124.07004 
L 391.866463 124.165979 
L 391.866463 124.261917 
L 393.833388 124.357855 
L 393.833388 124.453793 
L 395.800313 124.549731 
L 395.800313 124.64567 
L 397.767238 124.741608 
L 397.767238 124.837546 
L 399.734163 124.933484 
L 399.734163 125.029423 
L 401.701088 125.125361 
L 401.701088 125.838182 
L 409.568788 125.838182 
L 409.568788 125.838182 
" style="fill:none;stroke:#4c72b0;stroke-linecap:round;"/>
   </g>
   <g id="patch_13">
    <path d="M 312.206 130.232 
L 312.206 33.568 
" style="fill:none;"/>
   </g>
   <g id="patch_14">
    <path d="M 410.55225 130.232 
L 410.55225 33.568 
" style="fill:none;"/>
   </g>
   <g id="patch_15">
    <path d="M 312.206 130.232 
L 410.55225 130.232 
" style="fill:none;"/>
   </g>
   <g id="patch_16">
    <path d="M 312.206 33.568 
L 410.55225 33.568 
" style="fill:none;"/>
   </g>
   <g id="text_30">
    <!-- ISF -->
    <defs>
     <path d="M 24.703125 5.171875 
L 33.984375 5.171875 
L 33.984375 0 
L 5.515625 0 
L 5.515625 5.171875 
L 14.796875 5.171875 
L 14.796875 67.671875 
L 5.515625 67.671875 
L 5.515625 72.90625 
L 33.984375 72.90625 
L 33.984375 67.671875 
L 24.703125 67.671875 
z
" id="DejaVuSerif-49"/>
     <path d="M 9.28125 3.515625 
L 9.28125 20.125 
L 14.890625 20.0625 
Q 15.140625 11.765625 19.703125 7.78125 
Q 24.265625 3.8125 33.59375 3.8125 
Q 42.28125 3.8125 46.84375 7.25 
Q 51.421875 10.6875 51.421875 17.28125 
Q 51.421875 22.5625 48.65625 25.390625 
Q 45.90625 28.21875 37.015625 30.90625 
L 27.390625 33.796875 
Q 16.9375 36.96875 12.671875 41.703125 
Q 8.40625 46.4375 8.40625 54.6875 
Q 8.40625 63.96875 14.984375 69.09375 
Q 21.578125 74.21875 33.5 74.21875 
Q 38.578125 74.21875 44.625 73.109375 
Q 50.6875 72.015625 57.515625 69.921875 
L 57.515625 54.390625 
L 52 54.390625 
Q 51.171875 62.109375 46.84375 65.546875 
Q 42.53125 69 33.6875 69 
Q 25.984375 69 21.953125 65.84375 
Q 17.921875 62.703125 17.921875 56.6875 
Q 17.921875 51.46875 20.9375 48.484375 
Q 23.96875 45.515625 33.796875 42.578125 
L 42.828125 39.890625 
Q 52.734375 36.921875 56.953125 32.296875 
Q 61.1875 27.6875 61.1875 19.921875 
Q 61.1875 9.328125 54.390625 3.953125 
Q 47.609375 -1.421875 34.1875 -1.421875 
Q 28.171875 -1.421875 21.9375 -0.1875 
Q 15.71875 1.03125 9.28125 3.515625 
z
" id="DejaVuSerif-53"/>
    </defs>
    <g style="fill:#262626;" transform="translate(352.864375 27.568)scale(0.096 -0.096)">
     <use xlink:href="#DejaVuSerif-49"/>
     <use x="39.501953" xlink:href="#DejaVuSerif-53"/>
     <use x="108.007812" xlink:href="#DejaVuSerif-46"/>
    </g>
   </g>
  </g>
  <g id="axes_4">
   <g id="patch_17">
    <path d="M 450.45775 130.232 
L 548.804 130.232 
L 548.804 33.568 
L 450.45775 33.568 
z
" style="fill:#eaeaf2;"/>
   </g>
   <g id="matplotlib.axis_7">
    <g id="xtick_14">
     <g id="line2d_58">
      <path clip-path="url(#p53b34da65d)" d="M 450.45775 130.232 
L 450.45775 33.568 
" style="fill:none;opacity:0.5;stroke:#0000ff;stroke-linecap:round;stroke-width:0.1;"/>
     </g>
     <g id="line2d_59"/>
     <g id="text_31">
      <!-- 0.00 -->
      <g style="fill:#262626;" transform="translate(441.5515 141.91075)scale(0.08 -0.08)">
       <use xlink:href="#DejaVuSerif-30"/>
       <use x="63.623047" xlink:href="#DejaVuSerif-2e"/>
       <use x="95.410156" xlink:href="#DejaVuSerif-30"/>
       <use x="159.033203" xlink:href="#DejaVuSerif-30"/>
      </g>
     </g>
    </g>
    <g id="xtick_15">
     <g id="line2d_60">
      <path clip-path="url(#p53b34da65d)" d="M 475.044313 130.232 
L 475.044313 33.568 
" style="fill:none;opacity:0.5;stroke:#0000ff;stroke-linecap:round;stroke-width:0.1;"/>
     </g>
     <g id="line2d_61"/>
     <g id="text_32">
      <!-- 0.25 -->
      <g style="fill:#262626;" transform="translate(466.138063 141.91075)scale(0.08 -0.08)">
       <use xlink:href="#DejaVuSerif-30"/>
       <use x="63.623047" xlink:href="#DejaVuSerif-2e"/>
       <use x="95.410156" xlink:href="#DejaVuSerif-32"/>
       <use x="159.033203" xlink:href="#DejaVuSerif-35"/>
      </g>
     </g>
    </g>
    <g id="xtick_16">
     <g id="line2d_62">
      <path clip-path="url(#p53b34da65d)" d="M 499.630875 130.232 
L 499.630875 33.568 
" style="fill:none;opacity:0.5;stroke:#0000ff;stroke-linecap:round;stroke-width:0.1;"/>
     </g>
     <g id="line2d_63"/>
     <g id="text_33">
      <!-- 0.50 -->
      <g style="fill:#262626;" transform="translate(490.724625 141.91075)scale(0.08 -0.08)">
       <use xlink:href="#DejaVuSerif-30"/>
       <use x="63.623047" xlink:href="#DejaVuSerif-2e"/>
       <use x="95.410156" xlink:href="#DejaVuSerif-35"/>
       <use x="159.033203" xlink:href="#DejaVuSerif-30"/>
      </g>
     </g>
    </g>
    <g id="xtick_17">
     <g id="line2d_64">
      <path clip-path="url(#p53b34da65d)" d="M 524.217438 130.232 
L 524.217438 33.568 
" style="fill:none;opacity:0.5;stroke:#0000ff;stroke-linecap:round;stroke-width:0.1;"/>
     </g>
     <g id="line2d_65"/>
     <g id="text_34">
      <!-- 0.75 -->
      <g style="fill:#262626;" transform="translate(515.311188 141.91075)scale(0.08 -0.08)">
       <use xlink:href="#DejaVuSerif-30"/>
       <use x="63.623047" xlink:href="#DejaVuSerif-2e"/>
       <use x="95.410156" xlink:href="#DejaVuSerif-37"/>
       <use x="159.033203" xlink:href="#DejaVuSerif-35"/>
      </g>
     </g>
    </g>
    <g id="xtick_18">
     <g id="line2d_66">
      <path clip-path="url(#p53b34da65d)" d="M 548.804 130.232 
L 548.804 33.568 
" style="fill:none;opacity:0.5;stroke:#0000ff;stroke-linecap:round;stroke-width:0.1;"/>
     </g>
     <g id="line2d_67"/>
     <g id="text_35">
      <!-- 1.00 -->
      <g style="fill:#262626;" transform="translate(539.89775 141.91075)scale(0.08 -0.08)">
       <use xlink:href="#DejaVuSerif-31"/>
       <use x="63.623047" xlink:href="#DejaVuSerif-2e"/>
       <use x="95.410156" xlink:href="#DejaVuSerif-30"/>
       <use x="159.033203" xlink:href="#DejaVuSerif-30"/>
      </g>
     </g>
    </g>
   </g>
   <g id="matplotlib.axis_8">
    <g id="ytick_15">
     <g id="line2d_68">
      <path clip-path="url(#p53b34da65d)" d="M 450.45775 125.838182 
L 548.804 125.838182 
" style="fill:none;opacity:0.5;stroke:#0000ff;stroke-linecap:round;stroke-width:0.1;"/>
     </g>
     <g id="line2d_69"/>
     <g id="text_36">
      <!-- 0 -->
      <g style="fill:#262626;" transform="translate(439.76775 128.877557)scale(0.08 -0.08)">
       <use xlink:href="#DejaVuSerif-30"/>
      </g>
     </g>
    </g>
    <g id="ytick_16">
     <g id="line2d_70">
      <path clip-path="url(#p53b34da65d)" d="M 450.45775 98.160587 
L 548.804 98.160587 
" style="fill:none;opacity:0.5;stroke:#0000ff;stroke-linecap:round;stroke-width:0.1;"/>
     </g>
     <g id="line2d_71"/>
     <g id="text_37">
      <!-- 200 -->
      <g style="fill:#262626;" transform="translate(429.58775 101.199962)scale(0.08 -0.08)">
       <use xlink:href="#DejaVuSerif-32"/>
       <use x="63.623047" xlink:href="#DejaVuSerif-30"/>
       <use x="127.246094" xlink:href="#DejaVuSerif-30"/>
      </g>
     </g>
    </g>
    <g id="ytick_17">
     <g id="line2d_72">
      <path clip-path="url(#p53b34da65d)" d="M 450.45775 70.482992 
L 548.804 70.482992 
" style="fill:none;opacity:0.5;stroke:#0000ff;stroke-linecap:round;stroke-width:0.1;"/>
     </g>
     <g id="line2d_73"/>
     <g id="text_38">
      <!-- 400 -->
      <g style="fill:#262626;" transform="translate(429.58775 73.522367)scale(0.08 -0.08)">
       <use xlink:href="#DejaVuSerif-34"/>
       <use x="63.623047" xlink:href="#DejaVuSerif-30"/>
       <use x="127.246094" xlink:href="#DejaVuSerif-30"/>
      </g>
     </g>
    </g>
    <g id="ytick_18">
     <g id="line2d_74">
      <path clip-path="url(#p53b34da65d)" d="M 450.45775 42.805397 
L 548.804 42.805397 
" style="fill:none;opacity:0.5;stroke:#0000ff;stroke-linecap:round;stroke-width:0.1;"/>
     </g>
     <g id="line2d_75"/>
     <g id="text_39">
      <!-- 600 -->
      <g style="fill:#262626;" transform="translate(429.58775 45.844772)scale(0.08 -0.08)">
       <use xlink:href="#DejaVuSerif-36"/>
       <use x="63.623047" xlink:href="#DejaVuSerif-30"/>
       <use x="127.246094" xlink:href="#DejaVuSerif-30"/>
      </g>
     </g>
    </g>
   </g>
   <g id="line2d_76">
    <path clip-path="url(#p53b34da65d)" d="M 548.804 37.961818 
L 547.820538 37.961818 
L 547.820538 94.343495 
L 546.837075 94.343495 
L 546.837075 100.539349 
L 545.853613 100.539349 
L 545.853613 103.755752 
L 544.87015 103.755752 
L 544.87015 105.912269 
L 543.886688 105.912269 
L 543.886688 107.473206 
L 542.903225 107.473206 
L 542.903225 108.722906 
L 541.919763 108.722906 
L 541.919763 109.742856 
L 540.9363 109.742856 
L 540.9363 110.577535 
L 539.952838 110.577535 
L 539.952838 111.357684 
L 538.969375 111.357684 
L 538.969375 111.97315 
L 537.985913 111.97315 
L 537.985913 112.588616 
L 537.00245 112.588616 
L 537.00245 113.086292 
L 536.018988 113.086292 
L 536.018988 113.560374 
L 535.035525 113.560374 
L 535.035525 114.034455 
L 534.052063 114.034455 
L 534.052063 114.407733 
L 533.0686 114.407733 
L 533.0686 114.771531 
L 532.085138 114.771531 
L 532.085138 115.135329 
L 531.101675 115.135329 
L 531.101675 115.48977 
L 530.118213 115.48977 
L 530.118213 115.768559 
L 529.13475 115.768559 
L 529.13475 116.047347 
L 528.151288 116.047347 
L 528.151288 116.326135 
L 527.167825 116.326135 
L 527.167825 116.604923 
L 526.184363 116.604923 
L 526.184363 116.874266 
L 525.2009 116.874266 
L 525.2009 117.088433 
L 524.217438 117.088433 
L 524.217438 117.3026 
L 523.233975 117.3026 
L 523.233975 117.516766 
L 522.250513 117.516766 
L 522.250513 117.730933 
L 521.26705 117.730933 
L 521.26705 117.945099 
L 520.283588 117.945099 
L 520.283588 118.159266 
L 519.300125 118.159266 
L 519.300125 118.340424 
L 518.316663 118.340424 
L 518.316663 118.506365 
L 517.3332 118.506365 
L 517.3332 118.672305 
L 516.349738 118.672305 
L 516.349738 118.838246 
L 515.366275 118.838246 
L 515.366275 119.004187 
L 514.382813 119.004187 
L 514.382813 119.170128 
L 513.39935 119.170128 
L 513.39935 119.336069 
L 512.415888 119.336069 
L 512.415888 119.50201 
L 511.432425 119.50201 
L 511.432425 119.655904 
L 510.448963 119.655904 
L 510.448963 119.786912 
L 509.4655 119.786912 
L 509.4655 119.917921 
L 508.482038 119.917921 
L 508.482038 120.048929 
L 507.498575 120.048929 
L 507.498575 120.179938 
L 506.515113 120.179938 
L 506.515113 120.310947 
L 505.53165 120.310947 
L 505.53165 120.441955 
L 504.548188 120.441955 
L 504.548188 120.572964 
L 503.564725 120.572964 
L 503.564725 120.703972 
L 502.581263 120.703972 
L 502.581263 120.834981 
L 501.5978 120.834981 
L 501.5978 120.96599 
L 500.614338 120.96599 
L 500.614338 121.078457 
L 498.647413 121.185742 
L 498.647413 121.293028 
L 496.680488 121.400314 
L 496.680488 121.5076 
L 494.713563 121.614886 
L 494.713563 121.722172 
L 492.746638 121.829458 
L 492.746638 121.936743 
L 490.779713 122.044029 
L 490.779713 122.151315 
L 488.812788 122.258601 
L 488.812788 122.365887 
L 486.845863 122.46171 
L 486.845863 122.556008 
L 484.878938 122.650307 
L 484.878938 122.744605 
L 482.912013 122.838903 
L 482.912013 122.933201 
L 480.945088 123.0275 
L 480.945088 123.121798 
L 478.978163 123.216096 
L 478.978163 123.310395 
L 477.011238 123.404693 
L 477.011238 123.498991 
L 475.044313 123.59329 
L 475.044313 123.687588 
L 473.077388 123.782226 
L 473.077388 123.878164 
L 471.110463 123.974102 
L 471.110463 124.07004 
L 469.143538 124.165979 
L 469.143538 124.261917 
L 467.176613 124.357855 
L 467.176613 124.453793 
L 465.209688 124.549731 
L 465.209688 124.64567 
L 463.242763 124.741608 
L 463.242763 124.837546 
L 461.275838 124.933484 
L 461.275838 125.029423 
L 459.308913 125.125361 
L 459.308913 125.838182 
L 451.441213 125.838182 
L 451.441213 125.838182 
" style="fill:none;stroke:#4c72b0;stroke-linecap:round;"/>
   </g>
   <g id="patch_18">
    <path d="M 450.45775 130.232 
L 450.45775 33.568 
" style="fill:none;"/>
   </g>
   <g id="patch_19">
    <path d="M 548.804 130.232 
L 548.804 33.568 
" style="fill:none;"/>
   </g>
   <g id="patch_20">
    <path d="M 450.45775 130.232 
L 548.804 130.232 
" style="fill:none;"/>
   </g>
   <g id="patch_21">
    <path d="M 450.45775 33.568 
L 548.804 33.568 
" style="fill:none;"/>
   </g>
   <g id="text_40">
    <!-- Lee diagram -->
    <defs>
     <path d="M 5.515625 0 
L 5.515625 5.171875 
L 14.796875 5.171875 
L 14.796875 67.671875 
L 5.515625 67.671875 
L 5.515625 72.90625 
L 33.984375 72.90625 
L 33.984375 67.671875 
L 24.703125 67.671875 
L 24.703125 6 
L 58.015625 6 
L 58.015625 18.21875 
L 64.015625 18.21875 
L 64.015625 0 
z
" id="DejaVuSerif-4c"/>
     <path d="M 54.203125 25 
L 15.484375 25 
L 15.484375 24.609375 
Q 15.484375 14.109375 19.4375 8.765625 
Q 23.390625 3.421875 31.109375 3.421875 
Q 37.015625 3.421875 40.796875 6.515625 
Q 44.578125 9.625 46.09375 15.71875 
L 53.328125 15.71875 
Q 51.171875 7.171875 45.375 2.875 
Q 39.59375 -1.421875 30.171875 -1.421875 
Q 18.796875 -1.421875 11.890625 6.078125 
Q 4.984375 13.578125 4.984375 25.984375 
Q 4.984375 38.28125 11.765625 45.796875 
Q 18.5625 53.328125 29.59375 53.328125 
Q 41.359375 53.328125 47.65625 46.0625 
Q 53.953125 38.8125 54.203125 25 
z
M 43.609375 30.171875 
Q 43.3125 39.265625 39.765625 43.875 
Q 36.234375 48.484375 29.59375 48.484375 
Q 23.390625 48.484375 19.828125 43.84375 
Q 16.265625 39.203125 15.484375 30.171875 
z
" id="DejaVuSerif-65"/>
     <path id="DejaVuSerif-20"/>
     <path d="M 52.484375 5.171875 
L 61.078125 5.171875 
L 61.078125 0 
L 43.5 0 
L 43.5 8.109375 
Q 40.875 3.21875 36.796875 0.890625 
Q 32.71875 -1.421875 26.703125 -1.421875 
Q 17.140625 -1.421875 11.0625 6.171875 
Q 4.984375 13.765625 4.984375 25.984375 
Q 4.984375 38.1875 11.03125 45.75 
Q 17.09375 53.328125 26.703125 53.328125 
Q 32.71875 53.328125 36.796875 51 
Q 40.875 48.6875 43.5 43.796875 
L 43.5 70.796875 
L 35.015625 70.796875 
L 35.015625 75.984375 
L 52.484375 75.984375 
z
M 43.5 23.390625 
L 43.5 28.515625 
Q 43.5 37.84375 39.90625 42.765625 
Q 36.328125 47.703125 29.5 47.703125 
Q 22.5625 47.703125 19.015625 42.234375 
Q 15.484375 36.765625 15.484375 25.984375 
Q 15.484375 15.234375 19.015625 9.71875 
Q 22.5625 4.203125 29.5 4.203125 
Q 36.328125 4.203125 39.90625 9.109375 
Q 43.5 14.015625 43.5 23.390625 
z
" id="DejaVuSerif-64"/>
     <path d="M 9.71875 68.015625 
Q 9.71875 70.265625 11.34375 71.921875 
Q 12.984375 73.578125 15.28125 73.578125 
Q 17.53125 73.578125 19.15625 71.921875 
Q 20.796875 70.265625 20.796875 68.015625 
Q 20.796875 65.71875 19.1875 64.109375 
Q 17.578125 62.5 15.28125 62.5 
Q 12.984375 62.5 11.34375 64.109375 
Q 9.71875 65.71875 9.71875 68.015625 
z
M 21.1875 5.171875 
L 29.6875 5.171875 
L 29.6875 0 
L 3.609375 0 
L 3.609375 5.171875 
L 12.203125 5.171875 
L 12.203125 46.6875 
L 3.609375 46.6875 
L 3.609375 51.90625 
L 21.1875 51.90625 
z
" id="DejaVuSerif-69"/>
     <path d="M 39.796875 16.3125 
L 39.796875 27.296875 
L 28.21875 27.296875 
Q 21.53125 27.296875 18.25 24.40625 
Q 14.984375 21.53125 14.984375 15.578125 
Q 14.984375 10.15625 18.296875 6.984375 
Q 21.625 3.8125 27.296875 3.8125 
Q 32.90625 3.8125 36.34375 7.28125 
Q 39.796875 10.75 39.796875 16.3125 
z
M 48.78125 32.421875 
L 48.78125 5.171875 
L 56.78125 5.171875 
L 56.78125 0 
L 39.796875 0 
L 39.796875 5.609375 
Q 36.8125 2 32.90625 0.28125 
Q 29 -1.421875 23.78125 -1.421875 
Q 15.140625 -1.421875 10.0625 3.171875 
Q 4.984375 7.765625 4.984375 15.578125 
Q 4.984375 23.640625 10.796875 28.078125 
Q 16.609375 32.515625 27.203125 32.515625 
L 39.796875 32.515625 
L 39.796875 36.078125 
Q 39.796875 42 36.203125 45.234375 
Q 32.625 48.484375 26.125 48.484375 
Q 20.75 48.484375 17.578125 46.046875 
Q 14.40625 43.609375 13.625 38.8125 
L 8.984375 38.8125 
L 8.984375 49.3125 
Q 13.671875 51.3125 18.09375 52.3125 
Q 22.515625 53.328125 26.703125 53.328125 
Q 37.5 53.328125 43.140625 47.96875 
Q 48.78125 42.625 48.78125 32.421875 
z
" id="DejaVuSerif-61"/>
     <path d="M 52.484375 46.6875 
L 52.484375 1.125 
Q 52.484375 -10.0625 46.328125 -16.140625 
Q 40.1875 -22.21875 28.8125 -22.21875 
Q 23.6875 -22.21875 19 -21.28125 
Q 14.3125 -20.359375 10.015625 -18.5 
L 10.015625 -7.625 
L 14.703125 -7.625 
Q 15.578125 -12.703125 18.84375 -15.046875 
Q 22.125 -17.390625 28.21875 -17.390625 
Q 36.140625 -17.390625 39.8125 -12.921875 
Q 43.5 -8.453125 43.5 1.125 
L 43.5 8.109375 
Q 40.875 3.21875 36.796875 0.890625 
Q 32.71875 -1.421875 26.703125 -1.421875 
Q 17.140625 -1.421875 11.0625 6.171875 
Q 4.984375 13.765625 4.984375 25.984375 
Q 4.984375 38.1875 11.03125 45.75 
Q 17.09375 53.328125 26.703125 53.328125 
Q 32.71875 53.328125 36.796875 51 
Q 40.875 48.6875 43.5 43.796875 
L 43.5 51.90625 
L 61.078125 51.90625 
L 61.078125 46.6875 
z
M 43.5 28.515625 
Q 43.5 37.84375 39.90625 42.765625 
Q 36.328125 47.703125 29.5 47.703125 
Q 22.5625 47.703125 19.015625 42.234375 
Q 15.484375 36.765625 15.484375 25.984375 
Q 15.484375 15.234375 19.015625 9.71875 
Q 22.5625 4.203125 29.5 4.203125 
Q 36.328125 4.203125 39.90625 9.109375 
Q 43.5 14.015625 43.5 23.390625 
z
" id="DejaVuSerif-67"/>
     <path d="M 47.796875 52 
L 47.796875 39.015625 
L 42.625 39.015625 
Q 42.390625 42.875 40.484375 44.78125 
Q 38.578125 46.6875 34.90625 46.6875 
Q 28.265625 46.6875 24.71875 42.09375 
Q 21.1875 37.5 21.1875 28.90625 
L 21.1875 5.171875 
L 31.59375 5.171875 
L 31.59375 0 
L 4.109375 0 
L 4.109375 5.171875 
L 12.203125 5.171875 
L 12.203125 46.78125 
L 3.609375 46.78125 
L 3.609375 51.90625 
L 21.1875 51.90625 
L 21.1875 42.671875 
Q 23.828125 48.09375 27.96875 50.703125 
Q 32.125 53.328125 38.09375 53.328125 
Q 40.28125 53.328125 42.703125 52.984375 
Q 45.125 52.640625 47.796875 52 
z
" id="DejaVuSerif-72"/>
     <path d="M 51.8125 41.796875 
Q 54.390625 47.515625 58.421875 50.421875 
Q 62.453125 53.328125 67.828125 53.328125 
Q 75.984375 53.328125 79.984375 48.265625 
Q 83.984375 43.21875 83.984375 33.015625 
L 83.984375 5.171875 
L 92.09375 5.171875 
L 92.09375 0 
L 67.1875 0 
L 67.1875 5.171875 
L 75 5.171875 
L 75 31.984375 
Q 75 39.9375 72.65625 43.3125 
Q 70.3125 46.6875 64.890625 46.6875 
Q 58.890625 46.6875 55.734375 42.140625 
Q 52.59375 37.59375 52.59375 28.90625 
L 52.59375 5.171875 
L 60.40625 5.171875 
L 60.40625 0 
L 35.796875 0 
L 35.796875 5.171875 
L 43.609375 5.171875 
L 43.609375 32.328125 
Q 43.609375 40.09375 41.265625 43.390625 
Q 38.921875 46.6875 33.5 46.6875 
Q 27.484375 46.6875 24.328125 42.140625 
Q 21.1875 37.59375 21.1875 28.90625 
L 21.1875 5.171875 
L 29 5.171875 
L 29 0 
L 4.109375 0 
L 4.109375 5.171875 
L 12.203125 5.171875 
L 12.203125 46.78125 
L 3.609375 46.78125 
L 3.609375 51.90625 
L 21.1875 51.90625 
L 21.1875 42.671875 
Q 23.6875 47.859375 27.53125 50.59375 
Q 31.390625 53.328125 36.28125 53.328125 
Q 42.328125 53.328125 46.375 50.3125 
Q 50.4375 47.3125 51.8125 41.796875 
z
" id="DejaVuSerif-6d"/>
    </defs>
    <g style="fill:#262626;" transform="translate(468.985125 27.568)scale(0.096 -0.096)">
     <use xlink:href="#DejaVuSerif-4c"/>
     <use x="66.40625" xlink:href="#DejaVuSerif-65"/>
     <use x="125.585938" xlink:href="#DejaVuSerif-65"/>
     <use x="184.765625" xlink:href="#DejaVuSerif-20"/>
     <use x="216.552734" xlink:href="#DejaVuSerif-64"/>
     <use x="280.566406" xlink:href="#DejaVuSerif-69"/>
     <use x="312.548828" xlink:href="#DejaVuSerif-61"/>
     <use x="372.167969" xlink:href="#DejaVuSerif-67"/>
     <use x="436.181641" xlink:href="#DejaVuSerif-72"/>
     <use x="483.984375" xlink:href="#DejaVuSerif-61"/>
     <use x="543.603516" xlink:href="#DejaVuSerif-6d"/>
    </g>
   </g>
  </g>
  <g id="text_41">
   <!-- : Portfolio name           xx              -->
   <defs>
    <path d="M 10.40625 5.078125 
Q 10.40625 7.8125 12.28125 9.71875 
Q 14.15625 11.625 16.890625 11.625 
Q 19.625 11.625 21.5 9.71875 
Q 23.390625 7.8125 23.390625 5.078125 
Q 23.390625 2.34375 21.53125 0.453125 
Q 19.671875 -1.421875 16.890625 -1.421875 
Q 14.109375 -1.421875 12.25 0.453125 
Q 10.40625 2.34375 10.40625 5.078125 
z
M 10.40625 36.921875 
Q 10.40625 39.65625 12.28125 41.53125 
Q 14.15625 43.40625 16.890625 43.40625 
Q 19.671875 43.40625 21.53125 41.546875 
Q 23.390625 39.703125 23.390625 36.921875 
Q 23.390625 34.125 21.53125 32.265625 
Q 19.671875 30.421875 16.890625 30.421875 
Q 14.15625 30.421875 12.28125 32.296875 
Q 10.40625 34.1875 10.40625 36.921875 
z
" id="DejaVuSerif-3a"/>
    <path d="M 30.078125 3.421875 
Q 37.3125 3.421875 40.984375 9.125 
Q 44.671875 14.84375 44.671875 25.984375 
Q 44.671875 37.109375 40.984375 42.796875 
Q 37.3125 48.484375 30.078125 48.484375 
Q 22.859375 48.484375 19.171875 42.796875 
Q 15.484375 37.109375 15.484375 25.984375 
Q 15.484375 14.84375 19.1875 9.125 
Q 22.90625 3.421875 30.078125 3.421875 
z
M 30.078125 -1.421875 
Q 18.75 -1.421875 11.859375 6.078125 
Q 4.984375 13.578125 4.984375 25.984375 
Q 4.984375 38.375 11.84375 45.84375 
Q 18.703125 53.328125 30.078125 53.328125 
Q 41.453125 53.328125 48.3125 45.84375 
Q 55.171875 38.375 55.171875 25.984375 
Q 55.171875 13.578125 48.3125 6.078125 
Q 41.453125 -1.421875 30.078125 -1.421875 
z
" id="DejaVuSerif-6f"/>
    <path d="M 10.796875 46.6875 
L 2.875 46.6875 
L 2.875 51.90625 
L 10.796875 51.90625 
L 10.796875 68.015625 
L 19.828125 68.015625 
L 19.828125 51.90625 
L 36.71875 51.90625 
L 36.71875 46.6875 
L 19.828125 46.6875 
L 19.828125 13.71875 
Q 19.828125 7.125 21.09375 5.265625 
Q 22.359375 3.421875 25.78125 3.421875 
Q 29.296875 3.421875 30.90625 5.484375 
Q 32.515625 7.5625 32.625 12.203125 
L 39.40625 12.203125 
Q 39.015625 5.125 35.546875 1.84375 
Q 32.078125 -1.421875 25 -1.421875 
Q 17.234375 -1.421875 14.015625 2.015625 
Q 10.796875 5.46875 10.796875 13.71875 
z
" id="DejaVuSerif-74"/>
    <path d="M 43.015625 63.71875 
L 38.28125 63.71875 
Q 38.234375 67.390625 36.203125 69.28125 
Q 34.1875 71.1875 30.328125 71.1875 
Q 25.296875 71.1875 23.234375 68.421875 
Q 21.1875 65.671875 21.1875 58.59375 
L 21.1875 51.90625 
L 35.6875 51.90625 
L 35.6875 46.6875 
L 21.1875 46.6875 
L 21.1875 5.171875 
L 32.71875 5.171875 
L 32.71875 0 
L 3.609375 0 
L 3.609375 5.171875 
L 12.203125 5.171875 
L 12.203125 46.6875 
L 3.609375 46.6875 
L 3.609375 51.90625 
L 12.203125 51.90625 
L 12.203125 58.40625 
Q 12.203125 67.09375 16.71875 71.53125 
Q 21.234375 75.984375 29.984375 75.984375 
Q 33.25 75.984375 36.515625 75.390625 
Q 39.796875 74.8125 43.015625 73.578125 
z
" id="DejaVuSerif-66"/>
    <path d="M 20.515625 5.171875 
L 29 5.171875 
L 29 0 
L 2.875 0 
L 2.875 5.171875 
L 11.53125 5.171875 
L 11.53125 70.796875 
L 2.875 70.796875 
L 2.875 75.984375 
L 20.515625 75.984375 
z
" id="DejaVuSerif-6c"/>
    <path d="M 4.109375 0 
L 4.109375 5.171875 
L 12.203125 5.171875 
L 12.203125 46.6875 
L 3.609375 46.6875 
L 3.609375 51.90625 
L 21.1875 51.90625 
L 21.1875 42.671875 
Q 23.6875 47.953125 27.65625 50.640625 
Q 31.640625 53.328125 36.921875 53.328125 
Q 45.515625 53.328125 49.5625 48.390625 
Q 53.609375 43.453125 53.609375 33.015625 
L 53.609375 5.171875 
L 61.625 5.171875 
L 61.625 0 
L 36.8125 0 
L 36.8125 5.171875 
L 44.578125 5.171875 
L 44.578125 30.171875 
Q 44.578125 39.703125 42.234375 43.234375 
Q 39.890625 46.78125 33.984375 46.78125 
Q 27.734375 46.78125 24.453125 42.203125 
Q 21.1875 37.640625 21.1875 28.90625 
L 21.1875 5.171875 
L 29 5.171875 
L 29 0 
z
" id="DejaVuSerif-6e"/>
    <path d="M 29.109375 31.6875 
L 39.984375 46.6875 
L 33.015625 46.6875 
L 33.015625 51.90625 
L 52.984375 51.90625 
L 52.984375 46.6875 
L 46.09375 46.6875 
L 32.171875 27.484375 
L 48.390625 5.171875 
L 55.171875 5.171875 
L 55.171875 0 
L 31.203125 0 
L 31.203125 5.171875 
L 37.796875 5.171875 
L 26.515625 20.703125 
L 15.1875 5.171875 
L 21.921875 5.171875 
L 21.921875 0 
L 2.203125 0 
L 2.203125 5.171875 
L 9.078125 5.171875 
L 23.390625 24.90625 
L 7.625 46.6875 
L 1.21875 46.6875 
L 1.21875 51.90625 
L 24.421875 51.90625 
L 24.421875 46.6875 
L 18.21875 46.6875 
z
" id="DejaVuSerif-78"/>
   </defs>
   <g style="fill:#262626;" transform="translate(182.7773 15.7896)scale(0.1152 -0.1152)">
    <use xlink:href="#DejaVuSerif-3a"/>
    <use x="33.691406" xlink:href="#DejaVuSerif-20"/>
    <use x="65.478516" xlink:href="#DejaVuSerif-50"/>
    <use x="132.701172" xlink:href="#DejaVuSerif-6f"/>
    <use x="192.90625" xlink:href="#DejaVuSerif-72"/>
    <use x="240.708984" xlink:href="#DejaVuSerif-74"/>
    <use x="280.894531" xlink:href="#DejaVuSerif-66"/>
    <use x="317.90625" xlink:href="#DejaVuSerif-6f"/>
    <use x="378.111328" xlink:href="#DejaVuSerif-6c"/>
    <use x="410.09375" xlink:href="#DejaVuSerif-69"/>
    <use x="442.076172" xlink:href="#DejaVuSerif-6f"/>
    <use x="502.28125" xlink:href="#DejaVuSerif-20"/>
    <use x="534.068359" xlink:href="#DejaVuSerif-6e"/>
    <use x="598.472656" xlink:href="#DejaVuSerif-61"/>
    <use x="658.091797" xlink:href="#DejaVuSerif-6d"/>
    <use x="752.916016" xlink:href="#DejaVuSerif-65"/>
    <use x="812.095703" xlink:href="#DejaVuSerif-20"/>
    <use x="843.882812" xlink:href="#DejaVuSerif-20"/>
    <use x="875.669922" xlink:href="#DejaVuSerif-20"/>
    <use x="907.457031" xlink:href="#DejaVuSerif-20"/>
    <use x="939.244141" xlink:href="#DejaVuSerif-20"/>
    <use x="971.03125" xlink:href="#DejaVuSerif-20"/>
    <use x="1002.818359" xlink:href="#DejaVuSerif-20"/>
    <use x="1034.605469" xlink:href="#DejaVuSerif-20"/>
    <use x="1066.392578" xlink:href="#DejaVuSerif-20"/>
    <use x="1098.179688" xlink:href="#DejaVuSerif-20"/>
    <use x="1129.966797" xlink:href="#DejaVuSerif-20"/>
    <use x="1161.753906" xlink:href="#DejaVuSerif-78"/>
    <use x="1218.150391" xlink:href="#DejaVuSerif-78"/>
    <use x="1274.546875" xlink:href="#DejaVuSerif-20"/>
    <use x="1306.333984" xlink:href="#DejaVuSerif-20"/>
    <use x="1338.121094" xlink:href="#DejaVuSerif-20"/>
    <use x="1369.908203" xlink:href="#DejaVuSerif-20"/>
    <use x="1401.695312" xlink:href="#DejaVuSerif-20"/>
    <use x="1433.482422" xlink:href="#DejaVuSerif-20"/>
    <use x="1465.269531" xlink:href="#DejaVuSerif-20"/>
    <use x="1497.056641" xlink:href="#DejaVuSerif-20"/>
    <use x="1528.84375" xlink:href="#DejaVuSerif-20"/>
    <use x="1560.630859" xlink:href="#DejaVuSerif-20"/>
    <use x="1592.417969" xlink:href="#DejaVuSerif-20"/>
    <use x="1624.205078" xlink:href="#DejaVuSerif-20"/>
    <use x="1655.992188" xlink:href="#DejaVuSerif-20"/>
   </g>
   <!-- Theoretic expected loss             50.0 -->
   <defs>
    <path d="M 19.09375 0 
L 19.09375 5.171875 
L 28.421875 5.171875 
L 28.421875 67.09375 
L 6.984375 67.09375 
L 6.984375 55.71875 
L 0.984375 55.71875 
L 0.984375 72.90625 
L 65.71875 72.90625 
L 65.71875 55.71875 
L 59.71875 55.71875 
L 59.71875 67.09375 
L 38.28125 67.09375 
L 38.28125 5.171875 
L 47.609375 5.171875 
L 47.609375 0 
z
" id="DejaVuSerif-54"/>
    <path d="M 4.109375 0 
L 4.109375 5.171875 
L 12.203125 5.171875 
L 12.203125 70.796875 
L 3.609375 70.796875 
L 3.609375 75.984375 
L 21.1875 75.984375 
L 21.1875 42.671875 
Q 23.6875 47.953125 27.65625 50.640625 
Q 31.640625 53.328125 36.921875 53.328125 
Q 45.515625 53.328125 49.5625 48.390625 
Q 53.609375 43.453125 53.609375 33.015625 
L 53.609375 5.171875 
L 61.625 5.171875 
L 61.625 0 
L 36.8125 0 
L 36.8125 5.171875 
L 44.578125 5.171875 
L 44.578125 30.171875 
Q 44.578125 39.703125 42.25 43.1875 
Q 39.9375 46.6875 33.984375 46.6875 
Q 27.734375 46.6875 24.453125 42.140625 
Q 21.1875 37.59375 21.1875 28.90625 
L 21.1875 5.171875 
L 29 5.171875 
L 29 0 
z
" id="DejaVuSerif-68"/>
    <path d="M 51.421875 15.578125 
Q 49.515625 7.28125 44.09375 2.921875 
Q 38.671875 -1.421875 30.078125 -1.421875 
Q 18.75 -1.421875 11.859375 6.078125 
Q 4.984375 13.578125 4.984375 25.984375 
Q 4.984375 38.421875 11.859375 45.875 
Q 18.75 53.328125 30.078125 53.328125 
Q 35.015625 53.328125 39.890625 52.171875 
Q 44.78125 51.03125 49.703125 48.6875 
L 49.703125 35.40625 
L 44.484375 35.40625 
Q 43.453125 42.234375 40.015625 45.359375 
Q 36.578125 48.484375 30.171875 48.484375 
Q 22.90625 48.484375 19.1875 42.84375 
Q 15.484375 37.203125 15.484375 25.984375 
Q 15.484375 14.75 19.171875 9.078125 
Q 22.859375 3.421875 30.171875 3.421875 
Q 35.984375 3.421875 39.453125 6.4375 
Q 42.921875 9.46875 44.1875 15.578125 
z
" id="DejaVuSerif-63"/>
    <path d="M 20.515625 28.515625 
L 20.515625 23.390625 
Q 20.515625 14.015625 24.09375 9.109375 
Q 27.6875 4.203125 34.515625 4.203125 
Q 41.40625 4.203125 44.9375 9.71875 
Q 48.484375 15.234375 48.484375 25.984375 
Q 48.484375 36.765625 44.9375 42.234375 
Q 41.40625 47.703125 34.515625 47.703125 
Q 27.6875 47.703125 24.09375 42.765625 
Q 20.515625 37.84375 20.515625 28.515625 
z
M 11.53125 46.6875 
L 2.875 46.6875 
L 2.875 51.90625 
L 20.515625 51.90625 
L 20.515625 43.796875 
Q 23.140625 48.6875 27.21875 51 
Q 31.296875 53.328125 37.3125 53.328125 
Q 46.875 53.328125 52.921875 45.75 
Q 58.984375 38.1875 58.984375 25.984375 
Q 58.984375 13.765625 52.921875 6.171875 
Q 46.875 -1.421875 37.3125 -1.421875 
Q 31.296875 -1.421875 27.21875 0.890625 
Q 23.140625 3.21875 20.515625 8.109375 
L 20.515625 -15.578125 
L 29 -15.578125 
L 29 -20.796875 
L 2.875 -20.796875 
L 2.875 -15.578125 
L 11.53125 -15.578125 
z
" id="DejaVuSerif-70"/>
    <path d="M 5.609375 2.875 
L 5.609375 14.984375 
L 10.796875 14.984375 
Q 10.984375 9.1875 14.421875 6.296875 
Q 17.875 3.421875 24.609375 3.421875 
Q 30.671875 3.421875 33.84375 5.6875 
Q 37.015625 7.953125 37.015625 12.3125 
Q 37.015625 15.71875 34.6875 17.8125 
Q 32.375 19.921875 24.90625 22.3125 
L 18.40625 24.515625 
Q 11.71875 26.65625 8.71875 29.875 
Q 5.71875 33.109375 5.71875 38.09375 
Q 5.71875 45.21875 10.9375 49.265625 
Q 16.15625 53.328125 25.390625 53.328125 
Q 29.5 53.328125 34.03125 52.25 
Q 38.578125 51.171875 43.40625 49.125 
L 43.40625 37.796875 
L 38.234375 37.796875 
Q 38.03125 42.828125 34.703125 45.65625 
Q 31.390625 48.484375 25.6875 48.484375 
Q 20.015625 48.484375 17.109375 46.484375 
Q 14.203125 44.484375 14.203125 40.484375 
Q 14.203125 37.203125 16.40625 35.21875 
Q 18.609375 33.25 25.203125 31.203125 
L 32.328125 29 
Q 39.703125 26.703125 42.9375 23.265625 
Q 46.1875 19.828125 46.1875 14.40625 
Q 46.1875 7.03125 40.546875 2.796875 
Q 34.90625 -1.421875 25 -1.421875 
Q 19.96875 -1.421875 15.1875 -0.34375 
Q 10.40625 0.734375 5.609375 2.875 
z
" id="DejaVuSerif-73"/>
   </defs>
   <g style="fill:#262626;" transform="translate(174.1148 28.68948)scale(0.1152 -0.1152)">
    <use xlink:href="#DejaVuSerif-54"/>
    <use x="66.699219" xlink:href="#DejaVuSerif-68"/>
    <use x="131.103516" xlink:href="#DejaVuSerif-65"/>
    <use x="190.283203" xlink:href="#DejaVuSerif-6f"/>
    <use x="250.488281" xlink:href="#DejaVuSerif-72"/>
    <use x="298.291016" xlink:href="#DejaVuSerif-65"/>
    <use x="357.470703" xlink:href="#DejaVuSerif-74"/>
    <use x="397.65625" xlink:href="#DejaVuSerif-69"/>
    <use x="429.638672" xlink:href="#DejaVuSerif-63"/>
    <use x="485.644531" xlink:href="#DejaVuSerif-20"/>
    <use x="517.431641" xlink:href="#DejaVuSerif-65"/>
    <use x="576.611328" xlink:href="#DejaVuSerif-78"/>
    <use x="633.007812" xlink:href="#DejaVuSerif-70"/>
    <use x="697.021484" xlink:href="#DejaVuSerif-65"/>
    <use x="756.201172" xlink:href="#DejaVuSerif-63"/>
    <use x="812.207031" xlink:href="#DejaVuSerif-74"/>
    <use x="852.392578" xlink:href="#DejaVuSerif-65"/>
    <use x="911.572266" xlink:href="#DejaVuSerif-64"/>
    <use x="975.585938" xlink:href="#DejaVuSerif-20"/>
    <use x="1007.373047" xlink:href="#DejaVuSerif-6c"/>
    <use x="1039.355469" xlink:href="#DejaVuSerif-6f"/>
    <use x="1099.560547" xlink:href="#DejaVuSerif-73"/>
    <use x="1150.878906" xlink:href="#DejaVuSerif-73"/>
    <use x="1202.197266" xlink:href="#DejaVuSerif-20"/>
    <use x="1233.984375" xlink:href="#DejaVuSerif-20"/>
    <use x="1265.771484" xlink:href="#DejaVuSerif-20"/>
    <use x="1297.558594" xlink:href="#DejaVuSerif-20"/>
    <use x="1329.345703" xlink:href="#DejaVuSerif-20"/>
    <use x="1361.132812" xlink:href="#DejaVuSerif-20"/>
    <use x="1392.919922" xlink:href="#DejaVuSerif-20"/>
    <use x="1424.707031" xlink:href="#DejaVuSerif-20"/>
    <use x="1456.494141" xlink:href="#DejaVuSerif-20"/>
    <use x="1488.28125" xlink:href="#DejaVuSerif-20"/>
    <use x="1520.068359" xlink:href="#DejaVuSerif-20"/>
    <use x="1551.855469" xlink:href="#DejaVuSerif-20"/>
    <use x="1583.642578" xlink:href="#DejaVuSerif-20"/>
    <use x="1615.429688" xlink:href="#DejaVuSerif-35"/>
    <use x="1679.052734" xlink:href="#DejaVuSerif-30"/>
    <use x="1742.675781" xlink:href="#DejaVuSerif-2e"/>
    <use x="1774.462891" xlink:href="#DejaVuSerif-30"/>
   </g>
   <!-- Actual expected loss                46.2 -->
   <defs>
    <path d="M 20.015625 26.421875 
L 46.78125 26.421875 
L 33.40625 61.078125 
z
M -0.59375 0 
L -0.59375 5.171875 
L 5.8125 5.171875 
L 31.78125 72.90625 
L 39.984375 72.90625 
L 66.015625 5.171875 
L 73.1875 5.171875 
L 73.1875 0 
L 46.6875 0 
L 46.6875 5.171875 
L 54.78125 5.171875 
L 48.6875 21.1875 
L 18.015625 21.1875 
L 11.921875 5.171875 
L 19.921875 5.171875 
L 19.921875 0 
z
" id="DejaVuSerif-41"/>
    <path d="M 35.40625 51.90625 
L 52.203125 51.90625 
L 52.203125 5.171875 
L 60.6875 5.171875 
L 60.6875 0 
L 43.21875 0 
L 43.21875 9.1875 
Q 40.71875 4 36.765625 1.28125 
Q 32.8125 -1.421875 27.59375 -1.421875 
Q 18.953125 -1.421875 14.875 3.484375 
Q 10.796875 8.40625 10.796875 18.890625 
L 10.796875 46.6875 
L 2.6875 46.6875 
L 2.6875 51.90625 
L 19.828125 51.90625 
L 19.828125 21.6875 
Q 19.828125 12.203125 22.140625 8.6875 
Q 24.46875 5.171875 30.421875 5.171875 
Q 36.671875 5.171875 39.9375 9.765625 
Q 43.21875 14.359375 43.21875 23.09375 
L 43.21875 46.6875 
L 35.40625 46.6875 
z
" id="DejaVuSerif-75"/>
   </defs>
   <g style="fill:#262626;" transform="translate(177.9101 41.58936)scale(0.1152 -0.1152)">
    <use xlink:href="#DejaVuSerif-41"/>
    <use x="72.216797" xlink:href="#DejaVuSerif-63"/>
    <use x="128.222656" xlink:href="#DejaVuSerif-74"/>
    <use x="168.408203" xlink:href="#DejaVuSerif-75"/>
    <use x="232.8125" xlink:href="#DejaVuSerif-61"/>
    <use x="292.431641" xlink:href="#DejaVuSerif-6c"/>
    <use x="324.414062" xlink:href="#DejaVuSerif-20"/>
    <use x="356.201172" xlink:href="#DejaVuSerif-65"/>
    <use x="415.380859" xlink:href="#DejaVuSerif-78"/>
    <use x="471.777344" xlink:href="#DejaVuSerif-70"/>
    <use x="535.791016" xlink:href="#DejaVuSerif-65"/>
    <use x="594.970703" xlink:href="#DejaVuSerif-63"/>
    <use x="650.976562" xlink:href="#DejaVuSerif-74"/>
    <use x="691.162109" xlink:href="#DejaVuSerif-65"/>
    <use x="750.341797" xlink:href="#DejaVuSerif-64"/>
    <use x="814.355469" xlink:href="#DejaVuSerif-20"/>
    <use x="846.142578" xlink:href="#DejaVuSerif-6c"/>
    <use x="878.125" xlink:href="#DejaVuSerif-6f"/>
    <use x="938.330078" xlink:href="#DejaVuSerif-73"/>
    <use x="989.648438" xlink:href="#DejaVuSerif-73"/>
    <use x="1040.966797" xlink:href="#DejaVuSerif-20"/>
    <use x="1072.753906" xlink:href="#DejaVuSerif-20"/>
    <use x="1104.541016" xlink:href="#DejaVuSerif-20"/>
    <use x="1136.328125" xlink:href="#DejaVuSerif-20"/>
    <use x="1168.115234" xlink:href="#DejaVuSerif-20"/>
    <use x="1199.902344" xlink:href="#DejaVuSerif-20"/>
    <use x="1231.689453" xlink:href="#DejaVuSerif-20"/>
    <use x="1263.476562" xlink:href="#DejaVuSerif-20"/>
    <use x="1295.263672" xlink:href="#DejaVuSerif-20"/>
    <use x="1327.050781" xlink:href="#DejaVuSerif-20"/>
    <use x="1358.837891" xlink:href="#DejaVuSerif-20"/>
    <use x="1390.625" xlink:href="#DejaVuSerif-20"/>
    <use x="1422.412109" xlink:href="#DejaVuSerif-20"/>
    <use x="1454.199219" xlink:href="#DejaVuSerif-20"/>
    <use x="1485.986328" xlink:href="#DejaVuSerif-20"/>
    <use x="1517.773438" xlink:href="#DejaVuSerif-20"/>
    <use x="1549.560547" xlink:href="#DejaVuSerif-34"/>
    <use x="1613.183594" xlink:href="#DejaVuSerif-36"/>
    <use x="1676.806641" xlink:href="#DejaVuSerif-2e"/>
    <use x="1708.59375" xlink:href="#DejaVuSerif-32"/>
   </g>
   <!-- Error                          -0.076078 -->
   <defs>
    <path d="M 5.515625 0 
L 5.515625 5.171875 
L 14.796875 5.171875 
L 14.796875 67.671875 
L 5.515625 67.671875 
L 5.515625 72.90625 
L 64.203125 72.90625 
L 64.203125 56.6875 
L 58.203125 56.6875 
L 58.203125 66.890625 
L 24.703125 66.890625 
L 24.703125 42.484375 
L 48.578125 42.484375 
L 48.578125 51.609375 
L 54.59375 51.609375 
L 54.59375 27.390625 
L 48.578125 27.390625 
L 48.578125 36.53125 
L 24.703125 36.53125 
L 24.703125 6 
L 58.984375 6 
L 58.984375 16.21875 
L 64.984375 16.21875 
L 64.984375 0 
z
" id="DejaVuSerif-45"/>
    <path d="M 4.390625 30.609375 
L 29.390625 30.609375 
L 29.390625 23 
L 4.390625 23 
z
" id="DejaVuSerif-2d"/>
   </defs>
   <g style="fill:#262626;" transform="translate(187.0262 54.48924)scale(0.1152 -0.1152)">
    <use xlink:href="#DejaVuSerif-45"/>
    <use x="72.998047" xlink:href="#DejaVuSerif-72"/>
    <use x="120.800781" xlink:href="#DejaVuSerif-72"/>
    <use x="168.603516" xlink:href="#DejaVuSerif-6f"/>
    <use x="228.808594" xlink:href="#DejaVuSerif-72"/>
    <use x="276.611328" xlink:href="#DejaVuSerif-20"/>
    <use x="308.398438" xlink:href="#DejaVuSerif-20"/>
    <use x="340.185547" xlink:href="#DejaVuSerif-20"/>
    <use x="371.972656" xlink:href="#DejaVuSerif-20"/>
    <use x="403.759766" xlink:href="#DejaVuSerif-20"/>
    <use x="435.546875" xlink:href="#DejaVuSerif-20"/>
    <use x="467.333984" xlink:href="#DejaVuSerif-20"/>
    <use x="499.121094" xlink:href="#DejaVuSerif-20"/>
    <use x="530.908203" xlink:href="#DejaVuSerif-20"/>
    <use x="562.695312" xlink:href="#DejaVuSerif-20"/>
    <use x="594.482422" xlink:href="#DejaVuSerif-20"/>
    <use x="626.269531" xlink:href="#DejaVuSerif-20"/>
    <use x="658.056641" xlink:href="#DejaVuSerif-20"/>
    <use x="689.84375" xlink:href="#DejaVuSerif-20"/>
    <use x="721.630859" xlink:href="#DejaVuSerif-20"/>
    <use x="753.417969" xlink:href="#DejaVuSerif-20"/>
    <use x="785.205078" xlink:href="#DejaVuSerif-20"/>
    <use x="816.992188" xlink:href="#DejaVuSerif-20"/>
    <use x="848.779297" xlink:href="#DejaVuSerif-20"/>
    <use x="880.566406" xlink:href="#DejaVuSerif-20"/>
    <use x="912.353516" xlink:href="#DejaVuSerif-20"/>
    <use x="944.140625" xlink:href="#DejaVuSerif-20"/>
    <use x="975.927734" xlink:href="#DejaVuSerif-20"/>
    <use x="1007.714844" xlink:href="#DejaVuSerif-20"/>
    <use x="1039.501953" xlink:href="#DejaVuSerif-20"/>
    <use x="1071.289062" xlink:href="#DejaVuSerif-20"/>
    <use x="1103.076172" xlink:href="#DejaVuSerif-2d"/>
    <use x="1136.865234" xlink:href="#DejaVuSerif-30"/>
    <use x="1200.488281" xlink:href="#DejaVuSerif-2e"/>
    <use x="1232.275391" xlink:href="#DejaVuSerif-30"/>
    <use x="1295.898438" xlink:href="#DejaVuSerif-37"/>
    <use x="1359.521484" xlink:href="#DejaVuSerif-36"/>
    <use x="1423.144531" xlink:href="#DejaVuSerif-30"/>
    <use x="1486.767578" xlink:href="#DejaVuSerif-37"/>
    <use x="1550.390625" xlink:href="#DejaVuSerif-38"/>
   </g>
   <!-- Discretization size                    6 -->
   <defs>
    <path d="M 4 0 
L 4 4.203125 
L 36.53125 46.6875 
L 10.796875 46.6875 
L 10.796875 37.703125 
L 5.609375 37.703125 
L 5.609375 51.90625 
L 48.09375 51.90625 
L 48.09375 47.703125 
L 15.578125 5.171875 
L 43.796875 5.171875 
L 43.796875 14.59375 
L 49.03125 14.59375 
L 49.03125 0 
z
" id="DejaVuSerif-7a"/>
   </defs>
   <g style="fill:#262626;" transform="translate(185.8706 67.38912)scale(0.1152 -0.1152)">
    <use xlink:href="#DejaVuSerif-44"/>
    <use x="80.175781" xlink:href="#DejaVuSerif-69"/>
    <use x="112.158203" xlink:href="#DejaVuSerif-73"/>
    <use x="163.476562" xlink:href="#DejaVuSerif-63"/>
    <use x="219.482422" xlink:href="#DejaVuSerif-72"/>
    <use x="267.285156" xlink:href="#DejaVuSerif-65"/>
    <use x="326.464844" xlink:href="#DejaVuSerif-74"/>
    <use x="366.650391" xlink:href="#DejaVuSerif-69"/>
    <use x="398.632812" xlink:href="#DejaVuSerif-7a"/>
    <use x="451.318359" xlink:href="#DejaVuSerif-61"/>
    <use x="510.9375" xlink:href="#DejaVuSerif-74"/>
    <use x="551.123047" xlink:href="#DejaVuSerif-69"/>
    <use x="583.105469" xlink:href="#DejaVuSerif-6f"/>
    <use x="643.310547" xlink:href="#DejaVuSerif-6e"/>
    <use x="707.714844" xlink:href="#DejaVuSerif-20"/>
    <use x="739.501953" xlink:href="#DejaVuSerif-73"/>
    <use x="790.820312" xlink:href="#DejaVuSerif-69"/>
    <use x="822.802734" xlink:href="#DejaVuSerif-7a"/>
    <use x="875.488281" xlink:href="#DejaVuSerif-65"/>
    <use x="934.667969" xlink:href="#DejaVuSerif-20"/>
    <use x="966.455078" xlink:href="#DejaVuSerif-20"/>
    <use x="998.242188" xlink:href="#DejaVuSerif-20"/>
    <use x="1030.029297" xlink:href="#DejaVuSerif-20"/>
    <use x="1061.816406" xlink:href="#DejaVuSerif-20"/>
    <use x="1093.603516" xlink:href="#DejaVuSerif-20"/>
    <use x="1125.390625" xlink:href="#DejaVuSerif-20"/>
    <use x="1157.177734" xlink:href="#DejaVuSerif-20"/>
    <use x="1188.964844" xlink:href="#DejaVuSerif-20"/>
    <use x="1220.751953" xlink:href="#DejaVuSerif-20"/>
    <use x="1252.539062" xlink:href="#DejaVuSerif-20"/>
    <use x="1284.326172" xlink:href="#DejaVuSerif-20"/>
    <use x="1316.113281" xlink:href="#DejaVuSerif-20"/>
    <use x="1347.900391" xlink:href="#DejaVuSerif-20"/>
    <use x="1379.6875" xlink:href="#DejaVuSerif-20"/>
    <use x="1411.474609" xlink:href="#DejaVuSerif-20"/>
    <use x="1443.261719" xlink:href="#DejaVuSerif-20"/>
    <use x="1475.048828" xlink:href="#DejaVuSerif-20"/>
    <use x="1506.835938" xlink:href="#DejaVuSerif-20"/>
    <use x="1538.623047" xlink:href="#DejaVuSerif-20"/>
    <use x="1570.410156" xlink:href="#DejaVuSerif-36"/>
   </g>
   <!-- Bucket size                        10.00 -->
   <defs>
    <path d="M 24.703125 5.171875 
L 39.3125 5.171875 
Q 48.09375 5.171875 52.140625 8.984375 
Q 56.203125 12.796875 56.203125 21.09375 
Q 56.203125 29.34375 52.171875 33.125 
Q 48.140625 36.921875 39.3125 36.921875 
L 24.703125 36.921875 
z
M 24.703125 42.09375 
L 37.109375 42.09375 
Q 45.125 42.09375 48.796875 45.171875 
Q 52.484375 48.25 52.484375 54.890625 
Q 52.484375 61.578125 48.796875 64.625 
Q 45.125 67.671875 37.109375 67.671875 
L 24.703125 67.671875 
z
M 5.515625 0 
L 5.515625 5.171875 
L 14.796875 5.171875 
L 14.796875 67.671875 
L 5.515625 67.671875 
L 5.515625 72.90625 
L 41.5 72.90625 
Q 52.546875 72.90625 58.125 68.390625 
Q 63.71875 63.875 63.71875 54.890625 
Q 63.71875 48.390625 59.828125 44.53125 
Q 55.953125 40.671875 48.484375 39.796875 
Q 57.765625 38.625 62.578125 33.859375 
Q 67.390625 29.109375 67.390625 21.09375 
Q 67.390625 10.25 60.546875 5.125 
Q 53.71875 0 39.203125 0 
z
" id="DejaVuSerif-42"/>
    <path d="M 28.609375 0 
L 3.421875 0 
L 3.421875 5.171875 
L 11.53125 5.171875 
L 11.53125 70.796875 
L 2.875 70.796875 
L 2.875 75.984375 
L 20.515625 75.984375 
L 20.515625 26.515625 
L 42.390625 46.6875 
L 34.90625 46.6875 
L 34.90625 51.90625 
L 58.40625 51.90625 
L 58.40625 46.6875 
L 49.515625 46.6875 
L 34.078125 32.421875 
L 53.8125 5.171875 
L 61.28125 5.171875 
L 61.28125 0 
L 35.6875 0 
L 35.6875 5.171875 
L 43.109375 5.171875 
L 27.59375 26.515625 
L 20.515625 19.921875 
L 20.515625 5.171875 
L 28.609375 5.171875 
z
" id="DejaVuSerif-6b"/>
   </defs>
   <g style="fill:#262626;" transform="translate(186.1055 80.289)scale(0.1152 -0.1152)">
    <use xlink:href="#DejaVuSerif-42"/>
    <use x="73.486328" xlink:href="#DejaVuSerif-75"/>
    <use x="137.890625" xlink:href="#DejaVuSerif-63"/>
    <use x="193.896484" xlink:href="#DejaVuSerif-6b"/>
    <use x="254.492188" xlink:href="#DejaVuSerif-65"/>
    <use x="313.671875" xlink:href="#DejaVuSerif-74"/>
    <use x="353.857422" xlink:href="#DejaVuSerif-20"/>
    <use x="385.644531" xlink:href="#DejaVuSerif-73"/>
    <use x="436.962891" xlink:href="#DejaVuSerif-69"/>
    <use x="468.945312" xlink:href="#DejaVuSerif-7a"/>
    <use x="521.630859" xlink:href="#DejaVuSerif-65"/>
    <use x="580.810547" xlink:href="#DejaVuSerif-20"/>
    <use x="612.597656" xlink:href="#DejaVuSerif-20"/>
    <use x="644.384766" xlink:href="#DejaVuSerif-20"/>
    <use x="676.171875" xlink:href="#DejaVuSerif-20"/>
    <use x="707.958984" xlink:href="#DejaVuSerif-20"/>
    <use x="739.746094" xlink:href="#DejaVuSerif-20"/>
    <use x="771.533203" xlink:href="#DejaVuSerif-20"/>
    <use x="803.320312" xlink:href="#DejaVuSerif-20"/>
    <use x="835.107422" xlink:href="#DejaVuSerif-20"/>
    <use x="866.894531" xlink:href="#DejaVuSerif-20"/>
    <use x="898.681641" xlink:href="#DejaVuSerif-20"/>
    <use x="930.46875" xlink:href="#DejaVuSerif-20"/>
    <use x="962.255859" xlink:href="#DejaVuSerif-20"/>
    <use x="994.042969" xlink:href="#DejaVuSerif-20"/>
    <use x="1025.830078" xlink:href="#DejaVuSerif-20"/>
    <use x="1057.617188" xlink:href="#DejaVuSerif-20"/>
    <use x="1089.404297" xlink:href="#DejaVuSerif-20"/>
    <use x="1121.191406" xlink:href="#DejaVuSerif-20"/>
    <use x="1152.978516" xlink:href="#DejaVuSerif-20"/>
    <use x="1184.765625" xlink:href="#DejaVuSerif-20"/>
    <use x="1216.552734" xlink:href="#DejaVuSerif-20"/>
    <use x="1248.339844" xlink:href="#DejaVuSerif-20"/>
    <use x="1280.126953" xlink:href="#DejaVuSerif-20"/>
    <use x="1311.914062" xlink:href="#DejaVuSerif-20"/>
    <use x="1343.701172" xlink:href="#DejaVuSerif-31"/>
    <use x="1407.324219" xlink:href="#DejaVuSerif-30"/>
    <use x="1470.947266" xlink:href="#DejaVuSerif-2e"/>
    <use x="1502.734375" xlink:href="#DejaVuSerif-30"/>
    <use x="1566.357422" xlink:href="#DejaVuSerif-30"/>
   </g>
   <!-- &lt;aggregate.port.Portfolio object at 0x000001979CA388D0&gt; -->
   <defs>
    <path d="M 73.1875 49.8125 
L 22.515625 31.296875 
L 73.1875 12.890625 
L 73.1875 4.59375 
L 10.59375 27.296875 
L 10.59375 35.40625 
L 73.1875 58.109375 
z
" id="DejaVuSerif-3c"/>
    <path d="M 11.53125 5.171875 
L 11.53125 70.796875 
L 2.875 70.796875 
L 2.875 75.984375 
L 20.515625 75.984375 
L 20.515625 43.796875 
Q 23.140625 48.6875 27.21875 51 
Q 31.296875 53.328125 37.3125 53.328125 
Q 46.875 53.328125 52.921875 45.75 
Q 58.984375 38.1875 58.984375 25.984375 
Q 58.984375 13.765625 52.921875 6.171875 
Q 46.875 -1.421875 37.3125 -1.421875 
Q 31.296875 -1.421875 27.21875 0.890625 
Q 23.140625 3.21875 20.515625 8.109375 
L 20.515625 0 
L 2.875 0 
L 2.875 5.171875 
z
M 20.515625 23.390625 
Q 20.515625 14.015625 24.09375 9.109375 
Q 27.6875 4.203125 34.515625 4.203125 
Q 41.40625 4.203125 44.9375 9.71875 
Q 48.484375 15.234375 48.484375 25.984375 
Q 48.484375 36.765625 44.9375 42.234375 
Q 41.40625 47.703125 34.515625 47.703125 
Q 27.6875 47.703125 24.09375 42.765625 
Q 20.515625 37.84375 20.515625 28.515625 
z
" id="DejaVuSerif-62"/>
    <path d="M 10.015625 68.015625 
Q 10.015625 70.265625 11.640625 71.921875 
Q 13.28125 73.578125 15.578125 73.578125 
Q 17.828125 73.578125 19.453125 71.921875 
Q 21.09375 70.265625 21.09375 68.015625 
Q 21.09375 65.71875 19.5 64.109375 
Q 17.921875 62.5 15.578125 62.5 
Q 13.28125 62.5 11.640625 64.109375 
Q 10.015625 65.71875 10.015625 68.015625 
z
M 12.203125 46.6875 
L 3.71875 46.6875 
L 3.71875 51.90625 
L 21.1875 51.90625 
L 21.1875 -5.078125 
Q 21.1875 -13.09375 16.421875 -17.65625 
Q 11.671875 -22.21875 3.328125 -22.21875 
Q -0.203125 -22.21875 -3.390625 -21.40625 
Q -6.59375 -20.609375 -9.625 -19 
L -9.625 -8.296875 
L -4.984375 -8.296875 
Q -4.640625 -12.984375 -2.5625 -15.1875 
Q -0.484375 -17.390625 3.515625 -17.390625 
Q 7.953125 -17.390625 10.078125 -14.375 
Q 12.203125 -11.375 12.203125 -5.078125 
z
" id="DejaVuSerif-6a"/>
    <path d="M 46.78125 32.671875 
Q 43.5 29 39.25 27.1875 
Q 35.015625 25.390625 29.6875 25.390625 
Q 18.84375 25.390625 12.5625 31.9375 
Q 6.296875 38.484375 6.296875 49.8125 
Q 6.296875 60.890625 13.109375 67.546875 
Q 19.921875 74.21875 31.296875 74.21875 
Q 43.65625 74.21875 50.265625 65.015625 
Q 56.890625 55.8125 56.890625 38.71875 
Q 56.890625 19.578125 49.015625 9.078125 
Q 41.15625 -1.421875 26.90625 -1.421875 
Q 23.046875 -1.421875 18.796875 -0.6875 
Q 14.546875 0.046875 10.109375 1.515625 
L 10.109375 13.625 
L 15.578125 13.625 
Q 16.21875 8.6875 19.390625 6.046875 
Q 22.5625 3.421875 27.875 3.421875 
Q 37.359375 3.421875 41.984375 10.5625 
Q 46.625 17.71875 46.78125 32.671875 
z
M 30.90625 69.390625 
Q 23.96875 69.390625 20.28125 64.328125 
Q 16.609375 59.28125 16.609375 49.8125 
Q 16.609375 40.328125 20.28125 35.25 
Q 23.96875 30.171875 30.90625 30.171875 
Q 37.84375 30.171875 41.53125 35.078125 
Q 45.21875 39.984375 45.21875 49.21875 
Q 45.21875 58.9375 41.5 64.15625 
Q 37.796875 69.390625 30.90625 69.390625 
z
" id="DejaVuSerif-39"/>
    <path d="M 9.71875 69.828125 
Q 15.4375 71.96875 20.671875 73.09375 
Q 25.921875 74.21875 30.515625 74.21875 
Q 41.21875 74.21875 47.21875 69.59375 
Q 53.21875 64.984375 53.21875 56.78125 
Q 53.21875 50.203125 49.0625 45.78125 
Q 44.921875 41.359375 37.3125 39.796875 
Q 46.296875 38.53125 51.25 33.28125 
Q 56.203125 28.03125 56.203125 19.671875 
Q 56.203125 9.46875 49.34375 4.015625 
Q 42.484375 -1.421875 29.59375 -1.421875 
Q 23.875 -1.421875 18.421875 -0.1875 
Q 12.984375 1.03125 7.625 3.515625 
L 7.625 17.671875 
L 13.09375 17.671875 
Q 13.578125 10.640625 17.828125 7.03125 
Q 22.078125 3.421875 29.78125 3.421875 
Q 37.25 3.421875 41.578125 7.734375 
Q 45.90625 12.0625 45.90625 19.578125 
Q 45.90625 28.171875 41.453125 32.59375 
Q 37.015625 37.015625 28.421875 37.015625 
L 23.78125 37.015625 
L 23.78125 42 
L 26.21875 42 
Q 34.765625 42 39.03125 45.53125 
Q 43.3125 49.078125 43.3125 56.203125 
Q 43.3125 62.59375 39.796875 65.984375 
Q 36.28125 69.390625 29.6875 69.390625 
Q 23.09375 69.390625 19.453125 66.265625 
Q 15.828125 63.140625 15.1875 56.984375 
L 9.71875 56.984375 
z
" id="DejaVuSerif-33"/>
    <path d="M 10.59375 49.8125 
L 10.59375 58.109375 
L 73.1875 35.40625 
L 73.1875 27.296875 
L 10.59375 4.59375 
L 10.59375 12.890625 
L 61.28125 31.296875 
z
" id="DejaVuSerif-3e"/>
   </defs>
   <g style="fill:#262626;" transform="translate(102.599 93.18888)scale(0.1152 -0.1152)">
    <use xlink:href="#DejaVuSerif-3c"/>
    <use x="83.789062" xlink:href="#DejaVuSerif-61"/>
    <use x="143.408203" xlink:href="#DejaVuSerif-67"/>
    <use x="207.421875" xlink:href="#DejaVuSerif-67"/>
    <use x="271.435547" xlink:href="#DejaVuSerif-72"/>
    <use x="319.238281" xlink:href="#DejaVuSerif-65"/>
    <use x="378.417969" xlink:href="#DejaVuSerif-67"/>
    <use x="442.431641" xlink:href="#DejaVuSerif-61"/>
    <use x="502.050781" xlink:href="#DejaVuSerif-74"/>
    <use x="542.236328" xlink:href="#DejaVuSerif-65"/>
    <use x="601.416016" xlink:href="#DejaVuSerif-2e"/>
    <use x="633.203125" xlink:href="#DejaVuSerif-70"/>
    <use x="697.216797" xlink:href="#DejaVuSerif-6f"/>
    <use x="757.421875" xlink:href="#DejaVuSerif-72"/>
    <use x="805.224609" xlink:href="#DejaVuSerif-74"/>
    <use x="845.410156" xlink:href="#DejaVuSerif-2e"/>
    <use x="877.197266" xlink:href="#DejaVuSerif-50"/>
    <use x="944.419922" xlink:href="#DejaVuSerif-6f"/>
    <use x="1004.625" xlink:href="#DejaVuSerif-72"/>
    <use x="1052.427734" xlink:href="#DejaVuSerif-74"/>
    <use x="1092.613281" xlink:href="#DejaVuSerif-66"/>
    <use x="1129.625" xlink:href="#DejaVuSerif-6f"/>
    <use x="1189.830078" xlink:href="#DejaVuSerif-6c"/>
    <use x="1221.8125" xlink:href="#DejaVuSerif-69"/>
    <use x="1253.794922" xlink:href="#DejaVuSerif-6f"/>
    <use x="1314" xlink:href="#DejaVuSerif-20"/>
    <use x="1345.787109" xlink:href="#DejaVuSerif-6f"/>
    <use x="1405.992188" xlink:href="#DejaVuSerif-62"/>
    <use x="1470.005859" xlink:href="#DejaVuSerif-6a"/>
    <use x="1501.011719" xlink:href="#DejaVuSerif-65"/>
    <use x="1560.191406" xlink:href="#DejaVuSerif-63"/>
    <use x="1616.197266" xlink:href="#DejaVuSerif-74"/>
    <use x="1656.382812" xlink:href="#DejaVuSerif-20"/>
    <use x="1688.169922" xlink:href="#DejaVuSerif-61"/>
    <use x="1747.789062" xlink:href="#DejaVuSerif-74"/>
    <use x="1787.974609" xlink:href="#DejaVuSerif-20"/>
    <use x="1819.761719" xlink:href="#DejaVuSerif-30"/>
    <use x="1883.384766" xlink:href="#DejaVuSerif-78"/>
    <use x="1939.78125" xlink:href="#DejaVuSerif-30"/>
    <use x="2003.404297" xlink:href="#DejaVuSerif-30"/>
    <use x="2067.027344" xlink:href="#DejaVuSerif-30"/>
    <use x="2130.650391" xlink:href="#DejaVuSerif-30"/>
    <use x="2194.273438" xlink:href="#DejaVuSerif-30"/>
    <use x="2257.896484" xlink:href="#DejaVuSerif-31"/>
    <use x="2321.519531" xlink:href="#DejaVuSerif-39"/>
    <use x="2385.142578" xlink:href="#DejaVuSerif-37"/>
    <use x="2448.765625" xlink:href="#DejaVuSerif-39"/>
    <use x="2512.388672" xlink:href="#DejaVuSerif-43"/>
    <use x="2588.902344" xlink:href="#DejaVuSerif-41"/>
    <use x="2661.119141" xlink:href="#DejaVuSerif-33"/>
    <use x="2724.742188" xlink:href="#DejaVuSerif-38"/>
    <use x="2788.365234" xlink:href="#DejaVuSerif-38"/>
    <use x="2851.988281" xlink:href="#DejaVuSerif-44"/>
    <use x="2932.164062" xlink:href="#DejaVuSerif-30"/>
    <use x="2995.787109" xlink:href="#DejaVuSerif-3e"/>
   </g>
  </g>
 </g>
 <defs>
  <clipPath id="p0a26dc2e67">
   <rect height="96.664" width="98.34625" x="35.7025" y="33.568"/>
  </clipPath>
  <clipPath id="p0f5093f22a">
   <rect height="96.664" width="98.34625" x="173.95425" y="33.568"/>
  </clipPath>
  <clipPath id="pfead10f438">
   <rect height="96.664" width="98.34625" x="312.206" y="33.568"/>
  </clipPath>
  <clipPath id="p53b34da65d">
   <rect height="96.664" width="98.34625" x="450.45775" y="33.568"/>
  </clipPath>
 </defs>
</svg>
