<?xml version="1.0" encoding="utf-8" standalone="no"?>
<!DOCTYPE svg PUBLIC "-//W3C//DTD SVG 1.1//EN"
  "http://www.w3.org/Graphics/SVG/1.1/DTD/svg11.dtd">
<!-- Created with matplotlib (http://matplotlib.org/) -->
<svg height="150.7745pt" version="1.1" viewBox="0 0 568.223375 150.7745" width="568.223375pt" xmlns="http://www.w3.org/2000/svg" xmlns:xlink="http://www.w3.org/1999/xlink">
 <defs>
  <style type="text/css">
*{stroke-linecap:butt;stroke-linejoin:round;}
  </style>
 </defs>
 <g id="figure_1">
  <g id="patch_1">
   <path d="M 0 150.7745 
L 568.223375 150.7745 
L 568.223375 -0 
L 0 -0 
z
" style="fill:#ffffff;"/>
  </g>
  <g id="axes_1">
   <g id="patch_2">
    <path d="M 31.52 130.232 
L 134.115488 130.232 
L 134.115488 33.568 
L 31.52 33.568 
z
" style="fill:#eaeaf2;"/>
   </g>
   <g id="matplotlib.axis_1">
    <g id="xtick_1">
     <g id="line2d_1">
      <path clip-path="url(#p59d9fcace7)" d="M 36.183431 130.232 
L 36.183431 33.568 
" style="fill:none;stroke:#ffffff;stroke-linecap:round;stroke-width:0.8;"/>
     </g>
     <g id="line2d_2"/>
     <g id="text_1">
      <!-- 0 -->
      <defs>
       <path d="M 31.78125 3.421875 
Q 39.265625 3.421875 42.96875 11.625 
Q 46.6875 19.828125 46.6875 36.375 
Q 46.6875 52.984375 42.96875 61.1875 
Q 39.265625 69.390625 31.78125 69.390625 
Q 24.3125 69.390625 20.59375 61.1875 
Q 16.890625 52.984375 16.890625 36.375 
Q 16.890625 19.828125 20.59375 11.625 
Q 24.3125 3.421875 31.78125 3.421875 
z
M 31.78125 -1.421875 
Q 19.921875 -1.421875 13.25 8.53125 
Q 6.59375 18.5 6.59375 36.375 
Q 6.59375 54.296875 13.25 64.25 
Q 19.921875 74.21875 31.78125 74.21875 
Q 43.703125 74.21875 50.34375 64.25 
Q 56.984375 54.296875 56.984375 36.375 
Q 56.984375 18.5 50.34375 8.53125 
Q 43.703125 -1.421875 31.78125 -1.421875 
z
" id="DejaVuSerif-30"/>
      </defs>
      <g style="fill:#262626;" transform="translate(33.638431 141.91075)scale(0.08 -0.08)">
       <use xlink:href="#DejaVuSerif-30"/>
      </g>
     </g>
    </g>
    <g id="xtick_2">
     <g id="line2d_3">
      <path clip-path="url(#p59d9fcace7)" d="M 75.656722 130.232 
L 75.656722 33.568 
" style="fill:none;stroke:#ffffff;stroke-linecap:round;stroke-width:0.8;"/>
     </g>
     <g id="line2d_4"/>
     <g id="text_2">
      <!-- 2000 -->
      <defs>
       <path d="M 12.796875 55.515625 
L 7.328125 55.515625 
L 7.328125 68.5 
Q 12.546875 71.296875 17.84375 72.75 
Q 23.140625 74.21875 28.21875 74.21875 
Q 39.59375 74.21875 46.1875 68.703125 
Q 52.78125 63.1875 52.78125 53.71875 
Q 52.78125 43.015625 37.84375 28.125 
Q 36.671875 27 36.078125 26.421875 
L 17.671875 8.015625 
L 48.09375 8.015625 
L 48.09375 17 
L 53.8125 17 
L 53.8125 0 
L 6.78125 0 
L 6.78125 5.328125 
L 28.90625 27.390625 
Q 36.234375 34.71875 39.359375 40.84375 
Q 42.484375 46.96875 42.484375 53.71875 
Q 42.484375 61.078125 38.640625 65.234375 
Q 34.8125 69.390625 28.078125 69.390625 
Q 21.09375 69.390625 17.28125 65.921875 
Q 13.484375 62.453125 12.796875 55.515625 
z
" id="DejaVuSerif-32"/>
      </defs>
      <g style="fill:#262626;" transform="translate(65.476722 141.91075)scale(0.08 -0.08)">
       <use xlink:href="#DejaVuSerif-32"/>
       <use x="63.623047" xlink:href="#DejaVuSerif-30"/>
       <use x="127.246094" xlink:href="#DejaVuSerif-30"/>
       <use x="190.869141" xlink:href="#DejaVuSerif-30"/>
      </g>
     </g>
    </g>
    <g id="xtick_3">
     <g id="line2d_5">
      <path clip-path="url(#p59d9fcace7)" d="M 115.130012 130.232 
L 115.130012 33.568 
" style="fill:none;stroke:#ffffff;stroke-linecap:round;stroke-width:0.8;"/>
     </g>
     <g id="line2d_6"/>
     <g id="text_3">
      <!-- 4000 -->
      <defs>
       <path d="M 34.90625 24.703125 
L 34.90625 63.484375 
L 10.015625 24.703125 
z
M 56.390625 0 
L 23.1875 0 
L 23.1875 5.171875 
L 34.90625 5.171875 
L 34.90625 19.484375 
L 3.078125 19.484375 
L 3.078125 24.8125 
L 35.015625 74.21875 
L 44.671875 74.21875 
L 44.671875 24.703125 
L 58.59375 24.703125 
L 58.59375 19.484375 
L 44.671875 19.484375 
L 44.671875 5.171875 
L 56.390625 5.171875 
z
" id="DejaVuSerif-34"/>
      </defs>
      <g style="fill:#262626;" transform="translate(104.950012 141.91075)scale(0.08 -0.08)">
       <use xlink:href="#DejaVuSerif-34"/>
       <use x="63.623047" xlink:href="#DejaVuSerif-30"/>
       <use x="127.246094" xlink:href="#DejaVuSerif-30"/>
       <use x="190.869141" xlink:href="#DejaVuSerif-30"/>
      </g>
     </g>
    </g>
   </g>
   <g id="matplotlib.axis_2">
    <g id="ytick_1">
     <g id="line2d_7">
      <path clip-path="url(#p59d9fcace7)" d="M 31.52 118.176447 
L 134.115488 118.176447 
" style="fill:none;stroke:#ffffff;stroke-linecap:round;stroke-width:0.8;"/>
     </g>
     <g id="line2d_8"/>
     <g id="text_4">
      <!-- $\mathdefault{10^{-9}}$ -->
      <defs>
       <path d="M 14.203125 0 
L 14.203125 5.171875 
L 26.90625 5.171875 
L 26.90625 65.828125 
L 12.203125 56.296875 
L 12.203125 62.703125 
L 29.984375 74.21875 
L 36.71875 74.21875 
L 36.71875 5.171875 
L 49.421875 5.171875 
L 49.421875 0 
z
" id="DejaVuSerif-31"/>
       <path d="M 10.59375 35.296875 
L 73.1875 35.296875 
L 73.1875 27.390625 
L 10.59375 27.390625 
z
" id="DejaVuSerif-2212"/>
       <path d="M 46.78125 32.671875 
Q 43.5 29 39.25 27.1875 
Q 35.015625 25.390625 29.6875 25.390625 
Q 18.84375 25.390625 12.5625 31.9375 
Q 6.296875 38.484375 6.296875 49.8125 
Q 6.296875 60.890625 13.109375 67.546875 
Q 19.921875 74.21875 31.296875 74.21875 
Q 43.65625 74.21875 50.265625 65.015625 
Q 56.890625 55.8125 56.890625 38.71875 
Q 56.890625 19.578125 49.015625 9.078125 
Q 41.15625 -1.421875 26.90625 -1.421875 
Q 23.046875 -1.421875 18.796875 -0.6875 
Q 14.546875 0.046875 10.109375 1.515625 
L 10.109375 13.625 
L 15.578125 13.625 
Q 16.21875 8.6875 19.390625 6.046875 
Q 22.5625 3.421875 27.875 3.421875 
Q 37.359375 3.421875 41.984375 10.5625 
Q 46.625 17.71875 46.78125 32.671875 
z
M 30.90625 69.390625 
Q 23.96875 69.390625 20.28125 64.328125 
Q 16.609375 59.28125 16.609375 49.8125 
Q 16.609375 40.328125 20.28125 35.25 
Q 23.96875 30.171875 30.90625 30.171875 
Q 37.84375 30.171875 41.53125 35.078125 
Q 45.21875 39.984375 45.21875 49.21875 
Q 45.21875 58.9375 41.5 64.15625 
Q 37.796875 69.390625 30.90625 69.390625 
z
" id="DejaVuSerif-39"/>
      </defs>
      <g style="fill:#262626;" transform="translate(7.2 121.215822)scale(0.08 -0.08)">
       <use transform="translate(0 0.7125)" xlink:href="#DejaVuSerif-31"/>
       <use transform="translate(63.623047 0.7125)" xlink:href="#DejaVuSerif-30"/>
       <use transform="translate(128.154453 37.046875)scale(0.7)" xlink:href="#DejaVuSerif-2212"/>
       <use transform="translate(186.806797 37.046875)scale(0.7)" xlink:href="#DejaVuSerif-39"/>
      </g>
     </g>
    </g>
    <g id="ytick_2">
     <g id="line2d_9">
      <path clip-path="url(#p59d9fcace7)" d="M 31.52 98.63871 
L 134.115488 98.63871 
" style="fill:none;stroke:#ffffff;stroke-linecap:round;stroke-width:0.8;"/>
     </g>
     <g id="line2d_10"/>
     <g id="text_5">
      <!-- $\mathdefault{10^{-7}}$ -->
      <defs>
       <path d="M 56.390625 67.921875 
L 27.875 0 
L 20.609375 0 
L 47.796875 64.890625 
L 14.109375 64.890625 
L 14.109375 55.90625 
L 8.40625 55.90625 
L 8.40625 72.90625 
L 56.390625 72.90625 
z
" id="DejaVuSerif-37"/>
      </defs>
      <g style="fill:#262626;" transform="translate(7.2 101.678085)scale(0.08 -0.08)">
       <use transform="translate(0 0.63125)" xlink:href="#DejaVuSerif-31"/>
       <use transform="translate(63.623047 0.63125)" xlink:href="#DejaVuSerif-30"/>
       <use transform="translate(128.154453 36.965625)scale(0.7)" xlink:href="#DejaVuSerif-2212"/>
       <use transform="translate(186.806797 36.965625)scale(0.7)" xlink:href="#DejaVuSerif-37"/>
      </g>
     </g>
    </g>
    <g id="ytick_3">
     <g id="line2d_11">
      <path clip-path="url(#p59d9fcace7)" d="M 31.52 79.100972 
L 134.115488 79.100972 
" style="fill:none;stroke:#ffffff;stroke-linecap:round;stroke-width:0.8;"/>
     </g>
     <g id="line2d_12"/>
     <g id="text_6">
      <!-- $\mathdefault{10^{-5}}$ -->
      <defs>
       <path d="M 50.296875 72.90625 
L 50.296875 64.890625 
L 16.890625 64.890625 
L 16.890625 44 
Q 19.4375 45.75 22.828125 46.625 
Q 26.21875 47.515625 30.421875 47.515625 
Q 42.234375 47.515625 49.0625 40.96875 
Q 55.90625 34.421875 55.90625 23.09375 
Q 55.90625 11.53125 49 5.046875 
Q 42.09375 -1.421875 29.59375 -1.421875 
Q 24.5625 -1.421875 19.28125 -0.1875 
Q 14.015625 1.03125 8.5 3.515625 
L 8.5 17.671875 
L 14.015625 17.671875 
Q 14.453125 10.75 18.421875 7.078125 
Q 22.40625 3.421875 29.59375 3.421875 
Q 37.3125 3.421875 41.453125 8.5 
Q 45.609375 13.578125 45.609375 23.09375 
Q 45.609375 32.5625 41.484375 37.609375 
Q 37.359375 42.671875 29.59375 42.671875 
Q 25.203125 42.671875 21.84375 41.109375 
Q 18.5 39.546875 15.921875 36.28125 
L 11.71875 36.28125 
L 11.71875 72.90625 
z
" id="DejaVuSerif-35"/>
      </defs>
      <g style="fill:#262626;" transform="translate(7.2 82.140347)scale(0.08 -0.08)">
       <use transform="translate(0 0.63125)" xlink:href="#DejaVuSerif-31"/>
       <use transform="translate(63.623047 0.63125)" xlink:href="#DejaVuSerif-30"/>
       <use transform="translate(128.154453 36.965625)scale(0.7)" xlink:href="#DejaVuSerif-2212"/>
       <use transform="translate(186.806797 36.965625)scale(0.7)" xlink:href="#DejaVuSerif-35"/>
      </g>
     </g>
    </g>
    <g id="ytick_4">
     <g id="line2d_13">
      <path clip-path="url(#p59d9fcace7)" d="M 31.52 59.563235 
L 134.115488 59.563235 
" style="fill:none;stroke:#ffffff;stroke-linecap:round;stroke-width:0.8;"/>
     </g>
     <g id="line2d_14"/>
     <g id="text_7">
      <!-- $\mathdefault{10^{-3}}$ -->
      <defs>
       <path d="M 9.71875 69.828125 
Q 15.4375 71.96875 20.671875 73.09375 
Q 25.921875 74.21875 30.515625 74.21875 
Q 41.21875 74.21875 47.21875 69.59375 
Q 53.21875 64.984375 53.21875 56.78125 
Q 53.21875 50.203125 49.0625 45.78125 
Q 44.921875 41.359375 37.3125 39.796875 
Q 46.296875 38.53125 51.25 33.28125 
Q 56.203125 28.03125 56.203125 19.671875 
Q 56.203125 9.46875 49.34375 4.015625 
Q 42.484375 -1.421875 29.59375 -1.421875 
Q 23.875 -1.421875 18.421875 -0.1875 
Q 12.984375 1.03125 7.625 3.515625 
L 7.625 17.671875 
L 13.09375 17.671875 
Q 13.578125 10.640625 17.828125 7.03125 
Q 22.078125 3.421875 29.78125 3.421875 
Q 37.25 3.421875 41.578125 7.734375 
Q 45.90625 12.0625 45.90625 19.578125 
Q 45.90625 28.171875 41.453125 32.59375 
Q 37.015625 37.015625 28.421875 37.015625 
L 23.78125 37.015625 
L 23.78125 42 
L 26.21875 42 
Q 34.765625 42 39.03125 45.53125 
Q 43.3125 49.078125 43.3125 56.203125 
Q 43.3125 62.59375 39.796875 65.984375 
Q 36.28125 69.390625 29.6875 69.390625 
Q 23.09375 69.390625 19.453125 66.265625 
Q 15.828125 63.140625 15.1875 56.984375 
L 9.71875 56.984375 
z
" id="DejaVuSerif-33"/>
      </defs>
      <g style="fill:#262626;" transform="translate(7.2 62.60261)scale(0.08 -0.08)">
       <use transform="translate(0 0.7125)" xlink:href="#DejaVuSerif-31"/>
       <use transform="translate(63.623047 0.7125)" xlink:href="#DejaVuSerif-30"/>
       <use transform="translate(128.154453 37.046875)scale(0.7)" xlink:href="#DejaVuSerif-2212"/>
       <use transform="translate(186.806797 37.046875)scale(0.7)" xlink:href="#DejaVuSerif-33"/>
      </g>
     </g>
    </g>
    <g id="ytick_5">
     <g id="line2d_15">
      <path clip-path="url(#p59d9fcace7)" d="M 31.52 40.025498 
L 134.115488 40.025498 
" style="fill:none;stroke:#ffffff;stroke-linecap:round;stroke-width:0.8;"/>
     </g>
     <g id="line2d_16"/>
     <g id="text_8">
      <!-- $\mathdefault{10^{-1}}$ -->
      <g style="fill:#262626;" transform="translate(7.2 43.064873)scale(0.08 -0.08)">
       <use transform="translate(0 0.7125)" xlink:href="#DejaVuSerif-31"/>
       <use transform="translate(63.623047 0.7125)" xlink:href="#DejaVuSerif-30"/>
       <use transform="translate(128.154453 37.046875)scale(0.7)" xlink:href="#DejaVuSerif-2212"/>
       <use transform="translate(186.806797 37.046875)scale(0.7)" xlink:href="#DejaVuSerif-31"/>
      </g>
     </g>
    </g>
   </g>
   <g id="line2d_17">
    <path clip-path="url(#p59d9fcace7)" d="M 36.183431 37.961818 
L 36.365775 43.696494 
L 36.912805 45.788499 
L 37.915693 48.63152 
L 39.100925 51.323056 
L 40.4685 53.869077 
L 41.927247 56.123138 
L 43.568337 58.248293 
L 45.391771 60.235931 
L 47.397548 62.087176 
L 49.67684 63.875109 
L 52.229646 65.581248 
L 55.055968 67.198033 
L 58.246977 68.766357 
L 60.799784 69.869662 
L 60.890956 55.59253 
L 61.073299 61.026167 
L 61.620329 63.02166 
L 62.532046 65.512094 
L 63.717278 68.108638 
L 65.084853 70.551096 
L 66.634771 72.83819 
L 68.367033 74.979089 
L 70.281639 76.990949 
L 72.469759 78.970683 
L 75.022566 80.976416 
L 77.940059 82.984223 
L 81.313411 85.0353 
L 85.233794 87.156049 
L 85.507309 87.295533 
L 85.59848 76.145295 
L 85.780824 81.265374 
L 86.419025 83.427181 
L 87.421914 85.944817 
L 88.607146 88.328012 
L 89.974721 90.586226 
L 91.524639 92.725206 
L 93.348073 94.860967 
L 95.536193 97.063528 
L 98.089 99.304836 
L 101.097665 101.645932 
L 104.744532 104.194561 
L 109.211945 107.033381 
L 110.214833 107.639738 
L 110.306005 98.396496 
L 110.488348 103.191814 
L 111.12655 105.239162 
L 112.129438 107.626884 
L 113.31467 109.88658 
L 114.773417 112.167292 
L 116.414507 114.315631 
L 118.420284 116.562797 
L 120.790748 118.879924 
L 123.708241 121.417106 
L 127.355108 124.287201 
L 129.452057 125.838182 
L 129.452057 125.838182 
" style="fill:none;stroke:#4c72b0;stroke-linecap:round;stroke-width:1.4;"/>
   </g>
   <g id="patch_3">
    <path d="M 31.52 130.232 
L 31.52 33.568 
" style="fill:none;"/>
   </g>
   <g id="patch_4">
    <path d="M 134.115488 130.232 
L 134.115488 33.568 
" style="fill:none;"/>
   </g>
   <g id="patch_5">
    <path d="M 31.52 130.232 
L 134.115488 130.232 
" style="fill:none;"/>
   </g>
   <g id="patch_6">
    <path d="M 31.52 33.568 
L 134.115488 33.568 
" style="fill:none;"/>
   </g>
   <g id="text_9">
    <!-- p_Cat log Density -->
    <defs>
     <path d="M 20.515625 28.515625 
L 20.515625 23.390625 
Q 20.515625 14.015625 24.09375 9.109375 
Q 27.6875 4.203125 34.515625 4.203125 
Q 41.40625 4.203125 44.9375 9.71875 
Q 48.484375 15.234375 48.484375 25.984375 
Q 48.484375 36.765625 44.9375 42.234375 
Q 41.40625 47.703125 34.515625 47.703125 
Q 27.6875 47.703125 24.09375 42.765625 
Q 20.515625 37.84375 20.515625 28.515625 
z
M 11.53125 46.6875 
L 2.875 46.6875 
L 2.875 51.90625 
L 20.515625 51.90625 
L 20.515625 43.796875 
Q 23.140625 48.6875 27.21875 51 
Q 31.296875 53.328125 37.3125 53.328125 
Q 46.875 53.328125 52.921875 45.75 
Q 58.984375 38.1875 58.984375 25.984375 
Q 58.984375 13.765625 52.921875 6.171875 
Q 46.875 -1.421875 37.3125 -1.421875 
Q 31.296875 -1.421875 27.21875 0.890625 
Q 23.140625 3.21875 20.515625 8.109375 
L 20.515625 -15.578125 
L 29 -15.578125 
L 29 -20.796875 
L 2.875 -20.796875 
L 2.875 -15.578125 
L 11.53125 -15.578125 
z
" id="DejaVuSerif-70"/>
     <path d="M 50 -19.671875 
L 50 -23.578125 
L 0 -23.578125 
L 0 -19.671875 
z
" id="DejaVuSerif-5f"/>
     <path d="M 70.515625 19.28125 
Q 67.28125 9.078125 59.6875 3.828125 
Q 52.09375 -1.421875 40.484375 -1.421875 
Q 33.34375 -1.421875 27.234375 1.015625 
Q 21.140625 3.46875 16.40625 8.203125 
Q 10.9375 13.671875 8.265625 20.625 
Q 5.609375 27.59375 5.609375 36.375 
Q 5.609375 53.375 15.421875 63.796875 
Q 25.25 74.21875 41.3125 74.21875 
Q 47.265625 74.21875 54 72.65625 
Q 60.75 71.09375 68.5 67.921875 
L 68.5 51.125 
L 62.984375 51.125 
Q 61.1875 60.296875 55.734375 64.640625 
Q 50.296875 69 40.484375 69 
Q 28.8125 69 22.796875 60.71875 
Q 16.796875 52.4375 16.796875 36.375 
Q 16.796875 20.359375 22.796875 12.078125 
Q 28.8125 3.8125 40.484375 3.8125 
Q 48.640625 3.8125 53.90625 7.6875 
Q 59.1875 11.578125 61.53125 19.28125 
z
" id="DejaVuSerif-43"/>
     <path d="M 39.796875 16.3125 
L 39.796875 27.296875 
L 28.21875 27.296875 
Q 21.53125 27.296875 18.25 24.40625 
Q 14.984375 21.53125 14.984375 15.578125 
Q 14.984375 10.15625 18.296875 6.984375 
Q 21.625 3.8125 27.296875 3.8125 
Q 32.90625 3.8125 36.34375 7.28125 
Q 39.796875 10.75 39.796875 16.3125 
z
M 48.78125 32.421875 
L 48.78125 5.171875 
L 56.78125 5.171875 
L 56.78125 0 
L 39.796875 0 
L 39.796875 5.609375 
Q 36.8125 2 32.90625 0.28125 
Q 29 -1.421875 23.78125 -1.421875 
Q 15.140625 -1.421875 10.0625 3.171875 
Q 4.984375 7.765625 4.984375 15.578125 
Q 4.984375 23.640625 10.796875 28.078125 
Q 16.609375 32.515625 27.203125 32.515625 
L 39.796875 32.515625 
L 39.796875 36.078125 
Q 39.796875 42 36.203125 45.234375 
Q 32.625 48.484375 26.125 48.484375 
Q 20.75 48.484375 17.578125 46.046875 
Q 14.40625 43.609375 13.625 38.8125 
L 8.984375 38.8125 
L 8.984375 49.3125 
Q 13.671875 51.3125 18.09375 52.3125 
Q 22.515625 53.328125 26.703125 53.328125 
Q 37.5 53.328125 43.140625 47.96875 
Q 48.78125 42.625 48.78125 32.421875 
z
" id="DejaVuSerif-61"/>
     <path d="M 10.796875 46.6875 
L 2.875 46.6875 
L 2.875 51.90625 
L 10.796875 51.90625 
L 10.796875 68.015625 
L 19.828125 68.015625 
L 19.828125 51.90625 
L 36.71875 51.90625 
L 36.71875 46.6875 
L 19.828125 46.6875 
L 19.828125 13.71875 
Q 19.828125 7.125 21.09375 5.265625 
Q 22.359375 3.421875 25.78125 3.421875 
Q 29.296875 3.421875 30.90625 5.484375 
Q 32.515625 7.5625 32.625 12.203125 
L 39.40625 12.203125 
Q 39.015625 5.125 35.546875 1.84375 
Q 32.078125 -1.421875 25 -1.421875 
Q 17.234375 -1.421875 14.015625 2.015625 
Q 10.796875 5.46875 10.796875 13.71875 
z
" id="DejaVuSerif-74"/>
     <path id="DejaVuSerif-20"/>
     <path d="M 20.515625 5.171875 
L 29 5.171875 
L 29 0 
L 2.875 0 
L 2.875 5.171875 
L 11.53125 5.171875 
L 11.53125 70.796875 
L 2.875 70.796875 
L 2.875 75.984375 
L 20.515625 75.984375 
z
" id="DejaVuSerif-6c"/>
     <path d="M 30.078125 3.421875 
Q 37.3125 3.421875 40.984375 9.125 
Q 44.671875 14.84375 44.671875 25.984375 
Q 44.671875 37.109375 40.984375 42.796875 
Q 37.3125 48.484375 30.078125 48.484375 
Q 22.859375 48.484375 19.171875 42.796875 
Q 15.484375 37.109375 15.484375 25.984375 
Q 15.484375 14.84375 19.1875 9.125 
Q 22.90625 3.421875 30.078125 3.421875 
z
M 30.078125 -1.421875 
Q 18.75 -1.421875 11.859375 6.078125 
Q 4.984375 13.578125 4.984375 25.984375 
Q 4.984375 38.375 11.84375 45.84375 
Q 18.703125 53.328125 30.078125 53.328125 
Q 41.453125 53.328125 48.3125 45.84375 
Q 55.171875 38.375 55.171875 25.984375 
Q 55.171875 13.578125 48.3125 6.078125 
Q 41.453125 -1.421875 30.078125 -1.421875 
z
" id="DejaVuSerif-6f"/>
     <path d="M 52.484375 46.6875 
L 52.484375 1.125 
Q 52.484375 -10.0625 46.328125 -16.140625 
Q 40.1875 -22.21875 28.8125 -22.21875 
Q 23.6875 -22.21875 19 -21.28125 
Q 14.3125 -20.359375 10.015625 -18.5 
L 10.015625 -7.625 
L 14.703125 -7.625 
Q 15.578125 -12.703125 18.84375 -15.046875 
Q 22.125 -17.390625 28.21875 -17.390625 
Q 36.140625 -17.390625 39.8125 -12.921875 
Q 43.5 -8.453125 43.5 1.125 
L 43.5 8.109375 
Q 40.875 3.21875 36.796875 0.890625 
Q 32.71875 -1.421875 26.703125 -1.421875 
Q 17.140625 -1.421875 11.0625 6.171875 
Q 4.984375 13.765625 4.984375 25.984375 
Q 4.984375 38.1875 11.03125 45.75 
Q 17.09375 53.328125 26.703125 53.328125 
Q 32.71875 53.328125 36.796875 51 
Q 40.875 48.6875 43.5 43.796875 
L 43.5 51.90625 
L 61.078125 51.90625 
L 61.078125 46.6875 
z
M 43.5 28.515625 
Q 43.5 37.84375 39.90625 42.765625 
Q 36.328125 47.703125 29.5 47.703125 
Q 22.5625 47.703125 19.015625 42.234375 
Q 15.484375 36.765625 15.484375 25.984375 
Q 15.484375 15.234375 19.015625 9.71875 
Q 22.5625 4.203125 29.5 4.203125 
Q 36.328125 4.203125 39.90625 9.109375 
Q 43.5 14.015625 43.5 23.390625 
z
" id="DejaVuSerif-67"/>
     <path d="M 24.703125 5.171875 
L 33.796875 5.171875 
Q 48 5.171875 55.59375 13.28125 
Q 63.1875 21.390625 63.1875 36.53125 
Q 63.1875 51.65625 55.609375 59.65625 
Q 48.046875 67.671875 33.796875 67.671875 
L 24.703125 67.671875 
z
M 5.515625 0 
L 5.515625 5.171875 
L 14.796875 5.171875 
L 14.796875 67.671875 
L 5.515625 67.671875 
L 5.515625 72.90625 
L 34.515625 72.90625 
Q 53.375 72.90625 63.890625 63.28125 
Q 74.421875 53.65625 74.421875 36.53125 
Q 74.421875 19.34375 63.875 9.671875 
Q 53.328125 0 34.515625 0 
z
" id="DejaVuSerif-44"/>
     <path d="M 54.203125 25 
L 15.484375 25 
L 15.484375 24.609375 
Q 15.484375 14.109375 19.4375 8.765625 
Q 23.390625 3.421875 31.109375 3.421875 
Q 37.015625 3.421875 40.796875 6.515625 
Q 44.578125 9.625 46.09375 15.71875 
L 53.328125 15.71875 
Q 51.171875 7.171875 45.375 2.875 
Q 39.59375 -1.421875 30.171875 -1.421875 
Q 18.796875 -1.421875 11.890625 6.078125 
Q 4.984375 13.578125 4.984375 25.984375 
Q 4.984375 38.28125 11.765625 45.796875 
Q 18.5625 53.328125 29.59375 53.328125 
Q 41.359375 53.328125 47.65625 46.0625 
Q 53.953125 38.8125 54.203125 25 
z
M 43.609375 30.171875 
Q 43.3125 39.265625 39.765625 43.875 
Q 36.234375 48.484375 29.59375 48.484375 
Q 23.390625 48.484375 19.828125 43.84375 
Q 16.265625 39.203125 15.484375 30.171875 
z
" id="DejaVuSerif-65"/>
     <path d="M 4.109375 0 
L 4.109375 5.171875 
L 12.203125 5.171875 
L 12.203125 46.6875 
L 3.609375 46.6875 
L 3.609375 51.90625 
L 21.1875 51.90625 
L 21.1875 42.671875 
Q 23.6875 47.953125 27.65625 50.640625 
Q 31.640625 53.328125 36.921875 53.328125 
Q 45.515625 53.328125 49.5625 48.390625 
Q 53.609375 43.453125 53.609375 33.015625 
L 53.609375 5.171875 
L 61.625 5.171875 
L 61.625 0 
L 36.8125 0 
L 36.8125 5.171875 
L 44.578125 5.171875 
L 44.578125 30.171875 
Q 44.578125 39.703125 42.234375 43.234375 
Q 39.890625 46.78125 33.984375 46.78125 
Q 27.734375 46.78125 24.453125 42.203125 
Q 21.1875 37.640625 21.1875 28.90625 
L 21.1875 5.171875 
L 29 5.171875 
L 29 0 
z
" id="DejaVuSerif-6e"/>
     <path d="M 5.609375 2.875 
L 5.609375 14.984375 
L 10.796875 14.984375 
Q 10.984375 9.1875 14.421875 6.296875 
Q 17.875 3.421875 24.609375 3.421875 
Q 30.671875 3.421875 33.84375 5.6875 
Q 37.015625 7.953125 37.015625 12.3125 
Q 37.015625 15.71875 34.6875 17.8125 
Q 32.375 19.921875 24.90625 22.3125 
L 18.40625 24.515625 
Q 11.71875 26.65625 8.71875 29.875 
Q 5.71875 33.109375 5.71875 38.09375 
Q 5.71875 45.21875 10.9375 49.265625 
Q 16.15625 53.328125 25.390625 53.328125 
Q 29.5 53.328125 34.03125 52.25 
Q 38.578125 51.171875 43.40625 49.125 
L 43.40625 37.796875 
L 38.234375 37.796875 
Q 38.03125 42.828125 34.703125 45.65625 
Q 31.390625 48.484375 25.6875 48.484375 
Q 20.015625 48.484375 17.109375 46.484375 
Q 14.203125 44.484375 14.203125 40.484375 
Q 14.203125 37.203125 16.40625 35.21875 
Q 18.609375 33.25 25.203125 31.203125 
L 32.328125 29 
Q 39.703125 26.703125 42.9375 23.265625 
Q 46.1875 19.828125 46.1875 14.40625 
Q 46.1875 7.03125 40.546875 2.796875 
Q 34.90625 -1.421875 25 -1.421875 
Q 19.96875 -1.421875 15.1875 -0.34375 
Q 10.40625 0.734375 5.609375 2.875 
z
" id="DejaVuSerif-73"/>
     <path d="M 9.71875 68.015625 
Q 9.71875 70.265625 11.34375 71.921875 
Q 12.984375 73.578125 15.28125 73.578125 
Q 17.53125 73.578125 19.15625 71.921875 
Q 20.796875 70.265625 20.796875 68.015625 
Q 20.796875 65.71875 19.1875 64.109375 
Q 17.578125 62.5 15.28125 62.5 
Q 12.984375 62.5 11.34375 64.109375 
Q 9.71875 65.71875 9.71875 68.015625 
z
M 21.1875 5.171875 
L 29.6875 5.171875 
L 29.6875 0 
L 3.609375 0 
L 3.609375 5.171875 
L 12.203125 5.171875 
L 12.203125 46.6875 
L 3.609375 46.6875 
L 3.609375 51.90625 
L 21.1875 51.90625 
z
" id="DejaVuSerif-69"/>
     <path d="M 21.578125 -9.515625 
L 25 -0.875 
L 5.609375 46.6875 
L -0.296875 46.6875 
L -0.296875 51.90625 
L 23.578125 51.90625 
L 23.578125 46.6875 
L 15.28125 46.6875 
L 29.890625 10.984375 
L 44.484375 46.6875 
L 36.71875 46.6875 
L 36.71875 51.90625 
L 56.203125 51.90625 
L 56.203125 46.6875 
L 50.390625 46.6875 
L 26.609375 -11.71875 
Q 24.171875 -17.78125 21.1875 -20 
Q 18.21875 -22.21875 12.796875 -22.21875 
Q 10.5 -22.21875 8.078125 -21.828125 
Q 5.671875 -21.4375 3.21875 -20.703125 
L 3.21875 -10.796875 
L 7.8125 -10.796875 
Q 8.109375 -14.109375 9.5 -15.546875 
Q 10.890625 -17 13.8125 -17 
Q 16.5 -17 18.140625 -15.5 
Q 19.78125 -14.015625 21.578125 -9.515625 
z
" id="DejaVuSerif-79"/>
    </defs>
    <g style="fill:#262626;" transform="translate(39.912494 27.568)scale(0.096 -0.096)">
     <use xlink:href="#DejaVuSerif-70"/>
     <use x="64.013672" xlink:href="#DejaVuSerif-5f"/>
     <use x="114.013672" xlink:href="#DejaVuSerif-43"/>
     <use x="190.527344" xlink:href="#DejaVuSerif-61"/>
     <use x="250.146484" xlink:href="#DejaVuSerif-74"/>
     <use x="290.332031" xlink:href="#DejaVuSerif-20"/>
     <use x="322.119141" xlink:href="#DejaVuSerif-6c"/>
     <use x="354.101562" xlink:href="#DejaVuSerif-6f"/>
     <use x="414.306641" xlink:href="#DejaVuSerif-67"/>
     <use x="478.320312" xlink:href="#DejaVuSerif-20"/>
     <use x="510.107422" xlink:href="#DejaVuSerif-44"/>
     <use x="590.283203" xlink:href="#DejaVuSerif-65"/>
     <use x="649.462891" xlink:href="#DejaVuSerif-6e"/>
     <use x="713.867188" xlink:href="#DejaVuSerif-73"/>
     <use x="765.185547" xlink:href="#DejaVuSerif-69"/>
     <use x="797.167969" xlink:href="#DejaVuSerif-74"/>
     <use x="837.353516" xlink:href="#DejaVuSerif-79"/>
    </g>
   </g>
  </g>
  <g id="axes_2">
   <g id="patch_7">
    <path d="M 173.822629 130.232 
L 276.418117 130.232 
L 276.418117 33.568 
L 173.822629 33.568 
z
" style="fill:#eaeaf2;"/>
   </g>
   <g id="matplotlib.axis_3">
    <g id="xtick_4">
     <g id="line2d_18">
      <path clip-path="url(#p4d8311b3de)" d="M 178.48606 130.232 
L 178.48606 33.568 
" style="fill:none;stroke:#ffffff;stroke-linecap:round;stroke-width:0.8;"/>
     </g>
     <g id="line2d_19"/>
     <g id="text_10">
      <!-- 0 -->
      <g style="fill:#262626;" transform="translate(175.94106 141.91075)scale(0.08 -0.08)">
       <use xlink:href="#DejaVuSerif-30"/>
      </g>
     </g>
    </g>
    <g id="xtick_5">
     <g id="line2d_20">
      <path clip-path="url(#p4d8311b3de)" d="M 217.95935 130.232 
L 217.95935 33.568 
" style="fill:none;stroke:#ffffff;stroke-linecap:round;stroke-width:0.8;"/>
     </g>
     <g id="line2d_21"/>
     <g id="text_11">
      <!-- 2000 -->
      <g style="fill:#262626;" transform="translate(207.77935 141.91075)scale(0.08 -0.08)">
       <use xlink:href="#DejaVuSerif-32"/>
       <use x="63.623047" xlink:href="#DejaVuSerif-30"/>
       <use x="127.246094" xlink:href="#DejaVuSerif-30"/>
       <use x="190.869141" xlink:href="#DejaVuSerif-30"/>
      </g>
     </g>
    </g>
    <g id="xtick_6">
     <g id="line2d_22">
      <path clip-path="url(#p4d8311b3de)" d="M 257.432641 130.232 
L 257.432641 33.568 
" style="fill:none;stroke:#ffffff;stroke-linecap:round;stroke-width:0.8;"/>
     </g>
     <g id="line2d_23"/>
     <g id="text_12">
      <!-- 4000 -->
      <g style="fill:#262626;" transform="translate(247.252641 141.91075)scale(0.08 -0.08)">
       <use xlink:href="#DejaVuSerif-34"/>
       <use x="63.623047" xlink:href="#DejaVuSerif-30"/>
       <use x="127.246094" xlink:href="#DejaVuSerif-30"/>
       <use x="190.869141" xlink:href="#DejaVuSerif-30"/>
      </g>
     </g>
    </g>
   </g>
   <g id="matplotlib.axis_4">
    <g id="ytick_6">
     <g id="line2d_24">
      <path clip-path="url(#p4d8311b3de)" d="M 173.822629 118.908608 
L 276.418117 118.908608 
" style="fill:none;stroke:#ffffff;stroke-linecap:round;stroke-width:0.8;"/>
     </g>
     <g id="line2d_25"/>
     <g id="text_13">
      <!-- $\mathdefault{10^{-11}}$ -->
      <g style="fill:#262626;" transform="translate(145.902629 121.947983)scale(0.08 -0.08)">
       <use transform="translate(0 0.7125)" xlink:href="#DejaVuSerif-31"/>
       <use transform="translate(63.623047 0.7125)" xlink:href="#DejaVuSerif-30"/>
       <use transform="translate(128.154453 37.046875)scale(0.7)" xlink:href="#DejaVuSerif-2212"/>
       <use transform="translate(186.806797 37.046875)scale(0.7)" xlink:href="#DejaVuSerif-31"/>
       <use transform="translate(231.34293 37.046875)scale(0.7)" xlink:href="#DejaVuSerif-31"/>
      </g>
     </g>
    </g>
    <g id="ytick_7">
     <g id="line2d_26">
      <path clip-path="url(#p4d8311b3de)" d="M 173.822629 100.879265 
L 276.418117 100.879265 
" style="fill:none;stroke:#ffffff;stroke-linecap:round;stroke-width:0.8;"/>
     </g>
     <g id="line2d_27"/>
     <g id="text_14">
      <!-- $\mathdefault{10^{-9}}$ -->
      <g style="fill:#262626;" transform="translate(149.502629 103.91864)scale(0.08 -0.08)">
       <use transform="translate(0 0.7125)" xlink:href="#DejaVuSerif-31"/>
       <use transform="translate(63.623047 0.7125)" xlink:href="#DejaVuSerif-30"/>
       <use transform="translate(128.154453 37.046875)scale(0.7)" xlink:href="#DejaVuSerif-2212"/>
       <use transform="translate(186.806797 37.046875)scale(0.7)" xlink:href="#DejaVuSerif-39"/>
      </g>
     </g>
    </g>
    <g id="ytick_8">
     <g id="line2d_28">
      <path clip-path="url(#p4d8311b3de)" d="M 173.822629 82.849922 
L 276.418117 82.849922 
" style="fill:none;stroke:#ffffff;stroke-linecap:round;stroke-width:0.8;"/>
     </g>
     <g id="line2d_29"/>
     <g id="text_15">
      <!-- $\mathdefault{10^{-7}}$ -->
      <g style="fill:#262626;" transform="translate(149.502629 85.889297)scale(0.08 -0.08)">
       <use transform="translate(0 0.63125)" xlink:href="#DejaVuSerif-31"/>
       <use transform="translate(63.623047 0.63125)" xlink:href="#DejaVuSerif-30"/>
       <use transform="translate(128.154453 36.965625)scale(0.7)" xlink:href="#DejaVuSerif-2212"/>
       <use transform="translate(186.806797 36.965625)scale(0.7)" xlink:href="#DejaVuSerif-37"/>
      </g>
     </g>
    </g>
    <g id="ytick_9">
     <g id="line2d_30">
      <path clip-path="url(#p4d8311b3de)" d="M 173.822629 64.820578 
L 276.418117 64.820578 
" style="fill:none;stroke:#ffffff;stroke-linecap:round;stroke-width:0.8;"/>
     </g>
     <g id="line2d_31"/>
     <g id="text_16">
      <!-- $\mathdefault{10^{-5}}$ -->
      <g style="fill:#262626;" transform="translate(149.502629 67.859953)scale(0.08 -0.08)">
       <use transform="translate(0 0.63125)" xlink:href="#DejaVuSerif-31"/>
       <use transform="translate(63.623047 0.63125)" xlink:href="#DejaVuSerif-30"/>
       <use transform="translate(128.154453 36.965625)scale(0.7)" xlink:href="#DejaVuSerif-2212"/>
       <use transform="translate(186.806797 36.965625)scale(0.7)" xlink:href="#DejaVuSerif-35"/>
      </g>
     </g>
    </g>
    <g id="ytick_10">
     <g id="line2d_32">
      <path clip-path="url(#p4d8311b3de)" d="M 173.822629 46.791235 
L 276.418117 46.791235 
" style="fill:none;stroke:#ffffff;stroke-linecap:round;stroke-width:0.8;"/>
     </g>
     <g id="line2d_33"/>
     <g id="text_17">
      <!-- $\mathdefault{10^{-3}}$ -->
      <g style="fill:#262626;" transform="translate(149.502629 49.83061)scale(0.08 -0.08)">
       <use transform="translate(0 0.7125)" xlink:href="#DejaVuSerif-31"/>
       <use transform="translate(63.623047 0.7125)" xlink:href="#DejaVuSerif-30"/>
       <use transform="translate(128.154453 37.046875)scale(0.7)" xlink:href="#DejaVuSerif-2212"/>
       <use transform="translate(186.806797 37.046875)scale(0.7)" xlink:href="#DejaVuSerif-33"/>
      </g>
     </g>
    </g>
   </g>
   <g id="line2d_34">
    <path clip-path="url(#p4d8311b3de)" d="M 178.48606 58.896303 
L 178.577232 69.333547 
L 178.759575 60.536064 
L 179.124262 56.778364 
L 179.762464 52.082044 
L 180.491837 48.243736 
L 181.312382 45.098514 
L 182.132927 42.787069 
L 182.953472 41.079067 
L 183.774017 39.833979 
L 184.594563 38.9581 
L 185.415108 38.385018 
L 186.235653 38.065509 
L 187.14737 37.962264 
L 188.059086 38.08525 
L 189.061975 38.444003 
L 190.247207 39.125448 
L 191.52361 40.123478 
L 192.982357 41.545114 
L 194.714619 43.554888 
L 196.720396 46.233954 
L 199.090859 49.779227 
L 202.008353 54.554535 
L 206.019907 61.578768 
L 215.045903 77.519949 
L 218.236911 82.623196 
L 221.063233 86.735908 
L 223.798384 90.332527 
L 226.624706 93.683019 
L 229.633371 96.903288 
L 232.915551 100.089522 
L 236.562419 103.317198 
L 240.573972 106.571033 
L 245.041385 109.905619 
L 249.964655 113.29681 
L 255.252612 116.66832 
L 260.996428 120.06698 
L 267.196102 123.477354 
L 271.754686 125.838182 
L 271.754686 125.838182 
" style="fill:none;stroke:#55a868;stroke-linecap:round;stroke-width:1.4;"/>
   </g>
   <g id="patch_8">
    <path d="M 173.822629 130.232 
L 173.822629 33.568 
" style="fill:none;"/>
   </g>
   <g id="patch_9">
    <path d="M 276.418117 130.232 
L 276.418117 33.568 
" style="fill:none;"/>
   </g>
   <g id="patch_10">
    <path d="M 173.822629 130.232 
L 276.418117 130.232 
" style="fill:none;"/>
   </g>
   <g id="patch_11">
    <path d="M 173.822629 33.568 
L 276.418117 33.568 
" style="fill:none;"/>
   </g>
   <g id="text_18">
    <!-- p_Thick log Density -->
    <defs>
     <path d="M 19.09375 0 
L 19.09375 5.171875 
L 28.421875 5.171875 
L 28.421875 67.09375 
L 6.984375 67.09375 
L 6.984375 55.71875 
L 0.984375 55.71875 
L 0.984375 72.90625 
L 65.71875 72.90625 
L 65.71875 55.71875 
L 59.71875 55.71875 
L 59.71875 67.09375 
L 38.28125 67.09375 
L 38.28125 5.171875 
L 47.609375 5.171875 
L 47.609375 0 
z
" id="DejaVuSerif-54"/>
     <path d="M 4.109375 0 
L 4.109375 5.171875 
L 12.203125 5.171875 
L 12.203125 70.796875 
L 3.609375 70.796875 
L 3.609375 75.984375 
L 21.1875 75.984375 
L 21.1875 42.671875 
Q 23.6875 47.953125 27.65625 50.640625 
Q 31.640625 53.328125 36.921875 53.328125 
Q 45.515625 53.328125 49.5625 48.390625 
Q 53.609375 43.453125 53.609375 33.015625 
L 53.609375 5.171875 
L 61.625 5.171875 
L 61.625 0 
L 36.8125 0 
L 36.8125 5.171875 
L 44.578125 5.171875 
L 44.578125 30.171875 
Q 44.578125 39.703125 42.25 43.1875 
Q 39.9375 46.6875 33.984375 46.6875 
Q 27.734375 46.6875 24.453125 42.140625 
Q 21.1875 37.59375 21.1875 28.90625 
L 21.1875 5.171875 
L 29 5.171875 
L 29 0 
z
" id="DejaVuSerif-68"/>
     <path d="M 51.421875 15.578125 
Q 49.515625 7.28125 44.09375 2.921875 
Q 38.671875 -1.421875 30.078125 -1.421875 
Q 18.75 -1.421875 11.859375 6.078125 
Q 4.984375 13.578125 4.984375 25.984375 
Q 4.984375 38.421875 11.859375 45.875 
Q 18.75 53.328125 30.078125 53.328125 
Q 35.015625 53.328125 39.890625 52.171875 
Q 44.78125 51.03125 49.703125 48.6875 
L 49.703125 35.40625 
L 44.484375 35.40625 
Q 43.453125 42.234375 40.015625 45.359375 
Q 36.578125 48.484375 30.171875 48.484375 
Q 22.90625 48.484375 19.1875 42.84375 
Q 15.484375 37.203125 15.484375 25.984375 
Q 15.484375 14.75 19.171875 9.078125 
Q 22.859375 3.421875 30.171875 3.421875 
Q 35.984375 3.421875 39.453125 6.4375 
Q 42.921875 9.46875 44.1875 15.578125 
z
" id="DejaVuSerif-63"/>
     <path d="M 28.609375 0 
L 3.421875 0 
L 3.421875 5.171875 
L 11.53125 5.171875 
L 11.53125 70.796875 
L 2.875 70.796875 
L 2.875 75.984375 
L 20.515625 75.984375 
L 20.515625 26.515625 
L 42.390625 46.6875 
L 34.90625 46.6875 
L 34.90625 51.90625 
L 58.40625 51.90625 
L 58.40625 46.6875 
L 49.515625 46.6875 
L 34.078125 32.421875 
L 53.8125 5.171875 
L 61.28125 5.171875 
L 61.28125 0 
L 35.6875 0 
L 35.6875 5.171875 
L 43.109375 5.171875 
L 27.59375 26.515625 
L 20.515625 19.921875 
L 20.515625 5.171875 
L 28.609375 5.171875 
z
" id="DejaVuSerif-6b"/>
    </defs>
    <g style="fill:#262626;" transform="translate(177.253873 27.568)scale(0.096 -0.096)">
     <use xlink:href="#DejaVuSerif-70"/>
     <use x="64.013672" xlink:href="#DejaVuSerif-5f"/>
     <use x="114.013672" xlink:href="#DejaVuSerif-54"/>
     <use x="180.712891" xlink:href="#DejaVuSerif-68"/>
     <use x="245.117188" xlink:href="#DejaVuSerif-69"/>
     <use x="277.099609" xlink:href="#DejaVuSerif-63"/>
     <use x="333.105469" xlink:href="#DejaVuSerif-6b"/>
     <use x="393.701172" xlink:href="#DejaVuSerif-20"/>
     <use x="425.488281" xlink:href="#DejaVuSerif-6c"/>
     <use x="457.470703" xlink:href="#DejaVuSerif-6f"/>
     <use x="517.675781" xlink:href="#DejaVuSerif-67"/>
     <use x="581.689453" xlink:href="#DejaVuSerif-20"/>
     <use x="613.476562" xlink:href="#DejaVuSerif-44"/>
     <use x="693.652344" xlink:href="#DejaVuSerif-65"/>
     <use x="752.832031" xlink:href="#DejaVuSerif-6e"/>
     <use x="817.236328" xlink:href="#DejaVuSerif-73"/>
     <use x="868.554688" xlink:href="#DejaVuSerif-69"/>
     <use x="900.537109" xlink:href="#DejaVuSerif-74"/>
     <use x="940.722656" xlink:href="#DejaVuSerif-79"/>
    </g>
   </g>
  </g>
  <g id="axes_3">
   <g id="patch_12">
    <path d="M 316.125258 130.232 
L 418.720746 130.232 
L 418.720746 33.568 
L 316.125258 33.568 
z
" style="fill:#eaeaf2;"/>
   </g>
   <g id="matplotlib.axis_5">
    <g id="xtick_7">
     <g id="line2d_35">
      <path clip-path="url(#p675aa0bc97)" d="M 320.788689 130.232 
L 320.788689 33.568 
" style="fill:none;stroke:#ffffff;stroke-linecap:round;stroke-width:0.8;"/>
     </g>
     <g id="line2d_36"/>
     <g id="text_19">
      <!-- 0 -->
      <g style="fill:#262626;" transform="translate(318.243689 141.91075)scale(0.08 -0.08)">
       <use xlink:href="#DejaVuSerif-30"/>
      </g>
     </g>
    </g>
    <g id="xtick_8">
     <g id="line2d_37">
      <path clip-path="url(#p675aa0bc97)" d="M 360.261979 130.232 
L 360.261979 33.568 
" style="fill:none;stroke:#ffffff;stroke-linecap:round;stroke-width:0.8;"/>
     </g>
     <g id="line2d_38"/>
     <g id="text_20">
      <!-- 2000 -->
      <g style="fill:#262626;" transform="translate(350.081979 141.91075)scale(0.08 -0.08)">
       <use xlink:href="#DejaVuSerif-32"/>
       <use x="63.623047" xlink:href="#DejaVuSerif-30"/>
       <use x="127.246094" xlink:href="#DejaVuSerif-30"/>
       <use x="190.869141" xlink:href="#DejaVuSerif-30"/>
      </g>
     </g>
    </g>
    <g id="xtick_9">
     <g id="line2d_39">
      <path clip-path="url(#p675aa0bc97)" d="M 399.73527 130.232 
L 399.73527 33.568 
" style="fill:none;stroke:#ffffff;stroke-linecap:round;stroke-width:0.8;"/>
     </g>
     <g id="line2d_40"/>
     <g id="text_21">
      <!-- 4000 -->
      <g style="fill:#262626;" transform="translate(389.55527 141.91075)scale(0.08 -0.08)">
       <use xlink:href="#DejaVuSerif-34"/>
       <use x="63.623047" xlink:href="#DejaVuSerif-30"/>
       <use x="127.246094" xlink:href="#DejaVuSerif-30"/>
       <use x="190.869141" xlink:href="#DejaVuSerif-30"/>
      </g>
     </g>
    </g>
   </g>
   <g id="matplotlib.axis_6">
    <g id="ytick_11">
     <g id="line2d_41">
      <path clip-path="url(#p675aa0bc97)" d="M 316.125258 115.026195 
L 418.720746 115.026195 
" style="fill:none;stroke:#ffffff;stroke-linecap:round;stroke-width:0.8;"/>
     </g>
     <g id="line2d_42"/>
     <g id="text_22">
      <!-- $\mathdefault{10^{-14}}$ -->
      <g style="fill:#262626;" transform="translate(288.205258 118.06557)scale(0.08 -0.08)">
       <use transform="translate(0 0.7125)" xlink:href="#DejaVuSerif-31"/>
       <use transform="translate(63.623047 0.7125)" xlink:href="#DejaVuSerif-30"/>
       <use transform="translate(128.154453 37.046875)scale(0.7)" xlink:href="#DejaVuSerif-2212"/>
       <use transform="translate(186.806797 37.046875)scale(0.7)" xlink:href="#DejaVuSerif-31"/>
       <use transform="translate(231.34293 37.046875)scale(0.7)" xlink:href="#DejaVuSerif-34"/>
      </g>
     </g>
    </g>
    <g id="ytick_12">
     <g id="line2d_43">
      <path clip-path="url(#p675aa0bc97)" d="M 316.125258 95.727048 
L 418.720746 95.727048 
" style="fill:none;stroke:#ffffff;stroke-linecap:round;stroke-width:0.8;"/>
     </g>
     <g id="line2d_44"/>
     <g id="text_23">
      <!-- $\mathdefault{10^{-11}}$ -->
      <g style="fill:#262626;" transform="translate(288.205258 98.766423)scale(0.08 -0.08)">
       <use transform="translate(0 0.7125)" xlink:href="#DejaVuSerif-31"/>
       <use transform="translate(63.623047 0.7125)" xlink:href="#DejaVuSerif-30"/>
       <use transform="translate(128.154453 37.046875)scale(0.7)" xlink:href="#DejaVuSerif-2212"/>
       <use transform="translate(186.806797 37.046875)scale(0.7)" xlink:href="#DejaVuSerif-31"/>
       <use transform="translate(231.34293 37.046875)scale(0.7)" xlink:href="#DejaVuSerif-31"/>
      </g>
     </g>
    </g>
    <g id="ytick_13">
     <g id="line2d_45">
      <path clip-path="url(#p675aa0bc97)" d="M 316.125258 76.427901 
L 418.720746 76.427901 
" style="fill:none;stroke:#ffffff;stroke-linecap:round;stroke-width:0.8;"/>
     </g>
     <g id="line2d_46"/>
     <g id="text_24">
      <!-- $\mathdefault{10^{-8}}$ -->
      <defs>
       <path d="M 46.578125 19.921875 
Q 46.578125 27.734375 42.6875 32.046875 
Q 38.8125 36.375 31.78125 36.375 
Q 24.75 36.375 20.875 32.046875 
Q 17 27.734375 17 19.921875 
Q 17 12.0625 20.875 7.734375 
Q 24.75 3.421875 31.78125 3.421875 
Q 38.8125 3.421875 42.6875 7.734375 
Q 46.578125 12.0625 46.578125 19.921875 
z
M 44.578125 55.328125 
Q 44.578125 61.96875 41.203125 65.671875 
Q 37.84375 69.390625 31.78125 69.390625 
Q 25.78125 69.390625 22.390625 65.671875 
Q 19 61.96875 19 55.328125 
Q 19 48.640625 22.390625 44.921875 
Q 25.78125 41.21875 31.78125 41.21875 
Q 37.84375 41.21875 41.203125 44.921875 
Q 44.578125 48.640625 44.578125 55.328125 
z
M 39.3125 38.8125 
Q 47.609375 37.703125 52.25 32.6875 
Q 56.890625 27.6875 56.890625 19.921875 
Q 56.890625 9.671875 50.390625 4.125 
Q 43.890625 -1.421875 31.78125 -1.421875 
Q 19.734375 -1.421875 13.203125 4.125 
Q 6.6875 9.671875 6.6875 19.921875 
Q 6.6875 27.6875 11.328125 32.6875 
Q 15.96875 37.703125 24.3125 38.8125 
Q 16.9375 40.140625 13 44.40625 
Q 9.078125 48.6875 9.078125 55.328125 
Q 9.078125 64.109375 15.125 69.15625 
Q 21.1875 74.21875 31.78125 74.21875 
Q 42.390625 74.21875 48.4375 69.15625 
Q 54.5 64.109375 54.5 55.328125 
Q 54.5 48.6875 50.5625 44.40625 
Q 46.625 40.140625 39.3125 38.8125 
z
" id="DejaVuSerif-38"/>
      </defs>
      <g style="fill:#262626;" transform="translate(291.805258 79.467276)scale(0.08 -0.08)">
       <use transform="translate(0 0.7125)" xlink:href="#DejaVuSerif-31"/>
       <use transform="translate(63.623047 0.7125)" xlink:href="#DejaVuSerif-30"/>
       <use transform="translate(128.154453 37.046875)scale(0.7)" xlink:href="#DejaVuSerif-2212"/>
       <use transform="translate(186.806797 37.046875)scale(0.7)" xlink:href="#DejaVuSerif-38"/>
      </g>
     </g>
    </g>
    <g id="ytick_14">
     <g id="line2d_47">
      <path clip-path="url(#p675aa0bc97)" d="M 316.125258 57.128754 
L 418.720746 57.128754 
" style="fill:none;stroke:#ffffff;stroke-linecap:round;stroke-width:0.8;"/>
     </g>
     <g id="line2d_48"/>
     <g id="text_25">
      <!-- $\mathdefault{10^{-5}}$ -->
      <g style="fill:#262626;" transform="translate(291.805258 60.168129)scale(0.08 -0.08)">
       <use transform="translate(0 0.63125)" xlink:href="#DejaVuSerif-31"/>
       <use transform="translate(63.623047 0.63125)" xlink:href="#DejaVuSerif-30"/>
       <use transform="translate(128.154453 36.965625)scale(0.7)" xlink:href="#DejaVuSerif-2212"/>
       <use transform="translate(186.806797 36.965625)scale(0.7)" xlink:href="#DejaVuSerif-35"/>
      </g>
     </g>
    </g>
    <g id="ytick_15">
     <g id="line2d_49">
      <path clip-path="url(#p675aa0bc97)" d="M 316.125258 37.829606 
L 418.720746 37.829606 
" style="fill:none;stroke:#ffffff;stroke-linecap:round;stroke-width:0.8;"/>
     </g>
     <g id="line2d_50"/>
     <g id="text_26">
      <!-- $\mathdefault{10^{-2}}$ -->
      <g style="fill:#262626;" transform="translate(291.805258 40.868981)scale(0.08 -0.08)">
       <use transform="translate(0 0.7125)" xlink:href="#DejaVuSerif-31"/>
       <use transform="translate(63.623047 0.7125)" xlink:href="#DejaVuSerif-30"/>
       <use transform="translate(128.154453 37.046875)scale(0.7)" xlink:href="#DejaVuSerif-2212"/>
       <use transform="translate(186.806797 37.046875)scale(0.7)" xlink:href="#DejaVuSerif-32"/>
      </g>
     </g>
    </g>
   </g>
   <g id="line2d_51">
    <path clip-path="url(#p675aa0bc97)" d="M 320.788689 52.901255 
L 320.879861 60.349462 
L 321.062204 54.071402 
L 321.426891 51.389823 
L 322.065093 48.038417 
L 322.794466 45.299306 
L 323.615011 43.054796 
L 324.435556 41.405288 
L 325.347273 40.072813 
L 326.25899 39.138114 
L 327.170706 38.514423 
L 328.082423 38.141919 
L 329.085312 37.970783 
L 330.179372 38.020586 
L 331.364604 38.305891 
L 332.732179 38.882701 
L 334.282097 39.800144 
L 336.014359 41.095101 
L 338.020136 42.878955 
L 340.3906 45.293566 
L 343.308093 48.601194 
L 347.137304 53.302489 
L 353.97518 62.109344 
L 360.904227 71.342582 
L 367.559759 80.608607 
L 377.315129 94.609466 
L 386.61464 108.329319 
L 398.193443 125.838182 
L 398.193816 151.7745 
L 398.193816 151.7745 
" style="fill:none;stroke:#c44e52;stroke-linecap:round;stroke-width:1.4;"/>
   </g>
   <g id="patch_13">
    <path d="M 316.125258 130.232 
L 316.125258 33.568 
" style="fill:none;"/>
   </g>
   <g id="patch_14">
    <path d="M 418.720746 130.232 
L 418.720746 33.568 
" style="fill:none;"/>
   </g>
   <g id="patch_15">
    <path d="M 316.125258 130.232 
L 418.720746 130.232 
" style="fill:none;"/>
   </g>
   <g id="patch_16">
    <path d="M 316.125258 33.568 
L 418.720746 33.568 
" style="fill:none;"/>
   </g>
   <g id="text_27">
    <!-- p_Thin log Density -->
    <g style="fill:#262626;" transform="translate(322.061502 27.568)scale(0.096 -0.096)">
     <use xlink:href="#DejaVuSerif-70"/>
     <use x="64.013672" xlink:href="#DejaVuSerif-5f"/>
     <use x="114.013672" xlink:href="#DejaVuSerif-54"/>
     <use x="180.712891" xlink:href="#DejaVuSerif-68"/>
     <use x="245.117188" xlink:href="#DejaVuSerif-69"/>
     <use x="277.099609" xlink:href="#DejaVuSerif-6e"/>
     <use x="341.503906" xlink:href="#DejaVuSerif-20"/>
     <use x="373.291016" xlink:href="#DejaVuSerif-6c"/>
     <use x="405.273438" xlink:href="#DejaVuSerif-6f"/>
     <use x="465.478516" xlink:href="#DejaVuSerif-67"/>
     <use x="529.492188" xlink:href="#DejaVuSerif-20"/>
     <use x="561.279297" xlink:href="#DejaVuSerif-44"/>
     <use x="641.455078" xlink:href="#DejaVuSerif-65"/>
     <use x="700.634766" xlink:href="#DejaVuSerif-6e"/>
     <use x="765.039062" xlink:href="#DejaVuSerif-73"/>
     <use x="816.357422" xlink:href="#DejaVuSerif-69"/>
     <use x="848.339844" xlink:href="#DejaVuSerif-74"/>
     <use x="888.525391" xlink:href="#DejaVuSerif-79"/>
    </g>
   </g>
  </g>
  <g id="axes_4">
   <g id="patch_17">
    <path d="M 458.427887 130.232 
L 561.023375 130.232 
L 561.023375 33.568 
L 458.427887 33.568 
z
" style="fill:#eaeaf2;"/>
   </g>
   <g id="matplotlib.axis_7">
    <g id="xtick_10">
     <g id="line2d_52">
      <path clip-path="url(#p8c314cc9c5)" d="M 463.091318 130.232 
L 463.091318 33.568 
" style="fill:none;stroke:#ffffff;stroke-linecap:round;stroke-width:0.8;"/>
     </g>
     <g id="line2d_53"/>
     <g id="text_28">
      <!-- 0 -->
      <g style="fill:#262626;" transform="translate(460.546318 141.91075)scale(0.08 -0.08)">
       <use xlink:href="#DejaVuSerif-30"/>
      </g>
     </g>
    </g>
    <g id="xtick_11">
     <g id="line2d_54">
      <path clip-path="url(#p8c314cc9c5)" d="M 502.564608 130.232 
L 502.564608 33.568 
" style="fill:none;stroke:#ffffff;stroke-linecap:round;stroke-width:0.8;"/>
     </g>
     <g id="line2d_55"/>
     <g id="text_29">
      <!-- 2000 -->
      <g style="fill:#262626;" transform="translate(492.384608 141.91075)scale(0.08 -0.08)">
       <use xlink:href="#DejaVuSerif-32"/>
       <use x="63.623047" xlink:href="#DejaVuSerif-30"/>
       <use x="127.246094" xlink:href="#DejaVuSerif-30"/>
       <use x="190.869141" xlink:href="#DejaVuSerif-30"/>
      </g>
     </g>
    </g>
    <g id="xtick_12">
     <g id="line2d_56">
      <path clip-path="url(#p8c314cc9c5)" d="M 542.037899 130.232 
L 542.037899 33.568 
" style="fill:none;stroke:#ffffff;stroke-linecap:round;stroke-width:0.8;"/>
     </g>
     <g id="line2d_57"/>
     <g id="text_30">
      <!-- 4000 -->
      <g style="fill:#262626;" transform="translate(531.857899 141.91075)scale(0.08 -0.08)">
       <use xlink:href="#DejaVuSerif-34"/>
       <use x="63.623047" xlink:href="#DejaVuSerif-30"/>
       <use x="127.246094" xlink:href="#DejaVuSerif-30"/>
       <use x="190.869141" xlink:href="#DejaVuSerif-30"/>
      </g>
     </g>
    </g>
   </g>
   <g id="matplotlib.axis_8">
    <g id="ytick_16">
     <g id="line2d_58">
      <path clip-path="url(#p8c314cc9c5)" d="M 458.427887 116.109483 
L 561.023375 116.109483 
" style="fill:none;stroke:#ffffff;stroke-linecap:round;stroke-width:0.8;"/>
     </g>
     <g id="line2d_59"/>
     <g id="text_31">
      <!-- $\mathdefault{10^{-9}}$ -->
      <g style="fill:#262626;" transform="translate(434.107887 119.148858)scale(0.08 -0.08)">
       <use transform="translate(0 0.7125)" xlink:href="#DejaVuSerif-31"/>
       <use transform="translate(63.623047 0.7125)" xlink:href="#DejaVuSerif-30"/>
       <use transform="translate(128.154453 37.046875)scale(0.7)" xlink:href="#DejaVuSerif-2212"/>
       <use transform="translate(186.806797 37.046875)scale(0.7)" xlink:href="#DejaVuSerif-39"/>
      </g>
     </g>
    </g>
    <g id="ytick_17">
     <g id="line2d_60">
      <path clip-path="url(#p8c314cc9c5)" d="M 458.427887 93.008365 
L 561.023375 93.008365 
" style="fill:none;stroke:#ffffff;stroke-linecap:round;stroke-width:0.8;"/>
     </g>
     <g id="line2d_61"/>
     <g id="text_32">
      <!-- $\mathdefault{10^{-7}}$ -->
      <g style="fill:#262626;" transform="translate(434.107887 96.04774)scale(0.08 -0.08)">
       <use transform="translate(0 0.63125)" xlink:href="#DejaVuSerif-31"/>
       <use transform="translate(63.623047 0.63125)" xlink:href="#DejaVuSerif-30"/>
       <use transform="translate(128.154453 36.965625)scale(0.7)" xlink:href="#DejaVuSerif-2212"/>
       <use transform="translate(186.806797 36.965625)scale(0.7)" xlink:href="#DejaVuSerif-37"/>
      </g>
     </g>
    </g>
    <g id="ytick_18">
     <g id="line2d_62">
      <path clip-path="url(#p8c314cc9c5)" d="M 458.427887 69.907247 
L 561.023375 69.907247 
" style="fill:none;stroke:#ffffff;stroke-linecap:round;stroke-width:0.8;"/>
     </g>
     <g id="line2d_63"/>
     <g id="text_33">
      <!-- $\mathdefault{10^{-5}}$ -->
      <g style="fill:#262626;" transform="translate(434.107887 72.946622)scale(0.08 -0.08)">
       <use transform="translate(0 0.63125)" xlink:href="#DejaVuSerif-31"/>
       <use transform="translate(63.623047 0.63125)" xlink:href="#DejaVuSerif-30"/>
       <use transform="translate(128.154453 36.965625)scale(0.7)" xlink:href="#DejaVuSerif-2212"/>
       <use transform="translate(186.806797 36.965625)scale(0.7)" xlink:href="#DejaVuSerif-35"/>
      </g>
     </g>
    </g>
    <g id="ytick_19">
     <g id="line2d_64">
      <path clip-path="url(#p8c314cc9c5)" d="M 458.427887 46.806129 
L 561.023375 46.806129 
" style="fill:none;stroke:#ffffff;stroke-linecap:round;stroke-width:0.8;"/>
     </g>
     <g id="line2d_65"/>
     <g id="text_34">
      <!-- $\mathdefault{10^{-3}}$ -->
      <g style="fill:#262626;" transform="translate(434.107887 49.845504)scale(0.08 -0.08)">
       <use transform="translate(0 0.7125)" xlink:href="#DejaVuSerif-31"/>
       <use transform="translate(63.623047 0.7125)" xlink:href="#DejaVuSerif-30"/>
       <use transform="translate(128.154453 37.046875)scale(0.7)" xlink:href="#DejaVuSerif-2212"/>
       <use transform="translate(186.806797 37.046875)scale(0.7)" xlink:href="#DejaVuSerif-33"/>
      </g>
     </g>
    </g>
   </g>
   <g id="line2d_66">
    <path clip-path="url(#p8c314cc9c5)" d="M 463.091318 121.589238 
L 463.18249 125.838182 
L 463.456005 116.33755 
L 464.185378 103.062448 
L 465.005923 92.283909 
L 465.91764 83.057953 
L 466.920528 74.996879 
L 468.014589 67.911555 
L 469.19982 61.695259 
L 470.385052 56.630799 
L 471.570284 52.473839 
L 472.755516 49.055467 
L 473.940748 46.252714 
L 475.125979 43.972497 
L 476.311211 42.14216 
L 477.496443 40.703557 
L 478.681675 39.609164 
L 479.866907 38.819436 
L 481.052138 38.300924 
L 482.23737 38.02492 
L 483.422602 37.966431 
L 484.699005 38.121452 
L 486.066581 38.51127 
L 487.616499 39.199397 
L 489.257589 40.174887 
L 491.172195 41.581877 
L 493.451486 43.553419 
L 496.642495 46.647042 
L 500.380534 50.212899 
L 502.386311 51.809433 
L 504.392088 53.113207 
L 507.491925 54.808759 
L 510.50059 56.554484 
L 512.779882 58.140283 
L 515.150346 60.07247 
L 517.794324 62.533624 
L 521.258848 66.09232 
L 526.455634 71.43053 
L 529.099612 73.801009 
L 532.472964 76.49182 
L 536.940376 80.093014 
L 539.85787 82.753942 
L 543.048879 85.983465 
L 547.880978 91.251197 
L 552.257218 95.895859 
L 555.63057 99.138315 
L 556.359944 99.807772 
L 556.359944 99.807772 
" style="fill:none;stroke:#8172b2;stroke-linecap:round;stroke-width:1.4;"/>
   </g>
   <g id="patch_18">
    <path d="M 458.427887 130.232 
L 458.427887 33.568 
" style="fill:none;"/>
   </g>
   <g id="patch_19">
    <path d="M 561.023375 130.232 
L 561.023375 33.568 
" style="fill:none;"/>
   </g>
   <g id="patch_20">
    <path d="M 458.427887 130.232 
L 561.023375 130.232 
" style="fill:none;"/>
   </g>
   <g id="patch_21">
    <path d="M 458.427887 33.568 
L 561.023375 33.568 
" style="fill:none;"/>
   </g>
   <g id="text_35">
    <!-- p_total log Density -->
    <g style="fill:#262626;" transform="translate(464.139131 27.568)scale(0.096 -0.096)">
     <use xlink:href="#DejaVuSerif-70"/>
     <use x="64.013672" xlink:href="#DejaVuSerif-5f"/>
     <use x="114.013672" xlink:href="#DejaVuSerif-74"/>
     <use x="154.199219" xlink:href="#DejaVuSerif-6f"/>
     <use x="214.404297" xlink:href="#DejaVuSerif-74"/>
     <use x="254.589844" xlink:href="#DejaVuSerif-61"/>
     <use x="314.208984" xlink:href="#DejaVuSerif-6c"/>
     <use x="346.191406" xlink:href="#DejaVuSerif-20"/>
     <use x="377.978516" xlink:href="#DejaVuSerif-6c"/>
     <use x="409.960938" xlink:href="#DejaVuSerif-6f"/>
     <use x="470.166016" xlink:href="#DejaVuSerif-67"/>
     <use x="534.179688" xlink:href="#DejaVuSerif-20"/>
     <use x="565.966797" xlink:href="#DejaVuSerif-44"/>
     <use x="646.142578" xlink:href="#DejaVuSerif-65"/>
     <use x="705.322266" xlink:href="#DejaVuSerif-6e"/>
     <use x="769.726562" xlink:href="#DejaVuSerif-73"/>
     <use x="821.044922" xlink:href="#DejaVuSerif-69"/>
     <use x="853.027344" xlink:href="#DejaVuSerif-74"/>
     <use x="893.212891" xlink:href="#DejaVuSerif-79"/>
    </g>
   </g>
  </g>
  <g id="text_36">
   <!-- Density Plots for Program2 -->
   <defs>
    <path d="M 24.703125 37.109375 
L 37.59375 37.109375 
Q 44.875 37.109375 48.671875 41.03125 
Q 52.484375 44.96875 52.484375 52.390625 
Q 52.484375 59.859375 48.671875 63.765625 
Q 44.875 67.671875 37.59375 67.671875 
L 24.703125 67.671875 
z
M 5.515625 0 
L 5.515625 5.171875 
L 14.796875 5.171875 
L 14.796875 67.671875 
L 5.515625 67.671875 
L 5.515625 72.90625 
L 39.984375 72.90625 
Q 50.921875 72.90625 57.3125 67.359375 
Q 63.71875 61.8125 63.71875 52.390625 
Q 63.71875 43.015625 57.3125 37.453125 
Q 50.921875 31.890625 39.984375 31.890625 
L 24.703125 31.890625 
L 24.703125 5.171875 
L 35.984375 5.171875 
L 35.984375 0 
z
" id="DejaVuSerif-50"/>
    <path d="M 43.015625 63.71875 
L 38.28125 63.71875 
Q 38.234375 67.390625 36.203125 69.28125 
Q 34.1875 71.1875 30.328125 71.1875 
Q 25.296875 71.1875 23.234375 68.421875 
Q 21.1875 65.671875 21.1875 58.59375 
L 21.1875 51.90625 
L 35.6875 51.90625 
L 35.6875 46.6875 
L 21.1875 46.6875 
L 21.1875 5.171875 
L 32.71875 5.171875 
L 32.71875 0 
L 3.609375 0 
L 3.609375 5.171875 
L 12.203125 5.171875 
L 12.203125 46.6875 
L 3.609375 46.6875 
L 3.609375 51.90625 
L 12.203125 51.90625 
L 12.203125 58.40625 
Q 12.203125 67.09375 16.71875 71.53125 
Q 21.234375 75.984375 29.984375 75.984375 
Q 33.25 75.984375 36.515625 75.390625 
Q 39.796875 74.8125 43.015625 73.578125 
z
" id="DejaVuSerif-66"/>
    <path d="M 47.796875 52 
L 47.796875 39.015625 
L 42.625 39.015625 
Q 42.390625 42.875 40.484375 44.78125 
Q 38.578125 46.6875 34.90625 46.6875 
Q 28.265625 46.6875 24.71875 42.09375 
Q 21.1875 37.5 21.1875 28.90625 
L 21.1875 5.171875 
L 31.59375 5.171875 
L 31.59375 0 
L 4.109375 0 
L 4.109375 5.171875 
L 12.203125 5.171875 
L 12.203125 46.78125 
L 3.609375 46.78125 
L 3.609375 51.90625 
L 21.1875 51.90625 
L 21.1875 42.671875 
Q 23.828125 48.09375 27.96875 50.703125 
Q 32.125 53.328125 38.09375 53.328125 
Q 40.28125 53.328125 42.703125 52.984375 
Q 45.125 52.640625 47.796875 52 
z
" id="DejaVuSerif-72"/>
    <path d="M 51.8125 41.796875 
Q 54.390625 47.515625 58.421875 50.421875 
Q 62.453125 53.328125 67.828125 53.328125 
Q 75.984375 53.328125 79.984375 48.265625 
Q 83.984375 43.21875 83.984375 33.015625 
L 83.984375 5.171875 
L 92.09375 5.171875 
L 92.09375 0 
L 67.1875 0 
L 67.1875 5.171875 
L 75 5.171875 
L 75 31.984375 
Q 75 39.9375 72.65625 43.3125 
Q 70.3125 46.6875 64.890625 46.6875 
Q 58.890625 46.6875 55.734375 42.140625 
Q 52.59375 37.59375 52.59375 28.90625 
L 52.59375 5.171875 
L 60.40625 5.171875 
L 60.40625 0 
L 35.796875 0 
L 35.796875 5.171875 
L 43.609375 5.171875 
L 43.609375 32.328125 
Q 43.609375 40.09375 41.265625 43.390625 
Q 38.921875 46.6875 33.5 46.6875 
Q 27.484375 46.6875 24.328125 42.140625 
Q 21.1875 37.59375 21.1875 28.90625 
L 21.1875 5.171875 
L 29 5.171875 
L 29 0 
L 4.109375 0 
L 4.109375 5.171875 
L 12.203125 5.171875 
L 12.203125 46.78125 
L 3.609375 46.78125 
L 3.609375 51.90625 
L 21.1875 51.90625 
L 21.1875 42.671875 
Q 23.6875 47.859375 27.53125 50.59375 
Q 31.390625 53.328125 36.28125 53.328125 
Q 42.328125 53.328125 46.375 50.3125 
Q 50.4375 47.3125 51.8125 41.796875 
z
" id="DejaVuSerif-6d"/>
   </defs>
   <g style="fill:#262626;" transform="translate(203.888975 15.9534)scale(0.1152 -0.1152)">
    <use xlink:href="#DejaVuSerif-44"/>
    <use x="80.175781" xlink:href="#DejaVuSerif-65"/>
    <use x="139.355469" xlink:href="#DejaVuSerif-6e"/>
    <use x="203.759766" xlink:href="#DejaVuSerif-73"/>
    <use x="255.078125" xlink:href="#DejaVuSerif-69"/>
    <use x="287.060547" xlink:href="#DejaVuSerif-74"/>
    <use x="327.246094" xlink:href="#DejaVuSerif-79"/>
    <use x="383.740234" xlink:href="#DejaVuSerif-20"/>
    <use x="415.527344" xlink:href="#DejaVuSerif-50"/>
    <use x="482.8125" xlink:href="#DejaVuSerif-6c"/>
    <use x="514.794922" xlink:href="#DejaVuSerif-6f"/>
    <use x="575" xlink:href="#DejaVuSerif-74"/>
    <use x="615.185547" xlink:href="#DejaVuSerif-73"/>
    <use x="666.503906" xlink:href="#DejaVuSerif-20"/>
    <use x="698.291016" xlink:href="#DejaVuSerif-66"/>
    <use x="735.302734" xlink:href="#DejaVuSerif-6f"/>
    <use x="795.507812" xlink:href="#DejaVuSerif-72"/>
    <use x="843.310547" xlink:href="#DejaVuSerif-20"/>
    <use x="875.097656" xlink:href="#DejaVuSerif-50"/>
    <use x="942.382812" xlink:href="#DejaVuSerif-72"/>
    <use x="990.185547" xlink:href="#DejaVuSerif-6f"/>
    <use x="1050.390625" xlink:href="#DejaVuSerif-67"/>
    <use x="1114.404297" xlink:href="#DejaVuSerif-72"/>
    <use x="1162.207031" xlink:href="#DejaVuSerif-61"/>
    <use x="1221.826172" xlink:href="#DejaVuSerif-6d"/>
    <use x="1316.650391" xlink:href="#DejaVuSerif-32"/>
   </g>
  </g>
 </g>
 <defs>
  <clipPath id="p59d9fcace7">
   <rect height="96.664" width="102.595488" x="31.52" y="33.568"/>
  </clipPath>
  <clipPath id="p4d8311b3de">
   <rect height="96.664" width="102.595488" x="173.822629" y="33.568"/>
  </clipPath>
  <clipPath id="p675aa0bc97">
   <rect height="96.664" width="102.595488" x="316.125258" y="33.568"/>
  </clipPath>
  <clipPath id="p8c314cc9c5">
   <rect height="96.664" width="102.595488" x="458.427887" y="33.568"/>
  </clipPath>
 </defs>
</svg>
