<?xml version="1.0" encoding="utf-8" standalone="no"?>
<!DOCTYPE svg PUBLIC "-//W3C//DTD SVG 1.1//EN"
  "http://www.w3.org/Graphics/SVG/1.1/DTD/svg11.dtd">
<!-- Created with matplotlib (http://matplotlib.org/) -->
<svg height="150.7745pt" version="1.1" viewBox="0 0 567.58025 150.7745" width="567.58025pt" xmlns="http://www.w3.org/2000/svg" xmlns:xlink="http://www.w3.org/1999/xlink">
 <defs>
  <style type="text/css">
*{stroke-linecap:butt;stroke-linejoin:round;}
  </style>
 </defs>
 <g id="figure_1">
  <g id="patch_1">
   <path d="M 0 150.7745 
L 567.58025 150.7745 
L 567.58025 -0 
L 0 -0 
z
" style="fill:#ffffff;"/>
  </g>
  <g id="axes_1">
   <g id="patch_2">
    <path d="M 40.7925 130.232 
L 135.42 130.232 
L 135.42 33.568 
L 40.7925 33.568 
z
" style="fill:#eaeaf2;"/>
   </g>
   <g id="matplotlib.axis_1">
    <g id="xtick_1">
     <g id="line2d_1">
      <path clip-path="url(#p75039f73d3)" d="M 45.09375 130.232 
L 45.09375 33.568 
" style="fill:none;opacity:0.5;stroke:#0000ff;stroke-linecap:round;stroke-width:0.1;"/>
     </g>
     <g id="line2d_2"/>
     <g id="text_1">
      <!-- 0 -->
      <defs>
       <path d="M 31.78125 3.421875 
Q 39.265625 3.421875 42.96875 11.625 
Q 46.6875 19.828125 46.6875 36.375 
Q 46.6875 52.984375 42.96875 61.1875 
Q 39.265625 69.390625 31.78125 69.390625 
Q 24.3125 69.390625 20.59375 61.1875 
Q 16.890625 52.984375 16.890625 36.375 
Q 16.890625 19.828125 20.59375 11.625 
Q 24.3125 3.421875 31.78125 3.421875 
z
M 31.78125 -1.421875 
Q 19.921875 -1.421875 13.25 8.53125 
Q 6.59375 18.5 6.59375 36.375 
Q 6.59375 54.296875 13.25 64.25 
Q 19.921875 74.21875 31.78125 74.21875 
Q 43.703125 74.21875 50.34375 64.25 
Q 56.984375 54.296875 56.984375 36.375 
Q 56.984375 18.5 50.34375 8.53125 
Q 43.703125 -1.421875 31.78125 -1.421875 
z
" id="DejaVuSerif-30"/>
      </defs>
      <g style="fill:#262626;" transform="translate(42.54875 141.91075)scale(0.08 -0.08)">
       <use xlink:href="#DejaVuSerif-30"/>
      </g>
     </g>
    </g>
    <g id="xtick_2">
     <g id="line2d_3">
      <path clip-path="url(#p75039f73d3)" d="M 78.294259 130.232 
L 78.294259 33.568 
" style="fill:none;opacity:0.5;stroke:#0000ff;stroke-linecap:round;stroke-width:0.1;"/>
     </g>
     <g id="line2d_4"/>
     <g id="text_2">
      <!-- 2000 -->
      <defs>
       <path d="M 12.796875 55.515625 
L 7.328125 55.515625 
L 7.328125 68.5 
Q 12.546875 71.296875 17.84375 72.75 
Q 23.140625 74.21875 28.21875 74.21875 
Q 39.59375 74.21875 46.1875 68.703125 
Q 52.78125 63.1875 52.78125 53.71875 
Q 52.78125 43.015625 37.84375 28.125 
Q 36.671875 27 36.078125 26.421875 
L 17.671875 8.015625 
L 48.09375 8.015625 
L 48.09375 17 
L 53.8125 17 
L 53.8125 0 
L 6.78125 0 
L 6.78125 5.328125 
L 28.90625 27.390625 
Q 36.234375 34.71875 39.359375 40.84375 
Q 42.484375 46.96875 42.484375 53.71875 
Q 42.484375 61.078125 38.640625 65.234375 
Q 34.8125 69.390625 28.078125 69.390625 
Q 21.09375 69.390625 17.28125 65.921875 
Q 13.484375 62.453125 12.796875 55.515625 
z
" id="DejaVuSerif-32"/>
      </defs>
      <g style="fill:#262626;" transform="translate(68.114259 141.91075)scale(0.08 -0.08)">
       <use xlink:href="#DejaVuSerif-32"/>
       <use x="63.623047" xlink:href="#DejaVuSerif-30"/>
       <use x="127.246094" xlink:href="#DejaVuSerif-30"/>
       <use x="190.869141" xlink:href="#DejaVuSerif-30"/>
      </g>
     </g>
    </g>
    <g id="xtick_3">
     <g id="line2d_5">
      <path clip-path="url(#p75039f73d3)" d="M 111.494767 130.232 
L 111.494767 33.568 
" style="fill:none;opacity:0.5;stroke:#0000ff;stroke-linecap:round;stroke-width:0.1;"/>
     </g>
     <g id="line2d_6"/>
     <g id="text_3">
      <!-- 4000 -->
      <defs>
       <path d="M 34.90625 24.703125 
L 34.90625 63.484375 
L 10.015625 24.703125 
z
M 56.390625 0 
L 23.1875 0 
L 23.1875 5.171875 
L 34.90625 5.171875 
L 34.90625 19.484375 
L 3.078125 19.484375 
L 3.078125 24.8125 
L 35.015625 74.21875 
L 44.671875 74.21875 
L 44.671875 24.703125 
L 58.59375 24.703125 
L 58.59375 19.484375 
L 44.671875 19.484375 
L 44.671875 5.171875 
L 56.390625 5.171875 
z
" id="DejaVuSerif-34"/>
      </defs>
      <g style="fill:#262626;" transform="translate(101.314767 141.91075)scale(0.08 -0.08)">
       <use xlink:href="#DejaVuSerif-34"/>
       <use x="63.623047" xlink:href="#DejaVuSerif-30"/>
       <use x="127.246094" xlink:href="#DejaVuSerif-30"/>
       <use x="190.869141" xlink:href="#DejaVuSerif-30"/>
      </g>
     </g>
    </g>
   </g>
   <g id="matplotlib.axis_2">
    <g id="ytick_1">
     <g id="line2d_7">
      <path clip-path="url(#p75039f73d3)" d="M 40.7925 125.838182 
L 135.42 125.838182 
" style="fill:none;opacity:0.5;stroke:#0000ff;stroke-linecap:round;stroke-width:0.1;"/>
     </g>
     <g id="line2d_8"/>
     <g id="text_4">
      <!-- 0.0000 -->
      <defs>
       <path d="M 9.421875 5.078125 
Q 9.421875 7.8125 11.28125 9.71875 
Q 13.140625 11.625 15.921875 11.625 
Q 18.609375 11.625 20.5 9.71875 
Q 22.40625 7.8125 22.40625 5.078125 
Q 22.40625 2.390625 20.5 0.484375 
Q 18.609375 -1.421875 15.921875 -1.421875 
Q 13.140625 -1.421875 11.28125 0.453125 
Q 9.421875 2.34375 9.421875 5.078125 
z
" id="DejaVuSerif-2e"/>
      </defs>
      <g style="fill:#262626;" transform="translate(7.2 128.877557)scale(0.08 -0.08)">
       <use xlink:href="#DejaVuSerif-30"/>
       <use x="63.623047" xlink:href="#DejaVuSerif-2e"/>
       <use x="95.410156" xlink:href="#DejaVuSerif-30"/>
       <use x="159.033203" xlink:href="#DejaVuSerif-30"/>
       <use x="222.65625" xlink:href="#DejaVuSerif-30"/>
       <use x="286.279297" xlink:href="#DejaVuSerif-30"/>
      </g>
     </g>
    </g>
    <g id="ytick_2">
     <g id="line2d_9">
      <path clip-path="url(#p75039f73d3)" d="M 40.7925 109.168444 
L 135.42 109.168444 
" style="fill:none;opacity:0.5;stroke:#0000ff;stroke-linecap:round;stroke-width:0.1;"/>
     </g>
     <g id="line2d_10"/>
     <g id="text_5">
      <!-- 0.0002 -->
      <g style="fill:#262626;" transform="translate(7.2 112.207819)scale(0.08 -0.08)">
       <use xlink:href="#DejaVuSerif-30"/>
       <use x="63.623047" xlink:href="#DejaVuSerif-2e"/>
       <use x="95.410156" xlink:href="#DejaVuSerif-30"/>
       <use x="159.033203" xlink:href="#DejaVuSerif-30"/>
       <use x="222.65625" xlink:href="#DejaVuSerif-30"/>
       <use x="286.279297" xlink:href="#DejaVuSerif-32"/>
      </g>
     </g>
    </g>
    <g id="ytick_3">
     <g id="line2d_11">
      <path clip-path="url(#p75039f73d3)" d="M 40.7925 92.498707 
L 135.42 92.498707 
" style="fill:none;opacity:0.5;stroke:#0000ff;stroke-linecap:round;stroke-width:0.1;"/>
     </g>
     <g id="line2d_12"/>
     <g id="text_6">
      <!-- 0.0004 -->
      <g style="fill:#262626;" transform="translate(7.2 95.538082)scale(0.08 -0.08)">
       <use xlink:href="#DejaVuSerif-30"/>
       <use x="63.623047" xlink:href="#DejaVuSerif-2e"/>
       <use x="95.410156" xlink:href="#DejaVuSerif-30"/>
       <use x="159.033203" xlink:href="#DejaVuSerif-30"/>
       <use x="222.65625" xlink:href="#DejaVuSerif-30"/>
       <use x="286.279297" xlink:href="#DejaVuSerif-34"/>
      </g>
     </g>
    </g>
    <g id="ytick_4">
     <g id="line2d_13">
      <path clip-path="url(#p75039f73d3)" d="M 40.7925 75.82897 
L 135.42 75.82897 
" style="fill:none;opacity:0.5;stroke:#0000ff;stroke-linecap:round;stroke-width:0.1;"/>
     </g>
     <g id="line2d_14"/>
     <g id="text_7">
      <!-- 0.0006 -->
      <defs>
       <path d="M 32.71875 3.421875 
Q 39.59375 3.421875 43.296875 8.46875 
Q 47.015625 13.53125 47.015625 23 
Q 47.015625 32.46875 43.296875 37.515625 
Q 39.59375 42.578125 32.71875 42.578125 
Q 25.734375 42.578125 22.0625 37.6875 
Q 18.40625 32.8125 18.40625 23.578125 
Q 18.40625 13.875 22.109375 8.640625 
Q 25.828125 3.421875 32.71875 3.421875 
z
M 16.796875 40.140625 
Q 20.125 43.796875 24.3125 45.59375 
Q 28.515625 47.40625 33.796875 47.40625 
Q 44.671875 47.40625 51 40.859375 
Q 57.328125 34.328125 57.328125 23 
Q 57.328125 11.921875 50.515625 5.25 
Q 43.703125 -1.421875 32.328125 -1.421875 
Q 19.96875 -1.421875 13.328125 7.78125 
Q 6.6875 17 6.6875 34.078125 
Q 6.6875 53.21875 14.546875 63.71875 
Q 22.40625 74.21875 36.71875 74.21875 
Q 40.578125 74.21875 44.828125 73.484375 
Q 49.078125 72.75 53.515625 71.296875 
L 53.515625 59.28125 
L 48 59.28125 
Q 47.40625 64.203125 44.234375 66.796875 
Q 41.0625 69.390625 35.6875 69.390625 
Q 26.21875 69.390625 21.578125 62.203125 
Q 16.9375 55.03125 16.796875 40.140625 
z
" id="DejaVuSerif-36"/>
      </defs>
      <g style="fill:#262626;" transform="translate(7.2 78.868345)scale(0.08 -0.08)">
       <use xlink:href="#DejaVuSerif-30"/>
       <use x="63.623047" xlink:href="#DejaVuSerif-2e"/>
       <use x="95.410156" xlink:href="#DejaVuSerif-30"/>
       <use x="159.033203" xlink:href="#DejaVuSerif-30"/>
       <use x="222.65625" xlink:href="#DejaVuSerif-30"/>
       <use x="286.279297" xlink:href="#DejaVuSerif-36"/>
      </g>
     </g>
    </g>
    <g id="ytick_5">
     <g id="line2d_15">
      <path clip-path="url(#p75039f73d3)" d="M 40.7925 59.159232 
L 135.42 59.159232 
" style="fill:none;opacity:0.5;stroke:#0000ff;stroke-linecap:round;stroke-width:0.1;"/>
     </g>
     <g id="line2d_16"/>
     <g id="text_8">
      <!-- 0.0008 -->
      <defs>
       <path d="M 46.578125 19.921875 
Q 46.578125 27.734375 42.6875 32.046875 
Q 38.8125 36.375 31.78125 36.375 
Q 24.75 36.375 20.875 32.046875 
Q 17 27.734375 17 19.921875 
Q 17 12.0625 20.875 7.734375 
Q 24.75 3.421875 31.78125 3.421875 
Q 38.8125 3.421875 42.6875 7.734375 
Q 46.578125 12.0625 46.578125 19.921875 
z
M 44.578125 55.328125 
Q 44.578125 61.96875 41.203125 65.671875 
Q 37.84375 69.390625 31.78125 69.390625 
Q 25.78125 69.390625 22.390625 65.671875 
Q 19 61.96875 19 55.328125 
Q 19 48.640625 22.390625 44.921875 
Q 25.78125 41.21875 31.78125 41.21875 
Q 37.84375 41.21875 41.203125 44.921875 
Q 44.578125 48.640625 44.578125 55.328125 
z
M 39.3125 38.8125 
Q 47.609375 37.703125 52.25 32.6875 
Q 56.890625 27.6875 56.890625 19.921875 
Q 56.890625 9.671875 50.390625 4.125 
Q 43.890625 -1.421875 31.78125 -1.421875 
Q 19.734375 -1.421875 13.203125 4.125 
Q 6.6875 9.671875 6.6875 19.921875 
Q 6.6875 27.6875 11.328125 32.6875 
Q 15.96875 37.703125 24.3125 38.8125 
Q 16.9375 40.140625 13 44.40625 
Q 9.078125 48.6875 9.078125 55.328125 
Q 9.078125 64.109375 15.125 69.15625 
Q 21.1875 74.21875 31.78125 74.21875 
Q 42.390625 74.21875 48.4375 69.15625 
Q 54.5 64.109375 54.5 55.328125 
Q 54.5 48.6875 50.5625 44.40625 
Q 46.625 40.140625 39.3125 38.8125 
z
" id="DejaVuSerif-38"/>
      </defs>
      <g style="fill:#262626;" transform="translate(7.2 62.198607)scale(0.08 -0.08)">
       <use xlink:href="#DejaVuSerif-30"/>
       <use x="63.623047" xlink:href="#DejaVuSerif-2e"/>
       <use x="95.410156" xlink:href="#DejaVuSerif-30"/>
       <use x="159.033203" xlink:href="#DejaVuSerif-30"/>
       <use x="222.65625" xlink:href="#DejaVuSerif-30"/>
       <use x="286.279297" xlink:href="#DejaVuSerif-38"/>
      </g>
     </g>
    </g>
    <g id="ytick_6">
     <g id="line2d_17">
      <path clip-path="url(#p75039f73d3)" d="M 40.7925 42.489495 
L 135.42 42.489495 
" style="fill:none;opacity:0.5;stroke:#0000ff;stroke-linecap:round;stroke-width:0.1;"/>
     </g>
     <g id="line2d_18"/>
     <g id="text_9">
      <!-- 0.0010 -->
      <defs>
       <path d="M 14.203125 0 
L 14.203125 5.171875 
L 26.90625 5.171875 
L 26.90625 65.828125 
L 12.203125 56.296875 
L 12.203125 62.703125 
L 29.984375 74.21875 
L 36.71875 74.21875 
L 36.71875 5.171875 
L 49.421875 5.171875 
L 49.421875 0 
z
" id="DejaVuSerif-31"/>
      </defs>
      <g style="fill:#262626;" transform="translate(7.2 45.52887)scale(0.08 -0.08)">
       <use xlink:href="#DejaVuSerif-30"/>
       <use x="63.623047" xlink:href="#DejaVuSerif-2e"/>
       <use x="95.410156" xlink:href="#DejaVuSerif-30"/>
       <use x="159.033203" xlink:href="#DejaVuSerif-30"/>
       <use x="222.65625" xlink:href="#DejaVuSerif-31"/>
       <use x="286.279297" xlink:href="#DejaVuSerif-30"/>
      </g>
     </g>
    </g>
   </g>
   <g id="line2d_19">
    <path clip-path="url(#p75039f73d3)" d="M 45.09375 125.838182 
L 45.962689 125.838162 
L 46.831629 125.815822 
L 47.700568 125.329741 
L 48.569508 122.853921 
L 49.438447 116.716351 
L 50.307386 106.579892 
L 51.176326 93.587781 
L 52.045265 79.587422 
L 52.914205 66.350043 
L 53.783144 55.152066 
L 54.652083 46.68274 
L 55.521023 41.132916 
L 56.389962 38.345666 
L 57.258902 37.961818 
L 58.127841 39.533493 
L 58.99678 42.601187 
L 59.86572 46.739812 
L 60.734659 51.581822 
L 61.603598 56.825109 
L 62.472538 62.231662 
L 63.341477 67.621289 
L 64.210417 72.863193 
L 65.079356 77.867112 
L 65.948295 82.574994 
L 66.817235 86.95365 
L 67.686174 90.988562 
L 68.555114 94.678817 
L 69.424053 98.033082 
L 70.292992 101.066468 
L 71.161932 103.798135 
L 72.030871 106.249512 
L 72.899811 108.442986 
L 73.76875 110.400973 
L 74.637689 112.145285 
L 75.506629 113.696701 
L 76.375568 115.074711 
L 77.244508 116.297378 
L 78.113447 117.381283 
L 78.982386 118.341535 
L 79.851326 119.191811 
L 80.720265 119.944435 
L 81.589205 120.610466 
L 82.458144 121.19979 
L 83.327083 121.721224 
L 84.196023 122.182612 
L 85.064962 122.590918 
L 85.933902 122.952314 
L 86.802841 123.272268 
L 87.67178 123.555613 
L 88.54072 123.806621 
L 89.409659 124.029064 
L 90.278598 124.226272 
L 91.147538 124.401184 
L 92.016477 124.556389 
L 92.885417 124.694174 
L 93.754356 124.816555 
L 94.623295 124.925309 
L 95.492235 125.022005 
L 96.361174 125.108025 
L 97.230114 125.184591 
L 98.099053 125.252778 
L 98.967992 125.313539 
L 99.836932 125.367713 
L 100.705871 125.416041 
L 101.574811 125.459179 
L 102.44375 125.497707 
L 103.312689 125.532138 
L 104.181629 125.562925 
L 105.050568 125.59047 
L 105.919508 125.615128 
L 106.788447 125.637216 
L 107.657386 125.657012 
L 108.526326 125.674764 
L 109.395265 125.690694 
L 110.264205 125.704995 
L 111.133144 125.717843 
L 112.002083 125.729391 
L 112.871023 125.739776 
L 113.739962 125.749122 
L 114.608902 125.757536 
L 115.477841 125.765116 
L 116.34678 125.771948 
L 117.21572 125.77811 
L 118.084659 125.78367 
L 118.953598 125.78869 
L 119.822538 125.793224 
L 120.691477 125.797323 
L 121.560417 125.801029 
L 122.429356 125.804381 
L 123.298295 125.807417 
L 124.167235 125.810166 
L 125.036174 125.812656 
L 125.905114 125.814915 
L 126.774053 125.816963 
L 127.642992 125.818822 
L 128.511932 125.82051 
L 129.380871 125.822043 
L 130.249811 125.823437 
L 131.11875 125.824704 
" style="fill:none;stroke:#4c72b0;stroke-linecap:round;stroke-width:1.4;"/>
   </g>
   <g id="patch_3">
    <path d="M 40.7925 130.232 
L 40.7925 33.568 
" style="fill:none;"/>
   </g>
   <g id="patch_4">
    <path d="M 135.42 130.232 
L 135.42 33.568 
" style="fill:none;"/>
   </g>
   <g id="patch_5">
    <path d="M 40.7925 130.232 
L 135.42 130.232 
" style="fill:none;"/>
   </g>
   <g id="patch_6">
    <path d="M 40.7925 33.568 
L 135.42 33.568 
" style="fill:none;"/>
   </g>
   <g id="text_10">
    <!-- PDF -->
    <defs>
     <path d="M 24.703125 37.109375 
L 37.59375 37.109375 
Q 44.875 37.109375 48.671875 41.03125 
Q 52.484375 44.96875 52.484375 52.390625 
Q 52.484375 59.859375 48.671875 63.765625 
Q 44.875 67.671875 37.59375 67.671875 
L 24.703125 67.671875 
z
M 5.515625 0 
L 5.515625 5.171875 
L 14.796875 5.171875 
L 14.796875 67.671875 
L 5.515625 67.671875 
L 5.515625 72.90625 
L 39.984375 72.90625 
Q 50.921875 72.90625 57.3125 67.359375 
Q 63.71875 61.8125 63.71875 52.390625 
Q 63.71875 43.015625 57.3125 37.453125 
Q 50.921875 31.890625 39.984375 31.890625 
L 24.703125 31.890625 
L 24.703125 5.171875 
L 35.984375 5.171875 
L 35.984375 0 
z
" id="DejaVuSerif-50"/>
     <path d="M 24.703125 5.171875 
L 33.796875 5.171875 
Q 48 5.171875 55.59375 13.28125 
Q 63.1875 21.390625 63.1875 36.53125 
Q 63.1875 51.65625 55.609375 59.65625 
Q 48.046875 67.671875 33.796875 67.671875 
L 24.703125 67.671875 
z
M 5.515625 0 
L 5.515625 5.171875 
L 14.796875 5.171875 
L 14.796875 67.671875 
L 5.515625 67.671875 
L 5.515625 72.90625 
L 34.515625 72.90625 
Q 53.375 72.90625 63.890625 63.28125 
Q 74.421875 53.65625 74.421875 36.53125 
Q 74.421875 19.34375 63.875 9.671875 
Q 53.328125 0 34.515625 0 
z
" id="DejaVuSerif-44"/>
     <path d="M 5.515625 0 
L 5.515625 5.171875 
L 14.796875 5.171875 
L 14.796875 67.671875 
L 5.515625 67.671875 
L 5.515625 72.90625 
L 65.1875 72.90625 
L 65.1875 56.6875 
L 59.1875 56.6875 
L 59.1875 66.890625 
L 24.703125 66.890625 
L 24.703125 42.484375 
L 49.609375 42.484375 
L 49.609375 51.609375 
L 55.609375 51.609375 
L 55.609375 27.390625 
L 49.609375 27.390625 
L 49.609375 36.53125 
L 24.703125 36.53125 
L 24.703125 5.171875 
L 36.375 5.171875 
L 36.375 0 
z
" id="DejaVuSerif-46"/>
    </defs>
    <g style="fill:#262626;" transform="translate(77.69775 27.568)scale(0.096 -0.096)">
     <use xlink:href="#DejaVuSerif-50"/>
     <use x="67.285156" xlink:href="#DejaVuSerif-44"/>
     <use x="147.460938" xlink:href="#DejaVuSerif-46"/>
    </g>
   </g>
  </g>
  <g id="axes_2">
   <g id="patch_7">
    <path d="M 180.3255 130.232 
L 274.953 130.232 
L 274.953 33.568 
L 180.3255 33.568 
z
" style="fill:#eaeaf2;"/>
   </g>
   <g id="matplotlib.axis_3">
    <g id="xtick_4">
     <g id="line2d_20">
      <path clip-path="url(#p306606b70a)" d="M 184.62675 130.232 
L 184.62675 33.568 
" style="fill:none;opacity:0.5;stroke:#0000ff;stroke-linecap:round;stroke-width:0.1;"/>
     </g>
     <g id="line2d_21"/>
     <g id="text_11">
      <!-- 0 -->
      <g style="fill:#262626;" transform="translate(182.08175 141.91075)scale(0.08 -0.08)">
       <use xlink:href="#DejaVuSerif-30"/>
      </g>
     </g>
    </g>
    <g id="xtick_5">
     <g id="line2d_22">
      <path clip-path="url(#p306606b70a)" d="M 217.827259 130.232 
L 217.827259 33.568 
" style="fill:none;opacity:0.5;stroke:#0000ff;stroke-linecap:round;stroke-width:0.1;"/>
     </g>
     <g id="line2d_23"/>
     <g id="text_12">
      <!-- 2000 -->
      <g style="fill:#262626;" transform="translate(207.647259 141.91075)scale(0.08 -0.08)">
       <use xlink:href="#DejaVuSerif-32"/>
       <use x="63.623047" xlink:href="#DejaVuSerif-30"/>
       <use x="127.246094" xlink:href="#DejaVuSerif-30"/>
       <use x="190.869141" xlink:href="#DejaVuSerif-30"/>
      </g>
     </g>
    </g>
    <g id="xtick_6">
     <g id="line2d_24">
      <path clip-path="url(#p306606b70a)" d="M 251.027767 130.232 
L 251.027767 33.568 
" style="fill:none;opacity:0.5;stroke:#0000ff;stroke-linecap:round;stroke-width:0.1;"/>
     </g>
     <g id="line2d_25"/>
     <g id="text_13">
      <!-- 4000 -->
      <g style="fill:#262626;" transform="translate(240.847767 141.91075)scale(0.08 -0.08)">
       <use xlink:href="#DejaVuSerif-34"/>
       <use x="63.623047" xlink:href="#DejaVuSerif-30"/>
       <use x="127.246094" xlink:href="#DejaVuSerif-30"/>
       <use x="190.869141" xlink:href="#DejaVuSerif-30"/>
      </g>
     </g>
    </g>
   </g>
   <g id="matplotlib.axis_4">
    <g id="ytick_7">
     <g id="line2d_26">
      <path clip-path="url(#p306606b70a)" d="M 180.3255 130.232 
L 274.953 130.232 
" style="fill:none;opacity:0.5;stroke:#0000ff;stroke-linecap:round;stroke-width:0.1;"/>
     </g>
     <g id="line2d_27"/>
     <g id="text_14">
      <!-- 0.0 -->
      <g style="fill:#262626;" transform="translate(162.003 133.271375)scale(0.08 -0.08)">
       <use xlink:href="#DejaVuSerif-30"/>
       <use x="63.623047" xlink:href="#DejaVuSerif-2e"/>
       <use x="95.410156" xlink:href="#DejaVuSerif-30"/>
      </g>
     </g>
    </g>
    <g id="ytick_8">
     <g id="line2d_28">
      <path clip-path="url(#p306606b70a)" d="M 180.3255 110.8992 
L 274.953 110.8992 
" style="fill:none;opacity:0.5;stroke:#0000ff;stroke-linecap:round;stroke-width:0.1;"/>
     </g>
     <g id="line2d_29"/>
     <g id="text_15">
      <!-- 0.2 -->
      <g style="fill:#262626;" transform="translate(162.003 113.938575)scale(0.08 -0.08)">
       <use xlink:href="#DejaVuSerif-30"/>
       <use x="63.623047" xlink:href="#DejaVuSerif-2e"/>
       <use x="95.410156" xlink:href="#DejaVuSerif-32"/>
      </g>
     </g>
    </g>
    <g id="ytick_9">
     <g id="line2d_30">
      <path clip-path="url(#p306606b70a)" d="M 180.3255 91.5664 
L 274.953 91.5664 
" style="fill:none;opacity:0.5;stroke:#0000ff;stroke-linecap:round;stroke-width:0.1;"/>
     </g>
     <g id="line2d_31"/>
     <g id="text_16">
      <!-- 0.4 -->
      <g style="fill:#262626;" transform="translate(162.003 94.605775)scale(0.08 -0.08)">
       <use xlink:href="#DejaVuSerif-30"/>
       <use x="63.623047" xlink:href="#DejaVuSerif-2e"/>
       <use x="95.410156" xlink:href="#DejaVuSerif-34"/>
      </g>
     </g>
    </g>
    <g id="ytick_10">
     <g id="line2d_32">
      <path clip-path="url(#p306606b70a)" d="M 180.3255 72.2336 
L 274.953 72.2336 
" style="fill:none;opacity:0.5;stroke:#0000ff;stroke-linecap:round;stroke-width:0.1;"/>
     </g>
     <g id="line2d_33"/>
     <g id="text_17">
      <!-- 0.6 -->
      <g style="fill:#262626;" transform="translate(162.003 75.272975)scale(0.08 -0.08)">
       <use xlink:href="#DejaVuSerif-30"/>
       <use x="63.623047" xlink:href="#DejaVuSerif-2e"/>
       <use x="95.410156" xlink:href="#DejaVuSerif-36"/>
      </g>
     </g>
    </g>
    <g id="ytick_11">
     <g id="line2d_34">
      <path clip-path="url(#p306606b70a)" d="M 180.3255 52.9008 
L 274.953 52.9008 
" style="fill:none;opacity:0.5;stroke:#0000ff;stroke-linecap:round;stroke-width:0.1;"/>
     </g>
     <g id="line2d_35"/>
     <g id="text_18">
      <!-- 0.8 -->
      <g style="fill:#262626;" transform="translate(162.003 55.940175)scale(0.08 -0.08)">
       <use xlink:href="#DejaVuSerif-30"/>
       <use x="63.623047" xlink:href="#DejaVuSerif-2e"/>
       <use x="95.410156" xlink:href="#DejaVuSerif-38"/>
      </g>
     </g>
    </g>
    <g id="ytick_12">
     <g id="line2d_36">
      <path clip-path="url(#p306606b70a)" d="M 180.3255 33.568 
L 274.953 33.568 
" style="fill:none;opacity:0.5;stroke:#0000ff;stroke-linecap:round;stroke-width:0.1;"/>
     </g>
     <g id="line2d_37"/>
     <g id="text_19">
      <!-- 1.0 -->
      <g style="fill:#262626;" transform="translate(162.003 36.607375)scale(0.08 -0.08)">
       <use xlink:href="#DejaVuSerif-31"/>
       <use x="63.623047" xlink:href="#DejaVuSerif-2e"/>
       <use x="95.410156" xlink:href="#DejaVuSerif-30"/>
      </g>
     </g>
    </g>
   </g>
   <g id="line2d_38">
    <path clip-path="url(#p306606b70a)" d="M 184.62675 130.232 
L 188.971447 130.129871 
L 188.971447 129.783374 
L 189.840386 129.783374 
L 189.840386 128.940355 
L 190.709326 128.940355 
L 190.709326 127.386885 
L 191.578265 127.386885 
L 191.578265 125.004369 
L 192.447205 125.004369 
L 192.447205 121.78717 
L 193.316144 121.78717 
L 193.316144 117.823322 
L 194.185083 117.823322 
L 194.185083 113.260403 
L 195.054023 113.260403 
L 195.054023 108.272012 
L 195.922962 108.272012 
L 195.922962 103.031988 
L 196.791902 103.031988 
L 196.791902 97.697839 
L 197.660841 97.697839 
L 197.660841 92.402095 
L 198.52978 92.402095 
L 198.52978 87.249442 
L 199.39872 87.249442 
L 199.39872 82.317544 
L 200.267659 82.317544 
L 200.267659 77.659937 
L 201.136598 77.659937 
L 201.136598 73.309818 
L 202.005538 73.309818 
L 202.005538 69.284011 
L 202.874477 69.284011 
L 202.874477 65.586685 
L 203.743417 65.586685 
L 203.743417 62.212616 
L 204.612356 62.212616 
L 204.612356 59.149913 
L 205.481295 59.149913 
L 205.481295 56.382223 
L 206.350235 56.382223 
L 206.350235 53.890458 
L 207.219174 53.890458 
L 207.219174 51.65411 
L 208.088114 51.65411 
L 208.088114 49.652226 
L 208.957053 49.652226 
L 208.957053 47.864106 
L 209.825992 47.864106 
L 209.825992 46.269786 
L 210.694932 46.269786 
L 210.694932 44.850353 
L 211.563871 44.850353 
L 211.563871 43.588132 
L 212.432811 43.588132 
L 212.432811 42.466784 
L 213.30175 42.466784 
L 213.30175 41.471337 
L 214.170689 41.471337 
L 214.170689 40.588159 
L 215.039629 40.588159 
L 215.039629 39.804917 
L 215.908568 39.804917 
L 215.908568 39.110499 
L 216.777508 39.110499 
L 216.777508 38.494933 
L 217.646447 38.494933 
L 217.646447 37.9493 
L 218.515386 37.9493 
L 218.515386 37.465641 
L 219.384326 37.465641 
L 219.384326 37.036873 
L 220.253265 37.036873 
L 220.253265 36.6567 
L 221.122205 36.6567 
L 221.122205 36.319535 
L 221.991144 36.319535 
L 221.991144 36.020427 
L 222.860083 36.020427 
L 222.860083 35.754993 
L 223.729023 35.754993 
L 223.729023 35.519354 
L 224.597962 35.519354 
L 224.597962 35.31008 
L 225.466902 35.31008 
L 225.466902 35.12414 
L 226.335841 35.12414 
L 226.335841 34.958856 
L 227.20478 34.958856 
L 227.20478 34.811861 
L 228.07372 34.811861 
L 228.07372 34.681065 
L 228.942659 34.681065 
L 228.942659 34.564622 
L 230.680538 34.460901 
L 230.680538 34.368462 
L 232.418417 34.28603 
L 232.418417 34.212481 
L 234.156295 34.14682 
L 234.156295 34.088165 
L 236.763114 33.988854 
L 236.763114 33.946897 
L 240.238871 33.845496 
L 240.238871 33.81843 
L 245.452508 33.71923 
L 245.452508 33.704954 
L 261.093417 33.595551 
L 261.093417 33.593185 
L 270.65175 33.578522 
L 270.65175 33.577666 
" style="fill:none;stroke:#4c72b0;stroke-linecap:round;"/>
   </g>
   <g id="patch_8">
    <path d="M 180.3255 130.232 
L 180.3255 33.568 
" style="fill:none;"/>
   </g>
   <g id="patch_9">
    <path d="M 274.953 130.232 
L 274.953 33.568 
" style="fill:none;"/>
   </g>
   <g id="patch_10">
    <path d="M 180.3255 130.232 
L 274.953 130.232 
" style="fill:none;"/>
   </g>
   <g id="patch_11">
    <path d="M 180.3255 33.568 
L 274.953 33.568 
" style="fill:none;"/>
   </g>
   <g id="text_20">
    <!-- CDF -->
    <defs>
     <path d="M 70.515625 19.28125 
Q 67.28125 9.078125 59.6875 3.828125 
Q 52.09375 -1.421875 40.484375 -1.421875 
Q 33.34375 -1.421875 27.234375 1.015625 
Q 21.140625 3.46875 16.40625 8.203125 
Q 10.9375 13.671875 8.265625 20.625 
Q 5.609375 27.59375 5.609375 36.375 
Q 5.609375 53.375 15.421875 63.796875 
Q 25.25 74.21875 41.3125 74.21875 
Q 47.265625 74.21875 54 72.65625 
Q 60.75 71.09375 68.5 67.921875 
L 68.5 51.125 
L 62.984375 51.125 
Q 61.1875 60.296875 55.734375 64.640625 
Q 50.296875 69 40.484375 69 
Q 28.8125 69 22.796875 60.71875 
Q 16.796875 52.4375 16.796875 36.375 
Q 16.796875 20.359375 22.796875 12.078125 
Q 28.8125 3.8125 40.484375 3.8125 
Q 48.640625 3.8125 53.90625 7.6875 
Q 59.1875 11.578125 61.53125 19.28125 
z
" id="DejaVuSerif-43"/>
    </defs>
    <g style="fill:#262626;" transform="translate(216.7875 27.568)scale(0.096 -0.096)">
     <use xlink:href="#DejaVuSerif-43"/>
     <use x="76.513672" xlink:href="#DejaVuSerif-44"/>
     <use x="156.689453" xlink:href="#DejaVuSerif-46"/>
    </g>
   </g>
  </g>
  <g id="axes_3">
   <g id="patch_12">
    <path d="M 319.8585 130.232 
L 414.486 130.232 
L 414.486 33.568 
L 319.8585 33.568 
z
" style="fill:#eaeaf2;"/>
   </g>
   <g id="matplotlib.axis_5">
    <g id="xtick_7">
     <g id="line2d_39">
      <path clip-path="url(#p0fc624dbcb)" d="M 319.8585 130.232 
L 319.8585 33.568 
" style="fill:none;opacity:0.5;stroke:#0000ff;stroke-linecap:round;stroke-width:0.1;"/>
     </g>
     <g id="line2d_40"/>
     <g id="text_21">
      <!-- 0.0 -->
      <g style="fill:#262626;" transform="translate(313.49725 141.91075)scale(0.08 -0.08)">
       <use xlink:href="#DejaVuSerif-30"/>
       <use x="63.623047" xlink:href="#DejaVuSerif-2e"/>
       <use x="95.410156" xlink:href="#DejaVuSerif-30"/>
      </g>
     </g>
    </g>
    <g id="xtick_8">
     <g id="line2d_41">
      <path clip-path="url(#p0fc624dbcb)" d="M 367.17225 130.232 
L 367.17225 33.568 
" style="fill:none;opacity:0.5;stroke:#0000ff;stroke-linecap:round;stroke-width:0.1;"/>
     </g>
     <g id="line2d_42"/>
     <g id="text_22">
      <!-- 0.5 -->
      <defs>
       <path d="M 50.296875 72.90625 
L 50.296875 64.890625 
L 16.890625 64.890625 
L 16.890625 44 
Q 19.4375 45.75 22.828125 46.625 
Q 26.21875 47.515625 30.421875 47.515625 
Q 42.234375 47.515625 49.0625 40.96875 
Q 55.90625 34.421875 55.90625 23.09375 
Q 55.90625 11.53125 49 5.046875 
Q 42.09375 -1.421875 29.59375 -1.421875 
Q 24.5625 -1.421875 19.28125 -0.1875 
Q 14.015625 1.03125 8.5 3.515625 
L 8.5 17.671875 
L 14.015625 17.671875 
Q 14.453125 10.75 18.421875 7.078125 
Q 22.40625 3.421875 29.59375 3.421875 
Q 37.3125 3.421875 41.453125 8.5 
Q 45.609375 13.578125 45.609375 23.09375 
Q 45.609375 32.5625 41.484375 37.609375 
Q 37.359375 42.671875 29.59375 42.671875 
Q 25.203125 42.671875 21.84375 41.109375 
Q 18.5 39.546875 15.921875 36.28125 
L 11.71875 36.28125 
L 11.71875 72.90625 
z
" id="DejaVuSerif-35"/>
      </defs>
      <g style="fill:#262626;" transform="translate(360.811 141.91075)scale(0.08 -0.08)">
       <use xlink:href="#DejaVuSerif-30"/>
       <use x="63.623047" xlink:href="#DejaVuSerif-2e"/>
       <use x="95.410156" xlink:href="#DejaVuSerif-35"/>
      </g>
     </g>
    </g>
    <g id="xtick_9">
     <g id="line2d_43">
      <path clip-path="url(#p0fc624dbcb)" d="M 414.486 130.232 
L 414.486 33.568 
" style="fill:none;opacity:0.5;stroke:#0000ff;stroke-linecap:round;stroke-width:0.1;"/>
     </g>
     <g id="line2d_44"/>
     <g id="text_23">
      <!-- 1.0 -->
      <g style="fill:#262626;" transform="translate(408.12475 141.91075)scale(0.08 -0.08)">
       <use xlink:href="#DejaVuSerif-31"/>
       <use x="63.623047" xlink:href="#DejaVuSerif-2e"/>
       <use x="95.410156" xlink:href="#DejaVuSerif-30"/>
      </g>
     </g>
    </g>
   </g>
   <g id="matplotlib.axis_6">
    <g id="ytick_13">
     <g id="line2d_45">
      <path clip-path="url(#p0fc624dbcb)" d="M 319.8585 118.400563 
L 414.486 118.400563 
" style="fill:none;opacity:0.5;stroke:#0000ff;stroke-linecap:round;stroke-width:0.1;"/>
     </g>
     <g id="line2d_46"/>
     <g id="text_24">
      <!-- 500 -->
      <g style="fill:#262626;" transform="translate(298.9885 121.439938)scale(0.08 -0.08)">
       <use xlink:href="#DejaVuSerif-35"/>
       <use x="63.623047" xlink:href="#DejaVuSerif-30"/>
       <use x="127.246094" xlink:href="#DejaVuSerif-30"/>
      </g>
     </g>
    </g>
    <g id="ytick_14">
     <g id="line2d_47">
      <path clip-path="url(#p0fc624dbcb)" d="M 319.8585 99.986048 
L 414.486 99.986048 
" style="fill:none;opacity:0.5;stroke:#0000ff;stroke-linecap:round;stroke-width:0.1;"/>
     </g>
     <g id="line2d_48"/>
     <g id="text_25">
      <!-- 1000 -->
      <g style="fill:#262626;" transform="translate(293.8985 103.025423)scale(0.08 -0.08)">
       <use xlink:href="#DejaVuSerif-31"/>
       <use x="63.623047" xlink:href="#DejaVuSerif-30"/>
       <use x="127.246094" xlink:href="#DejaVuSerif-30"/>
       <use x="190.869141" xlink:href="#DejaVuSerif-30"/>
      </g>
     </g>
    </g>
    <g id="ytick_15">
     <g id="line2d_49">
      <path clip-path="url(#p0fc624dbcb)" d="M 319.8585 81.571533 
L 414.486 81.571533 
" style="fill:none;opacity:0.5;stroke:#0000ff;stroke-linecap:round;stroke-width:0.1;"/>
     </g>
     <g id="line2d_50"/>
     <g id="text_26">
      <!-- 1500 -->
      <g style="fill:#262626;" transform="translate(293.8985 84.610908)scale(0.08 -0.08)">
       <use xlink:href="#DejaVuSerif-31"/>
       <use x="63.623047" xlink:href="#DejaVuSerif-35"/>
       <use x="127.246094" xlink:href="#DejaVuSerif-30"/>
       <use x="190.869141" xlink:href="#DejaVuSerif-30"/>
      </g>
     </g>
    </g>
    <g id="ytick_16">
     <g id="line2d_51">
      <path clip-path="url(#p0fc624dbcb)" d="M 319.8585 63.157017 
L 414.486 63.157017 
" style="fill:none;opacity:0.5;stroke:#0000ff;stroke-linecap:round;stroke-width:0.1;"/>
     </g>
     <g id="line2d_52"/>
     <g id="text_27">
      <!-- 2000 -->
      <g style="fill:#262626;" transform="translate(293.8985 66.196392)scale(0.08 -0.08)">
       <use xlink:href="#DejaVuSerif-32"/>
       <use x="63.623047" xlink:href="#DejaVuSerif-30"/>
       <use x="127.246094" xlink:href="#DejaVuSerif-30"/>
       <use x="190.869141" xlink:href="#DejaVuSerif-30"/>
      </g>
     </g>
    </g>
    <g id="ytick_17">
     <g id="line2d_53">
      <path clip-path="url(#p0fc624dbcb)" d="M 319.8585 44.742502 
L 414.486 44.742502 
" style="fill:none;opacity:0.5;stroke:#0000ff;stroke-linecap:round;stroke-width:0.1;"/>
     </g>
     <g id="line2d_54"/>
     <g id="text_28">
      <!-- 2500 -->
      <g style="fill:#262626;" transform="translate(293.8985 47.781877)scale(0.08 -0.08)">
       <use xlink:href="#DejaVuSerif-32"/>
       <use x="63.623047" xlink:href="#DejaVuSerif-35"/>
       <use x="127.246094" xlink:href="#DejaVuSerif-30"/>
       <use x="190.869141" xlink:href="#DejaVuSerif-30"/>
      </g>
     </g>
    </g>
   </g>
   <g id="line2d_55">
    <path clip-path="url(#p0fc624dbcb)" d="M 320.804775 37.961818 
L 321.75105 37.961818 
L 321.75105 49.905693 
L 322.697325 49.905693 
L 322.697325 56.723935 
L 323.6436 56.723935 
L 323.6436 61.498145 
L 324.589875 61.498145 
L 324.589875 65.170908 
L 325.53615 65.170908 
L 325.53615 68.155564 
L 326.482425 68.155564 
L 326.482425 70.670041 
L 327.4287 70.670041 
L 327.4287 72.843215 
L 328.374975 72.843215 
L 328.374975 74.757572 
L 329.32125 74.757572 
L 329.32125 76.469065 
L 330.267525 76.469065 
L 330.267525 78.01737 
L 331.2138 78.01737 
L 331.2138 79.431639 
L 332.160075 79.431639 
L 332.160075 80.733909 
L 333.10635 80.733909 
L 333.10635 81.941242 
L 334.052625 81.941242 
L 334.052625 83.067114 
L 334.9989 83.067114 
L 334.9989 84.122355 
L 335.945175 84.122355 
L 335.945175 85.115796 
L 336.89145 85.115796 
L 336.89145 86.054732 
L 337.837725 86.054732 
L 337.837725 86.945263 
L 338.784 86.945263 
L 338.784 87.792534 
L 339.730275 87.792534 
L 339.730275 88.600931 
L 340.67655 88.600931 
L 340.67655 89.374221 
L 341.622825 89.374221 
L 341.622825 90.115663 
L 342.5691 90.115663 
L 342.5691 90.828097 
L 343.515375 90.828097 
L 343.515375 91.514011 
L 344.46165 91.514011 
L 344.46165 92.175601 
L 345.407925 92.175601 
L 345.407925 92.814812 
L 346.3542 92.814812 
L 346.3542 93.433377 
L 347.300475 93.433377 
L 347.300475 94.032845 
L 348.24675 94.032845 
L 348.24675 94.61461 
L 349.193025 94.61461 
L 349.193025 95.179928 
L 350.1393 95.179928 
L 350.1393 95.729937 
L 351.085575 95.729937 
L 351.085575 96.265672 
L 352.03185 96.265672 
L 352.03185 96.788077 
L 352.978125 96.788077 
L 352.978125 97.298014 
L 353.9244 97.298014 
L 353.9244 97.796275 
L 354.870675 97.796275 
L 354.870675 98.283591 
L 355.81695 98.283591 
L 355.81695 98.760634 
L 356.763225 98.760634 
L 356.763225 99.228029 
L 357.7095 99.228029 
L 357.7095 99.686354 
L 358.655775 99.686354 
L 358.655775 100.136148 
L 359.60205 100.136148 
L 359.60205 100.577914 
L 360.548325 100.577914 
L 360.548325 101.012125 
L 361.4946 101.012125 
L 361.4946 101.439221 
L 362.440875 101.439221 
L 362.440875 101.85962 
L 363.38715 101.85962 
L 363.38715 102.273713 
L 364.333425 102.273713 
L 364.333425 102.681873 
L 365.2797 102.681873 
L 365.2797 103.084452 
L 366.225975 103.084452 
L 366.225975 103.481785 
L 367.17225 103.481785 
L 367.17225 103.874192 
L 368.118525 103.874192 
L 368.118525 104.26198 
L 369.0648 104.26198 
L 369.0648 104.645442 
L 370.011075 104.645442 
L 370.011075 105.024861 
L 370.95735 105.024861 
L 370.95735 105.400512 
L 371.903625 105.400512 
L 371.903625 105.772659 
L 372.8499 105.772659 
L 372.8499 106.14156 
L 373.796175 106.14156 
L 373.796175 106.507467 
L 374.74245 106.507467 
L 374.74245 106.870627 
L 375.688725 106.870627 
L 375.688725 107.231283 
L 376.635 107.231283 
L 376.635 107.589674 
L 377.581275 107.589674 
L 377.581275 107.946039 
L 378.52755 107.946039 
L 378.52755 108.300616 
L 379.473825 108.300616 
L 379.473825 108.653643 
L 380.4201 108.653643 
L 380.4201 109.005358 
L 381.366375 109.005358 
L 381.366375 109.356004 
L 382.31265 109.356004 
L 382.31265 109.705828 
L 383.258925 109.705828 
L 383.258925 110.055081 
L 384.2052 110.055081 
L 384.2052 110.404022 
L 385.151475 110.404022 
L 385.151475 110.752917 
L 386.09775 110.752917 
L 386.09775 111.102046 
L 387.044025 111.102046 
L 387.044025 111.451699 
L 387.9903 111.451699 
L 387.9903 111.802182 
L 388.936575 111.802182 
L 388.936575 112.153818 
L 389.88285 112.153818 
L 389.88285 112.506953 
L 390.829125 112.506953 
L 390.829125 112.861956 
L 391.7754 112.861956 
L 391.7754 113.219227 
L 392.721675 113.219227 
L 392.721675 113.579199 
L 393.66795 113.579199 
L 393.66795 113.942347 
L 394.614225 113.942347 
L 394.614225 114.309194 
L 395.5605 114.309194 
L 395.5605 114.680324 
L 396.506775 114.680324 
L 396.506775 115.056386 
L 397.45305 115.056386 
L 397.45305 115.438116 
L 398.399325 115.438116 
L 398.399325 115.826354 
L 399.3456 115.826354 
L 399.3456 116.222064 
L 400.291875 116.222064 
L 400.291875 116.626369 
L 401.23815 116.626369 
L 401.23815 117.040591 
L 402.184425 117.040591 
L 402.184425 117.466302 
L 403.1307 117.466302 
L 403.1307 117.905407 
L 404.076975 117.905407 
L 404.076975 118.360243 
L 405.02325 118.360243 
L 405.02325 118.833741 
L 405.969525 118.833741 
L 405.969525 119.329651 
L 406.9158 119.329651 
L 406.9158 119.852902 
L 407.862075 119.852902 
L 407.862075 120.410189 
L 408.80835 120.410189 
L 408.80835 121.010976 
L 409.754625 121.010976 
L 409.754625 121.669366 
L 410.7009 121.669366 
L 410.7009 122.407933 
L 411.647175 122.407933 
L 411.647175 123.266739 
L 412.59345 123.266739 
L 412.59345 124.329637 
L 413.539725 124.329637 
L 413.539725 125.838182 
L 413.539725 125.838182 
" style="fill:none;stroke:#4c72b0;stroke-linecap:round;"/>
   </g>
   <g id="patch_13">
    <path d="M 319.8585 130.232 
L 319.8585 33.568 
" style="fill:none;"/>
   </g>
   <g id="patch_14">
    <path d="M 414.486 130.232 
L 414.486 33.568 
" style="fill:none;"/>
   </g>
   <g id="patch_15">
    <path d="M 319.8585 130.232 
L 414.486 130.232 
" style="fill:none;"/>
   </g>
   <g id="patch_16">
    <path d="M 319.8585 33.568 
L 414.486 33.568 
" style="fill:none;"/>
   </g>
   <g id="text_29">
    <!-- ISF -->
    <defs>
     <path d="M 24.703125 5.171875 
L 33.984375 5.171875 
L 33.984375 0 
L 5.515625 0 
L 5.515625 5.171875 
L 14.796875 5.171875 
L 14.796875 67.671875 
L 5.515625 67.671875 
L 5.515625 72.90625 
L 33.984375 72.90625 
L 33.984375 67.671875 
L 24.703125 67.671875 
z
" id="DejaVuSerif-49"/>
     <path d="M 9.28125 3.515625 
L 9.28125 20.125 
L 14.890625 20.0625 
Q 15.140625 11.765625 19.703125 7.78125 
Q 24.265625 3.8125 33.59375 3.8125 
Q 42.28125 3.8125 46.84375 7.25 
Q 51.421875 10.6875 51.421875 17.28125 
Q 51.421875 22.5625 48.65625 25.390625 
Q 45.90625 28.21875 37.015625 30.90625 
L 27.390625 33.796875 
Q 16.9375 36.96875 12.671875 41.703125 
Q 8.40625 46.4375 8.40625 54.6875 
Q 8.40625 63.96875 14.984375 69.09375 
Q 21.578125 74.21875 33.5 74.21875 
Q 38.578125 74.21875 44.625 73.109375 
Q 50.6875 72.015625 57.515625 69.921875 
L 57.515625 54.390625 
L 52 54.390625 
Q 51.171875 62.109375 46.84375 65.546875 
Q 42.53125 69 33.6875 69 
Q 25.984375 69 21.953125 65.84375 
Q 17.921875 62.703125 17.921875 56.6875 
Q 17.921875 51.46875 20.9375 48.484375 
Q 23.96875 45.515625 33.796875 42.578125 
L 42.828125 39.890625 
Q 52.734375 36.921875 56.953125 32.296875 
Q 61.1875 27.6875 61.1875 19.921875 
Q 61.1875 9.328125 54.390625 3.953125 
Q 47.609375 -1.421875 34.1875 -1.421875 
Q 28.171875 -1.421875 21.9375 -0.1875 
Q 15.71875 1.03125 9.28125 3.515625 
z
" id="DejaVuSerif-53"/>
    </defs>
    <g style="fill:#262626;" transform="translate(358.6575 27.568)scale(0.096 -0.096)">
     <use xlink:href="#DejaVuSerif-49"/>
     <use x="39.501953" xlink:href="#DejaVuSerif-53"/>
     <use x="108.007812" xlink:href="#DejaVuSerif-46"/>
    </g>
   </g>
  </g>
  <g id="axes_4">
   <g id="patch_17">
    <path d="M 459.3915 130.232 
L 554.019 130.232 
L 554.019 33.568 
L 459.3915 33.568 
z
" style="fill:#eaeaf2;"/>
   </g>
   <g id="matplotlib.axis_7">
    <g id="xtick_10">
     <g id="line2d_56">
      <path clip-path="url(#p6991bd0b6a)" d="M 459.3915 130.232 
L 459.3915 33.568 
" style="fill:none;opacity:0.5;stroke:#0000ff;stroke-linecap:round;stroke-width:0.1;"/>
     </g>
     <g id="line2d_57"/>
     <g id="text_30">
      <!-- 0.0 -->
      <g style="fill:#262626;" transform="translate(453.03025 141.91075)scale(0.08 -0.08)">
       <use xlink:href="#DejaVuSerif-30"/>
       <use x="63.623047" xlink:href="#DejaVuSerif-2e"/>
       <use x="95.410156" xlink:href="#DejaVuSerif-30"/>
      </g>
     </g>
    </g>
    <g id="xtick_11">
     <g id="line2d_58">
      <path clip-path="url(#p6991bd0b6a)" d="M 506.70525 130.232 
L 506.70525 33.568 
" style="fill:none;opacity:0.5;stroke:#0000ff;stroke-linecap:round;stroke-width:0.1;"/>
     </g>
     <g id="line2d_59"/>
     <g id="text_31">
      <!-- 0.5 -->
      <g style="fill:#262626;" transform="translate(500.344 141.91075)scale(0.08 -0.08)">
       <use xlink:href="#DejaVuSerif-30"/>
       <use x="63.623047" xlink:href="#DejaVuSerif-2e"/>
       <use x="95.410156" xlink:href="#DejaVuSerif-35"/>
      </g>
     </g>
    </g>
    <g id="xtick_12">
     <g id="line2d_60">
      <path clip-path="url(#p6991bd0b6a)" d="M 554.019 130.232 
L 554.019 33.568 
" style="fill:none;opacity:0.5;stroke:#0000ff;stroke-linecap:round;stroke-width:0.1;"/>
     </g>
     <g id="line2d_61"/>
     <g id="text_32">
      <!-- 1.0 -->
      <g style="fill:#262626;" transform="translate(547.65775 141.91075)scale(0.08 -0.08)">
       <use xlink:href="#DejaVuSerif-31"/>
       <use x="63.623047" xlink:href="#DejaVuSerif-2e"/>
       <use x="95.410156" xlink:href="#DejaVuSerif-30"/>
      </g>
     </g>
    </g>
   </g>
   <g id="matplotlib.axis_8">
    <g id="ytick_18">
     <g id="line2d_62">
      <path clip-path="url(#p6991bd0b6a)" d="M 459.3915 118.400563 
L 554.019 118.400563 
" style="fill:none;opacity:0.5;stroke:#0000ff;stroke-linecap:round;stroke-width:0.1;"/>
     </g>
     <g id="line2d_63"/>
     <g id="text_33">
      <!-- 500 -->
      <g style="fill:#262626;" transform="translate(438.5215 121.439938)scale(0.08 -0.08)">
       <use xlink:href="#DejaVuSerif-35"/>
       <use x="63.623047" xlink:href="#DejaVuSerif-30"/>
       <use x="127.246094" xlink:href="#DejaVuSerif-30"/>
      </g>
     </g>
    </g>
    <g id="ytick_19">
     <g id="line2d_64">
      <path clip-path="url(#p6991bd0b6a)" d="M 459.3915 99.986048 
L 554.019 99.986048 
" style="fill:none;opacity:0.5;stroke:#0000ff;stroke-linecap:round;stroke-width:0.1;"/>
     </g>
     <g id="line2d_65"/>
     <g id="text_34">
      <!-- 1000 -->
      <g style="fill:#262626;" transform="translate(433.4315 103.025423)scale(0.08 -0.08)">
       <use xlink:href="#DejaVuSerif-31"/>
       <use x="63.623047" xlink:href="#DejaVuSerif-30"/>
       <use x="127.246094" xlink:href="#DejaVuSerif-30"/>
       <use x="190.869141" xlink:href="#DejaVuSerif-30"/>
      </g>
     </g>
    </g>
    <g id="ytick_20">
     <g id="line2d_66">
      <path clip-path="url(#p6991bd0b6a)" d="M 459.3915 81.571533 
L 554.019 81.571533 
" style="fill:none;opacity:0.5;stroke:#0000ff;stroke-linecap:round;stroke-width:0.1;"/>
     </g>
     <g id="line2d_67"/>
     <g id="text_35">
      <!-- 1500 -->
      <g style="fill:#262626;" transform="translate(433.4315 84.610908)scale(0.08 -0.08)">
       <use xlink:href="#DejaVuSerif-31"/>
       <use x="63.623047" xlink:href="#DejaVuSerif-35"/>
       <use x="127.246094" xlink:href="#DejaVuSerif-30"/>
       <use x="190.869141" xlink:href="#DejaVuSerif-30"/>
      </g>
     </g>
    </g>
    <g id="ytick_21">
     <g id="line2d_68">
      <path clip-path="url(#p6991bd0b6a)" d="M 459.3915 63.157017 
L 554.019 63.157017 
" style="fill:none;opacity:0.5;stroke:#0000ff;stroke-linecap:round;stroke-width:0.1;"/>
     </g>
     <g id="line2d_69"/>
     <g id="text_36">
      <!-- 2000 -->
      <g style="fill:#262626;" transform="translate(433.4315 66.196392)scale(0.08 -0.08)">
       <use xlink:href="#DejaVuSerif-32"/>
       <use x="63.623047" xlink:href="#DejaVuSerif-30"/>
       <use x="127.246094" xlink:href="#DejaVuSerif-30"/>
       <use x="190.869141" xlink:href="#DejaVuSerif-30"/>
      </g>
     </g>
    </g>
    <g id="ytick_22">
     <g id="line2d_70">
      <path clip-path="url(#p6991bd0b6a)" d="M 459.3915 44.742502 
L 554.019 44.742502 
" style="fill:none;opacity:0.5;stroke:#0000ff;stroke-linecap:round;stroke-width:0.1;"/>
     </g>
     <g id="line2d_71"/>
     <g id="text_37">
      <!-- 2500 -->
      <g style="fill:#262626;" transform="translate(433.4315 47.781877)scale(0.08 -0.08)">
       <use xlink:href="#DejaVuSerif-32"/>
       <use x="63.623047" xlink:href="#DejaVuSerif-35"/>
       <use x="127.246094" xlink:href="#DejaVuSerif-30"/>
       <use x="190.869141" xlink:href="#DejaVuSerif-30"/>
      </g>
     </g>
    </g>
   </g>
   <g id="line2d_72">
    <path clip-path="url(#p6991bd0b6a)" d="M 553.072725 37.961818 
L 552.12645 37.961818 
L 552.12645 49.905693 
L 551.180175 49.905693 
L 551.180175 56.723935 
L 550.2339 56.723935 
L 550.2339 61.498145 
L 549.287625 61.498145 
L 549.287625 65.170908 
L 548.34135 65.170908 
L 548.34135 68.155564 
L 547.395075 68.155564 
L 547.395075 70.670041 
L 546.4488 70.670041 
L 546.4488 72.843215 
L 545.502525 72.843215 
L 545.502525 74.757572 
L 544.55625 74.757572 
L 544.55625 76.469065 
L 543.609975 76.469065 
L 543.609975 78.01737 
L 542.6637 78.01737 
L 542.6637 79.431639 
L 541.717425 79.431639 
L 541.717425 80.733909 
L 540.77115 80.733909 
L 540.77115 81.941242 
L 539.824875 81.941242 
L 539.824875 83.067114 
L 538.8786 83.067114 
L 538.8786 84.122355 
L 537.932325 84.122355 
L 537.932325 85.115796 
L 536.98605 85.115796 
L 536.98605 86.054732 
L 536.039775 86.054732 
L 536.039775 86.945263 
L 535.0935 86.945263 
L 535.0935 87.792534 
L 534.147225 87.792534 
L 534.147225 88.600931 
L 533.20095 88.600931 
L 533.20095 89.374221 
L 532.254675 89.374221 
L 532.254675 90.115663 
L 531.3084 90.115663 
L 531.3084 90.828097 
L 530.362125 90.828097 
L 530.362125 91.514011 
L 529.41585 91.514011 
L 529.41585 92.175601 
L 528.469575 92.175601 
L 528.469575 92.814812 
L 527.5233 92.814812 
L 527.5233 93.433377 
L 526.577025 93.433377 
L 526.577025 94.032845 
L 525.63075 94.032845 
L 525.63075 94.61461 
L 524.684475 94.61461 
L 524.684475 95.179928 
L 523.7382 95.179928 
L 523.7382 95.729937 
L 522.791925 95.729937 
L 522.791925 96.265672 
L 521.84565 96.265672 
L 521.84565 96.788077 
L 520.899375 96.788077 
L 520.899375 97.298014 
L 519.9531 97.298014 
L 519.9531 97.796275 
L 519.006825 97.796275 
L 519.006825 98.283591 
L 518.06055 98.283591 
L 518.06055 98.760634 
L 517.114275 98.760634 
L 517.114275 99.228029 
L 516.168 99.228029 
L 516.168 99.686354 
L 515.221725 99.686354 
L 515.221725 100.136148 
L 514.27545 100.136148 
L 514.27545 100.577914 
L 513.329175 100.577914 
L 513.329175 101.012125 
L 512.3829 101.012125 
L 512.3829 101.439221 
L 511.436625 101.439221 
L 511.436625 101.85962 
L 510.49035 101.85962 
L 510.49035 102.273713 
L 509.544075 102.273713 
L 509.544075 102.681873 
L 508.5978 102.681873 
L 508.5978 103.084452 
L 507.651525 103.084452 
L 507.651525 103.481785 
L 506.70525 103.481785 
L 506.70525 103.874192 
L 505.758975 103.874192 
L 505.758975 104.26198 
L 504.8127 104.26198 
L 504.8127 104.645442 
L 503.866425 104.645442 
L 503.866425 105.024861 
L 502.92015 105.024861 
L 502.92015 105.400512 
L 501.973875 105.400512 
L 501.973875 105.772659 
L 501.0276 105.772659 
L 501.0276 106.14156 
L 500.081325 106.14156 
L 500.081325 106.507467 
L 499.13505 106.507467 
L 499.13505 106.870627 
L 498.188775 106.870627 
L 498.188775 107.231283 
L 497.2425 107.231283 
L 497.2425 107.589674 
L 496.296225 107.589674 
L 496.296225 107.946039 
L 495.34995 107.946039 
L 495.34995 108.300616 
L 494.403675 108.300616 
L 494.403675 108.653643 
L 493.4574 108.653643 
L 493.4574 109.005358 
L 492.511125 109.005358 
L 492.511125 109.356004 
L 491.56485 109.356004 
L 491.56485 109.705828 
L 490.618575 109.705828 
L 490.618575 110.055081 
L 489.6723 110.055081 
L 489.6723 110.404022 
L 488.726025 110.404022 
L 488.726025 110.752917 
L 487.77975 110.752917 
L 487.77975 111.102046 
L 486.833475 111.102046 
L 486.833475 111.451699 
L 485.8872 111.451699 
L 485.8872 111.802182 
L 484.940925 111.802182 
L 484.940925 112.153818 
L 483.99465 112.153818 
L 483.99465 112.506953 
L 483.048375 112.506953 
L 483.048375 112.861956 
L 482.1021 112.861956 
L 482.1021 113.219227 
L 481.155825 113.219227 
L 481.155825 113.579199 
L 480.20955 113.579199 
L 480.20955 113.942347 
L 479.263275 113.942347 
L 479.263275 114.309194 
L 478.317 114.309194 
L 478.317 114.680324 
L 477.370725 114.680324 
L 477.370725 115.056386 
L 476.42445 115.056386 
L 476.42445 115.438116 
L 475.478175 115.438116 
L 475.478175 115.826354 
L 474.5319 115.826354 
L 474.5319 116.222064 
L 473.585625 116.222064 
L 473.585625 116.626369 
L 472.63935 116.626369 
L 472.63935 117.040591 
L 471.693075 117.040591 
L 471.693075 117.466302 
L 470.7468 117.466302 
L 470.7468 117.905407 
L 469.800525 117.905407 
L 469.800525 118.360243 
L 468.85425 118.360243 
L 468.85425 118.833741 
L 467.907975 118.833741 
L 467.907975 119.329651 
L 466.9617 119.329651 
L 466.9617 119.852902 
L 466.015425 119.852902 
L 466.015425 120.410189 
L 465.06915 120.410189 
L 465.06915 121.010976 
L 464.122875 121.010976 
L 464.122875 121.669366 
L 463.1766 121.669366 
L 463.1766 122.407933 
L 462.230325 122.407933 
L 462.230325 123.266739 
L 461.28405 123.266739 
L 461.28405 124.329637 
L 460.337775 124.329637 
L 460.337775 125.838182 
L 460.337775 125.838182 
" style="fill:none;stroke:#4c72b0;stroke-linecap:round;"/>
   </g>
   <g id="patch_18">
    <path d="M 459.3915 130.232 
L 459.3915 33.568 
" style="fill:none;"/>
   </g>
   <g id="patch_19">
    <path d="M 554.019 130.232 
L 554.019 33.568 
" style="fill:none;"/>
   </g>
   <g id="patch_20">
    <path d="M 459.3915 130.232 
L 554.019 130.232 
" style="fill:none;"/>
   </g>
   <g id="patch_21">
    <path d="M 459.3915 33.568 
L 554.019 33.568 
" style="fill:none;"/>
   </g>
   <g id="text_38">
    <!-- Lee diagram -->
    <defs>
     <path d="M 5.515625 0 
L 5.515625 5.171875 
L 14.796875 5.171875 
L 14.796875 67.671875 
L 5.515625 67.671875 
L 5.515625 72.90625 
L 33.984375 72.90625 
L 33.984375 67.671875 
L 24.703125 67.671875 
L 24.703125 6 
L 58.015625 6 
L 58.015625 18.21875 
L 64.015625 18.21875 
L 64.015625 0 
z
" id="DejaVuSerif-4c"/>
     <path d="M 54.203125 25 
L 15.484375 25 
L 15.484375 24.609375 
Q 15.484375 14.109375 19.4375 8.765625 
Q 23.390625 3.421875 31.109375 3.421875 
Q 37.015625 3.421875 40.796875 6.515625 
Q 44.578125 9.625 46.09375 15.71875 
L 53.328125 15.71875 
Q 51.171875 7.171875 45.375 2.875 
Q 39.59375 -1.421875 30.171875 -1.421875 
Q 18.796875 -1.421875 11.890625 6.078125 
Q 4.984375 13.578125 4.984375 25.984375 
Q 4.984375 38.28125 11.765625 45.796875 
Q 18.5625 53.328125 29.59375 53.328125 
Q 41.359375 53.328125 47.65625 46.0625 
Q 53.953125 38.8125 54.203125 25 
z
M 43.609375 30.171875 
Q 43.3125 39.265625 39.765625 43.875 
Q 36.234375 48.484375 29.59375 48.484375 
Q 23.390625 48.484375 19.828125 43.84375 
Q 16.265625 39.203125 15.484375 30.171875 
z
" id="DejaVuSerif-65"/>
     <path id="DejaVuSerif-20"/>
     <path d="M 52.484375 5.171875 
L 61.078125 5.171875 
L 61.078125 0 
L 43.5 0 
L 43.5 8.109375 
Q 40.875 3.21875 36.796875 0.890625 
Q 32.71875 -1.421875 26.703125 -1.421875 
Q 17.140625 -1.421875 11.0625 6.171875 
Q 4.984375 13.765625 4.984375 25.984375 
Q 4.984375 38.1875 11.03125 45.75 
Q 17.09375 53.328125 26.703125 53.328125 
Q 32.71875 53.328125 36.796875 51 
Q 40.875 48.6875 43.5 43.796875 
L 43.5 70.796875 
L 35.015625 70.796875 
L 35.015625 75.984375 
L 52.484375 75.984375 
z
M 43.5 23.390625 
L 43.5 28.515625 
Q 43.5 37.84375 39.90625 42.765625 
Q 36.328125 47.703125 29.5 47.703125 
Q 22.5625 47.703125 19.015625 42.234375 
Q 15.484375 36.765625 15.484375 25.984375 
Q 15.484375 15.234375 19.015625 9.71875 
Q 22.5625 4.203125 29.5 4.203125 
Q 36.328125 4.203125 39.90625 9.109375 
Q 43.5 14.015625 43.5 23.390625 
z
" id="DejaVuSerif-64"/>
     <path d="M 9.71875 68.015625 
Q 9.71875 70.265625 11.34375 71.921875 
Q 12.984375 73.578125 15.28125 73.578125 
Q 17.53125 73.578125 19.15625 71.921875 
Q 20.796875 70.265625 20.796875 68.015625 
Q 20.796875 65.71875 19.1875 64.109375 
Q 17.578125 62.5 15.28125 62.5 
Q 12.984375 62.5 11.34375 64.109375 
Q 9.71875 65.71875 9.71875 68.015625 
z
M 21.1875 5.171875 
L 29.6875 5.171875 
L 29.6875 0 
L 3.609375 0 
L 3.609375 5.171875 
L 12.203125 5.171875 
L 12.203125 46.6875 
L 3.609375 46.6875 
L 3.609375 51.90625 
L 21.1875 51.90625 
z
" id="DejaVuSerif-69"/>
     <path d="M 39.796875 16.3125 
L 39.796875 27.296875 
L 28.21875 27.296875 
Q 21.53125 27.296875 18.25 24.40625 
Q 14.984375 21.53125 14.984375 15.578125 
Q 14.984375 10.15625 18.296875 6.984375 
Q 21.625 3.8125 27.296875 3.8125 
Q 32.90625 3.8125 36.34375 7.28125 
Q 39.796875 10.75 39.796875 16.3125 
z
M 48.78125 32.421875 
L 48.78125 5.171875 
L 56.78125 5.171875 
L 56.78125 0 
L 39.796875 0 
L 39.796875 5.609375 
Q 36.8125 2 32.90625 0.28125 
Q 29 -1.421875 23.78125 -1.421875 
Q 15.140625 -1.421875 10.0625 3.171875 
Q 4.984375 7.765625 4.984375 15.578125 
Q 4.984375 23.640625 10.796875 28.078125 
Q 16.609375 32.515625 27.203125 32.515625 
L 39.796875 32.515625 
L 39.796875 36.078125 
Q 39.796875 42 36.203125 45.234375 
Q 32.625 48.484375 26.125 48.484375 
Q 20.75 48.484375 17.578125 46.046875 
Q 14.40625 43.609375 13.625 38.8125 
L 8.984375 38.8125 
L 8.984375 49.3125 
Q 13.671875 51.3125 18.09375 52.3125 
Q 22.515625 53.328125 26.703125 53.328125 
Q 37.5 53.328125 43.140625 47.96875 
Q 48.78125 42.625 48.78125 32.421875 
z
" id="DejaVuSerif-61"/>
     <path d="M 52.484375 46.6875 
L 52.484375 1.125 
Q 52.484375 -10.0625 46.328125 -16.140625 
Q 40.1875 -22.21875 28.8125 -22.21875 
Q 23.6875 -22.21875 19 -21.28125 
Q 14.3125 -20.359375 10.015625 -18.5 
L 10.015625 -7.625 
L 14.703125 -7.625 
Q 15.578125 -12.703125 18.84375 -15.046875 
Q 22.125 -17.390625 28.21875 -17.390625 
Q 36.140625 -17.390625 39.8125 -12.921875 
Q 43.5 -8.453125 43.5 1.125 
L 43.5 8.109375 
Q 40.875 3.21875 36.796875 0.890625 
Q 32.71875 -1.421875 26.703125 -1.421875 
Q 17.140625 -1.421875 11.0625 6.171875 
Q 4.984375 13.765625 4.984375 25.984375 
Q 4.984375 38.1875 11.03125 45.75 
Q 17.09375 53.328125 26.703125 53.328125 
Q 32.71875 53.328125 36.796875 51 
Q 40.875 48.6875 43.5 43.796875 
L 43.5 51.90625 
L 61.078125 51.90625 
L 61.078125 46.6875 
z
M 43.5 28.515625 
Q 43.5 37.84375 39.90625 42.765625 
Q 36.328125 47.703125 29.5 47.703125 
Q 22.5625 47.703125 19.015625 42.234375 
Q 15.484375 36.765625 15.484375 25.984375 
Q 15.484375 15.234375 19.015625 9.71875 
Q 22.5625 4.203125 29.5 4.203125 
Q 36.328125 4.203125 39.90625 9.109375 
Q 43.5 14.015625 43.5 23.390625 
z
" id="DejaVuSerif-67"/>
     <path d="M 47.796875 52 
L 47.796875 39.015625 
L 42.625 39.015625 
Q 42.390625 42.875 40.484375 44.78125 
Q 38.578125 46.6875 34.90625 46.6875 
Q 28.265625 46.6875 24.71875 42.09375 
Q 21.1875 37.5 21.1875 28.90625 
L 21.1875 5.171875 
L 31.59375 5.171875 
L 31.59375 0 
L 4.109375 0 
L 4.109375 5.171875 
L 12.203125 5.171875 
L 12.203125 46.78125 
L 3.609375 46.78125 
L 3.609375 51.90625 
L 21.1875 51.90625 
L 21.1875 42.671875 
Q 23.828125 48.09375 27.96875 50.703125 
Q 32.125 53.328125 38.09375 53.328125 
Q 40.28125 53.328125 42.703125 52.984375 
Q 45.125 52.640625 47.796875 52 
z
" id="DejaVuSerif-72"/>
     <path d="M 51.8125 41.796875 
Q 54.390625 47.515625 58.421875 50.421875 
Q 62.453125 53.328125 67.828125 53.328125 
Q 75.984375 53.328125 79.984375 48.265625 
Q 83.984375 43.21875 83.984375 33.015625 
L 83.984375 5.171875 
L 92.09375 5.171875 
L 92.09375 0 
L 67.1875 0 
L 67.1875 5.171875 
L 75 5.171875 
L 75 31.984375 
Q 75 39.9375 72.65625 43.3125 
Q 70.3125 46.6875 64.890625 46.6875 
Q 58.890625 46.6875 55.734375 42.140625 
Q 52.59375 37.59375 52.59375 28.90625 
L 52.59375 5.171875 
L 60.40625 5.171875 
L 60.40625 0 
L 35.796875 0 
L 35.796875 5.171875 
L 43.609375 5.171875 
L 43.609375 32.328125 
Q 43.609375 40.09375 41.265625 43.390625 
Q 38.921875 46.6875 33.5 46.6875 
Q 27.484375 46.6875 24.328125 42.140625 
Q 21.1875 37.59375 21.1875 28.90625 
L 21.1875 5.171875 
L 29 5.171875 
L 29 0 
L 4.109375 0 
L 4.109375 5.171875 
L 12.203125 5.171875 
L 12.203125 46.78125 
L 3.609375 46.78125 
L 3.609375 51.90625 
L 21.1875 51.90625 
L 21.1875 42.671875 
Q 23.6875 47.859375 27.53125 50.59375 
Q 31.390625 53.328125 36.28125 53.328125 
Q 42.328125 53.328125 46.375 50.3125 
Q 50.4375 47.3125 51.8125 41.796875 
z
" id="DejaVuSerif-6d"/>
    </defs>
    <g style="fill:#262626;" transform="translate(476.0595 27.568)scale(0.096 -0.096)">
     <use xlink:href="#DejaVuSerif-4c"/>
     <use x="66.40625" xlink:href="#DejaVuSerif-65"/>
     <use x="125.585938" xlink:href="#DejaVuSerif-65"/>
     <use x="184.765625" xlink:href="#DejaVuSerif-20"/>
     <use x="216.552734" xlink:href="#DejaVuSerif-64"/>
     <use x="280.566406" xlink:href="#DejaVuSerif-69"/>
     <use x="312.548828" xlink:href="#DejaVuSerif-61"/>
     <use x="372.167969" xlink:href="#DejaVuSerif-67"/>
     <use x="436.181641" xlink:href="#DejaVuSerif-72"/>
     <use x="483.984375" xlink:href="#DejaVuSerif-61"/>
     <use x="543.603516" xlink:href="#DejaVuSerif-6d"/>
    </g>
   </g>
  </g>
  <g id="text_39">
   <!-- : lognorm -->
   <defs>
    <path d="M 10.40625 5.078125 
Q 10.40625 7.8125 12.28125 9.71875 
Q 14.15625 11.625 16.890625 11.625 
Q 19.625 11.625 21.5 9.71875 
Q 23.390625 7.8125 23.390625 5.078125 
Q 23.390625 2.34375 21.53125 0.453125 
Q 19.671875 -1.421875 16.890625 -1.421875 
Q 14.109375 -1.421875 12.25 0.453125 
Q 10.40625 2.34375 10.40625 5.078125 
z
M 10.40625 36.921875 
Q 10.40625 39.65625 12.28125 41.53125 
Q 14.15625 43.40625 16.890625 43.40625 
Q 19.671875 43.40625 21.53125 41.546875 
Q 23.390625 39.703125 23.390625 36.921875 
Q 23.390625 34.125 21.53125 32.265625 
Q 19.671875 30.421875 16.890625 30.421875 
Q 14.15625 30.421875 12.28125 32.296875 
Q 10.40625 34.1875 10.40625 36.921875 
z
" id="DejaVuSerif-3a"/>
    <path d="M 20.515625 5.171875 
L 29 5.171875 
L 29 0 
L 2.875 0 
L 2.875 5.171875 
L 11.53125 5.171875 
L 11.53125 70.796875 
L 2.875 70.796875 
L 2.875 75.984375 
L 20.515625 75.984375 
z
" id="DejaVuSerif-6c"/>
    <path d="M 30.078125 3.421875 
Q 37.3125 3.421875 40.984375 9.125 
Q 44.671875 14.84375 44.671875 25.984375 
Q 44.671875 37.109375 40.984375 42.796875 
Q 37.3125 48.484375 30.078125 48.484375 
Q 22.859375 48.484375 19.171875 42.796875 
Q 15.484375 37.109375 15.484375 25.984375 
Q 15.484375 14.84375 19.1875 9.125 
Q 22.90625 3.421875 30.078125 3.421875 
z
M 30.078125 -1.421875 
Q 18.75 -1.421875 11.859375 6.078125 
Q 4.984375 13.578125 4.984375 25.984375 
Q 4.984375 38.375 11.84375 45.84375 
Q 18.703125 53.328125 30.078125 53.328125 
Q 41.453125 53.328125 48.3125 45.84375 
Q 55.171875 38.375 55.171875 25.984375 
Q 55.171875 13.578125 48.3125 6.078125 
Q 41.453125 -1.421875 30.078125 -1.421875 
z
" id="DejaVuSerif-6f"/>
    <path d="M 4.109375 0 
L 4.109375 5.171875 
L 12.203125 5.171875 
L 12.203125 46.6875 
L 3.609375 46.6875 
L 3.609375 51.90625 
L 21.1875 51.90625 
L 21.1875 42.671875 
Q 23.6875 47.953125 27.65625 50.640625 
Q 31.640625 53.328125 36.921875 53.328125 
Q 45.515625 53.328125 49.5625 48.390625 
Q 53.609375 43.453125 53.609375 33.015625 
L 53.609375 5.171875 
L 61.625 5.171875 
L 61.625 0 
L 36.8125 0 
L 36.8125 5.171875 
L 44.578125 5.171875 
L 44.578125 30.171875 
Q 44.578125 39.703125 42.234375 43.234375 
Q 39.890625 46.78125 33.984375 46.78125 
Q 27.734375 46.78125 24.453125 42.203125 
Q 21.1875 37.640625 21.1875 28.90625 
L 21.1875 5.171875 
L 29 5.171875 
L 29 0 
z
" id="DejaVuSerif-6e"/>
   </defs>
   <g style="fill:#262626;" transform="translate(257.0385 15.9534)scale(0.1152 -0.1152)">
    <use xlink:href="#DejaVuSerif-3a"/>
    <use x="33.691406" xlink:href="#DejaVuSerif-20"/>
    <use x="65.478516" xlink:href="#DejaVuSerif-6c"/>
    <use x="97.460938" xlink:href="#DejaVuSerif-6f"/>
    <use x="157.666016" xlink:href="#DejaVuSerif-67"/>
    <use x="221.679688" xlink:href="#DejaVuSerif-6e"/>
    <use x="286.083984" xlink:href="#DejaVuSerif-6f"/>
    <use x="346.289062" xlink:href="#DejaVuSerif-72"/>
    <use x="394.091797" xlink:href="#DejaVuSerif-6d"/>
   </g>
  </g>
 </g>
 <defs>
  <clipPath id="p75039f73d3">
   <rect height="96.664" width="94.6275" x="40.7925" y="33.568"/>
  </clipPath>
  <clipPath id="p306606b70a">
   <rect height="96.664" width="94.6275" x="180.3255" y="33.568"/>
  </clipPath>
  <clipPath id="p0fc624dbcb">
   <rect height="96.664" width="94.6275" x="319.8585" y="33.568"/>
  </clipPath>
  <clipPath id="p6991bd0b6a">
   <rect height="96.664" width="94.6275" x="459.3915" y="33.568"/>
  </clipPath>
 </defs>
</svg>
