<?xml version="1.0" encoding="utf-8" standalone="no"?>
<!DOCTYPE svg PUBLIC "-//W3C//DTD SVG 1.1//EN"
  "http://www.w3.org/Graphics/SVG/1.1/DTD/svg11.dtd">
<!-- Created with matplotlib (http://matplotlib.org/) -->
<svg height="150.7745pt" version="1.1" viewBox="0 0 567.58025 150.7745" width="567.58025pt" xmlns="http://www.w3.org/2000/svg" xmlns:xlink="http://www.w3.org/1999/xlink">
 <defs>
  <style type="text/css">
*{stroke-linecap:butt;stroke-linejoin:round;}
  </style>
 </defs>
 <g id="figure_1">
  <g id="patch_1">
   <path d="M 0 150.7745 
L 567.58025 150.7745 
L 567.58025 -0 
L 0 -0 
z
" style="fill:#ffffff;"/>
  </g>
  <g id="axes_1">
   <g id="patch_2">
    <path d="M 40.7925 130.232 
L 135.32625 130.232 
L 135.32625 33.568 
L 40.7925 33.568 
z
" style="fill:#eaeaf2;"/>
   </g>
   <g id="matplotlib.axis_1">
    <g id="xtick_1">
     <g id="line2d_1">
      <path clip-path="url(#pf9a5a464a4)" d="M 45.089489 130.232 
L 45.089489 33.568 
" style="fill:none;opacity:0.5;stroke:#0000ff;stroke-linecap:round;stroke-width:0.1;"/>
     </g>
     <g id="line2d_2"/>
     <g id="text_1">
      <!-- 0 -->
      <defs>
       <path d="M 31.78125 3.421875 
Q 39.265625 3.421875 42.96875 11.625 
Q 46.6875 19.828125 46.6875 36.375 
Q 46.6875 52.984375 42.96875 61.1875 
Q 39.265625 69.390625 31.78125 69.390625 
Q 24.3125 69.390625 20.59375 61.1875 
Q 16.890625 52.984375 16.890625 36.375 
Q 16.890625 19.828125 20.59375 11.625 
Q 24.3125 3.421875 31.78125 3.421875 
z
M 31.78125 -1.421875 
Q 19.921875 -1.421875 13.25 8.53125 
Q 6.59375 18.5 6.59375 36.375 
Q 6.59375 54.296875 13.25 64.25 
Q 19.921875 74.21875 31.78125 74.21875 
Q 43.703125 74.21875 50.34375 64.25 
Q 56.984375 54.296875 56.984375 36.375 
Q 56.984375 18.5 50.34375 8.53125 
Q 43.703125 -1.421875 31.78125 -1.421875 
z
" id="DejaVuSerif-30"/>
      </defs>
      <g style="fill:#262626;" transform="translate(42.544489 141.91075)scale(0.08 -0.08)">
       <use xlink:href="#DejaVuSerif-30"/>
      </g>
     </g>
    </g>
    <g id="xtick_2">
     <g id="line2d_3">
      <path clip-path="url(#pf9a5a464a4)" d="M 87.231599 130.232 
L 87.231599 33.568 
" style="fill:none;opacity:0.5;stroke:#0000ff;stroke-linecap:round;stroke-width:0.1;"/>
     </g>
     <g id="line2d_4"/>
     <g id="text_2">
      <!-- 10000 -->
      <defs>
       <path d="M 14.203125 0 
L 14.203125 5.171875 
L 26.90625 5.171875 
L 26.90625 65.828125 
L 12.203125 56.296875 
L 12.203125 62.703125 
L 29.984375 74.21875 
L 36.71875 74.21875 
L 36.71875 5.171875 
L 49.421875 5.171875 
L 49.421875 0 
z
" id="DejaVuSerif-31"/>
      </defs>
      <g style="fill:#262626;" transform="translate(74.506599 141.91075)scale(0.08 -0.08)">
       <use xlink:href="#DejaVuSerif-31"/>
       <use x="63.623047" xlink:href="#DejaVuSerif-30"/>
       <use x="127.246094" xlink:href="#DejaVuSerif-30"/>
       <use x="190.869141" xlink:href="#DejaVuSerif-30"/>
       <use x="254.492188" xlink:href="#DejaVuSerif-30"/>
      </g>
     </g>
    </g>
    <g id="xtick_3">
     <g id="line2d_5">
      <path clip-path="url(#pf9a5a464a4)" d="M 129.373709 130.232 
L 129.373709 33.568 
" style="fill:none;opacity:0.5;stroke:#0000ff;stroke-linecap:round;stroke-width:0.1;"/>
     </g>
     <g id="line2d_6"/>
     <g id="text_3">
      <!-- 20000 -->
      <defs>
       <path d="M 12.796875 55.515625 
L 7.328125 55.515625 
L 7.328125 68.5 
Q 12.546875 71.296875 17.84375 72.75 
Q 23.140625 74.21875 28.21875 74.21875 
Q 39.59375 74.21875 46.1875 68.703125 
Q 52.78125 63.1875 52.78125 53.71875 
Q 52.78125 43.015625 37.84375 28.125 
Q 36.671875 27 36.078125 26.421875 
L 17.671875 8.015625 
L 48.09375 8.015625 
L 48.09375 17 
L 53.8125 17 
L 53.8125 0 
L 6.78125 0 
L 6.78125 5.328125 
L 28.90625 27.390625 
Q 36.234375 34.71875 39.359375 40.84375 
Q 42.484375 46.96875 42.484375 53.71875 
Q 42.484375 61.078125 38.640625 65.234375 
Q 34.8125 69.390625 28.078125 69.390625 
Q 21.09375 69.390625 17.28125 65.921875 
Q 13.484375 62.453125 12.796875 55.515625 
z
" id="DejaVuSerif-32"/>
      </defs>
      <g style="fill:#262626;" transform="translate(116.648709 141.91075)scale(0.08 -0.08)">
       <use xlink:href="#DejaVuSerif-32"/>
       <use x="63.623047" xlink:href="#DejaVuSerif-30"/>
       <use x="127.246094" xlink:href="#DejaVuSerif-30"/>
       <use x="190.869141" xlink:href="#DejaVuSerif-30"/>
       <use x="254.492188" xlink:href="#DejaVuSerif-30"/>
      </g>
     </g>
    </g>
   </g>
   <g id="matplotlib.axis_2">
    <g id="ytick_1">
     <g id="line2d_7">
      <path clip-path="url(#pf9a5a464a4)" d="M 40.7925 125.838182 
L 135.32625 125.838182 
" style="fill:none;opacity:0.5;stroke:#0000ff;stroke-linecap:round;stroke-width:0.1;"/>
     </g>
     <g id="line2d_8"/>
     <g id="text_4">
      <!-- 0.0000 -->
      <defs>
       <path d="M 9.421875 5.078125 
Q 9.421875 7.8125 11.28125 9.71875 
Q 13.140625 11.625 15.921875 11.625 
Q 18.609375 11.625 20.5 9.71875 
Q 22.40625 7.8125 22.40625 5.078125 
Q 22.40625 2.390625 20.5 0.484375 
Q 18.609375 -1.421875 15.921875 -1.421875 
Q 13.140625 -1.421875 11.28125 0.453125 
Q 9.421875 2.34375 9.421875 5.078125 
z
" id="DejaVuSerif-2e"/>
      </defs>
      <g style="fill:#262626;" transform="translate(7.2 128.877557)scale(0.08 -0.08)">
       <use xlink:href="#DejaVuSerif-30"/>
       <use x="63.623047" xlink:href="#DejaVuSerif-2e"/>
       <use x="95.410156" xlink:href="#DejaVuSerif-30"/>
       <use x="159.033203" xlink:href="#DejaVuSerif-30"/>
       <use x="222.65625" xlink:href="#DejaVuSerif-30"/>
       <use x="286.279297" xlink:href="#DejaVuSerif-30"/>
      </g>
     </g>
    </g>
    <g id="ytick_2">
     <g id="line2d_9">
      <path clip-path="url(#pf9a5a464a4)" d="M 40.7925 100.915823 
L 135.32625 100.915823 
" style="fill:none;opacity:0.5;stroke:#0000ff;stroke-linecap:round;stroke-width:0.1;"/>
     </g>
     <g id="line2d_10"/>
     <g id="text_5">
      <!-- 0.0001 -->
      <g style="fill:#262626;" transform="translate(7.2 103.955198)scale(0.08 -0.08)">
       <use xlink:href="#DejaVuSerif-30"/>
       <use x="63.623047" xlink:href="#DejaVuSerif-2e"/>
       <use x="95.410156" xlink:href="#DejaVuSerif-30"/>
       <use x="159.033203" xlink:href="#DejaVuSerif-30"/>
       <use x="222.65625" xlink:href="#DejaVuSerif-30"/>
       <use x="286.279297" xlink:href="#DejaVuSerif-31"/>
      </g>
     </g>
    </g>
    <g id="ytick_3">
     <g id="line2d_11">
      <path clip-path="url(#pf9a5a464a4)" d="M 40.7925 75.993464 
L 135.32625 75.993464 
" style="fill:none;opacity:0.5;stroke:#0000ff;stroke-linecap:round;stroke-width:0.1;"/>
     </g>
     <g id="line2d_12"/>
     <g id="text_6">
      <!-- 0.0002 -->
      <g style="fill:#262626;" transform="translate(7.2 79.032839)scale(0.08 -0.08)">
       <use xlink:href="#DejaVuSerif-30"/>
       <use x="63.623047" xlink:href="#DejaVuSerif-2e"/>
       <use x="95.410156" xlink:href="#DejaVuSerif-30"/>
       <use x="159.033203" xlink:href="#DejaVuSerif-30"/>
       <use x="222.65625" xlink:href="#DejaVuSerif-30"/>
       <use x="286.279297" xlink:href="#DejaVuSerif-32"/>
      </g>
     </g>
    </g>
    <g id="ytick_4">
     <g id="line2d_13">
      <path clip-path="url(#pf9a5a464a4)" d="M 40.7925 51.071104 
L 135.32625 51.071104 
" style="fill:none;opacity:0.5;stroke:#0000ff;stroke-linecap:round;stroke-width:0.1;"/>
     </g>
     <g id="line2d_14"/>
     <g id="text_7">
      <!-- 0.0003 -->
      <defs>
       <path d="M 9.71875 69.828125 
Q 15.4375 71.96875 20.671875 73.09375 
Q 25.921875 74.21875 30.515625 74.21875 
Q 41.21875 74.21875 47.21875 69.59375 
Q 53.21875 64.984375 53.21875 56.78125 
Q 53.21875 50.203125 49.0625 45.78125 
Q 44.921875 41.359375 37.3125 39.796875 
Q 46.296875 38.53125 51.25 33.28125 
Q 56.203125 28.03125 56.203125 19.671875 
Q 56.203125 9.46875 49.34375 4.015625 
Q 42.484375 -1.421875 29.59375 -1.421875 
Q 23.875 -1.421875 18.421875 -0.1875 
Q 12.984375 1.03125 7.625 3.515625 
L 7.625 17.671875 
L 13.09375 17.671875 
Q 13.578125 10.640625 17.828125 7.03125 
Q 22.078125 3.421875 29.78125 3.421875 
Q 37.25 3.421875 41.578125 7.734375 
Q 45.90625 12.0625 45.90625 19.578125 
Q 45.90625 28.171875 41.453125 32.59375 
Q 37.015625 37.015625 28.421875 37.015625 
L 23.78125 37.015625 
L 23.78125 42 
L 26.21875 42 
Q 34.765625 42 39.03125 45.53125 
Q 43.3125 49.078125 43.3125 56.203125 
Q 43.3125 62.59375 39.796875 65.984375 
Q 36.28125 69.390625 29.6875 69.390625 
Q 23.09375 69.390625 19.453125 66.265625 
Q 15.828125 63.140625 15.1875 56.984375 
L 9.71875 56.984375 
z
" id="DejaVuSerif-33"/>
      </defs>
      <g style="fill:#262626;" transform="translate(7.2 54.110479)scale(0.08 -0.08)">
       <use xlink:href="#DejaVuSerif-30"/>
       <use x="63.623047" xlink:href="#DejaVuSerif-2e"/>
       <use x="95.410156" xlink:href="#DejaVuSerif-30"/>
       <use x="159.033203" xlink:href="#DejaVuSerif-30"/>
       <use x="222.65625" xlink:href="#DejaVuSerif-30"/>
       <use x="286.279297" xlink:href="#DejaVuSerif-33"/>
      </g>
     </g>
    </g>
   </g>
   <g id="line2d_15">
    <path clip-path="url(#pf9a5a464a4)" d="M 45.089489 125.838182 
L 45.957567 37.961818 
L 46.825646 100.556306 
L 47.693724 114.300306 
L 48.561803 119.387851 
L 49.429881 121.787709 
L 50.29796 123.094181 
L 51.166038 123.876727 
L 52.034117 124.378729 
L 52.902195 124.717875 
L 53.770274 124.956482 
L 54.638352 125.129929 
L 55.506431 125.259449 
L 56.374509 125.358375 
L 57.242588 125.435399 
L 58.110666 125.496371 
L 58.978745 125.54534 
L 59.846823 125.585169 
L 60.714902 125.617932 
L 61.58298 125.645154 
L 62.451059 125.667977 
L 63.319137 125.68727 
L 64.187216 125.703699 
L 65.055294 125.717785 
L 65.923373 125.729937 
L 66.791451 125.74048 
L 67.65953 125.749676 
L 68.527608 125.757736 
L 69.395687 125.764832 
L 70.263765 125.771106 
L 71.131844 125.776675 
L 71.999923 125.781637 
L 72.868001 125.786073 
L 73.73608 125.790051 
L 74.604158 125.793631 
L 75.472237 125.79686 
L 76.340315 125.799782 
L 77.208394 125.802432 
L 78.076472 125.804842 
L 78.944551 125.807038 
L 79.812629 125.809044 
L 80.680708 125.81088 
L 81.548786 125.812564 
L 82.416865 125.814112 
L 83.284943 125.815536 
L 84.153022 125.81685 
L 85.0211 125.818064 
L 85.889179 125.819187 
L 86.757257 125.820227 
L 87.625336 125.821193 
L 88.493414 125.82209 
L 89.361493 125.822925 
L 90.229571 125.823704 
L 91.09765 125.82443 
L 91.965728 125.825108 
L 92.833807 125.825742 
L 93.701885 125.826336 
L 94.569964 125.826893 
L 95.438042 125.827415 
L 96.306121 125.827906 
L 97.174199 125.828367 
L 98.042278 125.828801 
L 98.910356 125.82921 
L 99.778435 125.829595 
L 100.646513 125.829959 
L 101.514592 125.830302 
L 102.38267 125.830627 
L 103.250749 125.830934 
L 104.118827 125.831225 
L 104.986906 125.8315 
L 105.854985 125.831762 
L 106.723063 125.832009 
L 107.591142 125.832245 
L 108.45922 125.832468 
L 109.327299 125.832681 
L 110.195377 125.832883 
L 111.063456 125.833075 
L 111.931534 125.833258 
L 112.799613 125.833433 
L 113.667691 125.833599 
L 114.53577 125.833758 
L 115.403848 125.83391 
L 116.271927 125.834055 
L 117.140005 125.834193 
L 118.008084 125.834325 
L 118.876162 125.834452 
L 119.744241 125.834573 
L 120.612319 125.834689 
L 121.480398 125.8348 
L 122.348476 125.834907 
L 123.216555 125.835009 
L 124.084633 125.835107 
L 124.952712 125.835201 
L 125.82079 125.835291 
L 126.688869 125.835378 
L 127.556947 125.835461 
L 128.425026 125.835541 
L 129.293104 125.835618 
L 130.161183 125.835692 
L 131.029261 125.835763 
" style="fill:none;stroke:#4c72b0;stroke-linecap:round;stroke-width:1.4;"/>
   </g>
   <g id="patch_3">
    <path d="M 40.7925 130.232 
L 40.7925 33.568 
" style="fill:none;"/>
   </g>
   <g id="patch_4">
    <path d="M 135.32625 130.232 
L 135.32625 33.568 
" style="fill:none;"/>
   </g>
   <g id="patch_5">
    <path d="M 40.7925 130.232 
L 135.32625 130.232 
" style="fill:none;"/>
   </g>
   <g id="patch_6">
    <path d="M 40.7925 33.568 
L 135.32625 33.568 
" style="fill:none;"/>
   </g>
   <g id="text_8">
    <!-- PDF -->
    <defs>
     <path d="M 24.703125 37.109375 
L 37.59375 37.109375 
Q 44.875 37.109375 48.671875 41.03125 
Q 52.484375 44.96875 52.484375 52.390625 
Q 52.484375 59.859375 48.671875 63.765625 
Q 44.875 67.671875 37.59375 67.671875 
L 24.703125 67.671875 
z
M 5.515625 0 
L 5.515625 5.171875 
L 14.796875 5.171875 
L 14.796875 67.671875 
L 5.515625 67.671875 
L 5.515625 72.90625 
L 39.984375 72.90625 
Q 50.921875 72.90625 57.3125 67.359375 
Q 63.71875 61.8125 63.71875 52.390625 
Q 63.71875 43.015625 57.3125 37.453125 
Q 50.921875 31.890625 39.984375 31.890625 
L 24.703125 31.890625 
L 24.703125 5.171875 
L 35.984375 5.171875 
L 35.984375 0 
z
" id="DejaVuSerif-50"/>
     <path d="M 24.703125 5.171875 
L 33.796875 5.171875 
Q 48 5.171875 55.59375 13.28125 
Q 63.1875 21.390625 63.1875 36.53125 
Q 63.1875 51.65625 55.609375 59.65625 
Q 48.046875 67.671875 33.796875 67.671875 
L 24.703125 67.671875 
z
M 5.515625 0 
L 5.515625 5.171875 
L 14.796875 5.171875 
L 14.796875 67.671875 
L 5.515625 67.671875 
L 5.515625 72.90625 
L 34.515625 72.90625 
Q 53.375 72.90625 63.890625 63.28125 
Q 74.421875 53.65625 74.421875 36.53125 
Q 74.421875 19.34375 63.875 9.671875 
Q 53.328125 0 34.515625 0 
z
" id="DejaVuSerif-44"/>
     <path d="M 5.515625 0 
L 5.515625 5.171875 
L 14.796875 5.171875 
L 14.796875 67.671875 
L 5.515625 67.671875 
L 5.515625 72.90625 
L 65.1875 72.90625 
L 65.1875 56.6875 
L 59.1875 56.6875 
L 59.1875 66.890625 
L 24.703125 66.890625 
L 24.703125 42.484375 
L 49.609375 42.484375 
L 49.609375 51.609375 
L 55.609375 51.609375 
L 55.609375 27.390625 
L 49.609375 27.390625 
L 49.609375 36.53125 
L 24.703125 36.53125 
L 24.703125 5.171875 
L 36.375 5.171875 
L 36.375 0 
z
" id="DejaVuSerif-46"/>
    </defs>
    <g style="fill:#262626;" transform="translate(77.650875 27.568)scale(0.096 -0.096)">
     <use xlink:href="#DejaVuSerif-50"/>
     <use x="67.285156" xlink:href="#DejaVuSerif-44"/>
     <use x="147.460938" xlink:href="#DejaVuSerif-46"/>
    </g>
   </g>
  </g>
  <g id="axes_2">
   <g id="patch_7">
    <path d="M 180.35675 130.232 
L 274.8905 130.232 
L 274.8905 33.568 
L 180.35675 33.568 
z
" style="fill:#eaeaf2;"/>
   </g>
   <g id="matplotlib.axis_3">
    <g id="xtick_4">
     <g id="line2d_16">
      <path clip-path="url(#p586571cfc3)" d="M 184.653739 130.232 
L 184.653739 33.568 
" style="fill:none;opacity:0.5;stroke:#0000ff;stroke-linecap:round;stroke-width:0.1;"/>
     </g>
     <g id="line2d_17"/>
     <g id="text_9">
      <!-- 0 -->
      <g style="fill:#262626;" transform="translate(182.108739 141.91075)scale(0.08 -0.08)">
       <use xlink:href="#DejaVuSerif-30"/>
      </g>
     </g>
    </g>
    <g id="xtick_5">
     <g id="line2d_18">
      <path clip-path="url(#p586571cfc3)" d="M 226.795849 130.232 
L 226.795849 33.568 
" style="fill:none;opacity:0.5;stroke:#0000ff;stroke-linecap:round;stroke-width:0.1;"/>
     </g>
     <g id="line2d_19"/>
     <g id="text_10">
      <!-- 10000 -->
      <g style="fill:#262626;" transform="translate(214.070849 141.91075)scale(0.08 -0.08)">
       <use xlink:href="#DejaVuSerif-31"/>
       <use x="63.623047" xlink:href="#DejaVuSerif-30"/>
       <use x="127.246094" xlink:href="#DejaVuSerif-30"/>
       <use x="190.869141" xlink:href="#DejaVuSerif-30"/>
       <use x="254.492188" xlink:href="#DejaVuSerif-30"/>
      </g>
     </g>
    </g>
    <g id="xtick_6">
     <g id="line2d_20">
      <path clip-path="url(#p586571cfc3)" d="M 268.937959 130.232 
L 268.937959 33.568 
" style="fill:none;opacity:0.5;stroke:#0000ff;stroke-linecap:round;stroke-width:0.1;"/>
     </g>
     <g id="line2d_21"/>
     <g id="text_11">
      <!-- 20000 -->
      <g style="fill:#262626;" transform="translate(256.212959 141.91075)scale(0.08 -0.08)">
       <use xlink:href="#DejaVuSerif-32"/>
       <use x="63.623047" xlink:href="#DejaVuSerif-30"/>
       <use x="127.246094" xlink:href="#DejaVuSerif-30"/>
       <use x="190.869141" xlink:href="#DejaVuSerif-30"/>
       <use x="254.492188" xlink:href="#DejaVuSerif-30"/>
      </g>
     </g>
    </g>
   </g>
   <g id="matplotlib.axis_4">
    <g id="ytick_5">
     <g id="line2d_22">
      <path clip-path="url(#p586571cfc3)" d="M 180.35675 130.232 
L 274.8905 130.232 
" style="fill:none;opacity:0.5;stroke:#0000ff;stroke-linecap:round;stroke-width:0.1;"/>
     </g>
     <g id="line2d_23"/>
     <g id="text_12">
      <!-- 0.0 -->
      <g style="fill:#262626;" transform="translate(162.03425 133.271375)scale(0.08 -0.08)">
       <use xlink:href="#DejaVuSerif-30"/>
       <use x="63.623047" xlink:href="#DejaVuSerif-2e"/>
       <use x="95.410156" xlink:href="#DejaVuSerif-30"/>
      </g>
     </g>
    </g>
    <g id="ytick_6">
     <g id="line2d_24">
      <path clip-path="url(#p586571cfc3)" d="M 180.35675 110.8992 
L 274.8905 110.8992 
" style="fill:none;opacity:0.5;stroke:#0000ff;stroke-linecap:round;stroke-width:0.1;"/>
     </g>
     <g id="line2d_25"/>
     <g id="text_13">
      <!-- 0.2 -->
      <g style="fill:#262626;" transform="translate(162.03425 113.938575)scale(0.08 -0.08)">
       <use xlink:href="#DejaVuSerif-30"/>
       <use x="63.623047" xlink:href="#DejaVuSerif-2e"/>
       <use x="95.410156" xlink:href="#DejaVuSerif-32"/>
      </g>
     </g>
    </g>
    <g id="ytick_7">
     <g id="line2d_26">
      <path clip-path="url(#p586571cfc3)" d="M 180.35675 91.5664 
L 274.8905 91.5664 
" style="fill:none;opacity:0.5;stroke:#0000ff;stroke-linecap:round;stroke-width:0.1;"/>
     </g>
     <g id="line2d_27"/>
     <g id="text_14">
      <!-- 0.4 -->
      <defs>
       <path d="M 34.90625 24.703125 
L 34.90625 63.484375 
L 10.015625 24.703125 
z
M 56.390625 0 
L 23.1875 0 
L 23.1875 5.171875 
L 34.90625 5.171875 
L 34.90625 19.484375 
L 3.078125 19.484375 
L 3.078125 24.8125 
L 35.015625 74.21875 
L 44.671875 74.21875 
L 44.671875 24.703125 
L 58.59375 24.703125 
L 58.59375 19.484375 
L 44.671875 19.484375 
L 44.671875 5.171875 
L 56.390625 5.171875 
z
" id="DejaVuSerif-34"/>
      </defs>
      <g style="fill:#262626;" transform="translate(162.03425 94.605775)scale(0.08 -0.08)">
       <use xlink:href="#DejaVuSerif-30"/>
       <use x="63.623047" xlink:href="#DejaVuSerif-2e"/>
       <use x="95.410156" xlink:href="#DejaVuSerif-34"/>
      </g>
     </g>
    </g>
    <g id="ytick_8">
     <g id="line2d_28">
      <path clip-path="url(#p586571cfc3)" d="M 180.35675 72.2336 
L 274.8905 72.2336 
" style="fill:none;opacity:0.5;stroke:#0000ff;stroke-linecap:round;stroke-width:0.1;"/>
     </g>
     <g id="line2d_29"/>
     <g id="text_15">
      <!-- 0.6 -->
      <defs>
       <path d="M 32.71875 3.421875 
Q 39.59375 3.421875 43.296875 8.46875 
Q 47.015625 13.53125 47.015625 23 
Q 47.015625 32.46875 43.296875 37.515625 
Q 39.59375 42.578125 32.71875 42.578125 
Q 25.734375 42.578125 22.0625 37.6875 
Q 18.40625 32.8125 18.40625 23.578125 
Q 18.40625 13.875 22.109375 8.640625 
Q 25.828125 3.421875 32.71875 3.421875 
z
M 16.796875 40.140625 
Q 20.125 43.796875 24.3125 45.59375 
Q 28.515625 47.40625 33.796875 47.40625 
Q 44.671875 47.40625 51 40.859375 
Q 57.328125 34.328125 57.328125 23 
Q 57.328125 11.921875 50.515625 5.25 
Q 43.703125 -1.421875 32.328125 -1.421875 
Q 19.96875 -1.421875 13.328125 7.78125 
Q 6.6875 17 6.6875 34.078125 
Q 6.6875 53.21875 14.546875 63.71875 
Q 22.40625 74.21875 36.71875 74.21875 
Q 40.578125 74.21875 44.828125 73.484375 
Q 49.078125 72.75 53.515625 71.296875 
L 53.515625 59.28125 
L 48 59.28125 
Q 47.40625 64.203125 44.234375 66.796875 
Q 41.0625 69.390625 35.6875 69.390625 
Q 26.21875 69.390625 21.578125 62.203125 
Q 16.9375 55.03125 16.796875 40.140625 
z
" id="DejaVuSerif-36"/>
      </defs>
      <g style="fill:#262626;" transform="translate(162.03425 75.272975)scale(0.08 -0.08)">
       <use xlink:href="#DejaVuSerif-30"/>
       <use x="63.623047" xlink:href="#DejaVuSerif-2e"/>
       <use x="95.410156" xlink:href="#DejaVuSerif-36"/>
      </g>
     </g>
    </g>
    <g id="ytick_9">
     <g id="line2d_30">
      <path clip-path="url(#p586571cfc3)" d="M 180.35675 52.9008 
L 274.8905 52.9008 
" style="fill:none;opacity:0.5;stroke:#0000ff;stroke-linecap:round;stroke-width:0.1;"/>
     </g>
     <g id="line2d_31"/>
     <g id="text_16">
      <!-- 0.8 -->
      <defs>
       <path d="M 46.578125 19.921875 
Q 46.578125 27.734375 42.6875 32.046875 
Q 38.8125 36.375 31.78125 36.375 
Q 24.75 36.375 20.875 32.046875 
Q 17 27.734375 17 19.921875 
Q 17 12.0625 20.875 7.734375 
Q 24.75 3.421875 31.78125 3.421875 
Q 38.8125 3.421875 42.6875 7.734375 
Q 46.578125 12.0625 46.578125 19.921875 
z
M 44.578125 55.328125 
Q 44.578125 61.96875 41.203125 65.671875 
Q 37.84375 69.390625 31.78125 69.390625 
Q 25.78125 69.390625 22.390625 65.671875 
Q 19 61.96875 19 55.328125 
Q 19 48.640625 22.390625 44.921875 
Q 25.78125 41.21875 31.78125 41.21875 
Q 37.84375 41.21875 41.203125 44.921875 
Q 44.578125 48.640625 44.578125 55.328125 
z
M 39.3125 38.8125 
Q 47.609375 37.703125 52.25 32.6875 
Q 56.890625 27.6875 56.890625 19.921875 
Q 56.890625 9.671875 50.390625 4.125 
Q 43.890625 -1.421875 31.78125 -1.421875 
Q 19.734375 -1.421875 13.203125 4.125 
Q 6.6875 9.671875 6.6875 19.921875 
Q 6.6875 27.6875 11.328125 32.6875 
Q 15.96875 37.703125 24.3125 38.8125 
Q 16.9375 40.140625 13 44.40625 
Q 9.078125 48.6875 9.078125 55.328125 
Q 9.078125 64.109375 15.125 69.15625 
Q 21.1875 74.21875 31.78125 74.21875 
Q 42.390625 74.21875 48.4375 69.15625 
Q 54.5 64.109375 54.5 55.328125 
Q 54.5 48.6875 50.5625 44.40625 
Q 46.625 40.140625 39.3125 38.8125 
z
" id="DejaVuSerif-38"/>
      </defs>
      <g style="fill:#262626;" transform="translate(162.03425 55.940175)scale(0.08 -0.08)">
       <use xlink:href="#DejaVuSerif-30"/>
       <use x="63.623047" xlink:href="#DejaVuSerif-2e"/>
       <use x="95.410156" xlink:href="#DejaVuSerif-38"/>
      </g>
     </g>
    </g>
    <g id="ytick_10">
     <g id="line2d_32">
      <path clip-path="url(#p586571cfc3)" d="M 180.35675 33.568 
L 274.8905 33.568 
" style="fill:none;opacity:0.5;stroke:#0000ff;stroke-linecap:round;stroke-width:0.1;"/>
     </g>
     <g id="line2d_33"/>
     <g id="text_17">
      <!-- 1.0 -->
      <g style="fill:#262626;" transform="translate(162.03425 36.607375)scale(0.08 -0.08)">
       <use xlink:href="#DejaVuSerif-31"/>
       <use x="63.623047" xlink:href="#DejaVuSerif-2e"/>
       <use x="95.410156" xlink:href="#DejaVuSerif-30"/>
      </g>
     </g>
    </g>
   </g>
   <g id="line2d_34">
    <path clip-path="url(#p586571cfc3)" d="M 184.653739 130.232 
L 185.521817 130.232 
L 185.521817 41.068357 
L 186.389896 41.068357 
L 186.389896 37.292264 
L 187.257974 37.292264 
L 187.257974 35.924235 
L 188.126053 35.924235 
L 188.126053 35.233701 
L 188.994131 35.233701 
L 188.994131 34.824749 
L 189.86221 34.824749 
L 189.86221 34.558101 
L 190.730288 34.558101 
L 190.730288 34.372585 
L 191.598367 34.372585 
L 191.598367 34.237311 
L 193.334524 34.135088 
L 193.334524 34.055642 
L 195.070681 33.992479 
L 195.070681 33.941308 
L 198.542995 33.834406 
L 198.542995 33.809123 
L 205.487623 33.703187 
L 205.487623 33.694065 
L 254.10002 33.583019 
L 254.10002 33.582659 
L 270.593511 33.577862 
L 270.593511 33.577666 
" style="fill:none;stroke:#4c72b0;stroke-linecap:round;"/>
   </g>
   <g id="patch_8">
    <path d="M 180.35675 130.232 
L 180.35675 33.568 
" style="fill:none;"/>
   </g>
   <g id="patch_9">
    <path d="M 274.8905 130.232 
L 274.8905 33.568 
" style="fill:none;"/>
   </g>
   <g id="patch_10">
    <path d="M 180.35675 130.232 
L 274.8905 130.232 
" style="fill:none;"/>
   </g>
   <g id="patch_11">
    <path d="M 180.35675 33.568 
L 274.8905 33.568 
" style="fill:none;"/>
   </g>
   <g id="text_18">
    <!-- CDF -->
    <defs>
     <path d="M 70.515625 19.28125 
Q 67.28125 9.078125 59.6875 3.828125 
Q 52.09375 -1.421875 40.484375 -1.421875 
Q 33.34375 -1.421875 27.234375 1.015625 
Q 21.140625 3.46875 16.40625 8.203125 
Q 10.9375 13.671875 8.265625 20.625 
Q 5.609375 27.59375 5.609375 36.375 
Q 5.609375 53.375 15.421875 63.796875 
Q 25.25 74.21875 41.3125 74.21875 
Q 47.265625 74.21875 54 72.65625 
Q 60.75 71.09375 68.5 67.921875 
L 68.5 51.125 
L 62.984375 51.125 
Q 61.1875 60.296875 55.734375 64.640625 
Q 50.296875 69 40.484375 69 
Q 28.8125 69 22.796875 60.71875 
Q 16.796875 52.4375 16.796875 36.375 
Q 16.796875 20.359375 22.796875 12.078125 
Q 28.8125 3.8125 40.484375 3.8125 
Q 48.640625 3.8125 53.90625 7.6875 
Q 59.1875 11.578125 61.53125 19.28125 
z
" id="DejaVuSerif-43"/>
    </defs>
    <g style="fill:#262626;" transform="translate(216.771875 27.568)scale(0.096 -0.096)">
     <use xlink:href="#DejaVuSerif-43"/>
     <use x="76.513672" xlink:href="#DejaVuSerif-44"/>
     <use x="156.689453" xlink:href="#DejaVuSerif-46"/>
    </g>
   </g>
  </g>
  <g id="axes_3">
   <g id="patch_12">
    <path d="M 319.921 130.232 
L 414.45475 130.232 
L 414.45475 33.568 
L 319.921 33.568 
z
" style="fill:#eaeaf2;"/>
   </g>
   <g id="matplotlib.axis_5">
    <g id="xtick_7">
     <g id="line2d_35">
      <path clip-path="url(#p04d07697e5)" d="M 319.921 130.232 
L 319.921 33.568 
" style="fill:none;opacity:0.5;stroke:#0000ff;stroke-linecap:round;stroke-width:0.1;"/>
     </g>
     <g id="line2d_36"/>
     <g id="text_19">
      <!-- 0.0 -->
      <g style="fill:#262626;" transform="translate(313.55975 141.91075)scale(0.08 -0.08)">
       <use xlink:href="#DejaVuSerif-30"/>
       <use x="63.623047" xlink:href="#DejaVuSerif-2e"/>
       <use x="95.410156" xlink:href="#DejaVuSerif-30"/>
      </g>
     </g>
    </g>
    <g id="xtick_8">
     <g id="line2d_37">
      <path clip-path="url(#p04d07697e5)" d="M 367.187875 130.232 
L 367.187875 33.568 
" style="fill:none;opacity:0.5;stroke:#0000ff;stroke-linecap:round;stroke-width:0.1;"/>
     </g>
     <g id="line2d_38"/>
     <g id="text_20">
      <!-- 0.5 -->
      <defs>
       <path d="M 50.296875 72.90625 
L 50.296875 64.890625 
L 16.890625 64.890625 
L 16.890625 44 
Q 19.4375 45.75 22.828125 46.625 
Q 26.21875 47.515625 30.421875 47.515625 
Q 42.234375 47.515625 49.0625 40.96875 
Q 55.90625 34.421875 55.90625 23.09375 
Q 55.90625 11.53125 49 5.046875 
Q 42.09375 -1.421875 29.59375 -1.421875 
Q 24.5625 -1.421875 19.28125 -0.1875 
Q 14.015625 1.03125 8.5 3.515625 
L 8.5 17.671875 
L 14.015625 17.671875 
Q 14.453125 10.75 18.421875 7.078125 
Q 22.40625 3.421875 29.59375 3.421875 
Q 37.3125 3.421875 41.453125 8.5 
Q 45.609375 13.578125 45.609375 23.09375 
Q 45.609375 32.5625 41.484375 37.609375 
Q 37.359375 42.671875 29.59375 42.671875 
Q 25.203125 42.671875 21.84375 41.109375 
Q 18.5 39.546875 15.921875 36.28125 
L 11.71875 36.28125 
L 11.71875 72.90625 
z
" id="DejaVuSerif-35"/>
      </defs>
      <g style="fill:#262626;" transform="translate(360.826625 141.91075)scale(0.08 -0.08)">
       <use xlink:href="#DejaVuSerif-30"/>
       <use x="63.623047" xlink:href="#DejaVuSerif-2e"/>
       <use x="95.410156" xlink:href="#DejaVuSerif-35"/>
      </g>
     </g>
    </g>
    <g id="xtick_9">
     <g id="line2d_39">
      <path clip-path="url(#p04d07697e5)" d="M 414.45475 130.232 
L 414.45475 33.568 
" style="fill:none;opacity:0.5;stroke:#0000ff;stroke-linecap:round;stroke-width:0.1;"/>
     </g>
     <g id="line2d_40"/>
     <g id="text_21">
      <!-- 1.0 -->
      <g style="fill:#262626;" transform="translate(408.0935 141.91075)scale(0.08 -0.08)">
       <use xlink:href="#DejaVuSerif-31"/>
       <use x="63.623047" xlink:href="#DejaVuSerif-2e"/>
       <use x="95.410156" xlink:href="#DejaVuSerif-30"/>
      </g>
     </g>
    </g>
   </g>
   <g id="matplotlib.axis_6">
    <g id="ytick_11">
     <g id="line2d_41">
      <path clip-path="url(#p04d07697e5)" d="M 319.921 125.846173 
L 414.45475 125.846173 
" style="fill:none;opacity:0.5;stroke:#0000ff;stroke-linecap:round;stroke-width:0.1;"/>
     </g>
     <g id="line2d_42"/>
     <g id="text_22">
      <!-- 0 -->
      <g style="fill:#262626;" transform="translate(309.231 128.885548)scale(0.08 -0.08)">
       <use xlink:href="#DejaVuSerif-30"/>
      </g>
     </g>
    </g>
    <g id="ytick_12">
     <g id="line2d_43">
      <path clip-path="url(#p04d07697e5)" d="M 319.921 108.386736 
L 414.45475 108.386736 
" style="fill:none;opacity:0.5;stroke:#0000ff;stroke-linecap:round;stroke-width:0.1;"/>
     </g>
     <g id="line2d_44"/>
     <g id="text_23">
      <!-- 250 -->
      <g style="fill:#262626;" transform="translate(299.051 111.426111)scale(0.08 -0.08)">
       <use xlink:href="#DejaVuSerif-32"/>
       <use x="63.623047" xlink:href="#DejaVuSerif-35"/>
       <use x="127.246094" xlink:href="#DejaVuSerif-30"/>
      </g>
     </g>
    </g>
    <g id="ytick_13">
     <g id="line2d_45">
      <path clip-path="url(#p04d07697e5)" d="M 319.921 90.927299 
L 414.45475 90.927299 
" style="fill:none;opacity:0.5;stroke:#0000ff;stroke-linecap:round;stroke-width:0.1;"/>
     </g>
     <g id="line2d_46"/>
     <g id="text_24">
      <!-- 500 -->
      <g style="fill:#262626;" transform="translate(299.051 93.966674)scale(0.08 -0.08)">
       <use xlink:href="#DejaVuSerif-35"/>
       <use x="63.623047" xlink:href="#DejaVuSerif-30"/>
       <use x="127.246094" xlink:href="#DejaVuSerif-30"/>
      </g>
     </g>
    </g>
    <g id="ytick_14">
     <g id="line2d_47">
      <path clip-path="url(#p04d07697e5)" d="M 319.921 73.467861 
L 414.45475 73.467861 
" style="fill:none;opacity:0.5;stroke:#0000ff;stroke-linecap:round;stroke-width:0.1;"/>
     </g>
     <g id="line2d_48"/>
     <g id="text_25">
      <!-- 750 -->
      <defs>
       <path d="M 56.390625 67.921875 
L 27.875 0 
L 20.609375 0 
L 47.796875 64.890625 
L 14.109375 64.890625 
L 14.109375 55.90625 
L 8.40625 55.90625 
L 8.40625 72.90625 
L 56.390625 72.90625 
z
" id="DejaVuSerif-37"/>
      </defs>
      <g style="fill:#262626;" transform="translate(299.051 76.507236)scale(0.08 -0.08)">
       <use xlink:href="#DejaVuSerif-37"/>
       <use x="63.623047" xlink:href="#DejaVuSerif-35"/>
       <use x="127.246094" xlink:href="#DejaVuSerif-30"/>
      </g>
     </g>
    </g>
    <g id="ytick_15">
     <g id="line2d_49">
      <path clip-path="url(#p04d07697e5)" d="M 319.921 56.008424 
L 414.45475 56.008424 
" style="fill:none;opacity:0.5;stroke:#0000ff;stroke-linecap:round;stroke-width:0.1;"/>
     </g>
     <g id="line2d_50"/>
     <g id="text_26">
      <!-- 1000 -->
      <g style="fill:#262626;" transform="translate(293.961 59.047799)scale(0.08 -0.08)">
       <use xlink:href="#DejaVuSerif-31"/>
       <use x="63.623047" xlink:href="#DejaVuSerif-30"/>
       <use x="127.246094" xlink:href="#DejaVuSerif-30"/>
       <use x="190.869141" xlink:href="#DejaVuSerif-30"/>
      </g>
     </g>
    </g>
    <g id="ytick_16">
     <g id="line2d_51">
      <path clip-path="url(#p04d07697e5)" d="M 319.921 38.548987 
L 414.45475 38.548987 
" style="fill:none;opacity:0.5;stroke:#0000ff;stroke-linecap:round;stroke-width:0.1;"/>
     </g>
     <g id="line2d_52"/>
     <g id="text_27">
      <!-- 1250 -->
      <g style="fill:#262626;" transform="translate(293.961 41.588362)scale(0.08 -0.08)">
       <use xlink:href="#DejaVuSerif-31"/>
       <use x="63.623047" xlink:href="#DejaVuSerif-32"/>
       <use x="127.246094" xlink:href="#DejaVuSerif-35"/>
       <use x="190.869141" xlink:href="#DejaVuSerif-30"/>
      </g>
     </g>
    </g>
   </g>
   <g id="line2d_53">
    <path clip-path="url(#p04d07697e5)" d="M 320.866337 37.961818 
L 321.811675 37.961818 
L 321.811675 74.897237 
L 322.757012 74.897237 
L 322.757012 89.795942 
L 323.70235 89.795942 
L 323.70235 98.055563 
L 324.647687 98.055563 
L 324.647687 103.357016 
L 325.593025 103.357016 
L 325.593025 107.064656 
L 326.538363 107.064656 
L 326.538363 109.80902 
L 327.4837 109.80902 
L 327.4837 111.924189 
L 328.429037 111.924189 
L 328.429037 113.604621 
L 329.374375 113.604621 
L 329.374375 114.97158 
L 330.319712 114.97158 
L 330.319712 116.104798 
L 331.26505 116.104798 
L 331.26505 117.058942 
L 332.210387 117.058942 
L 332.210387 117.872795 
L 333.155725 117.872795 
L 333.155725 118.574658 
L 334.101063 118.574658 
L 334.101063 119.185685 
L 335.0464 119.185685 
L 335.0464 119.722012 
L 335.991737 119.722012 
L 335.991737 120.196168 
L 336.937075 120.196168 
L 336.937075 120.61803 
L 337.882412 120.61803 
L 337.882412 120.995495 
L 338.82775 120.995495 
L 338.82775 121.334949 
L 339.773087 121.334949 
L 339.773087 121.641618 
L 340.718425 121.641618 
L 340.718425 121.919815 
L 341.663762 121.919815 
L 341.663762 122.173133 
L 342.6091 122.173133 
L 342.6091 122.404592 
L 343.554437 122.404592 
L 343.554437 122.616744 
L 344.499775 122.616744 
L 344.499775 122.811764 
L 345.445112 122.811764 
L 345.445112 122.991515 
L 346.39045 122.991515 
L 346.39045 123.157604 
L 347.335787 123.157604 
L 347.335787 123.311422 
L 348.281125 123.311422 
L 348.281125 123.45418 
L 349.226462 123.45418 
L 349.226462 123.586937 
L 350.1718 123.586937 
L 350.1718 123.710625 
L 351.117137 123.710625 
L 351.117137 123.826063 
L 353.007812 123.933977 
L 353.007812 124.035014 
L 354.898487 124.129748 
L 354.898487 124.218693 
L 356.789162 124.302311 
L 356.789162 124.381014 
L 358.679837 124.455177 
L 358.679837 124.525138 
L 360.570512 124.591202 
L 360.570512 124.653647 
L 362.461187 124.712725 
L 362.461187 124.768668 
L 365.2972 124.871969 
L 365.2972 124.919697 
L 368.133212 125.00812 
L 368.133212 125.049103 
L 370.969225 125.125244 
L 370.969225 125.160629 
L 374.750575 125.257228 
L 374.750575 125.286533 
L 379.477262 125.391254 
L 379.477262 125.414627 
L 385.149287 125.517296 
L 385.149287 125.535302 
L 392.711987 125.642101 
L 392.711987 125.65496 
L 403.1107 125.758089 
L 403.1107 125.766247 
L 413.509412 125.832388 
L 413.509412 125.838182 
" style="fill:none;stroke:#4c72b0;stroke-linecap:round;"/>
   </g>
   <g id="patch_13">
    <path d="M 319.921 130.232 
L 319.921 33.568 
" style="fill:none;"/>
   </g>
   <g id="patch_14">
    <path d="M 414.45475 130.232 
L 414.45475 33.568 
" style="fill:none;"/>
   </g>
   <g id="patch_15">
    <path d="M 319.921 130.232 
L 414.45475 130.232 
" style="fill:none;"/>
   </g>
   <g id="patch_16">
    <path d="M 319.921 33.568 
L 414.45475 33.568 
" style="fill:none;"/>
   </g>
   <g id="text_28">
    <!-- ISF -->
    <defs>
     <path d="M 24.703125 5.171875 
L 33.984375 5.171875 
L 33.984375 0 
L 5.515625 0 
L 5.515625 5.171875 
L 14.796875 5.171875 
L 14.796875 67.671875 
L 5.515625 67.671875 
L 5.515625 72.90625 
L 33.984375 72.90625 
L 33.984375 67.671875 
L 24.703125 67.671875 
z
" id="DejaVuSerif-49"/>
     <path d="M 9.28125 3.515625 
L 9.28125 20.125 
L 14.890625 20.0625 
Q 15.140625 11.765625 19.703125 7.78125 
Q 24.265625 3.8125 33.59375 3.8125 
Q 42.28125 3.8125 46.84375 7.25 
Q 51.421875 10.6875 51.421875 17.28125 
Q 51.421875 22.5625 48.65625 25.390625 
Q 45.90625 28.21875 37.015625 30.90625 
L 27.390625 33.796875 
Q 16.9375 36.96875 12.671875 41.703125 
Q 8.40625 46.4375 8.40625 54.6875 
Q 8.40625 63.96875 14.984375 69.09375 
Q 21.578125 74.21875 33.5 74.21875 
Q 38.578125 74.21875 44.625 73.109375 
Q 50.6875 72.015625 57.515625 69.921875 
L 57.515625 54.390625 
L 52 54.390625 
Q 51.171875 62.109375 46.84375 65.546875 
Q 42.53125 69 33.6875 69 
Q 25.984375 69 21.953125 65.84375 
Q 17.921875 62.703125 17.921875 56.6875 
Q 17.921875 51.46875 20.9375 48.484375 
Q 23.96875 45.515625 33.796875 42.578125 
L 42.828125 39.890625 
Q 52.734375 36.921875 56.953125 32.296875 
Q 61.1875 27.6875 61.1875 19.921875 
Q 61.1875 9.328125 54.390625 3.953125 
Q 47.609375 -1.421875 34.1875 -1.421875 
Q 28.171875 -1.421875 21.9375 -0.1875 
Q 15.71875 1.03125 9.28125 3.515625 
z
" id="DejaVuSerif-53"/>
    </defs>
    <g style="fill:#262626;" transform="translate(358.673125 27.568)scale(0.096 -0.096)">
     <use xlink:href="#DejaVuSerif-49"/>
     <use x="39.501953" xlink:href="#DejaVuSerif-53"/>
     <use x="108.007812" xlink:href="#DejaVuSerif-46"/>
    </g>
   </g>
  </g>
  <g id="axes_4">
   <g id="patch_17">
    <path d="M 459.48525 130.232 
L 554.019 130.232 
L 554.019 33.568 
L 459.48525 33.568 
z
" style="fill:#eaeaf2;"/>
   </g>
   <g id="matplotlib.axis_7">
    <g id="xtick_10">
     <g id="line2d_54">
      <path clip-path="url(#p244548a0fd)" d="M 459.48525 130.232 
L 459.48525 33.568 
" style="fill:none;opacity:0.5;stroke:#0000ff;stroke-linecap:round;stroke-width:0.1;"/>
     </g>
     <g id="line2d_55"/>
     <g id="text_29">
      <!-- 0.0 -->
      <g style="fill:#262626;" transform="translate(453.124 141.91075)scale(0.08 -0.08)">
       <use xlink:href="#DejaVuSerif-30"/>
       <use x="63.623047" xlink:href="#DejaVuSerif-2e"/>
       <use x="95.410156" xlink:href="#DejaVuSerif-30"/>
      </g>
     </g>
    </g>
    <g id="xtick_11">
     <g id="line2d_56">
      <path clip-path="url(#p244548a0fd)" d="M 506.752125 130.232 
L 506.752125 33.568 
" style="fill:none;opacity:0.5;stroke:#0000ff;stroke-linecap:round;stroke-width:0.1;"/>
     </g>
     <g id="line2d_57"/>
     <g id="text_30">
      <!-- 0.5 -->
      <g style="fill:#262626;" transform="translate(500.390875 141.91075)scale(0.08 -0.08)">
       <use xlink:href="#DejaVuSerif-30"/>
       <use x="63.623047" xlink:href="#DejaVuSerif-2e"/>
       <use x="95.410156" xlink:href="#DejaVuSerif-35"/>
      </g>
     </g>
    </g>
    <g id="xtick_12">
     <g id="line2d_58">
      <path clip-path="url(#p244548a0fd)" d="M 554.019 130.232 
L 554.019 33.568 
" style="fill:none;opacity:0.5;stroke:#0000ff;stroke-linecap:round;stroke-width:0.1;"/>
     </g>
     <g id="line2d_59"/>
     <g id="text_31">
      <!-- 1.0 -->
      <g style="fill:#262626;" transform="translate(547.65775 141.91075)scale(0.08 -0.08)">
       <use xlink:href="#DejaVuSerif-31"/>
       <use x="63.623047" xlink:href="#DejaVuSerif-2e"/>
       <use x="95.410156" xlink:href="#DejaVuSerif-30"/>
      </g>
     </g>
    </g>
   </g>
   <g id="matplotlib.axis_8">
    <g id="ytick_17">
     <g id="line2d_60">
      <path clip-path="url(#p244548a0fd)" d="M 459.48525 125.846173 
L 554.019 125.846173 
" style="fill:none;opacity:0.5;stroke:#0000ff;stroke-linecap:round;stroke-width:0.1;"/>
     </g>
     <g id="line2d_61"/>
     <g id="text_32">
      <!-- 0 -->
      <g style="fill:#262626;" transform="translate(448.79525 128.885548)scale(0.08 -0.08)">
       <use xlink:href="#DejaVuSerif-30"/>
      </g>
     </g>
    </g>
    <g id="ytick_18">
     <g id="line2d_62">
      <path clip-path="url(#p244548a0fd)" d="M 459.48525 108.386736 
L 554.019 108.386736 
" style="fill:none;opacity:0.5;stroke:#0000ff;stroke-linecap:round;stroke-width:0.1;"/>
     </g>
     <g id="line2d_63"/>
     <g id="text_33">
      <!-- 250 -->
      <g style="fill:#262626;" transform="translate(438.61525 111.426111)scale(0.08 -0.08)">
       <use xlink:href="#DejaVuSerif-32"/>
       <use x="63.623047" xlink:href="#DejaVuSerif-35"/>
       <use x="127.246094" xlink:href="#DejaVuSerif-30"/>
      </g>
     </g>
    </g>
    <g id="ytick_19">
     <g id="line2d_64">
      <path clip-path="url(#p244548a0fd)" d="M 459.48525 90.927299 
L 554.019 90.927299 
" style="fill:none;opacity:0.5;stroke:#0000ff;stroke-linecap:round;stroke-width:0.1;"/>
     </g>
     <g id="line2d_65"/>
     <g id="text_34">
      <!-- 500 -->
      <g style="fill:#262626;" transform="translate(438.61525 93.966674)scale(0.08 -0.08)">
       <use xlink:href="#DejaVuSerif-35"/>
       <use x="63.623047" xlink:href="#DejaVuSerif-30"/>
       <use x="127.246094" xlink:href="#DejaVuSerif-30"/>
      </g>
     </g>
    </g>
    <g id="ytick_20">
     <g id="line2d_66">
      <path clip-path="url(#p244548a0fd)" d="M 459.48525 73.467861 
L 554.019 73.467861 
" style="fill:none;opacity:0.5;stroke:#0000ff;stroke-linecap:round;stroke-width:0.1;"/>
     </g>
     <g id="line2d_67"/>
     <g id="text_35">
      <!-- 750 -->
      <g style="fill:#262626;" transform="translate(438.61525 76.507236)scale(0.08 -0.08)">
       <use xlink:href="#DejaVuSerif-37"/>
       <use x="63.623047" xlink:href="#DejaVuSerif-35"/>
       <use x="127.246094" xlink:href="#DejaVuSerif-30"/>
      </g>
     </g>
    </g>
    <g id="ytick_21">
     <g id="line2d_68">
      <path clip-path="url(#p244548a0fd)" d="M 459.48525 56.008424 
L 554.019 56.008424 
" style="fill:none;opacity:0.5;stroke:#0000ff;stroke-linecap:round;stroke-width:0.1;"/>
     </g>
     <g id="line2d_69"/>
     <g id="text_36">
      <!-- 1000 -->
      <g style="fill:#262626;" transform="translate(433.52525 59.047799)scale(0.08 -0.08)">
       <use xlink:href="#DejaVuSerif-31"/>
       <use x="63.623047" xlink:href="#DejaVuSerif-30"/>
       <use x="127.246094" xlink:href="#DejaVuSerif-30"/>
       <use x="190.869141" xlink:href="#DejaVuSerif-30"/>
      </g>
     </g>
    </g>
    <g id="ytick_22">
     <g id="line2d_70">
      <path clip-path="url(#p244548a0fd)" d="M 459.48525 38.548987 
L 554.019 38.548987 
" style="fill:none;opacity:0.5;stroke:#0000ff;stroke-linecap:round;stroke-width:0.1;"/>
     </g>
     <g id="line2d_71"/>
     <g id="text_37">
      <!-- 1250 -->
      <g style="fill:#262626;" transform="translate(433.52525 41.588362)scale(0.08 -0.08)">
       <use xlink:href="#DejaVuSerif-31"/>
       <use x="63.623047" xlink:href="#DejaVuSerif-32"/>
       <use x="127.246094" xlink:href="#DejaVuSerif-35"/>
       <use x="190.869141" xlink:href="#DejaVuSerif-30"/>
      </g>
     </g>
    </g>
   </g>
   <g id="line2d_72">
    <path clip-path="url(#p244548a0fd)" d="M 553.073662 37.961818 
L 552.128325 37.961818 
L 552.128325 74.897237 
L 551.182987 74.897237 
L 551.182987 89.795942 
L 550.23765 89.795942 
L 550.23765 98.055563 
L 549.292312 98.055563 
L 549.292312 103.357016 
L 548.346975 103.357016 
L 548.346975 107.064656 
L 547.401637 107.064656 
L 547.401637 109.80902 
L 546.4563 109.80902 
L 546.4563 111.924189 
L 545.510963 111.924189 
L 545.510963 113.604621 
L 544.565625 113.604621 
L 544.565625 114.97158 
L 543.620288 114.97158 
L 543.620288 116.104798 
L 542.67495 116.104798 
L 542.67495 117.058942 
L 541.729613 117.058942 
L 541.729613 117.872795 
L 540.784275 117.872795 
L 540.784275 118.574658 
L 539.838938 118.574658 
L 539.838938 119.185685 
L 538.8936 119.185685 
L 538.8936 119.722012 
L 537.948263 119.722012 
L 537.948263 120.196168 
L 537.002925 120.196168 
L 537.002925 120.61803 
L 536.057587 120.61803 
L 536.057587 120.995495 
L 535.11225 120.995495 
L 535.11225 121.334949 
L 534.166912 121.334949 
L 534.166912 121.641618 
L 533.221575 121.641618 
L 533.221575 121.919815 
L 532.276237 121.919815 
L 532.276237 122.173133 
L 531.3309 122.173133 
L 531.3309 122.404592 
L 530.385562 122.404592 
L 530.385562 122.616744 
L 529.440225 122.616744 
L 529.440225 122.811764 
L 528.494888 122.811764 
L 528.494888 122.991515 
L 527.54955 122.991515 
L 527.54955 123.157604 
L 526.604213 123.157604 
L 526.604213 123.311422 
L 525.658875 123.311422 
L 525.658875 123.45418 
L 524.713538 123.45418 
L 524.713538 123.586937 
L 523.7682 123.586937 
L 523.7682 123.710625 
L 522.822863 123.710625 
L 522.822863 123.826063 
L 520.932188 123.933977 
L 520.932188 124.035014 
L 519.041512 124.129748 
L 519.041512 124.218693 
L 517.150837 124.302311 
L 517.150837 124.381014 
L 515.260162 124.455177 
L 515.260162 124.525138 
L 513.369487 124.591202 
L 513.369487 124.653647 
L 511.478813 124.712725 
L 511.478813 124.768668 
L 508.6428 124.871969 
L 508.6428 124.919697 
L 505.806787 125.00812 
L 505.806787 125.049103 
L 502.970775 125.125244 
L 502.970775 125.160629 
L 499.189425 125.257228 
L 499.189425 125.286533 
L 494.462738 125.391254 
L 494.462738 125.414627 
L 488.790712 125.517296 
L 488.790712 125.535302 
L 481.228012 125.642101 
L 481.228012 125.65496 
L 470.8293 125.758089 
L 470.8293 125.766247 
L 460.430588 125.832388 
L 460.430588 125.838182 
" style="fill:none;stroke:#4c72b0;stroke-linecap:round;"/>
   </g>
   <g id="patch_18">
    <path d="M 459.48525 130.232 
L 459.48525 33.568 
" style="fill:none;"/>
   </g>
   <g id="patch_19">
    <path d="M 554.019 130.232 
L 554.019 33.568 
" style="fill:none;"/>
   </g>
   <g id="patch_20">
    <path d="M 459.48525 130.232 
L 554.019 130.232 
" style="fill:none;"/>
   </g>
   <g id="patch_21">
    <path d="M 459.48525 33.568 
L 554.019 33.568 
" style="fill:none;"/>
   </g>
   <g id="text_38">
    <!-- Lee diagram -->
    <defs>
     <path d="M 5.515625 0 
L 5.515625 5.171875 
L 14.796875 5.171875 
L 14.796875 67.671875 
L 5.515625 67.671875 
L 5.515625 72.90625 
L 33.984375 72.90625 
L 33.984375 67.671875 
L 24.703125 67.671875 
L 24.703125 6 
L 58.015625 6 
L 58.015625 18.21875 
L 64.015625 18.21875 
L 64.015625 0 
z
" id="DejaVuSerif-4c"/>
     <path d="M 54.203125 25 
L 15.484375 25 
L 15.484375 24.609375 
Q 15.484375 14.109375 19.4375 8.765625 
Q 23.390625 3.421875 31.109375 3.421875 
Q 37.015625 3.421875 40.796875 6.515625 
Q 44.578125 9.625 46.09375 15.71875 
L 53.328125 15.71875 
Q 51.171875 7.171875 45.375 2.875 
Q 39.59375 -1.421875 30.171875 -1.421875 
Q 18.796875 -1.421875 11.890625 6.078125 
Q 4.984375 13.578125 4.984375 25.984375 
Q 4.984375 38.28125 11.765625 45.796875 
Q 18.5625 53.328125 29.59375 53.328125 
Q 41.359375 53.328125 47.65625 46.0625 
Q 53.953125 38.8125 54.203125 25 
z
M 43.609375 30.171875 
Q 43.3125 39.265625 39.765625 43.875 
Q 36.234375 48.484375 29.59375 48.484375 
Q 23.390625 48.484375 19.828125 43.84375 
Q 16.265625 39.203125 15.484375 30.171875 
z
" id="DejaVuSerif-65"/>
     <path id="DejaVuSerif-20"/>
     <path d="M 52.484375 5.171875 
L 61.078125 5.171875 
L 61.078125 0 
L 43.5 0 
L 43.5 8.109375 
Q 40.875 3.21875 36.796875 0.890625 
Q 32.71875 -1.421875 26.703125 -1.421875 
Q 17.140625 -1.421875 11.0625 6.171875 
Q 4.984375 13.765625 4.984375 25.984375 
Q 4.984375 38.1875 11.03125 45.75 
Q 17.09375 53.328125 26.703125 53.328125 
Q 32.71875 53.328125 36.796875 51 
Q 40.875 48.6875 43.5 43.796875 
L 43.5 70.796875 
L 35.015625 70.796875 
L 35.015625 75.984375 
L 52.484375 75.984375 
z
M 43.5 23.390625 
L 43.5 28.515625 
Q 43.5 37.84375 39.90625 42.765625 
Q 36.328125 47.703125 29.5 47.703125 
Q 22.5625 47.703125 19.015625 42.234375 
Q 15.484375 36.765625 15.484375 25.984375 
Q 15.484375 15.234375 19.015625 9.71875 
Q 22.5625 4.203125 29.5 4.203125 
Q 36.328125 4.203125 39.90625 9.109375 
Q 43.5 14.015625 43.5 23.390625 
z
" id="DejaVuSerif-64"/>
     <path d="M 9.71875 68.015625 
Q 9.71875 70.265625 11.34375 71.921875 
Q 12.984375 73.578125 15.28125 73.578125 
Q 17.53125 73.578125 19.15625 71.921875 
Q 20.796875 70.265625 20.796875 68.015625 
Q 20.796875 65.71875 19.1875 64.109375 
Q 17.578125 62.5 15.28125 62.5 
Q 12.984375 62.5 11.34375 64.109375 
Q 9.71875 65.71875 9.71875 68.015625 
z
M 21.1875 5.171875 
L 29.6875 5.171875 
L 29.6875 0 
L 3.609375 0 
L 3.609375 5.171875 
L 12.203125 5.171875 
L 12.203125 46.6875 
L 3.609375 46.6875 
L 3.609375 51.90625 
L 21.1875 51.90625 
z
" id="DejaVuSerif-69"/>
     <path d="M 39.796875 16.3125 
L 39.796875 27.296875 
L 28.21875 27.296875 
Q 21.53125 27.296875 18.25 24.40625 
Q 14.984375 21.53125 14.984375 15.578125 
Q 14.984375 10.15625 18.296875 6.984375 
Q 21.625 3.8125 27.296875 3.8125 
Q 32.90625 3.8125 36.34375 7.28125 
Q 39.796875 10.75 39.796875 16.3125 
z
M 48.78125 32.421875 
L 48.78125 5.171875 
L 56.78125 5.171875 
L 56.78125 0 
L 39.796875 0 
L 39.796875 5.609375 
Q 36.8125 2 32.90625 0.28125 
Q 29 -1.421875 23.78125 -1.421875 
Q 15.140625 -1.421875 10.0625 3.171875 
Q 4.984375 7.765625 4.984375 15.578125 
Q 4.984375 23.640625 10.796875 28.078125 
Q 16.609375 32.515625 27.203125 32.515625 
L 39.796875 32.515625 
L 39.796875 36.078125 
Q 39.796875 42 36.203125 45.234375 
Q 32.625 48.484375 26.125 48.484375 
Q 20.75 48.484375 17.578125 46.046875 
Q 14.40625 43.609375 13.625 38.8125 
L 8.984375 38.8125 
L 8.984375 49.3125 
Q 13.671875 51.3125 18.09375 52.3125 
Q 22.515625 53.328125 26.703125 53.328125 
Q 37.5 53.328125 43.140625 47.96875 
Q 48.78125 42.625 48.78125 32.421875 
z
" id="DejaVuSerif-61"/>
     <path d="M 52.484375 46.6875 
L 52.484375 1.125 
Q 52.484375 -10.0625 46.328125 -16.140625 
Q 40.1875 -22.21875 28.8125 -22.21875 
Q 23.6875 -22.21875 19 -21.28125 
Q 14.3125 -20.359375 10.015625 -18.5 
L 10.015625 -7.625 
L 14.703125 -7.625 
Q 15.578125 -12.703125 18.84375 -15.046875 
Q 22.125 -17.390625 28.21875 -17.390625 
Q 36.140625 -17.390625 39.8125 -12.921875 
Q 43.5 -8.453125 43.5 1.125 
L 43.5 8.109375 
Q 40.875 3.21875 36.796875 0.890625 
Q 32.71875 -1.421875 26.703125 -1.421875 
Q 17.140625 -1.421875 11.0625 6.171875 
Q 4.984375 13.765625 4.984375 25.984375 
Q 4.984375 38.1875 11.03125 45.75 
Q 17.09375 53.328125 26.703125 53.328125 
Q 32.71875 53.328125 36.796875 51 
Q 40.875 48.6875 43.5 43.796875 
L 43.5 51.90625 
L 61.078125 51.90625 
L 61.078125 46.6875 
z
M 43.5 28.515625 
Q 43.5 37.84375 39.90625 42.765625 
Q 36.328125 47.703125 29.5 47.703125 
Q 22.5625 47.703125 19.015625 42.234375 
Q 15.484375 36.765625 15.484375 25.984375 
Q 15.484375 15.234375 19.015625 9.71875 
Q 22.5625 4.203125 29.5 4.203125 
Q 36.328125 4.203125 39.90625 9.109375 
Q 43.5 14.015625 43.5 23.390625 
z
" id="DejaVuSerif-67"/>
     <path d="M 47.796875 52 
L 47.796875 39.015625 
L 42.625 39.015625 
Q 42.390625 42.875 40.484375 44.78125 
Q 38.578125 46.6875 34.90625 46.6875 
Q 28.265625 46.6875 24.71875 42.09375 
Q 21.1875 37.5 21.1875 28.90625 
L 21.1875 5.171875 
L 31.59375 5.171875 
L 31.59375 0 
L 4.109375 0 
L 4.109375 5.171875 
L 12.203125 5.171875 
L 12.203125 46.78125 
L 3.609375 46.78125 
L 3.609375 51.90625 
L 21.1875 51.90625 
L 21.1875 42.671875 
Q 23.828125 48.09375 27.96875 50.703125 
Q 32.125 53.328125 38.09375 53.328125 
Q 40.28125 53.328125 42.703125 52.984375 
Q 45.125 52.640625 47.796875 52 
z
" id="DejaVuSerif-72"/>
     <path d="M 51.8125 41.796875 
Q 54.390625 47.515625 58.421875 50.421875 
Q 62.453125 53.328125 67.828125 53.328125 
Q 75.984375 53.328125 79.984375 48.265625 
Q 83.984375 43.21875 83.984375 33.015625 
L 83.984375 5.171875 
L 92.09375 5.171875 
L 92.09375 0 
L 67.1875 0 
L 67.1875 5.171875 
L 75 5.171875 
L 75 31.984375 
Q 75 39.9375 72.65625 43.3125 
Q 70.3125 46.6875 64.890625 46.6875 
Q 58.890625 46.6875 55.734375 42.140625 
Q 52.59375 37.59375 52.59375 28.90625 
L 52.59375 5.171875 
L 60.40625 5.171875 
L 60.40625 0 
L 35.796875 0 
L 35.796875 5.171875 
L 43.609375 5.171875 
L 43.609375 32.328125 
Q 43.609375 40.09375 41.265625 43.390625 
Q 38.921875 46.6875 33.5 46.6875 
Q 27.484375 46.6875 24.328125 42.140625 
Q 21.1875 37.59375 21.1875 28.90625 
L 21.1875 5.171875 
L 29 5.171875 
L 29 0 
L 4.109375 0 
L 4.109375 5.171875 
L 12.203125 5.171875 
L 12.203125 46.78125 
L 3.609375 46.78125 
L 3.609375 51.90625 
L 21.1875 51.90625 
L 21.1875 42.671875 
Q 23.6875 47.859375 27.53125 50.59375 
Q 31.390625 53.328125 36.28125 53.328125 
Q 42.328125 53.328125 46.375 50.3125 
Q 50.4375 47.3125 51.8125 41.796875 
z
" id="DejaVuSerif-6d"/>
    </defs>
    <g style="fill:#262626;" transform="translate(476.106375 27.568)scale(0.096 -0.096)">
     <use xlink:href="#DejaVuSerif-4c"/>
     <use x="66.40625" xlink:href="#DejaVuSerif-65"/>
     <use x="125.585938" xlink:href="#DejaVuSerif-65"/>
     <use x="184.765625" xlink:href="#DejaVuSerif-20"/>
     <use x="216.552734" xlink:href="#DejaVuSerif-64"/>
     <use x="280.566406" xlink:href="#DejaVuSerif-69"/>
     <use x="312.548828" xlink:href="#DejaVuSerif-61"/>
     <use x="372.167969" xlink:href="#DejaVuSerif-67"/>
     <use x="436.181641" xlink:href="#DejaVuSerif-72"/>
     <use x="483.984375" xlink:href="#DejaVuSerif-61"/>
     <use x="543.603516" xlink:href="#DejaVuSerif-6d"/>
    </g>
   </g>
  </g>
  <g id="text_39">
   <!-- : lognorm -->
   <defs>
    <path d="M 10.40625 5.078125 
Q 10.40625 7.8125 12.28125 9.71875 
Q 14.15625 11.625 16.890625 11.625 
Q 19.625 11.625 21.5 9.71875 
Q 23.390625 7.8125 23.390625 5.078125 
Q 23.390625 2.34375 21.53125 0.453125 
Q 19.671875 -1.421875 16.890625 -1.421875 
Q 14.109375 -1.421875 12.25 0.453125 
Q 10.40625 2.34375 10.40625 5.078125 
z
M 10.40625 36.921875 
Q 10.40625 39.65625 12.28125 41.53125 
Q 14.15625 43.40625 16.890625 43.40625 
Q 19.671875 43.40625 21.53125 41.546875 
Q 23.390625 39.703125 23.390625 36.921875 
Q 23.390625 34.125 21.53125 32.265625 
Q 19.671875 30.421875 16.890625 30.421875 
Q 14.15625 30.421875 12.28125 32.296875 
Q 10.40625 34.1875 10.40625 36.921875 
z
" id="DejaVuSerif-3a"/>
    <path d="M 20.515625 5.171875 
L 29 5.171875 
L 29 0 
L 2.875 0 
L 2.875 5.171875 
L 11.53125 5.171875 
L 11.53125 70.796875 
L 2.875 70.796875 
L 2.875 75.984375 
L 20.515625 75.984375 
z
" id="DejaVuSerif-6c"/>
    <path d="M 30.078125 3.421875 
Q 37.3125 3.421875 40.984375 9.125 
Q 44.671875 14.84375 44.671875 25.984375 
Q 44.671875 37.109375 40.984375 42.796875 
Q 37.3125 48.484375 30.078125 48.484375 
Q 22.859375 48.484375 19.171875 42.796875 
Q 15.484375 37.109375 15.484375 25.984375 
Q 15.484375 14.84375 19.1875 9.125 
Q 22.90625 3.421875 30.078125 3.421875 
z
M 30.078125 -1.421875 
Q 18.75 -1.421875 11.859375 6.078125 
Q 4.984375 13.578125 4.984375 25.984375 
Q 4.984375 38.375 11.84375 45.84375 
Q 18.703125 53.328125 30.078125 53.328125 
Q 41.453125 53.328125 48.3125 45.84375 
Q 55.171875 38.375 55.171875 25.984375 
Q 55.171875 13.578125 48.3125 6.078125 
Q 41.453125 -1.421875 30.078125 -1.421875 
z
" id="DejaVuSerif-6f"/>
    <path d="M 4.109375 0 
L 4.109375 5.171875 
L 12.203125 5.171875 
L 12.203125 46.6875 
L 3.609375 46.6875 
L 3.609375 51.90625 
L 21.1875 51.90625 
L 21.1875 42.671875 
Q 23.6875 47.953125 27.65625 50.640625 
Q 31.640625 53.328125 36.921875 53.328125 
Q 45.515625 53.328125 49.5625 48.390625 
Q 53.609375 43.453125 53.609375 33.015625 
L 53.609375 5.171875 
L 61.625 5.171875 
L 61.625 0 
L 36.8125 0 
L 36.8125 5.171875 
L 44.578125 5.171875 
L 44.578125 30.171875 
Q 44.578125 39.703125 42.234375 43.234375 
Q 39.890625 46.78125 33.984375 46.78125 
Q 27.734375 46.78125 24.453125 42.203125 
Q 21.1875 37.640625 21.1875 28.90625 
L 21.1875 5.171875 
L 29 5.171875 
L 29 0 
z
" id="DejaVuSerif-6e"/>
   </defs>
   <g style="fill:#262626;" transform="translate(257.0385 15.9534)scale(0.1152 -0.1152)">
    <use xlink:href="#DejaVuSerif-3a"/>
    <use x="33.691406" xlink:href="#DejaVuSerif-20"/>
    <use x="65.478516" xlink:href="#DejaVuSerif-6c"/>
    <use x="97.460938" xlink:href="#DejaVuSerif-6f"/>
    <use x="157.666016" xlink:href="#DejaVuSerif-67"/>
    <use x="221.679688" xlink:href="#DejaVuSerif-6e"/>
    <use x="286.083984" xlink:href="#DejaVuSerif-6f"/>
    <use x="346.289062" xlink:href="#DejaVuSerif-72"/>
    <use x="394.091797" xlink:href="#DejaVuSerif-6d"/>
   </g>
  </g>
 </g>
 <defs>
  <clipPath id="pf9a5a464a4">
   <rect height="96.664" width="94.53375" x="40.7925" y="33.568"/>
  </clipPath>
  <clipPath id="p586571cfc3">
   <rect height="96.664" width="94.53375" x="180.35675" y="33.568"/>
  </clipPath>
  <clipPath id="p04d07697e5">
   <rect height="96.664" width="94.53375" x="319.921" y="33.568"/>
  </clipPath>
  <clipPath id="p244548a0fd">
   <rect height="96.664" width="94.53375" x="459.48525" y="33.568"/>
  </clipPath>
 </defs>
</svg>
